<svg width="24" height="24" viewBox="0 0 24 24" fill="none" xmlns="http://www.w3.org/2000/svg">
<path fill-rule="evenodd" clip-rule="evenodd" d="M20 18H19C18.4 18 18 17.6 18 17C18 16.4 18.4 16 19 16H20C20.6 16 21 15.6 21 15V5C21 4.4 20.6 4 20 4H4C3.4 4 3 4.4 3 5V15C3 15.6 3.4 16 4 16H5C5.6 16 6 16.4 6 17C6 17.6 5.6 18 5 18H4C2.3 18 1 16.7 1 15V5C1 3.3 2.3 2 4 2H20C21.7 2 23 3.3 23 5V15C23 16.7 21.7 18 20 18ZM17.9 21.4C18.1 21 18 20.6 17.8 20.3L12.8 14.3C12.4 13.8 11.6 13.8 11.3 14.3L6.3 20.3C6.1 20.6 6 21 6.2 21.4C6.3 21.8 6.6 22 7 22H17C17.4 22 17.7 21.8 17.9 21.4ZM14.9 20L12 16.6L9.1 20H14.9Z" fill="black"/>
<mask id="mask0" mask-type="alpha" maskUnits="userSpaceOnUse" x="1" y="2" width="22" height="20">
<path fill-rule="evenodd" clip-rule="evenodd" d="M20 18H19C18.4 18 18 17.6 18 17C18 16.4 18.4 16 19 16H20C20.6 16 21 15.6 21 15V5C21 4.4 20.6 4 20 4H4C3.4 4 3 4.4 3 5V15C3 15.6 3.4 16 4 16H5C5.6 16 6 16.4 6 17C6 17.6 5.6 18 5 18H4C2.3 18 1 16.7 1 15V5C1 3.3 2.3 2 4 2H20C21.7 2 23 3.3 23 5V15C23 16.7 21.7 18 20 18ZM17.9 21.4C18.1 21 18 20.6 17.8 20.3L12.8 14.3C12.4 13.8 11.6 13.8 11.3 14.3L6.3 20.3C6.1 20.6 6 21 6.2 21.4C6.3 21.8 6.6 22 7 22H17C17.4 22 17.7 21.8 17.9 21.4ZM14.9 20L12 16.6L9.1 20H14.9Z" fill="white"/>
</mask>
<g mask="url(#mask0)">
<rect width="24" height="24" fill="#347AF0"/>
</g>
</svg>
