<svg width="24" height="24" viewBox="0 0 24 24" fill="none" xmlns="http://www.w3.org/2000/svg">
<path fill-rule="evenodd" clip-rule="evenodd" d="M16.1 23C16.4 23 16.7 22.9 16.8 22.8L22.7 16.9C22.9 16.7 23 16.5 23 16.2V7.9C23 7.6 22.9 7.3 22.8 7.2L16.9 1.3C16.7 1.1 16.5 1 16.2 1H7.9C7.6 1 7.3 1.1 7.2 1.3L1.3 7.2C1.1 7.4 1 7.6 1 7.9V16.1C1 16.4 1.1 16.7 1.3 16.8L7.2 22.7C7.4 22.9 7.6 23 7.9 23H16.1ZM15.8 21H8.3L3 15.8V8.3L8.3 3H15.7L21.1 8.3V15.7L15.8 21ZM13 12V8C13 7.4 12.6 7 12 7C11.4 7 11 7.4 11 8V12C11 12.6 11.4 13 12 13C12.6 13 13 12.6 13 12ZM12.7 16.7L12.7 16.7C12.5 16.9 12.3 17 11.9 17C11.6 17 11.4 16.9 11.2 16.7C11 16.5 10.9 16.3 10.9 16C10.9 15.8828 10.9343 15.8 10.9627 15.7314C10.9828 15.6828 11 15.6414 11 15.6C11 15.5 11.1 15.4 11.2 15.3C11.5 15 11.9 14.9 12.3 15.1C12.35 15.1 12.375 15.125 12.4 15.15C12.425 15.175 12.45 15.2 12.5 15.2C12.6 15.2 12.7 15.3 12.7 15.3C12.75 15.35 12.775 15.4 12.8 15.45C12.825 15.5 12.85 15.55 12.9 15.6C13 15.7 13 15.9 13 16C13 16.05 12.975 16.125 12.95 16.2C12.925 16.275 12.9 16.35 12.9 16.4C12.9 16.5 12.8 16.6 12.7 16.7Z" fill="black"/>
<mask id="mask0" mask-type="alpha" maskUnits="userSpaceOnUse" x="1" y="1" width="22" height="22">
<path fill-rule="evenodd" clip-rule="evenodd" d="M16.1 23C16.4 23 16.7 22.9 16.8 22.8L22.7 16.9C22.9 16.7 23 16.5 23 16.2V7.9C23 7.6 22.9 7.3 22.8 7.2L16.9 1.3C16.7 1.1 16.5 1 16.2 1H7.9C7.6 1 7.3 1.1 7.2 1.3L1.3 7.2C1.1 7.4 1 7.6 1 7.9V16.1C1 16.4 1.1 16.7 1.3 16.8L7.2 22.7C7.4 22.9 7.6 23 7.9 23H16.1ZM15.8 21H8.3L3 15.8V8.3L8.3 3H15.7L21.1 8.3V15.7L15.8 21ZM13 12V8C13 7.4 12.6 7 12 7C11.4 7 11 7.4 11 8V12C11 12.6 11.4 13 12 13C12.6 13 13 12.6 13 12ZM12.7 16.7L12.7 16.7C12.5 16.9 12.3 17 11.9 17C11.6 17 11.4 16.9 11.2 16.7C11 16.5 10.9 16.3 10.9 16C10.9 15.8828 10.9343 15.8 10.9627 15.7314C10.9828 15.6828 11 15.6414 11 15.6C11 15.5 11.1 15.4 11.2 15.3C11.5 15 11.9 14.9 12.3 15.1C12.35 15.1 12.375 15.125 12.4 15.15C12.425 15.175 12.45 15.2 12.5 15.2C12.6 15.2 12.7 15.3 12.7 15.3C12.75 15.35 12.775 15.4 12.8 15.45C12.825 15.5 12.85 15.55 12.9 15.6C13 15.7 13 15.9 13 16C13 16.05 12.975 16.125 12.95 16.2C12.925 16.275 12.9 16.35 12.9 16.4C12.9 16.5 12.8 16.6 12.7 16.7Z" fill="white"/>
</mask>
<g mask="url(#mask0)">
<rect width="24" height="24" fill="#347AF0"/>
</g>
</svg>
