<svg width="24" height="24" viewBox="0 0 24 24" fill="none" xmlns="http://www.w3.org/2000/svg">
<path fill-rule="evenodd" clip-rule="evenodd" d="M1.99999 21.6C2.49999 21.9 2.99999 22 3.49999 22H20.5C21.3 22 22 21.7 22.5 21.1C23.1 20.6 23.4 19.8 23.4 19C23.4 18.5 23.3 18 23 17.5L14.6 3.39999C14.1 2.69999 13.5 2.19999 12.7 1.99999C11.9 1.79999 11.1 1.89999 10.4 2.29999C9.99999 2.49999 9.59999 2.89999 9.39999 3.29999L0.899987 17.5C0.0999871 18.9 0.599987 20.8 1.99999 21.6ZM2.69999 18.5L11.1 4.39999C11.2 4.19999 11.3 4.09999 11.5 3.99999C12 3.79999 12.6 3.89999 12.9 4.39999L21.3 18.5C21.4 18.7 21.4 18.8 21.4 19C21.4 19.3 21.3 19.5 21.1 19.7C20.9 19.9 20.7 20 20.4 20H3.49999C3.39999 20 3.19999 20 3.09999 19.9C2.59999 19.6 2.39999 19 2.69999 18.5ZM13 13V8.99999C13 8.39999 12.6 7.99999 12 7.99999C11.4 7.99999 11 8.39999 11 8.99999V13C11 13.6 11.4 14 12 14C12.6 14 13 13.6 13 13ZM13 17C13 17.3 12.9 17.5 12.7 17.7C12.5 17.9 12.3 18 11.9 18C11.6 18 11.4 17.9 11.2 17.7C11 17.5 10.9 17.3 10.9 17C10.9 16.8828 10.9343 16.8 10.9627 16.7314C10.9828 16.6828 11 16.6414 11 16.6C11 16.5 11.1 16.4 11.2 16.3C11.3 16.2 11.4 16.1 11.5 16.1C11.7 16 11.9 16 12.1 16C12.1575 16.0575 12.1819 16.0819 12.2113 16.0923C12.2331 16.1 12.2575 16.1 12.3 16.1C12.35 16.1 12.375 16.125 12.4 16.15C12.425 16.175 12.45 16.2 12.5 16.2C12.6 16.2 12.7 16.3 12.7 16.3C12.8 16.4 12.9 16.5 12.9 16.6C13 16.7 13 16.9 13 17Z" fill="black"/>
<mask id="mask0" mask-type="alpha" maskUnits="userSpaceOnUse" x="0" y="1" width="24" height="21">
<path fill-rule="evenodd" clip-rule="evenodd" d="M1.99999 21.6C2.49999 21.9 2.99999 22 3.49999 22H20.5C21.3 22 22 21.7 22.5 21.1C23.1 20.6 23.4 19.8 23.4 19C23.4 18.5 23.3 18 23 17.5L14.6 3.39999C14.1 2.69999 13.5 2.19999 12.7 1.99999C11.9 1.79999 11.1 1.89999 10.4 2.29999C9.99999 2.49999 9.59999 2.89999 9.39999 3.29999L0.899987 17.5C0.0999871 18.9 0.599987 20.8 1.99999 21.6ZM2.69999 18.5L11.1 4.39999C11.2 4.19999 11.3 4.09999 11.5 3.99999C12 3.79999 12.6 3.89999 12.9 4.39999L21.3 18.5C21.4 18.7 21.4 18.8 21.4 19C21.4 19.3 21.3 19.5 21.1 19.7C20.9 19.9 20.7 20 20.4 20H3.49999C3.39999 20 3.19999 20 3.09999 19.9C2.59999 19.6 2.39999 19 2.69999 18.5ZM13 13V8.99999C13 8.39999 12.6 7.99999 12 7.99999C11.4 7.99999 11 8.39999 11 8.99999V13C11 13.6 11.4 14 12 14C12.6 14 13 13.6 13 13ZM13 17C13 17.3 12.9 17.5 12.7 17.7C12.5 17.9 12.3 18 11.9 18C11.6 18 11.4 17.9 11.2 17.7C11 17.5 10.9 17.3 10.9 17C10.9 16.8828 10.9343 16.8 10.9627 16.7314C10.9828 16.6828 11 16.6414 11 16.6C11 16.5 11.1 16.4 11.2 16.3C11.3 16.2 11.4 16.1 11.5 16.1C11.7 16 11.9 16 12.1 16C12.1575 16.0575 12.1819 16.0819 12.2113 16.0923C12.2331 16.1 12.2575 16.1 12.3 16.1C12.35 16.1 12.375 16.125 12.4 16.15C12.425 16.175 12.45 16.2 12.5 16.2C12.6 16.2 12.7 16.3 12.7 16.3C12.8 16.4 12.9 16.5 12.9 16.6C13 16.7 13 16.9 13 17Z" fill="white"/>
</mask>
<g mask="url(#mask0)">
<rect width="24" height="24" fill="#347AF0"/>
</g>
</svg>
