<svg width="24" height="24" viewBox="0 0 24 24" fill="none" xmlns="http://www.w3.org/2000/svg">
<path fill-rule="evenodd" clip-rule="evenodd" d="M23 12C23 14.4 22.2 16.6 20.9 18.4C20.9 18.5 20.8 18.6 20.7 18.7C18.7 21.4 15.5 23.1 11.9 23.1C11.7 23.1 11.5 23.075 11.3 23.05C11.1 23.025 10.9 23 10.7 23H10.6C6.7 22.5 3.4 19.9 1.9 16.5V16.4C1.3 15 1 13.5 1 12C1 9.6 1.8 7.4 3.1 5.6C3.1 5.55 3.125 5.525 3.15 5.5C3.175 5.475 3.2 5.45 3.2 5.4C5.2 2.7 8.4 1 12 1C12.4 1 12.8 1 13.2 1.1H13.3C17.3 1.6 20.6 4.1 22.1 7.6V7.7C22.7 9 23 10.5 23 12ZM10.2 15H13.7L15.4 12L13.7 9H10.2L8.5 12L10.2 15ZM3 12C3 10.6 3.3 9.2 3.9 8L7.9 15H3.5C3.2 14.1 3 13.1 3 12ZM20.4 9H16L20 16C20.6 14.8 20.9 13.4 20.9 12C20.9 10.9 20.7 9.9 20.4 9ZM19.5 7H11.4L13.6 3.2C16.1 3.6 18.2 5 19.5 7ZM7.4 10L11.4 3C8.9 3.2 6.7 4.4 5.2 6.2L7.4 10ZM4.5 17H12.6L10.4 20.8C7.9 20.4 5.8 19 4.5 17ZM16.6 14L12.6 21C15.1 20.8 17.3 19.6 18.8 17.8L16.6 14Z" fill="black"/>
<mask id="mask0" mask-type="alpha" maskUnits="userSpaceOnUse" x="1" y="1" width="22" height="23">
<path fill-rule="evenodd" clip-rule="evenodd" d="M23 12C23 14.4 22.2 16.6 20.9 18.4C20.9 18.5 20.8 18.6 20.7 18.7C18.7 21.4 15.5 23.1 11.9 23.1C11.7 23.1 11.5 23.075 11.3 23.05C11.1 23.025 10.9 23 10.7 23H10.6C6.7 22.5 3.4 19.9 1.9 16.5V16.4C1.3 15 1 13.5 1 12C1 9.6 1.8 7.4 3.1 5.6C3.1 5.55 3.125 5.525 3.15 5.5C3.175 5.475 3.2 5.45 3.2 5.4C5.2 2.7 8.4 1 12 1C12.4 1 12.8 1 13.2 1.1H13.3C17.3 1.6 20.6 4.1 22.1 7.6V7.7C22.7 9 23 10.5 23 12ZM10.2 15H13.7L15.4 12L13.7 9H10.2L8.5 12L10.2 15ZM3 12C3 10.6 3.3 9.2 3.9 8L7.9 15H3.5C3.2 14.1 3 13.1 3 12ZM20.4 9H16L20 16C20.6 14.8 20.9 13.4 20.9 12C20.9 10.9 20.7 9.9 20.4 9ZM19.5 7H11.4L13.6 3.2C16.1 3.6 18.2 5 19.5 7ZM7.4 10L11.4 3C8.9 3.2 6.7 4.4 5.2 6.2L7.4 10ZM4.5 17H12.6L10.4 20.8C7.9 20.4 5.8 19 4.5 17ZM16.6 14L12.6 21C15.1 20.8 17.3 19.6 18.8 17.8L16.6 14Z" fill="white"/>
</mask>
<g mask="url(#mask0)">
<rect width="24" height="24" fill="#347AF0"/>
</g>
</svg>
