<svg width="24" height="24" viewBox="0 0 24 24" fill="none" xmlns="http://www.w3.org/2000/svg">
<path fill-rule="evenodd" clip-rule="evenodd" d="M1 2H23C23.5523 2 24 2.44772 24 3V8C24 8.55228 23.5523 9 23 9H22V8C22 7.44772 21.5523 7 21 7H22V4H2V7H3C2.44772 7 2 7.44772 2 8V9H1C0.447715 9 0 8.55228 0 8V3C0 2.44772 0.447715 2 1 2ZM4 9H2V21C2 21.5523 2.44772 22 3 22H21C21.5523 22 22 21.5523 22 21V9H20V8C20 7.44772 20.4477 7 21 7H3C3.55228 7 4 7.44772 4 8V9ZM4 9H20V20H4V9ZM9 12C9 12.5523 9.44771 13 10 13H14C14.5523 13 15 12.5523 15 12C15 11.4477 14.5523 11 14 11H10C9.44771 11 9 11.4477 9 12Z" fill="black"/>
<mask id="mask0" mask-type="alpha" maskUnits="userSpaceOnUse" x="0" y="2" width="24" height="20">
<path fill-rule="evenodd" clip-rule="evenodd" d="M1 2H23C23.5523 2 24 2.44772 24 3V8C24 8.55228 23.5523 9 23 9H22V8C22 7.44772 21.5523 7 21 7H22V4H2V7H3C2.44772 7 2 7.44772 2 8V9H1C0.447715 9 0 8.55228 0 8V3C0 2.44772 0.447715 2 1 2ZM4 9H2V21C2 21.5523 2.44772 22 3 22H21C21.5523 22 22 21.5523 22 21V9H20V8C20 7.44772 20.4477 7 21 7H3C3.55228 7 4 7.44772 4 8V9ZM4 9H20V20H4V9ZM9 12C9 12.5523 9.44771 13 10 13H14C14.5523 13 15 12.5523 15 12C15 11.4477 14.5523 11 14 11H10C9.44771 11 9 11.4477 9 12Z" fill="white"/>
</mask>
<g mask="url(#mask0)">
<rect width="24" height="24" fill="#347AF0"/>
</g>
</svg>
