<svg width="24" height="24" viewBox="0 0 24 24" fill="none" xmlns="http://www.w3.org/2000/svg">
<path fill-rule="evenodd" clip-rule="evenodd" d="M11 7.41421V19C11 19.5523 11.4477 20 12 20C12.5523 20 13 19.5523 13 19V7.41421L18.2929 12.7071C18.6834 13.0976 19.3166 13.0976 19.7071 12.7071C20.0976 12.3166 20.0976 11.6834 19.7071 11.2929L12.7076 4.29342M11.2925 4.29326L4.29289 11.2929C3.90237 11.6834 3.90237 12.3166 4.29289 12.7071C4.68342 13.0976 5.31658 13.0976 5.70711 12.7071L11 7.41421M11.295 4.29078C11.5896 3.9979 12.0212 3.92627 12.3828 4.07588C12.2649 4.02699 12.1356 4 12 4" fill="black"/>
<mask id="mask0" mask-type="alpha" maskUnits="userSpaceOnUse" x="4" y="4" width="16" height="16">
<path fill-rule="evenodd" clip-rule="evenodd" d="M11 7.41421V19C11 19.5523 11.4477 20 12 20C12.5523 20 13 19.5523 13 19V7.41421L18.2929 12.7071C18.6834 13.0976 19.3166 13.0976 19.7071 12.7071C20.0976 12.3166 20.0976 11.6834 19.7071 11.2929L12.7076 4.29342M11.2925 4.29326L4.29289 11.2929C3.90237 11.6834 3.90237 12.3166 4.29289 12.7071C4.68342 13.0976 5.31658 13.0976 5.70711 12.7071L11 7.41421M11.295 4.29078C11.5896 3.9979 12.0212 3.92627 12.3828 4.07588C12.2649 4.02699 12.1356 4 12 4" fill="white"/>
</mask>
<g mask="url(#mask0)">
<rect width="24" height="24" fill="#347AF0"/>
</g>
</svg>
