<svg width="24" height="24" viewBox="0 0 24 24" fill="none" xmlns="http://www.w3.org/2000/svg">
<path fill-rule="evenodd" clip-rule="evenodd" d="M4.22183 4.22184C8.53518 -0.0915122 15.4648 -0.0915122 19.7782 4.22184C24.0915 8.53519 24.0915 15.4648 19.7782 19.7782C15.4648 24.0915 8.53518 24.0915 4.22183 19.7782C-0.0915257 15.4648 -0.091526 8.53519 4.22183 4.22184ZM18.364 18.364C21.8995 14.8284 21.8995 9.17159 18.364 5.63605C14.8284 2.10052 9.17157 2.10052 5.63604 5.63605C2.10051 9.17159 2.10051 14.8284 5.63604 18.364C9.17157 21.8995 14.8284 21.8995 18.364 18.364ZM8.31888 15.3012C8.29878 15.2527 8.28162 15.2113 8.25233 15.182C8.18162 15.1113 8.18162 14.9699 8.18162 14.8284V9.17159C8.18162 8.6059 8.60589 8.18164 9.17157 8.18164C9.73726 8.18164 10.1615 8.6059 10.1615 9.17159V12.4243L14.1213 8.46448C14.5456 8.04022 15.1113 8.04022 15.5355 8.46448C15.9598 8.88874 15.9598 9.45443 15.5355 9.87869L11.5757 13.8385H14.8284C15.3941 13.8385 15.8184 14.2628 15.8184 14.8284C15.8184 15.1113 15.7477 15.3234 15.5355 15.5355C15.3234 15.7477 15.1113 15.8184 14.8284 15.8184H9.17157C9.03015 15.8184 8.88873 15.8184 8.81802 15.7477C8.6766 15.7477 8.53518 15.6063 8.46447 15.5355C8.38162 15.4527 8.34731 15.3699 8.31888 15.3012Z" fill="black"/>
<mask id="mask0" mask-type="alpha" maskUnits="userSpaceOnUse" x="0" y="0" width="24" height="24">
<path fill-rule="evenodd" clip-rule="evenodd" d="M4.22183 4.22184C8.53518 -0.0915122 15.4648 -0.0915122 19.7782 4.22184C24.0915 8.53519 24.0915 15.4648 19.7782 19.7782C15.4648 24.0915 8.53518 24.0915 4.22183 19.7782C-0.0915257 15.4648 -0.091526 8.53519 4.22183 4.22184ZM18.364 18.364C21.8995 14.8284 21.8995 9.17159 18.364 5.63605C14.8284 2.10052 9.17157 2.10052 5.63604 5.63605C2.10051 9.17159 2.10051 14.8284 5.63604 18.364C9.17157 21.8995 14.8284 21.8995 18.364 18.364ZM8.31888 15.3012C8.29878 15.2527 8.28162 15.2113 8.25233 15.182C8.18162 15.1113 8.18162 14.9699 8.18162 14.8284V9.17159C8.18162 8.6059 8.60589 8.18164 9.17157 8.18164C9.73726 8.18164 10.1615 8.6059 10.1615 9.17159V12.4243L14.1213 8.46448C14.5456 8.04022 15.1113 8.04022 15.5355 8.46448C15.9598 8.88874 15.9598 9.45443 15.5355 9.87869L11.5757 13.8385H14.8284C15.3941 13.8385 15.8184 14.2628 15.8184 14.8284C15.8184 15.1113 15.7477 15.3234 15.5355 15.5355C15.3234 15.7477 15.1113 15.8184 14.8284 15.8184H9.17157C9.03015 15.8184 8.88873 15.8184 8.81802 15.7477C8.6766 15.7477 8.53518 15.6063 8.46447 15.5355C8.38162 15.4527 8.34731 15.3699 8.31888 15.3012Z" fill="white"/>
</mask>
<g mask="url(#mask0)">
<rect width="24" height="24" fill="#347AF0"/>
</g>
</svg>
