<svg width="32" height="32" viewBox="0 0 32 32" fill="none" xmlns="http://www.w3.org/2000/svg">
<path fill-rule="evenodd" clip-rule="evenodd" d="M8.22187 8.22183C3.90852 12.5352 3.90852 19.4648 8.22187 23.7782C12.5352 28.0915 19.4649 28.0915 23.7782 23.7782C28.0916 19.4648 28.0916 12.5352 23.7782 8.22183C19.4649 3.90847 12.5352 3.90847 8.22187 8.22183ZM12.1817 13.1716C12.1817 13.7373 12.6059 14.1615 13.1716 14.1615H16.4243L12.4645 18.1213C12.0402 18.5456 12.0402 19.1113 12.4645 19.5355C12.8888 19.9598 13.4545 19.9598 13.8787 19.5355L17.8385 15.5757V18.8284C17.8385 19.3941 18.2628 19.8184 18.8285 19.8184C19.3942 19.8184 19.8184 19.3941 19.8184 18.8284V13.1716C19.8184 13.0302 19.8184 12.8887 19.7477 12.818C19.7477 12.6766 19.6063 12.5352 19.5356 12.4645C19.4649 12.3938 19.3234 12.2523 19.182 12.2523C19.1113 12.1816 18.9699 12.1816 18.8285 12.1816H13.1716C12.6059 12.1816 12.1817 12.6059 12.1817 13.1716ZM22.364 9.63604C18.8285 6.10051 13.1716 6.10051 9.63609 9.63604C6.10055 13.1716 6.10055 18.8284 9.63609 22.364C13.1716 25.8995 18.8285 25.8995 22.364 22.364C25.8995 18.8284 25.8995 13.1716 22.364 9.63604Z" fill="black"/>
<mask id="mask0" mask-type="alpha" maskUnits="userSpaceOnUse" x="0" y="0" width="32" height="32">
<path fill-rule="evenodd" clip-rule="evenodd" d="M8.22187 8.22183C3.90852 12.5352 3.90852 19.4648 8.22187 23.7782C12.5352 28.0915 19.4649 28.0915 23.7782 23.7782C28.0916 19.4648 28.0916 12.5352 23.7782 8.22183C19.4649 3.90847 12.5352 3.90847 8.22187 8.22183ZM12.1817 13.1716C12.1817 13.7373 12.6059 14.1615 13.1716 14.1615H16.4243L12.4645 18.1213C12.0402 18.5456 12.0402 19.1113 12.4645 19.5355C12.8888 19.9598 13.4545 19.9598 13.8787 19.5355L17.8385 15.5757V18.8284C17.8385 19.3941 18.2628 19.8184 18.8285 19.8184C19.3942 19.8184 19.8184 19.3941 19.8184 18.8284V13.1716C19.8184 13.0302 19.8184 12.8887 19.7477 12.818C19.7477 12.6766 19.6063 12.5352 19.5356 12.4645C19.4649 12.3938 19.3234 12.2523 19.182 12.2523C19.1113 12.1816 18.9699 12.1816 18.8285 12.1816H13.1716C12.6059 12.1816 12.1817 12.6059 12.1817 13.1716ZM22.364 9.63604C18.8285 6.10051 13.1716 6.10051 9.63609 9.63604C6.10055 13.1716 6.10055 18.8284 9.63609 22.364C13.1716 25.8995 18.8285 25.8995 22.364 22.364C25.8995 18.8284 25.8995 13.1716 22.364 9.63604Z" fill="white"/>
</mask>
<g mask="url(#mask0)">
<rect x="4" y="4" width="24" height="24" fill="#347AF0"/>
</g>
</svg>
