<svg width="32" height="32" viewBox="0 0 32 32" fill="none" xmlns="http://www.w3.org/2000/svg">
<path fill-rule="evenodd" clip-rule="evenodd" d="M23.7781 8.22183C28.0915 12.5352 28.0915 19.4648 23.7781 23.7782C19.4648 28.0915 12.5351 28.0915 8.22178 23.7782C3.90843 19.4648 3.90843 12.5352 8.22178 8.22183C12.5351 3.90847 19.4648 3.90847 23.7781 8.22183ZM19.8183 13.1716C19.8183 13.7373 19.3941 14.1615 18.8284 14.1615H15.5757L19.5355 18.1213C19.9598 18.5456 19.9598 19.1113 19.5355 19.5355C19.1112 19.9598 18.5455 19.9598 18.1213 19.5355L14.1615 15.5757V18.8284C14.1615 19.3941 13.7372 19.8184 13.1715 19.8184C12.6058 19.8184 12.1816 19.3941 12.1816 18.8284V13.1716C12.1816 13.0302 12.1816 12.8887 12.2523 12.818C12.2523 12.6766 12.3937 12.5352 12.4644 12.4645C12.5351 12.3938 12.6766 12.2523 12.818 12.2523C12.8887 12.1816 13.0301 12.1816 13.1715 12.1816H18.8284C19.3941 12.1816 19.8183 12.6059 19.8183 13.1716ZM9.63599 9.63604C13.1715 6.10051 18.8284 6.10051 22.3639 9.63604C25.8994 13.1716 25.8994 18.8284 22.3639 22.364C18.8284 25.8995 13.1715 25.8995 9.63599 22.364C6.10046 18.8284 6.10046 13.1716 9.63599 9.63604Z" fill="black"/>
<mask id="mask0" mask-type="alpha" maskUnits="userSpaceOnUse" x="0" y="0" width="32" height="32">
<path fill-rule="evenodd" clip-rule="evenodd" d="M23.7781 8.22183C28.0915 12.5352 28.0915 19.4648 23.7781 23.7782C19.4648 28.0915 12.5351 28.0915 8.22178 23.7782C3.90843 19.4648 3.90843 12.5352 8.22178 8.22183C12.5351 3.90847 19.4648 3.90847 23.7781 8.22183ZM19.8183 13.1716C19.8183 13.7373 19.3941 14.1615 18.8284 14.1615H15.5757L19.5355 18.1213C19.9598 18.5456 19.9598 19.1113 19.5355 19.5355C19.1112 19.9598 18.5455 19.9598 18.1213 19.5355L14.1615 15.5757V18.8284C14.1615 19.3941 13.7372 19.8184 13.1715 19.8184C12.6058 19.8184 12.1816 19.3941 12.1816 18.8284V13.1716C12.1816 13.0302 12.1816 12.8887 12.2523 12.818C12.2523 12.6766 12.3937 12.5352 12.4644 12.4645C12.5351 12.3938 12.6766 12.2523 12.818 12.2523C12.8887 12.1816 13.0301 12.1816 13.1715 12.1816H18.8284C19.3941 12.1816 19.8183 12.6059 19.8183 13.1716ZM9.63599 9.63604C13.1715 6.10051 18.8284 6.10051 22.3639 9.63604C25.8994 13.1716 25.8994 18.8284 22.3639 22.364C18.8284 25.8995 13.1715 25.8995 9.63599 22.364C6.10046 18.8284 6.10046 13.1716 9.63599 9.63604Z" fill="white"/>
</mask>
<g mask="url(#mask0)">
<rect x="4" y="4" width="24" height="24" fill="#347AF0"/>
</g>
</svg>
