<svg width="24" height="24" viewBox="0 0 24 24" fill="none" xmlns="http://www.w3.org/2000/svg">
<path fill-rule="evenodd" clip-rule="evenodd" d="M4.22187 4.22183C-0.0914785 8.53518 -0.0914785 15.4648 4.22187 19.7782C8.53522 24.0915 15.4649 24.0915 19.7782 19.7782C24.0916 15.4648 24.0916 8.53518 19.7782 4.22183C15.4649 -0.091526 8.53522 -0.0915257 4.22187 4.22183ZM8.18167 9.17157C8.18167 9.73726 8.60594 10.1615 9.17162 10.1615H12.4243L8.46451 14.1213C8.04025 14.5456 8.04025 15.1113 8.46451 15.5355C8.88878 15.9598 9.45446 15.9598 9.87873 15.5355L13.8385 11.5757V14.8284C13.8385 15.3941 14.2628 15.8184 14.8285 15.8184C15.3942 15.8184 15.8184 15.3941 15.8184 14.8284V9.17157C15.8184 9.03015 15.8184 8.88873 15.7477 8.81802C15.7477 8.6766 15.6063 8.53518 15.5356 8.46447C15.4649 8.39376 15.3234 8.25233 15.182 8.25233C15.1113 8.18162 14.9699 8.18162 14.8285 8.18162H9.17162C8.60593 8.18162 8.18167 8.60589 8.18167 9.17157ZM18.364 5.63604C14.8285 2.10051 9.17162 2.10051 5.63609 5.63604C2.10055 9.17157 2.10055 14.8284 5.63609 18.364C9.17162 21.8995 14.8285 21.8995 18.364 18.364C21.8995 14.8284 21.8995 9.17157 18.364 5.63604Z" fill="black"/>
<mask id="mask0" mask-type="alpha" maskUnits="userSpaceOnUse" x="0" y="0" width="24" height="24">
<path fill-rule="evenodd" clip-rule="evenodd" d="M4.22187 4.22183C-0.0914785 8.53518 -0.0914785 15.4648 4.22187 19.7782C8.53522 24.0915 15.4649 24.0915 19.7782 19.7782C24.0916 15.4648 24.0916 8.53518 19.7782 4.22183C15.4649 -0.091526 8.53522 -0.0915257 4.22187 4.22183ZM8.18167 9.17157C8.18167 9.73726 8.60594 10.1615 9.17162 10.1615H12.4243L8.46451 14.1213C8.04025 14.5456 8.04025 15.1113 8.46451 15.5355C8.88878 15.9598 9.45446 15.9598 9.87873 15.5355L13.8385 11.5757V14.8284C13.8385 15.3941 14.2628 15.8184 14.8285 15.8184C15.3942 15.8184 15.8184 15.3941 15.8184 14.8284V9.17157C15.8184 9.03015 15.8184 8.88873 15.7477 8.81802C15.7477 8.6766 15.6063 8.53518 15.5356 8.46447C15.4649 8.39376 15.3234 8.25233 15.182 8.25233C15.1113 8.18162 14.9699 8.18162 14.8285 8.18162H9.17162C8.60593 8.18162 8.18167 8.60589 8.18167 9.17157ZM18.364 5.63604C14.8285 2.10051 9.17162 2.10051 5.63609 5.63604C2.10055 9.17157 2.10055 14.8284 5.63609 18.364C9.17162 21.8995 14.8285 21.8995 18.364 18.364C21.8995 14.8284 21.8995 9.17157 18.364 5.63604Z" fill="white"/>
</mask>
<g mask="url(#mask0)">
<rect width="24" height="24" fill="#347AF0"/>
</g>
</svg>
