<svg width="24" height="24" viewBox="0 0 24 24" fill="none" xmlns="http://www.w3.org/2000/svg">
<path fill-rule="evenodd" clip-rule="evenodd" d="M12 1C5.9 1 1 5.9 1 12C1 18.1 5.9 23 12 23C18.1 23 23 18.1 23 12C23 5.9 18.1 1 12 1ZM12 21C7 21 3 17 3 12C3 7 7 3 12 3C17 3 21 7 21 12C21 17 17 21 12 21ZM16 13C16.6 13 17 12.6 17 12C17 11.4 16.6 11 16 11H10.4L12.7 8.7C13.1 8.3 13.1 7.7 12.7 7.3C12.3 6.9 11.7 6.9 11.3 7.3L7.3 11.3C7.2 11.4 7.1 11.5 7.1 11.6C7 11.7 7 11.9 7 12C7 12.1 7 12.3 7.1 12.4C7.1 12.5 7.2 12.6 7.3 12.7L11.3 16.7C11.5 16.9 11.7 17 12 17C12.3 17 12.5 16.9 12.7 16.7C13.1 16.3 13.1 15.7 12.7 15.3L10.4 13H16Z" fill="black"/>
<mask id="mask0" mask-type="alpha" maskUnits="userSpaceOnUse" x="1" y="1" width="22" height="22">
<path fill-rule="evenodd" clip-rule="evenodd" d="M12 1C5.9 1 1 5.9 1 12C1 18.1 5.9 23 12 23C18.1 23 23 18.1 23 12C23 5.9 18.1 1 12 1ZM12 21C7 21 3 17 3 12C3 7 7 3 12 3C17 3 21 7 21 12C21 17 17 21 12 21ZM16 13C16.6 13 17 12.6 17 12C17 11.4 16.6 11 16 11H10.4L12.7 8.7C13.1 8.3 13.1 7.7 12.7 7.3C12.3 6.9 11.7 6.9 11.3 7.3L7.3 11.3C7.2 11.4 7.1 11.5 7.1 11.6C7 11.7 7 11.9 7 12C7 12.1 7 12.3 7.1 12.4C7.1 12.5 7.2 12.6 7.3 12.7L11.3 16.7C11.5 16.9 11.7 17 12 17C12.3 17 12.5 16.9 12.7 16.7C13.1 16.3 13.1 15.7 12.7 15.3L10.4 13H16Z" fill="white"/>
</mask>
<g mask="url(#mask0)">
<rect width="24" height="24" fill="#347AF0"/>
</g>
</svg>
