<svg width="24" height="24" viewBox="0 0 24 24" fill="none" xmlns="http://www.w3.org/2000/svg">
<path fill-rule="evenodd" clip-rule="evenodd" d="M19.7782 4.22184C15.4648 -0.0915122 8.53518 -0.0915122 4.22183 4.22184C-0.091526 8.53519 -0.0915257 15.4648 4.22183 19.7782C8.53518 24.0915 15.4648 24.0915 19.7782 19.7782C24.0915 15.4648 24.0915 8.53519 19.7782 4.22184ZM5.63604 18.364C2.10051 14.8284 2.10051 9.17159 5.63604 5.63605C9.17157 2.10052 14.8284 2.10052 18.364 5.63605C21.8995 9.17159 21.8995 14.8284 18.364 18.364C14.8284 21.8995 9.17157 21.8995 5.63604 18.364ZM15.6811 15.3012C15.7012 15.2527 15.7184 15.2113 15.7477 15.182C15.8184 15.1113 15.8184 14.9699 15.8184 14.8284V9.17159C15.8184 8.6059 15.3941 8.18164 14.8284 8.18164C14.2627 8.18164 13.8385 8.6059 13.8385 9.17159V12.4243L9.87868 8.46448C9.45442 8.04022 8.88873 8.04022 8.46447 8.46448C8.0402 8.88874 8.0402 9.45443 8.46447 9.87869L12.4243 13.8385H9.17157C8.60589 13.8385 8.18162 14.2628 8.18162 14.8284C8.18162 15.1113 8.25233 15.3234 8.46447 15.5355C8.6766 15.7477 8.88873 15.8184 9.17157 15.8184H14.8284C14.9698 15.8184 15.1113 15.8184 15.182 15.7477C15.3234 15.7477 15.4648 15.6063 15.5355 15.5355C15.6184 15.4527 15.6527 15.3699 15.6811 15.3012Z" fill="black"/>
<mask id="mask0" mask-type="alpha" maskUnits="userSpaceOnUse" x="0" y="0" width="24" height="24">
<path fill-rule="evenodd" clip-rule="evenodd" d="M19.7782 4.22184C15.4648 -0.0915122 8.53518 -0.0915122 4.22183 4.22184C-0.091526 8.53519 -0.0915257 15.4648 4.22183 19.7782C8.53518 24.0915 15.4648 24.0915 19.7782 19.7782C24.0915 15.4648 24.0915 8.53519 19.7782 4.22184ZM5.63604 18.364C2.10051 14.8284 2.10051 9.17159 5.63604 5.63605C9.17157 2.10052 14.8284 2.10052 18.364 5.63605C21.8995 9.17159 21.8995 14.8284 18.364 18.364C14.8284 21.8995 9.17157 21.8995 5.63604 18.364ZM15.6811 15.3012C15.7012 15.2527 15.7184 15.2113 15.7477 15.182C15.8184 15.1113 15.8184 14.9699 15.8184 14.8284V9.17159C15.8184 8.6059 15.3941 8.18164 14.8284 8.18164C14.2627 8.18164 13.8385 8.6059 13.8385 9.17159V12.4243L9.87868 8.46448C9.45442 8.04022 8.88873 8.04022 8.46447 8.46448C8.0402 8.88874 8.0402 9.45443 8.46447 9.87869L12.4243 13.8385H9.17157C8.60589 13.8385 8.18162 14.2628 8.18162 14.8284C8.18162 15.1113 8.25233 15.3234 8.46447 15.5355C8.6766 15.7477 8.88873 15.8184 9.17157 15.8184H14.8284C14.9698 15.8184 15.1113 15.8184 15.182 15.7477C15.3234 15.7477 15.4648 15.6063 15.5355 15.5355C15.6184 15.4527 15.6527 15.3699 15.6811 15.3012Z" fill="white"/>
</mask>
<g mask="url(#mask0)">
<rect width="24" height="24" fill="#347AF0"/>
</g>
</svg>
