<svg width="24" height="24" viewBox="0 0 24 24" fill="none" xmlns="http://www.w3.org/2000/svg">
<path fill-rule="evenodd" clip-rule="evenodd" d="M7.41421 11H19C19.5523 11 20 11.4477 20 12C20 12.5523 19.5523 13 19 13H7.41421L12.7071 18.2929C13.0976 18.6834 13.0976 19.3166 12.7071 19.7071C12.3166 20.0976 11.6834 20.0976 11.2929 19.7071L4.29342 12.7076L4.29289 12.7071M4.29326 11.2925L11.2929 4.29289C11.6834 3.90237 12.3166 3.90237 12.7071 4.29289C13.0976 4.68342 13.0976 5.31658 12.7071 5.70711L7.41421 11M4.29078 12.705C4.19595 12.6096 4.12432 12.4999 4.07588 12.3828L4.29078 12.705ZM4.07588 12.3828C4.02699 12.2649 4 12.1356 4 12C4 11.7249 4.11106 11.4758 4.29078 11.295" fill="black"/>
<mask id="mask0" mask-type="alpha" maskUnits="userSpaceOnUse" x="4" y="4" width="16" height="16">
<path fill-rule="evenodd" clip-rule="evenodd" d="M7.41421 11H19C19.5523 11 20 11.4477 20 12C20 12.5523 19.5523 13 19 13H7.41421L12.7071 18.2929C13.0976 18.6834 13.0976 19.3166 12.7071 19.7071C12.3166 20.0976 11.6834 20.0976 11.2929 19.7071L4.29342 12.7076L4.29289 12.7071M4.29326 11.2925L11.2929 4.29289C11.6834 3.90237 12.3166 3.90237 12.7071 4.29289C13.0976 4.68342 13.0976 5.31658 12.7071 5.70711L7.41421 11M4.29078 12.705C4.19595 12.6096 4.12432 12.4999 4.07588 12.3828L4.29078 12.705ZM4.07588 12.3828C4.02699 12.2649 4 12.1356 4 12C4 11.7249 4.11106 11.4758 4.29078 11.295" fill="white"/>
</mask>
<g mask="url(#mask0)">
<rect width="24" height="24" fill="#347AF0"/>
</g>
</svg>
