<svg width="24" height="24" viewBox="0 0 24 24" fill="none" xmlns="http://www.w3.org/2000/svg">
<path fill-rule="evenodd" clip-rule="evenodd" d="M12 4C11.4477 4 11 4.44772 11 5V16.5858L5.70711 11.2929C5.31658 10.9024 4.68342 10.9024 4.29289 11.2929C3.90237 11.6834 3.90237 12.3166 4.29289 12.7071L11.2923 19.7065L11.2929 19.7071C11.2951 19.7093 11.2973 19.7115 11.2995 19.7136C11.297 19.7112 11.2947 19.7089 11.2923 19.7065M13 16.5858V5C13 4.44772 12.5523 4 12 4" fill="black"/>
<mask id="mask0" mask-type="alpha" maskUnits="userSpaceOnUse" x="4" y="4" width="9" height="16">
<path fill-rule="evenodd" clip-rule="evenodd" d="M12 4C11.4477 4 11 4.44772 11 5V16.5858L5.70711 11.2929C5.31658 10.9024 4.68342 10.9024 4.29289 11.2929C3.90237 11.6834 3.90237 12.3166 4.29289 12.7071L11.2923 19.7065L11.2929 19.7071C11.2951 19.7093 11.2973 19.7115 11.2995 19.7136C11.297 19.7112 11.2947 19.7089 11.2923 19.7065M13 16.5858V5C13 4.44772 12.5523 4 12 4" fill="white"/>
</mask>
<g mask="url(#mask0)">
<rect width="24" height="24" fill="#347AF0"/>
</g>
</svg>
