<svg width="24" height="24" viewBox="0 0 24 24" fill="none" xmlns="http://www.w3.org/2000/svg">
<path fill-rule="evenodd" clip-rule="evenodd" d="M23 12C23 18.1 18.1 23 12 23C5.9 23 1 18.1 1 12C1 5.9 5.9 1 12 1C18.1 1 23 5.9 23 12ZM16.7 12.7C16.3 13.1 15.7 13.1 15.3 12.7L13 10.4V16C13 16.6 12.6 17 12 17C11.4 17 11 16.6 11 16V10.4L8.7 12.7C8.3 13.1 7.7 13.1 7.3 12.7C6.9 12.3 6.9 11.7 7.3 11.3L11.3 7.3C11.4 7.2 11.5 7.1 11.6 7.1C11.7 7 11.9 7 12 7C12.1 7 12.3 7 12.4 7.1C12.5 7.1 12.6 7.2 12.7 7.3L16.7 11.3C17.1 11.7 17.1 12.3 16.7 12.7ZM12 3C17 3 21 7 21 12C21 17 17 21 12 21C7 21 3 17 3 12C3 7 7 3 12 3Z" fill="black"/>
<mask id="mask0" mask-type="alpha" maskUnits="userSpaceOnUse" x="1" y="1" width="22" height="22">
<path fill-rule="evenodd" clip-rule="evenodd" d="M23 12C23 18.1 18.1 23 12 23C5.9 23 1 18.1 1 12C1 5.9 5.9 1 12 1C18.1 1 23 5.9 23 12ZM16.7 12.7C16.3 13.1 15.7 13.1 15.3 12.7L13 10.4V16C13 16.6 12.6 17 12 17C11.4 17 11 16.6 11 16V10.4L8.7 12.7C8.3 13.1 7.7 13.1 7.3 12.7C6.9 12.3 6.9 11.7 7.3 11.3L11.3 7.3C11.4 7.2 11.5 7.1 11.6 7.1C11.7 7 11.9 7 12 7C12.1 7 12.3 7 12.4 7.1C12.5 7.1 12.6 7.2 12.7 7.3L16.7 11.3C17.1 11.7 17.1 12.3 16.7 12.7ZM12 3C17 3 21 7 21 12C21 17 17 21 12 21C7 21 3 17 3 12C3 7 7 3 12 3Z" fill="white"/>
</mask>
<g mask="url(#mask0)">
<rect width="24" height="24" fill="#347AF0"/>
</g>
</svg>
