<svg width="24" height="24" viewBox="0 0 24 24" fill="none" xmlns="http://www.w3.org/2000/svg">
<path fill-rule="evenodd" clip-rule="evenodd" d="M19.7781 4.22183C24.0915 8.53518 24.0915 15.4648 19.7781 19.7782C15.4648 24.0915 8.53513 24.0915 4.22178 19.7782C-0.0915732 15.4648 -0.0915732 8.53518 4.22178 4.22183C8.53513 -0.091526 15.4648 -0.0915257 19.7781 4.22183ZM15.8183 9.17157C15.8183 9.73726 15.3941 10.1615 14.8284 10.1615H11.5757L15.5355 14.1213C15.9598 14.5456 15.9598 15.1113 15.5355 15.5355C15.1112 15.9598 14.5455 15.9598 14.1213 15.5355L10.1615 11.5757V14.8284C10.1615 15.3941 9.73721 15.8184 9.17153 15.8184C8.60584 15.8184 8.18158 15.3941 8.18158 14.8284V9.17157C8.18158 9.03015 8.18158 8.88873 8.25229 8.81802C8.25229 8.6766 8.39371 8.53518 8.46442 8.46447C8.53513 8.39376 8.67655 8.25233 8.81797 8.25233C8.88868 8.18162 9.0301 8.18162 9.17153 8.18162H14.8284C15.3941 8.18162 15.8183 8.60589 15.8183 9.17157ZM5.63599 5.63604C9.17153 2.10051 14.8284 2.10051 18.3639 5.63604C21.8994 9.17157 21.8994 14.8284 18.3639 18.364C14.8284 21.8995 9.17153 21.8995 5.63599 18.364C2.10046 14.8284 2.10046 9.17157 5.63599 5.63604Z" fill="black"/>
<mask id="mask0" mask-type="alpha" maskUnits="userSpaceOnUse" x="0" y="0" width="24" height="24">
<path fill-rule="evenodd" clip-rule="evenodd" d="M19.7781 4.22183C24.0915 8.53518 24.0915 15.4648 19.7781 19.7782C15.4648 24.0915 8.53513 24.0915 4.22178 19.7782C-0.0915732 15.4648 -0.0915732 8.53518 4.22178 4.22183C8.53513 -0.091526 15.4648 -0.0915257 19.7781 4.22183ZM15.8183 9.17157C15.8183 9.73726 15.3941 10.1615 14.8284 10.1615H11.5757L15.5355 14.1213C15.9598 14.5456 15.9598 15.1113 15.5355 15.5355C15.1112 15.9598 14.5455 15.9598 14.1213 15.5355L10.1615 11.5757V14.8284C10.1615 15.3941 9.73721 15.8184 9.17153 15.8184C8.60584 15.8184 8.18158 15.3941 8.18158 14.8284V9.17157C8.18158 9.03015 8.18158 8.88873 8.25229 8.81802C8.25229 8.6766 8.39371 8.53518 8.46442 8.46447C8.53513 8.39376 8.67655 8.25233 8.81797 8.25233C8.88868 8.18162 9.0301 8.18162 9.17153 8.18162H14.8284C15.3941 8.18162 15.8183 8.60589 15.8183 9.17157ZM5.63599 5.63604C9.17153 2.10051 14.8284 2.10051 18.3639 5.63604C21.8994 9.17157 21.8994 14.8284 18.3639 18.364C14.8284 21.8995 9.17153 21.8995 5.63599 18.364C2.10046 14.8284 2.10046 9.17157 5.63599 5.63604Z" fill="white"/>
</mask>
<g mask="url(#mask0)">
<rect width="24" height="24" fill="#347AF0"/>
</g>
</svg>
