<svg width="24" height="24" viewBox="0 0 24 24" fill="none" xmlns="http://www.w3.org/2000/svg">
<path fill-rule="evenodd" clip-rule="evenodd" d="M4.2 4.2C6.3 2.1 9.1 1 12 1C18.1 1 23 5.9 23 12V13C23 15.2 21.2 17 19 17C17.6 17 16.4 16.3 15.7 15.3C14.8 16.3 13.5 17 12 17C9.2 17 7 14.8 7 12C7 9.2 9.2 7 12 7C14.8 7 17 9.2 17 12V13C17 14.1 17.9 15 19 15C20.1 15 21 14.1 21 13V12C21 7 17 3 12 3C9.6 3 7.3 3.9 5.6 5.6C3.9 7.3 3 9.6 3 12C3 17 7 21 12 21C14 21 15.9 20.3 17.5 19.1C17.9 18.8 18.6 18.9 18.9 19.3C19.2 19.7 19.1 20.4 18.7 20.7C16.8 22.2 14.4 23 12 23C5.9 23 1 18.1 1 12C1 9.1 2.1 6.3 4.2 4.2ZM9 12C9 13.7 10.3 15 12 15C13.7 15 15 13.7 15 12C15 10.3 13.7 9 12 9C10.3 9 9 10.3 9 12Z" fill="black"/>
<mask id="mask0" mask-type="alpha" maskUnits="userSpaceOnUse" x="1" y="1" width="22" height="22">
<path fill-rule="evenodd" clip-rule="evenodd" d="M4.2 4.2C6.3 2.1 9.1 1 12 1C18.1 1 23 5.9 23 12V13C23 15.2 21.2 17 19 17C17.6 17 16.4 16.3 15.7 15.3C14.8 16.3 13.5 17 12 17C9.2 17 7 14.8 7 12C7 9.2 9.2 7 12 7C14.8 7 17 9.2 17 12V13C17 14.1 17.9 15 19 15C20.1 15 21 14.1 21 13V12C21 7 17 3 12 3C9.6 3 7.3 3.9 5.6 5.6C3.9 7.3 3 9.6 3 12C3 17 7 21 12 21C14 21 15.9 20.3 17.5 19.1C17.9 18.8 18.6 18.9 18.9 19.3C19.2 19.7 19.1 20.4 18.7 20.7C16.8 22.2 14.4 23 12 23C5.9 23 1 18.1 1 12C1 9.1 2.1 6.3 4.2 4.2ZM9 12C9 13.7 10.3 15 12 15C13.7 15 15 13.7 15 12C15 10.3 13.7 9 12 9C10.3 9 9 10.3 9 12Z" fill="white"/>
</mask>
<g mask="url(#mask0)">
<rect width="24" height="24" fill="#347AF0"/>
</g>
</svg>
