<svg width="24" height="24" viewBox="0 0 24 24" fill="none" xmlns="http://www.w3.org/2000/svg">
<path fill-rule="evenodd" clip-rule="evenodd" d="M20 7.98337C20 3.59252 16.4 0 12 0C7.6 0 4 3.59252 4 7.98337C4 10.578 5.2 12.8732 7.1 14.2703L6 22.8524C5.9 23.2516 6.1 23.6507 6.4 23.8503C6.7 24.0499 7.1 24.0499 7.5 23.8503L12 21.1559L16.5 23.8503C16.6 23.9501 16.8 23.9501 17 23.9501C17.2 23.9501 17.4 23.8503 17.5 23.7505C17.8 23.5509 18 23.1518 17.9 22.7526L16.8 14.2703C18.8 12.8732 20 10.578 20 7.98337ZM6 7.98337C6 4.69023 8.7 1.99584 12 1.99584C15.3 1.99584 18 4.69023 18 7.98337C18 11.2765 15.3 13.9709 12 13.9709C8.7 13.9709 6 11.2765 6 7.98337ZM12.5 19.1601L15.7 21.0561L15 15.368C14.1 15.7672 13.1 15.9667 12 15.9667C10.9 15.9667 9.9 15.7672 9 15.368L8.3 21.0561L11.5 19.1601C11.8 18.9605 12.2 18.9605 12.5 19.1601Z" fill="black"/>
<mask id="mask0" mask-type="alpha" maskUnits="userSpaceOnUse" x="4" y="0" width="16" height="24">
<path fill-rule="evenodd" clip-rule="evenodd" d="M20 7.98337C20 3.59252 16.4 0 12 0C7.6 0 4 3.59252 4 7.98337C4 10.578 5.2 12.8732 7.1 14.2703L6 22.8524C5.9 23.2516 6.1 23.6507 6.4 23.8503C6.7 24.0499 7.1 24.0499 7.5 23.8503L12 21.1559L16.5 23.8503C16.6 23.9501 16.8 23.9501 17 23.9501C17.2 23.9501 17.4 23.8503 17.5 23.7505C17.8 23.5509 18 23.1518 17.9 22.7526L16.8 14.2703C18.8 12.8732 20 10.578 20 7.98337ZM6 7.98337C6 4.69023 8.7 1.99584 12 1.99584C15.3 1.99584 18 4.69023 18 7.98337C18 11.2765 15.3 13.9709 12 13.9709C8.7 13.9709 6 11.2765 6 7.98337ZM12.5 19.1601L15.7 21.0561L15 15.368C14.1 15.7672 13.1 15.9667 12 15.9667C10.9 15.9667 9.9 15.7672 9 15.368L8.3 21.0561L11.5 19.1601C11.8 18.9605 12.2 18.9605 12.5 19.1601Z" fill="white"/>
</mask>
<g mask="url(#mask0)">
<rect width="24" height="24" fill="#347AF0"/>
</g>
</svg>
