<svg width="24" height="24" viewBox="0 0 24 24" fill="none" xmlns="http://www.w3.org/2000/svg">
<path fill-rule="evenodd" clip-rule="evenodd" d="M12 3C11.4 3 11 3.4 11 4V20C11 20.6 11.4 21 12 21C12.6 21 13 20.6 13 20V4C13 3.4 12.6 3 12 3ZM19 10V20C19 20.6 18.6 21 18 21C17.4 21 17 20.6 17 20V10C17 9.4 17.4 9 18 9C18.6 9 19 9.4 19 10ZM5 14C5 13.4 5.4 13 6 13C6.6 13 7 13.4 7 14V20C7 20.6 6.6 21 6 21C5.4 21 5 20.6 5 20V14Z" fill="black"/>
<mask id="mask0" mask-type="alpha" maskUnits="userSpaceOnUse" x="5" y="3" width="14" height="18">
<path fill-rule="evenodd" clip-rule="evenodd" d="M12 3C11.4 3 11 3.4 11 4V20C11 20.6 11.4 21 12 21C12.6 21 13 20.6 13 20V4C13 3.4 12.6 3 12 3ZM19 10V20C19 20.6 18.6 21 18 21C17.4 21 17 20.6 17 20V10C17 9.4 17.4 9 18 9C18.6 9 19 9.4 19 10ZM5 14C5 13.4 5.4 13 6 13C6.6 13 7 13.4 7 14V20C7 20.6 6.6 21 6 21C5.4 21 5 20.6 5 20V14Z" fill="white"/>
</mask>
<g mask="url(#mask0)">
<rect width="24" height="24" fill="#347AF0"/>
</g>
</svg>
