<svg width="24" height="24" viewBox="0 0 24 24" fill="none" xmlns="http://www.w3.org/2000/svg">
<path fill-rule="evenodd" clip-rule="evenodd" d="M5 19C5.6 19 6 18.6 6 18C6 17.4 5.6 17 5 17H3C2.4 17 2 16.6 2 16V8C2 7.4 2.4 7 3 7H6.2C6.8 7 7.2 6.6 7.2 6C7.2 5.4 6.8 5 6.2 5H3C1.3 5 0 6.3 0 8V16C0 17.7 1.3 19 3 19H5ZM15 5H17C18.7 5 20 6.3 20 8V16C20 17.7 18.7 19 17 19H13.8C13.2 19 12.8 18.6 12.8 18C12.8 17.4 13.2 17 13.8 17H17C17.6 17 18 16.6 18 16V8C18 7.4 17.6 7 17 7H15C14.4 7 14 6.6 14 6C14 5.4 14.4 5 15 5ZM23 10C22.4 10 22 10.4 22 11V13C22 13.6 22.4 14 23 14C23.6 14 24 13.6 24 13V11C24 10.4 23.6 10 23 10ZM13 11C13.4 11 13.7 11.2 13.9 11.5C14.1 11.9 14 12.2 13.8 12.6L9.8 18.6C9.6 18.8 9.3 19 9 19C8.8 19 8.6 18.9 8.4 18.8C7.9 18.5 7.8 17.9 8.1 17.4L11.1 13H7C6.6 13 6.3 12.8 6.2 12.5C6 12.2 6 11.8 6.2 11.5L10.2 5.5C10.5 5 11.1 4.9 11.6 5.2C12.1 5.5 12.2 6.1 11.9 6.6L8.9 11H13Z" fill="black"/>
<mask id="mask0" mask-type="alpha" maskUnits="userSpaceOnUse" x="0" y="5" width="24" height="14">
<path fill-rule="evenodd" clip-rule="evenodd" d="M5 19C5.6 19 6 18.6 6 18C6 17.4 5.6 17 5 17H3C2.4 17 2 16.6 2 16V8C2 7.4 2.4 7 3 7H6.2C6.8 7 7.2 6.6 7.2 6C7.2 5.4 6.8 5 6.2 5H3C1.3 5 0 6.3 0 8V16C0 17.7 1.3 19 3 19H5ZM15 5H17C18.7 5 20 6.3 20 8V16C20 17.7 18.7 19 17 19H13.8C13.2 19 12.8 18.6 12.8 18C12.8 17.4 13.2 17 13.8 17H17C17.6 17 18 16.6 18 16V8C18 7.4 17.6 7 17 7H15C14.4 7 14 6.6 14 6C14 5.4 14.4 5 15 5ZM23 10C22.4 10 22 10.4 22 11V13C22 13.6 22.4 14 23 14C23.6 14 24 13.6 24 13V11C24 10.4 23.6 10 23 10ZM13 11C13.4 11 13.7 11.2 13.9 11.5C14.1 11.9 14 12.2 13.8 12.6L9.8 18.6C9.6 18.8 9.3 19 9 19C8.8 19 8.6 18.9 8.4 18.8C7.9 18.5 7.8 17.9 8.1 17.4L11.1 13H7C6.6 13 6.3 12.8 6.2 12.5C6 12.2 6 11.8 6.2 11.5L10.2 5.5C10.5 5 11.1 4.9 11.6 5.2C12.1 5.5 12.2 6.1 11.9 6.6L8.9 11H13Z" fill="white"/>
</mask>
<g mask="url(#mask0)">
<rect width="24" height="24" fill="#347AF0"/>
</g>
</svg>
