<svg width="24" height="24" viewBox="0 0 24 24" fill="none" xmlns="http://www.w3.org/2000/svg">
<path fill-rule="evenodd" clip-rule="evenodd" d="M23.7 23.7C23.5 23.9 23.3 24 23 24C22.7 24 22.5 23.9 22.3 23.7L16.6 18H2C1.4 18 1 17.6 1 17C1 16.4 1.4 16 2 16C3.1 16 4 15.1 4 14V9C4 8 4.2 7 4.6 6L0.3 1.7C-0.1 1.3 -0.1 0.7 0.3 0.3C0.7 -0.1 1.3 -0.1 1.7 0.3L17.7 16.3L23.7 22.3C24.1 22.7 24.1 23.3 23.7 23.7ZM17.3 6.1C15.6 3.2 12 2.2 9.1 3.8C8.6 4 8 3.9 7.7 3.4C7.4 2.9 7.6 2.3 8.1 2.1C11.9 -0.1 16.8 1.3 19 5.1C19.6 6.3 20 7.6 20 9V13C20 13.6 19.6 14 19 14C18.4 14 18 13.6 18 13V9C18 8 17.7 6.9 17.3 6.1ZM12 23C13 23 14 22.5 14.6 21.5C14.9 21 14.9 20.3 14.4 20.1C13.9 19.9 13.3 20 13 20.5C12.7 21 12.1 21.2 11.6 20.9C11.4606 20.8303 11.3697 20.7119 11.2936 20.6128L11.2936 20.6128C11.2605 20.5697 11.2303 20.5303 11.2 20.5C10.9 20 10.3 19.8 9.8 20.1C9.3 20.4 9.1 21 9.4 21.5C9.7 22 10 22.3 10.5 22.6C11 22.9 11.5 23 12 23ZM6.2 7.6L14.6 16H5.5C5.8 15.4 6 14.7 6 14V9C6 8.5 6.1 8 6.2 7.6Z" fill="black"/>
<mask id="mask0" mask-type="alpha" maskUnits="userSpaceOnUse" x="0" y="0" width="24" height="24">
<path fill-rule="evenodd" clip-rule="evenodd" d="M23.7 23.7C23.5 23.9 23.3 24 23 24C22.7 24 22.5 23.9 22.3 23.7L16.6 18H2C1.4 18 1 17.6 1 17C1 16.4 1.4 16 2 16C3.1 16 4 15.1 4 14V9C4 8 4.2 7 4.6 6L0.3 1.7C-0.1 1.3 -0.1 0.7 0.3 0.3C0.7 -0.1 1.3 -0.1 1.7 0.3L17.7 16.3L23.7 22.3C24.1 22.7 24.1 23.3 23.7 23.7ZM17.3 6.1C15.6 3.2 12 2.2 9.1 3.8C8.6 4 8 3.9 7.7 3.4C7.4 2.9 7.6 2.3 8.1 2.1C11.9 -0.1 16.8 1.3 19 5.1C19.6 6.3 20 7.6 20 9V13C20 13.6 19.6 14 19 14C18.4 14 18 13.6 18 13V9C18 8 17.7 6.9 17.3 6.1ZM12 23C13 23 14 22.5 14.6 21.5C14.9 21 14.9 20.3 14.4 20.1C13.9 19.9 13.3 20 13 20.5C12.7 21 12.1 21.2 11.6 20.9C11.4606 20.8303 11.3697 20.7119 11.2936 20.6128L11.2936 20.6128C11.2605 20.5697 11.2303 20.5303 11.2 20.5C10.9 20 10.3 19.8 9.8 20.1C9.3 20.4 9.1 21 9.4 21.5C9.7 22 10 22.3 10.5 22.6C11 22.9 11.5 23 12 23ZM6.2 7.6L14.6 16H5.5C5.8 15.4 6 14.7 6 14V9C6 8.5 6.1 8 6.2 7.6Z" fill="white"/>
</mask>
<g mask="url(#mask0)">
<rect width="24" height="24" fill="#347AF0"/>
</g>
</svg>
