<svg width="24" height="24" viewBox="0 0 24 24" fill="none" xmlns="http://www.w3.org/2000/svg">
<path fill-rule="evenodd" clip-rule="evenodd" d="M23 17C23 17.6 22.6 18 22 18H2C1.4 18 1 17.6 1 17C1 16.4 1.4 16 2 16C3.1 16 4 15.1 4 14V9C4 4.6 7.6 1 12 1C16.4 1 20 4.6 20 9V14C20 15.1 20.9 16 22 16C22.6 16 23 16.4 23 17ZM14.6 21.5C14 22.5 13 23 12 23C11.5 23 11 22.9 10.5 22.6C10 22.3 9.7 22 9.4 21.5C9.1 21 9.3 20.4 9.8 20.1C10.3 19.8 10.9 20 11.2 20.5C11.2303 20.5303 11.2605 20.5697 11.2936 20.6128L11.2936 20.6128C11.3697 20.7119 11.4606 20.8303 11.6 20.9C12.1 21.2 12.7 21 13 20.5C13.3 20 13.9 19.9 14.4 20.1C14.9 20.3 14.9 21 14.6 21.5ZM18 14C18 14.7 18.2 15.4 18.5 16H5.5C5.8 15.4 6 14.7 6 14V9C6 5.7 8.7 3 12 3C15.3 3 18 5.7 18 9V14Z" fill="black"/>
<mask id="mask0" mask-type="alpha" maskUnits="userSpaceOnUse" x="1" y="1" width="22" height="22">
<path fill-rule="evenodd" clip-rule="evenodd" d="M23 17C23 17.6 22.6 18 22 18H2C1.4 18 1 17.6 1 17C1 16.4 1.4 16 2 16C3.1 16 4 15.1 4 14V9C4 4.6 7.6 1 12 1C16.4 1 20 4.6 20 9V14C20 15.1 20.9 16 22 16C22.6 16 23 16.4 23 17ZM14.6 21.5C14 22.5 13 23 12 23C11.5 23 11 22.9 10.5 22.6C10 22.3 9.7 22 9.4 21.5C9.1 21 9.3 20.4 9.8 20.1C10.3 19.8 10.9 20 11.2 20.5C11.2303 20.5303 11.2605 20.5697 11.2936 20.6128L11.2936 20.6128C11.3697 20.7119 11.4606 20.8303 11.6 20.9C12.1 21.2 12.7 21 13 20.5C13.3 20 13.9 19.9 14.4 20.1C14.9 20.3 14.9 21 14.6 21.5ZM18 14C18 14.7 18.2 15.4 18.5 16H5.5C5.8 15.4 6 14.7 6 14V9C6 5.7 8.7 3 12 3C15.3 3 18 5.7 18 9V14Z" fill="white"/>
</mask>
<g mask="url(#mask0)">
<rect width="24" height="24" fill="#347AF0"/>
</g>
</svg>
