<svg width="24" height="24" viewBox="0 0 24 24" fill="none" xmlns="http://www.w3.org/2000/svg">
<path fill-rule="evenodd" clip-rule="evenodd" d="M11.3283 11.0734C12.2121 11.3085 14.1284 11.8183 14.4628 10.4774C14.8054 9.10053 12.928 8.68826 12.015 8.48777C11.9145 8.46568 11.8256 8.44616 11.7527 8.42821L11.1102 11.0165C11.1725 11.0319 11.2459 11.0515 11.3283 11.0734ZM10.328 15.2403C11.3869 15.5199 13.6948 16.1292 14.0604 14.6534C14.4383 13.1485 12.2033 12.6435 11.1065 12.3957C10.9816 12.3674 10.8715 12.3426 10.7816 12.3199L10.0727 15.1741C10.1459 15.1922 10.2318 15.2149 10.328 15.2403ZM17.2902 10.2892C17.1177 11.4592 16.4726 12.0255 15.6099 12.2243C16.7914 12.8393 17.3914 13.7844 16.8214 15.4157C16.1088 17.4483 14.421 17.6208 12.1744 17.1933L11.6306 19.3797L10.3141 19.0497L10.8505 16.897C10.5092 16.8108 10.1604 16.7204 9.80405 16.6233L9.26397 18.7872L7.94752 18.4609L8.49135 16.2708C8.18381 16.192 7.87251 16.1095 7.55371 16.0308L5.8397 15.6032L6.4923 14.0953C6.4923 14.0953 7.4637 14.3544 7.45245 14.3357C7.82375 14.4257 7.98878 14.1819 8.05629 14.0206L8.91517 10.5704C8.96392 10.5817 9.00893 10.5929 9.05394 10.6042C9.00143 10.5817 8.95642 10.5704 8.91892 10.5592L9.53401 8.09531C9.54901 7.81405 9.4515 7.46153 8.91892 7.33027C8.91892 7.31152 7.96252 7.09026 7.96252 7.09026L8.31133 5.68393L10.1304 6.1377L10.1266 6.1452C10.4004 6.21271 10.6817 6.27646 10.9667 6.34396L11.5068 4.18009L12.8233 4.51011L12.2944 6.62898C12.647 6.71148 13.0033 6.79024 13.3483 6.87649L13.8734 4.77263L15.1899 5.0989L14.6535 7.26276C16.315 7.83655 17.5302 8.69534 17.2902 10.2892ZM14.9011 0.358634C8.4726 -1.2427 1.96162 2.66876 0.360128 9.09662C-1.24511 15.5282 2.66673 22.0386 9.09519 23.6399C15.5274 25.245 22.0384 21.3335 23.6399 14.9019C25.2451 8.47408 21.3333 1.95997 14.9011 0.358634Z" fill="#0D1F3C"/>
</svg>
