<svg width="25" height="24" viewBox="0 0 25 24" fill="none" xmlns="http://www.w3.org/2000/svg">
<path fill-rule="evenodd" clip-rule="evenodd" d="M3.14852 12.0041C3.14852 14.6561 4.18769 17.1999 6.02792 19.0726C7.86813 20.9453 10.3795 21.9953 12.9882 21.9953C15.597 21.9953 18.0975 20.9453 19.9486 19.0726C21.7888 17.1999 22.828 14.6561 22.828 12.0041C22.828 9.35198 21.7888 6.80815 19.9486 4.93547C18.1084 3.06279 15.597 2.01278 12.9882 2.01278C10.3795 2.01278 7.87895 3.06278 6.02792 4.93547C4.18769 6.80815 3.14852 9.35198 3.14852 12.0041ZM10.685 10.4968L11.8973 15.4437C11.9081 15.5845 11.8865 15.8334 11.5834 15.9092C11.6051 15.92 10.7932 16.104 10.7932 16.104L10.9015 17.468L12.3087 17.1107C12.5685 17.0458 12.8283 16.9808 13.0772 16.9267L13.521 18.7453L14.6035 18.4747L14.1597 16.6669C14.4628 16.602 14.7442 16.5262 15.0257 16.4612L15.4695 18.2582L16.552 17.9875L16.1082 16.169C17.8943 15.6061 19.0525 14.8159 18.7819 13.0406C18.5654 11.6117 17.7644 11.1571 16.6711 11.1679C17.2231 10.6808 17.4721 10.0097 17.1473 9.07875C16.7035 7.81226 15.4911 7.66072 14.0731 7.88803L13.6293 6.09112L12.5468 6.36174L12.9798 8.11536C12.6984 8.19113 12.4061 8.26691 12.1246 8.34267L11.6917 6.57823L10.6092 6.84886L11.053 8.64577C10.8257 8.71072 10.5875 8.77567 10.371 8.82979V8.81898L8.87721 9.19783L9.16947 10.3669C9.16947 10.3669 9.95969 10.1504 9.94886 10.1721C10.3819 10.0638 10.5875 10.2803 10.685 10.4968ZM15.2638 10.0855C14.9391 8.78649 13.0772 9.46844 12.471 9.63082L13.0123 11.8174C13.6184 11.6659 15.5669 11.3195 15.2638 10.0855ZM13.2721 12.9107L13.8674 15.3247C14.5927 15.1406 16.9308 14.7185 16.5953 13.3546C16.2489 11.9473 14.0081 12.7375 13.2721 12.9107ZM19.8512 2.01278C21.4424 3.13855 22.7305 4.63238 23.629 6.37517C24.5274 8.11795 24.9929 10.0448 24.9929 12.0149C24.9929 13.9742 24.5275 15.9118 23.629 17.6546C22.7334 19.3918 21.4505 20.8816 19.8662 22.0061C19.8612 22.0097 19.8562 22.0134 19.8512 22.017L25 22.0042V2L19.8512 2.01278ZM0.994385 12.004C0.994385 10.0448 1.45985 8.11794 2.35831 6.37517C3.25676 4.63237 4.5449 3.13856 6.13615 2.01277L1.00004 2V21.9934L6.13615 22.0061C4.54492 20.8804 3.25676 19.3865 2.35831 17.6438C1.45985 15.901 0.994385 13.9633 0.994385 12.004Z" fill="#0D1F3C"/>
</svg>
