<svg width="24" height="25" viewBox="0 0 24 25" fill="none" xmlns="http://www.w3.org/2000/svg">
<path fill-rule="evenodd" clip-rule="evenodd" d="M18.7 7.20405C19.1 6.80405 19.1 6.20405 18.7 5.80405L13.2 0.304052C12.9 0.00405184 12.5 -0.0959482 12.1 0.104052C11.7 0.204052 11.5 0.604052 11.5 1.00405V9.60405L7.7 5.80405C7.3 5.40405 6.7 5.40405 6.3 5.80405C5.9 6.20405 5.9 6.80405 6.3 7.20405L11.1 12.0041L6.3 16.8041C5.9 17.2041 5.9 17.8041 6.3 18.2041C6.7 18.6041 7.3 18.6041 7.7 18.2041L11.5 14.4041V23.0041C11.5 23.4041 11.7 23.8041 12.1 23.9041C12.2 24.0041 12.4 24.0041 12.5 24.0041C12.8 24.0041 13 23.9041 13.2 23.7041L18.7 18.2041C19.1 17.8041 19.1 17.2041 18.7 16.8041L13.9 12.0041L18.7 7.20405ZM13.5 3.40405L16.6 6.50405L13.5 9.60405V3.40405ZM16.6 17.5041L13.5 14.4041V20.6041L16.6 17.5041Z" fill="black"/>
<mask id="mask0" mask-type="alpha" maskUnits="userSpaceOnUse" x="6" y="0" width="13" height="25">
<path fill-rule="evenodd" clip-rule="evenodd" d="M18.7 7.20405C19.1 6.80405 19.1 6.20405 18.7 5.80405L13.2 0.304052C12.9 0.00405184 12.5 -0.0959482 12.1 0.104052C11.7 0.204052 11.5 0.604052 11.5 1.00405V9.60405L7.7 5.80405C7.3 5.40405 6.7 5.40405 6.3 5.80405C5.9 6.20405 5.9 6.80405 6.3 7.20405L11.1 12.0041L6.3 16.8041C5.9 17.2041 5.9 17.8041 6.3 18.2041C6.7 18.6041 7.3 18.6041 7.7 18.2041L11.5 14.4041V23.0041C11.5 23.4041 11.7 23.8041 12.1 23.9041C12.2 24.0041 12.4 24.0041 12.5 24.0041C12.8 24.0041 13 23.9041 13.2 23.7041L18.7 18.2041C19.1 17.8041 19.1 17.2041 18.7 16.8041L13.9 12.0041L18.7 7.20405ZM13.5 3.40405L16.6 6.50405L13.5 9.60405V3.40405ZM16.6 17.5041L13.5 14.4041V20.6041L16.6 17.5041Z" fill="white"/>
</mask>
<g mask="url(#mask0)">
<rect width="24" height="24" fill="#347AF0"/>
</g>
</svg>
