<svg width="24" height="24" viewBox="0 0 24 24" fill="none" xmlns="http://www.w3.org/2000/svg">
<path fill-rule="evenodd" clip-rule="evenodd" d="M20 1H6.5C4.6 1 3 2.6 3 4.5V19.5C3 21.4 4.6 23 6.5 23H20C20.6 23 21 22.6 21 22V2C21 1.4 20.6 1 20 1ZM6.5 3H19V16H6.5C6 16 5.5 16.1 5 16.4V4.5C5 3.7 5.7 3 6.5 3ZM5 19.5C5 20.3 5.7 21 6.5 21H19V18H6.5C5.7 18 5 18.7 5 19.5Z" fill="black"/>
<mask id="mask0" mask-type="alpha" maskUnits="userSpaceOnUse" x="3" y="1" width="18" height="22">
<path fill-rule="evenodd" clip-rule="evenodd" d="M20 1H6.5C4.6 1 3 2.6 3 4.5V19.5C3 21.4 4.6 23 6.5 23H20C20.6 23 21 22.6 21 22V2C21 1.4 20.6 1 20 1ZM6.5 3H19V16H6.5C6 16 5.5 16.1 5 16.4V4.5C5 3.7 5.7 3 6.5 3ZM5 19.5C5 20.3 5.7 21 6.5 21H19V18H6.5C5.7 18 5 18.7 5 19.5Z" fill="white"/>
</mask>
<g mask="url(#mask0)">
<rect width="24" height="24" fill="#347AF0"/>
</g>
</svg>
