<svg width="24" height="24" viewBox="0 0 24 24" fill="none" xmlns="http://www.w3.org/2000/svg">
<path fill-rule="evenodd" clip-rule="evenodd" d="M13.3 0.599988L21.3 4.59999C22.4 5.09999 23 6.09999 23 7.19999V16.7C23 17.9 22.3 18.9 21.3 19.4L13.3 23.4C12.9 23.6 12.5 23.7 12 23.7C11.6 23.7 11.1 23.6 10.7 23.4L2.7 19.4C1.6 18.9 1 17.8 1 16.7V7.19999C1 6.09999 1.6 5.09999 2.6 4.59999L10.6 0.599988C11.5 0.199988 12.5 0.199988 13.3 0.599988ZM12 2.19999C11.9 2.19999 11.7 2.19999 11.6 2.29999L4.2 5.99999L12 9.89999L19.8 5.99999L12.4 2.29999C12.3 2.19999 12.2 2.19999 12 2.19999ZM3.5 17.7C3.2 17.5 3 17.1 3 16.8V7.59999L11 11.6V21.4L3.5 17.7ZM13 21.4L20.4 17.7C20.8 17.5 21 17.2 21 16.8V7.59999L13 11.6V21.4Z" fill="black"/>
<mask id="mask0" mask-type="alpha" maskUnits="userSpaceOnUse" x="1" y="0" width="22" height="24">
<path fill-rule="evenodd" clip-rule="evenodd" d="M13.3 0.599988L21.3 4.59999C22.4 5.09999 23 6.09999 23 7.19999V16.7C23 17.9 22.3 18.9 21.3 19.4L13.3 23.4C12.9 23.6 12.5 23.7 12 23.7C11.6 23.7 11.1 23.6 10.7 23.4L2.7 19.4C1.6 18.9 1 17.8 1 16.7V7.19999C1 6.09999 1.6 5.09999 2.6 4.59999L10.6 0.599988C11.5 0.199988 12.5 0.199988 13.3 0.599988ZM12 2.19999C11.9 2.19999 11.7 2.19999 11.6 2.29999L4.2 5.99999L12 9.89999L19.8 5.99999L12.4 2.29999C12.3 2.19999 12.2 2.19999 12 2.19999ZM3.5 17.7C3.2 17.5 3 17.1 3 16.8V7.59999L11 11.6V21.4L3.5 17.7ZM13 21.4L20.4 17.7C20.8 17.5 21 17.2 21 16.8V7.59999L13 11.6V21.4Z" fill="white"/>
</mask>
<g mask="url(#mask0)">
<rect width="24" height="24" fill="#347AF0"/>
</g>
</svg>
