<svg width="24" height="24" viewBox="0 0 24 24" fill="none" xmlns="http://www.w3.org/2000/svg">
<path fill-rule="evenodd" clip-rule="evenodd" d="M20 6H17V5C17 3.3 15.7 2 14 2H10C8.3 2 7 3.3 7 5V6H4C2.3 6 1 7.3 1 9V19C1 20.7 2.3 22 4 22H20C21.7 22 23 20.7 23 19V9C23 7.3 21.7 6 20 6ZM9 5C9 4.4 9.4 4 10 4H14C14.6 4 15 4.4 15 5V6H9V5ZM15 20V8H9V20H15ZM3 19V9C3 8.4 3.4 8 4 8H7V20H4C3.4 20 3 19.6 3 19ZM20 20C20.6 20 21 19.6 21 19V9C21 8.4 20.6 8 20 8H17V20H20Z" fill="black"/>
<mask id="mask0" mask-type="alpha" maskUnits="userSpaceOnUse" x="1" y="2" width="22" height="20">
<path fill-rule="evenodd" clip-rule="evenodd" d="M20 6H17V5C17 3.3 15.7 2 14 2H10C8.3 2 7 3.3 7 5V6H4C2.3 6 1 7.3 1 9V19C1 20.7 2.3 22 4 22H20C21.7 22 23 20.7 23 19V9C23 7.3 21.7 6 20 6ZM9 5C9 4.4 9.4 4 10 4H14C14.6 4 15 4.4 15 5V6H9V5ZM15 20V8H9V20H15ZM3 19V9C3 8.4 3.4 8 4 8H7V20H4C3.4 20 3 19.6 3 19ZM20 20C20.6 20 21 19.6 21 19V9C21 8.4 20.6 8 20 8H17V20H20Z" fill="white"/>
</mask>
<g mask="url(#mask0)">
<rect width="24" height="24" fill="#347AF0"/>
</g>
</svg>
