<svg width="24" height="24" viewBox="0 0 24 24" fill="none" xmlns="http://www.w3.org/2000/svg">
<path fill-rule="evenodd" clip-rule="evenodd" d="M6.7 5.3L21.7 20.3L23.7 22.3C24.1 22.7 24.1 23.3 23.7 23.7C23.5 23.9 23.2 24 23 24C22.8 24 22.5 23.9 22.3 23.7L20.6 22H3C1.3 22 0 20.7 0 19V8C0 6.3 1.3 5 3 5H3.6L0.3 1.7C-0.1 1.3 -0.1 0.7 0.3 0.3C0.7 -0.1 1.3 -0.1 1.7 0.3L6.7 5.3ZM9.7 11.1L9.5 11.3C9.1 12 8.9 12.8 9 13.6C9.2 14.4 9.6 15 10.3 15.5C10.9 16 11.7 16.2 12.5 16C13 15.9 13.5 15.6 13.9 15.3L9.7 11.1ZM3 20C2.4 20 2 19.6 2 19V8C2 7.4 2.4 7 3 7H5.6L8.3 9.7C8.1 9.9 8 10 7.9 10.2C7.1 11.3 6.9 12.6 7.1 13.9C7.3 15.2 8.1 16.4 9.2 17.1C10 17.7 11 18 12 18C12.3 18 12.6 18 12.9 17.9C13.8 17.7 14.6 17.3 15.3 16.7L18.6 20H3ZM24 17.3V8C24 6.3 22.7 5 21 5H17.5L15.8 2.4C15.6 2.2 15.3 2 15 2H9C8.4 2 8 2.4 8 3C8 3.6 8.4 4 9 4H14.5L16.2 6.6C16.4 6.8 16.7 7 17 7H21C21.6 7 22 7.4 22 8V17.3C22 17.9 22.4 18.3 23 18.3C23.6 18.3 24 17.9 24 17.3Z" fill="black"/>
<mask id="mask0" mask-type="alpha" maskUnits="userSpaceOnUse" x="0" y="0" width="24" height="24">
<path fill-rule="evenodd" clip-rule="evenodd" d="M6.7 5.3L21.7 20.3L23.7 22.3C24.1 22.7 24.1 23.3 23.7 23.7C23.5 23.9 23.2 24 23 24C22.8 24 22.5 23.9 22.3 23.7L20.6 22H3C1.3 22 0 20.7 0 19V8C0 6.3 1.3 5 3 5H3.6L0.3 1.7C-0.1 1.3 -0.1 0.7 0.3 0.3C0.7 -0.1 1.3 -0.1 1.7 0.3L6.7 5.3ZM9.7 11.1L9.5 11.3C9.1 12 8.9 12.8 9 13.6C9.2 14.4 9.6 15 10.3 15.5C10.9 16 11.7 16.2 12.5 16C13 15.9 13.5 15.6 13.9 15.3L9.7 11.1ZM3 20C2.4 20 2 19.6 2 19V8C2 7.4 2.4 7 3 7H5.6L8.3 9.7C8.1 9.9 8 10 7.9 10.2C7.1 11.3 6.9 12.6 7.1 13.9C7.3 15.2 8.1 16.4 9.2 17.1C10 17.7 11 18 12 18C12.3 18 12.6 18 12.9 17.9C13.8 17.7 14.6 17.3 15.3 16.7L18.6 20H3ZM24 17.3V8C24 6.3 22.7 5 21 5H17.5L15.8 2.4C15.6 2.2 15.3 2 15 2H9C8.4 2 8 2.4 8 3C8 3.6 8.4 4 9 4H14.5L16.2 6.6C16.4 6.8 16.7 7 17 7H21C21.6 7 22 7.4 22 8V17.3C22 17.9 22.4 18.3 23 18.3C23.6 18.3 24 17.9 24 17.3Z" fill="white"/>
</mask>
<g mask="url(#mask0)">
<rect width="24" height="24" fill="#347AF0"/>
</g>
</svg>
