<svg width="24" height="24" viewBox="0 0 24 24" fill="none" xmlns="http://www.w3.org/2000/svg">
<path fill-rule="evenodd" clip-rule="evenodd" d="M4.01543 3H20.0154C21.7154 3 23.0154 4.3 23.0154 6V18C23.0154 19.7 21.7154 21 20.0154 21H14.0154C13.4154 21 13.0154 20.6 13.0154 20C13.0154 19.4 13.4154 19 14.0154 19H20.0154C20.6154 19 21.0154 18.6 21.0154 18V6C21.0154 5.4 20.6154 5 20.0154 5H4.01543C3.41543 5 3.01543 5.4 3.01543 6V8C3.01543 8.6 2.61543 9 2.01543 9C1.41543 9 1.01543 8.6 1.01543 8V6C1.01543 4.3 2.31543 3 4.01543 3ZM6.11543 21C6.61543 20.9 7.01543 20.3 6.91543 19.8C6.41543 17.4 4.61543 15.6 2.21543 15.1C1.61543 15 1.11543 15.4 1.01543 15.9C0.915426 16.4 1.31543 17 1.81543 17.1C3.41543 17.4 4.61543 18.6 4.91543 20.2C5.01543 20.7 5.41543 21 5.91543 21H6.11543ZM2.11543 11.1C1.61543 11 1.11543 11.4 1.01543 12C0.915426 12.5 1.31543 13 1.91543 13.1C5.61543 13.5 8.61543 16.4 9.01543 20.2C9.01543 20.6 9.41543 21 9.91543 21H10.0154C10.5154 20.9 10.9154 20.4 10.9154 19.9C10.4154 15.2 6.81543 11.6 2.11543 11.1ZM1.31543 19.3C1.41543 19.2 1.51543 19.1 1.61543 19.1C2.01543 18.9 2.41543 19 2.71543 19.3C2.91543 19.5 3.01543 19.7 3.01543 20C3.01543 20.3 2.91543 20.5 2.71543 20.7C2.51543 20.9 2.31543 21 2.01543 21C1.71543 21 1.51543 20.9 1.31543 20.7C1.11543 20.5 1.01543 20.3 1.01543 20C1.01543 19.7 1.11543 19.5 1.31543 19.3Z" fill="black"/>
<mask id="mask0" mask-type="alpha" maskUnits="userSpaceOnUse" x="1" y="3" width="23" height="18">
<path fill-rule="evenodd" clip-rule="evenodd" d="M4.01543 3H20.0154C21.7154 3 23.0154 4.3 23.0154 6V18C23.0154 19.7 21.7154 21 20.0154 21H14.0154C13.4154 21 13.0154 20.6 13.0154 20C13.0154 19.4 13.4154 19 14.0154 19H20.0154C20.6154 19 21.0154 18.6 21.0154 18V6C21.0154 5.4 20.6154 5 20.0154 5H4.01543C3.41543 5 3.01543 5.4 3.01543 6V8C3.01543 8.6 2.61543 9 2.01543 9C1.41543 9 1.01543 8.6 1.01543 8V6C1.01543 4.3 2.31543 3 4.01543 3ZM6.11543 21C6.61543 20.9 7.01543 20.3 6.91543 19.8C6.41543 17.4 4.61543 15.6 2.21543 15.1C1.61543 15 1.11543 15.4 1.01543 15.9C0.915426 16.4 1.31543 17 1.81543 17.1C3.41543 17.4 4.61543 18.6 4.91543 20.2C5.01543 20.7 5.41543 21 5.91543 21H6.11543ZM2.11543 11.1C1.61543 11 1.11543 11.4 1.01543 12C0.915426 12.5 1.31543 13 1.91543 13.1C5.61543 13.5 8.61543 16.4 9.01543 20.2C9.01543 20.6 9.41543 21 9.91543 21H10.0154C10.5154 20.9 10.9154 20.4 10.9154 19.9C10.4154 15.2 6.81543 11.6 2.11543 11.1ZM1.31543 19.3C1.41543 19.2 1.51543 19.1 1.61543 19.1C2.01543 18.9 2.41543 19 2.71543 19.3C2.91543 19.5 3.01543 19.7 3.01543 20C3.01543 20.3 2.91543 20.5 2.71543 20.7C2.51543 20.9 2.31543 21 2.01543 21C1.71543 21 1.51543 20.9 1.31543 20.7C1.11543 20.5 1.01543 20.3 1.01543 20C1.01543 19.7 1.11543 19.5 1.31543 19.3Z" fill="white"/>
</mask>
<g mask="url(#mask0)">
<rect width="24" height="24" fill="#347AF0"/>
</g>
</svg>
