<svg width="24" height="24" viewBox="0 0 24 24" fill="none" xmlns="http://www.w3.org/2000/svg">
<path fill-rule="evenodd" clip-rule="evenodd" d="M23 12C23 18.0751 18.0751 23 12 23C5.92487 23 1 18.0751 1 12C1 5.92487 5.92487 1 12 1C18.0751 1 23 5.92487 23 12ZM14.969 9.4457C15.0849 9.32582 15.2428 9.2558 15.4094 9.25051C15.675 9.23996 15.9196 9.39452 16.024 9.63894C16.1284 9.88337 16.0711 10.1669 15.8799 10.3515C15.0357 11.1975 14.228 12.044 13.4172 12.8938C12.5999 13.7504 11.7794 14.6103 10.9153 15.4763C10.6848 15.7095 10.3155 15.7311 10.0595 15.5264L7.65722 13.6046C7.47842 13.4615 7.38951 13.234 7.42399 13.0076C7.45846 12.7812 7.61108 12.5905 7.82436 12.5071C8.03763 12.4238 8.27916 12.4606 8.45796 12.6036L10.4048 14.1601C11.1 13.4542 11.7755 12.7478 12.4531 12.0391C13.2755 11.179 14.1011 10.3155 14.969 9.4457Z" fill="black"/>
<mask id="mask0" mask-type="alpha" maskUnits="userSpaceOnUse" x="1" y="1" width="22" height="22">
<path fill-rule="evenodd" clip-rule="evenodd" d="M23 12C23 18.0751 18.0751 23 12 23C5.92487 23 1 18.0751 1 12C1 5.92487 5.92487 1 12 1C18.0751 1 23 5.92487 23 12ZM14.969 9.4457C15.0849 9.32582 15.2428 9.2558 15.4094 9.25051C15.675 9.23996 15.9196 9.39452 16.024 9.63894C16.1284 9.88337 16.0711 10.1669 15.8799 10.3515C15.0357 11.1975 14.228 12.044 13.4172 12.8938C12.5999 13.7504 11.7794 14.6103 10.9153 15.4763C10.6848 15.7095 10.3155 15.7311 10.0595 15.5264L7.65722 13.6046C7.47842 13.4615 7.38951 13.234 7.42399 13.0076C7.45846 12.7812 7.61108 12.5905 7.82436 12.5071C8.03763 12.4238 8.27916 12.4606 8.45796 12.6036L10.4048 14.1601C11.1 13.4542 11.7755 12.7478 12.4531 12.0391C13.2755 11.179 14.1011 10.3155 14.969 9.4457Z" fill="white"/>
</mask>
<g mask="url(#mask0)">
<rect width="24" height="24" fill="#347AF0"/>
</g>
</svg>
