<svg width="24" height="24" viewBox="0 0 24 24" fill="none" xmlns="http://www.w3.org/2000/svg">
<path fill-rule="evenodd" clip-rule="evenodd" d="M19 12C19 11.4 19.4 11 20 11C20.6 11 21 11.4 21 12V19C21 20.7 19.7 22 18 22H4C2.3 22 1 20.7 1 19V5C1 3.3 2.3 2 4 2H15C15.6 2 16 2.4 16 3C16 3.6 15.6 4 15 4H4C3.4 4 3 4.4 3 5V19C3 19.6 3.4 20 4 20H18C18.6 20 19 19.6 19 19V12ZM11.7 14.7L22.7 3.7C23.1 3.3 23.1 2.7 22.7 2.3C22.3 1.9 21.7 1.9 21.3 2.3L11 12.6L8.7 10.3C8.3 9.9 7.7 9.9 7.3 10.3C6.9 10.7 6.9 11.3 7.3 11.7L10.3 14.7C10.5 14.9 10.7 15 11 15C11.3 15 11.5 14.9 11.7 14.7Z" fill="black"/>
<mask id="mask0" mask-type="alpha" maskUnits="userSpaceOnUse" x="1" y="2" width="22" height="20">
<path fill-rule="evenodd" clip-rule="evenodd" d="M19 12C19 11.4 19.4 11 20 11C20.6 11 21 11.4 21 12V19C21 20.7 19.7 22 18 22H4C2.3 22 1 20.7 1 19V5C1 3.3 2.3 2 4 2H15C15.6 2 16 2.4 16 3C16 3.6 15.6 4 15 4H4C3.4 4 3 4.4 3 5V19C3 19.6 3.4 20 4 20H18C18.6 20 19 19.6 19 19V12ZM11.7 14.7L22.7 3.7C23.1 3.3 23.1 2.7 22.7 2.3C22.3 1.9 21.7 1.9 21.3 2.3L11 12.6L8.7 10.3C8.3 9.9 7.7 9.9 7.3 10.3C6.9 10.7 6.9 11.3 7.3 11.7L10.3 14.7C10.5 14.9 10.7 15 11 15C11.3 15 11.5 14.9 11.7 14.7Z" fill="white"/>
</mask>
<g mask="url(#mask0)">
<rect width="24" height="24" fill="#347AF0"/>
</g>
</svg>
