<svg width="24" height="24" viewBox="0 0 24 24" fill="none" xmlns="http://www.w3.org/2000/svg">
<path fill-rule="evenodd" clip-rule="evenodd" d="M6.3 10.3C5.9 10.7 5.9 11.3 6.3 11.7C6.7 12.1 7.3 12.1 7.7 11.7L12 7.4L16.3 11.7C16.5 11.9 16.7 12 17 12C17.3 12 17.5 11.9 17.7 11.7C18.1 11.3 18.1 10.7 17.7 10.3L12.7 5.3C12.3 4.9 11.7 4.9 11.3 5.3L6.3 10.3ZM6.3 17.3L11.3 12.3C11.7 11.9 12.3 11.9 12.7 12.3L17.7 17.3C18.1 17.7 18.1 18.3 17.7 18.7C17.5 18.9 17.2 19 17 19C16.8 19 16.5 18.9 16.3 18.7L12 14.4L7.7 18.7C7.3 19.1 6.7 19.1 6.3 18.7C5.9 18.3 5.9 17.7 6.3 17.3Z" fill="black"/>
<mask id="mask0" mask-type="alpha" maskUnits="userSpaceOnUse" x="6" y="5" width="12" height="14">
<path fill-rule="evenodd" clip-rule="evenodd" d="M6.3 10.3C5.9 10.7 5.9 11.3 6.3 11.7C6.7 12.1 7.3 12.1 7.7 11.7L12 7.4L16.3 11.7C16.5 11.9 16.7 12 17 12C17.3 12 17.5 11.9 17.7 11.7C18.1 11.3 18.1 10.7 17.7 10.3L12.7 5.3C12.3 4.9 11.7 4.9 11.3 5.3L6.3 10.3ZM6.3 17.3L11.3 12.3C11.7 11.9 12.3 11.9 12.7 12.3L17.7 17.3C18.1 17.7 18.1 18.3 17.7 18.7C17.5 18.9 17.2 19 17 19C16.8 19 16.5 18.9 16.3 18.7L12 14.4L7.7 18.7C7.3 19.1 6.7 19.1 6.3 18.7C5.9 18.3 5.9 17.7 6.3 17.3Z" fill="white"/>
</mask>
<g mask="url(#mask0)">
<rect width="24" height="24" fill="#347AF0"/>
</g>
</svg>
