<svg width="24" height="24" viewBox="0 0 24 24" fill="none" xmlns="http://www.w3.org/2000/svg">
<path fill-rule="evenodd" clip-rule="evenodd" d="M12 12C11.8 12 11.5 11.9 11.3 11.7L6.3 6.7C5.9 6.3 5.9 5.7 6.3 5.3C6.7 4.9 7.3 4.9 7.7 5.3L12 9.6L16.3 5.3C16.7 4.9 17.3 4.9 17.7 5.3C18.1 5.7 18.1 6.3 17.7 6.7L12.7 11.7C12.5 11.9 12.2 12 12 12ZM17.7 13.7C18.1 13.3 18.1 12.7 17.7 12.3C17.3 11.9 16.7 11.9 16.3 12.3L12 16.6L7.7 12.3C7.3 11.9 6.7 11.9 6.3 12.3C5.9 12.7 5.9 13.3 6.3 13.7L11.3 18.7C11.5 18.9 11.7 19 12 19C12.3 19 12.5 18.9 12.7 18.7L17.7 13.7Z" fill="black"/>
<mask id="mask0" mask-type="alpha" maskUnits="userSpaceOnUse" x="6" y="5" width="12" height="14">
<path fill-rule="evenodd" clip-rule="evenodd" d="M12 12C11.8 12 11.5 11.9 11.3 11.7L6.3 6.7C5.9 6.3 5.9 5.7 6.3 5.3C6.7 4.9 7.3 4.9 7.7 5.3L12 9.6L16.3 5.3C16.7 4.9 17.3 4.9 17.7 5.3C18.1 5.7 18.1 6.3 17.7 6.7L12.7 11.7C12.5 11.9 12.2 12 12 12ZM17.7 13.7C18.1 13.3 18.1 12.7 17.7 12.3C17.3 11.9 16.7 11.9 16.3 12.3L12 16.6L7.7 12.3C7.3 11.9 6.7 11.9 6.3 12.3C5.9 12.7 5.9 13.3 6.3 13.7L11.3 18.7C11.5 18.9 11.7 19 12 19C12.3 19 12.5 18.9 12.7 18.7L17.7 13.7Z" fill="white"/>
</mask>
<g mask="url(#mask0)">
<rect width="24" height="24" fill="#347AF0"/>
</g>
</svg>
