<svg width="24" height="24" viewBox="0 0 24 24" fill="none" xmlns="http://www.w3.org/2000/svg">
<path fill-rule="evenodd" clip-rule="evenodd" d="M22.178 7.7C20.3714 3.7 16.5573 1 12.0407 1C8.42736 1 5.21553 2.7 3.20813 5.4C3.20813 5.45 3.18304 5.475 3.15795 5.5C3.13286 5.525 3.10777 5.55 3.10777 5.6C1.80296 7.4 1 9.6 1 12C1 17.6 5.21553 22.2 10.6355 22.9H10.7359C10.9366 22.9 11.1373 22.925 11.3381 22.95C11.5388 22.975 11.7396 23 11.9403 23C18.0629 23 22.981 18.1 22.981 12C23.0814 10.5 22.7802 9 22.178 7.7ZM12.0407 3C15.1521 3 17.9625 4.6 19.5684 7H12.0407C9.93291 7 8.22662 8.3 7.42367 10L5.21553 6.2C6.82145 4.2 9.33069 3 12.0407 3ZM12.0407 15C13.747 15 15.0518 13.7 15.0518 12C15.0518 10.3 13.747 9 12.0407 9C10.3344 9 9.02958 10.3 9.02958 12C9.02958 13.7 10.3344 15 12.0407 15ZM3.0074 12C3.0074 10.6 3.3085 9.2 3.91072 8L7.6244 14.5C7.6244 14.5 7.6244 14.6 7.72477 14.6C8.6281 16 10.234 17 12.0407 17C12.2414 17 12.4422 17 12.6429 16.9L10.3344 20.8C6.21923 20.1 3.0074 16.4 3.0074 12ZM16.3566 14.5L12.6429 21C17.3603 20.7 21.074 16.8 20.9736 12C20.9736 10.9 20.7728 9.9 20.4717 9H15.9551C16.5573 9.8 16.9588 10.9 16.9588 12C16.9588 12.9 16.7581 13.7 16.3566 14.4V14.5Z" fill="black"/>
<mask id="mask0" mask-type="alpha" maskUnits="userSpaceOnUse" x="1" y="1" width="22" height="22">
<path fill-rule="evenodd" clip-rule="evenodd" d="M22.178 7.7C20.3714 3.7 16.5573 1 12.0407 1C8.42736 1 5.21553 2.7 3.20813 5.4C3.20813 5.45 3.18304 5.475 3.15795 5.5C3.13286 5.525 3.10777 5.55 3.10777 5.6C1.80296 7.4 1 9.6 1 12C1 17.6 5.21553 22.2 10.6355 22.9H10.7359C10.9366 22.9 11.1373 22.925 11.3381 22.95C11.5388 22.975 11.7396 23 11.9403 23C18.0629 23 22.981 18.1 22.981 12C23.0814 10.5 22.7802 9 22.178 7.7ZM12.0407 3C15.1521 3 17.9625 4.6 19.5684 7H12.0407C9.93291 7 8.22662 8.3 7.42367 10L5.21553 6.2C6.82145 4.2 9.33069 3 12.0407 3ZM12.0407 15C13.747 15 15.0518 13.7 15.0518 12C15.0518 10.3 13.747 9 12.0407 9C10.3344 9 9.02958 10.3 9.02958 12C9.02958 13.7 10.3344 15 12.0407 15ZM3.0074 12C3.0074 10.6 3.3085 9.2 3.91072 8L7.6244 14.5C7.6244 14.5 7.6244 14.6 7.72477 14.6C8.6281 16 10.234 17 12.0407 17C12.2414 17 12.4422 17 12.6429 16.9L10.3344 20.8C6.21923 20.1 3.0074 16.4 3.0074 12ZM16.3566 14.5L12.6429 21C17.3603 20.7 21.074 16.8 20.9736 12C20.9736 10.9 20.7728 9.9 20.4717 9H15.9551C16.5573 9.8 16.9588 10.9 16.9588 12C16.9588 12.9 16.7581 13.7 16.3566 14.4V14.5Z" fill="white"/>
</mask>
<g mask="url(#mask0)">
<rect width="24" height="24" fill="#347AF0"/>
</g>
</svg>
