<svg width="24" height="24" viewBox="0 0 24 24" fill="none" xmlns="http://www.w3.org/2000/svg">
<path fill-rule="evenodd" clip-rule="evenodd" d="M18 3H17C17 1.9 16.1 1 15 1H9C7.9 1 7 1.9 7 3H6C4.3 3 3 4.3 3 6V20C3 21.7 4.3 23 6 23H18C19.7 23 21 21.7 21 20V6C21 4.3 19.7 3 18 3ZM9 3H15V5H9V4V3ZM18 21C18.6 21 19 20.6 19 20V6C19 5.4 18.6 5 18 5H17C17 6.1 16.1 7 15 7H9C7.9 7 7 6.1 7 5H6C5.4 5 5 5.4 5 6V20C5 20.6 5.4 21 6 21H18Z" fill="black"/>
<mask id="mask0" mask-type="alpha" maskUnits="userSpaceOnUse" x="3" y="1" width="18" height="22">
<path fill-rule="evenodd" clip-rule="evenodd" d="M18 3H17C17 1.9 16.1 1 15 1H9C7.9 1 7 1.9 7 3H6C4.3 3 3 4.3 3 6V20C3 21.7 4.3 23 6 23H18C19.7 23 21 21.7 21 20V6C21 4.3 19.7 3 18 3ZM9 3H15V5H9V4V3ZM18 21C18.6 21 19 20.6 19 20V6C19 5.4 18.6 5 18 5H17C17 6.1 16.1 7 15 7H9C7.9 7 7 6.1 7 5H6C5.4 5 5 5.4 5 6V20C5 20.6 5.4 21 6 21H18Z" fill="white"/>
</mask>
<g mask="url(#mask0)">
<rect width="24" height="24" fill="#347AF0"/>
</g>
</svg>
