<svg width="24" height="24" viewBox="0 0 24 24" fill="none" xmlns="http://www.w3.org/2000/svg">
<path fill-rule="evenodd" clip-rule="evenodd" d="M12 1C5.9 1 1 5.9 1 12C1 18.1 5.9 23 12 23C18.1 23 23 18.1 23 12C23 5.9 18.1 1 12 1ZM12 21C7 21 3 17 3 12C3 7 7 3 12 3C17 3 21 7 21 12C21 17 17 21 12 21ZM15.7 15.7C16.1 15.3 16.1 14.7 15.7 14.3L13 11.6V6C13 5.4 12.6 5 12 5C11.4 5 11 5.4 11 6V12C11 12.3 11.1 12.5 11.3 12.7L14.3 15.7C14.5 15.9 14.7 16 15 16C15.3 16 15.5 15.9 15.7 15.7Z" fill="black"/>
<mask id="mask0" mask-type="alpha" maskUnits="userSpaceOnUse" x="1" y="1" width="22" height="22">
<path fill-rule="evenodd" clip-rule="evenodd" d="M12 1C5.9 1 1 5.9 1 12C1 18.1 5.9 23 12 23C18.1 23 23 18.1 23 12C23 5.9 18.1 1 12 1ZM12 21C7 21 3 17 3 12C3 7 7 3 12 3C17 3 21 7 21 12C21 17 17 21 12 21ZM15.7 15.7C16.1 15.3 16.1 14.7 15.7 14.3L13 11.6V6C13 5.4 12.6 5 12 5C11.4 5 11 5.4 11 6V12C11 12.3 11.1 12.5 11.3 12.7L14.3 15.7C14.5 15.9 14.7 16 15 16C15.3 16 15.5 15.9 15.7 15.7Z" fill="white"/>
</mask>
<g mask="url(#mask0)">
<rect width="24" height="24" fill="#347AF0"/>
</g>
</svg>
