<svg width="25" height="24" viewBox="0 0 25 24" fill="none" xmlns="http://www.w3.org/2000/svg">
<path fill-rule="evenodd" clip-rule="evenodd" d="M18.5 8.99998H19C22.3 8.99998 24.9 11.7 24.9 15C24.9 18.3 22.2 21 18.9 21H9.89997C5.79997 21 2.19998 18.2 1.19998 14.2C0.599975 11.9 0.999975 9.49998 2.19998 7.39998C3.49998 5.39998 5.39997 3.89998 7.79997 3.19998C10.1 2.59998 12.5 2.99998 14.6 4.19998C16.4 5.29998 17.8 6.99998 18.5 8.99998ZM9.99998 19H19C21.2 19 23 17.3 23 15.1C23 12.9 21.2 11.1 19 11.1H17.8C17.3 11.1 16.9 10.7 16.8 10.3C16 7.09998 13.1 4.99998 9.99998 4.99998C9.39997 4.99998 8.79997 5.09998 8.29997 5.19998C6.49998 5.59998 4.99998 6.69998 3.99998 8.39998C2.99998 10.1 2.69998 11.9 3.19998 13.8C3.99998 16.8 6.79998 19 9.99998 19Z" fill="black"/>
<mask id="mask0" mask-type="alpha" maskUnits="userSpaceOnUse" x="0" y="2" width="25" height="19">
<path fill-rule="evenodd" clip-rule="evenodd" d="M18.5 8.99998H19C22.3 8.99998 24.9 11.7 24.9 15C24.9 18.3 22.2 21 18.9 21H9.89997C5.79997 21 2.19998 18.2 1.19998 14.2C0.599975 11.9 0.999975 9.49998 2.19998 7.39998C3.49998 5.39998 5.39997 3.89998 7.79997 3.19998C10.1 2.59998 12.5 2.99998 14.6 4.19998C16.4 5.29998 17.8 6.99998 18.5 8.99998ZM9.99998 19H19C21.2 19 23 17.3 23 15.1C23 12.9 21.2 11.1 19 11.1H17.8C17.3 11.1 16.9 10.7 16.8 10.3C16 7.09998 13.1 4.99998 9.99998 4.99998C9.39997 4.99998 8.79997 5.09998 8.29997 5.19998C6.49998 5.59998 4.99998 6.69998 3.99998 8.39998C2.99998 10.1 2.69998 11.9 3.19998 13.8C3.99998 16.8 6.79998 19 9.99998 19Z" fill="white"/>
</mask>
<g mask="url(#mask0)">
<rect x="1" width="24" height="24" fill="#347AF0"/>
</g>
</svg>
