<svg width="24" height="24" viewBox="0 0 24 24" fill="none" xmlns="http://www.w3.org/2000/svg">
<path fill-rule="evenodd" clip-rule="evenodd" d="M17.9875 6.00006C20.3845 6.00006 22.4818 7.40006 23.4805 9.60006C24.0798 11.1001 24.1796 12.7001 23.6803 14.3001C23.081 15.8001 21.9824 17.0001 20.4843 17.6001C20.3845 17.7001 20.1847 17.7001 20.0849 17.7001C19.6854 17.7001 19.3857 17.5001 19.186 17.1001C18.9863 16.6001 19.186 16.0001 19.6854 15.8001C20.6841 15.4001 21.3832 14.6001 21.7827 13.6001C22.1822 12.6001 22.0823 11.5001 21.6828 10.5001C20.9837 9.00006 19.5855 8.10006 17.9875 8.10006H16.6892C16.1898 8.10006 15.7903 7.70006 15.6905 7.30006C14.7916 3.60006 10.8966 1.30006 7.20129 2.30006C3.50601 3.20006 1.20894 7.10006 2.20766 10.8001C2.60715 12.2001 3.40614 13.6001 4.60461 14.5001C5.10397 14.8001 5.10397 15.5001 4.80435 15.9001C4.50473 16.4001 3.80563 16.4001 3.40614 16.1001C1.90805 14.9001 0.809448 13.2001 0.310085 11.3001C-0.988258 6.40006 1.90805 1.50006 6.8018 0.300061C11.2961 -0.899939 15.9901 1.60006 17.4882 6.00006H17.9875ZM7.00155 13.0001C7.00155 12.4001 7.40104 12.0001 8.00027 12.0001C8.59951 12.0001 8.999 12.4001 8.999 13.0001V21.0001C8.999 21.6001 8.59951 22.0001 8.00027 22.0001C7.40104 22.0001 7.00155 21.6001 7.00155 21.0001V13.0001ZM16.9888 21.0001V13.0001C16.9888 12.4001 16.5893 12.0001 15.9901 12.0001C15.3908 12.0001 14.9914 12.4001 14.9914 13.0001V21.0001C14.9914 21.6001 15.3908 22.0001 15.9901 22.0001C16.5893 22.0001 16.9888 21.6001 16.9888 21.0001ZM11.9952 14.0001C11.3959 14.0001 10.9965 14.4001 10.9965 15.0001V23.0001C10.9965 23.6001 11.3959 24.0001 11.9952 24.0001C12.5944 24.0001 12.9939 23.6001 12.9939 23.0001V15.0001C12.9939 14.4001 12.5944 14.0001 11.9952 14.0001Z" fill="black"/>
<mask id="mask0" mask-type="alpha" maskUnits="userSpaceOnUse" x="0" y="0" width="24" height="24">
<path fill-rule="evenodd" clip-rule="evenodd" d="M17.9875 6.00006C20.3845 6.00006 22.4818 7.40006 23.4805 9.60006C24.0798 11.1001 24.1796 12.7001 23.6803 14.3001C23.081 15.8001 21.9824 17.0001 20.4843 17.6001C20.3845 17.7001 20.1847 17.7001 20.0849 17.7001C19.6854 17.7001 19.3857 17.5001 19.186 17.1001C18.9863 16.6001 19.186 16.0001 19.6854 15.8001C20.6841 15.4001 21.3832 14.6001 21.7827 13.6001C22.1822 12.6001 22.0823 11.5001 21.6828 10.5001C20.9837 9.00006 19.5855 8.10006 17.9875 8.10006H16.6892C16.1898 8.10006 15.7903 7.70006 15.6905 7.30006C14.7916 3.60006 10.8966 1.30006 7.20129 2.30006C3.50601 3.20006 1.20894 7.10006 2.20766 10.8001C2.60715 12.2001 3.40614 13.6001 4.60461 14.5001C5.10397 14.8001 5.10397 15.5001 4.80435 15.9001C4.50473 16.4001 3.80563 16.4001 3.40614 16.1001C1.90805 14.9001 0.809448 13.2001 0.310085 11.3001C-0.988258 6.40006 1.90805 1.50006 6.8018 0.300061C11.2961 -0.899939 15.9901 1.60006 17.4882 6.00006H17.9875ZM7.00155 13.0001C7.00155 12.4001 7.40104 12.0001 8.00027 12.0001C8.59951 12.0001 8.999 12.4001 8.999 13.0001V21.0001C8.999 21.6001 8.59951 22.0001 8.00027 22.0001C7.40104 22.0001 7.00155 21.6001 7.00155 21.0001V13.0001ZM16.9888 21.0001V13.0001C16.9888 12.4001 16.5893 12.0001 15.9901 12.0001C15.3908 12.0001 14.9914 12.4001 14.9914 13.0001V21.0001C14.9914 21.6001 15.3908 22.0001 15.9901 22.0001C16.5893 22.0001 16.9888 21.6001 16.9888 21.0001ZM11.9952 14.0001C11.3959 14.0001 10.9965 14.4001 10.9965 15.0001V23.0001C10.9965 23.6001 11.3959 24.0001 11.9952 24.0001C12.5944 24.0001 12.9939 23.6001 12.9939 23.0001V15.0001C12.9939 14.4001 12.5944 14.0001 11.9952 14.0001Z" fill="white"/>
</mask>
<g mask="url(#mask0)">
<rect width="24" height="24" fill="#347AF0"/>
</g>
</svg>
