<svg width="24" height="24" viewBox="0 0 24 24" fill="none" xmlns="http://www.w3.org/2000/svg">
<path fill-rule="evenodd" clip-rule="evenodd" d="M23.7016 22.3C24.0995 22.7 24.0995 23.3 23.7016 23.7C23.5026 23.9 23.3037 24 23.0053 24C22.7069 24 22.5079 23.9 22.309 23.7L19.4243 20.8C19.3518 20.8146 19.2813 20.8292 19.2124 20.8435C18.8088 20.927 18.4565 21 18.0317 21H9.07935H8.97988C5.69733 21 2.7132 19.2 1.12167 16.4C-0.0719852 14.3 -0.270927 11.9 0.325899 9.6C0.922725 7.6 2.01691 6 3.50897 4.8L0.42537 1.7C0.0274858 1.3 0.0274858 0.7 0.42537 0.3C0.823254 -0.1 1.42008 -0.1 1.81796 0.3L23.7016 22.3ZM8.78094 3.9C8.78094 3.4 9.27829 2.9 9.87512 3C13.3566 3.3 16.3407 5.7 17.5344 9H18.0317C18.8275 9 19.6233 9.2 20.3196 9.5C23.3037 10.8 24.7958 14.3 23.5026 17.4C23.4032 17.7 23.0053 18 22.6074 18C22.5079 18 22.309 18 22.2095 17.9C21.7122 17.7 21.5132 17.1 21.7122 16.6C22.6074 14.6 21.6127 12.2 19.6233 11.4C19.1259 11.2 18.6286 11.1 18.0317 11.1H16.7386C16.2413 11.1 15.8434 10.8 15.7439 10.3C15.0476 7.4 12.6603 5.3 9.67617 5C9.17882 4.9 8.68146 4.5 8.78094 3.9ZM5.00104 6.3L17.6339 19H9.07935C6.4931 19.1 4.1058 17.7 2.91215 15.4C2.01691 13.8 1.81796 11.9 2.31532 10.1C2.7132 8.5 3.70791 7.2 5.00104 6.3Z" fill="black"/>
<mask id="mask0" mask-type="alpha" maskUnits="userSpaceOnUse" x="0" y="0" width="24" height="24">
<path fill-rule="evenodd" clip-rule="evenodd" d="M23.7016 22.3C24.0995 22.7 24.0995 23.3 23.7016 23.7C23.5026 23.9 23.3037 24 23.0053 24C22.7069 24 22.5079 23.9 22.309 23.7L19.4243 20.8C19.3518 20.8146 19.2813 20.8292 19.2124 20.8435C18.8088 20.927 18.4565 21 18.0317 21H9.07935H8.97988C5.69733 21 2.7132 19.2 1.12167 16.4C-0.0719852 14.3 -0.270927 11.9 0.325899 9.6C0.922725 7.6 2.01691 6 3.50897 4.8L0.42537 1.7C0.0274858 1.3 0.0274858 0.7 0.42537 0.3C0.823254 -0.1 1.42008 -0.1 1.81796 0.3L23.7016 22.3ZM8.78094 3.9C8.78094 3.4 9.27829 2.9 9.87512 3C13.3566 3.3 16.3407 5.7 17.5344 9H18.0317C18.8275 9 19.6233 9.2 20.3196 9.5C23.3037 10.8 24.7958 14.3 23.5026 17.4C23.4032 17.7 23.0053 18 22.6074 18C22.5079 18 22.309 18 22.2095 17.9C21.7122 17.7 21.5132 17.1 21.7122 16.6C22.6074 14.6 21.6127 12.2 19.6233 11.4C19.1259 11.2 18.6286 11.1 18.0317 11.1H16.7386C16.2413 11.1 15.8434 10.8 15.7439 10.3C15.0476 7.4 12.6603 5.3 9.67617 5C9.17882 4.9 8.68146 4.5 8.78094 3.9ZM5.00104 6.3L17.6339 19H9.07935C6.4931 19.1 4.1058 17.7 2.91215 15.4C2.01691 13.8 1.81796 11.9 2.31532 10.1C2.7132 8.5 3.70791 7.2 5.00104 6.3Z" fill="white"/>
</mask>
<g mask="url(#mask0)">
<rect width="24" height="24" fill="#347AF0"/>
</g>
</svg>
