<svg width="24" height="24" viewBox="0 0 24 24" fill="none" xmlns="http://www.w3.org/2000/svg">
<path fill-rule="evenodd" clip-rule="evenodd" d="M19.0182 17.8727H19.2174C22.4043 17.1696 24.4956 13.9552 23.8981 10.8414C23.3006 8.02884 20.8108 6.01989 18.0223 6.01989H17.4247C15.9309 1.70065 11.2501 -0.910988 6.76856 0.294382C4.47798 0.897067 2.48617 2.30333 1.29109 4.41273C-0.00358974 6.42168 -0.302361 8.93287 0.295182 11.2432C0.992314 13.6539 2.48617 15.6629 4.67716 16.8682C5.17511 17.1696 5.77265 16.9687 6.07142 16.4664C6.3702 15.9642 6.17102 15.3615 5.67306 15.1606C3.98003 14.1561 2.78494 12.6494 2.28699 10.7409C1.78904 8.83242 2.08781 7.02437 3.08371 5.31676C3.98003 3.7096 5.47388 2.60468 7.26651 2.10244C10.9514 1.09796 14.7358 3.40826 15.7317 7.12481C15.8313 7.62705 16.2296 7.92839 16.7276 7.92839H18.0223C19.9145 7.92839 21.5079 9.23421 21.9063 11.1427C22.4043 13.2521 21.01 15.462 18.819 15.8637C18.2215 15.9642 17.9227 16.5669 18.0223 17.0691C18.1219 17.5714 18.5202 17.8727 19.0182 17.8727ZM10.9514 15.9642H15.0346C15.4329 15.9642 15.6321 16.2655 15.8313 16.5669C16.0305 16.8682 16.0305 17.27 15.8313 17.5714L11.8477 23.5982C11.6485 23.7991 11.3497 24 11.0509 24C10.8518 24 10.6526 23.8996 10.4534 23.7991C9.95545 23.4978 9.85586 22.8951 10.1546 22.3928L13.1423 17.9731H9.05914C8.66078 17.9731 8.362 17.7723 8.26241 17.4709C8.06323 17.1696 8.06323 16.7678 8.26241 16.4664L12.246 10.4396C12.5448 9.93735 13.1423 9.8369 13.6403 10.1382C14.1382 10.4396 14.2378 11.0423 13.9391 11.5445L10.9514 15.9642Z" fill="black"/>
<mask id="mask0" mask-type="alpha" maskUnits="userSpaceOnUse" x="0" y="0" width="24" height="24">
<path fill-rule="evenodd" clip-rule="evenodd" d="M19.0182 17.8727H19.2174C22.4043 17.1696 24.4956 13.9552 23.8981 10.8414C23.3006 8.02884 20.8108 6.01989 18.0223 6.01989H17.4247C15.9309 1.70065 11.2501 -0.910988 6.76856 0.294382C4.47798 0.897067 2.48617 2.30333 1.29109 4.41273C-0.00358974 6.42168 -0.302361 8.93287 0.295182 11.2432C0.992314 13.6539 2.48617 15.6629 4.67716 16.8682C5.17511 17.1696 5.77265 16.9687 6.07142 16.4664C6.3702 15.9642 6.17102 15.3615 5.67306 15.1606C3.98003 14.1561 2.78494 12.6494 2.28699 10.7409C1.78904 8.83242 2.08781 7.02437 3.08371 5.31676C3.98003 3.7096 5.47388 2.60468 7.26651 2.10244C10.9514 1.09796 14.7358 3.40826 15.7317 7.12481C15.8313 7.62705 16.2296 7.92839 16.7276 7.92839H18.0223C19.9145 7.92839 21.5079 9.23421 21.9063 11.1427C22.4043 13.2521 21.01 15.462 18.819 15.8637C18.2215 15.9642 17.9227 16.5669 18.0223 17.0691C18.1219 17.5714 18.5202 17.8727 19.0182 17.8727ZM10.9514 15.9642H15.0346C15.4329 15.9642 15.6321 16.2655 15.8313 16.5669C16.0305 16.8682 16.0305 17.27 15.8313 17.5714L11.8477 23.5982C11.6485 23.7991 11.3497 24 11.0509 24C10.8518 24 10.6526 23.8996 10.4534 23.7991C9.95545 23.4978 9.85586 22.8951 10.1546 22.3928L13.1423 17.9731H9.05914C8.66078 17.9731 8.362 17.7723 8.26241 17.4709C8.06323 17.1696 8.06323 16.7678 8.26241 16.4664L12.246 10.4396C12.5448 9.93735 13.1423 9.8369 13.6403 10.1382C14.1382 10.4396 14.2378 11.0423 13.9391 11.5445L10.9514 15.9642Z" fill="white"/>
</mask>
<g mask="url(#mask0)">
<rect width="24" height="24" fill="#347AF0"/>
</g>
</svg>
