<svg width="25" height="24" viewBox="0 0 25 24" fill="none" xmlns="http://www.w3.org/2000/svg">
<path fill-rule="evenodd" clip-rule="evenodd" d="M18.0105 6.00006C20.4105 6.00006 22.5105 7.40006 23.5105 9.60006C24.1105 11.1001 24.2105 12.7001 23.7105 14.3001C23.1105 15.8001 22.0105 17.0001 20.5105 17.6001C20.4105 17.7001 20.2105 17.7001 20.1105 17.7001C19.7105 17.7001 19.4105 17.5001 19.2105 17.1001C19.0105 16.6001 19.2105 16.0001 19.7105 15.8001C20.7105 15.4001 21.4105 14.6001 21.8105 13.6001C22.2105 12.6001 22.1105 11.5001 21.7105 10.5001C21.0105 9.00006 19.6105 8.10006 18.0105 8.10006H16.7105C16.2105 8.10006 15.8105 7.70006 15.7105 7.30006C14.8105 3.60006 10.9105 1.30006 7.21048 2.30006C3.51048 3.20006 1.21048 7.10006 2.21048 10.8001C2.61048 12.2001 3.41048 13.6001 4.61048 14.5001C5.11048 14.8001 5.11048 15.5001 4.81048 15.9001C4.51048 16.4001 3.81048 16.4001 3.41048 16.1001C1.91048 14.9001 0.810481 13.2001 0.310481 11.3001C-0.989519 6.40006 1.91048 1.50006 6.81048 0.300061C11.3105 -0.899939 16.0105 1.60006 17.5105 6.00006H18.0105ZM8.01048 12.0001C7.41048 12.0001 7.01048 12.4001 7.01048 13.0001V15.0001C7.01048 15.6001 7.41048 16.0001 8.01048 16.0001C8.61048 16.0001 9.01048 15.6001 9.01048 15.0001V13.0001C9.01048 12.4001 8.61048 12.0001 8.01048 12.0001ZM9.01048 19.0001V21.0001C9.01048 21.6001 8.61048 22.0001 8.01048 22.0001C7.41048 22.0001 7.01048 21.6001 7.01048 21.0001V19.0001C7.01048 18.4001 7.41048 18.0001 8.01048 18.0001C8.61048 18.0001 9.01048 18.4001 9.01048 19.0001ZM15.0105 19.0001C15.0105 18.4001 15.4105 18.0001 16.0105 18.0001C16.6105 18.0001 17.0105 18.4001 17.0105 19.0001V21.0001C17.0105 21.6001 16.6105 22.0001 16.0105 22.0001C15.4105 22.0001 15.0105 21.6001 15.0105 21.0001V19.0001ZM16.0105 12.0001C15.4105 12.0001 15.0105 12.4001 15.0105 13.0001V15.0001C15.0105 15.6001 15.4105 16.0001 16.0105 16.0001C16.6105 16.0001 17.0105 15.6001 17.0105 15.0001V13.0001C17.0105 12.4001 16.6105 12.0001 16.0105 12.0001ZM11.0105 21.0001C11.0105 20.4001 11.4105 20.0001 12.0105 20.0001C12.6105 20.0001 13.0105 20.4001 13.0105 21.0001V23.0001C13.0105 23.6001 12.6105 24.0001 12.0105 24.0001C11.4105 24.0001 11.0105 23.6001 11.0105 23.0001V21.0001ZM12.0105 14.0001C11.4105 14.0001 11.0105 14.4001 11.0105 15.0001V17.0001C11.0105 17.6001 11.4105 18.0001 12.0105 18.0001C12.6105 18.0001 13.0105 17.6001 13.0105 17.0001V15.0001C13.0105 14.4001 12.6105 14.0001 12.0105 14.0001Z" fill="black"/>
<mask id="mask0" mask-type="alpha" maskUnits="userSpaceOnUse" x="0" y="0" width="25" height="24">
<path fill-rule="evenodd" clip-rule="evenodd" d="M18.0105 6.00006C20.4105 6.00006 22.5105 7.40006 23.5105 9.60006C24.1105 11.1001 24.2105 12.7001 23.7105 14.3001C23.1105 15.8001 22.0105 17.0001 20.5105 17.6001C20.4105 17.7001 20.2105 17.7001 20.1105 17.7001C19.7105 17.7001 19.4105 17.5001 19.2105 17.1001C19.0105 16.6001 19.2105 16.0001 19.7105 15.8001C20.7105 15.4001 21.4105 14.6001 21.8105 13.6001C22.2105 12.6001 22.1105 11.5001 21.7105 10.5001C21.0105 9.00006 19.6105 8.10006 18.0105 8.10006H16.7105C16.2105 8.10006 15.8105 7.70006 15.7105 7.30006C14.8105 3.60006 10.9105 1.30006 7.21048 2.30006C3.51048 3.20006 1.21048 7.10006 2.21048 10.8001C2.61048 12.2001 3.41048 13.6001 4.61048 14.5001C5.11048 14.8001 5.11048 15.5001 4.81048 15.9001C4.51048 16.4001 3.81048 16.4001 3.41048 16.1001C1.91048 14.9001 0.810481 13.2001 0.310481 11.3001C-0.989519 6.40006 1.91048 1.50006 6.81048 0.300061C11.3105 -0.899939 16.0105 1.60006 17.5105 6.00006H18.0105ZM8.01048 12.0001C7.41048 12.0001 7.01048 12.4001 7.01048 13.0001V15.0001C7.01048 15.6001 7.41048 16.0001 8.01048 16.0001C8.61048 16.0001 9.01048 15.6001 9.01048 15.0001V13.0001C9.01048 12.4001 8.61048 12.0001 8.01048 12.0001ZM9.01048 19.0001V21.0001C9.01048 21.6001 8.61048 22.0001 8.01048 22.0001C7.41048 22.0001 7.01048 21.6001 7.01048 21.0001V19.0001C7.01048 18.4001 7.41048 18.0001 8.01048 18.0001C8.61048 18.0001 9.01048 18.4001 9.01048 19.0001ZM15.0105 19.0001C15.0105 18.4001 15.4105 18.0001 16.0105 18.0001C16.6105 18.0001 17.0105 18.4001 17.0105 19.0001V21.0001C17.0105 21.6001 16.6105 22.0001 16.0105 22.0001C15.4105 22.0001 15.0105 21.6001 15.0105 21.0001V19.0001ZM16.0105 12.0001C15.4105 12.0001 15.0105 12.4001 15.0105 13.0001V15.0001C15.0105 15.6001 15.4105 16.0001 16.0105 16.0001C16.6105 16.0001 17.0105 15.6001 17.0105 15.0001V13.0001C17.0105 12.4001 16.6105 12.0001 16.0105 12.0001ZM11.0105 21.0001C11.0105 20.4001 11.4105 20.0001 12.0105 20.0001C12.6105 20.0001 13.0105 20.4001 13.0105 21.0001V23.0001C13.0105 23.6001 12.6105 24.0001 12.0105 24.0001C11.4105 24.0001 11.0105 23.6001 11.0105 23.0001V21.0001ZM12.0105 14.0001C11.4105 14.0001 11.0105 14.4001 11.0105 15.0001V17.0001C11.0105 17.6001 11.4105 18.0001 12.0105 18.0001C12.6105 18.0001 13.0105 17.6001 13.0105 17.0001V15.0001C13.0105 14.4001 12.6105 14.0001 12.0105 14.0001Z" fill="white"/>
</mask>
<g mask="url(#mask0)">
<rect width="24" height="24" fill="#347AF0"/>
</g>
</svg>
