<svg width="24" height="24" viewBox="0 0 24 24" fill="none" xmlns="http://www.w3.org/2000/svg">
<path fill-rule="evenodd" clip-rule="evenodd" d="M23.5971 15.1975C22.9975 16.698 21.8981 17.8984 20.399 18.4986C20.2991 18.5986 20.0992 18.5986 19.9992 18.5986C19.5995 18.5986 19.1997 18.3986 19.0998 17.9984C18.8999 17.4983 19.0998 16.8981 19.5995 16.698C20.5989 16.2979 21.2985 15.4976 21.6982 14.4973C22.098 13.497 22.098 12.3967 21.5983 11.3963C20.9986 9.89587 19.5995 8.99559 18.0004 8.99559H16.7012C16.2014 8.99559 15.8017 8.69549 15.7017 8.19534C14.7023 4.49417 10.9045 2.19345 7.2067 3.19376C3.50885 4.19408 1.2102 7.99527 2.20961 11.6964C2.60938 13.1969 3.40891 14.4973 4.60821 15.3976C5.00798 15.6977 5.10792 16.3979 4.8081 16.798C4.50827 17.1982 3.80868 17.2982 3.40891 16.9981C1.90979 15.7977 0.810431 14.0972 0.310723 12.1966C-0.988519 7.39508 1.90979 2.49354 6.70699 1.29316C11.3043 0.0927849 15.9016 2.6936 17.4007 6.99496H18.0004C20.399 6.99496 22.4978 8.3954 23.4972 10.5961C24.0968 12.0966 24.1968 13.6971 23.5971 15.1975ZM8.70582 15.2976C8.30605 14.8974 7.7064 14.8974 7.30664 15.2976C7.2067 15.3976 7.10675 15.4976 7.10675 15.5977C7.00681 15.6977 7.00681 15.8978 7.00681 15.9978C7.00681 16.0978 7.00681 16.2979 7.10675 16.3979C7.15673 16.4479 7.18171 16.498 7.2067 16.548C7.23168 16.598 7.25667 16.648 7.30664 16.698C7.50652 16.8981 7.7064 16.9981 8.00623 16.9981C8.30605 16.9981 8.50594 16.8981 8.70582 16.698C8.80576 16.598 8.9057 16.498 8.9057 16.3979C9.00565 16.2979 9.00565 16.0978 9.00565 15.9978C9.00565 15.8978 9.00565 15.6977 8.9057 15.5977C8.9057 15.4976 8.80576 15.3976 8.70582 15.2976ZM7.30664 19.2988C7.40658 19.1988 7.50652 19.0988 7.60646 19.0988C8.00623 18.8987 8.406 18.9987 8.70582 19.2988C8.9057 19.4989 9.00565 19.699 9.00565 19.9991C9.00565 20.2991 8.9057 20.4992 8.70582 20.6993C8.50594 20.8993 8.30605 20.9994 8.00623 20.9994C7.7064 20.9994 7.50652 20.8993 7.30664 20.6993C7.10675 20.4992 7.00681 20.2991 7.00681 19.9991C7.00681 19.699 7.10675 19.4989 7.30664 19.2988ZM11.3043 17.2982C11.2044 17.3982 11.1044 17.4983 11.1044 17.5983C11.1044 17.6397 11.0873 17.6812 11.0672 17.7297C11.0388 17.7984 11.0045 17.8812 11.0045 17.9984C11.0045 18.2985 11.1044 18.4986 11.3043 18.6986C11.4042 18.7987 11.5042 18.8987 11.6041 18.8987C11.6455 18.8987 11.6869 18.9159 11.7354 18.936C11.804 18.9644 11.8868 18.9987 12.0039 18.9987C12.3037 18.9987 12.5036 18.8987 12.7035 18.6986C12.9034 18.4986 13.0033 18.2985 13.0033 17.9984C13.0033 17.6983 12.9034 17.4983 12.7035 17.2982C12.3037 16.8981 11.7041 16.8981 11.3043 17.2982ZM11.3043 21.2995C11.6041 20.8993 12.3037 20.8993 12.7035 21.2995C12.8034 21.3995 12.9034 21.4995 12.9034 21.5996C13.0033 21.6996 13.0033 21.8997 13.0033 21.9997C13.0033 22.2998 12.9034 22.4998 12.7035 22.6999C12.6535 22.7499 12.6035 22.7749 12.5536 22.7999C12.5036 22.8249 12.4536 22.85 12.4037 22.9C12.3037 23 12.1038 23 12.0039 23C11.7041 23 11.5042 22.9 11.3043 22.6999C11.1044 22.4998 11.0045 22.2998 11.0045 21.9997C11.0045 21.8997 11.0045 21.6996 11.1044 21.5996C11.1044 21.4995 11.2044 21.3995 11.3043 21.2995ZM16.7012 15.2976C16.3014 14.8974 15.7017 14.8974 15.302 15.2976L15.302 15.2976C15.202 15.3976 15.1021 15.4976 15.1021 15.5977C15.1021 15.6477 15.0771 15.7227 15.0521 15.7977C15.0271 15.8728 15.0021 15.9478 15.0021 15.9978C15.0021 16.0978 15.0021 16.2979 15.1021 16.3979C15.1521 16.4479 15.177 16.498 15.202 16.548C15.227 16.598 15.252 16.648 15.302 16.698C15.5019 16.8981 15.7017 16.9981 16.0016 16.9981C16.3014 16.9981 16.5013 16.8981 16.7012 16.698C16.901 16.498 17.001 16.2979 17.001 15.9978C17.001 15.8978 17.001 15.6977 16.901 15.5977C16.901 15.4976 16.8011 15.3976 16.7012 15.2976ZM16.5013 19.1488C16.5263 19.1738 16.5512 19.1988 16.6012 19.1988C16.6012 19.1988 16.7012 19.1988 16.7012 19.2988C16.901 19.4989 17.001 19.699 17.001 19.9991C17.001 20.2991 16.901 20.4992 16.7012 20.6993C16.5013 20.8993 16.3014 20.9994 16.0016 20.9994C15.7017 20.9994 15.5019 20.8993 15.302 20.6993C15.1021 20.4992 15.0021 20.2991 15.0021 19.9991C15.0021 19.699 15.1021 19.4989 15.302 19.2988C15.5019 18.9987 15.9016 18.8987 16.2014 18.9987C16.2589 19.0563 16.2833 19.0807 16.3127 19.0911C16.3344 19.0988 16.3589 19.0988 16.4013 19.0988C16.4513 19.0988 16.4763 19.1238 16.5013 19.1488Z" fill="black"/>
<mask id="mask0" mask-type="alpha" maskUnits="userSpaceOnUse" x="0" y="1" width="24" height="22">
<path fill-rule="evenodd" clip-rule="evenodd" d="M23.5971 15.1975C22.9975 16.698 21.8981 17.8984 20.399 18.4986C20.2991 18.5986 20.0992 18.5986 19.9992 18.5986C19.5995 18.5986 19.1997 18.3986 19.0998 17.9984C18.8999 17.4983 19.0998 16.8981 19.5995 16.698C20.5989 16.2979 21.2985 15.4976 21.6982 14.4973C22.098 13.497 22.098 12.3967 21.5983 11.3963C20.9986 9.89587 19.5995 8.99559 18.0004 8.99559H16.7012C16.2014 8.99559 15.8017 8.69549 15.7017 8.19534C14.7023 4.49417 10.9045 2.19345 7.2067 3.19376C3.50885 4.19408 1.2102 7.99527 2.20961 11.6964C2.60938 13.1969 3.40891 14.4973 4.60821 15.3976C5.00798 15.6977 5.10792 16.3979 4.8081 16.798C4.50827 17.1982 3.80868 17.2982 3.40891 16.9981C1.90979 15.7977 0.810431 14.0972 0.310723 12.1966C-0.988519 7.39508 1.90979 2.49354 6.70699 1.29316C11.3043 0.0927849 15.9016 2.6936 17.4007 6.99496H18.0004C20.399 6.99496 22.4978 8.3954 23.4972 10.5961C24.0968 12.0966 24.1968 13.6971 23.5971 15.1975ZM8.70582 15.2976C8.30605 14.8974 7.7064 14.8974 7.30664 15.2976C7.2067 15.3976 7.10675 15.4976 7.10675 15.5977C7.00681 15.6977 7.00681 15.8978 7.00681 15.9978C7.00681 16.0978 7.00681 16.2979 7.10675 16.3979C7.15673 16.4479 7.18171 16.498 7.2067 16.548C7.23168 16.598 7.25667 16.648 7.30664 16.698C7.50652 16.8981 7.7064 16.9981 8.00623 16.9981C8.30605 16.9981 8.50594 16.8981 8.70582 16.698C8.80576 16.598 8.9057 16.498 8.9057 16.3979C9.00565 16.2979 9.00565 16.0978 9.00565 15.9978C9.00565 15.8978 9.00565 15.6977 8.9057 15.5977C8.9057 15.4976 8.80576 15.3976 8.70582 15.2976ZM7.30664 19.2988C7.40658 19.1988 7.50652 19.0988 7.60646 19.0988C8.00623 18.8987 8.406 18.9987 8.70582 19.2988C8.9057 19.4989 9.00565 19.699 9.00565 19.9991C9.00565 20.2991 8.9057 20.4992 8.70582 20.6993C8.50594 20.8993 8.30605 20.9994 8.00623 20.9994C7.7064 20.9994 7.50652 20.8993 7.30664 20.6993C7.10675 20.4992 7.00681 20.2991 7.00681 19.9991C7.00681 19.699 7.10675 19.4989 7.30664 19.2988ZM11.3043 17.2982C11.2044 17.3982 11.1044 17.4983 11.1044 17.5983C11.1044 17.6397 11.0873 17.6812 11.0672 17.7297C11.0388 17.7984 11.0045 17.8812 11.0045 17.9984C11.0045 18.2985 11.1044 18.4986 11.3043 18.6986C11.4042 18.7987 11.5042 18.8987 11.6041 18.8987C11.6455 18.8987 11.6869 18.9159 11.7354 18.936C11.804 18.9644 11.8868 18.9987 12.0039 18.9987C12.3037 18.9987 12.5036 18.8987 12.7035 18.6986C12.9034 18.4986 13.0033 18.2985 13.0033 17.9984C13.0033 17.6983 12.9034 17.4983 12.7035 17.2982C12.3037 16.8981 11.7041 16.8981 11.3043 17.2982ZM11.3043 21.2995C11.6041 20.8993 12.3037 20.8993 12.7035 21.2995C12.8034 21.3995 12.9034 21.4995 12.9034 21.5996C13.0033 21.6996 13.0033 21.8997 13.0033 21.9997C13.0033 22.2998 12.9034 22.4998 12.7035 22.6999C12.6535 22.7499 12.6035 22.7749 12.5536 22.7999C12.5036 22.8249 12.4536 22.85 12.4037 22.9C12.3037 23 12.1038 23 12.0039 23C11.7041 23 11.5042 22.9 11.3043 22.6999C11.1044 22.4998 11.0045 22.2998 11.0045 21.9997C11.0045 21.8997 11.0045 21.6996 11.1044 21.5996C11.1044 21.4995 11.2044 21.3995 11.3043 21.2995ZM16.7012 15.2976C16.3014 14.8974 15.7017 14.8974 15.302 15.2976L15.302 15.2976C15.202 15.3976 15.1021 15.4976 15.1021 15.5977C15.1021 15.6477 15.0771 15.7227 15.0521 15.7977C15.0271 15.8728 15.0021 15.9478 15.0021 15.9978C15.0021 16.0978 15.0021 16.2979 15.1021 16.3979C15.1521 16.4479 15.177 16.498 15.202 16.548C15.227 16.598 15.252 16.648 15.302 16.698C15.5019 16.8981 15.7017 16.9981 16.0016 16.9981C16.3014 16.9981 16.5013 16.8981 16.7012 16.698C16.901 16.498 17.001 16.2979 17.001 15.9978C17.001 15.8978 17.001 15.6977 16.901 15.5977C16.901 15.4976 16.8011 15.3976 16.7012 15.2976ZM16.5013 19.1488C16.5263 19.1738 16.5512 19.1988 16.6012 19.1988C16.6012 19.1988 16.7012 19.1988 16.7012 19.2988C16.901 19.4989 17.001 19.699 17.001 19.9991C17.001 20.2991 16.901 20.4992 16.7012 20.6993C16.5013 20.8993 16.3014 20.9994 16.0016 20.9994C15.7017 20.9994 15.5019 20.8993 15.302 20.6993C15.1021 20.4992 15.0021 20.2991 15.0021 19.9991C15.0021 19.699 15.1021 19.4989 15.302 19.2988C15.5019 18.9987 15.9016 18.8987 16.2014 18.9987C16.2589 19.0563 16.2833 19.0807 16.3127 19.0911C16.3344 19.0988 16.3589 19.0988 16.4013 19.0988C16.4513 19.0988 16.4763 19.1238 16.5013 19.1488Z" fill="white"/>
</mask>
<g mask="url(#mask0)">
<rect width="24" height="24" fill="#347AF0"/>
</g>
</svg>
