<svg width="24" height="24" viewBox="0 0 24 24" fill="none" xmlns="http://www.w3.org/2000/svg">
<path fill-rule="evenodd" clip-rule="evenodd" d="M7.3 5.3C7.7 4.9 8.3 4.9 8.7 5.3C9.1 5.7 9.1 6.3 8.7 6.7L3.4 12L8.7 17.3C9.1 17.7 9.1 18.3 8.7 18.7C8.5 18.9 8.3 19 8 19C7.7 19 7.5 18.9 7.3 18.7L1.3 12.7C0.9 12.3 0.9 11.7 1.3 11.3L7.3 5.3ZM16.7 18.7L22.7 12.7C23.1 12.3 23.1 11.7 22.7 11.3L16.7 5.3C16.3 4.9 15.7 4.9 15.3 5.3C14.9 5.7 14.9 6.3 15.3 6.7L20.6 12L15.3 17.3C14.9 17.7 14.9 18.3 15.3 18.7C15.5 18.9 15.7 19 16 19C16.3 19 16.5 18.9 16.7 18.7Z" fill="black"/>
<mask id="mask0" mask-type="alpha" maskUnits="userSpaceOnUse" x="1" y="5" width="22" height="14">
<path fill-rule="evenodd" clip-rule="evenodd" d="M7.3 5.3C7.7 4.9 8.3 4.9 8.7 5.3C9.1 5.7 9.1 6.3 8.7 6.7L3.4 12L8.7 17.3C9.1 17.7 9.1 18.3 8.7 18.7C8.5 18.9 8.3 19 8 19C7.7 19 7.5 18.9 7.3 18.7L1.3 12.7C0.9 12.3 0.9 11.7 1.3 11.3L7.3 5.3ZM16.7 18.7L22.7 12.7C23.1 12.3 23.1 11.7 22.7 11.3L16.7 5.3C16.3 4.9 15.7 4.9 15.3 5.3C14.9 5.7 14.9 6.3 15.3 6.7L20.6 12L15.3 17.3C14.9 17.7 14.9 18.3 15.3 18.7C15.5 18.9 15.7 19 16 19C16.3 19 16.5 18.9 16.7 18.7Z" fill="white"/>
</mask>
<g mask="url(#mask0)">
<rect width="24" height="24" fill="#347AF0"/>
</g>
</svg>
