<svg width="24" height="24" viewBox="0 0 24 24" fill="none" xmlns="http://www.w3.org/2000/svg">
<path fill-rule="evenodd" clip-rule="evenodd" d="M23 8.3V8.5V15.5V15.7C22.9634 15.7366 22.9402 15.7732 22.9108 15.8196C22.8598 15.9 22.7902 16.0098 22.6 16.2C22.5 16.2 22.4 16.3 22.3 16.4L12.3 22.9H12.2H12.1C12 23 11.9 23 11.8 23C11.75 23 11.7 22.975 11.65 22.95C11.6 22.925 11.55 22.9 11.5 22.9H11.4H11.3L1.3 16.4C1.2382 16.4 1.21459 16.3618 1.18197 16.309C1.1618 16.2764 1.1382 16.2382 1.1 16.2C1.1 16.15 1.075 16.1 1.05 16.05C1.025 16 1 15.95 1 15.9V15.8V15.6V8.6V8.4V8.3C1.0618 8.2382 1.08541 8.17639 1.11803 8.09098C1.1382 8.0382 1.1618 7.97639 1.2 7.9C1.3 7.8 1.4 7.7 1.6 7.7L11.6 1.2H11.7H11.8C12 1.1 12.3 1.1 12.5 1.2H12.6H12.7L22.7 7.7C22.7618 7.7 22.7854 7.7382 22.818 7.79098C22.8382 7.82361 22.8618 7.8618 22.9 7.9C22.9 7.95 22.925 8 22.95 8.05C22.975 8.1 23 8.15 23 8.2V8.3ZM5.3 12L3 10.4V13.6L5.3 12ZM12 14.3L8.7 12L12 9.7L15.3 12L12 14.3ZM13 3.8V8L17 10.8L20.2 8.5L13 3.8ZM11 8L7 10.8L3.8 8.5L11 3.8V8ZM11 16L7 13.2L3.8 15.4L11 20.1V16ZM13 16L17 13.2L20.2 15.4L13 20.2V16ZM21 10.4L18.7 12L21 13.6V10.4Z" fill="black"/>
<mask id="mask0" mask-type="alpha" maskUnits="userSpaceOnUse" x="1" y="1" width="22" height="22">
<path fill-rule="evenodd" clip-rule="evenodd" d="M23 8.3V8.5V15.5V15.7C22.9634 15.7366 22.9402 15.7732 22.9108 15.8196C22.8598 15.9 22.7902 16.0098 22.6 16.2C22.5 16.2 22.4 16.3 22.3 16.4L12.3 22.9H12.2H12.1C12 23 11.9 23 11.8 23C11.75 23 11.7 22.975 11.65 22.95C11.6 22.925 11.55 22.9 11.5 22.9H11.4H11.3L1.3 16.4C1.2382 16.4 1.21459 16.3618 1.18197 16.309C1.1618 16.2764 1.1382 16.2382 1.1 16.2C1.1 16.15 1.075 16.1 1.05 16.05C1.025 16 1 15.95 1 15.9V15.8V15.6V8.6V8.4V8.3C1.0618 8.2382 1.08541 8.17639 1.11803 8.09098C1.1382 8.0382 1.1618 7.97639 1.2 7.9C1.3 7.8 1.4 7.7 1.6 7.7L11.6 1.2H11.7H11.8C12 1.1 12.3 1.1 12.5 1.2H12.6H12.7L22.7 7.7C22.7618 7.7 22.7854 7.7382 22.818 7.79098C22.8382 7.82361 22.8618 7.8618 22.9 7.9C22.9 7.95 22.925 8 22.95 8.05C22.975 8.1 23 8.15 23 8.2V8.3ZM5.3 12L3 10.4V13.6L5.3 12ZM12 14.3L8.7 12L12 9.7L15.3 12L12 14.3ZM13 3.8V8L17 10.8L20.2 8.5L13 3.8ZM11 8L7 10.8L3.8 8.5L11 3.8V8ZM11 16L7 13.2L3.8 15.4L11 20.1V16ZM13 16L17 13.2L20.2 15.4L13 20.2V16ZM21 10.4L18.7 12L21 13.6V10.4Z" fill="white"/>
</mask>
<g mask="url(#mask0)">
<rect width="24" height="24" fill="#347AF0"/>
</g>
</svg>
