<svg width="24" height="24" viewBox="0 0 24 24" fill="none" xmlns="http://www.w3.org/2000/svg">
<path fill-rule="evenodd" clip-rule="evenodd" d="M16 14H18C20.2 14 22 15.8 22 18C22 20.2 20.2 22 18 22C15.8 22 14 20.2 14 18V16H10V18C10 20.2 8.2 22 6 22C3.8 22 2 20.2 2 18C2 15.8 3.8 14 6 14H8V10H6C3.8 10 2 8.2 2 6C2 3.8 3.8 2 6 2C8.2 2 10 3.8 10 6V8H14V6C14 3.8 15.8 2 18 2C20.2 2 22 3.8 22 6C22 8.2 20.2 10 18 10H16V14ZM18 4C16.9 4 16 4.9 16 6V8H18C19.1 8 20 7.1 20 6C20 4.9 19.1 4 18 4ZM8 18C8 19.1 7.1 20 6 20C4.9 20 4 19.1 4 18C4 16.9 4.9 16 6 16H8V18ZM6 8H8V6C8 4.9 7.1 4 6 4C4.9 4 4 4.9 4 6C4 7.1 4.9 8 6 8ZM14 14H10V10H14V14ZM16 18C16 19.1 16.9 20 18 20C19.1 20 20 19.1 20 18C20 16.9 19.1 16 18 16H16V18Z" fill="black"/>
<mask id="mask0" mask-type="alpha" maskUnits="userSpaceOnUse" x="2" y="2" width="20" height="20">
<path fill-rule="evenodd" clip-rule="evenodd" d="M16 14H18C20.2 14 22 15.8 22 18C22 20.2 20.2 22 18 22C15.8 22 14 20.2 14 18V16H10V18C10 20.2 8.2 22 6 22C3.8 22 2 20.2 2 18C2 15.8 3.8 14 6 14H8V10H6C3.8 10 2 8.2 2 6C2 3.8 3.8 2 6 2C8.2 2 10 3.8 10 6V8H14V6C14 3.8 15.8 2 18 2C20.2 2 22 3.8 22 6C22 8.2 20.2 10 18 10H16V14ZM18 4C16.9 4 16 4.9 16 6V8H18C19.1 8 20 7.1 20 6C20 4.9 19.1 4 18 4ZM8 18C8 19.1 7.1 20 6 20C4.9 20 4 19.1 4 18C4 16.9 4.9 16 6 16H8V18ZM6 8H8V6C8 4.9 7.1 4 6 4C4.9 4 4 4.9 4 6C4 7.1 4.9 8 6 8ZM14 14H10V10H14V14ZM16 18C16 19.1 16.9 20 18 20C19.1 20 20 19.1 20 18C20 16.9 19.1 16 18 16H16V18Z" fill="white"/>
</mask>
<g mask="url(#mask0)">
<rect width="24" height="24" fill="#347AF0"/>
</g>
</svg>
