<svg width="24" height="24" viewBox="0 0 24 24" fill="none" xmlns="http://www.w3.org/2000/svg">
<path fill-rule="evenodd" clip-rule="evenodd" d="M1 12C1 5.9 5.9 1 12 1C18.1 1 23 5.9 23 12C23 18.1 18.1 23 12 23C5.9 23 1 18.1 1 12ZM3 12C3 17 7 21 12 21C17 21 21 17 21 12C21 7 17 3 12 3C7 3 3 7 3 12ZM15.9 6.8L9.6 8.9C9.3 9 9 9.3 8.9 9.6L6.8 16C6.7 16.4 6.8 16.8 7 17C7.2 17.2 7.4 17.3 7.7 17.3C7.8 17.3 7.9 17.3 8 17.2L14.4 15.1C14.7 15 14.9 14.8 15 14.5L17.1 8.1C17.2 7.7 17.1 7.3 16.9 7.1C16.7 6.8 16.3 6.7 15.9 6.8ZM9.3 14.6L13.3 13.3L14.6 9.3L10.6 10.6L9.3 14.6Z" fill="black"/>
<mask id="mask0" mask-type="alpha" maskUnits="userSpaceOnUse" x="1" y="1" width="22" height="22">
<path fill-rule="evenodd" clip-rule="evenodd" d="M1 12C1 5.9 5.9 1 12 1C18.1 1 23 5.9 23 12C23 18.1 18.1 23 12 23C5.9 23 1 18.1 1 12ZM3 12C3 17 7 21 12 21C17 21 21 17 21 12C21 7 17 3 12 3C7 3 3 7 3 12ZM15.9 6.8L9.6 8.9C9.3 9 9 9.3 8.9 9.6L6.8 16C6.7 16.4 6.8 16.8 7 17C7.2 17.2 7.4 17.3 7.7 17.3C7.8 17.3 7.9 17.3 8 17.2L14.4 15.1C14.7 15 14.9 14.8 15 14.5L17.1 8.1C17.2 7.7 17.1 7.3 16.9 7.1C16.7 6.8 16.3 6.7 15.9 6.8ZM9.3 14.6L13.3 13.3L14.6 9.3L10.6 10.6L9.3 14.6Z" fill="white"/>
</mask>
<g mask="url(#mask0)">
<rect width="24" height="24" fill="#347AF0"/>
</g>
</svg>
