<svg width="24" height="24" viewBox="0 0 24 24" fill="none" xmlns="http://www.w3.org/2000/svg">
<path d="M21 19.975C21 20.575 20.6 20.975 20 20.975H13C10.2 20.975 8 18.775 8 15.975V6.375L4.7 9.675C4.3 10.075 3.7 10.075 3.3 9.675C2.9 9.275 2.9 8.675 3.3 8.275L8.3 3.275C8.4 3.175 8.5 3.075 8.6 3.075C8.9 2.975 9.1 2.975 9.4 3.075C9.5 3.175 9.6 3.175 9.7 3.275L14.7 8.275C15.1 8.675 15.1 9.275 14.7 9.675C14.5 9.875 14.3 9.975 14 9.975C13.7 9.975 13.5 9.875 13.3 9.675L10 6.375V15.975C10 17.675 11.3 18.975 13 18.975H20C20.6 18.975 21 19.375 21 19.975Z" fill="black"/>
<mask id="mask0" mask-type="alpha" maskUnits="userSpaceOnUse" x="3" y="3" width="18" height="18">
<path d="M21 19.975C21 20.575 20.6 20.975 20 20.975H13C10.2 20.975 8 18.775 8 15.975V6.375L4.7 9.675C4.3 10.075 3.7 10.075 3.3 9.675C2.9 9.275 2.9 8.675 3.3 8.275L8.3 3.275C8.4 3.175 8.5 3.075 8.6 3.075C8.9 2.975 9.1 2.975 9.4 3.075C9.5 3.175 9.6 3.175 9.7 3.275L14.7 8.275C15.1 8.675 15.1 9.275 14.7 9.675C14.5 9.875 14.3 9.975 14 9.975C13.7 9.975 13.5 9.875 13.3 9.675L10 6.375V15.975C10 17.675 11.3 18.975 13 18.975H20C20.6 18.975 21 19.375 21 19.975Z" fill="white"/>
</mask>
<g mask="url(#mask0)">
<rect width="24" height="24" fill="#347AF0"/>
</g>
</svg>
