<svg width="24" height="24" viewBox="0 0 24 24" fill="none" xmlns="http://www.w3.org/2000/svg">
<path d="M20.975 13V20C20.975 20.6 20.575 21 19.975 21C19.375 21 18.975 20.6 18.975 20V13C18.975 11.3 17.675 10 15.975 10H6.375L9.675 13.3C10.075 13.7 10.075 14.3 9.675 14.7C9.475 14.9 9.275 15 8.975 15C8.675 15 8.475 14.9 8.275 14.7L3.275 9.7C3.175 9.6 3.075 9.5 3.075 9.4C2.975 9.1 2.975 8.9 3.075 8.6C3.175 8.5 3.175 8.4 3.275 8.3L8.275 3.3C8.675 2.9 9.275 2.9 9.675 3.3C10.075 3.7 10.075 4.3 9.675 4.7L6.375 8H15.975C18.775 8 20.975 10.2 20.975 13Z" fill="black"/>
<mask id="mask0" mask-type="alpha" maskUnits="userSpaceOnUse" x="3" y="3" width="18" height="18">
<path d="M20.975 13V20C20.975 20.6 20.575 21 19.975 21C19.375 21 18.975 20.6 18.975 20V13C18.975 11.3 17.675 10 15.975 10H6.375L9.675 13.3C10.075 13.7 10.075 14.3 9.675 14.7C9.475 14.9 9.275 15 8.975 15C8.675 15 8.475 14.9 8.275 14.7L3.275 9.7C3.175 9.6 3.075 9.5 3.075 9.4C2.975 9.1 2.975 8.9 3.075 8.6C3.175 8.5 3.175 8.4 3.275 8.3L8.275 3.3C8.675 2.9 9.275 2.9 9.675 3.3C10.075 3.7 10.075 4.3 9.675 4.7L6.375 8H15.975C18.775 8 20.975 10.2 20.975 13Z" fill="white"/>
</mask>
<g mask="url(#mask0)">
<rect width="24" height="24" fill="#347AF0"/>
</g>
</svg>
