<svg width="24" height="24" viewBox="0 0 24 24" fill="none" xmlns="http://www.w3.org/2000/svg">
<path d="M20.7 15.7L15.7 20.7C15.6 20.8 15.5 20.9 15.4 20.9C15.3 21 15.1 21 15 21C14.9 21 14.7 21 14.6 20.9C14.5 20.8 14.4 20.8 14.3 20.7L9.3 15.7C8.9 15.3 8.9 14.7 9.3 14.3C9.7 13.9 10.3 13.9 10.7 14.3L14 17.6V8C14 6.3 12.7 5 11 5H4C3.4 5 3 4.6 3 4C3 3.4 3.4 3 4 3H11C13.8 3 16 5.2 16 8V17.6L19.3 14.3C19.7 13.9 20.3 13.9 20.7 14.3C21.1 14.7 21.1 15.3 20.7 15.7Z" fill="black"/>
<mask id="mask0" mask-type="alpha" maskUnits="userSpaceOnUse" x="3" y="3" width="18" height="18">
<path d="M20.7 15.7L15.7 20.7C15.6 20.8 15.5 20.9 15.4 20.9C15.3 21 15.1 21 15 21C14.9 21 14.7 21 14.6 20.9C14.5 20.8 14.4 20.8 14.3 20.7L9.3 15.7C8.9 15.3 8.9 14.7 9.3 14.3C9.7 13.9 10.3 13.9 10.7 14.3L14 17.6V8C14 6.3 12.7 5 11 5H4C3.4 5 3 4.6 3 4C3 3.4 3.4 3 4 3H11C13.8 3 16 5.2 16 8V17.6L19.3 14.3C19.7 13.9 20.3 13.9 20.7 14.3C21.1 14.7 21.1 15.3 20.7 15.7Z" fill="white"/>
</mask>
<g mask="url(#mask0)">
<rect width="24" height="24" fill="#347AF0"/>
</g>
</svg>
