<svg width="24" height="24" viewBox="0 0 24 24" fill="none" xmlns="http://www.w3.org/2000/svg">
<path d="M20.7 9.675C20.5 9.875 20.3 9.975 20 9.975C19.7 9.975 19.5 9.875 19.3 9.675L16 6.375V15.975C16 18.775 13.8 20.975 11 20.975H4C3.4 20.975 3 20.575 3 19.975C3 19.375 3.4 18.975 4 18.975H11C12.7 18.975 14 17.675 14 15.975V6.375L10.7 9.675C10.3 10.075 9.7 10.075 9.3 9.675C8.9 9.275 8.9 8.675 9.3 8.275L14.3 3.275C14.4 3.175 14.5 3.075 14.6 3.075C14.8 2.975 15.1 2.975 15.4 3.075C15.5 3.175 15.6 3.175 15.7 3.275L20.7 8.275C21.1 8.675 21.1 9.275 20.7 9.675Z" fill="black"/>
<mask id="mask0" mask-type="alpha" maskUnits="userSpaceOnUse" x="3" y="3" width="18" height="18">
<path d="M20.7 9.675C20.5 9.875 20.3 9.975 20 9.975C19.7 9.975 19.5 9.875 19.3 9.675L16 6.375V15.975C16 18.775 13.8 20.975 11 20.975H4C3.4 20.975 3 20.575 3 19.975C3 19.375 3.4 18.975 4 18.975H11C12.7 18.975 14 17.675 14 15.975V6.375L10.7 9.675C10.3 10.075 9.7 10.075 9.3 9.675C8.9 9.275 8.9 8.675 9.3 8.275L14.3 3.275C14.4 3.175 14.5 3.075 14.6 3.075C14.8 2.975 15.1 2.975 15.4 3.075C15.5 3.175 15.6 3.175 15.7 3.275L20.7 8.275C21.1 8.675 21.1 9.275 20.7 9.675Z" fill="white"/>
</mask>
<g mask="url(#mask0)">
<rect width="24" height="24" fill="#347AF0"/>
</g>
</svg>
