<svg width="24" height="24" viewBox="0 0 24 24" fill="none" xmlns="http://www.w3.org/2000/svg">
<path d="M20.7 9.7L15.7 14.7C15.5 14.9 15.3 15 15 15C14.7 15 14.5 14.9 14.3 14.7C13.9 14.3 13.9 13.7 14.3 13.3L17.6 10H8C6.3 10 5 11.3 5 13V20C5 20.6 4.6 21 4 21C3.4 21 3 20.6 3 20V13C3 10.2 5.2 8 8 8H17.6L14.3 4.7C13.9 4.3 13.9 3.7 14.3 3.3C14.7 2.9 15.3 2.9 15.7 3.3L20.7 8.3C20.8 8.4 20.9 8.5 20.9 8.6C21 8.8 21 9.1 20.9 9.4C20.9 9.5 20.8 9.6 20.7 9.7Z" fill="black"/>
<mask id="mask0" mask-type="alpha" maskUnits="userSpaceOnUse" x="3" y="3" width="18" height="18">
<path d="M20.7 9.7L15.7 14.7C15.5 14.9 15.3 15 15 15C14.7 15 14.5 14.9 14.3 14.7C13.9 14.3 13.9 13.7 14.3 13.3L17.6 10H8C6.3 10 5 11.3 5 13V20C5 20.6 4.6 21 4 21C3.4 21 3 20.6 3 20V13C3 10.2 5.2 8 8 8H17.6L14.3 4.7C13.9 4.3 13.9 3.7 14.3 3.3C14.7 2.9 15.3 2.9 15.7 3.3L20.7 8.3C20.8 8.4 20.9 8.5 20.9 8.6C21 8.8 21 9.1 20.9 9.4C20.9 9.5 20.8 9.6 20.7 9.7Z" fill="white"/>
</mask>
<g mask="url(#mask0)">
<rect width="24" height="24" fill="#347AF0"/>
</g>
</svg>
