<svg width="24" height="24" viewBox="0 0 24 24" fill="none" xmlns="http://www.w3.org/2000/svg">
<path d="M21 4V11C21 13.8 18.7969 16 15.993 16H6.37969L9.68428 19.3C10.0848 19.7 10.0848 20.3 9.68428 20.7C9.48401 20.9 9.28373 21 8.98331 21C8.68289 21 8.48261 20.9 8.28234 20.7L3.27538 15.7C3.17524 15.6 3.0751 15.5 3.0751 15.4C2.97497 15.2 2.97497 14.9 3.0751 14.6C3.17524 14.5 3.17524 14.4 3.27538 14.3L8.28234 9.3C8.68289 8.9 9.28373 8.9 9.68428 9.3C10.0848 9.7 10.0848 10.3 9.68428 10.7L6.37969 14H15.993C17.6954 14 18.9972 12.7 18.9972 11V4C18.9972 3.4 19.3978 3 19.9986 3C20.5994 3 21 3.4 21 4Z" fill="black"/>
<mask id="mask0" mask-type="alpha" maskUnits="userSpaceOnUse" x="3" y="3" width="18" height="18">
<path d="M21 4V11C21 13.8 18.7969 16 15.993 16H6.37969L9.68428 19.3C10.0848 19.7 10.0848 20.3 9.68428 20.7C9.48401 20.9 9.28373 21 8.98331 21C8.68289 21 8.48261 20.9 8.28234 20.7L3.27538 15.7C3.17524 15.6 3.0751 15.5 3.0751 15.4C2.97497 15.2 2.97497 14.9 3.0751 14.6C3.17524 14.5 3.17524 14.4 3.27538 14.3L8.28234 9.3C8.68289 8.9 9.28373 8.9 9.68428 9.3C10.0848 9.7 10.0848 10.3 9.68428 10.7L6.37969 14H15.993C17.6954 14 18.9972 12.7 18.9972 11V4C18.9972 3.4 19.3978 3 19.9986 3C20.5994 3 21 3.4 21 4Z" fill="white"/>
</mask>
<g mask="url(#mask0)">
<rect width="24" height="24" fill="#347AF0"/>
</g>
</svg>
