<svg width="24" height="24" viewBox="0 0 24 24" fill="none" xmlns="http://www.w3.org/2000/svg">
<path d="M20.7 15.7L15.7 20.7C15.5 20.9 15.3 21 15 21C14.7 21 14.5 20.9 14.3 20.7C13.9 20.3 13.9 19.7 14.3 19.3L17.6 16H8C5.2 16 3 13.8 3 11V4C3 3.4 3.4 3 4 3C4.6 3 5 3.4 5 4V11C5 12.7 6.3 14 8 14H17.6L14.3 10.7C13.9 10.3 13.9 9.7 14.3 9.3C14.7 8.9 15.3 8.9 15.7 9.3L20.7 14.3C20.8 14.4 20.9 14.5 20.9 14.6C21 14.8 21 15.1 20.9 15.4C20.9 15.5 20.8 15.6 20.7 15.7Z" fill="black"/>
<mask id="mask0" mask-type="alpha" maskUnits="userSpaceOnUse" x="3" y="3" width="18" height="18">
<path d="M20.7 15.7L15.7 20.7C15.5 20.9 15.3 21 15 21C14.7 21 14.5 20.9 14.3 20.7C13.9 20.3 13.9 19.7 14.3 19.3L17.6 16H8C5.2 16 3 13.8 3 11V4C3 3.4 3.4 3 4 3C4.6 3 5 3.4 5 4V11C5 12.7 6.3 14 8 14H17.6L14.3 10.7C13.9 10.3 13.9 9.7 14.3 9.3C14.7 8.9 15.3 8.9 15.7 9.3L20.7 14.3C20.8 14.4 20.9 14.5 20.9 14.6C21 14.8 21 15.1 20.9 15.4C20.9 15.5 20.8 15.6 20.7 15.7Z" fill="white"/>
</mask>
<g mask="url(#mask0)">
<rect width="24" height="24" fill="#347AF0"/>
</g>
</svg>
