<svg width="24" height="24" viewBox="0 0 24 24" fill="none" xmlns="http://www.w3.org/2000/svg">
<path d="M21 4C21 4.6 20.6 5 20 5H13C11.3 5 10 6.3 10 8V17.6L13.3 14.3C13.7 13.9 14.3 13.9 14.7 14.3C15.1 14.7 15.1 15.3 14.7 15.7L9.7 20.7C9.6 20.8 9.5 20.9 9.4 20.9C9.3 21 9.1 21 9 21C8.9 21 8.7 21 8.6 20.9C8.5 20.8 8.4 20.8 8.3 20.7L3.3 15.7C2.9 15.3 2.9 14.7 3.3 14.3C3.7 13.9 4.3 13.9 4.7 14.3L8 17.6V8C8 5.2 10.2 3 13 3H20C20.6 3 21 3.4 21 4Z" fill="black"/>
<mask id="mask0" mask-type="alpha" maskUnits="userSpaceOnUse" x="3" y="3" width="18" height="18">
<path d="M21 4C21 4.6 20.6 5 20 5H13C11.3 5 10 6.3 10 8V17.6L13.3 14.3C13.7 13.9 14.3 13.9 14.7 14.3C15.1 14.7 15.1 15.3 14.7 15.7L9.7 20.7C9.6 20.8 9.5 20.9 9.4 20.9C9.3 21 9.1 21 9 21C8.9 21 8.7 21 8.6 20.9C8.5 20.8 8.4 20.8 8.3 20.7L3.3 15.7C2.9 15.3 2.9 14.7 3.3 14.3C3.7 13.9 4.3 13.9 4.7 14.3L8 17.6V8C8 5.2 10.2 3 13 3H20C20.6 3 21 3.4 21 4Z" fill="white"/>
</mask>
<g mask="url(#mask0)">
<rect width="24" height="24" fill="#347AF0"/>
</g>
</svg>
