<svg width="24" height="24" viewBox="0 0 24 24" fill="none" xmlns="http://www.w3.org/2000/svg">
<path fill-rule="evenodd" clip-rule="evenodd" d="M1 12C1 5.9 5.9 1 12 1C18.1 1 23 5.9 23 12C23 18.1 18.1 23 12 23C5.9 23 1 18.1 1 12ZM13 18V20.9C17.2 20.5 20.5 17.2 20.9 13H18C17.4 13 17 12.6 17 12C17 11.4 17.4 11 18 11H20.9C20.5 6.9 17.2 3.6 13 3.1V6C13 6.6 12.6 7 12 7C11.4 7 11 6.6 11 6V3.1C6.8 3.5 3.5 6.8 3.1 11H6C6.6 11 7 11.4 7 12C7 12.6 6.6 13 6 13H3.1C3.5 17.1 6.8 20.4 11 20.9V18C11 17.4 11.4 17 12 17C12.6 17 13 17.4 13 18Z" fill="black"/>
<mask id="mask0" mask-type="alpha" maskUnits="userSpaceOnUse" x="1" y="1" width="22" height="22">
<path fill-rule="evenodd" clip-rule="evenodd" d="M1 12C1 5.9 5.9 1 12 1C18.1 1 23 5.9 23 12C23 18.1 18.1 23 12 23C5.9 23 1 18.1 1 12ZM13 18V20.9C17.2 20.5 20.5 17.2 20.9 13H18C17.4 13 17 12.6 17 12C17 11.4 17.4 11 18 11H20.9C20.5 6.9 17.2 3.6 13 3.1V6C13 6.6 12.6 7 12 7C11.4 7 11 6.6 11 6V3.1C6.8 3.5 3.5 6.8 3.1 11H6C6.6 11 7 11.4 7 12C7 12.6 6.6 13 6 13H3.1C3.5 17.1 6.8 20.4 11 20.9V18C11 17.4 11.4 17 12 17C12.6 17 13 17.4 13 18Z" fill="white"/>
</mask>
<g mask="url(#mask0)">
<rect width="24" height="24" fill="#347AF0"/>
</g>
</svg>
