<svg width="24" height="24" viewBox="0 0 24 24" fill="none" xmlns="http://www.w3.org/2000/svg">
<path fill-rule="evenodd" clip-rule="evenodd" d="M5.37886 8.46713C5.32248 8.59589 5.26507 8.72701 5.20601 8.86178L5.36473 8.86101H17.9148C17.9266 8.86101 17.9385 8.86097 17.9503 8.86094C18.0077 8.86076 18.0652 8.86058 18.1224 8.86456C18.5636 8.89565 18.8796 9.16204 18.9553 9.57467C18.9994 9.81496 18.9552 10.0486 18.8587 10.2693C18.6747 10.69 18.4931 11.1117 18.3115 11.5334C17.8564 12.5904 17.4013 13.6473 16.9084 14.6864C16.4862 15.5766 15.7424 16.0927 14.7148 16.0935C11.3128 16.0942 7.91076 16.0945 4.50866 16.0945C4.32583 16.0945 4.14299 16.0946 3.96015 16.0946C3.36173 16.0948 2.76326 16.095 2.1648 16.0932C2.07699 16.0929 2.02172 16.111 1.98247 16.2017C1.70823 16.8346 1.4314 17.4665 1.15456 18.0983C1.04702 18.3438 0.939475 18.5893 0.832083 18.8348C0.822558 18.8565 0.816184 18.8797 0.808682 18.9069C0.804772 18.9211 0.800555 18.9364 0.795426 18.9532H0.946277C5.98509 18.9556 11.0239 18.9544 16.0627 18.9498C16.3325 18.9496 16.6103 18.933 16.8705 18.8684C18.77 18.3961 20.1699 17.2874 20.9834 15.5018C21.56 14.2363 22.1148 12.9609 22.6697 11.6854C22.9284 11.0907 23.187 10.4961 23.4479 9.90238C23.4639 9.86609 23.4798 9.82983 23.4958 9.79356C23.7228 9.27869 23.9495 8.7646 23.9853 8.1888C24.0345 7.41007 23.7353 6.61982 22.9213 6.23732C22.575 6.07457 22.2073 6.00481 21.8291 6.00481C16.7507 6.00449 11.6724 6.00305 6.594 6.00049C6.49574 6.00049 6.44603 6.02745 6.40582 6.12111C6.23592 6.51797 6.06199 6.9126 5.888 7.30738C5.81701 7.46845 5.74601 7.62956 5.67527 7.79084C5.57738 8.01371 5.47977 8.23665 5.37886 8.46713ZM0.133046 13.7451C0.0894369 13.8456 0.0452204 13.9476 0 14.0517C0.0255365 14.0532 0.0484847 14.055 0.069755 14.0566C0.109231 14.0597 0.142928 14.0622 0.176665 14.0624C3.25716 14.0616 6.33753 14.0624 9.41777 14.065C9.53139 14.0651 9.59184 14.0338 9.63982 13.9233C9.90407 13.312 10.1723 12.7028 10.4406 12.0935C10.5522 11.8398 10.6639 11.5862 10.7753 11.3323C10.8174 11.2368 10.8578 11.1406 10.8996 11.0407C10.9186 10.9956 10.9378 10.9497 10.9577 10.9028C10.9371 10.9018 10.919 10.9008 10.9024 10.8999C10.8716 10.8982 10.8464 10.8967 10.8214 10.8967C7.72133 10.8979 4.62132 10.8969 1.52138 10.8938C1.41505 10.8937 1.36534 10.9289 1.32427 11.0237C1.12332 11.4872 0.919743 11.9498 0.716233 12.4122C0.611469 12.6502 0.506724 12.8882 0.402367 13.1263C0.312835 13.3304 0.22427 13.5346 0.133046 13.7451Z" fill="#0D1F3C"/>
</svg>
