<svg width="24" height="24" viewBox="0 0 24 24" fill="none" xmlns="http://www.w3.org/2000/svg">
<path fill-rule="evenodd" clip-rule="evenodd" d="M2 5C2 2.3 7.2 1 12 1C16.8 1 22 2.3 22 5V19C22 21.7 16.8 23 12 23C7.2 23 2 21.7 2 19V5ZM12 14C17.5 14 20 12.5 20 12V7.5C18.1 8.5 15 9 12 9C9 9 5.9 8.5 4 7.5V12C4 12.5 6.5 14 12 14ZM12 3C17.2 3 20 4.5 20 5C20 5.5 17.2 7 12 7C6.8 7 4 5.5 4 5C4 4.5 6.8 3 12 3ZM4 19C4 19.5 6.5 21 12 21C17.5 21 20 19.5 20 19V14.5C18.1 15.5 15 16 12 16C9 16 5.9 15.5 4 14.5V19Z" fill="black"/>
<mask id="mask0" mask-type="alpha" maskUnits="userSpaceOnUse" x="2" y="1" width="20" height="22">
<path fill-rule="evenodd" clip-rule="evenodd" d="M2 5C2 2.3 7.2 1 12 1C16.8 1 22 2.3 22 5V19C22 21.7 16.8 23 12 23C7.2 23 2 21.7 2 19V5ZM12 14C17.5 14 20 12.5 20 12V7.5C18.1 8.5 15 9 12 9C9 9 5.9 8.5 4 7.5V12C4 12.5 6.5 14 12 14ZM12 3C17.2 3 20 4.5 20 5C20 5.5 17.2 7 12 7C6.8 7 4 5.5 4 5C4 4.5 6.8 3 12 3ZM4 19C4 19.5 6.5 21 12 21C17.5 21 20 19.5 20 19V14.5C18.1 15.5 15 16 12 16C9 16 5.9 15.5 4 14.5V19Z" fill="white"/>
</mask>
<g mask="url(#mask0)">
<rect width="24" height="24" fill="#347AF0"/>
</g>
</svg>
