<svg width="24" height="24" viewBox="0 0 24 24" fill="none" xmlns="http://www.w3.org/2000/svg">
<path fill-rule="evenodd" clip-rule="evenodd" d="M21.0031 3H8.01665C7.71696 3 7.41727 3.1 7.21748 3.3L0.224766 11.3C-0.074922 11.7 -0.074922 12.2 0.224766 12.6L7.21748 20.6C7.41727 20.9 7.71696 21 8.01665 21H21.0031C22.7014 21 24 19.7 24 18V6C24 4.3 22.7014 3 21.0031 3ZM22.0021 18C22.0021 18.6 21.6025 19 21.0031 19H8.51613L2.42248 12L8.51613 5H21.0031C21.6025 5 22.0021 5.4 22.0021 6V18ZM16.4079 12L18.7055 9.7C19.1051 9.3 19.1051 8.7 18.7055 8.3C18.3059 7.9 17.7066 7.9 17.307 8.3L15.0094 10.6L12.7118 8.3C12.3122 7.9 11.7128 7.9 11.3132 8.3C10.9136 8.7 10.9136 9.3 11.3132 9.7L13.6108 12L11.3132 14.3C10.9136 14.7 10.9136 15.3 11.3132 15.7C11.513 15.9 11.7128 16 12.0125 16C12.3122 16 12.512 15.9 12.7118 15.7L15.0094 13.4L17.307 15.7C17.5068 15.9 17.7066 16 18.0062 16C18.3059 16 18.5057 15.9 18.7055 15.7C19.1051 15.3 19.1051 14.7 18.7055 14.3L16.4079 12Z" fill="black"/>
<mask id="mask0" mask-type="alpha" maskUnits="userSpaceOnUse" x="0" y="3" width="24" height="18">
<path fill-rule="evenodd" clip-rule="evenodd" d="M21.0031 3H8.01665C7.71696 3 7.41727 3.1 7.21748 3.3L0.224766 11.3C-0.074922 11.7 -0.074922 12.2 0.224766 12.6L7.21748 20.6C7.41727 20.9 7.71696 21 8.01665 21H21.0031C22.7014 21 24 19.7 24 18V6C24 4.3 22.7014 3 21.0031 3ZM22.0021 18C22.0021 18.6 21.6025 19 21.0031 19H8.51613L2.42248 12L8.51613 5H21.0031C21.6025 5 22.0021 5.4 22.0021 6V18ZM16.4079 12L18.7055 9.7C19.1051 9.3 19.1051 8.7 18.7055 8.3C18.3059 7.9 17.7066 7.9 17.307 8.3L15.0094 10.6L12.7118 8.3C12.3122 7.9 11.7128 7.9 11.3132 8.3C10.9136 8.7 10.9136 9.3 11.3132 9.7L13.6108 12L11.3132 14.3C10.9136 14.7 10.9136 15.3 11.3132 15.7C11.513 15.9 11.7128 16 12.0125 16C12.3122 16 12.512 15.9 12.7118 15.7L15.0094 13.4L17.307 15.7C17.5068 15.9 17.7066 16 18.0062 16C18.3059 16 18.5057 15.9 18.7055 15.7C19.1051 15.3 19.1051 14.7 18.7055 14.3L16.4079 12Z" fill="white"/>
</mask>
<g mask="url(#mask0)">
<rect width="24" height="24" fill="#347AF0"/>
</g>
</svg>
