<svg width="24" height="24" viewBox="0 0 24 24" fill="none" xmlns="http://www.w3.org/2000/svg">
<path fill-rule="evenodd" clip-rule="evenodd" d="M17.8866 8.00006C19.8657 8.00006 21.6468 9.00006 22.7353 10.5001C23.6259 11.9001 24.2196 13.4001 23.9228 15.0001C23.6259 16.6001 22.7353 18.0001 21.4489 18.9001C21.251 19.0001 21.0531 19.1001 20.8552 19.1001C20.5583 19.1001 20.2615 19.0001 20.0636 18.7001C19.6678 18.2001 19.7667 17.6001 20.2615 17.3001C21.0531 16.7001 21.6468 15.8001 21.8447 14.7001C22.0427 13.6001 21.7458 12.6001 21.1521 11.7001C20.3604 10.6001 19.173 10.0001 17.8866 10.0001H16.6991C16.2044 10.0001 15.8086 9.60006 15.7096 9.20006C14.819 5.50006 10.9598 3.20006 7.29851 4.20006C5.51734 4.60006 4.03303 5.80006 3.04349 7.40006C2.05395 9.00006 1.75708 10.9001 2.25185 12.7001C2.44976 13.8001 3.04349 14.8001 3.73616 15.6001C4.13198 16.0001 4.03303 16.6001 3.63721 17.0001C3.24139 17.4001 2.64767 17.3001 2.25185 16.9001C1.26232 15.9001 0.668591 14.6001 0.272775 13.2001C-0.320949 10.9001 0.0748672 8.50006 1.26232 6.40006C2.54872 4.30006 4.42884 2.90006 6.80374 2.30006C11.2567 1.10006 15.9075 3.60006 17.3918 8.00006H17.8866ZM12.642 21.7001L16.6002 17.7001C16.996 17.3001 16.996 16.7001 16.6002 16.3001C16.2044 15.9001 15.6106 15.9001 15.2148 16.3001L12.9389 18.6001V12.0001C12.9389 11.4001 12.5431 11.0001 11.9493 11.0001C11.3556 11.0001 10.9598 11.4001 10.9598 12.0001V18.6001L8.68386 16.3001C8.28805 15.9001 7.69432 15.9001 7.29851 16.3001C6.90269 16.7001 6.90269 17.3001 7.29851 17.7001L11.2567 21.7001C11.3061 21.7501 11.3556 21.7751 11.4051 21.8001C11.4546 21.8251 11.5041 21.8501 11.5535 21.9001C11.6525 22.0001 11.8504 22.0001 11.9493 22.0001C12.0483 22.0001 12.2462 22.0001 12.3452 21.9001C12.4441 21.9001 12.5431 21.8001 12.642 21.7001Z" fill="black"/>
<mask id="mask0" mask-type="alpha" maskUnits="userSpaceOnUse" x="0" y="2" width="24" height="20">
<path fill-rule="evenodd" clip-rule="evenodd" d="M17.8866 8.00006C19.8657 8.00006 21.6468 9.00006 22.7353 10.5001C23.6259 11.9001 24.2196 13.4001 23.9228 15.0001C23.6259 16.6001 22.7353 18.0001 21.4489 18.9001C21.251 19.0001 21.0531 19.1001 20.8552 19.1001C20.5583 19.1001 20.2615 19.0001 20.0636 18.7001C19.6678 18.2001 19.7667 17.6001 20.2615 17.3001C21.0531 16.7001 21.6468 15.8001 21.8447 14.7001C22.0427 13.6001 21.7458 12.6001 21.1521 11.7001C20.3604 10.6001 19.173 10.0001 17.8866 10.0001H16.6991C16.2044 10.0001 15.8086 9.60006 15.7096 9.20006C14.819 5.50006 10.9598 3.20006 7.29851 4.20006C5.51734 4.60006 4.03303 5.80006 3.04349 7.40006C2.05395 9.00006 1.75708 10.9001 2.25185 12.7001C2.44976 13.8001 3.04349 14.8001 3.73616 15.6001C4.13198 16.0001 4.03303 16.6001 3.63721 17.0001C3.24139 17.4001 2.64767 17.3001 2.25185 16.9001C1.26232 15.9001 0.668591 14.6001 0.272775 13.2001C-0.320949 10.9001 0.0748672 8.50006 1.26232 6.40006C2.54872 4.30006 4.42884 2.90006 6.80374 2.30006C11.2567 1.10006 15.9075 3.60006 17.3918 8.00006H17.8866ZM12.642 21.7001L16.6002 17.7001C16.996 17.3001 16.996 16.7001 16.6002 16.3001C16.2044 15.9001 15.6106 15.9001 15.2148 16.3001L12.9389 18.6001V12.0001C12.9389 11.4001 12.5431 11.0001 11.9493 11.0001C11.3556 11.0001 10.9598 11.4001 10.9598 12.0001V18.6001L8.68386 16.3001C8.28805 15.9001 7.69432 15.9001 7.29851 16.3001C6.90269 16.7001 6.90269 17.3001 7.29851 17.7001L11.2567 21.7001C11.3061 21.7501 11.3556 21.7751 11.4051 21.8001C11.4546 21.8251 11.5041 21.8501 11.5535 21.9001C11.6525 22.0001 11.8504 22.0001 11.9493 22.0001C12.0483 22.0001 12.2462 22.0001 12.3452 21.9001C12.4441 21.9001 12.5431 21.8001 12.642 21.7001Z" fill="white"/>
</mask>
<g mask="url(#mask0)">
<rect width="24" height="24" fill="#347AF0"/>
</g>
</svg>
