<svg width="24" height="24" viewBox="0 0 24 24" fill="none" xmlns="http://www.w3.org/2000/svg">
<path fill-rule="evenodd" clip-rule="evenodd" d="M11.6 16.9C11.5 16.9 11.4 16.8 11.3 16.7L7.3 12.7C6.9 12.3 6.9 11.7 7.3 11.3C7.7 10.9 8.3 10.9 8.7 11.3L11 13.6V2C11 1.4 11.4 1 12 1C12.6 1 13 1.4 13 2V13.6L15.3 11.3C15.7 10.9 16.3 10.9 16.7 11.3C17.1 11.7 17.1 12.3 16.7 12.7L12.7 16.7C12.65 16.75 12.6 16.775 12.55 16.8C12.5 16.825 12.45 16.85 12.4 16.9C12.3 17 12.1 17 12 17C11.9 17 11.7 17 11.6 16.9ZM22 20V17C22 16.4 21.6 16 21 16C20.4 16 20 16.4 20 17V20C20 20.6 19.6 21 19 21H5C4.4 21 4 20.6 4 20V17C4 16.4 3.6 16 3 16C2.4 16 2 16.4 2 17V20C2 21.7 3.3 23 5 23H19C20.7 23 22 21.7 22 20Z" fill="black"/>
<mask id="mask0" mask-type="alpha" maskUnits="userSpaceOnUse" x="2" y="1" width="20" height="22">
<path fill-rule="evenodd" clip-rule="evenodd" d="M11.6 16.9C11.5 16.9 11.4 16.8 11.3 16.7L7.3 12.7C6.9 12.3 6.9 11.7 7.3 11.3C7.7 10.9 8.3 10.9 8.7 11.3L11 13.6V2C11 1.4 11.4 1 12 1C12.6 1 13 1.4 13 2V13.6L15.3 11.3C15.7 10.9 16.3 10.9 16.7 11.3C17.1 11.7 17.1 12.3 16.7 12.7L12.7 16.7C12.65 16.75 12.6 16.775 12.55 16.8C12.5 16.825 12.45 16.85 12.4 16.9C12.3 17 12.1 17 12 17C11.9 17 11.7 17 11.6 16.9ZM22 20V17C22 16.4 21.6 16 21 16C20.4 16 20 16.4 20 17V20C20 20.6 19.6 21 19 21H5C4.4 21 4 20.6 4 20V17C4 16.4 3.6 16 3 16C2.4 16 2 16.4 2 17V20C2 21.7 3.3 23 5 23H19C20.7 23 22 21.7 22 20Z" fill="white"/>
</mask>
<g mask="url(#mask0)">
<rect width="24" height="24" fill="#347AF0"/>
</g>
</svg>
