<svg width="24" height="24" viewBox="0 0 24 24" fill="none" xmlns="http://www.w3.org/2000/svg">
<path fill-rule="evenodd" clip-rule="evenodd" d="M12.7 1.3L18.4 6.9C21.9 10.5 21.9 16.2 18.4 19.7C16.7 21.4 14.4 22.3 12 22.3C9.6 22.3 7.3 21.4 5.6 19.7C3.9 18 3 15.7 3 13.3C3 10.9 3.9 8.6 5.7 6.9L11.3 1.3C11.5 1.1 11.7 1 12 1C12.3 1 12.5 1.1 12.7 1.3ZM12 20.3C13.9 20.3 15.6 19.6 17 18.3C19.7 15.5 19.7 11.1 16.9 8.4L11.9 3.4L7 8.4C5.7 9.7 5 11.4 5 13.3C5 15.2 5.7 16.9 7.1 18.3C8.4 19.6 10.1 20.3 12 20.3Z" fill="black"/>
<mask id="mask0" mask-type="alpha" maskUnits="userSpaceOnUse" x="3" y="1" width="19" height="22">
<path fill-rule="evenodd" clip-rule="evenodd" d="M12.7 1.3L18.4 6.9C21.9 10.5 21.9 16.2 18.4 19.7C16.7 21.4 14.4 22.3 12 22.3C9.6 22.3 7.3 21.4 5.6 19.7C3.9 18 3 15.7 3 13.3C3 10.9 3.9 8.6 5.7 6.9L11.3 1.3C11.5 1.1 11.7 1 12 1C12.3 1 12.5 1.1 12.7 1.3ZM12 20.3C13.9 20.3 15.6 19.6 17 18.3C19.7 15.5 19.7 11.1 16.9 8.4L11.9 3.4L7 8.4C5.7 9.7 5 11.4 5 13.3C5 15.2 5.7 16.9 7.1 18.3C8.4 19.6 10.1 20.3 12 20.3Z" fill="white"/>
</mask>
<g mask="url(#mask0)">
<rect width="24" height="24" fill="#347AF0"/>
</g>
</svg>
