<svg width="24" height="24" viewBox="0 0 24 24" fill="none" xmlns="http://www.w3.org/2000/svg">
<path fill-rule="evenodd" clip-rule="evenodd" d="M22.962 12.8805L22.962 12.8807C22.9585 12.9309 22.9549 12.9813 22.9503 13.0312C22.9375 13.1681 22.9207 13.304 22.9027 13.4399C22.9011 13.4514 22.8997 13.4629 22.8983 13.4743C22.897 13.4858 22.8956 13.4973 22.894 13.5088C22.3487 17.4648 19.6933 20.7549 16.102 22.2037C16.0845 22.2111 16.0666 22.2181 16.0487 22.2251L16.0219 22.2356C15.9029 22.2828 15.783 22.3285 15.6617 22.3712C15.6222 22.3854 15.5821 22.3988 15.542 22.4122L15.4866 22.4308L15.4676 22.4371C15.3777 22.4674 15.2882 22.4974 15.1972 22.5249C15.1263 22.5467 15.0545 22.5667 14.9828 22.5866L14.9826 22.5866L14.9825 22.5867L14.9223 22.6035C14.8974 22.6102 14.8727 22.6172 14.848 22.6241L14.8478 22.6242L14.8478 22.6242C14.8023 22.637 14.757 22.6498 14.7113 22.6613C14.5717 22.6969 14.4304 22.7287 14.2888 22.7591C14.2752 22.762 14.2616 22.7652 14.2479 22.7684C14.2343 22.7716 14.2206 22.7748 14.207 22.7776C14.037 22.8122 13.8658 22.8434 13.6931 22.8703L13.6865 22.8708C13.1367 22.9555 12.5732 23 12 23C6.61748 23 2.12834 19.1127 1.18554 13.9987L1.18493 13.9961L1.18431 13.9936C1.18342 13.989 1.18273 13.9844 1.18204 13.9797C1.18137 13.9753 1.18071 13.9708 1.17986 13.9664C1.15269 13.8167 1.12798 13.6659 1.10698 13.5143C1.10484 13.4988 1.10292 13.4833 1.10099 13.4678L1.09808 13.4446C1.07955 13.3042 1.06251 13.1632 1.04941 13.0211C1.04589 12.9845 1.04331 12.9482 1.04071 12.9118L1.04071 12.9118L1.03632 12.8521L1.03152 12.7901C1.02454 12.7005 1.01756 12.6109 1.01334 12.5206C1.00469 12.3469 1 12.1732 1 12.0002C1 11.979 1.00074 11.9513 1.00198 11.9207C1.0168 9.86216 1.59839 7.93581 2.60048 6.2921C2.69485 6.13027 2.79417 5.9724 2.89967 5.82045C2.90444 5.81358 2.91009 5.80782 2.91571 5.80208C2.91998 5.79773 2.92424 5.79338 2.92808 5.78858C4.91249 2.89942 8.23821 1 12.0002 1C14.9386 1 17.7007 2.14415 19.7785 4.22195C21.8559 6.29951 23.0002 9.06192 23 12V12.0002C23 12.1769 22.9948 12.3528 22.9867 12.5277C22.9836 12.5923 22.9787 12.6565 22.9737 12.7208C22.9714 12.7512 22.969 12.7816 22.9669 12.8121L22.962 12.8805ZM21.5611 12.6376C21.5658 12.5751 21.5705 12.5124 21.5735 12.4499C21.5804 12.3007 21.5848 12.1507 21.5846 12.0002C21.5848 11.22 21.4198 9.97482 21.0615 8.88675H18.1983C17.5355 8.88675 16.9954 9.42684 16.9954 10.09C16.9954 10.7531 17.5347 11.2929 18.1981 11.2929C18.5889 11.2929 18.9057 11.6096 18.9057 12.0002C18.9057 12.3911 18.5889 12.7078 18.1981 12.7078L14.5319 12.7076C13.8688 12.7076 13.329 13.2472 13.329 13.9105C13.3294 14.5734 13.869 15.1137 14.5326 15.114H15.3139C16.7577 15.114 17.9322 16.2885 17.9322 17.7321C17.9322 19.1174 16.8355 20.2672 15.4648 20.346C15.4426 20.3485 15.4199 20.3495 15.3966 20.35C14.801 20.3582 14.3177 20.7779 14.211 21.3244C14.2271 21.3206 14.2434 21.3169 14.2597 21.3132L14.2597 21.3132L14.2598 21.3132C14.2802 21.3086 14.3007 21.3039 14.3209 21.299C14.3738 21.2859 14.4259 21.2723 14.4785 21.258C14.5662 21.2345 14.6532 21.2095 14.7399 21.1836L14.7593 21.1778C14.8144 21.1612 14.8699 21.1445 14.9245 21.127C14.9927 21.1048 15.0606 21.0816 15.1278 21.0581L15.175 21.0417C15.2369 21.0202 15.2985 20.9988 15.3596 20.9756C15.3743 20.9701 15.3889 20.9642 15.4036 20.9583C15.4154 20.9536 15.4271 20.9489 15.4389 20.9444C18.6618 19.6936 21.026 16.7337 21.4976 13.2731C21.5025 13.2384 21.5067 13.2039 21.5109 13.1694L21.5109 13.1691C21.5233 13.072 21.5342 12.9752 21.5431 12.8773C21.5484 12.8186 21.5525 12.7596 21.5566 12.7005L21.5596 12.6569L21.5611 12.6376ZM5.76882 10.7521C6.43193 10.7521 6.97177 11.2919 6.97177 11.955C6.97177 12.6182 6.43193 13.158 5.76882 13.158H2.48757L2.48436 13.1328C2.46484 12.9692 2.45026 12.8052 2.43914 12.6419C2.43834 12.6301 2.43733 12.6183 2.43631 12.6065L2.43631 12.6064C2.43483 12.5893 2.43335 12.572 2.43247 12.5544C2.42136 12.3696 2.41518 12.1851 2.41518 12.0017V12.0002C2.41543 11.4066 2.77762 8.78373 3.83332 6.98931C3.83993 6.97852 3.84683 6.96795 3.85375 6.95736C3.8595 6.94855 3.86527 6.93973 3.87088 6.93075H8.803C9.46637 6.93075 10.006 7.47059 10.006 8.13371C10.006 8.79682 9.46612 9.33666 8.803 9.33666H5.76882C5.37796 9.33666 5.06123 9.65339 5.06123 10.0442C5.06123 10.4351 5.37796 10.7521 5.76882 10.7521ZM5.76906 14.5734H2.76897C3.89632 18.6124 7.60647 21.5848 12 21.5851C12.2607 21.5851 12.5181 21.5717 12.7736 21.551C12.7745 20.1667 13.8708 19.0181 15.241 18.9393C15.263 18.9368 15.2857 18.9356 15.3092 18.9353L15.3344 18.9351C15.9869 18.9244 16.5171 18.3856 16.5171 17.7324C16.5171 17.0692 15.9777 16.5294 15.3141 16.5294H14.5324C13.0888 16.5287 11.9145 15.3541 11.914 13.911C11.914 12.4669 13.0886 11.2924 14.5322 11.2924L15.8735 11.2927C15.6862 10.9322 15.5804 10.5233 15.5804 10.09C15.5804 8.64636 16.7547 7.47182 18.1983 7.47133H20.4525C20.0133 6.65429 19.4522 5.89679 18.7777 5.22256C16.9672 3.41208 14.5603 2.41518 12.0002 2.41518C9.21387 2.41518 6.70222 3.61121 4.94931 5.51582H8.803C10.2466 5.51582 11.4211 6.68987 11.4211 8.13371C11.4211 9.57754 10.2466 10.7521 8.803 10.7521H8.09393C8.2812 11.1125 8.38719 11.5214 8.38719 11.955C8.38719 13.3989 7.21265 14.5734 5.76906 14.5734Z" fill="black"/>
<mask id="mask0" mask-type="alpha" maskUnits="userSpaceOnUse" x="1" y="1" width="22" height="22">
<path fill-rule="evenodd" clip-rule="evenodd" d="M22.962 12.8805L22.962 12.8807C22.9585 12.9309 22.9549 12.9813 22.9503 13.0312C22.9375 13.1681 22.9207 13.304 22.9027 13.4399C22.9011 13.4514 22.8997 13.4629 22.8983 13.4743C22.897 13.4858 22.8956 13.4973 22.894 13.5088C22.3487 17.4648 19.6933 20.7549 16.102 22.2037C16.0845 22.2111 16.0666 22.2181 16.0487 22.2251L16.0219 22.2356C15.9029 22.2828 15.783 22.3285 15.6617 22.3712C15.6222 22.3854 15.5821 22.3988 15.542 22.4122L15.4866 22.4308L15.4676 22.4371C15.3777 22.4674 15.2882 22.4974 15.1972 22.5249C15.1263 22.5467 15.0545 22.5667 14.9828 22.5866L14.9826 22.5866L14.9825 22.5867L14.9223 22.6035C14.8974 22.6102 14.8727 22.6172 14.848 22.6241L14.8478 22.6242L14.8478 22.6242C14.8023 22.637 14.757 22.6498 14.7113 22.6613C14.5717 22.6969 14.4304 22.7287 14.2888 22.7591C14.2752 22.762 14.2616 22.7652 14.2479 22.7684C14.2343 22.7716 14.2206 22.7748 14.207 22.7776C14.037 22.8122 13.8658 22.8434 13.6931 22.8703L13.6865 22.8708C13.1367 22.9555 12.5732 23 12 23C6.61748 23 2.12834 19.1127 1.18554 13.9987L1.18493 13.9961L1.18431 13.9936C1.18342 13.989 1.18273 13.9844 1.18204 13.9797C1.18137 13.9753 1.18071 13.9708 1.17986 13.9664C1.15269 13.8167 1.12798 13.6659 1.10698 13.5143C1.10484 13.4988 1.10292 13.4833 1.10099 13.4678L1.09808 13.4446C1.07955 13.3042 1.06251 13.1632 1.04941 13.0211C1.04589 12.9845 1.04331 12.9482 1.04071 12.9118L1.04071 12.9118L1.03632 12.8521L1.03152 12.7901C1.02454 12.7005 1.01756 12.6109 1.01334 12.5206C1.00469 12.3469 1 12.1732 1 12.0002C1 11.979 1.00074 11.9513 1.00198 11.9207C1.0168 9.86216 1.59839 7.93581 2.60048 6.2921C2.69485 6.13027 2.79417 5.9724 2.89967 5.82045C2.90444 5.81358 2.91009 5.80782 2.91571 5.80208C2.91998 5.79773 2.92424 5.79338 2.92808 5.78858C4.91249 2.89942 8.23821 1 12.0002 1C14.9386 1 17.7007 2.14415 19.7785 4.22195C21.8559 6.29951 23.0002 9.06192 23 12V12.0002C23 12.1769 22.9948 12.3528 22.9867 12.5277C22.9836 12.5923 22.9787 12.6565 22.9737 12.7208C22.9714 12.7512 22.969 12.7816 22.9669 12.8121L22.962 12.8805ZM21.5611 12.6376C21.5658 12.5751 21.5705 12.5124 21.5735 12.4499C21.5804 12.3007 21.5848 12.1507 21.5846 12.0002C21.5848 11.22 21.4198 9.97482 21.0615 8.88675H18.1983C17.5355 8.88675 16.9954 9.42684 16.9954 10.09C16.9954 10.7531 17.5347 11.2929 18.1981 11.2929C18.5889 11.2929 18.9057 11.6096 18.9057 12.0002C18.9057 12.3911 18.5889 12.7078 18.1981 12.7078L14.5319 12.7076C13.8688 12.7076 13.329 13.2472 13.329 13.9105C13.3294 14.5734 13.869 15.1137 14.5326 15.114H15.3139C16.7577 15.114 17.9322 16.2885 17.9322 17.7321C17.9322 19.1174 16.8355 20.2672 15.4648 20.346C15.4426 20.3485 15.4199 20.3495 15.3966 20.35C14.801 20.3582 14.3177 20.7779 14.211 21.3244C14.2271 21.3206 14.2434 21.3169 14.2597 21.3132L14.2597 21.3132L14.2598 21.3132C14.2802 21.3086 14.3007 21.3039 14.3209 21.299C14.3738 21.2859 14.4259 21.2723 14.4785 21.258C14.5662 21.2345 14.6532 21.2095 14.7399 21.1836L14.7593 21.1778C14.8144 21.1612 14.8699 21.1445 14.9245 21.127C14.9927 21.1048 15.0606 21.0816 15.1278 21.0581L15.175 21.0417C15.2369 21.0202 15.2985 20.9988 15.3596 20.9756C15.3743 20.9701 15.3889 20.9642 15.4036 20.9583C15.4154 20.9536 15.4271 20.9489 15.4389 20.9444C18.6618 19.6936 21.026 16.7337 21.4976 13.2731C21.5025 13.2384 21.5067 13.2039 21.5109 13.1694L21.5109 13.1691C21.5233 13.072 21.5342 12.9752 21.5431 12.8773C21.5484 12.8186 21.5525 12.7596 21.5566 12.7005L21.5596 12.6569L21.5611 12.6376ZM5.76882 10.7521C6.43193 10.7521 6.97177 11.2919 6.97177 11.955C6.97177 12.6182 6.43193 13.158 5.76882 13.158H2.48757L2.48436 13.1328C2.46484 12.9692 2.45026 12.8052 2.43914 12.6419C2.43834 12.6301 2.43733 12.6183 2.43631 12.6065L2.43631 12.6064C2.43483 12.5893 2.43335 12.572 2.43247 12.5544C2.42136 12.3696 2.41518 12.1851 2.41518 12.0017V12.0002C2.41543 11.4066 2.77762 8.78373 3.83332 6.98931C3.83993 6.97852 3.84683 6.96795 3.85375 6.95736C3.8595 6.94855 3.86527 6.93973 3.87088 6.93075H8.803C9.46637 6.93075 10.006 7.47059 10.006 8.13371C10.006 8.79682 9.46612 9.33666 8.803 9.33666H5.76882C5.37796 9.33666 5.06123 9.65339 5.06123 10.0442C5.06123 10.4351 5.37796 10.7521 5.76882 10.7521ZM5.76906 14.5734H2.76897C3.89632 18.6124 7.60647 21.5848 12 21.5851C12.2607 21.5851 12.5181 21.5717 12.7736 21.551C12.7745 20.1667 13.8708 19.0181 15.241 18.9393C15.263 18.9368 15.2857 18.9356 15.3092 18.9353L15.3344 18.9351C15.9869 18.9244 16.5171 18.3856 16.5171 17.7324C16.5171 17.0692 15.9777 16.5294 15.3141 16.5294H14.5324C13.0888 16.5287 11.9145 15.3541 11.914 13.911C11.914 12.4669 13.0886 11.2924 14.5322 11.2924L15.8735 11.2927C15.6862 10.9322 15.5804 10.5233 15.5804 10.09C15.5804 8.64636 16.7547 7.47182 18.1983 7.47133H20.4525C20.0133 6.65429 19.4522 5.89679 18.7777 5.22256C16.9672 3.41208 14.5603 2.41518 12.0002 2.41518C9.21387 2.41518 6.70222 3.61121 4.94931 5.51582H8.803C10.2466 5.51582 11.4211 6.68987 11.4211 8.13371C11.4211 9.57754 10.2466 10.7521 8.803 10.7521H8.09393C8.2812 11.1125 8.38719 11.5214 8.38719 11.955C8.38719 13.3989 7.21265 14.5734 5.76906 14.5734Z" fill="white"/>
</mask>
<g mask="url(#mask0)">
<rect width="24" height="24" fill="#347AF0"/>
</g>
</svg>
