<svg width="24" height="24" viewBox="0 0 24 24" fill="none" xmlns="http://www.w3.org/2000/svg">
<path fill-rule="evenodd" clip-rule="evenodd" d="M3 18H7C7.3 18 7.5 17.9 7.7 17.7L18.7 6.7C19.1 6.3 19.1 5.7 18.7 5.3L14.7 1.3C14.3 0.9 13.7 0.9 13.3 1.3L2.3 12.3C2.1 12.5 2 12.7 2 13V17C2 17.6 2.4 18 3 18ZM4 13.4L14 3.4L16.6 6L6.6 16H4V13.4ZM21 23C21.6 23 22 22.6 22 22C22 21.4 21.6 21 21 21H3C2.4 21 2 21.4 2 22C2 22.6 2.4 23 3 23H21Z" fill="black"/>
<mask id="mask0" mask-type="alpha" maskUnits="userSpaceOnUse" x="2" y="1" width="20" height="22">
<path fill-rule="evenodd" clip-rule="evenodd" d="M3 18H7C7.3 18 7.5 17.9 7.7 17.7L18.7 6.7C19.1 6.3 19.1 5.7 18.7 5.3L14.7 1.3C14.3 0.9 13.7 0.9 13.3 1.3L2.3 12.3C2.1 12.5 2 12.7 2 13V17C2 17.6 2.4 18 3 18ZM4 13.4L14 3.4L16.6 6L6.6 16H4V13.4ZM21 23C21.6 23 22 22.6 22 22C22 21.4 21.6 21 21 21H3C2.4 21 2 21.4 2 22C2 22.6 2.4 23 3 23H21Z" fill="white"/>
</mask>
<g mask="url(#mask0)">
<rect width="24" height="24" fill="#347AF0"/>
</g>
</svg>
