<svg width="24" height="24" viewBox="0 0 24 24" fill="none" xmlns="http://www.w3.org/2000/svg">
<path fill-rule="evenodd" clip-rule="evenodd" d="M22.7 6.7L12.7 16.7C12.5 16.9 12.3 17 12 17H8C7.4 17 7 16.6 7 16V12C7 11.7 7.1 11.5 7.3 11.3L17.3 1.3C17.7 0.9 18.3 0.9 18.7 1.3L22.7 5.3C23.1 5.7 23.1 6.3 22.7 6.7ZM21 14.7V20C21 21.7 19.7 23 18 23H4C2.3 23 1 21.7 1 20V6C1 4.3 2.3 3 4 3H9.3C9.9 3 10.3 3.4 10.3 4C10.3 4.6 9.9 5 9.3 5H4C3.4 5 3 5.4 3 6V20C3 20.6 3.4 21 4 21H18C18.6 21 19 20.6 19 20V14.7C19 14.1 19.4 13.7 20 13.7C20.6 13.7 21 14.1 21 14.7ZM18 3.4L20.6 6L11.6 15H9V12.4L18 3.4Z" fill="black"/>
<mask id="mask0" mask-type="alpha" maskUnits="userSpaceOnUse" x="1" y="1" width="22" height="22">
<path fill-rule="evenodd" clip-rule="evenodd" d="M22.7 6.7L12.7 16.7C12.5 16.9 12.3 17 12 17H8C7.4 17 7 16.6 7 16V12C7 11.7 7.1 11.5 7.3 11.3L17.3 1.3C17.7 0.9 18.3 0.9 18.7 1.3L22.7 5.3C23.1 5.7 23.1 6.3 22.7 6.7ZM21 14.7V20C21 21.7 19.7 23 18 23H4C2.3 23 1 21.7 1 20V6C1 4.3 2.3 3 4 3H9.3C9.9 3 10.3 3.4 10.3 4C10.3 4.6 9.9 5 9.3 5H4C3.4 5 3 5.4 3 6V20C3 20.6 3.4 21 4 21H18C18.6 21 19 20.6 19 20V14.7C19 14.1 19.4 13.7 20 13.7C20.6 13.7 21 14.1 21 14.7ZM18 3.4L20.6 6L11.6 15H9V12.4L18 3.4Z" fill="white"/>
</mask>
<g mask="url(#mask0)">
<rect width="24" height="24" fill="#347AF0"/>
</g>
</svg>
