<svg width="24" height="24" viewBox="0 0 24 24" fill="none" xmlns="http://www.w3.org/2000/svg">
<path fill-rule="evenodd" clip-rule="evenodd" d="M20.0876 18.7687L17.5938 7.35C17.5751 7.29375 17.5563 7.2375 17.5188 7.2L12.3626 0.15C12.2876 0.05625 12.1751 0 12.0626 0C11.9501 0 11.8376 0.05625 11.7626 0.15L6.60635 7.2C6.56885 7.2375 6.5501 7.29375 6.53135 7.35L4.0376 18.75V18.7687C4.0376 18.825 4.0376 18.8813 4.0376 18.9188C4.0376 18.9375 4.05635 18.975 4.05635 18.9937C4.0751 19.05 4.13135 19.1062 4.1876 19.1437C4.1876 19.1437 4.1876 19.1437 4.20635 19.1437L11.8563 23.9438C11.9126 23.9813 11.9876 24 12.0626 24C12.1376 24 12.1938 23.9813 12.2688 23.9438L19.9188 19.1437C19.9188 19.1437 19.9188 19.1437 19.9376 19.1437C19.9938 19.1062 20.0313 19.05 20.0688 18.9937C20.0876 18.975 20.0876 18.9375 20.0876 18.9188C20.1063 18.8813 20.1063 18.825 20.0876 18.7687ZM18.8313 16.4813L16.2063 11.85L17.1626 8.85L18.8313 16.4813ZM12.4376 1.51875L16.8063 7.5L15.7001 10.9875L12.4376 5.2125V1.51875ZM12.0626 6.075L15.4001 11.9438L13.3376 18.45H10.8063L8.74385 11.9438L12.0626 6.075ZM11.6876 1.51875V5.2125L8.4251 10.9688L7.31885 7.5L11.6876 1.51875ZM6.9626 8.86875L7.91885 11.8687L5.29385 16.5L6.9626 8.86875ZM8.2376 12.8438L10.0188 18.4688H5.0501L8.2376 12.8438ZM5.70635 19.2H10.2626L11.3876 22.7625L5.70635 19.2ZM12.0626 22.4062L11.0501 19.2H13.0938L12.0626 22.4062ZM12.7376 22.7625L13.8626 19.2H18.4188L12.7376 22.7625ZM14.1063 18.45L15.8876 12.825L19.0751 18.45H14.1063Z" fill="#0D1F3C"/>
</svg>
