<svg width="24" height="24" viewBox="0 0 24 24" fill="none" xmlns="http://www.w3.org/2000/svg">
<path fill-rule="evenodd" clip-rule="evenodd" d="M5 12.2199L12.3646 16.5731L12.3647 16.5732L12.3647 16.5732H12.3647L19.7294 12.2199L12.3647 0.000100634V1.51853e-05L12.3647 5.79096e-05L12.3647 1.51853e-05L12.3646 0.000183105L5 12.2199ZM12.3647 23.9946L12.3646 23.9944L5 13.6165L12.3647 17.9676L19.7338 13.6166L12.3647 23.9946L12.3647 23.9946Z" fill="#0D1F3C"/>
<mask id="mask0" mask-type="alpha" maskUnits="userSpaceOnUse" x="5" y="0" width="15" height="24">
<path fill-rule="evenodd" clip-rule="evenodd" d="M5 12.2199L12.3646 16.5731L12.3647 16.5732L12.3647 16.5732H12.3647L19.7294 12.2199L12.3647 0.000100634V1.51853e-05L12.3647 5.79096e-05L12.3647 1.51853e-05L12.3646 0.000183105L5 12.2199ZM12.3647 23.9946L12.3646 23.9944L5 13.6165L12.3647 17.9676L19.7338 13.6166L12.3647 23.9946L12.3647 23.9946Z" fill="white"/>
</mask>
<g mask="url(#mask0)">
</g>
</svg>
