<svg width="24" height="24" viewBox="0 0 24 24" fill="none" xmlns="http://www.w3.org/2000/svg">
<path fill-rule="evenodd" clip-rule="evenodd" d="M23 24C23.3 24 23.5 23.9 23.7 23.7C24.1 23.3 24.1 22.7 23.7 22.3L1.7 0.3C1.3 -0.1 0.7 -0.1 0.3 0.3C-0.1 0.7 -0.1 1.3 0.3 1.7L4.6 6C2.8 7.5 1.2 9.4 0.1 11.5C-7.45058e-09 11.8 -7.45058e-09 12.1 0.1 12.4C0.3 12.8 4.5 21 12 21C14.1 21 16.1 20.4 17.8 19.2L22.3 23.7C22.5 23.9 22.7 24 23 24ZM9.7 3.3C9.1 3.4 8.8 3.9 8.9 4.5C9.1 5 9.6 5.3 10.1 5.4C10.7 5.3 11.4 5.2 12 5.2C17.4 5.2 21 10.6 21.9 12.2C21.4 13.1 20.8 13.9 20.1 14.7C19.7 15.1 19.8 15.7 20.2 16.1C20.3 16.2 20.6 16.3 20.8 16.3C21.1 16.3 21.4 16.1 21.6 15.9C22.5 14.8 23.3 13.7 23.9 12.5C24 12.2 24 11.9 23.9 11.6C23.7 11.2 19.5 3 12 3C11.2 3 10.4 3.1 9.7 3.3ZM9.9 12.1C9.9 12.6 10.1 13.1 10.5 13.5C11.1 14 11.8 14.1 12.5 13.9L10 11.4C10 11.5652 9.96969 11.7 9.94245 11.8212C9.9202 11.9202 9.9 12.0101 9.9 12.1ZM14 15.5L16.4 17.8C15 18.6 13.5 19 12 19C6.6 19 3 13.6 2.1 12C3.2 10.2 4.5 8.7 6 7.4L8.5 9.9C8.1 10.6 7.9 11.4 7.9 12.2C8 13.3 8.4 14.3 9.2 15C9.9 15.7 10.9 16.1 11.9 16.1C12.6 16.1 13.4 15.9 14 15.5Z" fill="black"/>
<mask id="mask0" mask-type="alpha" maskUnits="userSpaceOnUse" x="0" y="0" width="24" height="24">
<path fill-rule="evenodd" clip-rule="evenodd" d="M23 24C23.3 24 23.5 23.9 23.7 23.7C24.1 23.3 24.1 22.7 23.7 22.3L1.7 0.3C1.3 -0.1 0.7 -0.1 0.3 0.3C-0.1 0.7 -0.1 1.3 0.3 1.7L4.6 6C2.8 7.5 1.2 9.4 0.1 11.5C-7.45058e-09 11.8 -7.45058e-09 12.1 0.1 12.4C0.3 12.8 4.5 21 12 21C14.1 21 16.1 20.4 17.8 19.2L22.3 23.7C22.5 23.9 22.7 24 23 24ZM9.7 3.3C9.1 3.4 8.8 3.9 8.9 4.5C9.1 5 9.6 5.3 10.1 5.4C10.7 5.3 11.4 5.2 12 5.2C17.4 5.2 21 10.6 21.9 12.2C21.4 13.1 20.8 13.9 20.1 14.7C19.7 15.1 19.8 15.7 20.2 16.1C20.3 16.2 20.6 16.3 20.8 16.3C21.1 16.3 21.4 16.1 21.6 15.9C22.5 14.8 23.3 13.7 23.9 12.5C24 12.2 24 11.9 23.9 11.6C23.7 11.2 19.5 3 12 3C11.2 3 10.4 3.1 9.7 3.3ZM9.9 12.1C9.9 12.6 10.1 13.1 10.5 13.5C11.1 14 11.8 14.1 12.5 13.9L10 11.4C10 11.5652 9.96969 11.7 9.94245 11.8212C9.9202 11.9202 9.9 12.0101 9.9 12.1ZM14 15.5L16.4 17.8C15 18.6 13.5 19 12 19C6.6 19 3 13.6 2.1 12C3.2 10.2 4.5 8.7 6 7.4L8.5 9.9C8.1 10.6 7.9 11.4 7.9 12.2C8 13.3 8.4 14.3 9.2 15C9.9 15.7 10.9 16.1 11.9 16.1C12.6 16.1 13.4 15.9 14 15.5Z" fill="white"/>
</mask>
<g mask="url(#mask0)">
<rect width="24" height="24" fill="#347AF0"/>
</g>
</svg>
