<svg width="24" height="24" viewBox="0 0 24 24" fill="none" xmlns="http://www.w3.org/2000/svg">
<path fill-rule="evenodd" clip-rule="evenodd" d="M18.9609 6C18.9609 6.6 18.5621 7 17.9639 7H14.9729V9H17.9639C18.263 9 18.5621 9 18.7615 9.3C18.9609 9.6 19.0606 9.9 18.9609 10.2L17.9639 14.2C17.8642 14.7 17.4654 15 16.9669 15H14.9729V22C14.9729 22.6 14.5741 23 13.9759 23H9.98797C9.38977 23 8.99097 22.6 8.99097 22V15H6.99699C6.3988 15 6 14.6 6 14V10C6 9.4 6.3988 9 6.99699 9H8.99097V7C8.99097 3.7 11.6829 1 14.9729 1H17.9639C18.5621 1 18.9609 1.4 18.9609 2V6ZM16.6678 11H13.9759C13.3777 11 12.9789 10.6 12.9789 10V7C12.9789 5.9 13.8762 5 14.9729 5H16.9669V3H14.9729C12.7795 3 10.985 4.8 10.985 7V10C10.985 10.6 10.5862 11 9.98797 11H7.99398V13H9.98797C10.5862 13 10.985 13.4 10.985 14V21H12.9789V14C12.9789 13.4 13.3777 13 13.9759 13H16.1693L16.6678 11Z" fill="black"/>
<mask id="mask0" mask-type="alpha" maskUnits="userSpaceOnUse" x="6" y="1" width="13" height="22">
<path fill-rule="evenodd" clip-rule="evenodd" d="M18.9609 6C18.9609 6.6 18.5621 7 17.9639 7H14.9729V9H17.9639C18.263 9 18.5621 9 18.7615 9.3C18.9609 9.6 19.0606 9.9 18.9609 10.2L17.9639 14.2C17.8642 14.7 17.4654 15 16.9669 15H14.9729V22C14.9729 22.6 14.5741 23 13.9759 23H9.98797C9.38977 23 8.99097 22.6 8.99097 22V15H6.99699C6.3988 15 6 14.6 6 14V10C6 9.4 6.3988 9 6.99699 9H8.99097V7C8.99097 3.7 11.6829 1 14.9729 1H17.9639C18.5621 1 18.9609 1.4 18.9609 2V6ZM16.6678 11H13.9759C13.3777 11 12.9789 10.6 12.9789 10V7C12.9789 5.9 13.8762 5 14.9729 5H16.9669V3H14.9729C12.7795 3 10.985 4.8 10.985 7V10C10.985 10.6 10.5862 11 9.98797 11H7.99398V13H9.98797C10.5862 13 10.985 13.4 10.985 14V21H12.9789V14C12.9789 13.4 13.3777 13 13.9759 13H16.1693L16.6678 11Z" fill="white"/>
</mask>
<g mask="url(#mask0)">
<rect width="24" height="24" fill="#347AF0"/>
</g>
</svg>
