<svg width="24" height="24" viewBox="0 0 24 24" fill="none" xmlns="http://www.w3.org/2000/svg">
<path fill-rule="evenodd" clip-rule="evenodd" d="M2.6 4.2089C2.3 4.00901 1.9 3.90907 1.6 4.10896C1.2 4.30884 1 4.60867 1 5.00845V19.0006C1 19.4003 1.2 19.7002 1.6 19.9001C1.7 20 1.9 20 2 20C2.2 20 2.4 19.9001 2.6 19.8001L11.6 12.8041C11.8 12.6042 12 12.3043 12 12.0045V19.0006C12 19.4003 12.2 19.7002 12.6 19.9001C12.7 20 12.9 20 13 20C13.2 20 13.4 19.9001 13.6 19.8001L22.6 12.8041C22.8 12.6042 23 12.3043 23 12.0045C23 11.7047 22.9 11.4048 22.6 11.205L13.6 4.2089C13.3 4.00901 12.9 3.90907 12.5 4.10896C12.2 4.30884 12 4.60867 12 5.00845V12.0045C12 11.7047 11.9 11.4048 11.6 11.205L2.6 4.2089ZM20.4 12.0045L14 7.00732V17.0017L20.4 12.0045ZM9.4 12.0045L3 7.00732V17.0017L9.4 12.0045Z" fill="black"/>
<mask id="mask0" mask-type="alpha" maskUnits="userSpaceOnUse" x="1" y="4" width="22" height="16">
<path fill-rule="evenodd" clip-rule="evenodd" d="M2.6 4.2089C2.3 4.00901 1.9 3.90907 1.6 4.10896C1.2 4.30884 1 4.60867 1 5.00845V19.0006C1 19.4003 1.2 19.7002 1.6 19.9001C1.7 20 1.9 20 2 20C2.2 20 2.4 19.9001 2.6 19.8001L11.6 12.8041C11.8 12.6042 12 12.3043 12 12.0045V19.0006C12 19.4003 12.2 19.7002 12.6 19.9001C12.7 20 12.9 20 13 20C13.2 20 13.4 19.9001 13.6 19.8001L22.6 12.8041C22.8 12.6042 23 12.3043 23 12.0045C23 11.7047 22.9 11.4048 22.6 11.205L13.6 4.2089C13.3 4.00901 12.9 3.90907 12.5 4.10896C12.2 4.30884 12 4.60867 12 5.00845V12.0045C12 11.7047 11.9 11.4048 11.6 11.205L2.6 4.2089ZM20.4 12.0045L14 7.00732V17.0017L20.4 12.0045ZM9.4 12.0045L3 7.00732V17.0017L9.4 12.0045Z" fill="white"/>
</mask>
<g mask="url(#mask0)">
<rect width="24" height="24" fill="#347AF0"/>
</g>
</svg>
