<svg width="24" height="24" viewBox="0 0 24 24" fill="none" xmlns="http://www.w3.org/2000/svg">
<path fill-rule="evenodd" clip-rule="evenodd" d="M20.9 3.0227C18.2 0.325766 13.7 0.325766 11 3.0227L4.3 9.81498C4.1 10.0148 4 10.2145 4 10.5142V18.605L1.3 21.3019C0.9 21.7015 0.9 22.3008 1.3 22.7003C1.5 22.9001 1.7 23 2 23C2.3 23 2.5 22.9001 2.7 22.7003L5.4 20.0034H13.5C13.8 20.0034 14 19.9035 14.2 19.7037L20.9 12.9115C23.7 10.2145 23.7 5.81952 20.9 3.0227ZM13.1 18.0057H7.4L9.4 16.0079H15.1L13.1 18.0057ZM17.1 14.0102L19.5 11.5131C21.5 9.61521 21.5 6.41884 19.6 4.42111C17.6 2.42338 14.5 2.42338 12.5 4.42111L6 10.9137V16.6073L8.3 14.3099L15.3 7.31782C15.7 6.91827 16.3 6.91827 16.7 7.31782C17.1 7.71737 17.1 8.31669 16.7 8.71623L11.4 14.0102H17H17.1Z" fill="black"/>
<mask id="mask0" mask-type="alpha" maskUnits="userSpaceOnUse" x="1" y="1" width="22" height="22">
<path fill-rule="evenodd" clip-rule="evenodd" d="M20.9 3.0227C18.2 0.325766 13.7 0.325766 11 3.0227L4.3 9.81498C4.1 10.0148 4 10.2145 4 10.5142V18.605L1.3 21.3019C0.9 21.7015 0.9 22.3008 1.3 22.7003C1.5 22.9001 1.7 23 2 23C2.3 23 2.5 22.9001 2.7 22.7003L5.4 20.0034H13.5C13.8 20.0034 14 19.9035 14.2 19.7037L20.9 12.9115C23.7 10.2145 23.7 5.81952 20.9 3.0227ZM13.1 18.0057H7.4L9.4 16.0079H15.1L13.1 18.0057ZM17.1 14.0102L19.5 11.5131C21.5 9.61521 21.5 6.41884 19.6 4.42111C17.6 2.42338 14.5 2.42338 12.5 4.42111L6 10.9137V16.6073L8.3 14.3099L15.3 7.31782C15.7 6.91827 16.3 6.91827 16.7 7.31782C17.1 7.71737 17.1 8.31669 16.7 8.71623L11.4 14.0102H17H17.1Z" fill="white"/>
</mask>
<g mask="url(#mask0)">
<rect width="24" height="24" fill="#347AF0"/>
</g>
</svg>
