<svg width="24" height="24" viewBox="0 0 24 24" fill="none" xmlns="http://www.w3.org/2000/svg">
<path fill-rule="evenodd" clip-rule="evenodd" d="M19.3 2.3C19.6 2 20 1.9 20.4 2.1C20.8 2.3 21 2.6 21 3V15C21 15.3 20.9 15.5 20.7 15.7C20.5 15.9 19.2 17 16 17C14.4337 17 13.1221 16.4907 11.9087 16.0195C11.8051 15.9793 11.7023 15.9393 11.6 15.9C11.3699 15.8233 11.1434 15.7429 10.9185 15.663C9.97071 15.3266 9.05067 15 8 15C6.4 15 5.4 15.3 5 15.5V22C5 22.6 4.6 23 4 23C3.4 23 3 22.6 3 22V15V3C3 2.7 3.1 2.5 3.3 2.3C3.5 2.1 4.8 1 8 1C9.7 1 11.1 1.5 12.4 2.1C12.6301 2.17672 12.8566 2.25711 13.0815 2.33695C14.0293 2.6734 14.9493 3 16 3C18.4 3 19.3 2.3 19.3 2.3ZM16 15C17.6 15 18.6 14.7 19 14.5V4.6C18.3 4.8 17.3 5 16 5C14.3 5 12.9 4.5 11.6 3.9C11.3699 3.82328 11.1434 3.74289 10.9185 3.66305C9.97071 3.3266 9.05067 3 8 3C6.4 3 5.4 3.3 5 3.5V13.4C5.7 13.2 6.7 13 8 13C9.7 13 11.1 13.5 12.4 14.1C12.6301 14.1767 12.8566 14.2571 13.0815 14.337C14.0293 14.6734 14.9493 15 16 15Z" fill="black"/>
<mask id="mask0" mask-type="alpha" maskUnits="userSpaceOnUse" x="3" y="1" width="18" height="22">
<path fill-rule="evenodd" clip-rule="evenodd" d="M19.3 2.3C19.6 2 20 1.9 20.4 2.1C20.8 2.3 21 2.6 21 3V15C21 15.3 20.9 15.5 20.7 15.7C20.5 15.9 19.2 17 16 17C14.4337 17 13.1221 16.4907 11.9087 16.0195C11.8051 15.9793 11.7023 15.9393 11.6 15.9C11.3699 15.8233 11.1434 15.7429 10.9185 15.663C9.97071 15.3266 9.05067 15 8 15C6.4 15 5.4 15.3 5 15.5V22C5 22.6 4.6 23 4 23C3.4 23 3 22.6 3 22V15V3C3 2.7 3.1 2.5 3.3 2.3C3.5 2.1 4.8 1 8 1C9.7 1 11.1 1.5 12.4 2.1C12.6301 2.17672 12.8566 2.25711 13.0815 2.33695C14.0293 2.6734 14.9493 3 16 3C18.4 3 19.3 2.3 19.3 2.3ZM16 15C17.6 15 18.6 14.7 19 14.5V4.6C18.3 4.8 17.3 5 16 5C14.3 5 12.9 4.5 11.6 3.9C11.3699 3.82328 11.1434 3.74289 10.9185 3.66305C9.97071 3.3266 9.05067 3 8 3C6.4 3 5.4 3.3 5 3.5V13.4C5.7 13.2 6.7 13 8 13C9.7 13 11.1 13.5 12.4 14.1C12.6301 14.1767 12.8566 14.2571 13.0815 14.337C14.0293 14.6734 14.9493 15 16 15Z" fill="white"/>
</mask>
<g mask="url(#mask0)">
<rect width="24" height="24" fill="#347AF0"/>
</g>
</svg>
