<svg width="24" height="24" viewBox="0 0 24 24" fill="none" xmlns="http://www.w3.org/2000/svg">
<path fill-rule="evenodd" clip-rule="evenodd" d="M20 5H11.5L9.8 2.4C9.6 2.2 9.3 2 9 2H4C2.3 2 1 3.3 1 5V19C1 20.7 2.3 22 4 22H20C21.7 22 23 20.7 23 19V8C23 6.3 21.7 5 20 5ZM21 19C21 19.6 20.6 20 20 20H4C3.4 20 3 19.6 3 19V5C3 4.4 3.4 4 4 4H8.5L10.2 6.6C10.4 6.8 10.7 7 11 7H20C20.6 7 21 7.4 21 8V19ZM15 15C15.6 15 16 14.6 16 14C16 13.4 15.6 13 15 13H9C8.4 13 8 13.4 8 14C8 14.6 8.4 15 9 15H15Z" fill="black"/>
<mask id="mask0" mask-type="alpha" maskUnits="userSpaceOnUse" x="1" y="2" width="22" height="20">
<path fill-rule="evenodd" clip-rule="evenodd" d="M20 5H11.5L9.8 2.4C9.6 2.2 9.3 2 9 2H4C2.3 2 1 3.3 1 5V19C1 20.7 2.3 22 4 22H20C21.7 22 23 20.7 23 19V8C23 6.3 21.7 5 20 5ZM21 19C21 19.6 20.6 20 20 20H4C3.4 20 3 19.6 3 19V5C3 4.4 3.4 4 4 4H8.5L10.2 6.6C10.4 6.8 10.7 7 11 7H20C20.6 7 21 7.4 21 8V19ZM15 15C15.6 15 16 14.6 16 14C16 13.4 15.6 13 15 13H9C8.4 13 8 13.4 8 14C8 14.6 8.4 15 9 15H15Z" fill="white"/>
</mask>
<g mask="url(#mask0)">
<rect width="24" height="24" fill="#347AF0"/>
</g>
</svg>
