<svg width="24" height="24" viewBox="0 0 24 24" fill="none" xmlns="http://www.w3.org/2000/svg">
<path fill-rule="evenodd" clip-rule="evenodd" d="M4.33682 6C4.89855 7.18247 6.1038 8 7.5 8H3V11H4C3.44772 11 3 11.4477 3 12V13H2C1.44772 13 1 12.5523 1 12V7C1 6.44772 1.44772 6 2 6H4.33682ZM5 13V12C5 11.4477 4.55228 11 4 11H11V13H5ZM11 21V13H13V21H11ZM12 23H4C3.44772 23 3 22.5523 3 22V13H5V21H11V22C11 22.5523 11.4477 23 12 23ZM21 13V22C21 22.5523 20.5523 23 20 23H12C12.5523 23 13 22.5523 13 22V21H19V13H21ZM20 11C19.4477 11 19 11.4477 19 12V13H13V11H20ZM19.6632 6H22C22.5523 6 23 6.44772 23 7V12C23 12.5523 22.5523 13 22 13H21V12C21 11.4477 20.5523 11 20 11H21V8H16.5C17.8962 8 19.1015 7.18247 19.6632 6ZM16.5 6H19.6632C19.8792 5.54537 20 5.0368 20 4.5C20 2.567 18.433 1 16.5 1C14.5391 1 13.0786 2.16845 12.0613 4.01808C12.0406 4.05571 12.0202 4.09348 12 4.13137C11.9798 4.09348 11.9594 4.05571 11.9387 4.01808C10.9214 2.16845 9.46086 1 7.5 1C5.567 1 4 2.567 4 4.5C4 5.0368 4.12085 5.54537 4.33682 6H7.5C6.67157 6 6 5.32843 6 4.5C6 3.67157 6.67157 3 7.5 3C8.60164 3 9.48483 3.70655 10.1863 4.98192C10.3647 5.30638 10.5206 5.64992 10.6543 6H11.2316C11.1282 6.33437 11.0608 6.60318 11.0242 6.78019C11.0164 6.81508 11.0104 6.85066 11.0063 6.88682C11.0008 6.93438 10.9988 6.98155 11 7.02808V8V11H13V8V7.02808C13.0012 6.98155 12.9992 6.93438 12.9937 6.88682C12.9896 6.85066 12.9836 6.81508 12.9758 6.78019C12.9392 6.60318 12.8718 6.33437 12.7684 6H13.3457C13.4794 5.64992 13.6353 5.30638 13.8137 4.98192C14.5152 3.70655 15.3984 3 16.5 3C17.3284 3 18 3.67157 18 4.5C18 5.32843 17.3284 6 16.5 6ZM12 6C12.4768 6 12.8756 6.33365 12.9758 6.78019L12.9806 6.80388C12.9861 6.83163 12.9905 6.85929 12.9937 6.88682C12.9979 6.92397 13 6.96173 13 7V7.02808C12.9862 7.55526 12.5539 8 12 8C11.4461 8 11.0138 7.55526 11 7.02808V7C11 6.96173 11.0021 6.92397 11.0063 6.88682C11.0095 6.85929 11.0139 6.83163 11.0194 6.80388L11.0242 6.78019C11.1244 6.33365 11.5232 6 12 6ZM12 6H12.7684C12.76 5.97272 12.7513 5.945 12.7424 5.91686C12.551 5.31237 12.3063 4.70718 12 4.13137C11.6937 4.70718 11.449 5.31237 11.2576 5.91686C11.2487 5.945 11.24 5.97272 11.2316 6H12Z" fill="black"/>
<mask id="mask0" mask-type="alpha" maskUnits="userSpaceOnUse" x="1" y="1" width="22" height="22">
<path fill-rule="evenodd" clip-rule="evenodd" d="M4.33682 6C4.89855 7.18247 6.1038 8 7.5 8H3V11H4C3.44772 11 3 11.4477 3 12V13H2C1.44772 13 1 12.5523 1 12V7C1 6.44772 1.44772 6 2 6H4.33682ZM5 13V12C5 11.4477 4.55228 11 4 11H11V13H5ZM11 21V13H13V21H11ZM12 23H4C3.44772 23 3 22.5523 3 22V13H5V21H11V22C11 22.5523 11.4477 23 12 23ZM21 13V22C21 22.5523 20.5523 23 20 23H12C12.5523 23 13 22.5523 13 22V21H19V13H21ZM20 11C19.4477 11 19 11.4477 19 12V13H13V11H20ZM19.6632 6H22C22.5523 6 23 6.44772 23 7V12C23 12.5523 22.5523 13 22 13H21V12C21 11.4477 20.5523 11 20 11H21V8H16.5C17.8962 8 19.1015 7.18247 19.6632 6ZM16.5 6H19.6632C19.8792 5.54537 20 5.0368 20 4.5C20 2.567 18.433 1 16.5 1C14.5391 1 13.0786 2.16845 12.0613 4.01808C12.0406 4.05571 12.0202 4.09348 12 4.13137C11.9798 4.09348 11.9594 4.05571 11.9387 4.01808C10.9214 2.16845 9.46086 1 7.5 1C5.567 1 4 2.567 4 4.5C4 5.0368 4.12085 5.54537 4.33682 6H7.5C6.67157 6 6 5.32843 6 4.5C6 3.67157 6.67157 3 7.5 3C8.60164 3 9.48483 3.70655 10.1863 4.98192C10.3647 5.30638 10.5206 5.64992 10.6543 6H11.2316C11.1282 6.33437 11.0608 6.60318 11.0242 6.78019C11.0164 6.81508 11.0104 6.85066 11.0063 6.88682C11.0008 6.93438 10.9988 6.98155 11 7.02808V8V11H13V8V7.02808C13.0012 6.98155 12.9992 6.93438 12.9937 6.88682C12.9896 6.85066 12.9836 6.81508 12.9758 6.78019C12.9392 6.60318 12.8718 6.33437 12.7684 6H13.3457C13.4794 5.64992 13.6353 5.30638 13.8137 4.98192C14.5152 3.70655 15.3984 3 16.5 3C17.3284 3 18 3.67157 18 4.5C18 5.32843 17.3284 6 16.5 6ZM12 6C12.4768 6 12.8756 6.33365 12.9758 6.78019L12.9806 6.80388C12.9861 6.83163 12.9905 6.85929 12.9937 6.88682C12.9979 6.92397 13 6.96173 13 7V7.02808C12.9862 7.55526 12.5539 8 12 8C11.4461 8 11.0138 7.55526 11 7.02808V7C11 6.96173 11.0021 6.92397 11.0063 6.88682C11.0095 6.85929 11.0139 6.83163 11.0194 6.80388L11.0242 6.78019C11.1244 6.33365 11.5232 6 12 6ZM12 6H12.7684C12.76 5.97272 12.7513 5.945 12.7424 5.91686C12.551 5.31237 12.3063 4.70718 12 4.13137C11.6937 4.70718 11.449 5.31237 11.2576 5.91686C11.2487 5.945 11.24 5.97272 11.2316 6H12Z" fill="white"/>
</mask>
<g mask="url(#mask0)">
<rect width="24" height="24" fill="#347AF0"/>
</g>
</svg>
