<svg width="24" height="24" viewBox="0 0 24 24" fill="none" xmlns="http://www.w3.org/2000/svg">
<path fill-rule="evenodd" clip-rule="evenodd" d="M7 12C7 12.3421 7.03284 12.6752 7.0956 12.9965C7.06434 12.9988 7.03246 13 7 13H1C0.4 13 0 12.6 0 12C0 11.4 0.4 11 1 11H7C7.03246 11 7.06434 11.0012 7.0956 11.0035C7.03284 11.3248 7 11.6579 7 12ZM16.9044 11.0035C16.4535 8.69525 14.4579 7 12 7C9.5421 7 7.54654 8.69525 7.0956 11.0035C7.64211 11.0439 8 11.4325 8 12C8 12.5675 7.64211 12.9561 7.0956 12.9965C7.54654 15.3047 9.5421 17 12 17C14.4579 17 16.4535 15.3047 16.9044 12.9965C16.9357 12.9988 16.9675 13 17 13H23C23.5 13 24 12.6 24 12C24 11.4 23.6 11 23 11H17C16.9675 11 16.9357 11.0012 16.9044 11.0035ZM16.9044 11.0035C16.9672 11.3248 17 11.6579 17 12C17 12.3421 16.9672 12.6752 16.9044 12.9965C16.3579 12.9561 16 12.5675 16 12C16 11.4325 16.3579 11.0439 16.9044 11.0035ZM9 12C9 10.3 10.3 9 12 9C13.7 9 15 10.3 15 12C15 13.7 13.7 15 12 15C10.3 15 9 13.7 9 12Z" fill="black"/>
<mask id="mask0" mask-type="alpha" maskUnits="userSpaceOnUse" x="0" y="7" width="24" height="10">
<path fill-rule="evenodd" clip-rule="evenodd" d="M7 12C7 12.3421 7.03284 12.6752 7.0956 12.9965C7.06434 12.9988 7.03246 13 7 13H1C0.4 13 0 12.6 0 12C0 11.4 0.4 11 1 11H7C7.03246 11 7.06434 11.0012 7.0956 11.0035C7.03284 11.3248 7 11.6579 7 12ZM16.9044 11.0035C16.4535 8.69525 14.4579 7 12 7C9.5421 7 7.54654 8.69525 7.0956 11.0035C7.64211 11.0439 8 11.4325 8 12C8 12.5675 7.64211 12.9561 7.0956 12.9965C7.54654 15.3047 9.5421 17 12 17C14.4579 17 16.4535 15.3047 16.9044 12.9965C16.9357 12.9988 16.9675 13 17 13H23C23.5 13 24 12.6 24 12C24 11.4 23.6 11 23 11H17C16.9675 11 16.9357 11.0012 16.9044 11.0035ZM16.9044 11.0035C16.9672 11.3248 17 11.6579 17 12C17 12.3421 16.9672 12.6752 16.9044 12.9965C16.3579 12.9561 16 12.5675 16 12C16 11.4325 16.3579 11.0439 16.9044 11.0035ZM9 12C9 10.3 10.3 9 12 9C13.7 9 15 10.3 15 12C15 13.7 13.7 15 12 15C10.3 15 9 13.7 9 12Z" fill="white"/>
</mask>
<g mask="url(#mask0)">
<rect width="24" height="24" fill="#347AF0"/>
</g>
</svg>
