<svg width="24" height="24" viewBox="0 0 24 24" fill="none" xmlns="http://www.w3.org/2000/svg">
<path fill-rule="evenodd" clip-rule="evenodd" d="M22 6C22 3.8 20.2 2 18 2C15.8 2 14 3.8 14 6C14 7.8 15.3 9.4 17 9.8C16.6 13.5 13.6 16.5 9.9 16.9C9.5 15.5 8.4 14.4 7.1 14.1V3C7.1 2.4 6.7 2 6.1 2C5.5 2 5 2.4 5 3V14.1C3.3 14.5 2 16.1 2 18C2 20.2 3.8 22 6 22C7.9 22 9.4 20.7 9.9 19C14.7 18.6 18.6 14.7 19 9.9C20.7 9.4 22 7.9 22 6ZM6 20C4.9 20 4 19.1 4 18C4 16.9 4.9 16 6 16C7.1 16 8 16.9 8 18C8 19.1 7.1 20 6 20ZM16 6C16 7.1 16.9 8 18 8C19.1 8 20 7.1 20 6C20 4.9 19.1 4 18 4C16.9 4 16 4.9 16 6Z" fill="black"/>
<mask id="mask0" mask-type="alpha" maskUnits="userSpaceOnUse" x="2" y="2" width="20" height="20">
<path fill-rule="evenodd" clip-rule="evenodd" d="M22 6C22 3.8 20.2 2 18 2C15.8 2 14 3.8 14 6C14 7.8 15.3 9.4 17 9.8C16.6 13.5 13.6 16.5 9.9 16.9C9.5 15.5 8.4 14.4 7.1 14.1V3C7.1 2.4 6.7 2 6.1 2C5.5 2 5 2.4 5 3V14.1C3.3 14.5 2 16.1 2 18C2 20.2 3.8 22 6 22C7.9 22 9.4 20.7 9.9 19C14.7 18.6 18.6 14.7 19 9.9C20.7 9.4 22 7.9 22 6ZM6 20C4.9 20 4 19.1 4 18C4 16.9 4.9 16 6 16C7.1 16 8 16.9 8 18C8 19.1 7.1 20 6 20ZM16 6C16 7.1 16.9 8 18 8C19.1 8 20 7.1 20 6C20 4.9 19.1 4 18 4C16.9 4 16 4.9 16 6Z" fill="white"/>
</mask>
<g mask="url(#mask0)">
<rect width="24" height="24" fill="#347AF0"/>
</g>
</svg>
