<svg width="24" height="24" viewBox="0 0 24 24" fill="none" xmlns="http://www.w3.org/2000/svg">
<path fill-rule="evenodd" clip-rule="evenodd" d="M18 14C16.2 14 14.6 15.3 14.2 17C10.5 16.6 7.5 13.6 7.1 9.89998C8.8 9.39998 10.1 7.89998 10.1 6.09998C10.1 3.89998 8.3 2.09998 6.1 2.09998C3.9 2.09998 2 3.79998 2 5.99998C2 7.89998 3.3 9.39998 5 9.89998V21C5 21.6 5.4 22 6 22C6.6 22 7 21.6 7 21V15C8.7 17.2 11.2 18.7 14.1 19C14.5 20.7 16.1 22.1 18 22.1C20.2 22.1 22 20.3 22 18.1C22 15.9 20.2 14 18 14ZM4 5.99998C4 4.89998 4.9 3.99998 6 3.99998C7.1 3.99998 8 4.89998 8 5.99998C8 7.09998 7.1 7.99998 6 7.99998C4.9 7.99998 4 7.09998 4 5.99998ZM16 18C16 19.1 16.9 20 18 20C19.1 20 20 19.1 20 18C20 16.9 19.1 16 18 16C16.9 16 16 16.9 16 18Z" fill="black"/>
<mask id="mask0" mask-type="alpha" maskUnits="userSpaceOnUse" x="2" y="2" width="20" height="21">
<path fill-rule="evenodd" clip-rule="evenodd" d="M18 14C16.2 14 14.6 15.3 14.2 17C10.5 16.6 7.5 13.6 7.1 9.89998C8.8 9.39998 10.1 7.89998 10.1 6.09998C10.1 3.89998 8.3 2.09998 6.1 2.09998C3.9 2.09998 2 3.79998 2 5.99998C2 7.89998 3.3 9.39998 5 9.89998V21C5 21.6 5.4 22 6 22C6.6 22 7 21.6 7 21V15C8.7 17.2 11.2 18.7 14.1 19C14.5 20.7 16.1 22.1 18 22.1C20.2 22.1 22 20.3 22 18.1C22 15.9 20.2 14 18 14ZM4 5.99998C4 4.89998 4.9 3.99998 6 3.99998C7.1 3.99998 8 4.89998 8 5.99998C8 7.09998 7.1 7.99998 6 7.99998C4.9 7.99998 4 7.09998 4 5.99998ZM16 18C16 19.1 16.9 20 18 20C19.1 20 20 19.1 20 18C20 16.9 19.1 16 18 16C16.9 16 16 16.9 16 18Z" fill="white"/>
</mask>
<g mask="url(#mask0)">
<rect width="24" height="24" fill="#347AF0"/>
</g>
</svg>
