<svg width="24" height="24" viewBox="0 0 24 24" fill="none" xmlns="http://www.w3.org/2000/svg">
<path d="M17.0796 17.3185C17.2838 17.9168 17.3858 18.6149 17.3858 19.2132V23.0028C17.3858 23.6011 16.9775 24 16.3651 24C15.7526 24 15.3443 23.6011 15.3443 23.0028V19.1135C15.4464 18.3157 15.1402 17.7174 14.6298 17.2188C14.3236 16.9196 14.2215 16.5207 14.4256 16.2215C14.5277 15.8226 14.936 15.6232 15.2422 15.5234C18.2024 15.2243 20.9585 14.227 20.9585 9.54C20.9585 8.44303 20.5502 7.34606 19.7336 6.44855C19.4273 6.14937 19.4273 5.75048 19.5294 5.4513C19.8356 4.65351 19.8356 3.85572 19.6315 3.05792C19.1211 3.15765 18.3045 3.45682 16.9775 4.35434C16.7734 4.55379 16.4671 4.55379 16.1609 4.45406C14.0173 3.85572 11.6696 3.85572 9.52598 4.45406C9.21976 4.55379 8.91353 4.55379 8.6073 4.35434C7.38239 3.45682 6.46371 3.15765 5.95333 3.05792C5.74918 3.85572 5.74918 4.65351 6.05541 5.4513C6.15748 5.8502 6.15748 6.2491 5.85125 6.44855C5.03465 7.34606 4.62634 8.44303 4.62634 9.54C4.62634 14.227 7.38239 15.2243 10.3426 15.5234C10.7509 15.5234 11.0571 15.8226 11.1592 16.2215C11.2613 16.6204 11.1592 17.0193 10.955 17.2188C10.4447 17.7174 10.2405 18.3157 10.2405 19.0138V19.9113V20.011V22.903C10.2405 23.5014 9.83221 23.9003 9.21976 23.9003C8.6073 23.9003 8.199 23.5014 8.199 22.903V21.2077C5.13672 21.7063 3.80974 20.011 2.89105 18.9141C2.48275 18.4154 2.17652 18.0166 1.76822 17.9168C1.25784 17.8171 0.849536 17.2188 1.05369 16.7201C1.15576 16.2215 1.76822 15.8226 2.2786 16.0221C3.29936 16.3212 3.91181 17.0193 4.52427 17.7174C5.34087 18.8143 6.05541 19.6121 8.199 19.2132V19.1135C8.199 18.5152 8.30107 17.8171 8.50523 17.3185C5.6471 16.7201 2.58483 14.9251 2.58483 9.63972C2.58483 8.14386 3.09521 6.74772 4.01389 5.65075C3.60558 4.25461 3.70766 2.9582 4.32012 1.66179C4.42219 1.36261 4.62634 1.16317 4.93257 1.06344C5.34087 0.963717 6.66786 0.764269 9.42391 2.45958C11.6696 1.96096 14.0173 1.96096 16.1609 2.45958C18.8149 0.764269 20.2439 0.963717 20.6523 1.06344C20.9585 1.16317 21.1626 1.36261 21.2647 1.66179C21.7751 2.9582 21.8772 4.25462 21.5709 5.55103C22.4896 6.64799 23 8.04413 23 9.54C23 15.2243 19.5294 16.8199 17.0796 17.3185Z" fill="black"/>
<mask id="mask0" mask-type="alpha" maskUnits="userSpaceOnUse" x="1" y="1" width="22" height="23">
<path d="M17.0796 17.3185C17.2838 17.9168 17.3858 18.6149 17.3858 19.2132V23.0028C17.3858 23.6011 16.9775 24 16.3651 24C15.7526 24 15.3443 23.6011 15.3443 23.0028V19.1135C15.4464 18.3157 15.1402 17.7174 14.6298 17.2188C14.3236 16.9196 14.2215 16.5207 14.4256 16.2215C14.5277 15.8226 14.936 15.6232 15.2422 15.5234C18.2024 15.2243 20.9585 14.227 20.9585 9.54C20.9585 8.44303 20.5502 7.34606 19.7336 6.44855C19.4273 6.14937 19.4273 5.75048 19.5294 5.4513C19.8356 4.65351 19.8356 3.85572 19.6315 3.05792C19.1211 3.15765 18.3045 3.45682 16.9775 4.35434C16.7734 4.55379 16.4671 4.55379 16.1609 4.45406C14.0173 3.85572 11.6696 3.85572 9.52598 4.45406C9.21976 4.55379 8.91353 4.55379 8.6073 4.35434C7.38239 3.45682 6.46371 3.15765 5.95333 3.05792C5.74918 3.85572 5.74918 4.65351 6.05541 5.4513C6.15748 5.8502 6.15748 6.2491 5.85125 6.44855C5.03465 7.34606 4.62634 8.44303 4.62634 9.54C4.62634 14.227 7.38239 15.2243 10.3426 15.5234C10.7509 15.5234 11.0571 15.8226 11.1592 16.2215C11.2613 16.6204 11.1592 17.0193 10.955 17.2188C10.4447 17.7174 10.2405 18.3157 10.2405 19.0138V19.9113V20.011V22.903C10.2405 23.5014 9.83221 23.9003 9.21976 23.9003C8.6073 23.9003 8.199 23.5014 8.199 22.903V21.2077C5.13672 21.7063 3.80974 20.011 2.89105 18.9141C2.48275 18.4154 2.17652 18.0166 1.76822 17.9168C1.25784 17.8171 0.849536 17.2188 1.05369 16.7201C1.15576 16.2215 1.76822 15.8226 2.2786 16.0221C3.29936 16.3212 3.91181 17.0193 4.52427 17.7174C5.34087 18.8143 6.05541 19.6121 8.199 19.2132V19.1135C8.199 18.5152 8.30107 17.8171 8.50523 17.3185C5.6471 16.7201 2.58483 14.9251 2.58483 9.63972C2.58483 8.14386 3.09521 6.74772 4.01389 5.65075C3.60558 4.25461 3.70766 2.9582 4.32012 1.66179C4.42219 1.36261 4.62634 1.16317 4.93257 1.06344C5.34087 0.963717 6.66786 0.764269 9.42391 2.45958C11.6696 1.96096 14.0173 1.96096 16.1609 2.45958C18.8149 0.764269 20.2439 0.963717 20.6523 1.06344C20.9585 1.16317 21.1626 1.36261 21.2647 1.66179C21.7751 2.9582 21.8772 4.25462 21.5709 5.55103C22.4896 6.64799 23 8.04413 23 9.54C23 15.2243 19.5294 16.8199 17.0796 17.3185Z" fill="white"/>
</mask>
<g mask="url(#mask0)">
<rect width="24" height="24" fill="#347AF0"/>
</g>
</svg>
