<svg width="25" height="24" viewBox="0 0 25 24" fill="none" xmlns="http://www.w3.org/2000/svg">
<path fill-rule="evenodd" clip-rule="evenodd" d="M20.2158 1.975L23.9158 13.175C24.2158 13.975 23.9158 14.875 23.2158 15.275L12.6158 22.975C12.4158 23.075 12.2158 23.175 12.0158 23.175C11.8158 23.175 11.6158 23.075 11.4158 22.975L0.815838 15.275C0.115838 14.775 -0.184162 13.975 0.115838 13.175L3.81584 1.975C3.91584 1.675 4.01584 1.475 4.21584 1.375C4.71584 0.875 5.61584 0.875 6.11584 1.375C6.31584 1.575 6.41584 1.775 6.51584 1.975L8.71584 8.775H15.3158L17.5158 1.975C17.6158 1.675 17.7158 1.475 17.9158 1.375C18.4158 0.875 19.3158 0.875 19.8158 1.375C20.0158 1.575 20.1158 1.775 20.2158 1.975ZM2.01584 13.775L12.0158 20.975L22.0158 13.675L20.8158 10.075L18.9158 4.275L17.0158 10.075C16.8158 10.475 16.4158 10.775 16.0158 10.775H8.01584C7.51584 10.775 7.11584 10.475 7.01584 10.075L5.11584 4.275L2.01584 13.775Z" fill="black"/>
<mask id="mask0" mask-type="alpha" maskUnits="userSpaceOnUse" x="0" y="1" width="25" height="23">
<path fill-rule="evenodd" clip-rule="evenodd" d="M20.2158 1.975L23.9158 13.175C24.2158 13.975 23.9158 14.875 23.2158 15.275L12.6158 22.975C12.4158 23.075 12.2158 23.175 12.0158 23.175C11.8158 23.175 11.6158 23.075 11.4158 22.975L0.815838 15.275C0.115838 14.775 -0.184162 13.975 0.115838 13.175L3.81584 1.975C3.91584 1.675 4.01584 1.475 4.21584 1.375C4.71584 0.875 5.61584 0.875 6.11584 1.375C6.31584 1.575 6.41584 1.775 6.51584 1.975L8.71584 8.775H15.3158L17.5158 1.975C17.6158 1.675 17.7158 1.475 17.9158 1.375C18.4158 0.875 19.3158 0.875 19.8158 1.375C20.0158 1.575 20.1158 1.775 20.2158 1.975ZM2.01584 13.775L12.0158 20.975L22.0158 13.675L20.8158 10.075L18.9158 4.275L17.0158 10.075C16.8158 10.475 16.4158 10.775 16.0158 10.775H8.01584C7.51584 10.775 7.11584 10.475 7.01584 10.075L5.11584 4.275L2.01584 13.775Z" fill="white"/>
</mask>
<g mask="url(#mask0)">
<rect width="24" height="24" fill="#347AF0"/>
</g>
</svg>
