<svg width="24" height="24" viewBox="0 0 24 24" fill="none" xmlns="http://www.w3.org/2000/svg">
<path fill-rule="evenodd" clip-rule="evenodd" d="M12 1C5.9 1 1 5.9 1 12C1 18.1 5.9 23 12 23C18.1 23 23 18.1 23 12C23 5.9 18.1 1 12 1ZM20.9 11H16.9C16.7 8.2 15.8 5.6 14.2 3.3C17.8 4.2 20.5 7.3 20.9 11ZM15 13H9.1C9.3 15.7 10.3 18.3 12.1 20.4C13.7 18.3 14.7 15.7 15 13ZM9.1 11C9.4 8.3 10.4 5.7 12 3.6C13.7 5.8 14.7 8.4 14.9 11H9.1ZM7.1 11C7.3 8.2 8.2 5.6 9.7 3.3C6.2 4.2 3.5 7.3 3.1 11H7.1ZM3.1 13H7.1C7.3 15.8 8.2 18.4 9.8 20.7C6.2 19.8 3.5 16.7 3.1 13ZM17 13C16.7 15.8 15.8 18.4 14.3 20.7C17.8 19.8 20.5 16.7 21 13H17Z" fill="black"/>
<mask id="mask0" mask-type="alpha" maskUnits="userSpaceOnUse" x="1" y="1" width="22" height="22">
<path fill-rule="evenodd" clip-rule="evenodd" d="M12 1C5.9 1 1 5.9 1 12C1 18.1 5.9 23 12 23C18.1 23 23 18.1 23 12C23 5.9 18.1 1 12 1ZM20.9 11H16.9C16.7 8.2 15.8 5.6 14.2 3.3C17.8 4.2 20.5 7.3 20.9 11ZM15 13H9.1C9.3 15.7 10.3 18.3 12.1 20.4C13.7 18.3 14.7 15.7 15 13ZM9.1 11C9.4 8.3 10.4 5.7 12 3.6C13.7 5.8 14.7 8.4 14.9 11H9.1ZM7.1 11C7.3 8.2 8.2 5.6 9.7 3.3C6.2 4.2 3.5 7.3 3.1 11H7.1ZM3.1 13H7.1C7.3 15.8 8.2 18.4 9.8 20.7C6.2 19.8 3.5 16.7 3.1 13ZM17 13C16.7 15.8 15.8 18.4 14.3 20.7C17.8 19.8 20.5 16.7 21 13H17Z" fill="white"/>
</mask>
<g mask="url(#mask0)">
<rect width="24" height="24" fill="#347AF0"/>
</g>
</svg>
