<svg width="24" height="24" viewBox="0 0 24 24" fill="none" xmlns="http://www.w3.org/2000/svg">
<path fill-rule="evenodd" clip-rule="evenodd" d="M22.9 11.6L19.4 4.7C18.9 3.7 17.9 3 16.7 3H7.2C6.1 3 5.1 3.6 4.6 4.7L1.2 11.6C1 11.7 1 11.8 1 12V18C1 19.7 2.3 21 4 21H20C21.7 21 23 19.7 23 18V12C23 11.8 23 11.7 22.9 11.6ZM6.3 5.6C6.5 5.2 6.9 5 7.2 5H16.7C17.1 5 17.4 5.2 17.6 5.6L20.3 11H3.6L6.3 5.6ZM20 19C20.6 19 21 18.6 21 18V13H3V18C3 18.6 3.4 19 4 19H20ZM5.3 16.7C5.1 16.5 5 16.3 5 16C5 15.9 5 15.7 5.1 15.6C5.15 15.55 5.175 15.5 5.2 15.45C5.225 15.4 5.25 15.35 5.3 15.3C5.4 15.2 5.5 15.1 5.6 15.1C5.8 15 6.1 15 6.4 15.1C6.5 15.1 6.6 15.2 6.7 15.3C6.8 15.4 6.9 15.5 6.9 15.6C7 15.7 7 15.9 7 16C7 16.3 6.9 16.5 6.7 16.7C6.5 16.9 6.3 17 6 17C5.7 17 5.5 16.9 5.3 16.7ZM9 16C9 16.3 9.1 16.5 9.3 16.7C9.5 16.9 9.7 17 10 17C10.3 17 10.5 16.9 10.7 16.7C10.9 16.5 11 16.3 11 16C11 15.9 11 15.7 10.9 15.6C10.9 15.5 10.8 15.4 10.7 15.3C10.3 14.9 9.7 14.9 9.3 15.3C9.25 15.35 9.225 15.4 9.2 15.45C9.175 15.5 9.15 15.55 9.1 15.6C9 15.7 9 15.9 9 16Z" fill="black"/>
<mask id="mask0" mask-type="alpha" maskUnits="userSpaceOnUse" x="1" y="3" width="22" height="18">
<path fill-rule="evenodd" clip-rule="evenodd" d="M22.9 11.6L19.4 4.7C18.9 3.7 17.9 3 16.7 3H7.2C6.1 3 5.1 3.6 4.6 4.7L1.2 11.6C1 11.7 1 11.8 1 12V18C1 19.7 2.3 21 4 21H20C21.7 21 23 19.7 23 18V12C23 11.8 23 11.7 22.9 11.6ZM6.3 5.6C6.5 5.2 6.9 5 7.2 5H16.7C17.1 5 17.4 5.2 17.6 5.6L20.3 11H3.6L6.3 5.6ZM20 19C20.6 19 21 18.6 21 18V13H3V18C3 18.6 3.4 19 4 19H20ZM5.3 16.7C5.1 16.5 5 16.3 5 16C5 15.9 5 15.7 5.1 15.6C5.15 15.55 5.175 15.5 5.2 15.45C5.225 15.4 5.25 15.35 5.3 15.3C5.4 15.2 5.5 15.1 5.6 15.1C5.8 15 6.1 15 6.4 15.1C6.5 15.1 6.6 15.2 6.7 15.3C6.8 15.4 6.9 15.5 6.9 15.6C7 15.7 7 15.9 7 16C7 16.3 6.9 16.5 6.7 16.7C6.5 16.9 6.3 17 6 17C5.7 17 5.5 16.9 5.3 16.7ZM9 16C9 16.3 9.1 16.5 9.3 16.7C9.5 16.9 9.7 17 10 17C10.3 17 10.5 16.9 10.7 16.7C10.9 16.5 11 16.3 11 16C11 15.9 11 15.7 10.9 15.6C10.9 15.5 10.8 15.4 10.7 15.3C10.3 14.9 9.7 14.9 9.3 15.3C9.25 15.35 9.225 15.4 9.2 15.45C9.175 15.5 9.15 15.55 9.1 15.6C9 15.7 9 15.9 9 16Z" fill="white"/>
</mask>
<g mask="url(#mask0)">
<rect width="24" height="24" fill="#347AF0"/>
</g>
</svg>
