<svg width="24" height="24" viewBox="0 0 24 24" fill="none" xmlns="http://www.w3.org/2000/svg">
<path fill-rule="evenodd" clip-rule="evenodd" d="M15.8 14.0153H20C20.6 14.0153 21 14.4153 21 15.0153C21 15.6153 20.6 16.0153 20 16.0153H15.6L15 21.1153C14.9 21.6153 14.5 22.0153 14 22.0153H13.9C13.3 21.9153 12.9 21.4153 13 20.9153L13.6 16.0153H9.6L9 21.1153C8.9 21.6153 8.5 22.0153 8 22.0153H7.9C7.3 21.9153 6.9 21.4153 7 20.9153L7.5 16.0153H4C3.4 16.0153 3 15.6153 3 15.0153C3 14.4153 3.4 14.0153 4 14.0153H7.8L8.2 10.0153H4C3.4 10.0153 3 9.61531 3 9.01531C3 8.41531 3.4 8.01531 4 8.01531H8.4L9 2.91531C9.1 2.31531 9.6 1.91531 10.1 2.01531C10.7 2.11531 11.1 2.61531 11 3.11531L10.4 8.01531H14.4L15 2.91531C15.1 2.31531 15.6 1.91531 16.1 2.01531C16.7 2.11531 17.1 2.61531 17 3.11531L16.5 8.01531H20C20.6 8.01531 21 8.41531 21 9.01531C21 9.61531 20.6 10.0153 20 10.0153H16.2L15.8 14.0153ZM10.2 10.0153L9.8 14.0153H13.8L14.2 10.0153H10.2Z" fill="black"/>
<mask id="mask0" mask-type="alpha" maskUnits="userSpaceOnUse" x="3" y="2" width="18" height="21">
<path fill-rule="evenodd" clip-rule="evenodd" d="M15.8 14.0153H20C20.6 14.0153 21 14.4153 21 15.0153C21 15.6153 20.6 16.0153 20 16.0153H15.6L15 21.1153C14.9 21.6153 14.5 22.0153 14 22.0153H13.9C13.3 21.9153 12.9 21.4153 13 20.9153L13.6 16.0153H9.6L9 21.1153C8.9 21.6153 8.5 22.0153 8 22.0153H7.9C7.3 21.9153 6.9 21.4153 7 20.9153L7.5 16.0153H4C3.4 16.0153 3 15.6153 3 15.0153C3 14.4153 3.4 14.0153 4 14.0153H7.8L8.2 10.0153H4C3.4 10.0153 3 9.61531 3 9.01531C3 8.41531 3.4 8.01531 4 8.01531H8.4L9 2.91531C9.1 2.31531 9.6 1.91531 10.1 2.01531C10.7 2.11531 11.1 2.61531 11 3.11531L10.4 8.01531H14.4L15 2.91531C15.1 2.31531 15.6 1.91531 16.1 2.01531C16.7 2.11531 17.1 2.61531 17 3.11531L16.5 8.01531H20C20.6 8.01531 21 8.41531 21 9.01531C21 9.61531 20.6 10.0153 20 10.0153H16.2L15.8 14.0153ZM10.2 10.0153L9.8 14.0153H13.8L14.2 10.0153H10.2Z" fill="white"/>
</mask>
<g mask="url(#mask0)">
<rect width="24" height="24" fill="#347AF0"/>
</g>
</svg>
