<svg width="24" height="24" viewBox="0 0 24 24" fill="none" xmlns="http://www.w3.org/2000/svg">
<path fill-rule="evenodd" clip-rule="evenodd" d="M16.8975 2C18.5354 2 20.077 2.69307 21.2332 3.88119C22.4857 5.06931 23.1602 6.75248 22.9675 8.43564C22.9675 10.1188 22.293 11.802 21.1369 12.9901L12.6582 21.703C12.4655 21.901 12.2728 22 11.9837 22C11.6947 22 11.502 21.901 11.3093 21.703L2.83062 12.9901C1.67444 11.802 1 10.1188 1 8.43564C1 6.75248 1.67444 5.06931 2.92697 3.88119C5.33569 1.40594 9.28598 1.40594 11.6947 3.88119L12.0801 4.27723L12.4655 3.88119C13.6217 2.69307 15.2596 2 16.8975 2ZM12.0801 19.6238L19.8843 11.604C20.7515 10.7129 21.2332 9.62376 21.2332 8.43564C21.2332 7.24753 20.7515 6.15842 19.9807 5.26733C19.1135 4.47525 18.0537 3.9802 16.8975 3.9802C15.645 3.9802 14.5851 4.47525 13.718 5.26733L12.7545 6.35644C12.3691 6.75248 11.791 6.75248 11.4056 6.35644L10.3458 5.26733C9.47867 4.37624 8.41884 3.9802 7.26266 3.9802C6.20282 3.9802 5.04664 4.37624 4.27585 5.26733C3.50506 6.15842 3.02332 7.24753 3.02332 8.43564C3.02332 9.62376 3.40871 10.7129 4.27585 11.604L12.0801 19.6238Z" fill="black"/>
<mask id="mask0" mask-type="alpha" maskUnits="userSpaceOnUse" x="1" y="2" width="22" height="20">
<path fill-rule="evenodd" clip-rule="evenodd" d="M16.8975 2C18.5354 2 20.077 2.69307 21.2332 3.88119C22.4857 5.06931 23.1602 6.75248 22.9675 8.43564C22.9675 10.1188 22.293 11.802 21.1369 12.9901L12.6582 21.703C12.4655 21.901 12.2728 22 11.9837 22C11.6947 22 11.502 21.901 11.3093 21.703L2.83062 12.9901C1.67444 11.802 1 10.1188 1 8.43564C1 6.75248 1.67444 5.06931 2.92697 3.88119C5.33569 1.40594 9.28598 1.40594 11.6947 3.88119L12.0801 4.27723L12.4655 3.88119C13.6217 2.69307 15.2596 2 16.8975 2ZM12.0801 19.6238L19.8843 11.604C20.7515 10.7129 21.2332 9.62376 21.2332 8.43564C21.2332 7.24753 20.7515 6.15842 19.9807 5.26733C19.1135 4.47525 18.0537 3.9802 16.8975 3.9802C15.645 3.9802 14.5851 4.47525 13.718 5.26733L12.7545 6.35644C12.3691 6.75248 11.791 6.75248 11.4056 6.35644L10.3458 5.26733C9.47867 4.37624 8.41884 3.9802 7.26266 3.9802C6.20282 3.9802 5.04664 4.37624 4.27585 5.26733C3.50506 6.15842 3.02332 7.24753 3.02332 8.43564C3.02332 9.62376 3.40871 10.7129 4.27585 11.604L12.0801 19.6238Z" fill="white"/>
</mask>
<g mask="url(#mask0)">
<rect width="24" height="24" fill="#347AF0"/>
</g>
</svg>
