<svg width="24" height="24" viewBox="0 0 24 24" fill="none" xmlns="http://www.w3.org/2000/svg">
<path fill-rule="evenodd" clip-rule="evenodd" d="M12 23C18.1 23 23 18.1 23 12C23 5.9 18.1 1 12 1C5.9 1 1 5.9 1 12C1 18.1 5.9 23 12 23ZM12.2 13.9C12.6 13.8 15.9 12.6 15.9 10C15.9 8.3 14.8 6.8 13.2 6.3C11.1 5.5 8.8 6.6 8.1 8.7C8 9.2 8.2 9.8 8.7 9.8C9.2 10 9.8 9.7 10 9.2C10.4 8.2 11.6 7.6 12.6 8C13.4 8.3 13.9 9 13.9 9.9C13.9 11 12.2 11.8 11.6 12C11.1 12.2 10.8 12.8 11 13.3C11.1 13.7 11.5 14 11.9 14C12 14 12.1 14 12.2 13.9ZM21 12C21 7 17 3 12 3C7 3 3 7 3 12C3 17 7 21 12 21C17 21 21 17 21 12ZM12.5 16.2C12.6 16.2 12.7 16.3 12.7 16.3C12.8 16.4 12.9 16.5 12.8 16.6C12.9 16.7 12.9 16.9 12.9 17C12.9 17.3 12.8 17.5 12.6 17.7C12.4 17.9 12.2 18 11.9 18C11.6 18 11.4 17.9 11.2 17.7C11 17.5 10.9 17.3 10.9 17C10.9 16.8828 10.9343 16.8 10.9627 16.7314C10.9828 16.6828 11 16.6414 11 16.6C11 16.5 11.1 16.4 11.2 16.3C11.3 16.2 11.4 16.1 11.5 16.1C11.7 16 11.9 16 12.1 16C12.1575 16.0575 12.1819 16.0819 12.2113 16.0923C12.2331 16.1 12.2575 16.1 12.3 16.1C12.35 16.1 12.375 16.125 12.4 16.15C12.425 16.175 12.45 16.2 12.5 16.2Z" fill="black"/>
<mask id="mask0" mask-type="alpha" maskUnits="userSpaceOnUse" x="1" y="1" width="22" height="22">
<path fill-rule="evenodd" clip-rule="evenodd" d="M12 23C18.1 23 23 18.1 23 12C23 5.9 18.1 1 12 1C5.9 1 1 5.9 1 12C1 18.1 5.9 23 12 23ZM12.2 13.9C12.6 13.8 15.9 12.6 15.9 10C15.9 8.3 14.8 6.8 13.2 6.3C11.1 5.5 8.8 6.6 8.1 8.7C8 9.2 8.2 9.8 8.7 9.8C9.2 10 9.8 9.7 10 9.2C10.4 8.2 11.6 7.6 12.6 8C13.4 8.3 13.9 9 13.9 9.9C13.9 11 12.2 11.8 11.6 12C11.1 12.2 10.8 12.8 11 13.3C11.1 13.7 11.5 14 11.9 14C12 14 12.1 14 12.2 13.9ZM21 12C21 7 17 3 12 3C7 3 3 7 3 12C3 17 7 21 12 21C17 21 21 17 21 12ZM12.5 16.2C12.6 16.2 12.7 16.3 12.7 16.3C12.8 16.4 12.9 16.5 12.8 16.6C12.9 16.7 12.9 16.9 12.9 17C12.9 17.3 12.8 17.5 12.6 17.7C12.4 17.9 12.2 18 11.9 18C11.6 18 11.4 17.9 11.2 17.7C11 17.5 10.9 17.3 10.9 17C10.9 16.8828 10.9343 16.8 10.9627 16.7314C10.9828 16.6828 11 16.6414 11 16.6C11 16.5 11.1 16.4 11.2 16.3C11.3 16.2 11.4 16.1 11.5 16.1C11.7 16 11.9 16 12.1 16C12.1575 16.0575 12.1819 16.0819 12.2113 16.0923C12.2331 16.1 12.2575 16.1 12.3 16.1C12.35 16.1 12.375 16.125 12.4 16.15C12.425 16.175 12.45 16.2 12.5 16.2Z" fill="white"/>
</mask>
<g mask="url(#mask0)">
<rect width="24" height="24" fill="#347AF0"/>
</g>
</svg>
