<svg width="24" height="24" viewBox="0 0 24 24" fill="none" xmlns="http://www.w3.org/2000/svg">
<path fill-rule="evenodd" clip-rule="evenodd" d="M19 2H5C3.3 2 2 3.3 2 5V19C2 20.7 3.3 22 5 22H19C20.7 22 22 20.7 22 19V5C22 3.3 20.7 2 19 2ZM4 5C4 4.4 4.4 4 5 4H19C19.6 4 20 4.4 20 5V12.6L16.7 9.3C16.3 8.9 15.7 8.9 15.3 9.3L4.7 19.9C4.3 19.8 4 19.4 4 19V5ZM7.4 20H19C19.6 20 20 19.6 20 19V15.4L16 11.4L7.4 20ZM8.5 11C9.9 11 11 9.9 11 8.5C11 7.1 9.9 6 8.5 6C7.1 6 6 7.1 6 8.5C6 9.9 7.1 11 8.5 11ZM9 8.5C9 8.2 8.8 8 8.5 8C8.2 8 8 8.2 8 8.5C8 8.8 8.2 9 8.5 9C8.8 9 9 8.8 9 8.5Z" fill="black"/>
<mask id="mask0" mask-type="alpha" maskUnits="userSpaceOnUse" x="2" y="2" width="20" height="20">
<path fill-rule="evenodd" clip-rule="evenodd" d="M19 2H5C3.3 2 2 3.3 2 5V19C2 20.7 3.3 22 5 22H19C20.7 22 22 20.7 22 19V5C22 3.3 20.7 2 19 2ZM4 5C4 4.4 4.4 4 5 4H19C19.6 4 20 4.4 20 5V12.6L16.7 9.3C16.3 8.9 15.7 8.9 15.3 9.3L4.7 19.9C4.3 19.8 4 19.4 4 19V5ZM7.4 20H19C19.6 20 20 19.6 20 19V15.4L16 11.4L7.4 20ZM8.5 11C9.9 11 11 9.9 11 8.5C11 7.1 9.9 6 8.5 6C7.1 6 6 7.1 6 8.5C6 9.9 7.1 11 8.5 11ZM9 8.5C9 8.2 8.8 8 8.5 8C8.2 8 8 8.2 8 8.5C8 8.8 8.2 9 8.5 9C8.8 9 9 8.8 9 8.5Z" fill="white"/>
</mask>
<g mask="url(#mask0)">
<rect width="24" height="24" fill="#347AF0"/>
</g>
</svg>
