<svg width="24" height="24" viewBox="0 0 24 24" fill="none" xmlns="http://www.w3.org/2000/svg">
<path fill-rule="evenodd" clip-rule="evenodd" d="M22.9 12.6L19.4 4.8C19 3.7 17.9 3 16.7 3H7.3C6.1 3 5 3.7 4.6 4.8L1.1 12.6C1 12.7 1 12.9 1 13V18C1 19.7 2.3 21 4 21H20C21.7 21 23 19.7 23 18V13C23 12.9 23 12.7 22.9 12.6ZM6.4 5.6C6.5 5.2 6.9 5 7.3 5H16.7C17.1 5 17.5 5.2 17.6 5.6L20.4 12H16C15.7 12 15.4 12.2 15.2 12.4L13.5 15H10.6L8.9 12.4C8.6 12.2 8.3 12 8 12H3.5L6.4 5.6ZM4 19H20C20.6 19 21 18.6 21 18V14H16.5L14.8 16.6C14.6 16.8 14.3 17 14 17H10C9.7 17 9.4 16.8 9.2 16.6L7.5 14H3V18C3 18.6 3.4 19 4 19Z" fill="black"/>
<mask id="mask0" mask-type="alpha" maskUnits="userSpaceOnUse" x="1" y="3" width="22" height="18">
<path fill-rule="evenodd" clip-rule="evenodd" d="M22.9 12.6L19.4 4.8C19 3.7 17.9 3 16.7 3H7.3C6.1 3 5 3.7 4.6 4.8L1.1 12.6C1 12.7 1 12.9 1 13V18C1 19.7 2.3 21 4 21H20C21.7 21 23 19.7 23 18V13C23 12.9 23 12.7 22.9 12.6ZM6.4 5.6C6.5 5.2 6.9 5 7.3 5H16.7C17.1 5 17.5 5.2 17.6 5.6L20.4 12H16C15.7 12 15.4 12.2 15.2 12.4L13.5 15H10.6L8.9 12.4C8.6 12.2 8.3 12 8 12H3.5L6.4 5.6ZM4 19H20C20.6 19 21 18.6 21 18V14H16.5L14.8 16.6C14.6 16.8 14.3 17 14 17H10C9.7 17 9.4 16.8 9.2 16.6L7.5 14H3V18C3 18.6 3.4 19 4 19Z" fill="white"/>
</mask>
<g mask="url(#mask0)">
<rect width="24" height="24" fill="#347AF0"/>
</g>
</svg>
