<svg width="24" height="24" viewBox="0 0 24 24" fill="none" xmlns="http://www.w3.org/2000/svg">
<path fill-rule="evenodd" clip-rule="evenodd" d="M1 12C1 5.9 5.9 1 12 1C18.1 1 23 5.9 23 12C23 18.1 18.1 23 12 23C5.9 23 1 18.1 1 12ZM3 12C3 17 7 21 12 21C17 21 21 17 21 12C21 7 17 3 12 3C7 3 3 7 3 12ZM13 12V16C13 16.6 12.6 17 12 17C11.4 17 11 16.6 11 16V12C11 11.4 11.4 11 12 11C12.6 11 13 11.4 13 12ZM13 8C13 7.7 12.9 7.5 12.7 7.3C12.5 7.1 12.1 7 11.8 7C11.7425 7.05751 11.7181 7.08194 11.6887 7.09233C11.6669 7.1 11.6425 7.1 11.6 7.1C11.55 7.1 11.525 7.125 11.5 7.15C11.475 7.175 11.45 7.2 11.4 7.2L11.3 7.3C11.1 7.5 11 7.7 11 8C11 8.3 11.1 8.5 11.3 8.7C11.3 8.7 11.3 8.8 11.4 8.8C11.45 8.8 11.475 8.825 11.5 8.85C11.525 8.875 11.55 8.9 11.6 8.9C11.6575 8.9575 11.6819 8.98194 11.7113 8.99233C11.7331 9 11.7575 9 11.8 9H12C12.3 9 12.5 8.9 12.7 8.7C12.9 8.5 13 8.3 13 8Z" fill="black"/>
<mask id="mask0" mask-type="alpha" maskUnits="userSpaceOnUse" x="1" y="1" width="22" height="22">
<path fill-rule="evenodd" clip-rule="evenodd" d="M1 12C1 5.9 5.9 1 12 1C18.1 1 23 5.9 23 12C23 18.1 18.1 23 12 23C5.9 23 1 18.1 1 12ZM3 12C3 17 7 21 12 21C17 21 21 17 21 12C21 7 17 3 12 3C7 3 3 7 3 12ZM13 12V16C13 16.6 12.6 17 12 17C11.4 17 11 16.6 11 16V12C11 11.4 11.4 11 12 11C12.6 11 13 11.4 13 12ZM13 8C13 7.7 12.9 7.5 12.7 7.3C12.5 7.1 12.1 7 11.8 7C11.7425 7.05751 11.7181 7.08194 11.6887 7.09233C11.6669 7.1 11.6425 7.1 11.6 7.1C11.55 7.1 11.525 7.125 11.5 7.15C11.475 7.175 11.45 7.2 11.4 7.2L11.3 7.3C11.1 7.5 11 7.7 11 8C11 8.3 11.1 8.5 11.3 8.7C11.3 8.7 11.3 8.8 11.4 8.8C11.45 8.8 11.475 8.825 11.5 8.85C11.525 8.875 11.55 8.9 11.6 8.9C11.6575 8.9575 11.6819 8.98194 11.7113 8.99233C11.7331 9 11.7575 9 11.8 9H12C12.3 9 12.5 8.9 12.7 8.7C12.9 8.5 13 8.3 13 8Z" fill="white"/>
</mask>
<g mask="url(#mask0)">
<rect width="24" height="24" fill="#347AF0"/>
</g>
</svg>
