<svg width="24" height="24" viewBox="0 0 24 24" fill="none" xmlns="http://www.w3.org/2000/svg">
<path fill-rule="evenodd" clip-rule="evenodd" d="M17 1H7C3.7 1 1 3.7 1 7V17C1 20.3 3.7 23 7 23H17C20.3 23 23 20.3 23 17V7C23 3.7 20.3 1 17 1ZM21 17C21 19.2 19.2 21 17 21H7C4.8 21 3 19.2 3 17V7C3 4.8 4.8 3 7 3H17C19.2 3 21 4.8 21 7V17ZM11.3 7C11.8 6.9 12.3 6.9 12.8 7C15 7.3 16.7 9 16.9 11.2C17.1 12.5 16.8 13.8 16 14.9C15.2 16 14 16.7 12.7 16.9C12.5 17 12.2 17 12 17C9.6 17 7.5 15.2 7.1 12.7C6.7 10 8.6 7.4 11.3 7ZM14.5 13.7C14 14.3 13.3 14.8 12.5 14.9C10.9 15.1 9.3 14 9.1 12.4C8.8 10.8 10 9.2 11.6 9H12H12.4C13.7 9.2 14.7 10.2 14.9 11.5C15.1 12.3 14.9 13.1 14.5 13.7ZM18.4373 6.23137C18.4172 6.18284 18.4 6.14142 18.4 6.1C18.4 6 18.3 5.9 18.2 5.8C17.8 5.4 17.2 5.4 16.8 5.8C16.7 5.9 16.6 6 16.6 6.1C16.5 6.2 16.5 6.4 16.5 6.5C16.5 6.7 16.6 7 16.8 7.2C17 7.4 17.3 7.5 17.5 7.5C17.7 7.5 18 7.4 18.2 7.2C18.4 7 18.5 6.8 18.5 6.5C18.5 6.38284 18.4657 6.3 18.4373 6.23137Z" fill="black"/>
<mask id="mask0" mask-type="alpha" maskUnits="userSpaceOnUse" x="1" y="1" width="22" height="22">
<path fill-rule="evenodd" clip-rule="evenodd" d="M17 1H7C3.7 1 1 3.7 1 7V17C1 20.3 3.7 23 7 23H17C20.3 23 23 20.3 23 17V7C23 3.7 20.3 1 17 1ZM21 17C21 19.2 19.2 21 17 21H7C4.8 21 3 19.2 3 17V7C3 4.8 4.8 3 7 3H17C19.2 3 21 4.8 21 7V17ZM11.3 7C11.8 6.9 12.3 6.9 12.8 7C15 7.3 16.7 9 16.9 11.2C17.1 12.5 16.8 13.8 16 14.9C15.2 16 14 16.7 12.7 16.9C12.5 17 12.2 17 12 17C9.6 17 7.5 15.2 7.1 12.7C6.7 10 8.6 7.4 11.3 7ZM14.5 13.7C14 14.3 13.3 14.8 12.5 14.9C10.9 15.1 9.3 14 9.1 12.4C8.8 10.8 10 9.2 11.6 9H12H12.4C13.7 9.2 14.7 10.2 14.9 11.5C15.1 12.3 14.9 13.1 14.5 13.7ZM18.4373 6.23137C18.4172 6.18284 18.4 6.14142 18.4 6.1C18.4 6 18.3 5.9 18.2 5.8C17.8 5.4 17.2 5.4 16.8 5.8C16.7 5.9 16.6 6 16.6 6.1C16.5 6.2 16.5 6.4 16.5 6.5C16.5 6.7 16.6 7 16.8 7.2C17 7.4 17.3 7.5 17.5 7.5C17.7 7.5 18 7.4 18.2 7.2C18.4 7 18.5 6.8 18.5 6.5C18.5 6.38284 18.4657 6.3 18.4373 6.23137Z" fill="white"/>
</mask>
<g mask="url(#mask0)">
<rect width="24" height="24" fill="#347AF0"/>
</g>
</svg>
