<svg width="24" height="24" viewBox="0 0 24 24" fill="none" xmlns="http://www.w3.org/2000/svg">
<path fill-rule="evenodd" clip-rule="evenodd" d="M11.6 12.8885L1.6 7.88282C1.2 7.68259 1 7.38225 1 6.9818C1 6.58134 1.2 6.281 1.5 6.08077L11.5 1.07509C11.8 0.974972 12.1 0.974972 12.4 1.07509L22.4 6.08077C22.8 6.281 23 6.58134 23 6.9818C23 7.38225 22.8 7.68259 22.4 7.88282L12.4 12.8885C12.3 12.9886 12.2 12.9886 12 12.9886C11.8 12.9886 11.7 12.9886 11.6 12.8885ZM19.8 6.9818L12 3.07736L4.2 6.9818L12 10.8862L19.8 6.9818ZM22.9 16.5927C23.1 17.0933 22.9 17.694 22.5 17.8942L12.5 22.8999C12.3 23 12.2 23 12 23C11.8 23 11.7 23 11.6 22.8999L1.6 17.8942C1.1 17.694 0.9 17.0933 1.2 16.5927C1.4 16.0921 2 15.8919 2.5 16.1923L12.1 20.9977L21.7 16.1923C22 15.8919 22.6 16.0921 22.9 16.5927ZM22.5 12.8885C22.9 12.6883 23.1 12.0876 22.9 11.587C22.6 11.0865 22 10.8862 21.7 11.1866L12.1 15.992L2.5 11.1866C2 10.8862 1.4 11.0865 1.2 11.587C0.9 12.0876 1.1 12.6883 1.6 12.8885L11.6 17.8942C11.7 17.9943 11.8 17.9943 12 17.9943C12.2 17.9943 12.3 17.9943 12.5 17.8942L22.5 12.8885Z" fill="black"/>
<mask id="mask0" mask-type="alpha" maskUnits="userSpaceOnUse" x="1" y="1" width="22" height="22">
<path fill-rule="evenodd" clip-rule="evenodd" d="M11.6 12.8885L1.6 7.88282C1.2 7.68259 1 7.38225 1 6.9818C1 6.58134 1.2 6.281 1.5 6.08077L11.5 1.07509C11.8 0.974972 12.1 0.974972 12.4 1.07509L22.4 6.08077C22.8 6.281 23 6.58134 23 6.9818C23 7.38225 22.8 7.68259 22.4 7.88282L12.4 12.8885C12.3 12.9886 12.2 12.9886 12 12.9886C11.8 12.9886 11.7 12.9886 11.6 12.8885ZM19.8 6.9818L12 3.07736L4.2 6.9818L12 10.8862L19.8 6.9818ZM22.9 16.5927C23.1 17.0933 22.9 17.694 22.5 17.8942L12.5 22.8999C12.3 23 12.2 23 12 23C11.8 23 11.7 23 11.6 22.8999L1.6 17.8942C1.1 17.694 0.9 17.0933 1.2 16.5927C1.4 16.0921 2 15.8919 2.5 16.1923L12.1 20.9977L21.7 16.1923C22 15.8919 22.6 16.0921 22.9 16.5927ZM22.5 12.8885C22.9 12.6883 23.1 12.0876 22.9 11.587C22.6 11.0865 22 10.8862 21.7 11.1866L12.1 15.992L2.5 11.1866C2 10.8862 1.4 11.0865 1.2 11.587C0.9 12.0876 1.1 12.6883 1.6 12.8885L11.6 17.8942C11.7 17.9943 11.8 17.9943 12 17.9943C12.2 17.9943 12.3 17.9943 12.5 17.8942L22.5 12.8885Z" fill="white"/>
</mask>
<g mask="url(#mask0)">
<rect width="24" height="24" fill="#347AF0"/>
</g>
</svg>
