<svg width="24" height="24" viewBox="0 0 24 24" fill="none" xmlns="http://www.w3.org/2000/svg">
<path fill-rule="evenodd" clip-rule="evenodd" d="M23 12C23 15.1 21.8 17.8 19.8 19.8C17.8 21.8 15 23 12 23C8.9 23 6.2 21.8 4.2 19.8C2.2 17.8 1 15 1 12C1 9 2.2 6.2 4.2 4.2C6.2 2.2 9 1 12 1C15 1 17.8 2.2 19.8 4.2C21.8 6.2 23 9 23 12ZM16.1 14.7L19 17.6C20.3 16.1 21 14.1 21 12C21 9.9 20.2 7.9 19 6.4L16.2 9.2C16.7 10 17 11 17 12C17 13 16.7 14 16.1 14.7ZM9 12C9 10.3 10.3 9 12 9C13.7 9 15 10.3 15 12C15 13.7 13.7 15 12 15C10.3 15 9 13.7 9 12ZM14.7 7.9L17.6 5C16.1 3.7 14.1 3 12 3C9.9 3 7.9 3.7 6.4 5L9.2 7.8C10 7.3 11 7 12 7C13 7 14 7.3 14.7 7.9ZM5 6.4L7.9 9.3C7.3 10 7 11 7 12C7 13 7.3 14 7.8 14.8L5 17.6C3.8 16.1 3 14.1 3 12C3 9.9 3.7 7.9 5 6.4ZM9.3 16.1L6.4 19C7.9 20.3 9.9 21 12.1 21.1C14.2 21.1 16.2 20.3 17.7 19.1L14.8 16.2C14 16.7 13 17 12 17C11 17 10 16.7 9.3 16.1Z" fill="black"/>
<mask id="mask0" mask-type="alpha" maskUnits="userSpaceOnUse" x="1" y="1" width="22" height="22">
<path fill-rule="evenodd" clip-rule="evenodd" d="M23 12C23 15.1 21.8 17.8 19.8 19.8C17.8 21.8 15 23 12 23C8.9 23 6.2 21.8 4.2 19.8C2.2 17.8 1 15 1 12C1 9 2.2 6.2 4.2 4.2C6.2 2.2 9 1 12 1C15 1 17.8 2.2 19.8 4.2C21.8 6.2 23 9 23 12ZM16.1 14.7L19 17.6C20.3 16.1 21 14.1 21 12C21 9.9 20.2 7.9 19 6.4L16.2 9.2C16.7 10 17 11 17 12C17 13 16.7 14 16.1 14.7ZM9 12C9 10.3 10.3 9 12 9C13.7 9 15 10.3 15 12C15 13.7 13.7 15 12 15C10.3 15 9 13.7 9 12ZM14.7 7.9L17.6 5C16.1 3.7 14.1 3 12 3C9.9 3 7.9 3.7 6.4 5L9.2 7.8C10 7.3 11 7 12 7C13 7 14 7.3 14.7 7.9ZM5 6.4L7.9 9.3C7.3 10 7 11 7 12C7 13 7.3 14 7.8 14.8L5 17.6C3.8 16.1 3 14.1 3 12C3 9.9 3.7 7.9 5 6.4ZM9.3 16.1L6.4 19C7.9 20.3 9.9 21 12.1 21.1C14.2 21.1 16.2 20.3 17.7 19.1L14.8 16.2C14 16.7 13 17 12 17C11 17 10 16.7 9.3 16.1Z" fill="white"/>
</mask>
<g mask="url(#mask0)">
<rect width="24" height="24" fill="#347AF0"/>
</g>
</svg>
