<svg width="24" height="24" viewBox="0 0 24 24" fill="none" xmlns="http://www.w3.org/2000/svg">
<path fill-rule="evenodd" clip-rule="evenodd" d="M4 2C2.3 2 1 3.3 1 5C1 6.7 2.3 8 4 8C5.7 8 7 6.7 7 5C7 3.3 5.7 2 4 2ZM9 15C9 11.1 12.1 8 16 8C19.9 8 23 11.1 23 15V22C23 22.6 22.6 23 22 23H18C17.4 23 17 22.6 17 22V15C17 14.4 16.6 14 16 14C15.4 14 15 14.4 15 15V22C15 22.6 14.6 23 14 23H10C9.4 23 9 22.6 9 22V15ZM19 21H21V15C21 12.2 18.8 10 16 10C13.2 10 11 12.2 11 15V21H13V15C13 13.3 14.3 12 16 12C17.7 12 19 13.3 19 15V21ZM2 9C1.4 9 1 9.4 1 10V22C1 22.6 1.4 23 2 23H6C6.6 23 7 22.6 7 22V10C7 9.4 6.6 9 6 9H2ZM5 21V11H3V21H5ZM3 5C3 5.6 3.4 6 4 6C4.6 6 5 5.6 5 5C5 4.4 4.6 4 4 4C3.4 4 3 4.4 3 5Z" fill="black"/>
<mask id="mask0" mask-type="alpha" maskUnits="userSpaceOnUse" x="1" y="2" width="22" height="21">
<path fill-rule="evenodd" clip-rule="evenodd" d="M4 2C2.3 2 1 3.3 1 5C1 6.7 2.3 8 4 8C5.7 8 7 6.7 7 5C7 3.3 5.7 2 4 2ZM9 15C9 11.1 12.1 8 16 8C19.9 8 23 11.1 23 15V22C23 22.6 22.6 23 22 23H18C17.4 23 17 22.6 17 22V15C17 14.4 16.6 14 16 14C15.4 14 15 14.4 15 15V22C15 22.6 14.6 23 14 23H10C9.4 23 9 22.6 9 22V15ZM19 21H21V15C21 12.2 18.8 10 16 10C13.2 10 11 12.2 11 15V21H13V15C13 13.3 14.3 12 16 12C17.7 12 19 13.3 19 15V21ZM2 9C1.4 9 1 9.4 1 10V22C1 22.6 1.4 23 2 23H6C6.6 23 7 22.6 7 22V10C7 9.4 6.6 9 6 9H2ZM5 21V11H3V21H5ZM3 5C3 5.6 3.4 6 4 6C4.6 6 5 5.6 5 5C5 4.4 4.6 4 4 4C3.4 4 3 4.4 3 5Z" fill="white"/>
</mask>
<g mask="url(#mask0)">
<rect width="24" height="24" fill="#347AF0"/>
</g>
</svg>
