<svg width="24" height="24" viewBox="0 0 24 24" fill="none" xmlns="http://www.w3.org/2000/svg">
<path fill-rule="evenodd" clip-rule="evenodd" d="M17.6049 14.7719C17.9073 14.5713 18.1088 14.3706 18.3104 14.1699L21.3339 11.1596C23.6519 8.85177 23.5512 4.93843 21.0316 2.7309C18.7135 0.423033 14.9846 0.423033 12.6665 2.7309L10.9532 4.43672C10.5501 4.83808 10.5501 5.44014 10.9532 5.84151C11.3563 6.24287 11.961 6.24287 12.3642 5.84151L14.0775 4.13569C15.69 2.63056 18.1088 2.63056 19.7214 4.13569C21.3339 5.64082 21.3339 8.14937 19.8222 9.75485L16.7987 12.7651C16.6979 12.9658 16.5971 13.0661 16.3955 13.1665C14.5814 14.4709 12.0618 14.1699 10.7516 12.3637C10.4493 11.9624 9.7438 11.862 9.34067 12.1631C8.93753 12.4641 8.83675 13.1665 9.1391 13.5678C10.3485 15.1733 12.1626 15.9761 13.9767 15.9761C15.2869 15.9761 16.4963 15.5747 17.6049 14.7719ZM9.7438 19.7891L11.4571 18.0832C11.8603 17.6819 12.5657 17.7822 12.9689 18.1836C13.372 18.5849 13.372 19.187 12.9689 19.5884L11.2556 21.2942C10.0462 22.3979 8.5344 23 7.02264 23C5.51089 23 3.99913 22.3979 2.78973 21.2942C0.471707 18.9863 0.370924 15.1733 2.68895 12.7651L5.71246 9.75485L6.31716 9.15279C7.62735 8.14937 9.23988 7.748 10.7516 8.04903C12.2634 8.24971 13.6744 9.05245 14.6822 10.3569C14.9846 10.7583 14.8838 11.4607 14.4806 11.7617C14.0775 12.0627 13.372 11.9624 13.0697 11.561C12.465 10.6579 11.5579 10.1562 10.4493 9.95553C9.34067 9.85519 8.33283 10.1562 7.42578 10.7583L7.02264 11.1596L3.99913 14.1699C2.48738 15.675 2.48738 18.2839 4.09992 19.7891C5.71246 21.2942 8.13126 21.2942 9.7438 19.7891Z" fill="black"/>
<mask id="mask0" mask-type="alpha" maskUnits="userSpaceOnUse" x="1" y="1" width="22" height="22">
<path fill-rule="evenodd" clip-rule="evenodd" d="M17.6049 14.7719C17.9073 14.5713 18.1088 14.3706 18.3104 14.1699L21.3339 11.1596C23.6519 8.85177 23.5512 4.93843 21.0316 2.7309C18.7135 0.423033 14.9846 0.423033 12.6665 2.7309L10.9532 4.43672C10.5501 4.83808 10.5501 5.44014 10.9532 5.84151C11.3563 6.24287 11.961 6.24287 12.3642 5.84151L14.0775 4.13569C15.69 2.63056 18.1088 2.63056 19.7214 4.13569C21.3339 5.64082 21.3339 8.14937 19.8222 9.75485L16.7987 12.7651C16.6979 12.9658 16.5971 13.0661 16.3955 13.1665C14.5814 14.4709 12.0618 14.1699 10.7516 12.3637C10.4493 11.9624 9.7438 11.862 9.34067 12.1631C8.93753 12.4641 8.83675 13.1665 9.1391 13.5678C10.3485 15.1733 12.1626 15.9761 13.9767 15.9761C15.2869 15.9761 16.4963 15.5747 17.6049 14.7719ZM9.7438 19.7891L11.4571 18.0832C11.8603 17.6819 12.5657 17.7822 12.9689 18.1836C13.372 18.5849 13.372 19.187 12.9689 19.5884L11.2556 21.2942C10.0462 22.3979 8.5344 23 7.02264 23C5.51089 23 3.99913 22.3979 2.78973 21.2942C0.471707 18.9863 0.370924 15.1733 2.68895 12.7651L5.71246 9.75485L6.31716 9.15279C7.62735 8.14937 9.23988 7.748 10.7516 8.04903C12.2634 8.24971 13.6744 9.05245 14.6822 10.3569C14.9846 10.7583 14.8838 11.4607 14.4806 11.7617C14.0775 12.0627 13.372 11.9624 13.0697 11.561C12.465 10.6579 11.5579 10.1562 10.4493 9.95553C9.34067 9.85519 8.33283 10.1562 7.42578 10.7583L7.02264 11.1596L3.99913 14.1699C2.48738 15.675 2.48738 18.2839 4.09992 19.7891C5.71246 21.2942 8.13126 21.2942 9.7438 19.7891Z" fill="white"/>
</mask>
<g mask="url(#mask0)">
<rect width="24" height="24" fill="#347AF0"/>
</g>
</svg>
