<svg width="24" height="24" viewBox="0 0 24 24" fill="none" xmlns="http://www.w3.org/2000/svg">
<path fill-rule="evenodd" clip-rule="evenodd" d="M10 17C10 17.6 9.6 18 9 18H6C2.7 18 0 15.3 0 12C0 8.7 2.7 6 6 6H9C9.6 6 10 6.4 10 7C10 7.6 9.6 8 9 8H6C3.8 8 2 9.8 2 12C2 14.2 3.8 16 6 16H9C9.6 16 10 16.4 10 17ZM18 6H15C14.4 6 14 6.4 14 7C14 7.6 14.4 8 15 8H18C20.2 8 22 9.8 22 12C22 14.2 20.2 16 18 16H15C14.4 16 14 16.4 14 17C14 17.6 14.4 18 15 18H18C21.3 18 24 15.3 24 12C24 8.7 21.3 6 18 6ZM8 13C7.4 13 7 12.6 7 12C7 11.4 7.4 11 8 11H16C16.6 11 17 11.4 17 12C17 12.6 16.6 13 16 13H8Z" fill="black"/>
<mask id="mask0" mask-type="alpha" maskUnits="userSpaceOnUse" x="0" y="6" width="24" height="12">
<path fill-rule="evenodd" clip-rule="evenodd" d="M10 17C10 17.6 9.6 18 9 18H6C2.7 18 0 15.3 0 12C0 8.7 2.7 6 6 6H9C9.6 6 10 6.4 10 7C10 7.6 9.6 8 9 8H6C3.8 8 2 9.8 2 12C2 14.2 3.8 16 6 16H9C9.6 16 10 16.4 10 17ZM18 6H15C14.4 6 14 6.4 14 7C14 7.6 14.4 8 15 8H18C20.2 8 22 9.8 22 12C22 14.2 20.2 16 18 16H15C14.4 16 14 16.4 14 17C14 17.6 14.4 18 15 18H18C21.3 18 24 15.3 24 12C24 8.7 21.3 6 18 6ZM8 13C7.4 13 7 12.6 7 12C7 11.4 7.4 11 8 11H16C16.6 11 17 11.4 17 12C17 12.6 16.6 13 16 13H8Z" fill="white"/>
</mask>
<g mask="url(#mask0)">
<rect width="24" height="24" fill="#347AF0"/>
</g>
</svg>
