<svg width="24" height="24" viewBox="0 0 24 24" fill="none" xmlns="http://www.w3.org/2000/svg">
<path fill-rule="evenodd" clip-rule="evenodd" d="M13 6V2C13 1.4 12.6 1 12 1C11.4 1 11 1.4 11 2V6C11 6.6 11.4 7 12 7C12.6 7 13 6.6 13 6ZM11 18C11 17.4 11.4 17 12 17C12.6 17 13 17.4 13 18V22C13 22.6 12.6 23 12 23C11.4 23 11 22.6 11 22V18ZM5.6 4.2C5.2 3.8 4.6 3.8 4.2 4.2C3.8 4.6 3.8 5.2 4.2 5.6L7 8.4C7.2 8.6 7.5 8.7 7.7 8.7C7.9 8.7 8.2 8.6 8.4 8.4C8.8 8 8.8 7.4 8.4 7L5.6 4.2ZM15.5 16.9C15.1 16.5 15.1 15.9 15.5 15.5C15.9 15.1 16.5 15.1 16.9 15.5L19.7 18.3C20.1 18.7 20.1 19.3 19.7 19.7C19.5 19.9 19.2 20 19 20C18.8 20 18.5 19.9 18.3 19.7L15.5 16.9ZM7 12C7 11.4 6.6 11 6 11H2C1.4 11 1 11.4 1 12C1 12.6 1.4 13 2 13H6C6.6 13 7 12.6 7 12ZM18 11H22C22.6 11 23 11.4 23 12C23 12.6 22.6 13 22 13H18C17.4 13 17 12.6 17 12C17 11.4 17.4 11 18 11ZM4.3 18.3C3.9 18.7 3.9 19.3 4.3 19.7C4.5 19.9 4.8 20 5 20C5.2 20 5.5 19.9 5.7 19.7L8.5 16.9C8.9 16.5 8.9 15.9 8.5 15.5C8.1 15.1 7.4 15.1 7.1 15.5L4.3 18.3ZM16.9 8.5C16.7 8.7 16.5 8.8 16.2 8.8C16 8.8 15.7 8.7 15.5 8.5C15.1 8.1 15.1 7.5 15.5 7.1L18.3 4.3C18.7 3.9 19.3 3.9 19.7 4.3C20.1 4.7 20.1 5.3 19.7 5.7L16.9 8.5Z" fill="black"/>
<mask id="mask0" mask-type="alpha" maskUnits="userSpaceOnUse" x="1" y="1" width="22" height="22">
<path fill-rule="evenodd" clip-rule="evenodd" d="M13 6V2C13 1.4 12.6 1 12 1C11.4 1 11 1.4 11 2V6C11 6.6 11.4 7 12 7C12.6 7 13 6.6 13 6ZM11 18C11 17.4 11.4 17 12 17C12.6 17 13 17.4 13 18V22C13 22.6 12.6 23 12 23C11.4 23 11 22.6 11 22V18ZM5.6 4.2C5.2 3.8 4.6 3.8 4.2 4.2C3.8 4.6 3.8 5.2 4.2 5.6L7 8.4C7.2 8.6 7.5 8.7 7.7 8.7C7.9 8.7 8.2 8.6 8.4 8.4C8.8 8 8.8 7.4 8.4 7L5.6 4.2ZM15.5 16.9C15.1 16.5 15.1 15.9 15.5 15.5C15.9 15.1 16.5 15.1 16.9 15.5L19.7 18.3C20.1 18.7 20.1 19.3 19.7 19.7C19.5 19.9 19.2 20 19 20C18.8 20 18.5 19.9 18.3 19.7L15.5 16.9ZM7 12C7 11.4 6.6 11 6 11H2C1.4 11 1 11.4 1 12C1 12.6 1.4 13 2 13H6C6.6 13 7 12.6 7 12ZM18 11H22C22.6 11 23 11.4 23 12C23 12.6 22.6 13 22 13H18C17.4 13 17 12.6 17 12C17 11.4 17.4 11 18 11ZM4.3 18.3C3.9 18.7 3.9 19.3 4.3 19.7C4.5 19.9 4.8 20 5 20C5.2 20 5.5 19.9 5.7 19.7L8.5 16.9C8.9 16.5 8.9 15.9 8.5 15.5C8.1 15.1 7.4 15.1 7.1 15.5L4.3 18.3ZM16.9 8.5C16.7 8.7 16.5 8.8 16.2 8.8C16 8.8 15.7 8.7 15.5 8.5C15.1 8.1 15.1 7.5 15.5 7.1L18.3 4.3C18.7 3.9 19.3 3.9 19.7 4.3C20.1 4.7 20.1 5.3 19.7 5.7L16.9 8.5Z" fill="white"/>
</mask>
<g mask="url(#mask0)">
<rect width="24" height="24" fill="#347AF0"/>
</g>
</svg>
