<svg width="24" height="24" viewBox="0 0 24 24" fill="none" xmlns="http://www.w3.org/2000/svg">
<path fill-rule="evenodd" clip-rule="evenodd" d="M19 23C20.7 23 22 21.7 22 20V4C22 2.3 20.7 1 19 1H14C13.4 1 13 1.4 13 2C13 2.6 13.4 3 14 3H19C19.6 3 20 3.4 20 4V20C20 20.6 19.6 21 19 21H14C13.4 21 13 21.4 13 22C13 22.6 13.4 23 14 23H19ZM15.9 11.6C16 11.9 16 12.2 15.9 12.4C15.9 12.5 15.8 12.6 15.7 12.7L11.7 16.7C11.5 16.9 11.2 17 11 17C10.8 17 10.5 16.9 10.3 16.7C9.9 16.3 9.9 15.7 10.3 15.3L12.6 13H3C2.4 13 2 12.6 2 12C2 11.4 2.4 11 3 11H12.6L10.3 8.7C9.9 8.3 9.9 7.7 10.3 7.3C10.7 6.9 11.3 6.9 11.7 7.3L15.7 11.3C15.75 11.35 15.775 11.4 15.8 11.45C15.825 11.5 15.85 11.55 15.9 11.6Z" fill="black"/>
<mask id="mask0" mask-type="alpha" maskUnits="userSpaceOnUse" x="2" y="1" width="20" height="22">
<path fill-rule="evenodd" clip-rule="evenodd" d="M19 23C20.7 23 22 21.7 22 20V4C22 2.3 20.7 1 19 1H14C13.4 1 13 1.4 13 2C13 2.6 13.4 3 14 3H19C19.6 3 20 3.4 20 4V20C20 20.6 19.6 21 19 21H14C13.4 21 13 21.4 13 22C13 22.6 13.4 23 14 23H19ZM15.9 11.6C16 11.9 16 12.2 15.9 12.4C15.9 12.5 15.8 12.6 15.7 12.7L11.7 16.7C11.5 16.9 11.2 17 11 17C10.8 17 10.5 16.9 10.3 16.7C9.9 16.3 9.9 15.7 10.3 15.3L12.6 13H3C2.4 13 2 12.6 2 12C2 11.4 2.4 11 3 11H12.6L10.3 8.7C9.9 8.3 9.9 7.7 10.3 7.3C10.7 6.9 11.3 6.9 11.7 7.3L15.7 11.3C15.75 11.35 15.775 11.4 15.8 11.45C15.825 11.5 15.85 11.55 15.9 11.6Z" fill="white"/>
</mask>
<g mask="url(#mask0)">
<rect width="24" height="24" fill="#347AF0"/>
</g>
</svg>
