<svg width="24" height="24" viewBox="0 0 24 24" fill="none" xmlns="http://www.w3.org/2000/svg">
<path fill-rule="evenodd" clip-rule="evenodd" d="M2 10C2 4.5 6.5 0 12 0C17.5 0 22 4.5 22 10C22 17.4 12.9 23.6 12.6 23.8C12.4 23.9 12.2 24 12 24C11.8 24 11.6 23.9 11.4 23.8C11.1 23.6 2 17.4 2 10ZM4 10C4 15.4 10.1 20.4 12 21.8C13.9 20.4 20 15.4 20 10C20 5.6 16.4 2 12 2C7.6 2 4 5.6 4 10ZM12 6C9.8 6 8 7.8 8 10C8 12.2 9.8 14 12 14C14.2 14 16 12.2 16 10C16 7.8 14.2 6 12 6ZM10 10C10 11.1 10.9 12 12 12C13.1 12 14 11.1 14 10C14 8.9 13.1 8 12 8C10.9 8 10 8.9 10 10Z" fill="black"/>
<mask id="mask0" mask-type="alpha" maskUnits="userSpaceOnUse" x="2" y="0" width="20" height="24">
<path fill-rule="evenodd" clip-rule="evenodd" d="M2 10C2 4.5 6.5 0 12 0C17.5 0 22 4.5 22 10C22 17.4 12.9 23.6 12.6 23.8C12.4 23.9 12.2 24 12 24C11.8 24 11.6 23.9 11.4 23.8C11.1 23.6 2 17.4 2 10ZM4 10C4 15.4 10.1 20.4 12 21.8C13.9 20.4 20 15.4 20 10C20 5.6 16.4 2 12 2C7.6 2 4 5.6 4 10ZM12 6C9.8 6 8 7.8 8 10C8 12.2 9.8 14 12 14C14.2 14 16 12.2 16 10C16 7.8 14.2 6 12 6ZM10 10C10 11.1 10.9 12 12 12C13.1 12 14 11.1 14 10C14 8.9 13.1 8 12 8C10.9 8 10 8.9 10 10Z" fill="white"/>
</mask>
<g mask="url(#mask0)">
<rect width="24" height="24" fill="#347AF0"/>
</g>
</svg>
