<svg width="24" height="24" viewBox="0 0 24 24" fill="none" xmlns="http://www.w3.org/2000/svg">
<path fill-rule="evenodd" clip-rule="evenodd" d="M22.5 1.14932C22.8 0.950226 23.2 0.950226 23.5 1.14932C23.8 1.34842 24 1.64706 24 2.04525V17.9729C24 18.371 23.8 18.6697 23.5 18.8688L16.5 22.8507H16.4H16.3C16.2 22.9502 16.1 22.9502 16 22.9502C15.8 22.9502 15.7 22.9502 15.5 22.8507L8 19.0679L1.5 22.8507C1.2 23.0498 0.8 23.0498 0.5 22.8507C0.2 22.6516 0 22.3529 0 21.9548V6.02715C0 5.62896 0.2 5.33032 0.4 5.13122L7.4 1.14932H7.5H7.6C7.8 1.04977 7.9 1.04977 8 1.04977C8.1 1.04977 8.2 1.04977 8.3 1.14932H8.4L16 4.93213L22.5 1.14932ZM15 6.62443L9 3.63801V17.3756L15 20.362V6.62443ZM2 6.62443L7 3.73756V17.3756L2 20.2624V6.62443ZM17 20.2624L22 17.3756V3.73756L17 6.62443V20.2624Z" fill="black"/>
<mask id="mask0" mask-type="alpha" maskUnits="userSpaceOnUse" x="0" y="1" width="24" height="22">
<path fill-rule="evenodd" clip-rule="evenodd" d="M22.5 1.14932C22.8 0.950226 23.2 0.950226 23.5 1.14932C23.8 1.34842 24 1.64706 24 2.04525V17.9729C24 18.371 23.8 18.6697 23.5 18.8688L16.5 22.8507H16.4H16.3C16.2 22.9502 16.1 22.9502 16 22.9502C15.8 22.9502 15.7 22.9502 15.5 22.8507L8 19.0679L1.5 22.8507C1.2 23.0498 0.8 23.0498 0.5 22.8507C0.2 22.6516 0 22.3529 0 21.9548V6.02715C0 5.62896 0.2 5.33032 0.4 5.13122L7.4 1.14932H7.5H7.6C7.8 1.04977 7.9 1.04977 8 1.04977C8.1 1.04977 8.2 1.04977 8.3 1.14932H8.4L16 4.93213L22.5 1.14932ZM15 6.62443L9 3.63801V17.3756L15 20.362V6.62443ZM2 6.62443L7 3.73756V17.3756L2 20.2624V6.62443ZM17 20.2624L22 17.3756V3.73756L17 6.62443V20.2624Z" fill="white"/>
</mask>
<g mask="url(#mask0)">
<rect width="24" height="24" fill="#347AF0"/>
</g>
</svg>
