<svg width="24" height="24" viewBox="0 0 24 24" fill="none" xmlns="http://www.w3.org/2000/svg">
<path fill-rule="evenodd" clip-rule="evenodd" d="M5 2H8C8.6 2 9 2.4 9 3C9 3.6 8.6 4 8 4H5C4.4 4 4 4.4 4 5V8C4 8.6 3.6 9 3 9C2.4 9 2 8.6 2 8V5C2 3.3 3.3 2 5 2ZM8 22C8.6 22 9 21.6 9 21C9 20.4 8.6 20 8 20H5C4.4 20 4 19.6 4 19V16C4 15.4 3.6 15 3 15C2.4 15 2 15.4 2 16V19C2 20.7 3.3 22 5 22H8ZM21 15C20.4 15 20 15.4 20 16V19C20 19.6 19.6 20 19 20H16C15.4 20 15 20.4 15 21C15 21.6 15.4 22 16 22H19C20.7 22 22 20.7 22 19V16C22 15.4 21.6 15 21 15ZM16 2H19C20.7 2 22 3.3 22 5V8C22 8.6 21.6 9 21 9C20.4 9 20 8.6 20 8V5C20 4.4 19.6 4 19 4H16C15.4 4 15 3.6 15 3C15 2.4 15.4 2 16 2Z" fill="black"/>
<mask id="mask0" mask-type="alpha" maskUnits="userSpaceOnUse" x="2" y="2" width="20" height="20">
<path fill-rule="evenodd" clip-rule="evenodd" d="M5 2H8C8.6 2 9 2.4 9 3C9 3.6 8.6 4 8 4H5C4.4 4 4 4.4 4 5V8C4 8.6 3.6 9 3 9C2.4 9 2 8.6 2 8V5C2 3.3 3.3 2 5 2ZM8 22C8.6 22 9 21.6 9 21C9 20.4 8.6 20 8 20H5C4.4 20 4 19.6 4 19V16C4 15.4 3.6 15 3 15C2.4 15 2 15.4 2 16V19C2 20.7 3.3 22 5 22H8ZM21 15C20.4 15 20 15.4 20 16V19C20 19.6 19.6 20 19 20H16C15.4 20 15 20.4 15 21C15 21.6 15.4 22 16 22H19C20.7 22 22 20.7 22 19V16C22 15.4 21.6 15 21 15ZM16 2H19C20.7 2 22 3.3 22 5V8C22 8.6 21.6 9 21 9C20.4 9 20 8.6 20 8V5C20 4.4 19.6 4 19 4H16C15.4 4 15 3.6 15 3C15 2.4 15.4 2 16 2Z" fill="white"/>
</mask>
<g mask="url(#mask0)">
<rect width="24" height="24" fill="#347AF0"/>
</g>
</svg>
