<svg width="24" height="24" viewBox="0 0 24 24" fill="none" xmlns="http://www.w3.org/2000/svg">
<path fill-rule="evenodd" clip-rule="evenodd" d="M3 7H21C21.6 7 22 6.6 22 6C22 5.4 21.6 5 21 5H3C2.4 5 2 5.4 2 6C2 6.6 2.4 7 3 7ZM22 12C22 12.6 21.6 13 21 13H3C2.4 13 2 12.6 2 12C2 11.4 2.4 11 3 11H21C21.6 11 22 11.4 22 12ZM3 17H21C21.6 17 22 17.4 22 18C22 18.6 21.6 19 21 19H3C2.4 19 2 18.6 2 18C2 17.4 2.4 17 3 17Z" fill="black"/>
<mask id="mask0" mask-type="alpha" maskUnits="userSpaceOnUse" x="2" y="5" width="20" height="14">
<path fill-rule="evenodd" clip-rule="evenodd" d="M3 7H21C21.6 7 22 6.6 22 6C22 5.4 21.6 5 21 5H3C2.4 5 2 5.4 2 6C2 6.6 2.4 7 3 7ZM22 12C22 12.6 21.6 13 21 13H3C2.4 13 2 12.6 2 12C2 11.4 2.4 11 3 11H21C21.6 11 22 11.4 22 12ZM3 17H21C21.6 17 22 17.4 22 18C22 18.6 21.6 19 21 19H3C2.4 19 2 18.6 2 18C2 17.4 2.4 17 3 17Z" fill="white"/>
</mask>
<g mask="url(#mask0)">
<rect width="24" height="24" fill="#347AF0"/>
</g>
</svg>
