<svg width="24" height="24" viewBox="0 0 24 24" fill="none" xmlns="http://www.w3.org/2000/svg">
<path fill-rule="evenodd" clip-rule="evenodd" d="M13.0176 2C17.908 2.2 21.7006 6.1 22 10.9V11.4C22 12.9 21.7006 14.4 21.002 15.7C19.4051 18.9 16.1115 20.9 12.5186 20.9C11.1213 20.9 9.82388 20.6 8.62623 20.1L3.33661 21.9C3.2368 22 3.137 22 3.0372 22C2.73778 22 2.53817 21.9 2.23876 21.7C2.03915 21.5 1.93935 21.1 2.03915 20.7L3.83563 15.4C3.33661 14.2 3.0372 12.8 3.0372 11.5C3.0372 7.9 5.03328 4.6 8.32682 3C9.62428 2.3 11.0215 2 12.5186 2H13.0176ZM19.2055 14.9C19.7045 13.8 20.0039 12.7 20.0039 11.5V11C19.7045 7.2 16.7104 4.2 12.9178 4H12.5186C11.4208 4 10.2231 4.3 9.22506 4.8C6.63015 6.1 5.03328 8.6 5.03328 11.5C5.03328 12.6 5.33269 13.8 5.83171 14.8C6.03132 15.1 6.03132 15.3 5.93152 15.6L4.63406 19.4L8.42662 18.1C8.72604 18.1 9.02545 18.1 9.22506 18.2C10.2231 18.7 11.4208 19 12.5186 19C15.4129 19 17.908 17.5 19.2055 14.9Z" fill="black"/>
<mask id="mask0" mask-type="alpha" maskUnits="userSpaceOnUse" x="2" y="2" width="20" height="20">
<path fill-rule="evenodd" clip-rule="evenodd" d="M13.0176 2C17.908 2.2 21.7006 6.1 22 10.9V11.4C22 12.9 21.7006 14.4 21.002 15.7C19.4051 18.9 16.1115 20.9 12.5186 20.9C11.1213 20.9 9.82388 20.6 8.62623 20.1L3.33661 21.9C3.2368 22 3.137 22 3.0372 22C2.73778 22 2.53817 21.9 2.23876 21.7C2.03915 21.5 1.93935 21.1 2.03915 20.7L3.83563 15.4C3.33661 14.2 3.0372 12.8 3.0372 11.5C3.0372 7.9 5.03328 4.6 8.32682 3C9.62428 2.3 11.0215 2 12.5186 2H13.0176ZM19.2055 14.9C19.7045 13.8 20.0039 12.7 20.0039 11.5V11C19.7045 7.2 16.7104 4.2 12.9178 4H12.5186C11.4208 4 10.2231 4.3 9.22506 4.8C6.63015 6.1 5.03328 8.6 5.03328 11.5C5.03328 12.6 5.33269 13.8 5.83171 14.8C6.03132 15.1 6.03132 15.3 5.93152 15.6L4.63406 19.4L8.42662 18.1C8.72604 18.1 9.02545 18.1 9.22506 18.2C10.2231 18.7 11.4208 19 12.5186 19C15.4129 19 17.908 17.5 19.2055 14.9Z" fill="white"/>
</mask>
<g mask="url(#mask0)">
<rect width="24" height="24" fill="#347AF0"/>
</g>
</svg>
