<svg width="24" height="24" viewBox="0 0 24 24" fill="none" xmlns="http://www.w3.org/2000/svg">
<path fill-rule="evenodd" clip-rule="evenodd" d="M8.1 3.18672C8.5 1.29461 10.1 0 12 0C13.1 0 14.1 0.39834 14.8 1.19502C15.6 1.89212 16 2.88797 16 3.9834V9.26141C16 9.85892 15.6 10.2573 15 10.2573C14.4 10.2573 14 9.85892 14 9.26141V3.9834C14 3.48548 13.8 2.98755 13.4 2.58921C13 2.19087 12.5 1.9917 12 1.9917C11.1 1.9917 10.2 2.6888 10 3.58506C9.9 4.08299 9.4 4.48133 8.9 4.38174C8.3 4.28216 8 3.68465 8.1 3.18672ZM17.8 16.332L23.7 22.2075C24.1 22.6058 24.1 23.2033 23.7 23.7012C23.5 23.9004 23.2 24 23 24C22.8 24 22.5 23.9004 22.3 23.7012L16.9 18.3237C15.8 19.2199 14.4 19.7178 13 19.917V21.9087H16C16.6 21.9087 17 22.3071 17 22.9046C17 23.5021 16.6 23.9004 16 23.9004H8C7.4 23.9004 7 23.5021 7 22.9046C7 22.3071 7.4 21.9087 8 21.9087H11V19.917C9.3 19.7178 7.7 19.0207 6.4 17.7261C4.9 16.2324 4 14.1411 4 11.9502V9.95851C4 9.361 4.4 8.96266 5 8.96266C5.6 8.96266 6 9.361 6 9.95851V11.9502C6 13.5436 6.6 15.1369 7.8 16.2324C8.9 17.3278 10.3 17.9253 11.8 17.9253H12H12.2C13.4 17.9253 14.5 17.527 15.5 16.8299L14 15.3361C13.4 15.7344 12.7 15.9336 12 15.9336C10.9 15.9336 9.9 15.5353 9.2 14.7386C8.4 14.0415 8 13.0456 8 11.9502V9.361L0.3 1.69295C-0.1 1.29461 -0.1 0.697095 0.3 0.298755C0.7 -0.0995851 1.3 -0.0995851 1.7 0.298755L9.7 8.26556L17.6 16.0332L17.7 16.1328C17.7 16.1826 17.725 16.2075 17.75 16.2324C17.775 16.2573 17.8 16.2822 17.8 16.332ZM10.6 13.3444C11 13.7427 11.5 13.9419 12 13.9419C12.2 13.9419 12.3 13.9419 12.5 13.8423L10 11.3527V11.9502C10 12.4481 10.2 12.9461 10.6 13.3444ZM18 11.9502C18 12.3485 18 12.6473 17.9 13.0456C17.8 13.5436 18.2 14.0415 18.7 14.1411H18.9C19.4 14.1411 19.8 13.8423 19.9 13.3444C20 12.8465 20 12.4481 20 11.9502V9.95851C20 9.361 19.6 8.96266 19 8.96266C18.4 8.96266 18 9.361 18 9.95851V11.9502Z" fill="black"/>
<mask id="mask0" mask-type="alpha" maskUnits="userSpaceOnUse" x="0" y="0" width="24" height="24">
<path fill-rule="evenodd" clip-rule="evenodd" d="M8.1 3.18672C8.5 1.29461 10.1 0 12 0C13.1 0 14.1 0.39834 14.8 1.19502C15.6 1.89212 16 2.88797 16 3.9834V9.26141C16 9.85892 15.6 10.2573 15 10.2573C14.4 10.2573 14 9.85892 14 9.26141V3.9834C14 3.48548 13.8 2.98755 13.4 2.58921C13 2.19087 12.5 1.9917 12 1.9917C11.1 1.9917 10.2 2.6888 10 3.58506C9.9 4.08299 9.4 4.48133 8.9 4.38174C8.3 4.28216 8 3.68465 8.1 3.18672ZM17.8 16.332L23.7 22.2075C24.1 22.6058 24.1 23.2033 23.7 23.7012C23.5 23.9004 23.2 24 23 24C22.8 24 22.5 23.9004 22.3 23.7012L16.9 18.3237C15.8 19.2199 14.4 19.7178 13 19.917V21.9087H16C16.6 21.9087 17 22.3071 17 22.9046C17 23.5021 16.6 23.9004 16 23.9004H8C7.4 23.9004 7 23.5021 7 22.9046C7 22.3071 7.4 21.9087 8 21.9087H11V19.917C9.3 19.7178 7.7 19.0207 6.4 17.7261C4.9 16.2324 4 14.1411 4 11.9502V9.95851C4 9.361 4.4 8.96266 5 8.96266C5.6 8.96266 6 9.361 6 9.95851V11.9502C6 13.5436 6.6 15.1369 7.8 16.2324C8.9 17.3278 10.3 17.9253 11.8 17.9253H12H12.2C13.4 17.9253 14.5 17.527 15.5 16.8299L14 15.3361C13.4 15.7344 12.7 15.9336 12 15.9336C10.9 15.9336 9.9 15.5353 9.2 14.7386C8.4 14.0415 8 13.0456 8 11.9502V9.361L0.3 1.69295C-0.1 1.29461 -0.1 0.697095 0.3 0.298755C0.7 -0.0995851 1.3 -0.0995851 1.7 0.298755L9.7 8.26556L17.6 16.0332L17.7 16.1328C17.7 16.1826 17.725 16.2075 17.75 16.2324C17.775 16.2573 17.8 16.2822 17.8 16.332ZM10.6 13.3444C11 13.7427 11.5 13.9419 12 13.9419C12.2 13.9419 12.3 13.9419 12.5 13.8423L10 11.3527V11.9502C10 12.4481 10.2 12.9461 10.6 13.3444ZM18 11.9502C18 12.3485 18 12.6473 17.9 13.0456C17.8 13.5436 18.2 14.0415 18.7 14.1411H18.9C19.4 14.1411 19.8 13.8423 19.9 13.3444C20 12.8465 20 12.4481 20 11.9502V9.95851C20 9.361 19.6 8.96266 19 8.96266C18.4 8.96266 18 9.361 18 9.95851V11.9502Z" fill="white"/>
</mask>
<g mask="url(#mask0)">
<rect width="24" height="24" fill="#347AF0"/>
</g>
</svg>
