<svg width="24" height="24" viewBox="0 0 24 24" fill="none" xmlns="http://www.w3.org/2000/svg">
<path fill-rule="evenodd" clip-rule="evenodd" d="M12 16C14.2 16 16 14.2 16 12V4C16 1.8 14.2 0 12 0C9.8 0 8 1.8 8 4V12C8 14.2 9.8 16 12 16ZM10 4C10 2.9 10.9 2 12 2C13.1 2 14 2.9 14 4V12C14 13.1 13.1 14 12 14C10.9 14 10 13.1 10 12V4ZM20 12V10C20 9.4 19.6 9 19 9C18.4 9 18 9.4 18 10V12C18 15.3 15.3 18 12 18C8.7 18 6 15.3 6 12V10C6 9.4 5.6 9 5 9C4.4 9 4 9.4 4 10V12C4 16 7.1 19.4 11 19.9V22H8C7.4 22 7 22.4 7 23C7 23.6 7.4 24 8 24H16C16.6 24 17 23.6 17 23C17 22.4 16.6 22 16 22H13V19.9C16.9 19.4 20 16.1 20 12Z" fill="black"/>
<mask id="mask0" mask-type="alpha" maskUnits="userSpaceOnUse" x="4" y="0" width="16" height="24">
<path fill-rule="evenodd" clip-rule="evenodd" d="M12 16C14.2 16 16 14.2 16 12V4C16 1.8 14.2 0 12 0C9.8 0 8 1.8 8 4V12C8 14.2 9.8 16 12 16ZM10 4C10 2.9 10.9 2 12 2C13.1 2 14 2.9 14 4V12C14 13.1 13.1 14 12 14C10.9 14 10 13.1 10 12V4ZM20 12V10C20 9.4 19.6 9 19 9C18.4 9 18 9.4 18 10V12C18 15.3 15.3 18 12 18C8.7 18 6 15.3 6 12V10C6 9.4 5.6 9 5 9C4.4 9 4 9.4 4 10V12C4 16 7.1 19.4 11 19.9V22H8C7.4 22 7 22.4 7 23C7 23.6 7.4 24 8 24H16C16.6 24 17 23.6 17 23C17 22.4 16.6 22 16 22H13V19.9C16.9 19.4 20 16.1 20 12Z" fill="white"/>
</mask>
<g mask="url(#mask0)">
<rect width="24" height="24" fill="#347AF0"/>
</g>
</svg>
