<svg width="24" height="24" viewBox="0 0 24 24" fill="none" xmlns="http://www.w3.org/2000/svg">
<path fill-rule="evenodd" clip-rule="evenodd" d="M15 3V6C15 7.7 16.3 9 18 9H21C21.6 9 22 8.6 22 8C22 7.4 21.6 7 21 7H18C17.4 7 17 6.6 17 6V3C17 2.4 16.6 2 16 2C15.4 2 15 2.4 15 3ZM3 15H6C7.7 15 9 16.3 9 18V21C9 21.6 8.6 22 8 22C7.4 22 7 21.6 7 21V18C7 17.4 6.6 17 6 17H3C2.4 17 2 16.6 2 16C2 15.4 2.4 15 3 15ZM21 15H18C16.3 15 15 16.3 15 18V21C15 21.6 15.4 22 16 22C16.6 22 17 21.6 17 21V18C17 17.4 17.4 17 18 17H21C21.6 17 22 16.6 22 16C22 15.4 21.6 15 21 15ZM7 3C7 2.4 7.4 2 8 2C8.6 2 9 2.4 9 3V6C9 7.7 7.7 9 6 9H3C2.4 9 2 8.6 2 8C2 7.4 2.4 7 3 7H6C6.6 7 7 6.6 7 6V3Z" fill="black"/>
<mask id="mask0" mask-type="alpha" maskUnits="userSpaceOnUse" x="2" y="2" width="20" height="20">
<path fill-rule="evenodd" clip-rule="evenodd" d="M15 3V6C15 7.7 16.3 9 18 9H21C21.6 9 22 8.6 22 8C22 7.4 21.6 7 21 7H18C17.4 7 17 6.6 17 6V3C17 2.4 16.6 2 16 2C15.4 2 15 2.4 15 3ZM3 15H6C7.7 15 9 16.3 9 18V21C9 21.6 8.6 22 8 22C7.4 22 7 21.6 7 21V18C7 17.4 6.6 17 6 17H3C2.4 17 2 16.6 2 16C2 15.4 2.4 15 3 15ZM21 15H18C16.3 15 15 16.3 15 18V21C15 21.6 15.4 22 16 22C16.6 22 17 21.6 17 21V18C17 17.4 17.4 17 18 17H21C21.6 17 22 16.6 22 16C22 15.4 21.6 15 21 15ZM7 3C7 2.4 7.4 2 8 2C8.6 2 9 2.4 9 3V6C9 7.7 7.7 9 6 9H3C2.4 9 2 8.6 2 8C2 7.4 2.4 7 3 7H6C6.6 7 7 6.6 7 6V3Z" fill="white"/>
</mask>
<g mask="url(#mask0)">
<rect width="24" height="24" fill="#347AF0"/>
</g>
</svg>
