<svg width="24" height="24" viewBox="0 0 24 24" fill="none" xmlns="http://www.w3.org/2000/svg">
<path fill-rule="evenodd" clip-rule="evenodd" d="M20.3 2.3C20.7 1.9 21.3 1.9 21.7 2.3C22.1 2.7 22.1 3.3 21.7 3.7L16.4 9H20C20.6 9 21 9.4 21 10C21 10.6 20.6 11 20 11H14C13.9 11 13.7 11 13.6 10.9C13.4 10.8 13.2 10.6 13.1 10.4C13 10.3 13 10.1 13 10V4C13 3.4 13.4 3 14 3C14.6 3 15 3.4 15 4V7.6L20.3 2.3ZM11 14C11 13.9 11 13.7 10.9 13.6C10.8 13.4 10.6 13.2 10.4 13.1C10.3 13 10.1 13 10 13H4C3.4 13 3 13.4 3 14C3 14.6 3.4 15 4 15H7.6L2.3 20.3C1.9 20.7 1.9 21.3 2.3 21.7C2.5 21.9 2.7 22 3 22C3.3 22 3.5 21.9 3.7 21.7L9 16.4V20C9 20.6 9.4 21 10 21C10.6 21 11 20.6 11 20V14Z" fill="black"/>
<mask id="mask0" mask-type="alpha" maskUnits="userSpaceOnUse" x="2" y="2" width="20" height="20">
<path fill-rule="evenodd" clip-rule="evenodd" d="M20.3 2.3C20.7 1.9 21.3 1.9 21.7 2.3C22.1 2.7 22.1 3.3 21.7 3.7L16.4 9H20C20.6 9 21 9.4 21 10C21 10.6 20.6 11 20 11H14C13.9 11 13.7 11 13.6 10.9C13.4 10.8 13.2 10.6 13.1 10.4C13 10.3 13 10.1 13 10V4C13 3.4 13.4 3 14 3C14.6 3 15 3.4 15 4V7.6L20.3 2.3ZM11 14C11 13.9 11 13.7 10.9 13.6C10.8 13.4 10.6 13.2 10.4 13.1C10.3 13 10.1 13 10 13H4C3.4 13 3 13.4 3 14C3 14.6 3.4 15 4 15H7.6L2.3 20.3C1.9 20.7 1.9 21.3 2.3 21.7C2.5 21.9 2.7 22 3 22C3.3 22 3.5 21.9 3.7 21.7L9 16.4V20C9 20.6 9.4 21 10 21C10.6 21 11 20.6 11 20V14Z" fill="white"/>
</mask>
<g mask="url(#mask0)">
<rect width="24" height="24" fill="#347AF0"/>
</g>
</svg>
