<svg width="24" height="24" viewBox="0 0 24 24" fill="none" xmlns="http://www.w3.org/2000/svg">
<path fill-rule="evenodd" clip-rule="evenodd" d="M19 2H5C3.3 2 2 3.3 2 5V19C2 20.7 3.3 22 5 22H19C20.7 22 22 20.7 22 19V5C22 3.3 20.7 2 19 2ZM20 19C20 19.6 19.6 20 19 20H5C4.4 20 4 19.6 4 19V5C4 4.4 4.4 4 5 4H19C19.6 4 20 4.4 20 5V19ZM16 13C16.6 13 17 12.6 17 12C17 11.4 16.6 11 16 11H8C7.4 11 7 11.4 7 12C7 12.6 7.4 13 8 13H16Z" fill="black"/>
<mask id="mask0" mask-type="alpha" maskUnits="userSpaceOnUse" x="2" y="2" width="20" height="20">
<path fill-rule="evenodd" clip-rule="evenodd" d="M19 2H5C3.3 2 2 3.3 2 5V19C2 20.7 3.3 22 5 22H19C20.7 22 22 20.7 22 19V5C22 3.3 20.7 2 19 2ZM20 19C20 19.6 19.6 20 19 20H5C4.4 20 4 19.6 4 19V5C4 4.4 4.4 4 5 4H19C19.6 4 20 4.4 20 5V19ZM16 13C16.6 13 17 12.6 17 12C17 11.4 16.6 11 16 11H8C7.4 11 7 11.4 7 12C7 12.6 7.4 13 8 13H16Z" fill="white"/>
</mask>
<g mask="url(#mask0)">
<rect width="24" height="24" fill="#347AF0"/>
</g>
</svg>
