<svg width="24" height="24" viewBox="0 0 24 24" fill="none" xmlns="http://www.w3.org/2000/svg">
<path fill-rule="evenodd" clip-rule="evenodd" d="M9.32504 10.8362C10.1891 11.6982 11.0552 12.5623 11.9255 13.4326C12.5729 12.7852 13.2191 12.1401 13.8645 11.4959C15.797 9.56687 17.7217 7.64563 19.6464 5.69302V15.6651H19.8511H22.9953C23.1627 15.6651 23.2185 15.6093 23.2744 15.4605C23.8325 13.6 23.9813 11.7209 23.6278 9.80464C23.1069 6.97674 21.7674 4.61395 19.5534 2.79069C16.6511 0.39069 13.3023 -0.465124 9.61854 0.241853C6.82784 0.781388 4.53947 2.17674 2.73482 4.35348C1.09761 6.30697 0.223191 8.57674 0.0371444 11.107C-0.0744835 12.6139 0.111563 14.0651 0.53947 15.4977C0.576679 15.6465 0.651098 15.6837 0.799935 15.6837H3.94412C3.96848 15.6837 3.99639 15.6802 4.02784 15.6762C4.06845 15.671 4.11496 15.6651 4.16738 15.6651V5.67441C5.88935 7.40878 7.60308 9.11839 9.32504 10.8362ZM6.73482 18.0837H1.74877C3.57203 21.2651 7.83249 24.3721 13.3209 23.7209C15.1255 23.5163 16.7999 22.9023 18.3255 21.9163C19.8697 20.9302 21.0976 19.6465 22.0837 18.0651H17.0604V11.7953C16.1953 12.6605 15.3348 13.5163 14.4744 14.3721C13.6139 15.2279 12.7534 16.0837 11.8883 16.9488L6.73482 11.7953V18.0837Z" fill="#0D1F3C"/>
</svg>
