<svg width="24" height="24" viewBox="0 0 24 24" fill="none" xmlns="http://www.w3.org/2000/svg">
<path fill-rule="evenodd" clip-rule="evenodd" d="M20.3954 12.0503C20.6962 11.7487 21.1977 11.7487 21.4986 11.9497C21.7994 12.1508 22 12.5528 22 12.8543C21.6991 15.5678 20.4957 17.9799 18.3896 19.6884C16.5843 21.196 14.2777 22 11.971 22H11.0684C5.55246 21.4975 1.54087 16.5729 2.04232 11.0452C2.44348 6.22111 6.25449 2.40201 11.0684 2C11.4696 2 11.8707 2.20101 12.0713 2.50251C12.2719 2.90452 12.1716 3.30653 11.971 3.60804C11.0684 4.91457 10.6672 6.52261 10.8678 8.13065C11.1687 9.63819 11.971 11.0452 13.2748 12.0503C15.3809 13.6583 18.2893 13.6583 20.3954 12.0503ZM11.3693 19.99C13.4754 20.191 15.5814 19.5879 17.1861 18.1809C18.2893 17.2764 19.0916 16.0704 19.593 14.6633C17.0858 15.5678 14.2777 15.1658 12.0713 13.5578C10.2661 12.3518 9.1629 10.4422 8.86203 8.33166C8.66145 7.02513 8.86203 5.71859 9.36348 4.41206C6.55536 5.41709 4.44927 8.13065 4.14841 11.2462C3.74725 15.6683 6.95652 19.5879 11.3693 19.99Z" fill="black"/>
<mask id="mask0" mask-type="alpha" maskUnits="userSpaceOnUse" x="2" y="2" width="20" height="20">
<path fill-rule="evenodd" clip-rule="evenodd" d="M20.3954 12.0503C20.6962 11.7487 21.1977 11.7487 21.4986 11.9497C21.7994 12.1508 22 12.5528 22 12.8543C21.6991 15.5678 20.4957 17.9799 18.3896 19.6884C16.5843 21.196 14.2777 22 11.971 22H11.0684C5.55246 21.4975 1.54087 16.5729 2.04232 11.0452C2.44348 6.22111 6.25449 2.40201 11.0684 2C11.4696 2 11.8707 2.20101 12.0713 2.50251C12.2719 2.90452 12.1716 3.30653 11.971 3.60804C11.0684 4.91457 10.6672 6.52261 10.8678 8.13065C11.1687 9.63819 11.971 11.0452 13.2748 12.0503C15.3809 13.6583 18.2893 13.6583 20.3954 12.0503ZM11.3693 19.99C13.4754 20.191 15.5814 19.5879 17.1861 18.1809C18.2893 17.2764 19.0916 16.0704 19.593 14.6633C17.0858 15.5678 14.2777 15.1658 12.0713 13.5578C10.2661 12.3518 9.1629 10.4422 8.86203 8.33166C8.66145 7.02513 8.86203 5.71859 9.36348 4.41206C6.55536 5.41709 4.44927 8.13065 4.14841 11.2462C3.74725 15.6683 6.95652 19.5879 11.3693 19.99Z" fill="white"/>
</mask>
<g mask="url(#mask0)">
<rect width="24" height="24" fill="#347AF0"/>
</g>
</svg>
