<svg width="24" height="24" viewBox="0 0 24 24" fill="none" xmlns="http://www.w3.org/2000/svg">
<path d="M22.7244 12.6883L19.7175 15.6917C19.5171 15.8919 19.3166 15.992 19.0159 15.992C18.7153 15.992 18.5148 15.8919 18.3144 15.6917C17.9134 15.2912 17.9134 14.6906 18.3144 14.2901L19.6173 12.9886H13.0023V19.5961L14.3052 18.2947C14.7062 17.8942 15.3075 17.8942 15.7084 18.2947C16.1093 18.6951 16.1093 19.2958 15.7084 19.6962L12.7016 22.6997C12.6014 22.7998 12.5011 22.8999 12.4009 22.8999C12.3007 23 12.1002 23 12 23C11.8998 23 11.6993 23 11.5991 22.8999C11.4989 22.7998 11.3986 22.7998 11.2984 22.6997L8.29157 19.6962C7.89066 19.2958 7.89066 18.6951 8.29157 18.2947C8.69248 17.8942 9.29385 17.8942 9.69476 18.2947L10.9977 19.5961V12.9886H4.38269L5.68565 14.2901C6.08656 14.6906 6.08656 15.2912 5.68565 15.6917C5.48519 15.8919 5.28474 15.992 4.98405 15.992C4.68337 15.992 4.48292 15.8919 4.28246 15.6917L1.27563 12.6883C1.1754 12.5882 1.07517 12.4881 1.07517 12.3879C0.974943 12.1877 0.974943 11.8874 1.07517 11.587C1.1754 11.4869 1.1754 11.3868 1.27563 11.2867L4.28246 8.28328C4.68337 7.88282 5.28474 7.88282 5.68565 8.28328C6.08656 8.68373 6.08656 9.28441 5.68565 9.68487L4.38269 10.9863H10.9977V4.37884L9.69476 5.68032C9.29385 6.08077 8.69248 6.08077 8.29157 5.68032C7.89066 5.27986 7.89066 4.67918 8.29157 4.27873L11.2984 1.27531C11.3986 1.1752 11.4989 1.07509 11.5991 1.07509C11.7995 0.974972 12.1002 0.974972 12.4009 1.07509C12.5011 1.1752 12.6014 1.1752 12.7016 1.27531L15.7084 4.27873C16.1093 4.67918 16.1093 5.27986 15.7084 5.68032C15.508 5.88055 15.3075 5.98066 15.0068 5.98066C14.7062 5.98066 14.5057 5.88055 14.3052 5.68032L13.0023 4.37884V10.9863H19.6173L18.3144 9.68487C17.9134 9.28441 17.9134 8.68373 18.3144 8.28328C18.7153 7.88282 19.3166 7.88282 19.7175 8.28328L22.7244 11.2867C22.8246 11.3868 22.9248 11.4869 22.9248 11.587C23.0251 11.7873 23.0251 12.0876 22.9248 12.3879C22.9248 12.4881 22.8246 12.5882 22.7244 12.6883Z" fill="black"/>
<mask id="mask0" mask-type="alpha" maskUnits="userSpaceOnUse" x="1" y="1" width="22" height="22">
<path d="M22.7244 12.6883L19.7175 15.6917C19.5171 15.8919 19.3166 15.992 19.0159 15.992C18.7153 15.992 18.5148 15.8919 18.3144 15.6917C17.9134 15.2912 17.9134 14.6906 18.3144 14.2901L19.6173 12.9886H13.0023V19.5961L14.3052 18.2947C14.7062 17.8942 15.3075 17.8942 15.7084 18.2947C16.1093 18.6951 16.1093 19.2958 15.7084 19.6962L12.7016 22.6997C12.6014 22.7998 12.5011 22.8999 12.4009 22.8999C12.3007 23 12.1002 23 12 23C11.8998 23 11.6993 23 11.5991 22.8999C11.4989 22.7998 11.3986 22.7998 11.2984 22.6997L8.29157 19.6962C7.89066 19.2958 7.89066 18.6951 8.29157 18.2947C8.69248 17.8942 9.29385 17.8942 9.69476 18.2947L10.9977 19.5961V12.9886H4.38269L5.68565 14.2901C6.08656 14.6906 6.08656 15.2912 5.68565 15.6917C5.48519 15.8919 5.28474 15.992 4.98405 15.992C4.68337 15.992 4.48292 15.8919 4.28246 15.6917L1.27563 12.6883C1.1754 12.5882 1.07517 12.4881 1.07517 12.3879C0.974943 12.1877 0.974943 11.8874 1.07517 11.587C1.1754 11.4869 1.1754 11.3868 1.27563 11.2867L4.28246 8.28328C4.68337 7.88282 5.28474 7.88282 5.68565 8.28328C6.08656 8.68373 6.08656 9.28441 5.68565 9.68487L4.38269 10.9863H10.9977V4.37884L9.69476 5.68032C9.29385 6.08077 8.69248 6.08077 8.29157 5.68032C7.89066 5.27986 7.89066 4.67918 8.29157 4.27873L11.2984 1.27531C11.3986 1.1752 11.4989 1.07509 11.5991 1.07509C11.7995 0.974972 12.1002 0.974972 12.4009 1.07509C12.5011 1.1752 12.6014 1.1752 12.7016 1.27531L15.7084 4.27873C16.1093 4.67918 16.1093 5.27986 15.7084 5.68032C15.508 5.88055 15.3075 5.98066 15.0068 5.98066C14.7062 5.98066 14.5057 5.88055 14.3052 5.68032L13.0023 4.37884V10.9863H19.6173L18.3144 9.68487C17.9134 9.28441 17.9134 8.68373 18.3144 8.28328C18.7153 7.88282 19.3166 7.88282 19.7175 8.28328L22.7244 11.2867C22.8246 11.3868 22.9248 11.4869 22.9248 11.587C23.0251 11.7873 23.0251 12.0876 22.9248 12.3879C22.9248 12.4881 22.8246 12.5882 22.7244 12.6883Z" fill="white"/>
</mask>
<g mask="url(#mask0)">
<rect width="24" height="24" fill="#347AF0"/>
</g>
</svg>
