<svg width="24" height="24" viewBox="0 0 24 24" fill="none" xmlns="http://www.w3.org/2000/svg">
<path fill-rule="evenodd" clip-rule="evenodd" d="M21.6 2.2C21.4 2 21.1 2 20.8 2L8.8 4C8.4 4.1 8 4.5 8 5V16H5C3.3 16 2 17.3 2 19C2 20.7 3.3 22 5 22H7C8.7 22 10 20.7 10 19V17V5.8L20 4.1V14H17C15.3 14 14 15.3 14 17C14 18.7 15.3 20 17 20H19C20.7 20 22 18.7 22 17V15V3C22 2.7 21.9 2.4 21.6 2.2ZM8 19C8 19.6 7.6 20 7 20H5C4.4 20 4 19.6 4 19C4 18.4 4.4 18 5 18H8V19ZM19 18C19.6 18 20 17.6 20 17V16H17C16.4 16 16 16.4 16 17C16 17.6 16.4 18 17 18H19Z" fill="black"/>
<mask id="mask0" mask-type="alpha" maskUnits="userSpaceOnUse" x="2" y="2" width="20" height="20">
<path fill-rule="evenodd" clip-rule="evenodd" d="M21.6 2.2C21.4 2 21.1 2 20.8 2L8.8 4C8.4 4.1 8 4.5 8 5V16H5C3.3 16 2 17.3 2 19C2 20.7 3.3 22 5 22H7C8.7 22 10 20.7 10 19V17V5.8L20 4.1V14H17C15.3 14 14 15.3 14 17C14 18.7 15.3 20 17 20H19C20.7 20 22 18.7 22 17V15V3C22 2.7 21.9 2.4 21.6 2.2ZM8 19C8 19.6 7.6 20 7 20H5C4.4 20 4 19.6 4 19C4 18.4 4.4 18 5 18H8V19ZM19 18C19.6 18 20 17.6 20 17V16H17C16.4 16 16 16.4 16 17C16 17.6 16.4 18 17 18H19Z" fill="white"/>
</mask>
<g mask="url(#mask0)">
<rect width="24" height="24" fill="#347AF0"/>
</g>
</svg>
