<svg width="24" height="24" viewBox="0 0 24 24" fill="none" xmlns="http://www.w3.org/2000/svg">
<path fill-rule="evenodd" clip-rule="evenodd" d="M12.8722 2.69869L19.8996 21.6631C20.1004 21.9626 20 22.4616 19.5984 22.7611C19.498 22.8609 19.1969 22.9607 18.9961 22.9607C18.7953 22.9607 18.6949 22.9607 18.4941 22.8609L11.9686 19.1678L5.44314 22.8609C5.14196 23.0605 4.64 23.0605 4.33882 22.7611C4.03765 22.4616 3.93725 22.0624 4.03765 21.6631L11.0651 2.69869C11.1655 2.29944 11.5671 2 11.9686 2C12.3702 2 12.7718 2.29944 12.8722 2.69869ZM11.9686 16.9719C12.1694 16.9719 12.2698 16.9719 12.4706 17.0717L17.0886 19.7667L11.9686 5.8927L6.84863 19.6669L11.4667 17.0717C11.6675 16.9719 11.7678 16.9719 11.9686 16.9719Z" fill="black"/>
<mask id="mask0" mask-type="alpha" maskUnits="userSpaceOnUse" x="4" y="2" width="16" height="21">
<path fill-rule="evenodd" clip-rule="evenodd" d="M12.8722 2.69869L19.8996 21.6631C20.1004 21.9626 20 22.4616 19.5984 22.7611C19.498 22.8609 19.1969 22.9607 18.9961 22.9607C18.7953 22.9607 18.6949 22.9607 18.4941 22.8609L11.9686 19.1678L5.44314 22.8609C5.14196 23.0605 4.64 23.0605 4.33882 22.7611C4.03765 22.4616 3.93725 22.0624 4.03765 21.6631L11.0651 2.69869C11.1655 2.29944 11.5671 2 11.9686 2C12.3702 2 12.7718 2.29944 12.8722 2.69869ZM11.9686 16.9719C12.1694 16.9719 12.2698 16.9719 12.4706 17.0717L17.0886 19.7667L11.9686 5.8927L6.84863 19.6669L11.4667 17.0717C11.6675 16.9719 11.7678 16.9719 11.9686 16.9719Z" fill="white"/>
</mask>
<g mask="url(#mask0)">
<rect width="24" height="24" fill="#347AF0"/>
</g>
</svg>
