<svg width="24" height="24" viewBox="0 0 24 24" fill="none" xmlns="http://www.w3.org/2000/svg">
<path fill-rule="evenodd" clip-rule="evenodd" d="M20.6023 2.10354C21.0024 1.90452 21.4024 2.00403 21.7025 2.30255C22.0025 2.60107 22.1025 2.9991 22.0025 3.49664L13.0014 22.403C12.8014 22.801 12.5014 23 12.1013 23H12.0013C11.6013 22.9005 11.2012 22.602 11.1012 22.2039L9.20097 14.8404L1.8001 12.9498C1.30004 12.8503 1 12.4523 1 12.0542C1 11.6562 1.20002 11.2582 1.60007 11.0592L20.6023 2.10354ZM11.0012 13.7459L12.3013 18.9202L18.9021 5.08875L5.00048 11.6562L10.3011 13.0493C10.6011 13.1488 10.9012 13.3478 11.0012 13.7459Z" fill="black"/>
<mask id="mask0" mask-type="alpha" maskUnits="userSpaceOnUse" x="1" y="2" width="22" height="21">
<path fill-rule="evenodd" clip-rule="evenodd" d="M20.6023 2.10354C21.0024 1.90452 21.4024 2.00403 21.7025 2.30255C22.0025 2.60107 22.1025 2.9991 22.0025 3.49664L13.0014 22.403C12.8014 22.801 12.5014 23 12.1013 23H12.0013C11.6013 22.9005 11.2012 22.602 11.1012 22.2039L9.20097 14.8404L1.8001 12.9498C1.30004 12.8503 1 12.4523 1 12.0542C1 11.6562 1.20002 11.2582 1.60007 11.0592L20.6023 2.10354ZM11.0012 13.7459L12.3013 18.9202L18.9021 5.08875L5.00048 11.6562L10.3011 13.0493C10.6011 13.1488 10.9012 13.3478 11.0012 13.7459Z" fill="white"/>
</mask>
<g mask="url(#mask0)">
<rect width="24" height="24" fill="#347AF0"/>
</g>
</svg>
