<svg width="24" height="24" viewBox="0 0 24 24" fill="none" xmlns="http://www.w3.org/2000/svg">
<path fill-rule="evenodd" clip-rule="evenodd" d="M16.7285 1.3L22.6018 7.2C22.8009 7.3 22.9005 7.6 23 7.9V16.1C23 16.4 22.9005 16.6 22.7014 16.8L16.8281 22.7C16.629 22.9 16.4299 23 16.1312 23H7.86878C7.57014 23 7.27149 22.9 7.17195 22.8L1.29864 16.9C1.09955 16.7 1 16.5 1 16.2V7.9C1 7.6 1.09955 7.3 1.29864 7.2L7.17195 1.3C7.27149 1.1 7.57014 1 7.86878 1H16.0317C16.3303 1 16.629 1.1 16.7285 1.3ZM15.6335 21L20.9095 15.7V8.3L15.733 3H8.26697L2.99095 8.3V15.7L8.26697 21H15.6335Z" fill="black"/>
<mask id="mask0" mask-type="alpha" maskUnits="userSpaceOnUse" x="1" y="1" width="22" height="22">
<path fill-rule="evenodd" clip-rule="evenodd" d="M16.7285 1.3L22.6018 7.2C22.8009 7.3 22.9005 7.6 23 7.9V16.1C23 16.4 22.9005 16.6 22.7014 16.8L16.8281 22.7C16.629 22.9 16.4299 23 16.1312 23H7.86878C7.57014 23 7.27149 22.9 7.17195 22.8L1.29864 16.9C1.09955 16.7 1 16.5 1 16.2V7.9C1 7.6 1.09955 7.3 1.29864 7.2L7.17195 1.3C7.27149 1.1 7.57014 1 7.86878 1H16.0317C16.3303 1 16.629 1.1 16.7285 1.3ZM15.6335 21L20.9095 15.7V8.3L15.733 3H8.26697L2.99095 8.3V15.7L8.26697 21H15.6335Z" fill="white"/>
</mask>
<g mask="url(#mask0)">
<rect width="24" height="24" fill="#347AF0"/>
</g>
</svg>
