<svg width="24" height="24" viewBox="0 0 24 24" fill="none" xmlns="http://www.w3.org/2000/svg">
<path fill-rule="evenodd" clip-rule="evenodd" d="M23.5528 5.75527C23.5374 2.59977 20.986 0.0440897 17.8305 0.0235028H17.8211C16.2926 0.0147432 14.8233 0.613857 13.7368 1.68891C12.6503 2.76396 12.0356 4.22679 12.0281 5.75527C12.1173 8.87362 14.6709 11.3553 17.7905 11.3553C20.9101 11.3553 23.4637 8.87362 23.5528 5.75527ZM17.854 1.92939C19.9449 1.95408 21.6199 3.66909 21.5952 5.75997H21.5717C21.5906 6.76898 21.2036 7.74334 20.4976 8.46442C19.7915 9.1855 18.8256 9.59292 17.8164 9.59527H17.7881C16.7793 9.58658 15.8153 9.17681 15.109 8.45639C14.4027 7.73596 14.0121 6.7641 14.0234 5.75527V5.67056C14.0481 3.57968 15.7631 1.90469 17.854 1.92939ZM0.0470548 17.7571C0.0298116 20.9199 2.57373 23.5009 5.73637 23.5294C7.26733 23.5356 8.738 22.9331 9.82453 21.8546C10.9111 20.776 11.5243 19.3098 11.5293 17.7788C11.524 14.616 8.96174 12.0532 5.79897 12.0473C2.63621 12.0413 0.064298 14.5944 0.0470548 17.7571ZM5.68931 21.6282C3.59843 21.5905 1.93398 19.865 1.97167 17.7741V17.7223C1.99016 16.3698 2.72884 15.1298 3.90944 14.4695C5.09004 13.8093 6.53321 13.829 7.69532 14.5213C8.85743 15.2136 9.56193 16.4733 9.54343 17.8259V17.9106C9.50575 20.0014 7.7802 21.6659 5.68931 21.6282ZM10.1693 1.97174C10.2143 2.04436 10.2561 2.11275 10.296 2.17787C10.4188 2.37859 10.5226 2.54827 10.6399 2.71527C11.8919 4.68806 11.8117 7.22551 10.4375 9.11527C8.92352 11.2154 6.19118 12.0424 3.76667 11.1343C1.34216 10.2262 -0.174601 7.80771 0.063578 5.2297C0.301757 2.65168 2.23594 0.55203 4.78578 0.103503C5.08157 0.055864 5.38035 0.0291311 5.6799 0.0235028C6.23833 0.0235028 6.79729 0.027163 7.35624 0.0308231C8.47415 0.0381434 9.59206 0.0454636 10.7058 0.0235028C11.454 0.0235028 11.5481 0.352915 11.5387 0.964679L11.5382 1.00092C11.5294 1.59616 11.5222 2.07764 10.7058 1.96233C10.5271 1.9468 10.3473 1.94996 10.1693 1.97174ZM9.55284 5.79291C9.59313 3.70203 7.93079 1.97438 5.8399 1.93409C3.74902 1.89381 2.02136 3.55615 1.98108 5.64703V5.74115C1.96763 7.09372 2.67679 8.35071 3.84142 9.03864C5.00605 9.72657 6.44922 9.74093 7.6273 9.07629C8.80538 8.41166 9.53939 7.16901 9.55284 5.81644V5.79291Z" fill="#0D1F3C"/>
</svg>
