<svg width="24" height="24" viewBox="0 0 24 24" fill="none" xmlns="http://www.w3.org/2000/svg">
<path fill-rule="evenodd" clip-rule="evenodd" d="M21.3 5.2265L13.3 1.29487C12.5 0.901709 11.5 0.901709 10.6 1.29487L2.6 5.2265C1.6 5.71795 1 6.70085 1 7.78205V17.1197C1 18.2009 1.6 19.2821 2.7 19.7735L10.7 23.7051C11.1 23.9017 11.6 24 12 24C12.5 24 12.9 23.9017 13.3 23.7051L21.3 19.7735C22.3 19.2821 23 18.2991 23 17.1197V7.78205C23 6.70085 22.4 5.71795 21.3 5.2265ZM11.6 2.96581C11.7 2.86752 11.9 2.86752 12 2.86752C12.2 2.86752 12.3 2.86752 12.4 2.96581L19.8 6.60256L17 7.97863L9.2 4.1453L11.6 2.96581ZM3.5 18.1026L11 21.7393V12.1068L3 8.17521V17.2179C3 17.5128 3.2 17.906 3.5 18.1026ZM4.2 6.60256L7 5.2265L14.8 9.05983L12 10.4359L4.2 6.60256ZM20.4 18.1026C20.8 17.906 21 17.6111 21 17.2179V8.17521L13 12.1068V21.7393L20.4 18.1026Z" fill="black"/>
<mask id="mask0" mask-type="alpha" maskUnits="userSpaceOnUse" x="1" y="1" width="22" height="23">
<path fill-rule="evenodd" clip-rule="evenodd" d="M21.3 5.2265L13.3 1.29487C12.5 0.901709 11.5 0.901709 10.6 1.29487L2.6 5.2265C1.6 5.71795 1 6.70085 1 7.78205V17.1197C1 18.2009 1.6 19.2821 2.7 19.7735L10.7 23.7051C11.1 23.9017 11.6 24 12 24C12.5 24 12.9 23.9017 13.3 23.7051L21.3 19.7735C22.3 19.2821 23 18.2991 23 17.1197V7.78205C23 6.70085 22.4 5.71795 21.3 5.2265ZM11.6 2.96581C11.7 2.86752 11.9 2.86752 12 2.86752C12.2 2.86752 12.3 2.86752 12.4 2.96581L19.8 6.60256L17 7.97863L9.2 4.1453L11.6 2.96581ZM3.5 18.1026L11 21.7393V12.1068L3 8.17521V17.2179C3 17.5128 3.2 17.906 3.5 18.1026ZM4.2 6.60256L7 5.2265L14.8 9.05983L12 10.4359L4.2 6.60256ZM20.4 18.1026C20.8 17.906 21 17.6111 21 17.2179V8.17521L13 12.1068V21.7393L20.4 18.1026Z" fill="white"/>
</mask>
<g mask="url(#mask0)">
<rect width="24" height="24" fill="#347AF0"/>
</g>
</svg>
