<svg width="24" height="24" viewBox="0 0 24 24" fill="none" xmlns="http://www.w3.org/2000/svg">
<path d="M22.6368 12.1947L13.3163 21.0531C11.8824 22.4159 10.0388 23 8.19519 23C6.35158 23 4.50797 22.3186 3.07406 21.0531C0.308648 18.4248 0.308648 14.0442 3.07406 11.4159L12.4969 2.46018C13.4187 1.58407 14.7502 1 16.0817 1C17.4132 1 18.7447 1.48673 19.6665 2.46018C21.715 4.40708 21.715 7.42478 19.6665 9.37168L10.2436 18.3274C9.01457 19.4956 7.06854 19.4956 5.94189 18.3274C5.42978 17.8407 5.12251 17.0619 5.12251 16.2832C5.12251 15.5044 5.42978 14.7257 6.04431 14.2389L14.7502 5.9646C15.1599 5.57522 15.7745 5.57522 16.1841 5.9646C16.5938 6.35398 16.5938 6.93805 16.1841 7.32743L7.47823 15.6018C7.27338 15.7965 7.17096 15.9912 7.17096 16.2832C7.17096 16.5752 7.27338 16.7699 7.47823 16.9646C7.88792 17.354 8.50245 17.354 8.91214 16.9646L18.335 8.00885C19.5641 6.84071 19.5641 4.99115 18.335 3.92035C17.2084 2.84956 15.1599 2.84956 14.0333 3.92035L4.6104 12.8761C2.56194 14.823 2.56194 17.8407 4.6104 19.7876C6.65885 21.7345 9.83395 21.7345 11.8824 19.7876L21.3053 10.8319C21.715 10.4425 22.3295 10.4425 22.7392 10.8319C23.1489 11.2212 23.0465 11.8053 22.6368 12.1947Z" fill="black"/>
<mask id="mask0" mask-type="alpha" maskUnits="userSpaceOnUse" x="1" y="1" width="22" height="22">
<path d="M22.6368 12.1947L13.3163 21.0531C11.8824 22.4159 10.0388 23 8.19519 23C6.35158 23 4.50797 22.3186 3.07406 21.0531C0.308648 18.4248 0.308648 14.0442 3.07406 11.4159L12.4969 2.46018C13.4187 1.58407 14.7502 1 16.0817 1C17.4132 1 18.7447 1.48673 19.6665 2.46018C21.715 4.40708 21.715 7.42478 19.6665 9.37168L10.2436 18.3274C9.01457 19.4956 7.06854 19.4956 5.94189 18.3274C5.42978 17.8407 5.12251 17.0619 5.12251 16.2832C5.12251 15.5044 5.42978 14.7257 6.04431 14.2389L14.7502 5.9646C15.1599 5.57522 15.7745 5.57522 16.1841 5.9646C16.5938 6.35398 16.5938 6.93805 16.1841 7.32743L7.47823 15.6018C7.27338 15.7965 7.17096 15.9912 7.17096 16.2832C7.17096 16.5752 7.27338 16.7699 7.47823 16.9646C7.88792 17.354 8.50245 17.354 8.91214 16.9646L18.335 8.00885C19.5641 6.84071 19.5641 4.99115 18.335 3.92035C17.2084 2.84956 15.1599 2.84956 14.0333 3.92035L4.6104 12.8761C2.56194 14.823 2.56194 17.8407 4.6104 19.7876C6.65885 21.7345 9.83395 21.7345 11.8824 19.7876L21.3053 10.8319C21.715 10.4425 22.3295 10.4425 22.7392 10.8319C23.1489 11.2212 23.0465 11.8053 22.6368 12.1947Z" fill="white"/>
</mask>
<g mask="url(#mask0)">
<rect width="24" height="24" fill="#347AF0"/>
</g>
</svg>
