<svg width="24" height="24" viewBox="0 0 24 24" fill="none" xmlns="http://www.w3.org/2000/svg">
<path fill-rule="evenodd" clip-rule="evenodd" d="M6 3H10C10.6 3 11 3.4 11 4V20C11 20.6 10.6 21 10 21H6C5.4 21 5 20.6 5 20V4C5 3.4 5.4 3 6 3ZM7 19H9V5H7V19ZM18 3H14C13.4 3 13 3.4 13 4V20C13 20.6 13.4 21 14 21H18C18.6 21 19 20.6 19 20V4C19 3.4 18.6 3 18 3ZM15 19H17V5H15V19Z" fill="black"/>
<mask id="mask0" mask-type="alpha" maskUnits="userSpaceOnUse" x="5" y="3" width="14" height="18">
<path fill-rule="evenodd" clip-rule="evenodd" d="M6 3H10C10.6 3 11 3.4 11 4V20C11 20.6 10.6 21 10 21H6C5.4 21 5 20.6 5 20V4C5 3.4 5.4 3 6 3ZM7 19H9V5H7V19ZM18 3H14C13.4 3 13 3.4 13 4V20C13 20.6 13.4 21 14 21H18C18.6 21 19 20.6 19 20V4C19 3.4 18.6 3 18 3ZM15 19H17V5H15V19Z" fill="white"/>
</mask>
<g mask="url(#mask0)">
<rect width="24" height="24" fill="#347AF0"/>
</g>
</svg>
