<svg width="24" height="24" viewBox="0 0 24 24" fill="none" xmlns="http://www.w3.org/2000/svg">
<path fill-rule="evenodd" clip-rule="evenodd" d="M1 12C1 5.9 5.9 1 12 1C18.1 1 23 5.9 23 12C23 18.1 18.1 23 12 23C5.9 23 1 18.1 1 12ZM3 12C3 17 7 21 12 21C17 21 21 17 21 12C21 7 17 3 12 3C7 3 3 7 3 12ZM11 15C11 15.6 10.6 16 10 16C9.4 16 9 15.6 9 15V9C9 8.4 9.4 8 10 8C10.6 8 11 8.4 11 9V15ZM14 16C14.6 16 15 15.6 15 15V9C15 8.4 14.6 8 14 8C13.4 8 13 8.4 13 9V15C13 15.6 13.4 16 14 16Z" fill="black"/>
<mask id="mask0" mask-type="alpha" maskUnits="userSpaceOnUse" x="1" y="1" width="22" height="22">
<path fill-rule="evenodd" clip-rule="evenodd" d="M1 12C1 5.9 5.9 1 12 1C18.1 1 23 5.9 23 12C23 18.1 18.1 23 12 23C5.9 23 1 18.1 1 12ZM3 12C3 17 7 21 12 21C17 21 21 17 21 12C21 7 17 3 12 3C7 3 3 7 3 12ZM11 15C11 15.6 10.6 16 10 16C9.4 16 9 15.6 9 15V9C9 8.4 9.4 8 10 8C10.6 8 11 8.4 11 9V15ZM14 16C14.6 16 15 15.6 15 15V9C15 8.4 14.6 8 14 8C13.4 8 13 8.4 13 9V15C13 15.6 13.4 16 14 16Z" fill="white"/>
</mask>
<g mask="url(#mask0)">
<rect width="24" height="24" fill="#347AF0"/>
</g>
</svg>
