<svg width="24" height="24" viewBox="0 0 24 24" fill="none" xmlns="http://www.w3.org/2000/svg">
<path fill-rule="evenodd" clip-rule="evenodd" d="M23 12C23 18.0751 18.0751 23 12 23C5.92487 23 1 18.0751 1 12C1 5.92487 5.92487 1 12 1C18.0751 1 23 5.92487 23 12ZM12.8243 6.44235C12.9187 6.11491 13.2496 5.92864 13.5644 6.0257C13.7176 6.0703 13.8473 6.17684 13.9247 6.32161C14.0021 6.46638 14.0207 6.63737 13.9764 6.79651L12.3762 12.6296C12.3456 12.7458 12.283 12.8501 12.1962 12.9296L8.99581 15.8462C8.74557 16.0722 8.36724 16.0462 8.14771 15.7878C7.9307 15.5272 7.95568 15.1332 8.20371 14.9045L11.2721 12.1088L12.8243 6.44235Z" fill="#FFA500"/>
<mask id="mask0" mask-type="alpha" maskUnits="userSpaceOnUse" x="1" y="1" width="22" height="22">
<path fill-rule="evenodd" clip-rule="evenodd" d="M23 12C23 18.0751 18.0751 23 12 23C5.92487 23 1 18.0751 1 12C1 5.92487 5.92487 1 12 1C18.0751 1 23 5.92487 23 12ZM12.8243 6.44235C12.9187 6.11491 13.2496 5.92864 13.5644 6.0257C13.7176 6.0703 13.8473 6.17684 13.9247 6.32161C14.0021 6.46638 14.0207 6.63737 13.9764 6.79651L12.3762 12.6296C12.3456 12.7458 12.283 12.8501 12.1962 12.9296L8.99581 15.8462C8.74557 16.0722 8.36724 16.0462 8.14771 15.7878C7.9307 15.5272 7.95568 15.1332 8.20371 14.9045L11.2721 12.1088L12.8243 6.44235Z" fill="white"/>
</mask>
<g mask="url(#mask0)">
<rect width="24" height="24" fill="#347AF0"/>
</g>
</svg>
