<svg width="24" height="24" viewBox="0 0 24 24" fill="none" xmlns="http://www.w3.org/2000/svg">
<path fill-rule="evenodd" clip-rule="evenodd" d="M3 6.5C3 4.6 4.6 3 6.5 3C8.4 3 10 4.6 10 6.5C10 8.4 8.4 10 6.5 10C4.6 10 3 8.4 3 6.5ZM19.7 5.7L5.7 19.7C5.5 19.9 5.3 20 5 20C4.7 20 4.5 19.9 4.3 19.7C3.9 19.3 3.9 18.7 4.3 18.3L18.3 4.3C18.7 3.9 19.3 3.9 19.7 4.3C20.1 4.7 20.1 5.3 19.7 5.7ZM6.5 8C5.7 8 5 7.3 5 6.5C5 5.7 5.7 5 6.5 5C7.3 5 8 5.7 8 6.5C8 7.3 7.3 8 6.5 8ZM21 17.5C21 19.4 19.4 21 17.5 21C15.6 21 14 19.4 14 17.5C14 15.6 15.6 14 17.5 14C19.4 14 21 15.6 21 17.5ZM17.5 16C18.3 16 19 16.7 19 17.5C19 18.3 18.3 19 17.5 19C16.7 19 16 18.3 16 17.5C16 16.7 16.7 16 17.5 16Z" fill="black"/>
<mask id="mask0" mask-type="alpha" maskUnits="userSpaceOnUse" x="3" y="3" width="18" height="18">
<path fill-rule="evenodd" clip-rule="evenodd" d="M3 6.5C3 4.6 4.6 3 6.5 3C8.4 3 10 4.6 10 6.5C10 8.4 8.4 10 6.5 10C4.6 10 3 8.4 3 6.5ZM19.7 5.7L5.7 19.7C5.5 19.9 5.3 20 5 20C4.7 20 4.5 19.9 4.3 19.7C3.9 19.3 3.9 18.7 4.3 18.3L18.3 4.3C18.7 3.9 19.3 3.9 19.7 4.3C20.1 4.7 20.1 5.3 19.7 5.7ZM6.5 8C5.7 8 5 7.3 5 6.5C5 5.7 5.7 5 6.5 5C7.3 5 8 5.7 8 6.5C8 7.3 7.3 8 6.5 8ZM21 17.5C21 19.4 19.4 21 17.5 21C15.6 21 14 19.4 14 17.5C14 15.6 15.6 14 17.5 14C19.4 14 21 15.6 21 17.5ZM17.5 16C18.3 16 19 16.7 19 17.5C19 18.3 18.3 19 17.5 19C16.7 19 16 18.3 16 17.5C16 16.7 16.7 16 17.5 16Z" fill="white"/>
</mask>
<g mask="url(#mask0)">
<rect width="24" height="24" fill="#347AF0"/>
</g>
</svg>
