<svg width="24" height="24" viewBox="0 0 24 24" fill="none" xmlns="http://www.w3.org/2000/svg">
<path fill-rule="evenodd" clip-rule="evenodd" d="M24 1.04803V7.33624C24 7.96507 23.5808 8.38428 22.952 8.38428C22.3231 8.38428 21.9039 7.96507 21.9039 7.33624V3.56332L16.3493 9.1179C16.1397 9.32751 15.9301 9.43231 15.6157 9.43231C15.3013 9.43231 15.0917 9.32751 14.8821 9.1179C14.4629 8.69869 14.4629 8.06987 14.8821 7.65065L20.4367 2.09607H16.6638C16.0349 2.09607 15.6157 1.67686 15.6157 1.04803C15.6157 0.419214 16.0349 0 16.6638 0H22.952C23.0568 0 23.2664 0 23.3712 0.104803C23.5808 0.209607 23.7904 0.419214 23.8952 0.628821C24 0.733624 24 0.943231 24 1.04803ZM22.952 17.7118V20.8559C22.952 21.6943 22.6376 22.5328 22.0087 23.0568C21.3799 23.5808 20.6463 24 19.8079 24H19.4935C16.1397 23.5808 12.786 22.4279 9.95633 20.6463C7.33624 18.9694 5.03057 16.6638 3.35371 14.0437C1.46725 11.214 0.31441 7.86026 0 4.50655C0 3.66812 0.209607 2.82969 0.733624 2.20087C1.25764 1.57205 1.99127 1.15284 2.82969 1.04803H3.1441H6.28821C7.86026 1.04803 9.22271 2.20087 9.43231 3.77293C9.53712 4.71616 9.74673 5.65939 10.0611 6.49782C10.4803 7.65066 10.1659 8.9083 9.32751 9.85153L8.59389 10.5852C9.85153 12.4716 11.4236 14.1485 13.4148 15.4061L14.1485 14.6725C14.9869 13.8341 16.3493 13.5197 17.5022 13.9389C18.3406 14.2533 19.2838 14.4629 20.2271 14.5677C21.7991 14.7773 22.952 16.1397 22.952 17.7118ZM19.9127 16.6638C20.4367 16.7686 20.8559 17.1878 20.8559 17.7118V20.8559C20.8559 21.1703 20.7511 21.3799 20.5415 21.5895C20.3319 21.7991 20.1223 21.9039 19.7031 21.9039C16.6638 21.5895 13.7293 20.5415 11.1092 18.8646C8.69869 17.3974 6.70742 15.3013 5.13537 12.8908C3.45852 10.2707 2.41048 7.33624 2.09607 4.29694C2.09607 3.98253 2.20087 3.77293 2.30568 3.56332C2.51528 3.35371 2.82969 3.1441 3.1441 3.1441H6.28821C6.81223 3.1441 7.33624 3.56332 7.33624 4.08734C7.54585 5.13537 7.75546 6.18341 8.17467 7.23144C8.27948 7.54585 8.17467 8.06987 7.96507 8.27948L6.60262 9.64192C6.28821 9.95633 6.18341 10.4803 6.28821 10.8996C7.86026 13.7293 10.1659 16.0349 12.9956 17.607C13.4148 17.8166 13.9389 17.7118 14.2533 17.3974L15.6157 16.0349C15.9301 15.7205 16.3493 15.7205 16.7686 15.8253C17.8166 16.2445 18.8646 16.559 19.9127 16.6638Z" fill="black"/>
<mask id="mask0" mask-type="alpha" maskUnits="userSpaceOnUse" x="0" y="0" width="24" height="24">
<path fill-rule="evenodd" clip-rule="evenodd" d="M24 1.04803V7.33624C24 7.96507 23.5808 8.38428 22.952 8.38428C22.3231 8.38428 21.9039 7.96507 21.9039 7.33624V3.56332L16.3493 9.1179C16.1397 9.32751 15.9301 9.43231 15.6157 9.43231C15.3013 9.43231 15.0917 9.32751 14.8821 9.1179C14.4629 8.69869 14.4629 8.06987 14.8821 7.65065L20.4367 2.09607H16.6638C16.0349 2.09607 15.6157 1.67686 15.6157 1.04803C15.6157 0.419214 16.0349 0 16.6638 0H22.952C23.0568 0 23.2664 0 23.3712 0.104803C23.5808 0.209607 23.7904 0.419214 23.8952 0.628821C24 0.733624 24 0.943231 24 1.04803ZM22.952 17.7118V20.8559C22.952 21.6943 22.6376 22.5328 22.0087 23.0568C21.3799 23.5808 20.6463 24 19.8079 24H19.4935C16.1397 23.5808 12.786 22.4279 9.95633 20.6463C7.33624 18.9694 5.03057 16.6638 3.35371 14.0437C1.46725 11.214 0.31441 7.86026 0 4.50655C0 3.66812 0.209607 2.82969 0.733624 2.20087C1.25764 1.57205 1.99127 1.15284 2.82969 1.04803H3.1441H6.28821C7.86026 1.04803 9.22271 2.20087 9.43231 3.77293C9.53712 4.71616 9.74673 5.65939 10.0611 6.49782C10.4803 7.65066 10.1659 8.9083 9.32751 9.85153L8.59389 10.5852C9.85153 12.4716 11.4236 14.1485 13.4148 15.4061L14.1485 14.6725C14.9869 13.8341 16.3493 13.5197 17.5022 13.9389C18.3406 14.2533 19.2838 14.4629 20.2271 14.5677C21.7991 14.7773 22.952 16.1397 22.952 17.7118ZM19.9127 16.6638C20.4367 16.7686 20.8559 17.1878 20.8559 17.7118V20.8559C20.8559 21.1703 20.7511 21.3799 20.5415 21.5895C20.3319 21.7991 20.1223 21.9039 19.7031 21.9039C16.6638 21.5895 13.7293 20.5415 11.1092 18.8646C8.69869 17.3974 6.70742 15.3013 5.13537 12.8908C3.45852 10.2707 2.41048 7.33624 2.09607 4.29694C2.09607 3.98253 2.20087 3.77293 2.30568 3.56332C2.51528 3.35371 2.82969 3.1441 3.1441 3.1441H6.28821C6.81223 3.1441 7.33624 3.56332 7.33624 4.08734C7.54585 5.13537 7.75546 6.18341 8.17467 7.23144C8.27948 7.54585 8.17467 8.06987 7.96507 8.27948L6.60262 9.64192C6.28821 9.95633 6.18341 10.4803 6.28821 10.8996C7.86026 13.7293 10.1659 16.0349 12.9956 17.607C13.4148 17.8166 13.9389 17.7118 14.2533 17.3974L15.6157 16.0349C15.9301 15.7205 16.3493 15.7205 16.7686 15.8253C17.8166 16.2445 18.8646 16.559 19.9127 16.6638Z" fill="white"/>
</mask>
<g mask="url(#mask0)">
<rect width="24" height="24" fill="#347AF0"/>
</g>
</svg>
