<svg width="24" height="24" viewBox="0 0 24 24" fill="none" xmlns="http://www.w3.org/2000/svg">
<path fill-rule="evenodd" clip-rule="evenodd" d="M23.7 1.7L12.1 13.3L12.1 13.3L12.1 13.3C12.7 13.8 13.3 14.3 13.9 14.7L14.6 14C15.4 13.2 16.7 12.9 17.8 13.3C18.6 13.6 19.5 13.8 20.4 13.9C21.9 14.1 23 15.4 23 16.9V19.9C23 20.7 22.7 21.5 22.1 22C21.5 22.5 20.8 22.9 20 22.9H19.7C16.5 22.5 13.3 21.4 10.6 19.7C9.86268 19.2576 9.17973 18.7065 8.51105 18.1669L8.51103 18.1669C8.27281 17.9746 8.03641 17.7839 7.8 17.6L1.6 23.8C1.5 23.9 1.3 24 1 24C0.7 24 0.5 23.9 0.3 23.7C-0.1 23.3 -0.1 22.7 0.3 22.3L10 12.6L22.3 0.3C22.7 -0.1 23.3 -0.1 23.7 0.3C24.1 0.7 24.1 1.3 23.7 1.7ZM4.4 13.4C2.6 10.7 1.5 7.6 1.2 4.3C1.1 3.5 1.3 2.7 1.8 2.1C2.3 1.5 3 1.1 3.8 1H4.1H7.1C8.6 1 9.9 2.1 10.1 3.6C10.2 4.5 10.4 5.4 10.7 6.2C11.1 7.3 10.8 8.5 10 9.4L8.7 10.7C8.3 11.1 7.7 11.1 7.3 10.7C6.9 10.3 6.9 9.7 7.3 9.3L8.6 8C8.9 7.7 9 7.2 8.9 6.9C8.5 5.9 8.3 4.9 8.1 3.9C8 3.4 7.6 3 7.1 3H4.1C3.8 3 3.5 3.2 3.3 3.4C3.2 3.6 3.1 3.8 3.1 4.1C3.4 7 4.4 9.8 6 12.3C6.3 12.8 6.2 13.4 5.7 13.7C5.5 13.8 5.3 13.9 5.2 13.9C4.9 13.8 4.5 13.6 4.4 13.4ZM9.3 16.1L10.7 14.7C11.6 15.5 12.6 16.2 13.5 16.8C13.9 17 14.4 16.9 14.7 16.6L16 15.3C16.3 15 16.7 15 17.1 15.1C18.1 15.5 19.1 15.8 20.1 15.9C20.6 16 21 16.4 21 16.9V19.9C21 20.2 20.9 20.4 20.7 20.6C20.5 20.8 20.2 20.9 19.9 20.9C17 20.6 14.2 19.6 11.7 18C10.9 17.4 10.1 16.8 9.3 16.1Z" fill="black"/>
<mask id="mask0" mask-type="alpha" maskUnits="userSpaceOnUse" x="0" y="0" width="24" height="24">
<path fill-rule="evenodd" clip-rule="evenodd" d="M23.7 1.7L12.1 13.3L12.1 13.3L12.1 13.3C12.7 13.8 13.3 14.3 13.9 14.7L14.6 14C15.4 13.2 16.7 12.9 17.8 13.3C18.6 13.6 19.5 13.8 20.4 13.9C21.9 14.1 23 15.4 23 16.9V19.9C23 20.7 22.7 21.5 22.1 22C21.5 22.5 20.8 22.9 20 22.9H19.7C16.5 22.5 13.3 21.4 10.6 19.7C9.86268 19.2576 9.17973 18.7065 8.51105 18.1669L8.51103 18.1669C8.27281 17.9746 8.03641 17.7839 7.8 17.6L1.6 23.8C1.5 23.9 1.3 24 1 24C0.7 24 0.5 23.9 0.3 23.7C-0.1 23.3 -0.1 22.7 0.3 22.3L10 12.6L22.3 0.3C22.7 -0.1 23.3 -0.1 23.7 0.3C24.1 0.7 24.1 1.3 23.7 1.7ZM4.4 13.4C2.6 10.7 1.5 7.6 1.2 4.3C1.1 3.5 1.3 2.7 1.8 2.1C2.3 1.5 3 1.1 3.8 1H4.1H7.1C8.6 1 9.9 2.1 10.1 3.6C10.2 4.5 10.4 5.4 10.7 6.2C11.1 7.3 10.8 8.5 10 9.4L8.7 10.7C8.3 11.1 7.7 11.1 7.3 10.7C6.9 10.3 6.9 9.7 7.3 9.3L8.6 8C8.9 7.7 9 7.2 8.9 6.9C8.5 5.9 8.3 4.9 8.1 3.9C8 3.4 7.6 3 7.1 3H4.1C3.8 3 3.5 3.2 3.3 3.4C3.2 3.6 3.1 3.8 3.1 4.1C3.4 7 4.4 9.8 6 12.3C6.3 12.8 6.2 13.4 5.7 13.7C5.5 13.8 5.3 13.9 5.2 13.9C4.9 13.8 4.5 13.6 4.4 13.4ZM9.3 16.1L10.7 14.7C11.6 15.5 12.6 16.2 13.5 16.8C13.9 17 14.4 16.9 14.7 16.6L16 15.3C16.3 15 16.7 15 17.1 15.1C18.1 15.5 19.1 15.8 20.1 15.9C20.6 16 21 16.4 21 16.9V19.9C21 20.2 20.9 20.4 20.7 20.6C20.5 20.8 20.2 20.9 19.9 20.9C17 20.6 14.2 19.6 11.7 18C10.9 17.4 10.1 16.8 9.3 16.1Z" fill="white"/>
</mask>
<g mask="url(#mask0)">
<rect width="24" height="24" fill="#347AF0"/>
</g>
</svg>
