<svg width="24" height="24" viewBox="0 0 24 24" fill="none" xmlns="http://www.w3.org/2000/svg">
<path fill-rule="evenodd" clip-rule="evenodd" d="M17.7763 13.3562C18.5799 13.6575 19.484 13.8584 20.3881 13.9589C21.895 14.1598 23 15.4658 23 16.9726V19.9863C23 20.79 22.5982 21.4932 22.0959 22.0959C21.5936 22.6986 20.79 23 19.9863 23H19.6849C16.4703 22.6986 13.2557 21.5936 10.5434 19.7854C8.03196 18.1781 5.82192 15.968 4.21461 13.4566C2.50685 10.7443 1.30137 7.52968 1 4.31507C1 3.51142 1.20091 2.70776 1.7032 2.10502C2.20548 1.50228 2.90868 1.10046 3.71233 1H4.0137H7.0274C8.53425 1 9.84018 2.10502 10.0411 3.61187C10.1416 4.51598 10.3425 5.42009 10.6438 6.22374C11.0457 7.32877 10.7443 8.6347 9.94064 9.43836L9.23744 10.1416C10.4429 12.0502 12.0502 13.5571 13.8584 14.7626L14.5616 14.0594C15.4658 13.2557 16.6712 12.9543 17.7763 13.3562ZM20.9909 19.9863V16.9726C20.9909 16.4703 20.589 16.0685 20.1872 15.968C19.1826 15.7671 18.1781 15.5662 17.1735 15.1644C16.7717 14.9635 16.3699 15.0639 16.0685 15.3653L14.7626 16.6712C14.4612 17.0731 13.9589 17.0731 13.5571 16.8721C10.8447 15.3653 8.6347 13.1553 7.12785 10.4429C6.92694 10.0411 7.0274 9.53881 7.32877 9.23744L8.6347 8.03196C8.83562 7.73059 8.93607 7.32877 8.83562 6.92694C8.43379 6.02283 8.13242 4.91781 8.03196 3.91324C7.93151 3.41096 7.52968 3.00913 7.0274 3.00913H4.0137C3.71233 3.00913 3.41096 3.21005 3.21005 3.41096C3.10959 3.61187 3.00913 3.81279 3.00913 4.11416C3.3105 7.0274 4.31507 9.84018 5.92237 12.3516C7.42922 14.6621 9.3379 16.6712 11.6484 18.0776C14.1598 19.6849 16.9726 20.6895 19.8858 20.9909C20.2877 20.9909 20.4886 20.8904 20.6895 20.6895C20.8904 20.4886 20.9909 20.2877 20.9909 19.9863Z" fill="black"/>
<mask id="mask0" mask-type="alpha" maskUnits="userSpaceOnUse" x="1" y="1" width="22" height="22">
<path fill-rule="evenodd" clip-rule="evenodd" d="M17.7763 13.3562C18.5799 13.6575 19.484 13.8584 20.3881 13.9589C21.895 14.1598 23 15.4658 23 16.9726V19.9863C23 20.79 22.5982 21.4932 22.0959 22.0959C21.5936 22.6986 20.79 23 19.9863 23H19.6849C16.4703 22.6986 13.2557 21.5936 10.5434 19.7854C8.03196 18.1781 5.82192 15.968 4.21461 13.4566C2.50685 10.7443 1.30137 7.52968 1 4.31507C1 3.51142 1.20091 2.70776 1.7032 2.10502C2.20548 1.50228 2.90868 1.10046 3.71233 1H4.0137H7.0274C8.53425 1 9.84018 2.10502 10.0411 3.61187C10.1416 4.51598 10.3425 5.42009 10.6438 6.22374C11.0457 7.32877 10.7443 8.6347 9.94064 9.43836L9.23744 10.1416C10.4429 12.0502 12.0502 13.5571 13.8584 14.7626L14.5616 14.0594C15.4658 13.2557 16.6712 12.9543 17.7763 13.3562ZM20.9909 19.9863V16.9726C20.9909 16.4703 20.589 16.0685 20.1872 15.968C19.1826 15.7671 18.1781 15.5662 17.1735 15.1644C16.7717 14.9635 16.3699 15.0639 16.0685 15.3653L14.7626 16.6712C14.4612 17.0731 13.9589 17.0731 13.5571 16.8721C10.8447 15.3653 8.6347 13.1553 7.12785 10.4429C6.92694 10.0411 7.0274 9.53881 7.32877 9.23744L8.6347 8.03196C8.83562 7.73059 8.93607 7.32877 8.83562 6.92694C8.43379 6.02283 8.13242 4.91781 8.03196 3.91324C7.93151 3.41096 7.52968 3.00913 7.0274 3.00913H4.0137C3.71233 3.00913 3.41096 3.21005 3.21005 3.41096C3.10959 3.61187 3.00913 3.81279 3.00913 4.11416C3.3105 7.0274 4.31507 9.84018 5.92237 12.3516C7.42922 14.6621 9.3379 16.6712 11.6484 18.0776C14.1598 19.6849 16.9726 20.6895 19.8858 20.9909C20.2877 20.9909 20.4886 20.8904 20.6895 20.6895C20.8904 20.4886 20.9909 20.2877 20.9909 19.9863Z" fill="white"/>
</mask>
<g mask="url(#mask0)">
<rect width="24" height="24" fill="#347AF0"/>
</g>
</svg>
