<svg width="24" height="24" viewBox="0 0 24 24" fill="none" xmlns="http://www.w3.org/2000/svg">
<path fill-rule="evenodd" clip-rule="evenodd" d="M23.0414 10.4348C23.6698 10.3304 24.0887 9.8087 23.984 9.28696C23.4603 4.48696 19.5852 0.626087 14.6627 0C14.139 0 13.5106 0.417391 13.5106 0.93913C13.5106 1.46087 13.9295 1.98261 14.4532 2.08696C18.4331 2.6087 21.4704 5.63478 21.8893 9.49565C21.994 10.0174 22.413 10.4348 22.9366 10.4348H23.0414ZM17.4905 13.9826C18.3284 14.2957 19.271 14.5043 20.2136 14.6087C21.7846 14.8174 22.9366 16.1739 22.9366 17.7391V20.8696C22.9366 21.7043 22.5177 22.4348 21.994 23.0609C21.4704 23.687 20.6325 24 19.7946 24H19.4804C16.129 23.687 12.7775 22.5391 9.94968 20.6609C7.33134 18.9913 5.02721 16.6957 3.35147 14.087C1.571 11.2696 0.3142 7.93043 0 4.5913C0 3.75652 0.209467 2.92174 0.733134 2.29565C1.2568 1.66957 1.98994 1.25217 2.8278 1.14783H3.142H6.28401C7.85501 1.14783 9.21654 2.29565 9.42601 3.86087C9.53074 4.8 9.74021 5.73913 10.0544 6.57391C10.4733 7.72174 10.1591 9.07826 9.32128 9.91304L8.58814 10.6435C9.84494 12.6261 11.5207 14.1913 13.4059 15.4435L14.139 14.713C15.0816 13.8783 16.3384 13.5652 17.4905 13.9826ZM20.842 20.8696V17.7391C20.842 17.2174 20.423 16.8 20.0041 16.6957C18.9568 16.487 17.9094 16.2783 16.8621 15.8609C16.4432 15.6522 16.0242 15.7565 15.71 16.0696L14.3485 17.4261C14.0343 17.8435 13.5106 17.8435 13.0917 17.6348C10.2639 16.0696 7.95974 13.7739 6.38874 10.9565C6.17927 10.5391 6.28401 10.0174 6.59821 9.70435L7.95974 8.45217C8.16921 8.13913 8.27394 7.72174 8.16921 7.30435C7.75028 6.36522 7.43608 5.21739 7.33134 4.17391C7.22661 3.65217 6.80767 3.23478 6.28401 3.23478H3.142C2.8278 3.23478 2.5136 3.44348 2.30414 3.65217C2.1994 3.86087 2.09467 4.06957 2.09467 4.38261C2.40887 7.4087 3.4562 10.3304 5.13194 12.9391C6.70294 15.3391 8.69288 17.4261 11.1017 18.887C13.7201 20.5565 16.6526 21.6 19.6899 21.913C20.1088 21.913 20.3183 21.8087 20.5278 21.6C20.7372 21.3913 20.842 21.1826 20.842 20.8696ZM14.4532 6.36522C13.9295 6.26087 13.5106 5.73913 13.6153 5.11304C13.7201 4.5913 14.2437 4.17391 14.8722 4.27826C17.3858 4.8 19.3757 6.67826 19.7946 9.18261C19.8994 9.70435 19.5852 10.3304 18.9568 10.4348H18.7473C18.2236 10.4348 17.8047 10.1217 17.7 9.6C17.3858 7.93043 16.129 6.67826 14.4532 6.36522Z" fill="black"/>
<mask id="mask0" mask-type="alpha" maskUnits="userSpaceOnUse" x="0" y="0" width="24" height="24">
<path fill-rule="evenodd" clip-rule="evenodd" d="M23.0414 10.4348C23.6698 10.3304 24.0887 9.8087 23.984 9.28696C23.4603 4.48696 19.5852 0.626087 14.6627 0C14.139 0 13.5106 0.417391 13.5106 0.93913C13.5106 1.46087 13.9295 1.98261 14.4532 2.08696C18.4331 2.6087 21.4704 5.63478 21.8893 9.49565C21.994 10.0174 22.413 10.4348 22.9366 10.4348H23.0414ZM17.4905 13.9826C18.3284 14.2957 19.271 14.5043 20.2136 14.6087C21.7846 14.8174 22.9366 16.1739 22.9366 17.7391V20.8696C22.9366 21.7043 22.5177 22.4348 21.994 23.0609C21.4704 23.687 20.6325 24 19.7946 24H19.4804C16.129 23.687 12.7775 22.5391 9.94968 20.6609C7.33134 18.9913 5.02721 16.6957 3.35147 14.087C1.571 11.2696 0.3142 7.93043 0 4.5913C0 3.75652 0.209467 2.92174 0.733134 2.29565C1.2568 1.66957 1.98994 1.25217 2.8278 1.14783H3.142H6.28401C7.85501 1.14783 9.21654 2.29565 9.42601 3.86087C9.53074 4.8 9.74021 5.73913 10.0544 6.57391C10.4733 7.72174 10.1591 9.07826 9.32128 9.91304L8.58814 10.6435C9.84494 12.6261 11.5207 14.1913 13.4059 15.4435L14.139 14.713C15.0816 13.8783 16.3384 13.5652 17.4905 13.9826ZM20.842 20.8696V17.7391C20.842 17.2174 20.423 16.8 20.0041 16.6957C18.9568 16.487 17.9094 16.2783 16.8621 15.8609C16.4432 15.6522 16.0242 15.7565 15.71 16.0696L14.3485 17.4261C14.0343 17.8435 13.5106 17.8435 13.0917 17.6348C10.2639 16.0696 7.95974 13.7739 6.38874 10.9565C6.17927 10.5391 6.28401 10.0174 6.59821 9.70435L7.95974 8.45217C8.16921 8.13913 8.27394 7.72174 8.16921 7.30435C7.75028 6.36522 7.43608 5.21739 7.33134 4.17391C7.22661 3.65217 6.80767 3.23478 6.28401 3.23478H3.142C2.8278 3.23478 2.5136 3.44348 2.30414 3.65217C2.1994 3.86087 2.09467 4.06957 2.09467 4.38261C2.40887 7.4087 3.4562 10.3304 5.13194 12.9391C6.70294 15.3391 8.69288 17.4261 11.1017 18.887C13.7201 20.5565 16.6526 21.6 19.6899 21.913C20.1088 21.913 20.3183 21.8087 20.5278 21.6C20.7372 21.3913 20.842 21.1826 20.842 20.8696ZM14.4532 6.36522C13.9295 6.26087 13.5106 5.73913 13.6153 5.11304C13.7201 4.5913 14.2437 4.17391 14.8722 4.27826C17.3858 4.8 19.3757 6.67826 19.7946 9.18261C19.8994 9.70435 19.5852 10.3304 18.9568 10.4348H18.7473C18.2236 10.4348 17.8047 10.1217 17.7 9.6C17.3858 7.93043 16.129 6.67826 14.4532 6.36522Z" fill="white"/>
</mask>
<g mask="url(#mask0)">
<rect width="24" height="24" fill="#347AF0"/>
</g>
</svg>
