<svg width="24" height="24" viewBox="0 0 24 24" fill="none" xmlns="http://www.w3.org/2000/svg">
<path fill-rule="evenodd" clip-rule="evenodd" d="M23.7115 5.9738L19.5148 10.1659C19.3049 10.3755 19.0951 10.4803 18.7803 10.4803C18.4656 10.4803 18.2557 10.3755 18.0459 10.1659C17.6262 9.74673 17.6262 9.1179 18.0459 8.69869L20.459 6.28821H14.5836C13.9541 6.28821 13.5344 5.869 13.5344 5.24017C13.5344 4.61135 13.9541 4.19214 14.5836 4.19214H20.459L18.0459 1.78166C17.6262 1.36245 17.6262 0.733624 18.0459 0.31441C18.4656 -0.104803 19.0951 -0.104803 19.5148 0.31441L23.7115 4.50655C23.8164 4.61135 23.9213 4.71616 23.9213 4.82096C24.0262 5.03057 24.0262 5.34498 23.9213 5.65939C23.9213 5.76419 23.8164 5.869 23.7115 5.9738ZM22.977 17.7118V20.8559C22.977 21.6943 22.6623 22.5328 22.0328 23.0568C21.4033 23.5808 20.6689 24 19.8295 24H19.5148C16.1574 23.5808 12.8 22.4279 9.96721 20.6463C7.34426 18.9694 5.03607 16.6638 3.35738 14.0437C1.46885 11.214 0.314754 7.86026 0 4.50655C0 3.66812 0.209836 2.82969 0.734426 2.20087C1.25902 1.57205 1.99344 1.15284 2.83279 1.04803H3.14754H6.29508C7.86885 1.04803 9.23279 2.20087 9.44262 3.77293C9.54754 4.71616 9.75738 5.65939 10.0721 6.49782C10.4918 7.65066 10.177 8.9083 9.3377 9.85153L8.60328 10.5852C9.8623 12.4716 11.4361 14.1485 13.4295 15.4061L14.1639 14.6725C15.0033 13.8341 16.3672 13.5197 17.5213 13.9389C18.3607 14.2533 19.3049 14.4629 20.2492 14.5677C21.823 14.7773 22.977 16.1397 22.977 17.7118ZM19.9344 16.6638C20.459 16.7686 20.8787 17.1878 20.8787 17.7118V20.8559C20.8787 21.1703 20.7738 21.3799 20.5639 21.5895C20.3541 21.7991 20.1443 21.9039 19.7246 21.9039C16.682 21.5895 13.7443 20.5415 11.1213 18.8646C8.7082 17.3974 6.71475 15.3013 5.14098 12.8908C3.4623 10.2707 2.41311 7.33624 2.09836 4.29694C2.09836 3.98253 2.20328 3.77293 2.3082 3.56332C2.51803 3.35371 2.83279 3.1441 3.14754 3.1441H6.29508C6.81967 3.1441 7.34426 3.56332 7.34426 4.08734C7.5541 5.13537 7.76393 6.18341 8.18361 7.23144C8.28852 7.54585 8.18361 8.06987 7.97377 8.27948L6.60984 9.64192C6.29508 9.95633 6.19016 10.4803 6.29508 10.8996C7.86885 13.7293 10.177 16.0349 13.0098 17.607C13.4295 17.8166 13.9541 17.7118 14.2689 17.3974L15.6328 16.0349C15.9475 15.7205 16.3672 15.7205 16.7869 15.8253C17.8361 16.2445 18.8852 16.559 19.9344 16.6638Z" fill="black"/>
<mask id="mask0" mask-type="alpha" maskUnits="userSpaceOnUse" x="0" y="0" width="24" height="24">
<path fill-rule="evenodd" clip-rule="evenodd" d="M23.7115 5.9738L19.5148 10.1659C19.3049 10.3755 19.0951 10.4803 18.7803 10.4803C18.4656 10.4803 18.2557 10.3755 18.0459 10.1659C17.6262 9.74673 17.6262 9.1179 18.0459 8.69869L20.459 6.28821H14.5836C13.9541 6.28821 13.5344 5.869 13.5344 5.24017C13.5344 4.61135 13.9541 4.19214 14.5836 4.19214H20.459L18.0459 1.78166C17.6262 1.36245 17.6262 0.733624 18.0459 0.31441C18.4656 -0.104803 19.0951 -0.104803 19.5148 0.31441L23.7115 4.50655C23.8164 4.61135 23.9213 4.71616 23.9213 4.82096C24.0262 5.03057 24.0262 5.34498 23.9213 5.65939C23.9213 5.76419 23.8164 5.869 23.7115 5.9738ZM22.977 17.7118V20.8559C22.977 21.6943 22.6623 22.5328 22.0328 23.0568C21.4033 23.5808 20.6689 24 19.8295 24H19.5148C16.1574 23.5808 12.8 22.4279 9.96721 20.6463C7.34426 18.9694 5.03607 16.6638 3.35738 14.0437C1.46885 11.214 0.314754 7.86026 0 4.50655C0 3.66812 0.209836 2.82969 0.734426 2.20087C1.25902 1.57205 1.99344 1.15284 2.83279 1.04803H3.14754H6.29508C7.86885 1.04803 9.23279 2.20087 9.44262 3.77293C9.54754 4.71616 9.75738 5.65939 10.0721 6.49782C10.4918 7.65066 10.177 8.9083 9.3377 9.85153L8.60328 10.5852C9.8623 12.4716 11.4361 14.1485 13.4295 15.4061L14.1639 14.6725C15.0033 13.8341 16.3672 13.5197 17.5213 13.9389C18.3607 14.2533 19.3049 14.4629 20.2492 14.5677C21.823 14.7773 22.977 16.1397 22.977 17.7118ZM19.9344 16.6638C20.459 16.7686 20.8787 17.1878 20.8787 17.7118V20.8559C20.8787 21.1703 20.7738 21.3799 20.5639 21.5895C20.3541 21.7991 20.1443 21.9039 19.7246 21.9039C16.682 21.5895 13.7443 20.5415 11.1213 18.8646C8.7082 17.3974 6.71475 15.3013 5.14098 12.8908C3.4623 10.2707 2.41311 7.33624 2.09836 4.29694C2.09836 3.98253 2.20328 3.77293 2.3082 3.56332C2.51803 3.35371 2.83279 3.1441 3.14754 3.1441H6.29508C6.81967 3.1441 7.34426 3.56332 7.34426 4.08734C7.5541 5.13537 7.76393 6.18341 8.18361 7.23144C8.28852 7.54585 8.18361 8.06987 7.97377 8.27948L6.60984 9.64192C6.29508 9.95633 6.19016 10.4803 6.29508 10.8996C7.86885 13.7293 10.177 16.0349 13.0098 17.607C13.4295 17.8166 13.9541 17.7118 14.2689 17.3974L15.6328 16.0349C15.9475 15.7205 16.3672 15.7205 16.7869 15.8253C17.8361 16.2445 18.8852 16.559 19.9344 16.6638Z" fill="white"/>
</mask>
<g mask="url(#mask0)">
<rect width="24" height="24" fill="#347AF0"/>
</g>
</svg>
