<svg width="24" height="24" viewBox="0 0 24 24" fill="none" xmlns="http://www.w3.org/2000/svg">
<path fill-rule="evenodd" clip-rule="evenodd" d="M23 12C23 12.6 22.5999 13 21.9997 13H11.9969C11.3968 13 10.9966 12.6 10.9966 12V2C10.9966 1.4 11.3968 1 11.9969 1C18.0986 1 23 5.9 23 12ZM22.0997 16.3C20.3993 20.5 16.2981 23 11.9969 23C10.5965 23 9.09612 22.7 7.69572 22.1C2.09416 19.7 -0.506567 13.3 1.8941 7.7C2.99441 5.1 4.99497 3 7.5957 1.9C8.09584 1.7 8.696 1.9 8.89606 2.4C9.09612 2.9 8.89606 3.5 8.39592 3.7C6.29533 4.7 4.59486 6.4 3.69461 8.5C1.79408 13.1 3.89466 18.4 8.49595 20.3C13.0972 22.2 18.3987 20.1 20.2992 15.5C20.4993 15 21.0995 14.8 21.5996 15C22.0997 15.2 22.2998 15.8 22.0997 16.3ZM12.9972 3.1C17.0984 3.5 20.3993 6.8 20.8994 11H12.9972V3.1Z" fill="black"/>
<mask id="mask0" mask-type="alpha" maskUnits="userSpaceOnUse" x="1" y="1" width="22" height="22">
<path fill-rule="evenodd" clip-rule="evenodd" d="M23 12C23 12.6 22.5999 13 21.9997 13H11.9969C11.3968 13 10.9966 12.6 10.9966 12V2C10.9966 1.4 11.3968 1 11.9969 1C18.0986 1 23 5.9 23 12ZM22.0997 16.3C20.3993 20.5 16.2981 23 11.9969 23C10.5965 23 9.09612 22.7 7.69572 22.1C2.09416 19.7 -0.506567 13.3 1.8941 7.7C2.99441 5.1 4.99497 3 7.5957 1.9C8.09584 1.7 8.696 1.9 8.89606 2.4C9.09612 2.9 8.89606 3.5 8.39592 3.7C6.29533 4.7 4.59486 6.4 3.69461 8.5C1.79408 13.1 3.89466 18.4 8.49595 20.3C13.0972 22.2 18.3987 20.1 20.2992 15.5C20.4993 15 21.0995 14.8 21.5996 15C22.0997 15.2 22.2998 15.8 22.0997 16.3ZM12.9972 3.1C17.0984 3.5 20.3993 6.8 20.8994 11H12.9972V3.1Z" fill="white"/>
</mask>
<g mask="url(#mask0)">
<rect width="24" height="24" fill="#347AF0"/>
</g>
</svg>
