<svg width="24" height="24" viewBox="0 0 24 24" fill="none" xmlns="http://www.w3.org/2000/svg">
<path fill-rule="evenodd" clip-rule="evenodd" d="M5.5 2.15038L19.5 11.1729C19.8 11.2732 20 11.6742 20 11.9749C20 12.2757 19.8 12.5764 19.5 12.7769L5.5 21.7995C5.4 21.8997 5.2 22 5 22C4.8 22 4.7 22 4.5 21.8997C4.2 21.6992 4 21.3985 4 20.9975V2.95238C4 2.55138 4.2 2.25063 4.5 2.15038C4.8 1.94987 5.2 1.94987 5.5 2.15038ZM17.2 11.9749L6 4.75689V19.193L17.2 11.9749Z" fill="black"/>
<mask id="mask0" mask-type="alpha" maskUnits="userSpaceOnUse" x="4" y="2" width="16" height="20">
<path fill-rule="evenodd" clip-rule="evenodd" d="M5.5 2.15038L19.5 11.1729C19.8 11.2732 20 11.6742 20 11.9749C20 12.2757 19.8 12.5764 19.5 12.7769L5.5 21.7995C5.4 21.8997 5.2 22 5 22C4.8 22 4.7 22 4.5 21.8997C4.2 21.6992 4 21.3985 4 20.9975V2.95238C4 2.55138 4.2 2.25063 4.5 2.15038C4.8 1.94987 5.2 1.94987 5.5 2.15038ZM17.2 11.9749L6 4.75689V19.193L17.2 11.9749Z" fill="white"/>
</mask>
<g mask="url(#mask0)">
<rect width="24" height="24" fill="#347AF0"/>
</g>
</svg>
