<svg width="24" height="24" viewBox="0 0 24 24" fill="none" xmlns="http://www.w3.org/2000/svg">
<path fill-rule="evenodd" clip-rule="evenodd" d="M1 12C1 5.9 5.9 1 12 1C18.1 1 23 5.9 23 12C23 18.1 18.1 23 12 23C5.9 23 1 18.1 1 12ZM3 12C3 17 7 21 12 21C17 21 21 17 21 12C21 7 17 3 12 3C7 3 3 7 3 12ZM16.6 11.2L10.6 7.2C10.3 7 9.9 7 9.6 7.2C9.2 7.3 9 7.6 9 8V16C9 16.4 9.2 16.7 9.5 16.9C9.7 17 9.8 17 10 17C10.2 17 10.4 16.9 10.6 16.8L16.6 12.8C16.9 12.6 17 12.3 17 12C17 11.7 16.8 11.4 16.6 11.2ZM14.2 12L11 9.9V14.1L14.2 12Z" fill="black"/>
<mask id="mask0" mask-type="alpha" maskUnits="userSpaceOnUse" x="1" y="1" width="22" height="22">
<path fill-rule="evenodd" clip-rule="evenodd" d="M1 12C1 5.9 5.9 1 12 1C18.1 1 23 5.9 23 12C23 18.1 18.1 23 12 23C5.9 23 1 18.1 1 12ZM3 12C3 17 7 21 12 21C17 21 21 17 21 12C21 7 17 3 12 3C7 3 3 7 3 12ZM16.6 11.2L10.6 7.2C10.3 7 9.9 7 9.6 7.2C9.2 7.3 9 7.6 9 8V16C9 16.4 9.2 16.7 9.5 16.9C9.7 17 9.8 17 10 17C10.2 17 10.4 16.9 10.6 16.8L16.6 12.8C16.9 12.6 17 12.3 17 12C17 11.7 16.8 11.4 16.6 11.2ZM14.2 12L11 9.9V14.1L14.2 12Z" fill="white"/>
</mask>
<g mask="url(#mask0)">
<rect width="24" height="24" fill="#347AF0"/>
</g>
</svg>
