<svg width="24" height="24" viewBox="0 0 24 24" fill="none" xmlns="http://www.w3.org/2000/svg">
<path d="M20 12C20 12.6 19.6 13 19 13H13V19C13 19.6 12.6 20 12 20C11.4 20 11 19.6 11 19V13H5C4.4 13 4 12.6 4 12C4 11.4 4.4 11 5 11H11V5C11 4.4 11.4 4 12 4C12.6 4 13 4.4 13 5V11H19C19.6 11 20 11.4 20 12Z" fill="black"/>
<mask id="mask0" mask-type="alpha" maskUnits="userSpaceOnUse" x="4" y="4" width="16" height="16">
<path d="M20 12C20 12.6 19.6 13 19 13H13V19C13 19.6 12.6 20 12 20C11.4 20 11 19.6 11 19V13H5C4.4 13 4 12.6 4 12C4 11.4 4.4 11 5 11H11V5C11 4.4 11.4 4 12 4C12.6 4 13 4.4 13 5V11H19C19.6 11 20 11.4 20 12Z" fill="white"/>
</mask>
<g mask="url(#mask0)">
<rect width="24" height="24" fill="#347AF0"/>
</g>
</svg>
