<svg width="24" height="24" viewBox="0 0 24 24" fill="none" xmlns="http://www.w3.org/2000/svg">
<path fill-rule="evenodd" clip-rule="evenodd" d="M20 2H4C2.3 2 1 3.3 1 5V11C1 17.1 5.9 22 12 22C18.1 22 23 17.1 23 11V5C23 3.3 21.7 2 20 2ZM21 11C21 16 17 20 12 20C7 20 3 16 3 11V5C3 4.4 3.4 4 4 4H20C20.6 4 21 4.4 21 5V11ZM16.7 10.7C17.1 10.3 17.1 9.7 16.7 9.3C16.3 8.9 15.7 8.9 15.3 9.3L12 12.6L8.7 9.3C8.3 8.9 7.7 8.9 7.3 9.3C6.9 9.7 6.9 10.3 7.3 10.7L11.3 14.7C11.5 14.9 11.7 15 12 15C12.3 15 12.5 14.9 12.7 14.7L16.7 10.7Z" fill="black"/>
<mask id="mask0" mask-type="alpha" maskUnits="userSpaceOnUse" x="1" y="2" width="22" height="20">
<path fill-rule="evenodd" clip-rule="evenodd" d="M20 2H4C2.3 2 1 3.3 1 5V11C1 17.1 5.9 22 12 22C18.1 22 23 17.1 23 11V5C23 3.3 21.7 2 20 2ZM21 11C21 16 17 20 12 20C7 20 3 16 3 11V5C3 4.4 3.4 4 4 4H20C20.6 4 21 4.4 21 5V11ZM16.7 10.7C17.1 10.3 17.1 9.7 16.7 9.3C16.3 8.9 15.7 8.9 15.3 9.3L12 12.6L8.7 9.3C8.3 8.9 7.7 8.9 7.3 9.3C6.9 9.7 6.9 10.3 7.3 10.7L11.3 14.7C11.5 14.9 11.7 15 12 15C12.3 15 12.5 14.9 12.7 14.7L16.7 10.7Z" fill="white"/>
</mask>
<g mask="url(#mask0)">
<rect width="24" height="24" fill="#347AF0"/>
</g>
</svg>
