<svg width="24" height="24" viewBox="0 0 24 24" fill="none" xmlns="http://www.w3.org/2000/svg">
<path fill-rule="evenodd" clip-rule="evenodd" d="M13.0043 12C13.0043 12.6 12.6051 13 12.0062 13C11.4073 13 11.0081 12.6 11.0081 12V2C11.0081 1.4 11.4073 1 12.0062 1C12.6051 1 13.0043 1.4 13.0043 2V12ZM12.0062 23C14.6013 23 17.0966 22 19.0928 20.1C22.9855 16.2 22.9855 9.8 18.993 5.9C18.5938 5.5 17.9949 5.5 17.5957 5.9C17.1964 6.3 17.1964 6.9 17.5957 7.3C20.6898 10.4 20.6898 15.5 17.5957 18.6C14.5015 21.7 9.41106 21.7 6.31688 18.6C3.2227 15.5 3.2227 10.4 6.31688 7.3C6.71613 6.9 6.71613 6.3 6.31688 5.9C5.91763 5.5 5.31876 5.5 4.91951 5.9C1.02683 9.8 1.02683 16.2 4.91951 20.1C6.91575 22 9.41106 23 12.0062 23Z" fill="black"/>
<mask id="mask0" mask-type="alpha" maskUnits="userSpaceOnUse" x="2" y="1" width="20" height="22">
<path fill-rule="evenodd" clip-rule="evenodd" d="M13.0043 12C13.0043 12.6 12.6051 13 12.0062 13C11.4073 13 11.0081 12.6 11.0081 12V2C11.0081 1.4 11.4073 1 12.0062 1C12.6051 1 13.0043 1.4 13.0043 2V12ZM12.0062 23C14.6013 23 17.0966 22 19.0928 20.1C22.9855 16.2 22.9855 9.8 18.993 5.9C18.5938 5.5 17.9949 5.5 17.5957 5.9C17.1964 6.3 17.1964 6.9 17.5957 7.3C20.6898 10.4 20.6898 15.5 17.5957 18.6C14.5015 21.7 9.41106 21.7 6.31688 18.6C3.2227 15.5 3.2227 10.4 6.31688 7.3C6.71613 6.9 6.71613 6.3 6.31688 5.9C5.91763 5.5 5.31876 5.5 4.91951 5.9C1.02683 9.8 1.02683 16.2 4.91951 20.1C6.91575 22 9.41106 23 12.0062 23Z" fill="white"/>
</mask>
<g mask="url(#mask0)">
<rect width="24" height="24" fill="#347AF0"/>
</g>
</svg>
