<svg width="24" height="24" viewBox="0 0 24 24" fill="none" xmlns="http://www.w3.org/2000/svg">
<path fill-rule="evenodd" clip-rule="evenodd" d="M3.35385 6.73846C3.35385 7.11232 3.05078 7.41538 2.67692 7.41538C2.30307 7.41538 2 7.11232 2 6.73846V2.67692C2 2.30307 2.30307 2 2.67692 2H6.73846C7.11232 2 7.41538 2.30307 7.41538 2.67692C7.41538 3.05078 7.11232 3.35385 6.73846 3.35385H3.35385V6.73846ZM3.35385 20.9538H6.73846C7.11232 20.9538 7.41538 21.2569 7.41538 21.6308C7.41538 22.0046 7.11232 22.3077 6.73846 22.3077H2.67692C2.30307 22.3077 2 22.0046 2 21.6308V17.5692C2 17.1954 2.30307 16.8923 2.67692 16.8923C3.05078 16.8923 3.35385 17.1954 3.35385 17.5692V20.9538ZM21.6308 16.8923C21.2569 16.8923 20.9538 17.1954 20.9538 17.5692V20.9538H17.5692C17.1954 20.9538 16.8923 21.2569 16.8923 21.6308C16.8923 22.0046 17.1954 22.3077 17.5692 22.3077H21.6308C22.0046 22.3077 22.3077 22.0046 22.3077 21.6308V17.5692C22.3077 17.1954 22.0046 16.8923 21.6308 16.8923ZM17.5692 2H21.6308C22.0046 2 22.3077 2.30307 22.3077 2.67692V6.73846C22.3077 7.11232 22.0046 7.41538 21.6308 7.41538C21.2569 7.41538 20.9538 7.11232 20.9538 6.73846V3.35385H17.5692C17.1954 3.35385 16.8923 3.05078 16.8923 2.67692C16.8923 2.30307 17.1954 2 17.5692 2ZM18.2462 18.9231H6.06154C5.68768 18.9231 5.38462 18.62 5.38462 18.2462V14.1846H4.03077C3.65691 14.1846 3.35385 13.8815 3.35385 13.5077C3.35385 13.1338 3.65691 12.8308 4.03077 12.8308H20.2769C20.6508 12.8308 20.9538 13.1338 20.9538 13.5077C20.9538 13.8815 20.6508 14.1846 20.2769 14.1846H18.9231V18.2462C18.9231 18.62 18.62 18.9231 18.2462 18.9231ZM6.73846 17.5692H17.5692V14.1846H6.73846V17.5692ZM6.06154 5.38462H18.2462C18.62 5.38462 18.9231 5.68768 18.9231 6.06154V10.8C18.9231 11.1739 18.62 11.4769 18.2462 11.4769C17.8723 11.4769 17.5692 11.1739 17.5692 10.8V6.73846H6.73846V10.8C6.73846 11.1739 6.43539 11.4769 6.06154 11.4769C5.68768 11.4769 5.38462 11.1739 5.38462 10.8V6.06154C5.38462 5.68768 5.68768 5.38462 6.06154 5.38462Z" fill="#347AF0"/>
<mask id="mask0" mask-type="alpha" maskUnits="userSpaceOnUse" x="2" y="2" width="21" height="21">
<path fill-rule="evenodd" clip-rule="evenodd" d="M3.35385 6.73846C3.35385 7.11232 3.05078 7.41538 2.67692 7.41538C2.30307 7.41538 2 7.11232 2 6.73846V2.67692C2 2.30307 2.30307 2 2.67692 2H6.73846C7.11232 2 7.41538 2.30307 7.41538 2.67692C7.41538 3.05078 7.11232 3.35385 6.73846 3.35385H3.35385V6.73846ZM3.35385 20.9538H6.73846C7.11232 20.9538 7.41538 21.2569 7.41538 21.6308C7.41538 22.0046 7.11232 22.3077 6.73846 22.3077H2.67692C2.30307 22.3077 2 22.0046 2 21.6308V17.5692C2 17.1954 2.30307 16.8923 2.67692 16.8923C3.05078 16.8923 3.35385 17.1954 3.35385 17.5692V20.9538ZM21.6308 16.8923C21.2569 16.8923 20.9538 17.1954 20.9538 17.5692V20.9538H17.5692C17.1954 20.9538 16.8923 21.2569 16.8923 21.6308C16.8923 22.0046 17.1954 22.3077 17.5692 22.3077H21.6308C22.0046 22.3077 22.3077 22.0046 22.3077 21.6308V17.5692C22.3077 17.1954 22.0046 16.8923 21.6308 16.8923ZM17.5692 2H21.6308C22.0046 2 22.3077 2.30307 22.3077 2.67692V6.73846C22.3077 7.11232 22.0046 7.41538 21.6308 7.41538C21.2569 7.41538 20.9538 7.11232 20.9538 6.73846V3.35385H17.5692C17.1954 3.35385 16.8923 3.05078 16.8923 2.67692C16.8923 2.30307 17.1954 2 17.5692 2ZM18.2462 18.9231H6.06154C5.68768 18.9231 5.38462 18.62 5.38462 18.2462V14.1846H4.03077C3.65691 14.1846 3.35385 13.8815 3.35385 13.5077C3.35385 13.1338 3.65691 12.8308 4.03077 12.8308H20.2769C20.6508 12.8308 20.9538 13.1338 20.9538 13.5077C20.9538 13.8815 20.6508 14.1846 20.2769 14.1846H18.9231V18.2462C18.9231 18.62 18.62 18.9231 18.2462 18.9231ZM6.73846 17.5692H17.5692V14.1846H6.73846V17.5692ZM6.06154 5.38462H18.2462C18.62 5.38462 18.9231 5.68768 18.9231 6.06154V10.8C18.9231 11.1739 18.62 11.4769 18.2462 11.4769C17.8723 11.4769 17.5692 11.1739 17.5692 10.8V6.73846H6.73846V10.8C6.73846 11.1739 6.43539 11.4769 6.06154 11.4769C5.68768 11.4769 5.38462 11.1739 5.38462 10.8V6.06154C5.38462 5.68768 5.68768 5.38462 6.06154 5.38462Z" fill="white"/>
</mask>
<g mask="url(#mask0)">
<rect width="24" height="24" fill="#347AF0"/>
</g>
</svg>
