<svg width="24" height="24" viewBox="0 0 24 24" fill="none" xmlns="http://www.w3.org/2000/svg">
<path fill-rule="evenodd" clip-rule="evenodd" d="M5.61451 19.7037C6.01361 19.3086 6.01361 18.716 5.61451 18.321C2.12245 14.8642 2.12245 9.1358 5.61451 5.67901C6.01361 5.28395 6.01361 4.69136 5.61451 4.2963C5.21542 3.90123 4.61678 3.90123 4.21769 4.2963C-0.0725623 8.54321 -0.0725623 15.4568 4.21769 19.7037C4.41723 19.9012 4.71655 20 4.9161 20C5.11565 20 5.41497 19.9012 5.61451 19.7037ZM8.50794 15.4568C8.90703 15.8519 8.90703 16.4444 8.50794 16.8395C8.30839 17.037 8.00907 17.1358 7.80952 17.1358C7.60998 17.1358 7.31066 17.037 7.11111 16.8395C4.41723 14.1728 4.41723 9.72839 7.11111 7.06173C7.5102 6.66667 8.10884 6.66667 8.50794 7.06173C8.90703 7.45679 8.90703 8.04938 8.50794 8.44444C7.5102 9.4321 7.01134 10.716 7.01134 12C7.01134 13.284 7.5102 14.5679 8.50794 15.4568ZM9.0068 12C9.0068 10.321 10.3039 9.03704 12 9.03704C13.6961 9.03704 14.9932 10.321 14.9932 12C14.9932 13.679 13.6961 14.963 12 14.963C10.3039 14.963 9.0068 13.679 9.0068 12ZM11.0023 12C11.0023 12.5926 11.4014 12.9877 12 12.9877C12.5986 12.9877 12.9977 12.5926 12.9977 12C12.9977 11.4074 12.5986 11.0123 12 11.0123C11.4014 11.0123 11.0023 11.4074 11.0023 12ZM16.9887 16.8395C16.7891 17.037 16.4898 17.1358 16.2902 17.1358C16.0907 17.1358 15.9909 17.1358 15.8912 17.037C15.3923 16.8395 15.1927 16.2469 15.4921 15.7531L15.7914 15.4568C17.6871 13.5802 17.6871 10.4198 15.6916 8.54321C15.2925 8.14815 15.2925 7.55556 15.6916 7.16049C16.0907 6.76543 16.6893 6.76543 17.0884 7.16049C19.6825 9.82716 19.6825 14.1728 16.9887 16.8395ZM19.0839 20C19.2834 20 19.5828 19.9012 19.7823 19.7037C24.0726 15.4568 24.0726 8.54321 19.7823 4.39506C19.3832 4 18.7846 4 18.3855 4.39506C17.9864 4.79012 17.9864 5.38272 18.3855 5.77778C21.8776 9.23457 21.8776 14.8642 18.3855 18.321C17.9864 18.716 17.9864 19.3086 18.3855 19.7037C18.585 19.9012 18.8844 20 19.0839 20Z" fill="black"/>
<mask id="mask0" mask-type="alpha" maskUnits="userSpaceOnUse" x="1" y="4" width="22" height="16">
<path fill-rule="evenodd" clip-rule="evenodd" d="M5.61451 19.7037C6.01361 19.3086 6.01361 18.716 5.61451 18.321C2.12245 14.8642 2.12245 9.1358 5.61451 5.67901C6.01361 5.28395 6.01361 4.69136 5.61451 4.2963C5.21542 3.90123 4.61678 3.90123 4.21769 4.2963C-0.0725623 8.54321 -0.0725623 15.4568 4.21769 19.7037C4.41723 19.9012 4.71655 20 4.9161 20C5.11565 20 5.41497 19.9012 5.61451 19.7037ZM8.50794 15.4568C8.90703 15.8519 8.90703 16.4444 8.50794 16.8395C8.30839 17.037 8.00907 17.1358 7.80952 17.1358C7.60998 17.1358 7.31066 17.037 7.11111 16.8395C4.41723 14.1728 4.41723 9.72839 7.11111 7.06173C7.5102 6.66667 8.10884 6.66667 8.50794 7.06173C8.90703 7.45679 8.90703 8.04938 8.50794 8.44444C7.5102 9.4321 7.01134 10.716 7.01134 12C7.01134 13.284 7.5102 14.5679 8.50794 15.4568ZM9.0068 12C9.0068 10.321 10.3039 9.03704 12 9.03704C13.6961 9.03704 14.9932 10.321 14.9932 12C14.9932 13.679 13.6961 14.963 12 14.963C10.3039 14.963 9.0068 13.679 9.0068 12ZM11.0023 12C11.0023 12.5926 11.4014 12.9877 12 12.9877C12.5986 12.9877 12.9977 12.5926 12.9977 12C12.9977 11.4074 12.5986 11.0123 12 11.0123C11.4014 11.0123 11.0023 11.4074 11.0023 12ZM16.9887 16.8395C16.7891 17.037 16.4898 17.1358 16.2902 17.1358C16.0907 17.1358 15.9909 17.1358 15.8912 17.037C15.3923 16.8395 15.1927 16.2469 15.4921 15.7531L15.7914 15.4568C17.6871 13.5802 17.6871 10.4198 15.6916 8.54321C15.2925 8.14815 15.2925 7.55556 15.6916 7.16049C16.0907 6.76543 16.6893 6.76543 17.0884 7.16049C19.6825 9.82716 19.6825 14.1728 16.9887 16.8395ZM19.0839 20C19.2834 20 19.5828 19.9012 19.7823 19.7037C24.0726 15.4568 24.0726 8.54321 19.7823 4.39506C19.3832 4 18.7846 4 18.3855 4.39506C17.9864 4.79012 17.9864 5.38272 18.3855 5.77778C21.8776 9.23457 21.8776 14.8642 18.3855 18.321C17.9864 18.716 17.9864 19.3086 18.3855 19.7037C18.585 19.9012 18.8844 20 19.0839 20Z" fill="white"/>
</mask>
<g mask="url(#mask0)">
<rect width="24" height="24" fill="#347AF0"/>
</g>
</svg>
