<svg width="24" height="24" viewBox="0 0 24 24" fill="none" xmlns="http://www.w3.org/2000/svg">
<path fill-rule="evenodd" clip-rule="evenodd" d="M0.348548 10.7814C0.39834 10.8064 0.448133 10.8315 0.497925 10.8815C0.59751 10.9817 0.796681 10.9817 0.896266 10.9817H6.87137C7.46888 10.9817 7.86722 10.581 7.86722 9.98004C7.86722 9.37904 7.46888 8.97838 6.87137 8.97838H3.38589L6.27386 6.37405C7.07054 5.47256 8.16597 4.87156 9.26141 4.47089C11.2531 3.76973 13.444 3.8699 15.3361 4.77139C17.2282 5.77306 18.722 7.37572 19.4191 9.37904C19.6183 9.87988 20.2158 10.1804 20.7137 9.98004C21.2116 9.77971 21.5104 9.17871 21.3112 8.67788C20.4149 6.17372 18.6224 4.1704 16.2324 2.9684C13.8423 1.86657 11.1535 1.66624 8.6639 2.56773C7.26971 3.06857 5.9751 3.8699 4.97925 4.87156L1.9917 7.67622V3.97006C1.9917 3.36906 1.59336 2.9684 0.995851 2.9684C0.39834 2.9684 0 3.36906 0 3.97006V10.0802V10.1804V10.3807C0 10.4308 0.0248963 10.4558 0.0497925 10.4809C0.0746888 10.5059 0.0995851 10.531 0.0995851 10.581C0.19917 10.581 0.19917 10.6812 0.19917 10.6812C0.248963 10.7313 0.298755 10.7563 0.348548 10.7814ZM23.8008 13.586V13.7864C23.8008 13.8865 23.8008 13.8865 24 13.9867V19.9967C24 20.5977 23.6017 20.9983 23.0041 20.9983C22.4066 20.9983 22.0083 20.5977 22.0083 19.9967V16.2905L19.0207 19.0952C17.1286 20.9983 14.639 22 12.0498 22C9.46058 22 6.97095 21.0985 4.97925 19.0952C3.88382 18.0935 3.08714 16.7914 2.58921 15.389C2.39004 14.8882 2.6888 14.2872 3.18672 14.0869C3.68465 13.8865 4.28216 14.187 4.48133 14.6879C4.87967 15.7897 5.57676 16.8915 6.37344 17.6928C9.46058 20.798 14.5394 20.798 17.6266 17.6928L20.4149 14.9884H16.9295C16.332 14.9884 15.9336 14.5877 15.9336 13.9867C15.9336 13.3857 16.332 12.985 16.9295 12.985H22.9046H23.1037H23.3029L23.4025 13.0852L23.6017 13.2855C23.7012 13.2855 23.7012 13.3857 23.7012 13.3857C23.7012 13.4358 23.7261 13.4608 23.751 13.4859C23.7759 13.5109 23.8008 13.5359 23.8008 13.586Z" fill="black"/>
<mask id="mask0" mask-type="alpha" maskUnits="userSpaceOnUse" x="0" y="2" width="24" height="20">
<path fill-rule="evenodd" clip-rule="evenodd" d="M0.348548 10.7814C0.39834 10.8064 0.448133 10.8315 0.497925 10.8815C0.59751 10.9817 0.796681 10.9817 0.896266 10.9817H6.87137C7.46888 10.9817 7.86722 10.581 7.86722 9.98004C7.86722 9.37904 7.46888 8.97838 6.87137 8.97838H3.38589L6.27386 6.37405C7.07054 5.47256 8.16597 4.87156 9.26141 4.47089C11.2531 3.76973 13.444 3.8699 15.3361 4.77139C17.2282 5.77306 18.722 7.37572 19.4191 9.37904C19.6183 9.87988 20.2158 10.1804 20.7137 9.98004C21.2116 9.77971 21.5104 9.17871 21.3112 8.67788C20.4149 6.17372 18.6224 4.1704 16.2324 2.9684C13.8423 1.86657 11.1535 1.66624 8.6639 2.56773C7.26971 3.06857 5.9751 3.8699 4.97925 4.87156L1.9917 7.67622V3.97006C1.9917 3.36906 1.59336 2.9684 0.995851 2.9684C0.39834 2.9684 0 3.36906 0 3.97006V10.0802V10.1804V10.3807C0 10.4308 0.0248963 10.4558 0.0497925 10.4809C0.0746888 10.5059 0.0995851 10.531 0.0995851 10.581C0.19917 10.581 0.19917 10.6812 0.19917 10.6812C0.248963 10.7313 0.298755 10.7563 0.348548 10.7814ZM23.8008 13.586V13.7864C23.8008 13.8865 23.8008 13.8865 24 13.9867V19.9967C24 20.5977 23.6017 20.9983 23.0041 20.9983C22.4066 20.9983 22.0083 20.5977 22.0083 19.9967V16.2905L19.0207 19.0952C17.1286 20.9983 14.639 22 12.0498 22C9.46058 22 6.97095 21.0985 4.97925 19.0952C3.88382 18.0935 3.08714 16.7914 2.58921 15.389C2.39004 14.8882 2.6888 14.2872 3.18672 14.0869C3.68465 13.8865 4.28216 14.187 4.48133 14.6879C4.87967 15.7897 5.57676 16.8915 6.37344 17.6928C9.46058 20.798 14.5394 20.798 17.6266 17.6928L20.4149 14.9884H16.9295C16.332 14.9884 15.9336 14.5877 15.9336 13.9867C15.9336 13.3857 16.332 12.985 16.9295 12.985H22.9046H23.1037H23.3029L23.4025 13.0852L23.6017 13.2855C23.7012 13.2855 23.7012 13.3857 23.7012 13.3857C23.7012 13.4358 23.7261 13.4608 23.751 13.4859C23.7759 13.5109 23.8008 13.5359 23.8008 13.586Z" fill="white"/>
</mask>
<g mask="url(#mask0)">
<rect width="24" height="24" fill="#347AF0"/>
</g>
</svg>
