<svg width="24" height="24" viewBox="0 0 24 24" fill="none" xmlns="http://www.w3.org/2000/svg">
<path fill-rule="evenodd" clip-rule="evenodd" d="M23.8494 10.4992C23.8745 10.4742 23.8996 10.4492 23.8996 10.3992C24 10.2992 24 10.1992 24 10.0992V9.99921V3.99881C24 3.39877 23.5983 2.99875 22.9958 2.99875C22.3933 2.99875 21.9916 3.39877 21.9916 3.99881V7.69906L18.9791 4.99888C17.9749 3.89881 16.6695 3.09875 15.2636 2.59872C12.7531 1.69866 10.0418 1.79867 7.6318 2.99875C5.22176 4.09882 3.41423 6.09895 2.51046 8.69912C2.30962 9.19916 2.61088 9.7992 3.11297 9.8992C3.61506 10.0992 4.21757 9.7992 4.41841 9.29916C5.12134 7.29903 6.5272 5.69893 8.53557 4.79887C10.4435 3.89881 12.6527 3.7988 14.6611 4.49885C15.7657 4.89887 16.7699 5.49891 17.6736 6.39897L20.4854 8.99914H16.9707C16.3682 8.99914 15.9665 9.39917 15.9665 9.99921C15.9665 10.5992 16.3682 10.9993 16.9707 10.9993H22.9958C23.0962 10.9993 23.2971 10.9993 23.3975 10.8993C23.4979 10.8993 23.5983 10.7993 23.6987 10.6993C23.7992 10.6993 23.7992 10.5992 23.7992 10.5992C23.7992 10.5492 23.8243 10.5242 23.8494 10.4992ZM19.4812 14.6995C19.682 14.1995 20.2845 13.8995 20.7866 14.0995C21.2887 14.1995 21.59 14.7995 21.4895 15.3996C20.9874 16.7997 20.0837 18.0997 19.0795 19.0998C17.1715 20.9999 14.6611 22 11.9498 22C9.23849 22 6.72803 20.9999 4.9205 18.9998L2.00837 16.1996V19.8999C2.00837 20.4999 1.60669 20.8999 1.00418 20.8999C0.401674 20.8999 0 20.4999 0 19.8999V13.8995V13.7995V13.5994C0 13.5494 0.0251045 13.5244 0.050209 13.4994C0.0753137 13.4744 0.100418 13.4494 0.100418 13.3994C0.200837 13.3994 0.200837 13.2994 0.200837 13.2994C0.200837 13.1994 0.301255 13.0994 0.401674 13.0994C0.401674 12.9994 0.502092 12.9994 0.502092 12.9994H0.702929H0.903766H6.92887C7.53138 12.9994 7.93305 13.3994 7.93305 13.9995C7.93305 14.5995 7.53138 14.9995 6.92887 14.9995H3.41423L6.22594 17.5997C7.83264 19.1998 9.841 19.9999 11.9498 19.9999C14.0586 19.9999 16.1674 19.1998 17.5732 17.6997C18.477 16.8997 19.0795 15.7996 19.4812 14.6995Z" fill="black"/>
<mask id="mask0" mask-type="alpha" maskUnits="userSpaceOnUse" x="0" y="2" width="24" height="20">
<path fill-rule="evenodd" clip-rule="evenodd" d="M23.8494 10.4992C23.8745 10.4742 23.8996 10.4492 23.8996 10.3992C24 10.2992 24 10.1992 24 10.0992V9.99921V3.99881C24 3.39877 23.5983 2.99875 22.9958 2.99875C22.3933 2.99875 21.9916 3.39877 21.9916 3.99881V7.69906L18.9791 4.99888C17.9749 3.89881 16.6695 3.09875 15.2636 2.59872C12.7531 1.69866 10.0418 1.79867 7.6318 2.99875C5.22176 4.09882 3.41423 6.09895 2.51046 8.69912C2.30962 9.19916 2.61088 9.7992 3.11297 9.8992C3.61506 10.0992 4.21757 9.7992 4.41841 9.29916C5.12134 7.29903 6.5272 5.69893 8.53557 4.79887C10.4435 3.89881 12.6527 3.7988 14.6611 4.49885C15.7657 4.89887 16.7699 5.49891 17.6736 6.39897L20.4854 8.99914H16.9707C16.3682 8.99914 15.9665 9.39917 15.9665 9.99921C15.9665 10.5992 16.3682 10.9993 16.9707 10.9993H22.9958C23.0962 10.9993 23.2971 10.9993 23.3975 10.8993C23.4979 10.8993 23.5983 10.7993 23.6987 10.6993C23.7992 10.6993 23.7992 10.5992 23.7992 10.5992C23.7992 10.5492 23.8243 10.5242 23.8494 10.4992ZM19.4812 14.6995C19.682 14.1995 20.2845 13.8995 20.7866 14.0995C21.2887 14.1995 21.59 14.7995 21.4895 15.3996C20.9874 16.7997 20.0837 18.0997 19.0795 19.0998C17.1715 20.9999 14.6611 22 11.9498 22C9.23849 22 6.72803 20.9999 4.9205 18.9998L2.00837 16.1996V19.8999C2.00837 20.4999 1.60669 20.8999 1.00418 20.8999C0.401674 20.8999 0 20.4999 0 19.8999V13.8995V13.7995V13.5994C0 13.5494 0.0251045 13.5244 0.050209 13.4994C0.0753137 13.4744 0.100418 13.4494 0.100418 13.3994C0.200837 13.3994 0.200837 13.2994 0.200837 13.2994C0.200837 13.1994 0.301255 13.0994 0.401674 13.0994C0.401674 12.9994 0.502092 12.9994 0.502092 12.9994H0.702929H0.903766H6.92887C7.53138 12.9994 7.93305 13.3994 7.93305 13.9995C7.93305 14.5995 7.53138 14.9995 6.92887 14.9995H3.41423L6.22594 17.5997C7.83264 19.1998 9.841 19.9999 11.9498 19.9999C14.0586 19.9999 16.1674 19.1998 17.5732 17.6997C18.477 16.8997 19.0795 15.7996 19.4812 14.6995Z" fill="white"/>
</mask>
<g mask="url(#mask0)">
<rect width="24" height="24" fill="#347AF0"/>
</g>
</svg>
