<svg width="24" height="24" viewBox="0 0 24 24" fill="none" xmlns="http://www.w3.org/2000/svg">
<path fill-rule="evenodd" clip-rule="evenodd" d="M12 23C18.0751 23 23 18.0751 23 12C23 5.92487 18.0751 1 12 1C5.92487 1 1 5.92487 1 12C1 18.0751 5.92487 23 12 23Z" fill="white"/>
<path fill-rule="evenodd" clip-rule="evenodd" d="M23 12C23 18.0751 18.0751 23 12 23C5.92487 23 1 18.0751 1 12C1 5.92487 5.92487 1 12 1C18.0751 1 23 5.92487 23 12ZM16.7857 16.7857C17.0714 16.5 17.0714 16.0714 16.7857 15.7857L13 12L16.7857 8.21429C17.0714 7.92857 17.0714 7.5 16.7857 7.21429C16.5 6.92857 16.0714 6.92857 15.7857 7.21429L12 11L8.21429 7.21429C7.92857 6.92857 7.5 6.92857 7.21429 7.21429C6.92857 7.5 6.92857 7.92857 7.21429 8.21429L11 12L7.21429 15.7857C6.92857 16.0714 6.92857 16.5 7.21429 16.7857C7.35714 16.9286 7.5 17 7.71429 17C7.92857 17 8.07143 16.9286 8.21429 16.7857L12 13L15.7857 16.7857C15.9286 16.9286 16.0714 17 16.2857 17C16.5 17 16.6429 16.9286 16.7857 16.7857Z" fill="#DF5060"/>
<mask id="mask0" mask-type="alpha" maskUnits="userSpaceOnUse" x="1" y="1" width="22" height="22">
<path fill-rule="evenodd" clip-rule="evenodd" d="M23 12C23 18.0751 18.0751 23 12 23C5.92487 23 1 18.0751 1 12C1 5.92487 5.92487 1 12 1C18.0751 1 23 5.92487 23 12ZM16.7857 16.7857C17.0714 16.5 17.0714 16.0714 16.7857 15.7857L13 12L16.7857 8.21429C17.0714 7.92857 17.0714 7.5 16.7857 7.21429C16.5 6.92857 16.0714 6.92857 15.7857 7.21429L12 11L8.21429 7.21429C7.92857 6.92857 7.5 6.92857 7.21429 7.21429C6.92857 7.5 6.92857 7.92857 7.21429 8.21429L11 12L7.21429 15.7857C6.92857 16.0714 6.92857 16.5 7.21429 16.7857C7.35714 16.9286 7.5 17 7.71429 17C7.92857 17 8.07143 16.9286 8.21429 16.7857L12 13L15.7857 16.7857C15.9286 16.9286 16.0714 17 16.2857 17C16.5 17 16.6429 16.9286 16.7857 16.7857Z" fill="white"/>
</mask>
<g mask="url(#mask0)">
<rect width="24" height="24" fill="#DF5060"/>
</g>
</svg>
