<svg width="24" height="24" viewBox="0 0 24 24" fill="none" xmlns="http://www.w3.org/2000/svg">
<path fill-rule="evenodd" clip-rule="evenodd" d="M2 9V11C2 11.6 2.4 12 3 12C3.6 12 4 11.6 4 11V9C4 7.3 5.3 6 7 6H18.6L16.3 8.3C15.9 8.7 15.9 9.3 16.3 9.7C16.5 9.9 16.7 10 17 10C17.3 10 17.5 9.9 17.7 9.7L21.7 5.7C21.75 5.65 21.775 5.6 21.8 5.55C21.825 5.5 21.85 5.45 21.9 5.4C22 5.1 22 4.8 21.9 4.6C21.9 4.5 21.8 4.4 21.7 4.3L17.7 0.3C17.3 -0.1 16.7 -0.1 16.3 0.3C15.9 0.7 15.9 1.3 16.3 1.7L18.6 4H7C4.2 4 2 6.2 2 9ZM20 13C20 12.4 20.4 12 21 12C21.6 12 22 12.4 22 13V15C22 17.8 19.8 20 17 20H5.4L7.7 22.3C8.1 22.7 8.1 23.3 7.7 23.7C7.5 23.9 7.3 24 7 24C6.7 24 6.5 23.9 6.3 23.7L2.3 19.7C2.25 19.65 2.225 19.6 2.2 19.55C2.175 19.5 2.15 19.45 2.1 19.4C2 19.1 2 18.8 2.1 18.6C2.1 18.5 2.2 18.4 2.3 18.3L6.3 14.3C6.7 13.9 7.3 13.9 7.7 14.3C8.1 14.7 8.1 15.3 7.7 15.7L5.4 18H17C18.7 18 20 16.7 20 15V13Z" fill="black"/>
<mask id="mask0" mask-type="alpha" maskUnits="userSpaceOnUse" x="2" y="0" width="20" height="24">
<path fill-rule="evenodd" clip-rule="evenodd" d="M2 9V11C2 11.6 2.4 12 3 12C3.6 12 4 11.6 4 11V9C4 7.3 5.3 6 7 6H18.6L16.3 8.3C15.9 8.7 15.9 9.3 16.3 9.7C16.5 9.9 16.7 10 17 10C17.3 10 17.5 9.9 17.7 9.7L21.7 5.7C21.75 5.65 21.775 5.6 21.8 5.55C21.825 5.5 21.85 5.45 21.9 5.4C22 5.1 22 4.8 21.9 4.6C21.9 4.5 21.8 4.4 21.7 4.3L17.7 0.3C17.3 -0.1 16.7 -0.1 16.3 0.3C15.9 0.7 15.9 1.3 16.3 1.7L18.6 4H7C4.2 4 2 6.2 2 9ZM20 13C20 12.4 20.4 12 21 12C21.6 12 22 12.4 22 13V15C22 17.8 19.8 20 17 20H5.4L7.7 22.3C8.1 22.7 8.1 23.3 7.7 23.7C7.5 23.9 7.3 24 7 24C6.7 24 6.5 23.9 6.3 23.7L2.3 19.7C2.25 19.65 2.225 19.6 2.2 19.55C2.175 19.5 2.15 19.45 2.1 19.4C2 19.1 2 18.8 2.1 18.6C2.1 18.5 2.2 18.4 2.3 18.3L6.3 14.3C6.7 13.9 7.3 13.9 7.7 14.3C8.1 14.7 8.1 15.3 7.7 15.7L5.4 18H17C18.7 18 20 16.7 20 15V13Z" fill="white"/>
</mask>
<g mask="url(#mask0)">
<rect width="24" height="24" fill="#347AF0"/>
</g>
</svg>
