<svg width="24" height="24" viewBox="0 0 24 24" fill="none" xmlns="http://www.w3.org/2000/svg">
<path fill-rule="evenodd" clip-rule="evenodd" d="M10.3 4.2089C10.6 4.00901 11.1 3.90907 11.4 4.10896C11.8 4.30884 12 4.60867 12 5.00845V12.0045V19.0006C12 19.4003 11.7 19.7002 11.4 19.9001C11.3 20 11.1 20 11 20C10.8 20 10.6 19.9001 10.4 19.8001L1.4 12.8041C1.1 12.6042 1 12.3043 1 12.0045C1 11.7047 1.1 11.4048 1.3 11.205L10.3 4.2089ZM12 12.0045C12 11.7047 12.1 11.4048 12.3 11.205L21.3 4.2089C21.6 4.00901 22.1 3.90907 22.4 4.10896C22.8 4.30884 23 4.60867 23 5.00845V19.0006C23 19.4003 22.7 19.7002 22.4 19.9001C22.3 20 22.1 20 22 20C21.8 20 21.6 19.9001 21.4 19.8001L12.4 12.8041C12.1 12.6042 12 12.3043 12 12.0045ZM3.6 12.0045L10 17.0017V7.00732L3.6 12.0045ZM14.6 12.0045L21 17.0017V7.00732L14.6 12.0045Z" fill="black"/>
<mask id="mask0" mask-type="alpha" maskUnits="userSpaceOnUse" x="1" y="4" width="22" height="16">
<path fill-rule="evenodd" clip-rule="evenodd" d="M10.3 4.2089C10.6 4.00901 11.1 3.90907 11.4 4.10896C11.8 4.30884 12 4.60867 12 5.00845V12.0045V19.0006C12 19.4003 11.7 19.7002 11.4 19.9001C11.3 20 11.1 20 11 20C10.8 20 10.6 19.9001 10.4 19.8001L1.4 12.8041C1.1 12.6042 1 12.3043 1 12.0045C1 11.7047 1.1 11.4048 1.3 11.205L10.3 4.2089ZM12 12.0045C12 11.7047 12.1 11.4048 12.3 11.205L21.3 4.2089C21.6 4.00901 22.1 3.90907 22.4 4.10896C22.8 4.30884 23 4.60867 23 5.00845V19.0006C23 19.4003 22.7 19.7002 22.4 19.9001C22.3 20 22.1 20 22 20C21.8 20 21.6 19.9001 21.4 19.8001L12.4 12.8041C12.1 12.6042 12 12.3043 12 12.0045ZM3.6 12.0045L10 17.0017V7.00732L3.6 12.0045ZM14.6 12.0045L21 17.0017V7.00732L14.6 12.0045Z" fill="white"/>
</mask>
<g mask="url(#mask0)">
<rect width="24" height="24" fill="#347AF0"/>
</g>
</svg>
