<svg width="24" height="24" viewBox="0 0 24 24" fill="none" xmlns="http://www.w3.org/2000/svg">
<path fill-rule="evenodd" clip-rule="evenodd" d="M3.64801 2.19202L3.648 2.19202H0.144L0.24 2.28802C0.576 2.62402 0.96 3.00802 1.296 3.44002C3.16797 5.26399 5.03994 7.13596 6.91192 9.00793L6.912 9.00802C7.632 9.72802 8.4 10.352 9.312 10.736C10.512 11.216 11.808 11.36 13.104 11.168C14.448 10.976 15.648 10.352 16.608 9.44002C17.616 8.48003 18.624 7.47204 19.632 6.46405L19.632 6.46402C20.28 5.81603 20.928 5.18004 21.576 4.54405C22.224 3.90804 22.872 3.27203 23.52 2.62402C23.664 2.48002 23.76 2.38402 23.856 2.24002H20.352L20.208 2.38402C19.368 3.22403 18.516 4.06404 17.664 4.90405C16.812 5.74404 15.96 6.58403 15.12 7.42402C14.16 8.38402 13.008 8.86402 11.616 8.76802C10.656 8.67202 9.744 8.24002 9.024 7.56802C7.68 6.22402 6.384 4.92802 5.04 3.63202C4.608 3.15202 4.128 2.67202 3.64801 2.19202ZM19.776 21.248L20.496 21.968V22.016H23.952L22.8 20.864C21.216 19.328 19.68 17.792 18.144 16.256C17.9872 16.0993 17.8335 15.9425 17.6805 15.7865C17.2245 15.3215 16.7752 14.8633 16.272 14.432C15.072 13.376 13.68 12.896 12.096 12.848C11.328 12.8 10.608 12.896 9.936 13.136C9.024 13.424 8.112 13.952 7.392 14.624L5.424 16.592L2.352 19.664L0 22.016H3.504L3.648 21.872C4.536 21.008 5.412 20.132 6.288 19.256C7.164 18.38 8.04 17.504 8.928 16.64C9.6 15.968 10.416 15.536 11.328 15.392C12.72 15.152 13.968 15.536 14.976 16.496C16.56 18.032 18.192 19.664 19.776 21.248Z" fill="#0D1F3C"/>
</svg>
