<svg width="24" height="24" viewBox="0 0 24 24" fill="none" xmlns="http://www.w3.org/2000/svg">
<path d="M16.1711 21.399C15.066 21.7997 13.9608 22 12.8556 22C8.73627 22 4.8179 19.3957 3.41131 15.2889C3.21036 14.788 3.51178 14.187 4.01413 13.9867C4.51649 13.7864 5.11931 14.0869 5.32026 14.5877C6.82732 18.7947 11.3485 20.9983 15.5683 19.4958C19.7881 17.9933 21.9985 13.4859 20.4914 9.27888C19.7881 7.27555 18.281 5.67289 16.3721 4.67123C14.4631 3.76973 12.2528 3.66956 10.2433 4.37073C9.13816 4.77139 8.03298 5.37239 7.22921 6.27389L4.31555 8.97838H7.83203C8.43486 8.97838 8.83674 9.37904 8.83674 9.98004C8.83674 10.581 8.43486 10.9817 7.83203 10.9817H1.80377C1.7033 10.9817 1.60283 10.9817 1.60283 10.9817H1.50236L1.40188 10.8815C1.30141 10.8815 1.30141 10.7814 1.20094 10.7814C1.20094 10.7814 1.20094 10.6812 1.10047 10.6812C1.10047 10.581 1 10.581 1 10.4809C1 10.3807 1 10.2805 1 10.2805V10.1804V3.97006C1 3.36906 1.40188 2.9684 2.00471 2.9684C2.60754 2.9684 3.00942 3.36906 3.00942 3.97006V7.67622L6.02355 4.87156C7.02826 3.8699 8.33439 3.06857 9.74098 2.56773C12.2528 1.66624 14.9655 1.86657 17.3768 2.9684C19.7881 4.1704 21.5966 6.17372 22.5008 8.67788C24.2088 13.8865 21.3956 19.596 16.1711 21.399Z" fill="black"/>
<mask id="mask0" mask-type="alpha" maskUnits="userSpaceOnUse" x="1" y="2" width="22" height="20">
<path d="M16.1711 21.399C15.066 21.7997 13.9608 22 12.8556 22C8.73627 22 4.8179 19.3957 3.41131 15.2889C3.21036 14.788 3.51178 14.187 4.01413 13.9867C4.51649 13.7864 5.11931 14.0869 5.32026 14.5877C6.82732 18.7947 11.3485 20.9983 15.5683 19.4958C19.7881 17.9933 21.9985 13.4859 20.4914 9.27888C19.7881 7.27555 18.281 5.67289 16.3721 4.67123C14.4631 3.76973 12.2528 3.66956 10.2433 4.37073C9.13816 4.77139 8.03298 5.37239 7.22921 6.27389L4.31555 8.97838H7.83203C8.43486 8.97838 8.83674 9.37904 8.83674 9.98004C8.83674 10.581 8.43486 10.9817 7.83203 10.9817H1.80377C1.7033 10.9817 1.60283 10.9817 1.60283 10.9817H1.50236L1.40188 10.8815C1.30141 10.8815 1.30141 10.7814 1.20094 10.7814C1.20094 10.7814 1.20094 10.6812 1.10047 10.6812C1.10047 10.581 1 10.581 1 10.4809C1 10.3807 1 10.2805 1 10.2805V10.1804V3.97006C1 3.36906 1.40188 2.9684 2.00471 2.9684C2.60754 2.9684 3.00942 3.36906 3.00942 3.97006V7.67622L6.02355 4.87156C7.02826 3.8699 8.33439 3.06857 9.74098 2.56773C12.2528 1.66624 14.9655 1.86657 17.3768 2.9684C19.7881 4.1704 21.5966 6.17372 22.5008 8.67788C24.2088 13.8865 21.3956 19.596 16.1711 21.399Z" fill="white"/>
</mask>
<g mask="url(#mask0)">
<rect width="24" height="24" fill="#347AF0"/>
</g>
</svg>
