<svg width="24" height="24" viewBox="0 0 24 24" fill="none" xmlns="http://www.w3.org/2000/svg">
<path d="M22.8998 10.4331C22.8998 10.5328 22.7996 10.5328 22.7996 10.6325C22.7996 10.6325 22.7996 10.7322 22.6994 10.7322C22.5992 10.8319 22.5992 10.8319 22.499 10.9316L22.3988 11.0314H22.2986C22.1984 11.0314 22.0982 11.0314 22.0982 11.0314H16.0865C15.4854 11.0314 15.0846 10.6325 15.0846 10.0342C15.0846 9.43592 15.4854 9.03706 16.0865 9.03706H19.5934L16.7879 6.44447C15.8862 5.54703 14.8842 4.94874 13.7821 4.54988C11.7782 3.85188 9.57386 3.95159 7.67016 4.84903C5.56606 5.74646 4.16333 7.3419 3.46197 9.3362C1.95904 13.5242 4.16333 18.1111 8.27133 19.5071C12.4795 21.0028 16.9883 18.8091 18.4912 14.6211C18.6916 14.1225 19.2928 13.8234 19.7938 14.0228C20.2947 14.2222 20.5953 14.8205 20.3949 15.3191C18.9922 19.4074 15.0846 22 10.9766 22C9.87445 22 8.7723 21.8006 7.67016 21.4017C2.46001 19.6068 -0.245252 13.8234 1.55826 8.6382C3.36177 3.45302 9.17308 0.760715 14.3832 2.55558C15.786 3.05416 17.0885 3.85188 18.0904 4.94874L20.9961 7.74076V4.05131C20.9961 3.45302 21.3969 3.05416 21.998 3.05416C22.5992 3.05416 23 3.45302 23 4.05131V10.0342C23 10.1339 23 10.1339 23 10.1339C23 10.2336 23 10.3334 22.8998 10.4331Z" fill="black"/>
<mask id="mask0" mask-type="alpha" maskUnits="userSpaceOnUse" x="1" y="2" width="22" height="20">
<path d="M22.8998 10.4331C22.8998 10.5328 22.7996 10.5328 22.7996 10.6325C22.7996 10.6325 22.7996 10.7322 22.6994 10.7322C22.5992 10.8319 22.5992 10.8319 22.499 10.9316L22.3988 11.0314H22.2986C22.1984 11.0314 22.0982 11.0314 22.0982 11.0314H16.0865C15.4854 11.0314 15.0846 10.6325 15.0846 10.0342C15.0846 9.43592 15.4854 9.03706 16.0865 9.03706H19.5934L16.7879 6.44447C15.8862 5.54703 14.8842 4.94874 13.7821 4.54988C11.7782 3.85188 9.57386 3.95159 7.67016 4.84903C5.56606 5.74646 4.16333 7.3419 3.46197 9.3362C1.95904 13.5242 4.16333 18.1111 8.27133 19.5071C12.4795 21.0028 16.9883 18.8091 18.4912 14.6211C18.6916 14.1225 19.2928 13.8234 19.7938 14.0228C20.2947 14.2222 20.5953 14.8205 20.3949 15.3191C18.9922 19.4074 15.0846 22 10.9766 22C9.87445 22 8.7723 21.8006 7.67016 21.4017C2.46001 19.6068 -0.245252 13.8234 1.55826 8.6382C3.36177 3.45302 9.17308 0.760715 14.3832 2.55558C15.786 3.05416 17.0885 3.85188 18.0904 4.94874L20.9961 7.74076V4.05131C20.9961 3.45302 21.3969 3.05416 21.998 3.05416C22.5992 3.05416 23 3.45302 23 4.05131V10.0342C23 10.1339 23 10.1339 23 10.1339C23 10.2336 23 10.3334 22.8998 10.4331Z" fill="white"/>
</mask>
<g mask="url(#mask0)">
<rect width="24" height="24" fill="#347AF0"/>
</g>
</svg>
