<svg width="24" height="24" viewBox="0 0 24 24" fill="none" xmlns="http://www.w3.org/2000/svg">
<path fill-rule="evenodd" clip-rule="evenodd" d="M4 3C3.4 3 3 3.4 3 4C3 4.6 3.4 5 4 5C12.3 5 19 11.7 19 20C19 20.6 19.4 21 20 21C20.6 21 21 20.6 21 20C21 10.6 13.4 3 4 3ZM14 20C14 20.6 13.6 21 13 21C12.4 21 12 20.6 12 20C12 15.6 8.4 12 4 12C3.4 12 3 11.6 3 11C3 10.4 3.4 10 4 10C9.5 10 14 14.5 14 20ZM3 19C3 17.9 3.9 17 5 17C6.1 17 7 17.9 7 19C7 20.1 6.1 21 5 21C3.9 21 3 20.1 3 19Z" fill="black"/>
<mask id="mask0" mask-type="alpha" maskUnits="userSpaceOnUse" x="3" y="3" width="18" height="18">
<path fill-rule="evenodd" clip-rule="evenodd" d="M4 3C3.4 3 3 3.4 3 4C3 4.6 3.4 5 4 5C12.3 5 19 11.7 19 20C19 20.6 19.4 21 20 21C20.6 21 21 20.6 21 20C21 10.6 13.4 3 4 3ZM14 20C14 20.6 13.6 21 13 21C12.4 21 12 20.6 12 20C12 15.6 8.4 12 4 12C3.4 12 3 11.6 3 11C3 10.4 3.4 10 4 10C9.5 10 14 14.5 14 20ZM3 19C3 17.9 3.9 17 5 17C6.1 17 7 17.9 7 19C7 20.1 6.1 21 5 21C3.9 21 3 20.1 3 19Z" fill="white"/>
</mask>
<g mask="url(#mask0)">
<rect width="24" height="24" fill="#347AF0"/>
</g>
</svg>
