<svg width="24" height="24" viewBox="0 0 24 24" fill="none" xmlns="http://www.w3.org/2000/svg">
<path fill-rule="evenodd" clip-rule="evenodd" d="M21.7 7.3L16.7 2.3C16.5 2.1 16.3 2 16 2H5C3.3 2 2 3.3 2 5V19C2 20.7 3.3 22 5 22H19C20.7 22 22 20.7 22 19V8C22 7.7 21.9 7.5 21.7 7.3ZM16 20H8V14H16V20ZM19 20C19.6 20 20 19.6 20 19V8.4L15.6 4H8V7H15C15.6 7 16 7.4 16 8C16 8.6 15.6 9 15 9H7C6.4 9 6 8.6 6 8V4H5C4.4 4 4 4.4 4 5V19C4 19.6 4.4 20 5 20H6V13C6 12.4 6.4 12 7 12H17C17.6 12 18 12.4 18 13V20H19Z" fill="black"/>
<mask id="mask0" mask-type="alpha" maskUnits="userSpaceOnUse" x="2" y="2" width="20" height="20">
<path fill-rule="evenodd" clip-rule="evenodd" d="M21.7 7.3L16.7 2.3C16.5 2.1 16.3 2 16 2H5C3.3 2 2 3.3 2 5V19C2 20.7 3.3 22 5 22H19C20.7 22 22 20.7 22 19V8C22 7.7 21.9 7.5 21.7 7.3ZM16 20H8V14H16V20ZM19 20C19.6 20 20 19.6 20 19V8.4L15.6 4H8V7H15C15.6 7 16 7.4 16 8C16 8.6 15.6 9 15 9H7C6.4 9 6 8.6 6 8V4H5C4.4 4 4 4.4 4 5V19C4 19.6 4.4 20 5 20H6V13C6 12.4 6.4 12 7 12H17C17.6 12 18 12.4 18 13V20H19Z" fill="white"/>
</mask>
<g mask="url(#mask0)">
<rect width="24" height="24" fill="#347AF0"/>
</g>
</svg>
