<svg width="24" height="24" viewBox="0 0 24 24" fill="none" xmlns="http://www.w3.org/2000/svg">
<path fill-rule="evenodd" clip-rule="evenodd" d="M20.3 3.3C20.7 2.9 21.3 2.9 21.7 3.3C22.1 3.7 22.1 4.3 21.7 4.7L10.4 16C10.8 16.6 11 17.3 11 18C11 20.2 9.2 22 7 22C4.8 22 3 20.2 3 18C3 15.8 4.8 14 7 14C7.7 14 8.4 14.2 9 14.6L11.6 12L9 9.4C8.4 9.8 7.7 10 7 10C4.8 10 3 8.2 3 6C3 3.8 4.8 2 7 2C9.2 2 11 3.8 11 6C11 6.7 10.8 7.4 10.4 8L13 10.6L20.3 3.3ZM7 4C5.9 4 5 4.9 5 6C5 7.1 5.9 8 7 8C7.6 8 8 7.8 8.4 7.4C8.8 7 9 6.6 9 6C9 4.9 8.1 4 7 4ZM7 20C5.9 20 5 19.1 5 18C5 16.9 5.9 16 7 16C7.6 16 8 16.2 8.4 16.6C8.8 17 9 17.4 9 18C9 19.1 8.1 20 7 20ZM21 21C21.3 21 21.5 20.9 21.7 20.7C22.1 20.3 22.1 19.7 21.7 19.3L16.2 13.8C15.8 13.4 15.2 13.4 14.8 13.8C14.4 14.2 14.4 14.8 14.8 15.2L20.3 20.7C20.5 20.9 20.7 21 21 21Z" fill="black"/>
<mask id="mask0" mask-type="alpha" maskUnits="userSpaceOnUse" x="3" y="2" width="19" height="20">
<path fill-rule="evenodd" clip-rule="evenodd" d="M20.3 3.3C20.7 2.9 21.3 2.9 21.7 3.3C22.1 3.7 22.1 4.3 21.7 4.7L10.4 16C10.8 16.6 11 17.3 11 18C11 20.2 9.2 22 7 22C4.8 22 3 20.2 3 18C3 15.8 4.8 14 7 14C7.7 14 8.4 14.2 9 14.6L11.6 12L9 9.4C8.4 9.8 7.7 10 7 10C4.8 10 3 8.2 3 6C3 3.8 4.8 2 7 2C9.2 2 11 3.8 11 6C11 6.7 10.8 7.4 10.4 8L13 10.6L20.3 3.3ZM7 4C5.9 4 5 4.9 5 6C5 7.1 5.9 8 7 8C7.6 8 8 7.8 8.4 7.4C8.8 7 9 6.6 9 6C9 4.9 8.1 4 7 4ZM7 20C5.9 20 5 19.1 5 18C5 16.9 5.9 16 7 16C7.6 16 8 16.2 8.4 16.6C8.8 17 9 17.4 9 18C9 19.1 8.1 20 7 20ZM21 21C21.3 21 21.5 20.9 21.7 20.7C22.1 20.3 22.1 19.7 21.7 19.3L16.2 13.8C15.8 13.4 15.2 13.4 14.8 13.8C14.4 14.2 14.4 14.8 14.8 15.2L20.3 20.7C20.5 20.9 20.7 21 21 21Z" fill="white"/>
</mask>
<g mask="url(#mask0)">
<rect width="24" height="24" fill="#347AF0"/>
</g>
</svg>
