<svg width="24" height="24" viewBox="0 0 24 24" fill="none" xmlns="http://www.w3.org/2000/svg">
<path fill-rule="evenodd" clip-rule="evenodd" d="M23 2.90002C23 2.80002 23 2.70002 22.9 2.60002V2.50002C22.9 2.40002 22.8 2.30002 22.7 2.20002C22.65 2.15002 22.6 2.12502 22.55 2.10002C22.5 2.07502 22.45 2.05002 22.4 2.00002H22.3C22.2 2.00002 22.1 2.00002 22 1.90002V2.00002C21.9 2.00002 21.8 2.00002 21.7 2.10002L1.7 9.10002C1.3 9.20002 1 9.50002 1 10C1 10.4 1.2 10.8 1.6 11L10.2 14.8L14 23.4C14.2 23.8 14.5 24 14.9 24C15.3 24 15.7 23.7 15.8 23.3L22.8 3.30002C23 3.20002 23 3.10002 23 2.90002ZM18.2 5.40002L10.8 12.8L4.7 10.1L18.2 5.40002ZM12.2 14.2L14.9 20.3L19.6 6.80002L12.2 14.2Z" fill="black"/>
<mask id="mask0" mask-type="alpha" maskUnits="userSpaceOnUse" x="1" y="1" width="22" height="23">
<path fill-rule="evenodd" clip-rule="evenodd" d="M23 2.90002C23 2.80002 23 2.70002 22.9 2.60002V2.50002C22.9 2.40002 22.8 2.30002 22.7 2.20002C22.65 2.15002 22.6 2.12502 22.55 2.10002C22.5 2.07502 22.45 2.05002 22.4 2.00002H22.3C22.2 2.00002 22.1 2.00002 22 1.90002V2.00002C21.9 2.00002 21.8 2.00002 21.7 2.10002L1.7 9.10002C1.3 9.20002 1 9.50002 1 10C1 10.4 1.2 10.8 1.6 11L10.2 14.8L14 23.4C14.2 23.8 14.5 24 14.9 24C15.3 24 15.7 23.7 15.8 23.3L22.8 3.30002C23 3.20002 23 3.10002 23 2.90002ZM18.2 5.40002L10.8 12.8L4.7 10.1L18.2 5.40002ZM12.2 14.2L14.9 20.3L19.6 6.80002L12.2 14.2Z" fill="white"/>
</mask>
<g mask="url(#mask0)">
<rect width="24" height="24" fill="#347AF0"/>
</g>
</svg>
