<svg width="24" height="24" viewBox="0 0 24 24" fill="none" xmlns="http://www.w3.org/2000/svg">
<path fill-rule="evenodd" clip-rule="evenodd" d="M4 1H20C21.7 1 23 2.3 23 4V8C23 9.7 21.7 11 20 11H4C2.3 11 1 9.7 1 8V4C1 2.3 2.3 1 4 1ZM20 9C20.6 9 21 8.6 21 8V4C21 3.4 20.6 3 20 3H4C3.4 3 3 3.4 3 4V8C3 8.6 3.4 9 4 9H20ZM20 13H4C2.3 13 1 14.3 1 16V20C1 21.7 2.3 23 4 23H20C21.7 23 23 21.7 23 20V16C23 14.3 21.7 13 20 13ZM20 21C20.6 21 21 20.6 21 20V16C21 15.4 20.6 15 20 15H4C3.4 15 3 15.4 3 16V20C3 20.6 3.4 21 4 21H20ZM6.7 5.3C6.9 5.5 7 5.7 7 6C7 6.3 6.9 6.5 6.7 6.7C6.5 6.9 6.3 7 6 7C5.7 7 5.5 6.9 5.3 6.7C5.2 6.6 5.1 6.5 5.1 6.4C5 6.3 5 6.1 5 6C5 5.9 5 5.7 5.1 5.6C5.15 5.55 5.175 5.5 5.2 5.45C5.225 5.4 5.25 5.35 5.3 5.3C5.4 5.2 5.5 5.1 5.6 5.1C5.9 5 6.1 5 6.4 5.1C6.5 5.1 6.6 5.2 6.7 5.3ZM7 18C7 17.7 6.9 17.5 6.7 17.3C6.3 16.9 5.7 16.9 5.3 17.3C5.25 17.35 5.225 17.4 5.2 17.45C5.175 17.5 5.15 17.55 5.1 17.6C5 17.7 5 17.9 5 18C5 18.3 5.1 18.5 5.3 18.7C5.5 18.9 5.7 19 6 19C6.3 19 6.5 18.9 6.7 18.7C6.9 18.5 7 18.3 7 18Z" fill="black"/>
<mask id="mask0" mask-type="alpha" maskUnits="userSpaceOnUse" x="1" y="1" width="22" height="22">
<path fill-rule="evenodd" clip-rule="evenodd" d="M4 1H20C21.7 1 23 2.3 23 4V8C23 9.7 21.7 11 20 11H4C2.3 11 1 9.7 1 8V4C1 2.3 2.3 1 4 1ZM20 9C20.6 9 21 8.6 21 8V4C21 3.4 20.6 3 20 3H4C3.4 3 3 3.4 3 4V8C3 8.6 3.4 9 4 9H20ZM20 13H4C2.3 13 1 14.3 1 16V20C1 21.7 2.3 23 4 23H20C21.7 23 23 21.7 23 20V16C23 14.3 21.7 13 20 13ZM20 21C20.6 21 21 20.6 21 20V16C21 15.4 20.6 15 20 15H4C3.4 15 3 15.4 3 16V20C3 20.6 3.4 21 4 21H20ZM6.7 5.3C6.9 5.5 7 5.7 7 6C7 6.3 6.9 6.5 6.7 6.7C6.5 6.9 6.3 7 6 7C5.7 7 5.5 6.9 5.3 6.7C5.2 6.6 5.1 6.5 5.1 6.4C5 6.3 5 6.1 5 6C5 5.9 5 5.7 5.1 5.6C5.15 5.55 5.175 5.5 5.2 5.45C5.225 5.4 5.25 5.35 5.3 5.3C5.4 5.2 5.5 5.1 5.6 5.1C5.9 5 6.1 5 6.4 5.1C6.5 5.1 6.6 5.2 6.7 5.3ZM7 18C7 17.7 6.9 17.5 6.7 17.3C6.3 16.9 5.7 16.9 5.3 17.3C5.25 17.35 5.225 17.4 5.2 17.45C5.175 17.5 5.15 17.55 5.1 17.6C5 17.7 5 17.9 5 18C5 18.3 5.1 18.5 5.3 18.7C5.5 18.9 5.7 19 6 19C6.3 19 6.5 18.9 6.7 18.7C6.9 18.5 7 18.3 7 18Z" fill="white"/>
</mask>
<g mask="url(#mask0)">
<rect width="24" height="24" fill="#347AF0"/>
</g>
</svg>
