<svg width="24" height="24" viewBox="0 0 24 24" fill="none" xmlns="http://www.w3.org/2000/svg">
<path fill-rule="evenodd" clip-rule="evenodd" d="M20.3 15.4C20.4 15.2 20.6 15 21 15C22.7 15 24 13.7 24 12C24 10.3 22.7 9 21 9H20.8C20.6 9 20.4 8.9 20.3 8.7C20.3 8.6 20.3 8.6 20.2 8.5C20.1 8.3 20.1 8 20.4 7.7C21.6 6.5 21.6 4.6 20.4 3.5C19.8 2.9 19.1 2.6 18.3 2.6C17.5 2.6 16.7 2.9 16.1 3.5C15.9 3.7 15.6 3.7 15.4 3.6C15.2 3.6 15 3.3 15 3C15 1.3 13.7 0 12 0C10.3 0 9 1.3 9 3V3.2C9 3.4 8.9 3.6 8.7 3.7C8.6575 3.7 8.63307 3.7 8.61134 3.70767C8.58194 3.71806 8.5575 3.7425 8.5 3.8C8.3 3.9 8 3.8 7.7 3.6C6.5 2.4 4.6 2.4 3.5 3.6C2.3 4.8 2.3 6.7 3.6 7.9C3.8 8.1 3.8 8.4 3.7 8.7C3.6 8.9 3.3 9.1 3 9.1C1.3 9.1 0 10.4 0 12.1C0 13.8 1.3 15.1 3 15.1H3.2C3.5 15.1 3.7 15.3 3.8 15.5C3.9 15.7 3.9 16 3.6 16.3C3 16.9 2.7 17.6 2.7 18.4C2.7 19.2 3 19.9 3.6 20.5C4.8 21.7 6.7 21.7 7.9 20.4C8.1 20.2 8.4 20.2 8.7 20.3C9 20.4 9.1 20.6 9.1 21C9.1 22.7 10.4 24 12.1 24C13.8 24 15.1 22.7 15.1 21V20.8C15.1 20.5 15.3 20.3 15.5 20.2C15.7 20.1 16 20.1 16.3 20.4C17.5 21.6 19.4 21.6 20.5 20.4C21.7 19.2 21.7 17.3 20.4 16.1C20.3 15.9 20.2 15.6 20.3 15.4ZM8 12C8 9.8 9.8 8 12 8C14.2 8 16 9.8 16 12C16 14.2 14.2 16 12 16C9.8 16 8 14.2 8 12ZM10 12C10 13.1 10.9 14 12 14C13.1 14 14 13.1 14 12C14 10.9 13.1 10 12 10C10.9 10 10 10.9 10 12ZM19.1 17.6C18.3 16.7 18.1 15.6 18.5 14.6C18.9 13.6 19.9 13 20.9 13C21.6 13 22 12.6 22 12C22 11.4 21.6 11 21 11H20.8C19.8 11 18.8 10.4 18.4 9.4C18.3 9.3 18.3 9.2 18.3 9.1C18 8.2 18.2 7.1 18.9 6.4C19.4 5.9 19.4 5.3 19 4.9C18.8 4.7 18.6 4.6 18.3 4.6C18 4.6 17.8 4.7 17.6 4.9C16.7 5.7 15.6 5.9 14.6 5.5C13.6 5.1 13 4.2 13 3.1C13 2.4 12.6 2 12 2C11.4 2 11 2.4 11 3V3.2C11 4.2 10.4 5.2 9.4 5.6C9.3 5.7 9.2 5.7 9.1 5.7C8.2 6 7.1 5.8 6.4 5.1C5.9 4.6 5.3 4.6 4.9 5C4.5 5.4 4.5 6 4.9 6.4C5.7 7.3 5.9 8.4 5.5 9.4C5.1 10.4 4.2 11.1 3.1 11.1H3C2.4 11.1 2 11.5 2 12.1C2 12.7 2.4 13.1 3 13.1H3.2C4.2 13.1 5.2 13.7 5.6 14.7C6.1 15.7 5.9 16.8 5.1 17.6C4.8 17.9 4.7 18.1 4.7 18.4C4.7 18.7 4.8 18.9 5 19.1C5.4 19.5 6 19.5 6.4 19.1C6.9 18.6 7.6 18.3 8.3 18.3C8.7 18.3 9.1 18.3 9.4 18.5C10.4 18.9 11.1 19.8 11.1 20.9V21C11.1 21.6 11.5 22 12.1 22C12.7 22 13.1 21.6 13.1 21V20.8C13.1 19.8 13.7 18.8 14.7 18.4C15.7 17.9 16.8 18.1 17.6 18.9C17.9 19.2 18.1 19.3 18.4 19.3C18.7 19.3 18.9 19.2 19.1 19C19.3 18.8 19.4 18.6 19.4 18.3C19.4 18 19.3 17.8 19.1 17.6Z" fill="black"/>
<mask id="mask0" mask-type="alpha" maskUnits="userSpaceOnUse" x="0" y="0" width="24" height="24">
<path fill-rule="evenodd" clip-rule="evenodd" d="M20.3 15.4C20.4 15.2 20.6 15 21 15C22.7 15 24 13.7 24 12C24 10.3 22.7 9 21 9H20.8C20.6 9 20.4 8.9 20.3 8.7C20.3 8.6 20.3 8.6 20.2 8.5C20.1 8.3 20.1 8 20.4 7.7C21.6 6.5 21.6 4.6 20.4 3.5C19.8 2.9 19.1 2.6 18.3 2.6C17.5 2.6 16.7 2.9 16.1 3.5C15.9 3.7 15.6 3.7 15.4 3.6C15.2 3.6 15 3.3 15 3C15 1.3 13.7 0 12 0C10.3 0 9 1.3 9 3V3.2C9 3.4 8.9 3.6 8.7 3.7C8.6575 3.7 8.63307 3.7 8.61134 3.70767C8.58194 3.71806 8.5575 3.7425 8.5 3.8C8.3 3.9 8 3.8 7.7 3.6C6.5 2.4 4.6 2.4 3.5 3.6C2.3 4.8 2.3 6.7 3.6 7.9C3.8 8.1 3.8 8.4 3.7 8.7C3.6 8.9 3.3 9.1 3 9.1C1.3 9.1 0 10.4 0 12.1C0 13.8 1.3 15.1 3 15.1H3.2C3.5 15.1 3.7 15.3 3.8 15.5C3.9 15.7 3.9 16 3.6 16.3C3 16.9 2.7 17.6 2.7 18.4C2.7 19.2 3 19.9 3.6 20.5C4.8 21.7 6.7 21.7 7.9 20.4C8.1 20.2 8.4 20.2 8.7 20.3C9 20.4 9.1 20.6 9.1 21C9.1 22.7 10.4 24 12.1 24C13.8 24 15.1 22.7 15.1 21V20.8C15.1 20.5 15.3 20.3 15.5 20.2C15.7 20.1 16 20.1 16.3 20.4C17.5 21.6 19.4 21.6 20.5 20.4C21.7 19.2 21.7 17.3 20.4 16.1C20.3 15.9 20.2 15.6 20.3 15.4ZM8 12C8 9.8 9.8 8 12 8C14.2 8 16 9.8 16 12C16 14.2 14.2 16 12 16C9.8 16 8 14.2 8 12ZM10 12C10 13.1 10.9 14 12 14C13.1 14 14 13.1 14 12C14 10.9 13.1 10 12 10C10.9 10 10 10.9 10 12ZM19.1 17.6C18.3 16.7 18.1 15.6 18.5 14.6C18.9 13.6 19.9 13 20.9 13C21.6 13 22 12.6 22 12C22 11.4 21.6 11 21 11H20.8C19.8 11 18.8 10.4 18.4 9.4C18.3 9.3 18.3 9.2 18.3 9.1C18 8.2 18.2 7.1 18.9 6.4C19.4 5.9 19.4 5.3 19 4.9C18.8 4.7 18.6 4.6 18.3 4.6C18 4.6 17.8 4.7 17.6 4.9C16.7 5.7 15.6 5.9 14.6 5.5C13.6 5.1 13 4.2 13 3.1C13 2.4 12.6 2 12 2C11.4 2 11 2.4 11 3V3.2C11 4.2 10.4 5.2 9.4 5.6C9.3 5.7 9.2 5.7 9.1 5.7C8.2 6 7.1 5.8 6.4 5.1C5.9 4.6 5.3 4.6 4.9 5C4.5 5.4 4.5 6 4.9 6.4C5.7 7.3 5.9 8.4 5.5 9.4C5.1 10.4 4.2 11.1 3.1 11.1H3C2.4 11.1 2 11.5 2 12.1C2 12.7 2.4 13.1 3 13.1H3.2C4.2 13.1 5.2 13.7 5.6 14.7C6.1 15.7 5.9 16.8 5.1 17.6C4.8 17.9 4.7 18.1 4.7 18.4C4.7 18.7 4.8 18.9 5 19.1C5.4 19.5 6 19.5 6.4 19.1C6.9 18.6 7.6 18.3 8.3 18.3C8.7 18.3 9.1 18.3 9.4 18.5C10.4 18.9 11.1 19.8 11.1 20.9V21C11.1 21.6 11.5 22 12.1 22C12.7 22 13.1 21.6 13.1 21V20.8C13.1 19.8 13.7 18.8 14.7 18.4C15.7 17.9 16.8 18.1 17.6 18.9C17.9 19.2 18.1 19.3 18.4 19.3C18.7 19.3 18.9 19.2 19.1 19C19.3 18.8 19.4 18.6 19.4 18.3C19.4 18 19.3 17.8 19.1 17.6Z" fill="white"/>
</mask>
<g mask="url(#mask0)">
<rect width="24" height="24" fill="#347AF0"/>
</g>
</svg>
