<svg width="24" height="24" viewBox="0 0 24 24" fill="none" xmlns="http://www.w3.org/2000/svg">
<path fill-rule="evenodd" clip-rule="evenodd" d="M11 4.37884L8.7 6.68146C8.3 7.08191 7.7 7.08191 7.3 6.68146C6.9 6.281 6.9 5.68032 7.3 5.27986L11.3 1.27531C11.35 1.22526 11.4 1.20023 11.45 1.1752C11.5 1.15017 11.55 1.12514 11.6 1.07509C11.9 0.974972 12.2 0.974972 12.4 1.07509C12.5 1.07509 12.6 1.1752 12.7 1.27531L16.7 5.27986C17.1 5.68032 17.1 6.281 16.7 6.68146C16.5 6.88168 16.3 6.9818 16 6.9818C15.7 6.9818 15.5 6.88168 15.3 6.68146L13 4.37884V14.9909C13 15.5916 12.6 15.992 12 15.992C11.4 15.992 11 15.5916 11 14.9909V4.37884ZM21 19.9966V11.9875C21 11.3868 20.6 10.9863 20 10.9863C19.4 10.9863 19 11.3868 19 11.9875V19.9966C19 20.5973 18.6 20.9977 18 20.9977H6C5.4 20.9977 5 20.5973 5 19.9966V11.9875C5 11.3868 4.6 10.9863 4 10.9863C3.4 10.9863 3 11.3868 3 11.9875V19.9966C3 21.6985 4.3 23 6 23H18C19.7 23 21 21.6985 21 19.9966Z" fill="black"/>
<mask id="mask0" mask-type="alpha" maskUnits="userSpaceOnUse" x="3" y="1" width="18" height="22">
<path fill-rule="evenodd" clip-rule="evenodd" d="M11 4.37884L8.7 6.68146C8.3 7.08191 7.7 7.08191 7.3 6.68146C6.9 6.281 6.9 5.68032 7.3 5.27986L11.3 1.27531C11.35 1.22526 11.4 1.20023 11.45 1.1752C11.5 1.15017 11.55 1.12514 11.6 1.07509C11.9 0.974972 12.2 0.974972 12.4 1.07509C12.5 1.07509 12.6 1.1752 12.7 1.27531L16.7 5.27986C17.1 5.68032 17.1 6.281 16.7 6.68146C16.5 6.88168 16.3 6.9818 16 6.9818C15.7 6.9818 15.5 6.88168 15.3 6.68146L13 4.37884V14.9909C13 15.5916 12.6 15.992 12 15.992C11.4 15.992 11 15.5916 11 14.9909V4.37884ZM21 19.9966V11.9875C21 11.3868 20.6 10.9863 20 10.9863C19.4 10.9863 19 11.3868 19 11.9875V19.9966C19 20.5973 18.6 20.9977 18 20.9977H6C5.4 20.9977 5 20.5973 5 19.9966V11.9875C5 11.3868 4.6 10.9863 4 10.9863C3.4 10.9863 3 11.3868 3 11.9875V19.9966C3 21.6985 4.3 23 6 23H18C19.7 23 21 21.6985 21 19.9966Z" fill="white"/>
</mask>
<g mask="url(#mask0)">
<rect width="24" height="24" fill="#347AF0"/>
</g>
</svg>
