<svg width="24" height="24" viewBox="0 0 24 24" fill="none" xmlns="http://www.w3.org/2000/svg">
<path fill-rule="evenodd" clip-rule="evenodd" d="M23.7 23.7C23.5 23.9 23.3 24 23 24C22.7 24 22.5 23.9 22.3 23.7L17.6 19C16.1 20.5 14.4 21.8 12.4 22.8C12.3 23 12.2 23 12 23C11.8 23 11.7 23 11.6 22.9C11.2 22.7 3 18.5 3 12V5C3 4.9 3.025 4.825 3.05 4.75C3.075 4.675 3.1 4.6 3.1 4.5L0.3 1.7C-0.1 1.3 -0.1 0.7 0.3 0.3C0.7 -0.1 1.3 -0.1 1.7 0.3L23.7 22.3C24.1 22.7 24.1 23.3 23.7 23.7ZM7.9 3.5C7.7 3 8 2.4 8.5 2.2L11.7 1C11.9 0.9 12.2 0.9 12.4 1L20.4 4C20.7 4.2 21 4.6 21 5V12C21 12.8 20.9 13.6 20.6 14.3C20.5 14.7 20.1 15 19.6 15H19.3C18.8 14.8 18.5 14.3 18.6 13.8C18.8 13.2 18.9 12.7 18.9 12.1V5.7L11.9 3.1L9.1 4.1C8.7 4.3 8.1 4 7.9 3.5ZM5 6.4L16.2 17.6C15 18.9 13.6 20 12 20.9C10.4 19.9 5 16.5 5 12V6.4Z" fill="black"/>
<mask id="mask0" mask-type="alpha" maskUnits="userSpaceOnUse" x="0" y="0" width="24" height="24">
<path fill-rule="evenodd" clip-rule="evenodd" d="M23.7 23.7C23.5 23.9 23.3 24 23 24C22.7 24 22.5 23.9 22.3 23.7L17.6 19C16.1 20.5 14.4 21.8 12.4 22.8C12.3 23 12.2 23 12 23C11.8 23 11.7 23 11.6 22.9C11.2 22.7 3 18.5 3 12V5C3 4.9 3.025 4.825 3.05 4.75C3.075 4.675 3.1 4.6 3.1 4.5L0.3 1.7C-0.1 1.3 -0.1 0.7 0.3 0.3C0.7 -0.1 1.3 -0.1 1.7 0.3L23.7 22.3C24.1 22.7 24.1 23.3 23.7 23.7ZM7.9 3.5C7.7 3 8 2.4 8.5 2.2L11.7 1C11.9 0.9 12.2 0.9 12.4 1L20.4 4C20.7 4.2 21 4.6 21 5V12C21 12.8 20.9 13.6 20.6 14.3C20.5 14.7 20.1 15 19.6 15H19.3C18.8 14.8 18.5 14.3 18.6 13.8C18.8 13.2 18.9 12.7 18.9 12.1V5.7L11.9 3.1L9.1 4.1C8.7 4.3 8.1 4 7.9 3.5ZM5 6.4L16.2 17.6C15 18.9 13.6 20 12 20.9C10.4 19.9 5 16.5 5 12V6.4Z" fill="white"/>
</mask>
<g mask="url(#mask0)">
<rect width="24" height="24" fill="#347AF0"/>
</g>
</svg>
