<svg width="24" height="24" viewBox="0 0 24 24" fill="none" xmlns="http://www.w3.org/2000/svg">
<path fill-rule="evenodd" clip-rule="evenodd" d="M12.2 1L20.2 3C20.7 3.1 21 3.5 21 4V12C21 18.5 12.8 22.7 12.4 22.9C12.3 23 12.2 23 12 23C11.8 23 11.7 23 11.6 22.9C11.2 22.7 3 18.5 3 12V4C3 3.5 3.3 3.1 3.7 3L11.7 1H12.2ZM12 20.9C13.6 19.9 19 16.5 19 12V4.8L12 3L5 4.8V12C5 16.6 10.4 20 12 20.9Z" fill="black"/>
<mask id="mask0" mask-type="alpha" maskUnits="userSpaceOnUse" x="3" y="1" width="18" height="22">
<path fill-rule="evenodd" clip-rule="evenodd" d="M12.2 1L20.2 3C20.7 3.1 21 3.5 21 4V12C21 18.5 12.8 22.7 12.4 22.9C12.3 23 12.2 23 12 23C11.8 23 11.7 23 11.6 22.9C11.2 22.7 3 18.5 3 12V4C3 3.5 3.3 3.1 3.7 3L11.7 1H12.2ZM12 20.9C13.6 19.9 19 16.5 19 12V4.8L12 3L5 4.8V12C5 16.6 10.4 20 12 20.9Z" fill="white"/>
</mask>
<g mask="url(#mask0)">
<rect width="24" height="24" fill="#347AF0"/>
</g>
</svg>
