<svg width="24" height="24" viewBox="0 0 24 24" fill="none" xmlns="http://www.w3.org/2000/svg">
<path fill-rule="evenodd" clip-rule="evenodd" d="M21.8 5.5C21.9 5.5 21.9 5.6 21.9 5.6C22 5.8 22 5.9 22 6V20C22 21.7 20.7 23 19 23H5C3.3 23 2 21.7 2 20V6V5.6C2.1 5.6 2.1 5.5 2.1 5.5C2.2 5.5 2.2 5.4 2.2 5.4L5.2 1.4C5.4 1.1 5.7 1 6 1H18C18.3 1 18.6 1.1 18.7 1.4L21.7 5.4C21.8 5.4 21.8 5.5 21.8 5.5ZM17.5 3H6.5L5 5H19L17.5 3ZM20 20C20 20.6 19.6 21 19 21H5C4.4 21 4 20.6 4 20V7H20V20ZM12 15C14.8 15 17 12.8 17 10C17 9.4 16.6 9 16 9C15.4 9 15 9.4 15 10C15 11.7 13.7 13 12 13C10.3 13 9 11.7 9 10C9 9.4 8.6 9 8 9C7.4 9 7 9.4 7 10C7 12.8 9.2 15 12 15Z" fill="black"/>
<mask id="mask0" mask-type="alpha" maskUnits="userSpaceOnUse" x="2" y="1" width="20" height="22">
<path fill-rule="evenodd" clip-rule="evenodd" d="M21.8 5.5C21.9 5.5 21.9 5.6 21.9 5.6C22 5.8 22 5.9 22 6V20C22 21.7 20.7 23 19 23H5C3.3 23 2 21.7 2 20V6V5.6C2.1 5.6 2.1 5.5 2.1 5.5C2.2 5.5 2.2 5.4 2.2 5.4L5.2 1.4C5.4 1.1 5.7 1 6 1H18C18.3 1 18.6 1.1 18.7 1.4L21.7 5.4C21.8 5.4 21.8 5.5 21.8 5.5ZM17.5 3H6.5L5 5H19L17.5 3ZM20 20C20 20.6 19.6 21 19 21H5C4.4 21 4 20.6 4 20V7H20V20ZM12 15C14.8 15 17 12.8 17 10C17 9.4 16.6 9 16 9C15.4 9 15 9.4 15 10C15 11.7 13.7 13 12 13C10.3 13 9 11.7 9 10C9 9.4 8.6 9 8 9C7.4 9 7 9.4 7 10C7 12.8 9.2 15 12 15Z" fill="white"/>
</mask>
<g mask="url(#mask0)">
<rect width="24" height="24" fill="#347AF0"/>
</g>
</svg>
