<svg width="24" height="24" viewBox="0 0 24 24" fill="none" xmlns="http://www.w3.org/2000/svg">
<path fill-rule="evenodd" clip-rule="evenodd" d="M22 3V8C22 8.6 21.6 9 21 9C20.4 9 20 8.6 20 8V5.4L4.7 20.7C4.5 20.9 4.3 21 4 21C3.7 21 3.5 20.9 3.3 20.7C2.9 20.3 2.9 19.7 3.3 19.3L18.6 4H16C15.4 4 15 3.6 15 3C15 2.4 15.4 2 16 2H21C21.1 2 21.3 2 21.4 2.1C21.6 2.2 21.8 2.4 21.9 2.6C22 2.7 22 2.9 22 3ZM21 15C20.4 15 20 15.4 20 16V18.6L15.7 14.3C15.3 13.9 14.7 13.9 14.3 14.3C13.9 14.7 13.9 15.3 14.3 15.7L18.6 20H16C15.4 20 15 20.4 15 21C15 21.6 15.4 22 16 22H21C21.1 22 21.3 22 21.4 21.9C21.6 21.8 21.8 21.6 21.9 21.4C22 21.3 22 21.1 22 21V16C22 15.4 21.6 15 21 15ZM9 10C8.7 10 8.5 9.9 8.3 9.7L3.3 4.7C2.9 4.3 2.9 3.7 3.3 3.3C3.7 2.9 4.3 2.9 4.7 3.3L9.7 8.3C10.1 8.7 10.1 9.3 9.7 9.7C9.5 9.9 9.3 10 9 10Z" fill="black"/>
<mask id="mask0" mask-type="alpha" maskUnits="userSpaceOnUse" x="3" y="2" width="19" height="20">
<path fill-rule="evenodd" clip-rule="evenodd" d="M22 3V8C22 8.6 21.6 9 21 9C20.4 9 20 8.6 20 8V5.4L4.7 20.7C4.5 20.9 4.3 21 4 21C3.7 21 3.5 20.9 3.3 20.7C2.9 20.3 2.9 19.7 3.3 19.3L18.6 4H16C15.4 4 15 3.6 15 3C15 2.4 15.4 2 16 2H21C21.1 2 21.3 2 21.4 2.1C21.6 2.2 21.8 2.4 21.9 2.6C22 2.7 22 2.9 22 3ZM21 15C20.4 15 20 15.4 20 16V18.6L15.7 14.3C15.3 13.9 14.7 13.9 14.3 14.3C13.9 14.7 13.9 15.3 14.3 15.7L18.6 20H16C15.4 20 15 20.4 15 21C15 21.6 15.4 22 16 22H21C21.1 22 21.3 22 21.4 21.9C21.6 21.8 21.8 21.6 21.9 21.4C22 21.3 22 21.1 22 21V16C22 15.4 21.6 15 21 15ZM9 10C8.7 10 8.5 9.9 8.3 9.7L3.3 4.7C2.9 4.3 2.9 3.7 3.3 3.3C3.7 2.9 4.3 2.9 4.7 3.3L9.7 8.3C10.1 8.7 10.1 9.3 9.7 9.7C9.5 9.9 9.3 10 9 10Z" fill="white"/>
</mask>
<g mask="url(#mask0)">
<rect width="24" height="24" fill="#347AF0"/>
</g>
</svg>
