<svg width="24" height="24" viewBox="0 0 24 24" fill="none" xmlns="http://www.w3.org/2000/svg">
<path fill-rule="evenodd" clip-rule="evenodd" d="M5.6 3.20891C5.3 3.00901 4.9 2.90906 4.6 3.10896C4.2 3.30886 4 3.60871 4 4.00851V20.0005C4 20.4003 4.2 20.7001 4.6 20.9C4.7 21 4.9 21 5 21C5.2 21 5.4 20.9001 5.6 20.8001L15.6 12.8041C15.8 12.6042 16 12.3044 16 12.0045C16 11.7047 15.9 11.4048 15.6 11.2049L5.6 3.20891ZM6 6.10746L13.4 12.0045L6 17.9016V6.10746ZM19 20.0005C19.6 20.0005 20 19.6007 20 19.001V5.00801C20 4.40831 19.6 4.00851 19 4.00851C18.4 4.00851 18 4.40831 18 5.00801V19.001C18 19.6007 18.4 20.0005 19 20.0005Z" fill="black"/>
<mask id="mask0" mask-type="alpha" maskUnits="userSpaceOnUse" x="4" y="3" width="16" height="18">
<path fill-rule="evenodd" clip-rule="evenodd" d="M5.6 3.20891C5.3 3.00901 4.9 2.90906 4.6 3.10896C4.2 3.30886 4 3.60871 4 4.00851V20.0005C4 20.4003 4.2 20.7001 4.6 20.9C4.7 21 4.9 21 5 21C5.2 21 5.4 20.9001 5.6 20.8001L15.6 12.8041C15.8 12.6042 16 12.3044 16 12.0045C16 11.7047 15.9 11.4048 15.6 11.2049L5.6 3.20891ZM6 6.10746L13.4 12.0045L6 17.9016V6.10746ZM19 20.0005C19.6 20.0005 20 19.6007 20 19.001V5.00801C20 4.40831 19.6 4.00851 19 4.00851C18.4 4.00851 18 4.40831 18 5.00801V19.001C18 19.6007 18.4 20.0005 19 20.0005Z" fill="white"/>
</mask>
<g mask="url(#mask0)">
<rect width="24" height="24" fill="#347AF0"/>
</g>
</svg>
