<svg width="24" height="24" viewBox="0 0 24 24" fill="none" xmlns="http://www.w3.org/2000/svg">
<path fill-rule="evenodd" clip-rule="evenodd" d="M19.4 3.10896C19.1 2.90906 18.6 3.00901 18.3 3.20891L8.3 11.2049C8.1 11.4048 8 11.7047 8 12.0045C8 12.3044 8.1 12.6042 8.4 12.8041L18.4 20.8001C18.6 20.9001 18.8 21 19 21C19.1 21 19.3 21 19.4 20.9C19.7 20.7001 20 20.4003 20 20.0005V4.00851C20 3.60871 19.8 3.30886 19.4 3.10896ZM18 17.9016L10.6 12.0045L18 6.10746V17.9016ZM6 19.001V5.00801C6 4.40831 5.6 4.00851 5 4.00851C4.4 4.00851 4 4.40831 4 5.00801V19.001C4 19.6007 4.4 20.0005 5 20.0005C5.6 20.0005 6 19.6007 6 19.001Z" fill="black"/>
<mask id="mask0" mask-type="alpha" maskUnits="userSpaceOnUse" x="4" y="3" width="16" height="18">
<path fill-rule="evenodd" clip-rule="evenodd" d="M19.4 3.10896C19.1 2.90906 18.6 3.00901 18.3 3.20891L8.3 11.2049C8.1 11.4048 8 11.7047 8 12.0045C8 12.3044 8.1 12.6042 8.4 12.8041L18.4 20.8001C18.6 20.9001 18.8 21 19 21C19.1 21 19.3 21 19.4 20.9C19.7 20.7001 20 20.4003 20 20.0005V4.00851C20 3.60871 19.8 3.30886 19.4 3.10896ZM18 17.9016L10.6 12.0045L18 6.10746V17.9016ZM6 19.001V5.00801C6 4.40831 5.6 4.00851 5 4.00851C4.4 4.00851 4 4.40831 4 5.00801V19.001C4 19.6007 4.4 20.0005 5 20.0005C5.6 20.0005 6 19.6007 6 19.001Z" fill="white"/>
</mask>
<g mask="url(#mask0)">
<rect width="24" height="24" fill="#347AF0"/>
</g>
</svg>
