<svg width="24" height="24" viewBox="0 0 24 24" fill="none" xmlns="http://www.w3.org/2000/svg">
<path fill-rule="evenodd" clip-rule="evenodd" d="M17.9149 0.888324C20.2177 2.08893 21.7196 4.49014 23.0212 8.69227C25.5243 16.6963 23.3216 20.5983 15.3116 23.0995C13.209 23.6998 11.5069 24 9.90488 24C5.39927 24 2.79602 21.2986 0.993779 15.2956C-1.50934 7.29156 0.59328 3.38959 8.70338 0.988374C12.9086 -0.312283 15.8122 -0.312283 17.9149 0.888324ZM2.89615 14.6953C4.99877 21.6988 7.70214 23.1996 14.7109 21.0985C21.7196 18.9975 23.2215 16.1961 21.219 9.19252C20.1176 5.5907 18.816 3.48964 17.1139 2.58918C16.3129 2.18898 15.3116 1.98888 14.2102 1.98888C12.9086 1.98888 11.3066 2.28903 9.30413 2.88933C2.2954 4.9904 0.793529 7.79181 2.89615 14.6953ZM17.7146 11.5937L15.8122 12.2941L14.811 9.49267L16.7134 8.79232C17.214 8.59222 17.5144 8.09196 17.3141 7.49166C17.1139 6.99141 16.6132 6.69126 16.0125 6.89136L14.1101 7.59171L13.4092 5.69075C13.209 5.1905 12.7084 4.89035 12.1076 5.09045C11.607 5.29055 11.3066 5.7908 11.5069 6.3911L12.2078 8.29206L9.40426 9.29257L8.80351 7.29156C8.60326 6.79131 8.00251 6.49115 7.50189 6.69126C7.00126 6.79131 6.70089 7.39161 6.90114 7.89186L7.60201 9.79282L5.69964 10.4932C5.19902 10.6933 4.89864 11.1935 5.09889 11.7938C5.19902 12.194 5.59952 12.4942 6.00002 12.4942C6.10014 12.4942 6.20027 12.4942 6.30039 12.3941L8.20276 11.6938L9.20401 14.4952L7.30164 15.1956C6.80101 15.3957 6.50064 15.8959 6.70089 16.4962C6.80101 16.8964 7.20151 17.1966 7.60201 17.1966C7.70214 17.1966 7.80226 17.1966 7.90239 17.0965L9.80476 16.3962L10.5056 18.2971C10.6058 18.6973 11.0063 18.9975 11.4068 18.9975C11.5069 18.9975 11.607 18.9975 11.7071 18.8974C12.2078 18.6973 12.5081 18.1971 12.3079 17.5968L11.607 15.6958L14.4105 14.6953L15.1114 16.5963C15.2115 16.9965 15.612 17.2966 16.0125 17.2966C16.1126 17.2966 16.2127 17.2966 16.3129 17.1966C16.8135 16.9965 17.1139 16.4962 16.9136 15.8959L16.2127 13.9949L18.1151 13.2946C18.6157 13.0945 18.9161 12.5942 18.7159 11.9939C18.5156 11.3936 18.2152 11.3936 17.7146 11.5937ZM10.1051 11.0935L11.1064 13.8949L13.9099 12.8944L12.9086 10.093L10.1051 11.0935Z" fill="black"/>
<mask id="mask0" mask-type="alpha" maskUnits="userSpaceOnUse" x="0" y="0" width="24" height="24">
<path fill-rule="evenodd" clip-rule="evenodd" d="M17.9149 0.888324C20.2177 2.08893 21.7196 4.49014 23.0212 8.69227C25.5243 16.6963 23.3216 20.5983 15.3116 23.0995C13.209 23.6998 11.5069 24 9.90488 24C5.39927 24 2.79602 21.2986 0.993779 15.2956C-1.50934 7.29156 0.59328 3.38959 8.70338 0.988374C12.9086 -0.312283 15.8122 -0.312283 17.9149 0.888324ZM2.89615 14.6953C4.99877 21.6988 7.70214 23.1996 14.7109 21.0985C21.7196 18.9975 23.2215 16.1961 21.219 9.19252C20.1176 5.5907 18.816 3.48964 17.1139 2.58918C16.3129 2.18898 15.3116 1.98888 14.2102 1.98888C12.9086 1.98888 11.3066 2.28903 9.30413 2.88933C2.2954 4.9904 0.793529 7.79181 2.89615 14.6953ZM17.7146 11.5937L15.8122 12.2941L14.811 9.49267L16.7134 8.79232C17.214 8.59222 17.5144 8.09196 17.3141 7.49166C17.1139 6.99141 16.6132 6.69126 16.0125 6.89136L14.1101 7.59171L13.4092 5.69075C13.209 5.1905 12.7084 4.89035 12.1076 5.09045C11.607 5.29055 11.3066 5.7908 11.5069 6.3911L12.2078 8.29206L9.40426 9.29257L8.80351 7.29156C8.60326 6.79131 8.00251 6.49115 7.50189 6.69126C7.00126 6.79131 6.70089 7.39161 6.90114 7.89186L7.60201 9.79282L5.69964 10.4932C5.19902 10.6933 4.89864 11.1935 5.09889 11.7938C5.19902 12.194 5.59952 12.4942 6.00002 12.4942C6.10014 12.4942 6.20027 12.4942 6.30039 12.3941L8.20276 11.6938L9.20401 14.4952L7.30164 15.1956C6.80101 15.3957 6.50064 15.8959 6.70089 16.4962C6.80101 16.8964 7.20151 17.1966 7.60201 17.1966C7.70214 17.1966 7.80226 17.1966 7.90239 17.0965L9.80476 16.3962L10.5056 18.2971C10.6058 18.6973 11.0063 18.9975 11.4068 18.9975C11.5069 18.9975 11.607 18.9975 11.7071 18.8974C12.2078 18.6973 12.5081 18.1971 12.3079 17.5968L11.607 15.6958L14.4105 14.6953L15.1114 16.5963C15.2115 16.9965 15.612 17.2966 16.0125 17.2966C16.1126 17.2966 16.2127 17.2966 16.3129 17.1966C16.8135 16.9965 17.1139 16.4962 16.9136 15.8959L16.2127 13.9949L18.1151 13.2946C18.6157 13.0945 18.9161 12.5942 18.7159 11.9939C18.5156 11.3936 18.2152 11.3936 17.7146 11.5937ZM10.1051 11.0935L11.1064 13.8949L13.9099 12.8944L12.9086 10.093L10.1051 11.0935Z" fill="white"/>
</mask>
<g mask="url(#mask0)">
<rect width="24" height="24" fill="#347AF0"/>
</g>
</svg>
