<svg width="24" height="24" viewBox="0 0 24 24" fill="none" xmlns="http://www.w3.org/2000/svg">
<path fill-rule="evenodd" clip-rule="evenodd" d="M19.8 19.8C21.8 17.8 23 15.1 23 12C23 5.9 18.1 1 12 1C9 1 6.2 2.2 4.2 4.2C2.2 6.2 1 9 1 12C1 18.1 5.9 23 12 23C15 23 17.8 21.8 19.8 19.8ZM21 12C21 14.1 20.3 16.1 19 17.6L6.4 5C7.9 3.7 9.9 3 12 3C17 3 21 7 21 12ZM5 6.4C3.7 7.9 3 9.9 3 12C3 17 7 21 12 21C14.1 21 16.1 20.2 17.6 19L5 6.4Z" fill="black"/>
<mask id="mask0" mask-type="alpha" maskUnits="userSpaceOnUse" x="1" y="1" width="22" height="22">
<path fill-rule="evenodd" clip-rule="evenodd" d="M19.8 19.8C21.8 17.8 23 15.1 23 12C23 5.9 18.1 1 12 1C9 1 6.2 2.2 4.2 4.2C2.2 6.2 1 9 1 12C1 18.1 5.9 23 12 23C15 23 17.8 21.8 19.8 19.8ZM21 12C21 14.1 20.3 16.1 19 17.6L6.4 5C7.9 3.7 9.9 3 12 3C17 3 21 7 21 12ZM5 6.4C3.7 7.9 3 9.9 3 12C3 17 7 21 12 21C14.1 21 16.1 20.2 17.6 19L5 6.4Z" fill="white"/>
</mask>
<g mask="url(#mask0)">
<rect width="24" height="24" fill="#347AF0"/>
</g>
</svg>
