<svg width="24" height="24" viewBox="0 0 24 24" fill="none" xmlns="http://www.w3.org/2000/svg">
<path fill-rule="evenodd" clip-rule="evenodd" d="M17 1H7C5.3 1 4 2.3 4 4V20C4 21.7 5.3 23 7 23H17C18.7 23 20 21.7 20 20V4C20 2.3 18.7 1 17 1ZM18 20C18 20.6 17.6 21 17 21H7C6.4 21 6 20.6 6 20V4C6 3.4 6.4 3 7 3H17C17.6 3 18 3.4 18 4V20ZM13 18C13 17.8 12.9 17.5 12.7 17.3C12.3 16.9 11.7 16.9 11.3 17.3C11.25 17.35 11.225 17.4 11.2 17.45C11.175 17.5 11.15 17.55 11.1 17.6C11 17.7 11 17.9 11 18C11 18.3 11.1 18.5 11.3 18.7C11.4 18.8 11.5 18.9 11.6 18.9C11.7 19 11.9 19 12 19C12.3 19 12.5 18.9 12.7 18.7C12.9 18.5 13 18.3 13 18Z" fill="black"/>
<mask id="mask0" mask-type="alpha" maskUnits="userSpaceOnUse" x="4" y="1" width="16" height="22">
<path fill-rule="evenodd" clip-rule="evenodd" d="M17 1H7C5.3 1 4 2.3 4 4V20C4 21.7 5.3 23 7 23H17C18.7 23 20 21.7 20 20V4C20 2.3 18.7 1 17 1ZM18 20C18 20.6 17.6 21 17 21H7C6.4 21 6 20.6 6 20V4C6 3.4 6.4 3 7 3H17C17.6 3 18 3.4 18 4V20ZM13 18C13 17.8 12.9 17.5 12.7 17.3C12.3 16.9 11.7 16.9 11.3 17.3C11.25 17.35 11.225 17.4 11.2 17.45C11.175 17.5 11.15 17.55 11.1 17.6C11 17.7 11 17.9 11 18C11 18.3 11.1 18.5 11.3 18.7C11.4 18.8 11.5 18.9 11.6 18.9C11.7 19 11.9 19 12 19C12.3 19 12.5 18.9 12.7 18.7C12.9 18.5 13 18.3 13 18Z" fill="white"/>
</mask>
<g mask="url(#mask0)">
<rect width="24" height="24" fill="#347AF0"/>
</g>
</svg>
