<svg width="24" height="24" viewBox="0 0 24 24" fill="none" xmlns="http://www.w3.org/2000/svg">
<path fill-rule="evenodd" clip-rule="evenodd" d="M18 1H6C4.3 1 3 2.3 3 4V20C3 21.7 4.3 23 6 23H18C19.7 23 21 21.7 21 20V4C21 2.3 19.7 1 18 1ZM19 20C19 20.6 18.6 21 18 21H6C5.4 21 5 20.6 5 20V4C5 3.4 5.4 3 6 3H18C18.6 3 19 3.4 19 4V20ZM7 14C7 11.2 9.2 9 12 9C14.8 9 17 11.2 17 14C17 16.8 14.8 19 12 19C9.2 19 7 16.8 7 14ZM12 17C10.3 17 9 15.7 9 14C9 12.3 10.3 11 12 11C13.7 11 15 12.3 15 14C15 15.7 13.7 17 12 17ZM11 6C11 6.3 11.1 6.5 11.3 6.7C11.3 6.8 11.4 6.8 11.4 6.8C11.45 6.8 11.475 6.825 11.5 6.85C11.525 6.875 11.55 6.9 11.6 6.9C11.6575 6.9575 11.6819 6.98194 11.7113 6.99233C11.7331 7 11.7575 7 11.8 7H12C12.3 7 12.5 6.9 12.7 6.7C12.9 6.5 13 6.3 13 6C13 5.9 13 5.7 12.9 5.6C12.9 5.5 12.8 5.4 12.7 5.3C12.5 5 12.1 4.9 11.8 5C11.7425 5.05751 11.7181 5.08194 11.6887 5.09233C11.6669 5.1 11.6425 5.1 11.6 5.1C11.55 5.1 11.525 5.125 11.5 5.15C11.475 5.175 11.45 5.2 11.4 5.2L11.3 5.3C11.25 5.35 11.225 5.4 11.2 5.45C11.175 5.5 11.15 5.55 11.1 5.6C11 5.7 11 5.9 11 6Z" fill="black"/>
<mask id="mask0" mask-type="alpha" maskUnits="userSpaceOnUse" x="3" y="1" width="18" height="22">
<path fill-rule="evenodd" clip-rule="evenodd" d="M18 1H6C4.3 1 3 2.3 3 4V20C3 21.7 4.3 23 6 23H18C19.7 23 21 21.7 21 20V4C21 2.3 19.7 1 18 1ZM19 20C19 20.6 18.6 21 18 21H6C5.4 21 5 20.6 5 20V4C5 3.4 5.4 3 6 3H18C18.6 3 19 3.4 19 4V20ZM7 14C7 11.2 9.2 9 12 9C14.8 9 17 11.2 17 14C17 16.8 14.8 19 12 19C9.2 19 7 16.8 7 14ZM12 17C10.3 17 9 15.7 9 14C9 12.3 10.3 11 12 11C13.7 11 15 12.3 15 14C15 15.7 13.7 17 12 17ZM11 6C11 6.3 11.1 6.5 11.3 6.7C11.3 6.8 11.4 6.8 11.4 6.8C11.45 6.8 11.475 6.825 11.5 6.85C11.525 6.875 11.55 6.9 11.6 6.9C11.6575 6.9575 11.6819 6.98194 11.7113 6.99233C11.7331 7 11.7575 7 11.8 7H12C12.3 7 12.5 6.9 12.7 6.7C12.9 6.5 13 6.3 13 6C13 5.9 13 5.7 12.9 5.6C12.9 5.5 12.8 5.4 12.7 5.3C12.5 5 12.1 4.9 11.8 5C11.7425 5.05751 11.7181 5.08194 11.6887 5.09233C11.6669 5.1 11.6425 5.1 11.6 5.1C11.55 5.1 11.525 5.125 11.5 5.15C11.475 5.175 11.45 5.2 11.4 5.2L11.3 5.3C11.25 5.35 11.225 5.4 11.2 5.45C11.175 5.5 11.15 5.55 11.1 5.6C11 5.7 11 5.9 11 6Z" fill="white"/>
</mask>
<g mask="url(#mask0)">
<rect width="24" height="24" fill="#347AF0"/>
</g>
</svg>
