<svg width="24" height="24" viewBox="0 0 24 24" fill="none" xmlns="http://www.w3.org/2000/svg">
<path fill-rule="evenodd" clip-rule="evenodd" d="M5 2H19C20.7 2 22 3.3 22 5V19C22 20.7 20.7 22 19 22H5C3.3 22 2 20.7 2 19V5C2 3.3 3.3 2 5 2ZM19 20C19.6 20 20 19.6 20 19V5C20 4.4 19.6 4 19 4H5C4.4 4 4 4.4 4 5V19C4 19.6 4.4 20 5 20H19Z" fill="black"/>
<mask id="mask0" mask-type="alpha" maskUnits="userSpaceOnUse" x="2" y="2" width="20" height="20">
<path fill-rule="evenodd" clip-rule="evenodd" d="M5 2H19C20.7 2 22 3.3 22 5V19C22 20.7 20.7 22 19 22H5C3.3 22 2 20.7 2 19V5C2 3.3 3.3 2 5 2ZM19 20C19.6 20 20 19.6 20 19V5C20 4.4 19.6 4 19 4H5C4.4 4 4 4.4 4 5V19C4 19.6 4.4 20 5 20H19Z" fill="white"/>
</mask>
<g mask="url(#mask0)">
<rect width="24" height="24" fill="#347AF0"/>
</g>
</svg>
