<svg width="24" height="24" viewBox="0 0 24 24" fill="none" xmlns="http://www.w3.org/2000/svg">
<path fill-rule="evenodd" clip-rule="evenodd" d="M22.1653 8.21332C22.564 8.31315 22.863 8.51283 22.9626 8.91218C23.0623 9.2117 22.9626 9.61105 22.6636 9.81073L18.0793 14.3035L19.1755 20.6931C19.2752 21.0925 19.0759 21.4918 18.7769 21.6915C18.5776 21.7913 18.3783 21.8912 18.1789 21.8912H17.6806L12 18.896L6.31937 21.8912C5.92072 22.0908 5.52208 21.991 5.2231 21.7913C4.92412 21.5916 4.7248 21.1923 4.82446 20.7929L5.92072 14.4033L1.33635 9.91057C1.03737 9.71089 0.937712 9.31154 1.03737 8.91218C1.23669 8.51283 1.53567 8.21332 1.93431 8.21332L8.21291 7.21493L11.1031 1.52415C11.402 0.825283 12.598 0.825283 12.8969 1.52415L15.7871 7.31477L22.1653 8.21332ZM15.9864 14.2036C15.9864 13.9041 16.0861 13.6046 16.2854 13.3051L19.8732 9.81073L14.9898 9.11186C14.5912 9.11186 14.2922 8.91218 14.1925 8.61267L12 4.21978L9.80747 8.71251C9.60815 8.91218 9.30917 9.2117 9.01019 9.2117L4.12684 9.91057L7.71461 13.3051C7.91393 13.6046 8.01359 13.9041 8.01359 14.2036L7.11665 19.0957L11.5017 16.7994C11.8007 16.5997 12.0997 16.5997 12.3986 16.7994L16.7837 19.0957L15.9864 14.2036Z" fill="black"/>
<mask id="mask0" mask-type="alpha" maskUnits="userSpaceOnUse" x="1" y="1" width="22" height="21">
<path fill-rule="evenodd" clip-rule="evenodd" d="M22.1653 8.21332C22.564 8.31315 22.863 8.51283 22.9626 8.91218C23.0623 9.2117 22.9626 9.61105 22.6636 9.81073L18.0793 14.3035L19.1755 20.6931C19.2752 21.0925 19.0759 21.4918 18.7769 21.6915C18.5776 21.7913 18.3783 21.8912 18.1789 21.8912H17.6806L12 18.896L6.31937 21.8912C5.92072 22.0908 5.52208 21.991 5.2231 21.7913C4.92412 21.5916 4.7248 21.1923 4.82446 20.7929L5.92072 14.4033L1.33635 9.91057C1.03737 9.71089 0.937712 9.31154 1.03737 8.91218C1.23669 8.51283 1.53567 8.21332 1.93431 8.21332L8.21291 7.21493L11.1031 1.52415C11.402 0.825283 12.598 0.825283 12.8969 1.52415L15.7871 7.31477L22.1653 8.21332ZM15.9864 14.2036C15.9864 13.9041 16.0861 13.6046 16.2854 13.3051L19.8732 9.81073L14.9898 9.11186C14.5912 9.11186 14.2922 8.91218 14.1925 8.61267L12 4.21978L9.80747 8.71251C9.60815 8.91218 9.30917 9.2117 9.01019 9.2117L4.12684 9.91057L7.71461 13.3051C7.91393 13.6046 8.01359 13.9041 8.01359 14.2036L7.11665 19.0957L11.5017 16.7994C11.8007 16.5997 12.0997 16.5997 12.3986 16.7994L16.7837 19.0957L15.9864 14.2036Z" fill="white"/>
</mask>
<g mask="url(#mask0)">
<rect width="24" height="24" fill="#347AF0"/>
</g>
</svg>
