<svg width="62" height="62" viewBox="0 0 62 62" fill="none" xmlns="http://www.w3.org/2000/svg">
<path fill-rule="evenodd" clip-rule="evenodd" d="M32 62C48.5685 62 62 48.5685 62 32C62 15.4315 48.5685 2 32 2C15.4315 2 2 15.4315 2 32C2 48.5685 15.4315 62 32 62Z" fill="#75BF72" stroke="white" stroke-width="4"/>
<path fill-rule="evenodd" clip-rule="evenodd" d="M22.2773 41.7227C16.8856 36.331 16.8856 27.669 22.2773 22.2773C27.669 16.8856 36.331 16.8856 41.7227 22.2773C47.1144 27.669 47.1144 36.331 41.7227 41.7227C36.331 47.1144 27.669 47.1144 22.2773 41.7227ZM28.4644 36.773C27.7573 36.773 27.227 36.2426 27.227 35.5355C27.227 34.8284 27.7573 34.2981 28.4644 34.2981L32.5303 34.2981L27.5806 29.3483C27.0502 28.818 27.0502 28.1109 27.5806 27.5806C28.1109 27.0503 28.818 27.0503 29.3483 27.5806L34.2981 32.5303V28.4645C34.2981 27.7574 34.8284 27.227 35.5355 27.227C36.2426 27.227 36.773 27.7574 36.773 28.4645V35.5355C36.773 35.7123 36.773 35.8891 36.6846 35.9775C36.6846 36.1543 36.5078 36.331 36.4194 36.4194C36.331 36.5078 36.1542 36.6846 35.9775 36.6846C35.8891 36.773 35.7123 36.773 35.5355 36.773L28.4644 36.773ZM39.9549 39.9549C35.5355 44.3744 28.4644 44.3744 24.045 39.9549C19.6256 35.5355 19.6256 28.4645 24.045 24.045C28.4644 19.6256 35.5355 19.6256 39.9549 24.045C44.3743 28.4645 44.3743 35.5355 39.9549 39.9549Z" fill="black"/>
<mask id="mask0" mask-type="alpha" maskUnits="userSpaceOnUse" x="18" y="18" width="28" height="28">
<path fill-rule="evenodd" clip-rule="evenodd" d="M22.2773 41.7227C16.8856 36.331 16.8856 27.669 22.2773 22.2773C27.669 16.8856 36.331 16.8856 41.7227 22.2773C47.1144 27.669 47.1144 36.331 41.7227 41.7227C36.331 47.1144 27.669 47.1144 22.2773 41.7227ZM28.4644 36.773C27.7573 36.773 27.227 36.2426 27.227 35.5355C27.227 34.8284 27.7573 34.2981 28.4644 34.2981L32.5303 34.2981L27.5806 29.3483C27.0502 28.818 27.0502 28.1109 27.5806 27.5806C28.1109 27.0503 28.818 27.0503 29.3483 27.5806L34.2981 32.5303V28.4645C34.2981 27.7574 34.8284 27.227 35.5355 27.227C36.2426 27.227 36.773 27.7574 36.773 28.4645V35.5355C36.773 35.7123 36.773 35.8891 36.6846 35.9775C36.6846 36.1543 36.5078 36.331 36.4194 36.4194C36.331 36.5078 36.1542 36.6846 35.9775 36.6846C35.8891 36.773 35.7123 36.773 35.5355 36.773L28.4644 36.773ZM39.9549 39.9549C35.5355 44.3744 28.4644 44.3744 24.045 39.9549C19.6256 35.5355 19.6256 28.4645 24.045 24.045C28.4644 19.6256 35.5355 19.6256 39.9549 24.045C44.3743 28.4645 44.3743 35.5355 39.9549 39.9549Z" fill="white"/>
</mask>
<g mask="url(#mask0)">
<rect x="47" y="47" width="30" height="30" transform="rotate(-180 47 47)" fill="white"/>
</g>
</svg>
