<svg width="64" height="62" viewBox="0 0 64 62" fill="none" xmlns="http://www.w3.org/2000/svg">
<path fill-rule="evenodd" clip-rule="evenodd" d="M32 62C48.5685 62 62 48.5685 62 32C62 15.4315 48.5685 2 32 2C15.4315 2 2 15.4315 2 32C2 48.5685 15.4315 62 32 62Z" fill="#DF5060" stroke="white" stroke-width="4"/>
<path fill-rule="evenodd" clip-rule="evenodd" d="M44.3061 41.7347C45.0408 42.4694 45.0408 43.5714 44.3061 44.3061C43.9388 44.6734 43.5715 44.8571 43.0204 44.8571C42.4694 44.8571 42.1021 44.6734 41.7347 44.3061L32 34.5714L22.2653 44.3061C21.898 44.6734 21.5306 44.8571 20.9796 44.8571C20.4286 44.8571 20.0613 44.6734 19.6939 44.3061C18.9592 43.5714 18.9592 42.4694 19.6939 41.7347L29.4286 32L19.6939 22.2653C18.9592 21.5306 18.9592 20.4285 19.6939 19.6938C20.4286 18.9591 21.5306 18.9591 22.2653 19.6938L32 29.4285L41.7347 19.6938C42.4694 18.9591 43.5715 18.9591 44.3061 19.6938C45.0408 20.4285 45.0408 21.5306 44.3061 22.2653L34.5715 32L44.3061 41.7347Z" fill="white"/>
<mask id="mask0" mask-type="alpha" maskUnits="userSpaceOnUse" x="19" y="19" width="26" height="26">
<path fill-rule="evenodd" clip-rule="evenodd" d="M44.3061 41.7347C45.0408 42.4694 45.0408 43.5714 44.3061 44.3061C43.9388 44.6734 43.5715 44.8571 43.0204 44.8571C42.4694 44.8571 42.1021 44.6734 41.7347 44.3061L32 34.5714L22.2653 44.3061C21.898 44.6734 21.5306 44.8571 20.9796 44.8571C20.4286 44.8571 20.0613 44.6734 19.6939 44.3061C18.9592 43.5714 18.9592 42.4694 19.6939 41.7347L29.4286 32L19.6939 22.2653C18.9592 21.5306 18.9592 20.4285 19.6939 19.6938C20.4286 18.9591 21.5306 18.9591 22.2653 19.6938L32 29.4285L41.7347 19.6938C42.4694 18.9591 43.5715 18.9591 44.3061 19.6938C45.0408 20.4285 45.0408 21.5306 44.3061 22.2653L34.5715 32L44.3061 41.7347Z" fill="white"/>
</mask>
<g mask="url(#mask0)">
</g>
</svg>
