<svg width="64" height="62" viewBox="0 0 64 62" fill="none" xmlns="http://www.w3.org/2000/svg">
<path fill-rule="evenodd" clip-rule="evenodd" d="M32 62C48.5685 62 62 48.5685 62 32C62 15.4315 48.5685 2 32 2C15.4315 2 2 15.4315 2 32C2 48.5685 15.4315 62 32 62Z" fill="#347AF0" stroke="white" stroke-width="4"/>
<path fill-rule="evenodd" clip-rule="evenodd" d="M22.2773 22.2773C16.8856 27.669 16.8856 36.331 22.2773 41.7227C27.669 47.1144 36.331 47.1144 41.7227 41.7227C47.1144 36.331 47.1144 27.669 41.7227 22.2773C36.331 16.8856 27.669 16.8856 22.2773 22.2773ZM28.4644 27.227C27.7573 27.227 27.227 27.7574 27.227 28.4645C27.227 29.1716 27.7573 29.7019 28.4644 29.7019L32.5303 29.7019L27.5806 34.6517C27.0502 35.182 27.0502 35.8891 27.5806 36.4194C28.1109 36.9497 28.818 36.9497 29.3483 36.4194L34.2981 31.4697V35.5355C34.2981 36.2426 34.8284 36.773 35.5355 36.773C36.2426 36.773 36.773 36.2426 36.773 35.5355V28.4645C36.773 28.2877 36.773 28.1109 36.6846 28.0225C36.6846 27.8457 36.5078 27.669 36.4194 27.5806C36.331 27.4922 36.1542 27.3154 35.9775 27.3154C35.8891 27.227 35.7123 27.227 35.5355 27.227L28.4644 27.227ZM39.9549 24.0451C35.5355 19.6256 28.4644 19.6256 24.045 24.0451C19.6256 28.4645 19.6256 35.5355 24.045 39.955C28.4644 44.3744 35.5355 44.3744 39.9549 39.955C44.3743 35.5355 44.3743 28.4645 39.9549 24.0451Z" fill="black"/>
<mask id="mask0" mask-type="alpha" maskUnits="userSpaceOnUse" x="18" y="18" width="28" height="28">
<path fill-rule="evenodd" clip-rule="evenodd" d="M22.2773 22.2773C16.8856 27.669 16.8856 36.331 22.2773 41.7227C27.669 47.1144 36.331 47.1144 41.7227 41.7227C47.1144 36.331 47.1144 27.669 41.7227 22.2773C36.331 16.8856 27.669 16.8856 22.2773 22.2773ZM28.4644 27.227C27.7573 27.227 27.227 27.7574 27.227 28.4645C27.227 29.1716 27.7573 29.7019 28.4644 29.7019L32.5303 29.7019L27.5806 34.6517C27.0502 35.182 27.0502 35.8891 27.5806 36.4194C28.1109 36.9497 28.818 36.9497 29.3483 36.4194L34.2981 31.4697V35.5355C34.2981 36.2426 34.8284 36.773 35.5355 36.773C36.2426 36.773 36.773 36.2426 36.773 35.5355V28.4645C36.773 28.2877 36.773 28.1109 36.6846 28.0225C36.6846 27.8457 36.5078 27.669 36.4194 27.5806C36.331 27.4922 36.1542 27.3154 35.9775 27.3154C35.8891 27.227 35.7123 27.227 35.5355 27.227L28.4644 27.227ZM39.9549 24.0451C35.5355 19.6256 28.4644 19.6256 24.045 24.0451C19.6256 28.4645 19.6256 35.5355 24.045 39.955C28.4644 44.3744 35.5355 44.3744 39.9549 39.955C44.3743 35.5355 44.3743 28.4645 39.9549 24.0451Z" fill="white"/>
</mask>
<g mask="url(#mask0)">
<rect width="30" height="30" transform="matrix(-1 0 0 1 47 17)" fill="white"/>
</g>
</svg>
