<svg width="64" height="62" viewBox="0 0 64 62" fill="none" xmlns="http://www.w3.org/2000/svg">
<path fill-rule="evenodd" clip-rule="evenodd" d="M32 62C48.5685 62 62 48.5685 62 32C62 15.4315 48.5685 2 32 2C15.4315 2 2 15.4315 2 32C2 48.5685 15.4315 62 32 62Z" fill="#347AF0" stroke="white" stroke-width="4"/>
<path fill-rule="evenodd" clip-rule="evenodd" d="M42.8333 22.2501V27.6667C42.8333 28.3167 42.4 28.7501 41.75 28.7501C41.1 28.7501 40.6667 28.3167 40.6667 27.6667V24.8501L24.0917 41.4251C23.875 41.6418 23.6583 41.7501 23.3333 41.7501C23.0083 41.7501 22.7917 41.6418 22.575 41.4251C22.1417 40.9917 22.1417 40.3417 22.575 39.9084L39.15 23.3334H36.3333C35.6833 23.3334 35.25 22.9001 35.25 22.2501C35.25 21.6001 35.6833 21.1667 36.3333 21.1667H41.75C41.8583 21.1667 42.075 21.1667 42.1833 21.2751C42.4 21.3834 42.6167 21.6001 42.725 21.8167C42.8333 21.9251 42.8333 22.1417 42.8333 22.2501ZM41.75 35.2501C41.1 35.2501 40.6667 35.6834 40.6667 36.3334V39.1501L36.0083 34.4917C35.575 34.0584 34.925 34.0584 34.4917 34.4917C34.0583 34.9251 34.0583 35.5751 34.4917 36.0084L39.15 40.6667H36.3333C35.6833 40.6667 35.25 41.1001 35.25 41.7501C35.25 42.4001 35.6833 42.8334 36.3333 42.8334H41.75C41.8583 42.8334 42.075 42.8334 42.1833 42.7251C42.4 42.6167 42.6167 42.4001 42.725 42.1834C42.8333 42.0751 42.8333 41.8584 42.8333 41.7501V36.3334C42.8333 35.6834 42.4 35.2501 41.75 35.2501ZM28.75 29.8334C28.425 29.8334 28.2083 29.7251 27.9917 29.5084L22.575 24.0917C22.1417 23.6584 22.1417 23.0084 22.575 22.5751C23.0083 22.1417 23.6583 22.1417 24.0917 22.5751L29.5083 27.9917C29.9417 28.4251 29.9417 29.0751 29.5083 29.5084C29.2917 29.7251 29.075 29.8334 28.75 29.8334Z" fill="black"/>
<mask id="mask0" mask-type="alpha" maskUnits="userSpaceOnUse" x="22" y="21" width="21" height="22">
<path fill-rule="evenodd" clip-rule="evenodd" d="M42.8333 22.2501V27.6667C42.8333 28.3167 42.4 28.7501 41.75 28.7501C41.1 28.7501 40.6667 28.3167 40.6667 27.6667V24.8501L24.0917 41.4251C23.875 41.6418 23.6583 41.7501 23.3333 41.7501C23.0083 41.7501 22.7917 41.6418 22.575 41.4251C22.1417 40.9917 22.1417 40.3417 22.575 39.9084L39.15 23.3334H36.3333C35.6833 23.3334 35.25 22.9001 35.25 22.2501C35.25 21.6001 35.6833 21.1667 36.3333 21.1667H41.75C41.8583 21.1667 42.075 21.1667 42.1833 21.2751C42.4 21.3834 42.6167 21.6001 42.725 21.8167C42.8333 21.9251 42.8333 22.1417 42.8333 22.2501ZM41.75 35.2501C41.1 35.2501 40.6667 35.6834 40.6667 36.3334V39.1501L36.0083 34.4917C35.575 34.0584 34.925 34.0584 34.4917 34.4917C34.0583 34.9251 34.0583 35.5751 34.4917 36.0084L39.15 40.6667H36.3333C35.6833 40.6667 35.25 41.1001 35.25 41.7501C35.25 42.4001 35.6833 42.8334 36.3333 42.8334H41.75C41.8583 42.8334 42.075 42.8334 42.1833 42.7251C42.4 42.6167 42.6167 42.4001 42.725 42.1834C42.8333 42.0751 42.8333 41.8584 42.8333 41.7501V36.3334C42.8333 35.6834 42.4 35.2501 41.75 35.2501ZM28.75 29.8334C28.425 29.8334 28.2083 29.7251 27.9917 29.5084L22.575 24.0917C22.1417 23.6584 22.1417 23.0084 22.575 22.5751C23.0083 22.1417 23.6583 22.1417 24.0917 22.5751L29.5083 27.9917C29.9417 28.4251 29.9417 29.0751 29.5083 29.5084C29.2917 29.7251 29.075 29.8334 28.75 29.8334Z" fill="white"/>
</mask>
<g mask="url(#mask0)">
<rect x="19" y="19" width="26" height="26" fill="white"/>
</g>
</svg>
