<svg width="62" height="62" viewBox="0 0 62 62" fill="none" xmlns="http://www.w3.org/2000/svg">
<path fill-rule="evenodd" clip-rule="evenodd" d="M30 62C46.5685 62 60 48.5685 60 32C60 15.4315 46.5685 2 30 2C13.4315 2 0 15.4315 0 32C0 48.5685 13.4315 62 30 62Z" fill="#FFA500" stroke="white" stroke-width="4"/>
<path fill-rule="evenodd" clip-rule="evenodd" d="M35.1839 14.0705C34.2846 13.8042 33.3392 14.3152 33.0693 15.2135L28.6345 30.7582L19.8677 38.4277C19.1591 39.055 19.0877 40.1359 19.7077 40.8509C20.335 41.5596 21.4159 41.6309 22.1309 41.0109L31.2748 33.0099C31.523 32.7917 31.7018 32.5057 31.7892 32.187L36.3612 16.1851C36.4878 15.7485 36.4346 15.2794 36.2135 14.8823C35.9924 14.4851 35.6217 14.1929 35.1839 14.0705Z" fill="white"/>
</svg>
