<svg width="24" height="24" viewBox="0 0 24 24" fill="none" xmlns="http://www.w3.org/2000/svg">
<path fill-rule="evenodd" clip-rule="evenodd" d="M23.9977 3.44208V2.90924L3.7657 12.9843C3.66414 12.2083 3.67053 11.4554 3.78747 10.7063C4.0082 9.28954 4.56292 8.00761 5.48724 6.89147C7.06495 4.98632 9.11564 3.95358 11.6219 3.81799C13.1585 3.73534 14.61 4.06936 15.9636 4.78987C16.0379 4.82902 16.094 4.82657 16.1667 4.78987C16.5668 4.58801 16.9679 4.38834 17.369 4.18866C17.5277 4.10962 17.6865 4.03059 17.8452 3.95141C17.8678 3.94015 17.8898 3.92762 17.9141 3.91376C17.9268 3.90649 17.9402 3.89885 17.9547 3.89084C17.9406 3.88063 17.9277 3.87113 17.9156 3.86217C17.8906 3.84378 17.8688 3.82768 17.8463 3.81252C15.4068 2.17562 12.7424 1.64744 9.85318 2.22799C8.07535 2.58522 6.51825 3.39056 5.17462 4.58105C4.07504 5.55777 3.23448 6.7131 2.65296 8.04706C2.20889 9.06611 1.93661 10.1289 1.87915 11.2363C1.86051 11.5944 1.86684 11.9538 1.87318 12.3132C1.87569 12.4553 1.87819 12.5975 1.87915 12.7395C1.88541 13.5062 1.54312 14.0706 0.852304 14.4326C0.606232 14.5616 0.357258 14.6849 0.105769 14.8042C0.0290651 14.8405 -0.000629866 14.8814 4.72195e-05 14.9672C0.00334561 15.4306 0.00304199 15.8941 0.00273838 16.3576C0.00265025 16.4921 0.00256211 16.6266 0.00256211 16.7612C0.00256211 16.7838 0.00430021 16.8063 0.00628896 16.832C0.00730427 16.8451 0.00838491 16.8591 0.00933296 16.8744C0.0288182 16.8652 0.0464442 16.857 0.0629002 16.8495C0.0870435 16.8383 0.108668 16.8283 0.129951 16.8178C1.53513 16.1184 2.94024 15.4188 4.34529 14.7191L19.0068 7.41883C20.6304 6.60786 22.2554 5.79954 23.8818 4.99386C23.9727 4.94886 24.0011 4.89875 24 4.8026C23.9962 4.46761 23.9968 4.13263 23.9973 3.7976C23.9975 3.6791 23.9977 3.56059 23.9977 3.44208ZM23.9979 8.35211V6.96356C23.9807 6.97178 23.9653 6.97904 23.9512 6.98568C23.9185 7.00113 23.893 7.01316 23.8681 7.02583L11.8556 13.0057C7.95187 14.951 4.04698 16.8939 0.140903 18.8344C0.0333467 18.8878 -0.00128023 18.9458 7.39004e-05 19.0622C0.0052887 19.4859 0.00454171 19.9098 0.00379467 20.3337C0.00353022 20.4838 0.00326577 20.6338 0.00326577 20.7839V20.931L20.2253 10.8624C20.2285 10.8707 20.2314 10.8773 20.2338 10.8829C20.2381 10.8928 20.241 10.8994 20.2418 10.9062C20.3456 11.7571 20.3243 12.6042 20.1594 13.446C19.8801 14.8716 19.2607 16.1406 18.2787 17.2313C16.7191 18.9636 14.7509 19.9009 12.3928 20.0284C10.8473 20.1119 9.38824 19.7778 8.02724 19.0528C7.95983 19.017 7.90837 19.0113 7.83621 19.0478C7.43185 19.2524 7.02598 19.4543 6.62012 19.6561C6.46233 19.7346 6.30454 19.8131 6.14684 19.8917C6.1245 19.9029 6.10297 19.9154 6.07846 19.9298C6.06615 19.937 6.05309 19.9446 6.0388 19.9527C6.52431 20.3006 7.04183 20.6039 7.58473 20.8587C9.48793 21.7451 11.4813 22.0345 13.5648 21.7268C15.0726 21.5041 16.4558 20.9649 17.7122 20.1251C19.1935 19.1351 20.3296 17.8542 21.1204 16.2825C21.653 15.2207 21.9797 14.1014 22.1006 12.9244C22.1623 12.3236 22.1465 11.7231 22.1249 11.1209C22.0967 10.3343 22.4602 9.75915 23.1727 9.39418C23.4164 9.269 23.6619 9.14735 23.909 9.02921C23.9777 8.99647 24.0025 8.95675 23.9999 8.88183C23.9955 8.75637 23.9964 8.63073 23.9972 8.50506C23.9976 8.45408 23.9979 8.40309 23.9979 8.35211Z" fill="#0D1F3C"/>
<mask id="mask0" mask-type="alpha" maskUnits="userSpaceOnUse" x="0" y="2" width="24" height="20">
<path fill-rule="evenodd" clip-rule="evenodd" d="M23.9977 3.44208V2.90924L3.7657 12.9843C3.66414 12.2083 3.67053 11.4554 3.78747 10.7063C4.0082 9.28954 4.56292 8.00761 5.48724 6.89147C7.06495 4.98632 9.11564 3.95358 11.6219 3.81799C13.1585 3.73534 14.61 4.06936 15.9636 4.78987C16.0379 4.82902 16.094 4.82657 16.1667 4.78987C16.5668 4.58801 16.9679 4.38834 17.369 4.18866C17.5277 4.10962 17.6865 4.03059 17.8452 3.95141C17.8678 3.94015 17.8898 3.92762 17.9141 3.91376C17.9268 3.90649 17.9402 3.89885 17.9547 3.89084C17.9406 3.88063 17.9277 3.87113 17.9156 3.86217C17.8906 3.84378 17.8688 3.82768 17.8463 3.81252C15.4068 2.17562 12.7424 1.64744 9.85318 2.22799C8.07535 2.58522 6.51825 3.39056 5.17462 4.58105C4.07504 5.55777 3.23448 6.7131 2.65296 8.04706C2.20889 9.06611 1.93661 10.1289 1.87915 11.2363C1.86051 11.5944 1.86684 11.9538 1.87318 12.3132C1.87569 12.4553 1.87819 12.5975 1.87915 12.7395C1.88541 13.5062 1.54312 14.0706 0.852304 14.4326C0.606232 14.5616 0.357258 14.6849 0.105769 14.8042C0.0290651 14.8405 -0.000629866 14.8814 4.72195e-05 14.9672C0.00334561 15.4306 0.00304199 15.8941 0.00273838 16.3576C0.00265025 16.4921 0.00256211 16.6266 0.00256211 16.7612C0.00256211 16.7838 0.00430021 16.8063 0.00628896 16.832C0.00730427 16.8451 0.00838491 16.8591 0.00933296 16.8744C0.0288182 16.8652 0.0464442 16.857 0.0629002 16.8495C0.0870435 16.8383 0.108668 16.8283 0.129951 16.8178C1.53513 16.1184 2.94024 15.4188 4.34529 14.7191L19.0068 7.41883C20.6304 6.60786 22.2554 5.79954 23.8818 4.99386C23.9727 4.94886 24.0011 4.89875 24 4.8026C23.9962 4.46761 23.9968 4.13263 23.9973 3.7976C23.9975 3.6791 23.9977 3.56059 23.9977 3.44208ZM23.9979 8.35211V6.96356C23.9807 6.97178 23.9653 6.97904 23.9512 6.98568C23.9185 7.00113 23.893 7.01316 23.8681 7.02583L11.8556 13.0057C7.95187 14.951 4.04698 16.8939 0.140903 18.8344C0.0333467 18.8878 -0.00128023 18.9458 7.39004e-05 19.0622C0.0052887 19.4859 0.00454171 19.9098 0.00379467 20.3337C0.00353022 20.4838 0.00326577 20.6338 0.00326577 20.7839V20.931L20.2253 10.8624C20.2285 10.8707 20.2314 10.8773 20.2338 10.8829C20.2381 10.8928 20.241 10.8994 20.2418 10.9062C20.3456 11.7571 20.3243 12.6042 20.1594 13.446C19.8801 14.8716 19.2607 16.1406 18.2787 17.2313C16.7191 18.9636 14.7509 19.9009 12.3928 20.0284C10.8473 20.1119 9.38824 19.7778 8.02724 19.0528C7.95983 19.017 7.90837 19.0113 7.83621 19.0478C7.43185 19.2524 7.02598 19.4543 6.62012 19.6561C6.46233 19.7346 6.30454 19.8131 6.14684 19.8917C6.1245 19.9029 6.10297 19.9154 6.07846 19.9298C6.06615 19.937 6.05309 19.9446 6.0388 19.9527C6.52431 20.3006 7.04183 20.6039 7.58473 20.8587C9.48793 21.7451 11.4813 22.0345 13.5648 21.7268C15.0726 21.5041 16.4558 20.9649 17.7122 20.1251C19.1935 19.1351 20.3296 17.8542 21.1204 16.2825C21.653 15.2207 21.9797 14.1014 22.1006 12.9244C22.1623 12.3236 22.1465 11.7231 22.1249 11.1209C22.0967 10.3343 22.4602 9.75915 23.1727 9.39418C23.4164 9.269 23.6619 9.14735 23.909 9.02921C23.9777 8.99647 24.0025 8.95675 23.9999 8.88183C23.9955 8.75637 23.9964 8.63073 23.9972 8.50506C23.9976 8.45408 23.9979 8.40309 23.9979 8.35211Z" fill="white"/>
</mask>
<g mask="url(#mask0)">
</g>
</svg>
