<svg width="24" height="24" viewBox="0 0 24 24" fill="none" xmlns="http://www.w3.org/2000/svg">
<path fill-rule="evenodd" clip-rule="evenodd" d="M1 12C1 5.9 5.9 1 12 1C18.1 1 23 5.9 23 12C23 18.1 18.1 23 12 23C5.9 23 1 18.1 1 12ZM3 12C3 17 7 21 12 21C17 21 21 17 21 12C21 7 17 3 12 3C7 3 3 7 3 12ZM9 8C8.4 8 8 8.4 8 9V15C8 15.6 8.4 16 9 16H15C15.6 16 16 15.6 16 15V9C16 8.4 15.6 8 15 8H9ZM10 14H14V10H10V14Z" fill="black"/>
<mask id="mask0" mask-type="alpha" maskUnits="userSpaceOnUse" x="1" y="1" width="22" height="22">
<path fill-rule="evenodd" clip-rule="evenodd" d="M1 12C1 5.9 5.9 1 12 1C18.1 1 23 5.9 23 12C23 18.1 18.1 23 12 23C5.9 23 1 18.1 1 12ZM3 12C3 17 7 21 12 21C17 21 21 17 21 12C21 7 17 3 12 3C7 3 3 7 3 12ZM9 8C8.4 8 8 8.4 8 9V15C8 15.6 8.4 16 9 16H15C15.6 16 16 15.6 16 15V9C16 8.4 15.6 8 15 8H9ZM10 14H14V10H10V14Z" fill="white"/>
</mask>
<g mask="url(#mask0)">
<rect width="24" height="24" fill="#347AF0"/>
</g>
</svg>
