<svg width="24" height="24" viewBox="0 0 24 24" fill="none" xmlns="http://www.w3.org/2000/svg">
<path fill-rule="evenodd" clip-rule="evenodd" d="M11 3V1C11 0.4 11.4 0 12 0C12.6 0 13 0.4 13 1V3C13 3.6 12.6 4 12 4C11.4 4 11 3.6 11 3ZM6 12C6 8.7 8.7 6 12 6C15.3 6 18 8.7 18 12C18 15.3 15.3 18 12 18C8.7 18 6 15.3 6 12ZM8 12C8 14.2 9.8 16 12 16C14.2 16 16 14.2 16 12C16 9.8 14.2 8 12 8C9.8 8 8 9.8 8 12ZM13 23V21C13 20.4 12.6 20 12 20C11.4 20 11 20.4 11 21V23C11 23.6 11.4 24 12 24C12.6 24 13 23.6 13 23ZM3.5 4.9C3.1 4.5 3.1 3.9 3.5 3.5C3.9 3.1 4.5 3.1 4.9 3.5L6.3 4.9C6.7 5.3 6.7 5.9 6.3 6.3C6.2 6.5 5.9 6.6 5.6 6.6C5.3 6.6 5.1 6.5 4.9 6.3L3.5 4.9ZM20.5 20.5C20.9 20.1 20.9 19.5 20.5 19.1L19.1 17.7C18.7 17.3 18.1 17.3 17.7 17.7C17.3 18.1 17.3 18.7 17.7 19.1L19.1 20.5C19.3 20.7 19.6 20.8 19.8 20.8C20 20.8 20.3 20.7 20.5 20.5ZM3 13H1C0.4 13 0 12.6 0 12C0 11.4 0.4 11 1 11H3C3.6 11 4 11.4 4 12C4 12.6 3.6 13 3 13ZM23 13C23.6 13 24 12.6 24 12C24 11.4 23.6 11 23 11H21C20.4 11 20 11.4 20 12C20 12.6 20.4 13 21 13H23ZM6.3 17.7C6.7 18.1 6.7 18.7 6.3 19.1L4.9 20.5C4.7 20.7 4.4 20.8 4.2 20.8C4 20.8 3.7 20.7 3.5 20.5C3.1 20.1 3.1 19.5 3.5 19.1L4.9 17.7C5.3 17.3 6 17.3 6.3 17.7ZM17.7 4.9C17.3 5.3 17.3 5.9 17.7 6.3C17.8 6.5 18.2 6.6 18.4 6.6C18.6 6.6 18.9 6.5 19.1 6.3L20.5 4.9C20.9 4.5 20.9 3.9 20.5 3.5C20.1 3.1 19.5 3.1 19.1 3.5L17.7 4.9Z" fill="black"/>
<mask id="mask0" mask-type="alpha" maskUnits="userSpaceOnUse" x="0" y="0" width="24" height="24">
<path fill-rule="evenodd" clip-rule="evenodd" d="M11 3V1C11 0.4 11.4 0 12 0C12.6 0 13 0.4 13 1V3C13 3.6 12.6 4 12 4C11.4 4 11 3.6 11 3ZM6 12C6 8.7 8.7 6 12 6C15.3 6 18 8.7 18 12C18 15.3 15.3 18 12 18C8.7 18 6 15.3 6 12ZM8 12C8 14.2 9.8 16 12 16C14.2 16 16 14.2 16 12C16 9.8 14.2 8 12 8C9.8 8 8 9.8 8 12ZM13 23V21C13 20.4 12.6 20 12 20C11.4 20 11 20.4 11 21V23C11 23.6 11.4 24 12 24C12.6 24 13 23.6 13 23ZM3.5 4.9C3.1 4.5 3.1 3.9 3.5 3.5C3.9 3.1 4.5 3.1 4.9 3.5L6.3 4.9C6.7 5.3 6.7 5.9 6.3 6.3C6.2 6.5 5.9 6.6 5.6 6.6C5.3 6.6 5.1 6.5 4.9 6.3L3.5 4.9ZM20.5 20.5C20.9 20.1 20.9 19.5 20.5 19.1L19.1 17.7C18.7 17.3 18.1 17.3 17.7 17.7C17.3 18.1 17.3 18.7 17.7 19.1L19.1 20.5C19.3 20.7 19.6 20.8 19.8 20.8C20 20.8 20.3 20.7 20.5 20.5ZM3 13H1C0.4 13 0 12.6 0 12C0 11.4 0.4 11 1 11H3C3.6 11 4 11.4 4 12C4 12.6 3.6 13 3 13ZM23 13C23.6 13 24 12.6 24 12C24 11.4 23.6 11 23 11H21C20.4 11 20 11.4 20 12C20 12.6 20.4 13 21 13H23ZM6.3 17.7C6.7 18.1 6.7 18.7 6.3 19.1L4.9 20.5C4.7 20.7 4.4 20.8 4.2 20.8C4 20.8 3.7 20.7 3.5 20.5C3.1 20.1 3.1 19.5 3.5 19.1L4.9 17.7C5.3 17.3 6 17.3 6.3 17.7ZM17.7 4.9C17.3 5.3 17.3 5.9 17.7 6.3C17.8 6.5 18.2 6.6 18.4 6.6C18.6 6.6 18.9 6.5 19.1 6.3L20.5 4.9C20.9 4.5 20.9 3.9 20.5 3.5C20.1 3.1 19.5 3.1 19.1 3.5L17.7 4.9Z" fill="white"/>
</mask>
<g mask="url(#mask0)">
<rect width="24" height="24" fill="#347AF0"/>
</g>
</svg>
