<svg width="24" height="24" viewBox="0 0 24 24" fill="none" xmlns="http://www.w3.org/2000/svg">
<path fill-rule="evenodd" clip-rule="evenodd" d="M11 4.37884L8.7 6.68146C8.3 7.08191 7.7 7.08191 7.3 6.68146C6.9 6.281 6.9 5.68032 7.3 5.27986L11.3 1.27531C11.35 1.22526 11.4 1.20023 11.45 1.1752C11.5 1.15017 11.55 1.12514 11.6 1.07509C11.9 0.974972 12.2 0.974972 12.4 1.07509C12.5 1.07509 12.6 1.1752 12.7 1.27531L16.7 5.27986C17.1 5.68032 17.1 6.281 16.7 6.68146C16.5 6.88168 16.3 6.9818 16 6.9818C15.7 6.9818 15.5 6.88168 15.3 6.68146L13 4.37884V8.98407C13 9.58475 12.6 9.98521 12 9.98521C11.4 9.98521 11 9.58475 11 8.98407V4.37884ZM4.9 12.2878C5.1 12.4881 5.4 12.5882 5.6 12.5882C5.8 12.5882 6.1 12.4881 6.3 12.2878C6.7 11.8874 6.7 11.2867 6.3 10.8862L4.9 9.48464C4.5 9.08419 3.9 9.08419 3.5 9.48464C3.1 9.8851 3.1 10.4858 3.5 10.8862L4.9 12.2878ZM18 17.9943C18 18.595 17.6 18.9954 17 18.9954C16.4 18.9954 16 18.595 16 17.9943C16 15.7918 14.2 13.9898 12 13.9898C9.8 13.9898 8 15.7918 8 17.9943C8 18.595 7.6 18.9954 7 18.9954C6.4 18.9954 6 18.595 6 17.9943C6 14.6906 8.7 11.9875 12 11.9875C15.3 11.9875 18 14.6906 18 17.9943ZM3 18.9954H1C0.4 18.9954 0 18.595 0 17.9943C0 17.3936 0.4 16.9932 1 16.9932H3C3.6 16.9932 4 17.3936 4 17.9943C4 18.595 3.6 18.9954 3 18.9954ZM20 17.9943C20 18.595 20.4 18.9954 21 18.9954H23C23.6 18.9954 24 18.595 24 17.9943C24 17.3936 23.6 16.9932 23 16.9932H21C20.4 16.9932 20 17.3936 20 17.9943ZM19.1 12.2878C18.9 12.4881 18.7 12.5882 18.4 12.5882C18.1 12.5882 17.8 12.4881 17.7 12.2878C17.3 11.8874 17.3 11.2867 17.7 10.8862L19.1 9.48464C19.5 9.08419 20.1 9.08419 20.5 9.48464C20.9 9.8851 20.9 10.4858 20.5 10.8862L19.1 12.2878ZM1 20.9977C0.4 20.9977 0 21.3982 0 21.9989C0 22.5995 0.4 23 1 23H23C23.6 23 24 22.5995 24 21.9989C24 21.3982 23.6 20.9977 23 20.9977H1Z" fill="black"/>
<mask id="mask0" mask-type="alpha" maskUnits="userSpaceOnUse" x="0" y="1" width="24" height="22">
<path fill-rule="evenodd" clip-rule="evenodd" d="M11 4.37884L8.7 6.68146C8.3 7.08191 7.7 7.08191 7.3 6.68146C6.9 6.281 6.9 5.68032 7.3 5.27986L11.3 1.27531C11.35 1.22526 11.4 1.20023 11.45 1.1752C11.5 1.15017 11.55 1.12514 11.6 1.07509C11.9 0.974972 12.2 0.974972 12.4 1.07509C12.5 1.07509 12.6 1.1752 12.7 1.27531L16.7 5.27986C17.1 5.68032 17.1 6.281 16.7 6.68146C16.5 6.88168 16.3 6.9818 16 6.9818C15.7 6.9818 15.5 6.88168 15.3 6.68146L13 4.37884V8.98407C13 9.58475 12.6 9.98521 12 9.98521C11.4 9.98521 11 9.58475 11 8.98407V4.37884ZM4.9 12.2878C5.1 12.4881 5.4 12.5882 5.6 12.5882C5.8 12.5882 6.1 12.4881 6.3 12.2878C6.7 11.8874 6.7 11.2867 6.3 10.8862L4.9 9.48464C4.5 9.08419 3.9 9.08419 3.5 9.48464C3.1 9.8851 3.1 10.4858 3.5 10.8862L4.9 12.2878ZM18 17.9943C18 18.595 17.6 18.9954 17 18.9954C16.4 18.9954 16 18.595 16 17.9943C16 15.7918 14.2 13.9898 12 13.9898C9.8 13.9898 8 15.7918 8 17.9943C8 18.595 7.6 18.9954 7 18.9954C6.4 18.9954 6 18.595 6 17.9943C6 14.6906 8.7 11.9875 12 11.9875C15.3 11.9875 18 14.6906 18 17.9943ZM3 18.9954H1C0.4 18.9954 0 18.595 0 17.9943C0 17.3936 0.4 16.9932 1 16.9932H3C3.6 16.9932 4 17.3936 4 17.9943C4 18.595 3.6 18.9954 3 18.9954ZM20 17.9943C20 18.595 20.4 18.9954 21 18.9954H23C23.6 18.9954 24 18.595 24 17.9943C24 17.3936 23.6 16.9932 23 16.9932H21C20.4 16.9932 20 17.3936 20 17.9943ZM19.1 12.2878C18.9 12.4881 18.7 12.5882 18.4 12.5882C18.1 12.5882 17.8 12.4881 17.7 12.2878C17.3 11.8874 17.3 11.2867 17.7 10.8862L19.1 9.48464C19.5 9.08419 20.1 9.08419 20.5 9.48464C20.9 9.8851 20.9 10.4858 20.5 10.8862L19.1 12.2878ZM1 20.9977C0.4 20.9977 0 21.3982 0 21.9989C0 22.5995 0.4 23 1 23H23C23.6 23 24 22.5995 24 21.9989C24 21.3982 23.6 20.9977 23 20.9977H1Z" fill="white"/>
</mask>
<g mask="url(#mask0)">
<rect width="24" height="24" fill="#347AF0"/>
</g>
</svg>
