<svg width="24" height="24" viewBox="0 0 24 24" fill="none" xmlns="http://www.w3.org/2000/svg">
<path fill-rule="evenodd" clip-rule="evenodd" d="M11.6 9.9C11.5 9.9 11.4 9.8 11.3 9.7L7.3 5.7C6.9 5.3 6.9 4.7 7.3 4.3C7.7 3.9 8.3 3.9 8.7 4.3L11 6.6V2C11 1.4 11.4 1 12 1C12.6 1 13 1.4 13 2V6.6L15.3 4.3C15.7 3.9 16.3 3.9 16.7 4.3C17.1 4.7 17.1 5.3 16.7 5.7L12.7 9.7C12.65 9.75 12.6 9.775 12.55 9.8C12.5 9.825 12.45 9.85 12.4 9.9C12.3 10 12.1 10 12 10C11.9 10 11.7 10 11.6 9.9ZM4.9 12.3C5.1 12.5 5.4 12.6 5.6 12.6C5.8 12.6 6.1 12.5 6.3 12.3C6.7 11.9 6.7 11.3 6.3 10.9L4.9 9.5C4.5 9.1 3.9 9.1 3.5 9.5C3.1 9.9 3.1 10.5 3.5 10.9L4.9 12.3ZM18 18C18 18.6 17.6 19 17 19C16.4 19 16 18.6 16 18C16 15.8 14.2 14 12 14C9.8 14 8 15.8 8 18C8 18.6 7.6 19 7 19C6.4 19 6 18.6 6 18C6 14.7 8.7 12 12 12C15.3 12 18 14.7 18 18ZM3 19H1C0.4 19 0 18.6 0 18C0 17.4 0.4 17 1 17H3C3.6 17 4 17.4 4 18C4 18.6 3.6 19 3 19ZM20 18C20 18.6 20.4 19 21 19H23C23.6 19 24 18.6 24 18C24 17.4 23.6 17 23 17H21C20.4 17 20 17.4 20 18ZM19.1 12.3C18.9 12.5 18.7 12.6 18.4 12.6C18.1 12.6 17.8 12.5 17.7 12.3C17.3 11.9 17.3 11.3 17.7 10.9L19.1 9.5C19.5 9.1 20.1 9.1 20.5 9.5C20.9 9.9 20.9 10.5 20.5 10.9L19.1 12.3ZM1 21C0.4 21 0 21.4 0 22C0 22.6 0.4 23 1 23H23C23.6 23 24 22.6 24 22C24 21.4 23.6 21 23 21H1Z" fill="black"/>
<mask id="mask0" mask-type="alpha" maskUnits="userSpaceOnUse" x="0" y="1" width="24" height="22">
<path fill-rule="evenodd" clip-rule="evenodd" d="M11.6 9.9C11.5 9.9 11.4 9.8 11.3 9.7L7.3 5.7C6.9 5.3 6.9 4.7 7.3 4.3C7.7 3.9 8.3 3.9 8.7 4.3L11 6.6V2C11 1.4 11.4 1 12 1C12.6 1 13 1.4 13 2V6.6L15.3 4.3C15.7 3.9 16.3 3.9 16.7 4.3C17.1 4.7 17.1 5.3 16.7 5.7L12.7 9.7C12.65 9.75 12.6 9.775 12.55 9.8C12.5 9.825 12.45 9.85 12.4 9.9C12.3 10 12.1 10 12 10C11.9 10 11.7 10 11.6 9.9ZM4.9 12.3C5.1 12.5 5.4 12.6 5.6 12.6C5.8 12.6 6.1 12.5 6.3 12.3C6.7 11.9 6.7 11.3 6.3 10.9L4.9 9.5C4.5 9.1 3.9 9.1 3.5 9.5C3.1 9.9 3.1 10.5 3.5 10.9L4.9 12.3ZM18 18C18 18.6 17.6 19 17 19C16.4 19 16 18.6 16 18C16 15.8 14.2 14 12 14C9.8 14 8 15.8 8 18C8 18.6 7.6 19 7 19C6.4 19 6 18.6 6 18C6 14.7 8.7 12 12 12C15.3 12 18 14.7 18 18ZM3 19H1C0.4 19 0 18.6 0 18C0 17.4 0.4 17 1 17H3C3.6 17 4 17.4 4 18C4 18.6 3.6 19 3 19ZM20 18C20 18.6 20.4 19 21 19H23C23.6 19 24 18.6 24 18C24 17.4 23.6 17 23 17H21C20.4 17 20 17.4 20 18ZM19.1 12.3C18.9 12.5 18.7 12.6 18.4 12.6C18.1 12.6 17.8 12.5 17.7 12.3C17.3 11.9 17.3 11.3 17.7 10.9L19.1 9.5C19.5 9.1 20.1 9.1 20.5 9.5C20.9 9.9 20.9 10.5 20.5 10.9L19.1 12.3ZM1 21C0.4 21 0 21.4 0 22C0 22.6 0.4 23 1 23H23C23.6 23 24 22.6 24 22C24 21.4 23.6 21 23 21H1Z" fill="white"/>
</mask>
<g mask="url(#mask0)">
<rect width="24" height="24" fill="#347AF0"/>
</g>
</svg>
