<svg width="18" height="27" viewBox="0 0 18 27" fill="currentColor" xmlns="http://www.w3.org/2000/svg">
<path fill-rule="evenodd" clip-rule="evenodd" d="M7.24703 16.1882C6.25607 16.1882 5.44861 15.38 5.44861 14.388H5.43026V3.03558L7.50395 5.11135C7.85262 5.40526 8.34811 5.40526 8.67843 5.11135C9.06381 4.78069 9.10051 4.21124 8.77019 3.84384L5.17335 0.261767C4.82467 -0.0872557 4.25578 -0.0872557 3.90711 0.261767L0.31027 3.86221C0.286569 3.87408 0.270521 3.8936 0.252242 3.91583C0.242214 3.92803 0.231515 3.94105 0.218514 3.95406C-0.111808 4.32145 -0.0567545 4.89091 0.31027 5.22156C0.677295 5.55222 1.24618 5.49711 1.5765 5.12972L3.65019 3.05395V14.388C3.65019 16.3719 5.2651 17.9885 7.24703 17.9885C7.74252 17.9885 8.14624 17.5843 8.14624 17.0883C8.14624 16.5924 7.74252 16.1882 7.24703 16.1882ZM12.6483 12.5936V23.9277L10.5746 21.8519C10.5627 21.8282 10.5432 21.8121 10.521 21.7938C10.5088 21.7838 10.4958 21.7731 10.4828 21.7601C10.0974 21.4478 9.52856 21.4845 9.21659 21.8703C8.90462 22.256 8.94132 22.8255 9.3267 23.1378L12.9052 26.7382C13.2539 27.0873 13.8227 27.0873 14.1714 26.7382L17.7866 23.1378C18.0619 22.8071 18.0802 22.2928 17.7866 21.9621C17.4746 21.5764 16.9058 21.5396 16.5204 21.8519L14.4467 23.9277V12.5936C14.4467 10.6097 12.8318 8.99318 10.8498 8.99318C10.3544 8.99318 9.95064 9.39731 9.95064 9.89329C9.95064 10.3893 10.3544 10.7934 10.8498 10.7934C11.8408 10.7934 12.6483 11.6017 12.6483 12.5936Z" fill="currentColor"/>
</svg>
