<svg width="24" height="24" viewBox="0 0 24 24" fill="none" xmlns="http://www.w3.org/2000/svg">
<path fill-rule="evenodd" clip-rule="evenodd" d="M18 1H6C4.3 1 3 2.3 3 4V20C3 21.7 4.3 23 6 23H18C19.7 23 21 21.7 21 20V4C21 2.3 19.7 1 18 1ZM19 20C19 20.6 18.6 21 18 21H6C5.4 21 5 20.6 5 20V4C5 3.4 5.4 3 6 3H18C18.6 3 19 3.4 19 4V20ZM13 18C13 17.8 12.9 17.5 12.7 17.3C12.3 16.9 11.7 16.9 11.3 17.3C11.25 17.35 11.225 17.4 11.2 17.45C11.175 17.5 11.15 17.55 11.1 17.6C11 17.7 11 17.9 11 18C11 18.3 11.1 18.5 11.3 18.7C11.4 18.8 11.5 18.9 11.6 18.9C11.7 19 11.9 19 12 19C12.3 19 12.5 18.9 12.7 18.7C12.9 18.5 13 18.3 13 18Z" fill="black"/>
<mask id="mask0" mask-type="alpha" maskUnits="userSpaceOnUse" x="3" y="1" width="18" height="22">
<path fill-rule="evenodd" clip-rule="evenodd" d="M18 1H6C4.3 1 3 2.3 3 4V20C3 21.7 4.3 23 6 23H18C19.7 23 21 21.7 21 20V4C21 2.3 19.7 1 18 1ZM19 20C19 20.6 18.6 21 18 21H6C5.4 21 5 20.6 5 20V4C5 3.4 5.4 3 6 3H18C18.6 3 19 3.4 19 4V20ZM13 18C13 17.8 12.9 17.5 12.7 17.3C12.3 16.9 11.7 16.9 11.3 17.3C11.25 17.35 11.225 17.4 11.2 17.45C11.175 17.5 11.15 17.55 11.1 17.6C11 17.7 11 17.9 11 18C11 18.3 11.1 18.5 11.3 18.7C11.4 18.8 11.5 18.9 11.6 18.9C11.7 19 11.9 19 12 19C12.3 19 12.5 18.9 12.7 18.7C12.9 18.5 13 18.3 13 18Z" fill="white"/>
</mask>
<g mask="url(#mask0)">
<rect width="24" height="24" fill="#347AF0"/>
</g>
</svg>
