<svg width="24" height="24" viewBox="0 0 24 24" fill="none" xmlns="http://www.w3.org/2000/svg">
<path fill-rule="evenodd" clip-rule="evenodd" d="M22.1085 10.816L13.5896 2.29717C13.3915 2.09906 13.1934 2 12.8962 2H2.99057C2.39623 2 2 2.39623 2 2.99057V12.8962C2 13.1934 2.09906 13.3915 2.29717 13.5896L10.816 22.1085C11.4104 22.7028 12.1038 23 12.8962 23C13.6887 23 14.4811 22.7028 14.9764 22.1085L22.1085 14.9764C23.2972 13.7877 23.2972 12.0047 22.1085 10.816ZM20.7217 13.5896L13.5896 20.7217C13.1934 21.1179 12.5991 21.1179 12.2028 20.7217L3.98113 12.5V3.98113H12.5L20.7217 12.2028C21.1179 12.5991 21.1179 13.1934 20.7217 13.5896ZM8.93396 7.9434C8.93396 7.64623 8.83491 7.44811 8.63679 7.25C8.53774 7.15094 8.43868 7.05189 8.33962 7.05189C7.9434 6.85377 7.54717 6.95283 7.25 7.25C7.05189 7.44811 6.95283 7.64623 6.95283 7.9434C6.95283 8.04245 6.95283 8.24057 7.05189 8.33962C7.05189 8.43868 7.15094 8.53773 7.25 8.63679L7.25 8.63679C7.44811 8.83491 7.64623 8.93396 7.9434 8.93396C8.24057 8.93396 8.43868 8.83491 8.63679 8.63679C8.83491 8.43868 8.93396 8.24057 8.93396 7.9434Z" fill="black"/>
<mask id="mask0" mask-type="alpha" maskUnits="userSpaceOnUse" x="2" y="2" width="21" height="21">
<path fill-rule="evenodd" clip-rule="evenodd" d="M22.1085 10.816L13.5896 2.29717C13.3915 2.09906 13.1934 2 12.8962 2H2.99057C2.39623 2 2 2.39623 2 2.99057V12.8962C2 13.1934 2.09906 13.3915 2.29717 13.5896L10.816 22.1085C11.4104 22.7028 12.1038 23 12.8962 23C13.6887 23 14.4811 22.7028 14.9764 22.1085L22.1085 14.9764C23.2972 13.7877 23.2972 12.0047 22.1085 10.816ZM20.7217 13.5896L13.5896 20.7217C13.1934 21.1179 12.5991 21.1179 12.2028 20.7217L3.98113 12.5V3.98113H12.5L20.7217 12.2028C21.1179 12.5991 21.1179 13.1934 20.7217 13.5896ZM8.93396 7.9434C8.93396 7.64623 8.83491 7.44811 8.63679 7.25C8.53774 7.15094 8.43868 7.05189 8.33962 7.05189C7.9434 6.85377 7.54717 6.95283 7.25 7.25C7.05189 7.44811 6.95283 7.64623 6.95283 7.9434C6.95283 8.04245 6.95283 8.24057 7.05189 8.33962C7.05189 8.43868 7.15094 8.53773 7.25 8.63679L7.25 8.63679C7.44811 8.83491 7.64623 8.93396 7.9434 8.93396C8.24057 8.93396 8.43868 8.83491 8.63679 8.63679C8.83491 8.43868 8.93396 8.24057 8.93396 7.9434Z" fill="white"/>
</mask>
<g mask="url(#mask0)">
<rect width="24" height="24" fill="#347AF0"/>
</g>
</svg>
