<svg width="24" height="24" viewBox="0 0 24 24" fill="none" xmlns="http://www.w3.org/2000/svg">
<path fill-rule="evenodd" clip-rule="evenodd" d="M1 12C1 5.9 5.9 1 12 1C18.1 1 23 5.9 23 12C23 18.1 18.1 23 12 23C5.9 23 1 18.1 1 12ZM3 12C3 17 7 21 12 21C17 21 21 17 21 12C21 7 17 3 12 3C7 3 3 7 3 12ZM12 5C8.1 5 5 8.1 5 12C5 15.9 8.1 19 12 19C15.9 19 19 15.9 19 12C19 8.1 15.9 5 12 5ZM7 12C7 14.8 9.2 17 12 17C14.8 17 17 14.8 17 12C17 9.2 14.8 7 12 7C9.2 7 7 9.2 7 12ZM12 9C10.3 9 9 10.3 9 12C9 13.7 10.3 15 12 15C13.7 15 15 13.7 15 12C15 10.3 13.7 9 12 9ZM11 12C11 12.6 11.4 13 12 13C12.6 13 13 12.6 13 12C13 11.4 12.6 11 12 11C11.4 11 11 11.4 11 12Z" fill="black"/>
<mask id="mask0" mask-type="alpha" maskUnits="userSpaceOnUse" x="1" y="1" width="22" height="22">
<path fill-rule="evenodd" clip-rule="evenodd" d="M1 12C1 5.9 5.9 1 12 1C18.1 1 23 5.9 23 12C23 18.1 18.1 23 12 23C5.9 23 1 18.1 1 12ZM3 12C3 17 7 21 12 21C17 21 21 17 21 12C21 7 17 3 12 3C7 3 3 7 3 12ZM12 5C8.1 5 5 8.1 5 12C5 15.9 8.1 19 12 19C15.9 19 19 15.9 19 12C19 8.1 15.9 5 12 5ZM7 12C7 14.8 9.2 17 12 17C14.8 17 17 14.8 17 12C17 9.2 14.8 7 12 7C9.2 7 7 9.2 7 12ZM12 9C10.3 9 9 10.3 9 12C9 13.7 10.3 15 12 15C13.7 15 15 13.7 15 12C15 10.3 13.7 9 12 9ZM11 12C11 12.6 11.4 13 12 13C12.6 13 13 12.6 13 12C13 11.4 12.6 11 12 11C11.4 11 11 11.4 11 12Z" fill="white"/>
</mask>
<g mask="url(#mask0)">
<rect width="24" height="24" fill="#347AF0"/>
</g>
</svg>
