<svg width="24" height="24" viewBox="0 0 24 24" fill="none" xmlns="http://www.w3.org/2000/svg">
<path fill-rule="evenodd" clip-rule="evenodd" d="M4.7 17.7L10.7 11.7C11.1 11.3 11.1 10.7 10.7 10.3L4.7 4.3C4.3 3.9 3.7 3.9 3.3 4.3C2.9 4.7 2.9 5.3 3.3 5.7L8.6 11L3.3 16.3C2.9 16.7 2.9 17.3 3.3 17.7C3.5 17.9 3.7 18 4 18C4.3 18 4.5 17.9 4.7 17.7ZM12 18H20C20.6 18 21 18.4 21 19C21 19.6 20.6 20 20 20H12C11.4 20 11 19.6 11 19C11 18.4 11.4 18 12 18Z" fill="black"/>
<mask id="mask0" mask-type="alpha" maskUnits="userSpaceOnUse" x="3" y="4" width="18" height="16">
<path fill-rule="evenodd" clip-rule="evenodd" d="M4.7 17.7L10.7 11.7C11.1 11.3 11.1 10.7 10.7 10.3L4.7 4.3C4.3 3.9 3.7 3.9 3.3 4.3C2.9 4.7 2.9 5.3 3.3 5.7L8.6 11L3.3 16.3C2.9 16.7 2.9 17.3 3.3 17.7C3.5 17.9 3.7 18 4 18C4.3 18 4.5 17.9 4.7 17.7ZM12 18H20C20.6 18 21 18.4 21 19C21 19.6 20.6 20 20 20H12C11.4 20 11 19.6 11 19C11 18.4 11.4 18 12 18Z" fill="white"/>
</mask>
<g mask="url(#mask0)">
<rect width="24" height="24" fill="#347AF0"/>
</g>
</svg>
