<svg width="24" height="24" viewBox="0 0 24 24" fill="none" xmlns="http://www.w3.org/2000/svg">
<path fill-rule="evenodd" clip-rule="evenodd" d="M16.2866 14.4904C16.5784 14.7653 16.8562 15.027 17.0787 15.4C18.7688 18 18.0729 21.4 15.488 23.1C14.5933 23.7 13.4997 24 12.5055 24C10.716 24 9.02585 23.1 7.93224 21.6C6.34155 19.2 6.83864 16.1 9.02585 14.3V3.5C9.02585 1.6 10.6165 0 12.5055 0C14.3944 0 15.9851 1.6 15.9851 3.5V14.2C16.0861 14.3016 16.1872 14.3968 16.2866 14.4904ZM9.52294 20.4C10.6165 22 12.8037 22.5 14.3944 21.4C15.9851 20.3 16.4822 18.2 15.3886 16.6C15.0904 16.2 14.7921 15.9 14.3944 15.6C14.1956 15.4 13.9968 15.1 13.9968 14.8V3.5C13.9968 2.7 13.3008 2 12.5055 2C11.7101 2 11.0142 2.7 10.9148 3.5V14.7C10.9148 15 10.8154 15.3 10.5171 15.5C8.92643 16.6 8.42934 18.8 9.52294 20.4Z" fill="black"/>
<mask id="mask0" mask-type="alpha" maskUnits="userSpaceOnUse" x="7" y="0" width="11" height="24">
<path fill-rule="evenodd" clip-rule="evenodd" d="M16.2866 14.4904C16.5784 14.7653 16.8562 15.027 17.0787 15.4C18.7688 18 18.0729 21.4 15.488 23.1C14.5933 23.7 13.4997 24 12.5055 24C10.716 24 9.02585 23.1 7.93224 21.6C6.34155 19.2 6.83864 16.1 9.02585 14.3V3.5C9.02585 1.6 10.6165 0 12.5055 0C14.3944 0 15.9851 1.6 15.9851 3.5V14.2C16.0861 14.3016 16.1872 14.3968 16.2866 14.4904ZM9.52294 20.4C10.6165 22 12.8037 22.5 14.3944 21.4C15.9851 20.3 16.4822 18.2 15.3886 16.6C15.0904 16.2 14.7921 15.9 14.3944 15.6C14.1956 15.4 13.9968 15.1 13.9968 14.8V3.5C13.9968 2.7 13.3008 2 12.5055 2C11.7101 2 11.0142 2.7 10.9148 3.5V14.7C10.9148 15 10.8154 15.3 10.5171 15.5C8.92643 16.6 8.42934 18.8 9.52294 20.4Z" fill="white"/>
</mask>
<g mask="url(#mask0)">
<rect width="24" height="24" fill="#347AF0"/>
</g>
</svg>
