<svg width="24" height="24" viewBox="0 0 24 24" fill="none" xmlns="http://www.w3.org/2000/svg">
<path fill-rule="evenodd" clip-rule="evenodd" d="M22.3671 9.2C21.8608 8.6 21.1519 8.1 20.3418 8H19.8354H15.1772V5C15.1772 2.8 13.3544 1 11.1266 1C10.7215 1 10.3165 1.2 10.2152 1.6L6.46835 10H4.03797C2.31646 10 1 11.3 1 13V20C1 21.7 2.31646 23 4.03797 23H18.519C20.038 23 21.2532 21.9 21.557 20.5L22.9747 11.5C23.0759 10.7 22.8734 9.9 22.3671 9.2ZM6.06329 21H4.03797C3.43038 21 3.02532 20.6 3.02532 20V13C3.02532 12.4 3.43038 12 4.03797 12H6.06329V21ZM18.519 21C19.0253 21 19.4304 20.7 19.5316 20.2L21.0506 11.1C21.0506 10.9 21.0506 10.6 20.8481 10.4C20.6456 10.2 20.443 10 20.1392 10H19.9367H14.1646C13.557 10 13.1519 9.6 13.1519 9V5C13.1519 4.1 12.5443 3.4 11.7342 3.1L8.08861 11.2V21H18.519Z" fill="black"/>
<mask id="mask0" mask-type="alpha" maskUnits="userSpaceOnUse" x="1" y="1" width="22" height="22">
<path fill-rule="evenodd" clip-rule="evenodd" d="M22.3671 9.2C21.8608 8.6 21.1519 8.1 20.3418 8H19.8354H15.1772V5C15.1772 2.8 13.3544 1 11.1266 1C10.7215 1 10.3165 1.2 10.2152 1.6L6.46835 10H4.03797C2.31646 10 1 11.3 1 13V20C1 21.7 2.31646 23 4.03797 23H18.519C20.038 23 21.2532 21.9 21.557 20.5L22.9747 11.5C23.0759 10.7 22.8734 9.9 22.3671 9.2ZM6.06329 21H4.03797C3.43038 21 3.02532 20.6 3.02532 20V13C3.02532 12.4 3.43038 12 4.03797 12H6.06329V21ZM18.519 21C19.0253 21 19.4304 20.7 19.5316 20.2L21.0506 11.1C21.0506 10.9 21.0506 10.6 20.8481 10.4C20.6456 10.2 20.443 10 20.1392 10H19.9367H14.1646C13.557 10 13.1519 9.6 13.1519 9V5C13.1519 4.1 12.5443 3.4 11.7342 3.1L8.08861 11.2V21H18.519Z" fill="white"/>
</mask>
<g mask="url(#mask0)">
<rect width="24" height="24" fill="#347AF0"/>
</g>
</svg>
