<svg width="24" height="24" viewBox="0 0 24 24" fill="none" xmlns="http://www.w3.org/2000/svg">
<path fill-rule="evenodd" clip-rule="evenodd" d="M23 3.91324C22.7975 2.20548 21.3796 1 19.658 1H19.5567H5.47977C3.96067 1 2.74539 2.10502 2.44158 3.51142L1.02375 12.5525C0.821207 14.1598 1.93521 15.7671 3.55558 15.968H4.06194H8.82178V18.9817C8.82178 21.1918 10.6447 23 12.8727 23C13.2778 23 13.6829 22.7991 13.7842 22.3973L17.5313 13.9589H19.5567C21.2784 13.9589 22.6962 12.7534 22.8987 11.0457V10.9452V4.0137C23 4.0137 23 3.91324 23 3.91324ZM15.9109 12.8539L12.2651 20.9909C11.4549 20.6895 10.8472 19.9863 10.8472 19.0822V15.0639C10.8472 14.4612 10.4421 14.0594 9.83451 14.0594H4.06194H3.8594C3.35303 13.9589 2.94794 13.4566 3.04921 12.9543L4.46704 3.91324C4.56831 3.41096 4.9734 3.00913 5.47977 3.00913H15.9109V12.8539ZM19.658 12.0502C20.2656 12.0502 20.8733 11.5479 20.9745 10.9452V4.11416C20.8733 3.51142 20.2656 3.00913 19.658 3.00913H17.9363V12.0502H19.658Z" fill="black"/>
<mask id="mask0" mask-type="alpha" maskUnits="userSpaceOnUse" x="1" y="1" width="22" height="22">
<path fill-rule="evenodd" clip-rule="evenodd" d="M23 3.91324C22.7975 2.20548 21.3796 1 19.658 1H19.5567H5.47977C3.96067 1 2.74539 2.10502 2.44158 3.51142L1.02375 12.5525C0.821207 14.1598 1.93521 15.7671 3.55558 15.968H4.06194H8.82178V18.9817C8.82178 21.1918 10.6447 23 12.8727 23C13.2778 23 13.6829 22.7991 13.7842 22.3973L17.5313 13.9589H19.5567C21.2784 13.9589 22.6962 12.7534 22.8987 11.0457V10.9452V4.0137C23 4.0137 23 3.91324 23 3.91324ZM15.9109 12.8539L12.2651 20.9909C11.4549 20.6895 10.8472 19.9863 10.8472 19.0822V15.0639C10.8472 14.4612 10.4421 14.0594 9.83451 14.0594H4.06194H3.8594C3.35303 13.9589 2.94794 13.4566 3.04921 12.9543L4.46704 3.91324C4.56831 3.41096 4.9734 3.00913 5.47977 3.00913H15.9109V12.8539ZM19.658 12.0502C20.2656 12.0502 20.8733 11.5479 20.9745 10.9452V4.11416C20.8733 3.51142 20.2656 3.00913 19.658 3.00913H17.9363V12.0502H19.658Z" fill="white"/>
</mask>
<g mask="url(#mask0)">
<rect width="24" height="24" fill="#347AF0"/>
</g>
</svg>
