<svg width="24" height="24" viewBox="0 0 24 24" fill="none" xmlns="http://www.w3.org/2000/svg">
<path fill-rule="evenodd" clip-rule="evenodd" d="M8 4H16C20.4 4 24 7.6 24 12C24 16.4 20.4 20 16 20H8C3.6 20 0 16.4 0 12C0 7.6 3.6 4 8 4ZM16 18C19.3 18 22 15.3 22 12C22 8.7 19.3 6 16 6H8C4.7 6 2 8.7 2 12C2 15.3 4.7 18 8 18H16ZM8 8C5.8 8 4 9.8 4 12C4 14.2 5.8 16 8 16C10.2 16 12 14.2 12 12C12 9.8 10.2 8 8 8ZM6 12C6 13.1 6.9 14 8 14C9.1 14 10 13.1 10 12C10 10.9 9.1 10 8 10C6.9 10 6 10.9 6 12Z" fill="black"/>
<mask id="mask0" mask-type="alpha" maskUnits="userSpaceOnUse" x="0" y="4" width="24" height="16">
<path fill-rule="evenodd" clip-rule="evenodd" d="M8 4H16C20.4 4 24 7.6 24 12C24 16.4 20.4 20 16 20H8C3.6 20 0 16.4 0 12C0 7.6 3.6 4 8 4ZM16 18C19.3 18 22 15.3 22 12C22 8.7 19.3 6 16 6H8C4.7 6 2 8.7 2 12C2 15.3 4.7 18 8 18H16ZM8 8C5.8 8 4 9.8 4 12C4 14.2 5.8 16 8 16C10.2 16 12 14.2 12 12C12 9.8 10.2 8 8 8ZM6 12C6 13.1 6.9 14 8 14C9.1 14 10 13.1 10 12C10 10.9 9.1 10 8 10C6.9 10 6 10.9 6 12Z" fill="white"/>
</mask>
<g mask="url(#mask0)">
<rect width="24" height="24" fill="#347AF0"/>
</g>
</svg>
