<svg width="24" height="24" viewBox="0 0 24 24" fill="none" xmlns="http://www.w3.org/2000/svg">
<path fill-rule="evenodd" clip-rule="evenodd" d="M21 5H17V4C17 2.3 15.7 1 14 1H10C8.3 1 7 2.3 7 4V5H3C2.4 5 2 5.4 2 6C2 6.6 2.4 7 3 7H4V20C4 21.7 5.3 23 7 23H17C18.7 23 20 21.7 20 20V7H21C21.6 7 22 6.6 22 6C22 5.4 21.6 5 21 5ZM9 4C9 3.4 9.4 3 10 3H14C14.6 3 15 3.4 15 4V5H9V4ZM17 21C17.6 21 18 20.6 18 20V7H6V20C6 20.6 6.4 21 7 21H17ZM11 11V17C11 17.6 10.6 18 10 18C9.4 18 9 17.6 9 17V11C9 10.4 9.4 10 10 10C10.6 10 11 10.4 11 11ZM15 17V11C15 10.4 14.6 10 14 10C13.4 10 13 10.4 13 11V17C13 17.6 13.4 18 14 18C14.6 18 15 17.6 15 17Z" fill="black"/>
<mask id="mask0" mask-type="alpha" maskUnits="userSpaceOnUse" x="2" y="1" width="20" height="22">
<path fill-rule="evenodd" clip-rule="evenodd" d="M21 5H17V4C17 2.3 15.7 1 14 1H10C8.3 1 7 2.3 7 4V5H3C2.4 5 2 5.4 2 6C2 6.6 2.4 7 3 7H4V20C4 21.7 5.3 23 7 23H17C18.7 23 20 21.7 20 20V7H21C21.6 7 22 6.6 22 6C22 5.4 21.6 5 21 5ZM9 4C9 3.4 9.4 3 10 3H14C14.6 3 15 3.4 15 4V5H9V4ZM17 21C17.6 21 18 20.6 18 20V7H6V20C6 20.6 6.4 21 7 21H17ZM11 11V17C11 17.6 10.6 18 10 18C9.4 18 9 17.6 9 17V11C9 10.4 9.4 10 10 10C10.6 10 11 10.4 11 11ZM15 17V11C15 10.4 14.6 10 14 10C13.4 10 13 10.4 13 11V17C13 17.6 13.4 18 14 18C14.6 18 15 17.6 15 17Z" fill="white"/>
</mask>
<g mask="url(#mask0)">
<rect width="24" height="24" fill="#347AF0"/>
</g>
</svg>
