<svg width="24" height="24" viewBox="0 0 24 24" fill="none" xmlns="http://www.w3.org/2000/svg">
<path d="M24 18C24 18.1 24 18.3 23.9 18.4C23.8 18.6 23.6 18.8 23.4 18.9C23.3 19 23.1 19 23 19H17C16.4 19 16 18.6 16 18C16 17.4 16.4 17 17 17H20.6L13.5 9.9L9.2 14.2C8.8 14.6 8.2 14.6 7.8 14.2L0.3 6.7C-0.1 6.3 -0.1 5.7 0.3 5.3C0.7 4.9 1.3 4.9 1.7 5.3L8.5 12.1L12.8 7.8C13.2 7.4 13.8 7.4 14.2 7.8L22 15.6V12C22 11.4 22.4 11 23 11C23.6 11 24 11.4 24 12V18Z" fill="black"/>
<mask id="mask0" mask-type="alpha" maskUnits="userSpaceOnUse" x="0" y="5" width="24" height="14">
<path d="M24 18C24 18.1 24 18.3 23.9 18.4C23.8 18.6 23.6 18.8 23.4 18.9C23.3 19 23.1 19 23 19H17C16.4 19 16 18.6 16 18C16 17.4 16.4 17 17 17H20.6L13.5 9.9L9.2 14.2C8.8 14.6 8.2 14.6 7.8 14.2L0.3 6.7C-0.1 6.3 -0.1 5.7 0.3 5.3C0.7 4.9 1.3 4.9 1.7 5.3L8.5 12.1L12.8 7.8C13.2 7.4 13.8 7.4 14.2 7.8L22 15.6V12C22 11.4 22.4 11 23 11C23.6 11 24 11.4 24 12V18Z" fill="white"/>
</mask>
<g mask="url(#mask0)">
<rect width="24" height="24" fill="#347AF0"/>
</g>
</svg>
