<svg width="24" height="24" viewBox="0 0 24 24" fill="none" xmlns="http://www.w3.org/2000/svg">
<path d="M24 6V12C24 12.6 23.6 13 23 13C22.4 13 22 12.6 22 12V8.4L14.2 16.2C13.8 16.6 13.2 16.6 12.8 16.2L8.5 11.9L1.7 18.7C1.5 18.9 1.3 19 1 19C0.7 19 0.5 18.9 0.3 18.7C-0.1 18.3 -0.1 17.7 0.3 17.3L7.8 9.8C8.2 9.4 8.8 9.4 9.2 9.8L13.5 14.1L20.6 7H17C16.4 7 16 6.6 16 6C16 5.4 16.4 5 17 5H23C23.1 5 23.3 5 23.4 5.1C23.6 5.2 23.8 5.4 23.9 5.6C24 5.7 24 5.9 24 6Z" fill="black"/>
<mask id="mask0" mask-type="alpha" maskUnits="userSpaceOnUse" x="0" y="5" width="24" height="14">
<path d="M24 6V12C24 12.6 23.6 13 23 13C22.4 13 22 12.6 22 12V8.4L14.2 16.2C13.8 16.6 13.2 16.6 12.8 16.2L8.5 11.9L1.7 18.7C1.5 18.9 1.3 19 1 19C0.7 19 0.5 18.9 0.3 18.7C-0.1 18.3 -0.1 17.7 0.3 17.3L7.8 9.8C8.2 9.4 8.8 9.4 9.2 9.8L13.5 14.1L20.6 7H17C16.4 7 16 6.6 16 6C16 5.4 16.4 5 17 5H23C23.1 5 23.3 5 23.4 5.1C23.6 5.2 23.8 5.4 23.9 5.6C24 5.7 24 5.9 24 6Z" fill="white"/>
</mask>
<g mask="url(#mask0)">
<rect width="24" height="24" fill="#347AF0"/>
</g>
</svg>
