<svg width="24" height="24" viewBox="0 0 24 24" fill="none" xmlns="http://www.w3.org/2000/svg">
<path fill-rule="evenodd" clip-rule="evenodd" d="M14.6651 3.48515L23.4756 17.5446C23.7663 17.9105 23.878 18.4455 23.976 18.9152C23.9841 18.9539 23.992 18.9921 24 19.0297C24 19.8218 23.6853 20.5149 23.056 21.1089C22.5316 21.703 21.6925 22 20.8534 22H3.02263C2.49819 22 1.97376 21.901 1.55421 21.604C0.0857959 20.8119 -0.438638 18.9307 0.400457 17.5446L9.21095 3.38614C9.42073 2.9901 9.84027 2.59406 10.2598 2.39604C10.994 2 11.8331 1.90099 12.6722 2.09901C13.5113 2.29703 14.2455 2.79208 14.6651 3.48515ZM20.8534 20.0198C21.0632 20.0198 21.3778 19.9208 21.5876 19.7228C21.6104 19.6798 21.6381 19.6368 21.6664 19.5929C21.7687 19.4342 21.8795 19.2623 21.7974 19.0297C21.7974 18.8317 21.7974 18.6337 21.6925 18.5347L12.7771 4.57426C12.4624 4.17822 11.8331 3.9802 11.3087 4.27723C11.2388 4.27723 11.1688 4.36524 11.0989 4.45325C11.064 4.49725 11.029 4.54125 10.994 4.57426L2.07865 18.5347C1.86887 19.0297 1.97376 19.6238 2.49819 19.9208C2.70797 20.0198 2.81285 20.0198 3.02263 20.0198H20.8534Z" fill="black"/>
<mask id="mask0" mask-type="alpha" maskUnits="userSpaceOnUse" x="0" y="2" width="24" height="20">
<path fill-rule="evenodd" clip-rule="evenodd" d="M14.6651 3.48515L23.4756 17.5446C23.7663 17.9105 23.878 18.4455 23.976 18.9152C23.9841 18.9539 23.992 18.9921 24 19.0297C24 19.8218 23.6853 20.5149 23.056 21.1089C22.5316 21.703 21.6925 22 20.8534 22H3.02263C2.49819 22 1.97376 21.901 1.55421 21.604C0.0857959 20.8119 -0.438638 18.9307 0.400457 17.5446L9.21095 3.38614C9.42073 2.9901 9.84027 2.59406 10.2598 2.39604C10.994 2 11.8331 1.90099 12.6722 2.09901C13.5113 2.29703 14.2455 2.79208 14.6651 3.48515ZM20.8534 20.0198C21.0632 20.0198 21.3778 19.9208 21.5876 19.7228C21.6104 19.6798 21.6381 19.6368 21.6664 19.5929C21.7687 19.4342 21.8795 19.2623 21.7974 19.0297C21.7974 18.8317 21.7974 18.6337 21.6925 18.5347L12.7771 4.57426C12.4624 4.17822 11.8331 3.9802 11.3087 4.27723C11.2388 4.27723 11.1688 4.36524 11.0989 4.45325C11.064 4.49725 11.029 4.54125 10.994 4.57426L2.07865 18.5347C1.86887 19.0297 1.97376 19.6238 2.49819 19.9208C2.70797 20.0198 2.81285 20.0198 3.02263 20.0198H20.8534Z" fill="white"/>
</mask>
<g mask="url(#mask0)">
<rect width="24" height="24" fill="#347AF0"/>
</g>
</svg>
