<svg width="24" height="24" viewBox="0 0 24 24" fill="none" xmlns="http://www.w3.org/2000/svg">
<path fill-rule="evenodd" clip-rule="evenodd" d="M23.7 10.3L20.7 7.3C20.5 7.1 20.3 7 20 7H17V3C17 2.4 16.6 2 16 2H1C0.4 2 0 2.4 0 3V16C0 16.6 0.4 17 1 17H2.4C2.1 17.5 2 18 2 18.5C2 20.4 3.6 22 5.5 22C7.4 22 9 20.4 9 18.5C9 18 8.9 17.5 8.6 17H15.3C15.1 17.5 14.9 18 14.9 18.5C14.9 20.4 16.5 22 18.4 22C20.3 22 21.9 20.4 21.9 18.5C21.9 18 21.8 17.5 21.5 17H23C23.6 17 24 16.6 24 16V11C24 10.7 23.9 10.5 23.7 10.3ZM2 4H15V8V15H2V4ZM5.5 20C6.3 20 7 19.3 7 18.5C7 17.7 6.3 17 5.5 17C4.7 17 4 17.7 4 18.5C4 19.3 4.7 20 5.5 20ZM20 18.5C20 19.3 19.3 20 18.5 20C17.7 20 17 19.3 17 18.5C17 17.7 17.7 17 18.5 17C19.3 17 20 17.7 20 18.5ZM17 15H22V11.4L19.6 9H17V15Z" fill="black"/>
<mask id="mask0" mask-type="alpha" maskUnits="userSpaceOnUse" x="0" y="2" width="24" height="20">
<path fill-rule="evenodd" clip-rule="evenodd" d="M23.7 10.3L20.7 7.3C20.5 7.1 20.3 7 20 7H17V3C17 2.4 16.6 2 16 2H1C0.4 2 0 2.4 0 3V16C0 16.6 0.4 17 1 17H2.4C2.1 17.5 2 18 2 18.5C2 20.4 3.6 22 5.5 22C7.4 22 9 20.4 9 18.5C9 18 8.9 17.5 8.6 17H15.3C15.1 17.5 14.9 18 14.9 18.5C14.9 20.4 16.5 22 18.4 22C20.3 22 21.9 20.4 21.9 18.5C21.9 18 21.8 17.5 21.5 17H23C23.6 17 24 16.6 24 16V11C24 10.7 23.9 10.5 23.7 10.3ZM2 4H15V8V15H2V4ZM5.5 20C6.3 20 7 19.3 7 18.5C7 17.7 6.3 17 5.5 17C4.7 17 4 17.7 4 18.5C4 19.3 4.7 20 5.5 20ZM20 18.5C20 19.3 19.3 20 18.5 20C17.7 20 17 19.3 17 18.5C17 17.7 17.7 17 18.5 17C19.3 17 20 17.7 20 18.5ZM17 15H22V11.4L19.6 9H17V15Z" fill="white"/>
</mask>
<g mask="url(#mask0)">
<rect width="24" height="24" fill="#347AF0"/>
</g>
</svg>
