<svg width="24" height="24" viewBox="0 0 24 24" fill="none" xmlns="http://www.w3.org/2000/svg">
<path fill-rule="evenodd" clip-rule="evenodd" d="M22.4773 2.18881C22.7766 1.98768 23.2755 1.98768 23.5749 2.18881C23.8743 2.38994 24.0738 2.7922 23.974 3.19446C23.6747 4.60236 22.9762 5.9097 21.9783 7.0159V7.51873C21.9783 13.0498 19.5835 17.6757 15.2927 20.0893C13.0974 21.3966 10.7025 22 8.20787 22C5.71323 22 3.01901 21.296 0.524358 19.8881C0.125215 19.687 -0.0743571 19.1842 0.0254288 18.7819C0.125215 18.3797 0.624144 18.078 1.02329 18.078C2.71965 18.078 4.41601 17.7763 5.9128 17.0723C2.22072 14.7594 1.22286 11.5413 1.12307 9.02719C1.02329 6.11082 2.02115 3.69728 2.12093 3.59671C2.22072 3.29502 2.52008 2.99333 2.91922 2.99333C3.31836 2.99333 3.61772 3.09389 3.81729 3.39559C5.51365 5.80913 8.10809 7.3176 11.0019 7.51873C11.0019 5.9097 11.7004 4.40123 12.9976 3.39559C15.0931 1.48486 18.1865 1.58543 20.1822 3.39559C20.9805 3.09389 21.7788 2.69163 22.4773 2.18881ZM19.8828 6.91534C19.8828 6.61365 19.9826 6.21139 20.1822 6.01026C20.282 5.85941 20.3817 5.73371 20.4815 5.608C20.5813 5.4823 20.6811 5.35659 20.7809 5.20574C20.6811 5.25603 20.5564 5.28117 20.4316 5.30631C20.3069 5.33145 20.1822 5.35659 20.0824 5.40687C19.783 5.50744 19.3839 5.40687 19.0845 5.10518C17.8871 3.69728 15.592 3.49615 14.195 4.80349C13.3967 5.50744 12.9976 6.51308 12.9976 7.51873V8.52437C12.9976 9.02719 12.4987 9.53001 11.9997 9.53001C8.7068 9.63058 5.61344 8.32324 3.41815 6.11082C2.81943 8.62493 2.61986 13.5526 8.40744 16.1673C8.7068 16.2678 9.00616 16.5695 9.00616 16.9718C9.00616 17.374 8.90637 17.6757 8.50723 17.8769C7.40958 18.6814 6.21215 19.1842 4.91494 19.5865C8.20787 20.391 11.5008 19.9887 14.2948 18.3797C17.8871 16.2678 19.9826 12.3458 19.9826 7.51873C19.9826 7.3176 19.9826 7.11647 19.8828 6.91534Z" fill="black"/>
<mask id="mask0" mask-type="alpha" maskUnits="userSpaceOnUse" x="0" y="2" width="24" height="20">
<path fill-rule="evenodd" clip-rule="evenodd" d="M22.4773 2.18881C22.7766 1.98768 23.2755 1.98768 23.5749 2.18881C23.8743 2.38994 24.0738 2.7922 23.974 3.19446C23.6747 4.60236 22.9762 5.9097 21.9783 7.0159V7.51873C21.9783 13.0498 19.5835 17.6757 15.2927 20.0893C13.0974 21.3966 10.7025 22 8.20787 22C5.71323 22 3.01901 21.296 0.524358 19.8881C0.125215 19.687 -0.0743571 19.1842 0.0254288 18.7819C0.125215 18.3797 0.624144 18.078 1.02329 18.078C2.71965 18.078 4.41601 17.7763 5.9128 17.0723C2.22072 14.7594 1.22286 11.5413 1.12307 9.02719C1.02329 6.11082 2.02115 3.69728 2.12093 3.59671C2.22072 3.29502 2.52008 2.99333 2.91922 2.99333C3.31836 2.99333 3.61772 3.09389 3.81729 3.39559C5.51365 5.80913 8.10809 7.3176 11.0019 7.51873C11.0019 5.9097 11.7004 4.40123 12.9976 3.39559C15.0931 1.48486 18.1865 1.58543 20.1822 3.39559C20.9805 3.09389 21.7788 2.69163 22.4773 2.18881ZM19.8828 6.91534C19.8828 6.61365 19.9826 6.21139 20.1822 6.01026C20.282 5.85941 20.3817 5.73371 20.4815 5.608C20.5813 5.4823 20.6811 5.35659 20.7809 5.20574C20.6811 5.25603 20.5564 5.28117 20.4316 5.30631C20.3069 5.33145 20.1822 5.35659 20.0824 5.40687C19.783 5.50744 19.3839 5.40687 19.0845 5.10518C17.8871 3.69728 15.592 3.49615 14.195 4.80349C13.3967 5.50744 12.9976 6.51308 12.9976 7.51873V8.52437C12.9976 9.02719 12.4987 9.53001 11.9997 9.53001C8.7068 9.63058 5.61344 8.32324 3.41815 6.11082C2.81943 8.62493 2.61986 13.5526 8.40744 16.1673C8.7068 16.2678 9.00616 16.5695 9.00616 16.9718C9.00616 17.374 8.90637 17.6757 8.50723 17.8769C7.40958 18.6814 6.21215 19.1842 4.91494 19.5865C8.20787 20.391 11.5008 19.9887 14.2948 18.3797C17.8871 16.2678 19.9826 12.3458 19.9826 7.51873C19.9826 7.3176 19.9826 7.11647 19.8828 6.91534Z" fill="white"/>
</mask>
<g mask="url(#mask0)">
<rect width="24" height="24" fill="#347AF0"/>
</g>
</svg>
