<svg width="24" height="24" viewBox="0 0 24 24" fill="none" xmlns="http://www.w3.org/2000/svg">
<path d="M21 4V7C21 7.6 20.6 8 20 8C19.4 8 19 7.6 19 7V5H13V19H15C15.6 19 16 19.4 16 20C16 20.6 15.6 21 15 21H9C8.4 21 8 20.6 8 20C8 19.4 8.4 19 9 19H11V5H5V7C5 7.6 4.6 8 4 8C3.4 8 3 7.6 3 7V4C3 3.4 3.4 3 4 3H20C20.6 3 21 3.4 21 4Z" fill="black"/>
<mask id="mask0" mask-type="alpha" maskUnits="userSpaceOnUse" x="3" y="3" width="18" height="18">
<path d="M21 4V7C21 7.6 20.6 8 20 8C19.4 8 19 7.6 19 7V5H13V19H15C15.6 19 16 19.4 16 20C16 20.6 15.6 21 15 21H9C8.4 21 8 20.6 8 20C8 19.4 8.4 19 9 19H11V5H5V7C5 7.6 4.6 8 4 8C3.4 8 3 7.6 3 7V4C3 3.4 3.4 3 4 3H20C20.6 3 21 3.4 21 4Z" fill="white"/>
</mask>
<g mask="url(#mask0)">
<rect width="24" height="24" fill="#347AF0"/>
</g>
</svg>
