<svg width="24" height="24" viewBox="0 0 24 24" fill="none" xmlns="http://www.w3.org/2000/svg">
<path fill-rule="evenodd" clip-rule="evenodd" d="M0 11.8831C0.6 6.17446 5.1 1.56747 10.9 1.06671C17.5 0.365647 23.4 5.27309 24 11.8831C24 12.1836 23.9 12.484 23.7 12.6843C23.6 12.8846 23.3 12.9848 23 12.9848H13V18.9939C13 20.0956 13.9 20.997 15 20.997C16.1 20.997 17 20.0956 17 18.9939C17 18.393 17.4 17.9924 18 17.9924C18.6 17.9924 19 18.393 19 18.9939C19 21.1973 17.2 23 15 23C12.8 23 11 21.1973 11 18.9939V12.9848H1C0.7 12.9848 0.4 12.8846 0.3 12.6843C0.1 12.484 0 12.1836 0 11.8831ZM2.2 10.9818H12H21.8C20.8 5.97416 16.1 2.46884 11 2.9696C6.6 3.47036 3 6.67522 2.2 10.9818Z" fill="black"/>
<mask id="mask0" mask-type="alpha" maskUnits="userSpaceOnUse" x="0" y="1" width="24" height="22">
<path fill-rule="evenodd" clip-rule="evenodd" d="M0 11.8831C0.6 6.17446 5.1 1.56747 10.9 1.06671C17.5 0.365647 23.4 5.27309 24 11.8831C24 12.1836 23.9 12.484 23.7 12.6843C23.6 12.8846 23.3 12.9848 23 12.9848H13V18.9939C13 20.0956 13.9 20.997 15 20.997C16.1 20.997 17 20.0956 17 18.9939C17 18.393 17.4 17.9924 18 17.9924C18.6 17.9924 19 18.393 19 18.9939C19 21.1973 17.2 23 15 23C12.8 23 11 21.1973 11 18.9939V12.9848H1C0.7 12.9848 0.4 12.8846 0.3 12.6843C0.1 12.484 0 12.1836 0 11.8831ZM2.2 10.9818H12H21.8C20.8 5.97416 16.1 2.46884 11 2.9696C6.6 3.47036 3 6.67522 2.2 10.9818Z" fill="white"/>
</mask>
<g mask="url(#mask0)">
<rect width="24" height="24" fill="#347AF0"/>
</g>
</svg>
