<svg width="24" height="24" viewBox="0 0 24 24" fill="none" xmlns="http://www.w3.org/2000/svg">
<path fill-rule="evenodd" clip-rule="evenodd" d="M5 3V10C5 13.9 8.1 17 12 17C15.9 17 19 13.9 19 10V3C19 2.4 18.6 2 18 2C17.4 2 17 2.4 17 3V10C17 12.8 14.8 15 12 15C9.2 15 7 12.8 7 10V3C7 2.4 6.6 2 6 2C5.4 2 5 2.4 5 3ZM3 21C3 20.4 3.4 20 4 20H20C20.6 20 21 20.4 21 21C21 21.6 20.6 22 20 22H4C3.4 22 3 21.6 3 21Z" fill="black"/>
<mask id="mask0" mask-type="alpha" maskUnits="userSpaceOnUse" x="3" y="2" width="18" height="20">
<path fill-rule="evenodd" clip-rule="evenodd" d="M5 3V10C5 13.9 8.1 17 12 17C15.9 17 19 13.9 19 10V3C19 2.4 18.6 2 18 2C17.4 2 17 2.4 17 3V10C17 12.8 14.8 15 12 15C9.2 15 7 12.8 7 10V3C7 2.4 6.6 2 6 2C5.4 2 5 2.4 5 3ZM3 21C3 20.4 3.4 20 4 20H20C20.6 20 21 20.4 21 21C21 21.6 20.6 22 20 22H4C3.4 22 3 21.6 3 21Z" fill="white"/>
</mask>
<g mask="url(#mask0)">
<rect width="24" height="24" fill="#347AF0"/>
</g>
</svg>
