<svg width="24" height="24" viewBox="0 0 24 24" fill="none" xmlns="http://www.w3.org/2000/svg">
<path fill-rule="evenodd" clip-rule="evenodd" d="M20.909 19.2855C22.3032 18.4812 23.2991 17.1742 23.797 15.6661C24.1953 14.1581 23.9961 12.4489 23.2991 11.1419C22.2036 9.23173 20.212 8.02528 18.0211 8.02528H17.4236C15.9298 3.70217 11.2494 1.0882 6.76812 2.29465C4.47769 2.89787 2.58559 4.3054 1.291 6.41668C-0.00358941 8.52797 -0.302341 10.9409 0.295162 13.2532C0.693498 14.6608 1.39059 15.8672 2.28684 16.9731C2.68518 17.3753 3.28268 17.4758 3.68102 17.0737C4.07935 16.6715 4.17894 16.0683 3.7806 15.6661C3.08351 14.8618 2.58559 13.8565 2.28684 12.7505C1.78892 10.8403 2.08767 9.03066 3.08351 7.32152C3.97977 5.71292 5.47353 4.60701 7.26604 4.20486C10.9506 3.19948 14.7348 5.51185 15.7307 9.23173C15.8303 9.63388 16.2286 9.9355 16.7265 9.9355H18.0211C19.5149 9.9355 20.8095 10.7398 21.5065 12.0468C22.0045 12.9516 22.1041 14.0575 21.8053 15.0629C21.5065 16.0683 20.8095 16.9731 19.9132 17.4758C19.4153 17.7774 19.2161 18.3806 19.5149 18.8833C19.714 19.1849 20.0128 19.386 20.4111 19.386C20.6103 19.386 20.7099 19.386 20.909 19.2855ZM12.4444 11.0414C12.544 11.0414 12.6436 11.1419 12.7432 11.2425L16.7265 15.264C17.1249 15.6661 17.1249 16.2694 16.7265 16.6715C16.5274 16.8726 16.2286 16.9731 16.0294 16.9731C15.8303 16.9731 15.5315 16.8726 15.3323 16.6715L13.0419 14.3591V20.9946C13.0419 21.5979 12.6436 22 12.0461 22C11.4486 22 11.0502 21.5979 11.0502 20.9946V14.3591L8.7598 16.6715C8.36146 17.0737 7.76396 17.0737 7.36562 16.6715C6.96729 16.2694 6.96729 15.6661 7.36562 15.264L11.349 11.2425C11.3988 11.1922 11.4486 11.1671 11.4984 11.1419C11.5482 11.1168 11.5979 11.0917 11.6477 11.0414C11.9465 10.9409 12.2452 10.9409 12.4444 11.0414Z" fill="black"/>
<mask id="mask0" mask-type="alpha" maskUnits="userSpaceOnUse" x="0" y="2" width="24" height="20">
<path fill-rule="evenodd" clip-rule="evenodd" d="M20.909 19.2855C22.3032 18.4812 23.2991 17.1742 23.797 15.6661C24.1953 14.1581 23.9961 12.4489 23.2991 11.1419C22.2036 9.23173 20.212 8.02528 18.0211 8.02528H17.4236C15.9298 3.70217 11.2494 1.0882 6.76812 2.29465C4.47769 2.89787 2.58559 4.3054 1.291 6.41668C-0.00358941 8.52797 -0.302341 10.9409 0.295162 13.2532C0.693498 14.6608 1.39059 15.8672 2.28684 16.9731C2.68518 17.3753 3.28268 17.4758 3.68102 17.0737C4.07935 16.6715 4.17894 16.0683 3.7806 15.6661C3.08351 14.8618 2.58559 13.8565 2.28684 12.7505C1.78892 10.8403 2.08767 9.03066 3.08351 7.32152C3.97977 5.71292 5.47353 4.60701 7.26604 4.20486C10.9506 3.19948 14.7348 5.51185 15.7307 9.23173C15.8303 9.63388 16.2286 9.9355 16.7265 9.9355H18.0211C19.5149 9.9355 20.8095 10.7398 21.5065 12.0468C22.0045 12.9516 22.1041 14.0575 21.8053 15.0629C21.5065 16.0683 20.8095 16.9731 19.9132 17.4758C19.4153 17.7774 19.2161 18.3806 19.5149 18.8833C19.714 19.1849 20.0128 19.386 20.4111 19.386C20.6103 19.386 20.7099 19.386 20.909 19.2855ZM12.4444 11.0414C12.544 11.0414 12.6436 11.1419 12.7432 11.2425L16.7265 15.264C17.1249 15.6661 17.1249 16.2694 16.7265 16.6715C16.5274 16.8726 16.2286 16.9731 16.0294 16.9731C15.8303 16.9731 15.5315 16.8726 15.3323 16.6715L13.0419 14.3591V20.9946C13.0419 21.5979 12.6436 22 12.0461 22C11.4486 22 11.0502 21.5979 11.0502 20.9946V14.3591L8.7598 16.6715C8.36146 17.0737 7.76396 17.0737 7.36562 16.6715C6.96729 16.2694 6.96729 15.6661 7.36562 15.264L11.349 11.2425C11.3988 11.1922 11.4486 11.1671 11.4984 11.1419C11.5482 11.1168 11.5979 11.0917 11.6477 11.0414C11.9465 10.9409 12.2452 10.9409 12.4444 11.0414Z" fill="white"/>
</mask>
<g mask="url(#mask0)">
<rect width="24" height="24" fill="#347AF0"/>
</g>
</svg>
