<svg width="24" height="24" viewBox="0 0 24 24" fill="none" xmlns="http://www.w3.org/2000/svg">
<path fill-rule="evenodd" clip-rule="evenodd" d="M11 4.37884L8.7 6.68146C8.3 7.08191 7.7 7.08191 7.3 6.68146C6.9 6.281 6.9 5.68032 7.3 5.27986L11.3 1.27531C11.35 1.22526 11.4 1.20023 11.45 1.1752C11.5 1.15017 11.55 1.12514 11.6 1.07509C11.9 0.974972 12.2 0.974972 12.4 1.07509C12.5 1.07509 12.6 1.1752 12.7 1.27531L16.7 5.27986C17.1 5.68032 17.1 6.281 16.7 6.68146C16.5 6.88168 16.3 6.9818 16 6.9818C15.7 6.9818 15.5 6.88168 15.3 6.68146L13 4.37884V15.992C13 16.5927 12.6 16.9932 12 16.9932C11.4 16.9932 11 16.5927 11 15.992V4.37884ZM22 19.9966V16.9932C22 16.3925 21.6 15.992 21 15.992C20.4 15.992 20 16.3925 20 16.9932V19.9966C20 20.5973 19.6 20.9977 19 20.9977H5C4.4 20.9977 4 20.5973 4 19.9966V16.9932C4 16.3925 3.6 15.992 3 15.992C2.4 15.992 2 16.3925 2 16.9932V19.9966C2 21.6985 3.3 23 5 23H19C20.7 23 22 21.6985 22 19.9966Z" fill="black"/>
<mask id="mask0" mask-type="alpha" maskUnits="userSpaceOnUse" x="2" y="1" width="20" height="22">
<path fill-rule="evenodd" clip-rule="evenodd" d="M11 4.37884L8.7 6.68146C8.3 7.08191 7.7 7.08191 7.3 6.68146C6.9 6.281 6.9 5.68032 7.3 5.27986L11.3 1.27531C11.35 1.22526 11.4 1.20023 11.45 1.1752C11.5 1.15017 11.55 1.12514 11.6 1.07509C11.9 0.974972 12.2 0.974972 12.4 1.07509C12.5 1.07509 12.6 1.1752 12.7 1.27531L16.7 5.27986C17.1 5.68032 17.1 6.281 16.7 6.68146C16.5 6.88168 16.3 6.9818 16 6.9818C15.7 6.9818 15.5 6.88168 15.3 6.68146L13 4.37884V15.992C13 16.5927 12.6 16.9932 12 16.9932C11.4 16.9932 11 16.5927 11 15.992V4.37884ZM22 19.9966V16.9932C22 16.3925 21.6 15.992 21 15.992C20.4 15.992 20 16.3925 20 16.9932V19.9966C20 20.5973 19.6 20.9977 19 20.9977H5C4.4 20.9977 4 20.5973 4 19.9966V16.9932C4 16.3925 3.6 15.992 3 15.992C2.4 15.992 2 16.3925 2 16.9932V19.9966C2 21.6985 3.3 23 5 23H19C20.7 23 22 21.6985 22 19.9966Z" fill="white"/>
</mask>
<g mask="url(#mask0)">
<rect width="24" height="24" fill="#347AF0"/>
</g>
</svg>
