<svg width="24" height="24" viewBox="0 0 24 24" fill="none" xmlns="http://www.w3.org/2000/svg">
<path fill-rule="evenodd" clip-rule="evenodd" d="M8.5 2C5.7 2 3.5 4.2 3.5 7C3.5 9.8 5.7 12 8.5 12C11.3 12 13.5 9.8 13.5 7C13.5 4.2 11.3 2 8.5 2ZM17 21V19C17 16.2 14.8 14 12 14H5C2.2 14 0 16.2 0 19V21C0 21.6 0.4 22 1 22C1.6 22 2 21.6 2 21V19C2 17.3 3.3 16 5 16H12C13.7 16 15 17.3 15 19V21C15 21.6 15.4 22 16 22C16.6 22 17 21.6 17 21ZM5.5 7C5.5 8.7 6.8 10 8.5 10C10.2 10 11.5 8.7 11.5 7C11.5 5.3 10.2 4 8.5 4C6.8 4 5.5 5.3 5.5 7ZM21 10H23C23.6 10 24 10.4 24 11C24 11.6 23.6 12 23 12H21V14C21 14.6 20.6 15 20 15C19.4 15 19 14.6 19 14V12H17C16.4 12 16 11.6 16 11C16 10.4 16.4 10 17 10H19V8C19 7.4 19.4 7 20 7C20.6 7 21 7.4 21 8V10Z" fill="black"/>
<mask id="mask0" mask-type="alpha" maskUnits="userSpaceOnUse" x="0" y="2" width="24" height="20">
<path fill-rule="evenodd" clip-rule="evenodd" d="M8.5 2C5.7 2 3.5 4.2 3.5 7C3.5 9.8 5.7 12 8.5 12C11.3 12 13.5 9.8 13.5 7C13.5 4.2 11.3 2 8.5 2ZM17 21V19C17 16.2 14.8 14 12 14H5C2.2 14 0 16.2 0 19V21C0 21.6 0.4 22 1 22C1.6 22 2 21.6 2 21V19C2 17.3 3.3 16 5 16H12C13.7 16 15 17.3 15 19V21C15 21.6 15.4 22 16 22C16.6 22 17 21.6 17 21ZM5.5 7C5.5 8.7 6.8 10 8.5 10C10.2 10 11.5 8.7 11.5 7C11.5 5.3 10.2 4 8.5 4C6.8 4 5.5 5.3 5.5 7ZM21 10H23C23.6 10 24 10.4 24 11C24 11.6 23.6 12 23 12H21V14C21 14.6 20.6 15 20 15C19.4 15 19 14.6 19 14V12H17C16.4 12 16 11.6 16 11C16 10.4 16.4 10 17 10H19V8C19 7.4 19.4 7 20 7C20.6 7 21 7.4 21 8V10Z" fill="white"/>
</mask>
<g mask="url(#mask0)">
<rect width="24" height="24" fill="#347AF0"/>
</g>
</svg>
