<svg width="24" height="24" viewBox="0 0 24 24" fill="none" xmlns="http://www.w3.org/2000/svg">
<path fill-rule="evenodd" clip-rule="evenodd" d="M8.5 2C5.7 2 3.5 4.2 3.5 7C3.5 9.8 5.7 12 8.5 12C11.3 12 13.5 9.8 13.5 7C13.5 4.2 11.3 2 8.5 2ZM17 21V19C17 16.2 14.8 14 12 14H5C2.2 14 0 16.2 0 19V21C0 21.6 0.4 22 1 22C1.6 22 2 21.6 2 21V19C2 17.3 3.3 16 5 16H12C13.7 16 15 17.3 15 19V21C15 21.6 15.4 22 16 22C16.6 22 17 21.6 17 21ZM5.5 7C5.5 8.7 6.8 10 8.5 10C10.2 10 11.5 8.7 11.5 7C11.5 5.3 10.2 4 8.5 4C6.8 4 5.5 5.3 5.5 7ZM23.7 8.7L21.9 10.5L23.7 12.3C24.1 12.7 24.1 13.3 23.7 13.7C23.5 13.9 23.2 14 23 14C22.8 14 22.5 13.9 22.3 13.7L20.5 11.9L18.7 13.7C18.5 13.9 18.2 14 18 14C17.8 14 17.5 13.9 17.3 13.7C16.9 13.3 16.9 12.7 17.3 12.3L19.1 10.5L17.3 8.7C16.9 8.3 16.9 7.7 17.3 7.3C17.7 6.9 18.3 6.9 18.7 7.3L20.5 9.1L22.3 7.3C22.7 6.9 23.3 6.9 23.7 7.3C24.1 7.7 24.1 8.3 23.7 8.7Z" fill="black"/>
<mask id="mask0" mask-type="alpha" maskUnits="userSpaceOnUse" x="0" y="2" width="24" height="20">
<path fill-rule="evenodd" clip-rule="evenodd" d="M8.5 2C5.7 2 3.5 4.2 3.5 7C3.5 9.8 5.7 12 8.5 12C11.3 12 13.5 9.8 13.5 7C13.5 4.2 11.3 2 8.5 2ZM17 21V19C17 16.2 14.8 14 12 14H5C2.2 14 0 16.2 0 19V21C0 21.6 0.4 22 1 22C1.6 22 2 21.6 2 21V19C2 17.3 3.3 16 5 16H12C13.7 16 15 17.3 15 19V21C15 21.6 15.4 22 16 22C16.6 22 17 21.6 17 21ZM5.5 7C5.5 8.7 6.8 10 8.5 10C10.2 10 11.5 8.7 11.5 7C11.5 5.3 10.2 4 8.5 4C6.8 4 5.5 5.3 5.5 7ZM23.7 8.7L21.9 10.5L23.7 12.3C24.1 12.7 24.1 13.3 23.7 13.7C23.5 13.9 23.2 14 23 14C22.8 14 22.5 13.9 22.3 13.7L20.5 11.9L18.7 13.7C18.5 13.9 18.2 14 18 14C17.8 14 17.5 13.9 17.3 13.7C16.9 13.3 16.9 12.7 17.3 12.3L19.1 10.5L17.3 8.7C16.9 8.3 16.9 7.7 17.3 7.3C17.7 6.9 18.3 6.9 18.7 7.3L20.5 9.1L22.3 7.3C22.7 6.9 23.3 6.9 23.7 7.3C24.1 7.7 24.1 8.3 23.7 8.7Z" fill="white"/>
</mask>
<g mask="url(#mask0)">
<rect width="24" height="24" fill="#347AF0"/>
</g>
</svg>
