<svg width="24" height="24" viewBox="0 0 24 24" fill="none" xmlns="http://www.w3.org/2000/svg">
<path fill-rule="evenodd" clip-rule="evenodd" d="M8.5 2C5.7 2 3.5 4.2 3.5 7C3.5 9.8 5.7 12 8.5 12C11.3 12 13.5 9.8 13.5 7C13.5 4.2 11.3 2 8.5 2ZM17 21V19C17 16.2 14.8 14 12 14H5C2.2 14 0 16.2 0 19V21C0 21.6 0.4 22 1 22C1.6 22 2 21.6 2 21V19C2 17.3 3.3 16 5 16H12C13.7 16 15 17.3 15 19V21C15 21.6 15.4 22 16 22C16.6 22 17 21.6 17 21ZM5.5 7C5.5 8.7 6.8 10 8.5 10C10.2 10 11.5 8.7 11.5 7C11.5 5.3 10.2 4 8.5 4C6.8 4 5.5 5.3 5.5 7ZM22.3 8.3C22.7 7.9 23.3 7.9 23.7 8.3C24.1 8.7 24.1 9.3 23.7 9.7L19.7 13.7C19.5 13.9 19.2 14 19 14C18.8 14 18.5 13.9 18.3 13.7L16.3 11.7C15.9 11.3 15.9 10.7 16.3 10.3C16.7 9.9 17.3 9.9 17.7 10.3L19 11.6L22.3 8.3Z" fill="black"/>
<mask id="mask0" mask-type="alpha" maskUnits="userSpaceOnUse" x="0" y="2" width="24" height="20">
<path fill-rule="evenodd" clip-rule="evenodd" d="M8.5 2C5.7 2 3.5 4.2 3.5 7C3.5 9.8 5.7 12 8.5 12C11.3 12 13.5 9.8 13.5 7C13.5 4.2 11.3 2 8.5 2ZM17 21V19C17 16.2 14.8 14 12 14H5C2.2 14 0 16.2 0 19V21C0 21.6 0.4 22 1 22C1.6 22 2 21.6 2 21V19C2 17.3 3.3 16 5 16H12C13.7 16 15 17.3 15 19V21C15 21.6 15.4 22 16 22C16.6 22 17 21.6 17 21ZM5.5 7C5.5 8.7 6.8 10 8.5 10C10.2 10 11.5 8.7 11.5 7C11.5 5.3 10.2 4 8.5 4C6.8 4 5.5 5.3 5.5 7ZM22.3 8.3C22.7 7.9 23.3 7.9 23.7 8.3C24.1 8.7 24.1 9.3 23.7 9.7L19.7 13.7C19.5 13.9 19.2 14 19 14C18.8 14 18.5 13.9 18.3 13.7L16.3 11.7C15.9 11.3 15.9 10.7 16.3 10.3C16.7 9.9 17.3 9.9 17.7 10.3L19 11.6L22.3 8.3Z" fill="white"/>
</mask>
<g mask="url(#mask0)">
<rect width="24" height="24" fill="#347AF0"/>
</g>
</svg>
