<svg width="24" height="24" viewBox="0 0 24 24" fill="none" xmlns="http://www.w3.org/2000/svg">
<path fill-rule="evenodd" clip-rule="evenodd" d="M23.5 6.1C23.2 5.9 22.8 6 22.5 6.2L17 10.1V7C17 5.3 15.7 4 14 4H3C1.3 4 0 5.3 0 7V17C0 18.7 1.3 20 3 20H14C15.7 20 17 18.7 17 17V13.9L22.4 17.8C22.6 17.9 22.8 18 23 18C23.2 18 23.3 18 23.5 17.9C23.8 17.7 24 17.4 24 17V7C24 6.6 23.8 6.3 23.5 6.1ZM15 17C15 17.6 14.6 18 14 18H3C2.4 18 2 17.6 2 17V7C2 6.4 2.4 6 3 6H14C14.6 6 15 6.4 15 7V17ZM17.7 12L22 15.1V8.9L17.7 12Z" fill="black"/>
<mask id="mask0" mask-type="alpha" maskUnits="userSpaceOnUse" x="0" y="4" width="24" height="16">
<path fill-rule="evenodd" clip-rule="evenodd" d="M23.5 6.1C23.2 5.9 22.8 6 22.5 6.2L17 10.1V7C17 5.3 15.7 4 14 4H3C1.3 4 0 5.3 0 7V17C0 18.7 1.3 20 3 20H14C15.7 20 17 18.7 17 17V13.9L22.4 17.8C22.6 17.9 22.8 18 23 18C23.2 18 23.3 18 23.5 17.9C23.8 17.7 24 17.4 24 17V7C24 6.6 23.8 6.3 23.5 6.1ZM15 17C15 17.6 14.6 18 14 18H3C2.4 18 2 17.6 2 17V7C2 6.4 2.4 6 3 6H14C14.6 6 15 6.4 15 7V17ZM17.7 12L22 15.1V8.9L17.7 12Z" fill="white"/>
</mask>
<g mask="url(#mask0)">
<rect width="24" height="24" fill="#347AF0"/>
</g>
</svg>
