<svg width="24" height="24" viewBox="0 0 24 24" fill="none" xmlns="http://www.w3.org/2000/svg">
<path fill-rule="evenodd" clip-rule="evenodd" d="M18.5 7C15.5 7 13 9.5 13 12.5C13 13.8 13.5 15 14.3 16H9.7C10.5 15 11 13.8 11 12.5C11 9.5 8.5 7 5.5 7C2.5 7 0 9.5 0 12.5C0 15.5 2.5 18 5.5 18H18.5C21.5 18 24 15.5 24 12.5C24 9.5 21.5 7 18.5 7ZM2 12.5C2 10.6 3.6 9 5.5 9C7.4 9 9 10.6 9 12.5C9 14.4 7.4 16 5.5 16C3.6 16 2 14.4 2 12.5ZM15 12.5C15 14.4 16.6 16 18.5 16C20.4 16 22 14.4 22 12.5C22 10.6 20.4 9 18.5 9C16.6 9 15 10.6 15 12.5Z" fill="black"/>
<mask id="mask0" mask-type="alpha" maskUnits="userSpaceOnUse" x="0" y="7" width="24" height="11">
<path fill-rule="evenodd" clip-rule="evenodd" d="M18.5 7C15.5 7 13 9.5 13 12.5C13 13.8 13.5 15 14.3 16H9.7C10.5 15 11 13.8 11 12.5C11 9.5 8.5 7 5.5 7C2.5 7 0 9.5 0 12.5C0 15.5 2.5 18 5.5 18H18.5C21.5 18 24 15.5 24 12.5C24 9.5 21.5 7 18.5 7ZM2 12.5C2 10.6 3.6 9 5.5 9C7.4 9 9 10.6 9 12.5C9 14.4 7.4 16 5.5 16C3.6 16 2 14.4 2 12.5ZM15 12.5C15 14.4 16.6 16 18.5 16C20.4 16 22 14.4 22 12.5C22 10.6 20.4 9 18.5 9C16.6 9 15 10.6 15 12.5Z" fill="white"/>
</mask>
<g mask="url(#mask0)">
<rect width="24" height="24" fill="#347AF0"/>
</g>
</svg>
