<svg width="24" height="24" viewBox="0 0 24 24" fill="none" xmlns="http://www.w3.org/2000/svg">
<path fill-rule="evenodd" clip-rule="evenodd" d="M14.4 4.10896C14.1 3.90907 13.6 4.00901 13.3 4.2089L8.6 8.00676H5C4.4 8.00676 4 8.40653 4 9.0062V15.0028C4 15.6025 4.4 16.0023 5 16.0023H8.6L13.3 19.8001C13.5 19.9001 13.7 20 13.9 20C14 20 14.2 20 14.3 19.9001C14.6 19.7002 14.9 19.4003 14.9 19.0006V5.00845C15 4.60867 14.8 4.30884 14.4 4.10896ZM13 16.9017L9.6 14.2033C9.4 14.1033 9.2 14.0034 9 14.0034H6V10.0056H9C9.2 10.0056 9.4 9.90569 9.6 9.80575L13 7.10727V16.9017ZM18.5 16.502C18.7 16.502 19 16.402 19.2 16.2021C21.6 13.9034 21.6 10.1056 19.2 7.70693C18.8 7.30715 18.2 7.30715 17.8 7.70693C17.4 8.1067 17.4 8.70636 17.8 9.10614C19.4 10.7052 19.4 13.2038 17.8 14.8029C17.4 15.2027 17.4 15.8024 17.8 16.2021C18 16.402 18.3 16.502 18.5 16.502Z" fill="black"/>
<mask id="mask0" mask-type="alpha" maskUnits="userSpaceOnUse" x="4" y="4" width="17" height="16">
<path fill-rule="evenodd" clip-rule="evenodd" d="M14.4 4.10896C14.1 3.90907 13.6 4.00901 13.3 4.2089L8.6 8.00676H5C4.4 8.00676 4 8.40653 4 9.0062V15.0028C4 15.6025 4.4 16.0023 5 16.0023H8.6L13.3 19.8001C13.5 19.9001 13.7 20 13.9 20C14 20 14.2 20 14.3 19.9001C14.6 19.7002 14.9 19.4003 14.9 19.0006V5.00845C15 4.60867 14.8 4.30884 14.4 4.10896ZM13 16.9017L9.6 14.2033C9.4 14.1033 9.2 14.0034 9 14.0034H6V10.0056H9C9.2 10.0056 9.4 9.90569 9.6 9.80575L13 7.10727V16.9017ZM18.5 16.502C18.7 16.502 19 16.402 19.2 16.2021C21.6 13.9034 21.6 10.1056 19.2 7.70693C18.8 7.30715 18.2 7.30715 17.8 7.70693C17.4 8.1067 17.4 8.70636 17.8 9.10614C19.4 10.7052 19.4 13.2038 17.8 14.8029C17.4 15.2027 17.4 15.8024 17.8 16.2021C18 16.402 18.3 16.502 18.5 16.502Z" fill="white"/>
</mask>
<g mask="url(#mask0)">
<rect width="24" height="24" fill="#347AF0"/>
</g>
</svg>
