<svg width="24" height="24" viewBox="0 0 24 24" fill="none" xmlns="http://www.w3.org/2000/svg">
<path fill-rule="evenodd" clip-rule="evenodd" d="M10.2894 4.2076C10.5891 4.00896 11.0885 3.90963 11.3882 4.10828C11.7877 4.30693 11.9875 4.6049 11.8876 5.00219V18.9074C11.8876 19.3047 11.588 19.6027 11.2883 19.8014C11.1884 19.9007 10.9886 19.9007 10.8888 19.9007C10.689 19.9007 10.4892 19.8014 10.2894 19.702L5.59478 15.9277H1.99886C1.39955 15.9277 1 15.5305 1 14.9345V8.97512C1 8.37918 1.39955 7.98189 1.99886 7.98189H5.59478L10.2894 4.2076ZM6.59364 14.1399L9.98978 16.8217V7.08798L6.59364 9.7697C6.39387 9.86903 6.1941 9.96835 5.99432 9.96835H2.99773V13.9413H5.99432C6.1941 13.9413 6.39387 14.0406 6.59364 14.1399ZM16.1827 7.78324C18.4801 10.0677 18.4801 13.842 16.1827 16.2257C15.983 16.4244 15.6833 16.5237 15.4835 16.5237C15.2838 16.5237 14.9841 16.4244 14.7843 16.2257C14.3848 15.8284 14.3848 15.2325 14.7843 14.8352C16.3825 13.246 16.3825 10.7629 14.7843 9.17377C14.3848 8.77647 14.3848 8.18053 14.7843 7.78324C15.1839 7.38595 15.8831 7.38595 16.1827 7.78324ZM19.0795 20C19.2792 20 19.5789 19.9007 19.7787 19.702C24.0738 15.4311 24.0738 8.4785 19.7787 4.30693C19.3791 3.90963 18.7798 3.90963 18.3802 4.30693C17.9807 4.70422 17.9807 5.30016 18.3802 5.69745C21.8763 9.17377 21.8763 14.8352 18.3802 18.3115C17.9807 18.7088 17.9807 19.3047 18.3802 19.702C18.58 19.9007 18.8797 20 19.0795 20Z" fill="black"/>
<mask id="mask0" mask-type="alpha" maskUnits="userSpaceOnUse" x="1" y="4" width="22" height="16">
<path fill-rule="evenodd" clip-rule="evenodd" d="M10.2894 4.2076C10.5891 4.00896 11.0885 3.90963 11.3882 4.10828C11.7877 4.30693 11.9875 4.6049 11.8876 5.00219V18.9074C11.8876 19.3047 11.588 19.6027 11.2883 19.8014C11.1884 19.9007 10.9886 19.9007 10.8888 19.9007C10.689 19.9007 10.4892 19.8014 10.2894 19.702L5.59478 15.9277H1.99886C1.39955 15.9277 1 15.5305 1 14.9345V8.97512C1 8.37918 1.39955 7.98189 1.99886 7.98189H5.59478L10.2894 4.2076ZM6.59364 14.1399L9.98978 16.8217V7.08798L6.59364 9.7697C6.39387 9.86903 6.1941 9.96835 5.99432 9.96835H2.99773V13.9413H5.99432C6.1941 13.9413 6.39387 14.0406 6.59364 14.1399ZM16.1827 7.78324C18.4801 10.0677 18.4801 13.842 16.1827 16.2257C15.983 16.4244 15.6833 16.5237 15.4835 16.5237C15.2838 16.5237 14.9841 16.4244 14.7843 16.2257C14.3848 15.8284 14.3848 15.2325 14.7843 14.8352C16.3825 13.246 16.3825 10.7629 14.7843 9.17377C14.3848 8.77647 14.3848 8.18053 14.7843 7.78324C15.1839 7.38595 15.8831 7.38595 16.1827 7.78324ZM19.0795 20C19.2792 20 19.5789 19.9007 19.7787 19.702C24.0738 15.4311 24.0738 8.4785 19.7787 4.30693C19.3791 3.90963 18.7798 3.90963 18.3802 4.30693C17.9807 4.70422 17.9807 5.30016 18.3802 5.69745C21.8763 9.17377 21.8763 14.8352 18.3802 18.3115C17.9807 18.7088 17.9807 19.3047 18.3802 19.702C18.58 19.9007 18.8797 20 19.0795 20Z" fill="white"/>
</mask>
<g mask="url(#mask0)">
<rect width="24" height="24" fill="#347AF0"/>
</g>
</svg>
