<svg width="24" height="24" viewBox="0 0 24 24" fill="none" xmlns="http://www.w3.org/2000/svg">
<path fill-rule="evenodd" clip-rule="evenodd" d="M15.5122 4.2089C15.7868 4.00901 16.2444 3.90907 16.519 4.10896C16.8851 4.30884 17.0682 4.60867 16.9767 5.00845V19.0006C16.9767 19.4003 16.7021 19.7002 16.4275 19.9001C16.336 20 16.1529 20 16.0614 20C15.8783 20 15.6953 19.9001 15.5122 19.8001L11.2103 16.0023H7.91529C7.36612 16.0023 7 15.6025 7 15.0028V9.0062C7 8.40653 7.36612 8.00676 7.91529 8.00676H11.2103L15.5122 4.2089ZM12.1256 14.2033L15.2376 16.9017V7.10727L12.1256 9.80575C11.9426 9.90569 11.7595 10.0056 11.5765 10.0056H8.83058V14.0034H11.5765C11.7595 14.0034 11.9426 14.1033 12.1256 14.2033Z" fill="black"/>
<mask id="mask0" mask-type="alpha" maskUnits="userSpaceOnUse" x="7" y="4" width="10" height="16">
<path fill-rule="evenodd" clip-rule="evenodd" d="M15.5122 4.2089C15.7868 4.00901 16.2444 3.90907 16.519 4.10896C16.8851 4.30884 17.0682 4.60867 16.9767 5.00845V19.0006C16.9767 19.4003 16.7021 19.7002 16.4275 19.9001C16.336 20 16.1529 20 16.0614 20C15.8783 20 15.6953 19.9001 15.5122 19.8001L11.2103 16.0023H7.91529C7.36612 16.0023 7 15.6025 7 15.0028V9.0062C7 8.40653 7.36612 8.00676 7.91529 8.00676H11.2103L15.5122 4.2089ZM12.1256 14.2033L15.2376 16.9017V7.10727L12.1256 9.80575C11.9426 9.90569 11.7595 10.0056 11.5765 10.0056H8.83058V14.0034H11.5765C11.7595 14.0034 11.9426 14.1033 12.1256 14.2033Z" fill="white"/>
</mask>
<g mask="url(#mask0)">
<rect width="24" height="24" fill="#347AF0"/>
</g>
</svg>
