<svg width="24" height="24" viewBox="0 0 24 24" fill="none" xmlns="http://www.w3.org/2000/svg">
<path fill-rule="evenodd" clip-rule="evenodd" d="M11.4 4.10896C11.1 3.90907 10.6 4.00901 10.3 4.2089L5.6 8.00676H2C1.4 8.00676 1 8.40653 1 9.0062V15.0028C1 15.6025 1.4 16.0023 2 16.0023H5.6L10.3 19.8001C10.5 19.9001 10.7 20 10.9 20C11 20 11.2 20 11.3 19.9001C11.6 19.7002 11.9 19.4003 11.9 19.0006V5.00845C12 4.60867 11.8 4.30884 11.4 4.10896ZM10 16.9017L6.6 14.2033C6.4 14.1033 6.2 14.0034 6 14.0034H3V10.0056H6C6.2 10.0056 6.4 9.90569 6.6 9.80575L10 7.10727V16.9017ZM23.7 15.7024C24.1 15.3026 24.1 14.703 23.7 14.3032L21.4 12.0045L23.7 9.7058C24.1 9.30603 24.1 8.70637 23.7 8.30659C23.3 7.90682 22.7 7.90682 22.3 8.30659L20 10.6053L17.7 8.30659C17.3 7.90682 16.7 7.90682 16.3 8.30659C15.9 8.70637 15.9 9.30603 16.3 9.7058L18.6 12.0045L16.3 14.3032C15.9 14.703 15.9 15.3026 16.3 15.7024C16.5 15.9023 16.7 16.0023 17 16.0023C17.3 16.0023 17.5 15.9023 17.7 15.7024L20 13.4037L22.3 15.7024C22.5 15.9023 22.7 16.0023 23 16.0023C23.3 16.0023 23.5 15.9023 23.7 15.7024Z" fill="black"/>
<mask id="mask0" mask-type="alpha" maskUnits="userSpaceOnUse" x="1" y="4" width="23" height="16">
<path fill-rule="evenodd" clip-rule="evenodd" d="M11.4 4.10896C11.1 3.90907 10.6 4.00901 10.3 4.2089L5.6 8.00676H2C1.4 8.00676 1 8.40653 1 9.0062V15.0028C1 15.6025 1.4 16.0023 2 16.0023H5.6L10.3 19.8001C10.5 19.9001 10.7 20 10.9 20C11 20 11.2 20 11.3 19.9001C11.6 19.7002 11.9 19.4003 11.9 19.0006V5.00845C12 4.60867 11.8 4.30884 11.4 4.10896ZM10 16.9017L6.6 14.2033C6.4 14.1033 6.2 14.0034 6 14.0034H3V10.0056H6C6.2 10.0056 6.4 9.90569 6.6 9.80575L10 7.10727V16.9017ZM23.7 15.7024C24.1 15.3026 24.1 14.703 23.7 14.3032L21.4 12.0045L23.7 9.7058C24.1 9.30603 24.1 8.70637 23.7 8.30659C23.3 7.90682 22.7 7.90682 22.3 8.30659L20 10.6053L17.7 8.30659C17.3 7.90682 16.7 7.90682 16.3 8.30659C15.9 8.70637 15.9 9.30603 16.3 9.7058L18.6 12.0045L16.3 14.3032C15.9 14.703 15.9 15.3026 16.3 15.7024C16.5 15.9023 16.7 16.0023 17 16.0023C17.3 16.0023 17.5 15.9023 17.7 15.7024L20 13.4037L22.3 15.7024C22.5 15.9023 22.7 16.0023 23 16.0023C23.3 16.0023 23.5 15.9023 23.7 15.7024Z" fill="white"/>
</mask>
<g mask="url(#mask0)">
<rect width="24" height="24" fill="#347AF0"/>
</g>
</svg>
