<svg width="24" height="24" viewBox="0 0 24 24" fill="none" xmlns="http://www.w3.org/2000/svg">
<path fill-rule="evenodd" clip-rule="evenodd" d="M23 24C23.3 24 23.5 23.9 23.7 23.7C24.1 23.3 24.1 22.7 23.7 22.3L6.8 5.4L1.7 0.3C1.3 -0.1 0.7 -0.1 0.3 0.3C-0.1 0.7 -0.1 1.3 0.3 1.7L4.3 5.9C3 6.5 1.8 7.3 0.7 8.3C0.3 8.7 0.2 9.3 0.6 9.7C0.8 9.9 1.1 10 1.4 10C1.7 10 1.9 9.9 2.1 9.7C3.2 8.7 4.5 7.9 5.9 7.3L8.2 9.7C6.8 10.1 5.4 10.8 4.3 11.8C3.9 12.1 3.8 12.8 4.2 13.2C4.4 13.5 4.7 13.6 5 13.6C5.2 13.6 5.4 13.6 5.6 13.4C6.8 12.3 8.3 11.6 9.8 11.3L12.6 14.1C11 13.9 9.3 14.3 7.9 15.3C7.5 15.6 7.4 16.2 7.7 16.7C8 17.1 8.6 17.2 9.1 16.9C10.8 15.7 13.2 15.7 14.9 16.9C15.1 17 15.3 17.1 15.5 17.1H15.7L22.3 23.7C22.5 23.9 22.7 24 23 24ZM16.3 11.9C15.8 11.7 15.6 11.1 15.8 10.6C16.1 10.1 16.7 9.9 17.2 10.1C18.1 10.5 18.9 11.1 19.7 11.7L19.7 11.7L19.7 11.7C20.1 12 20.2 12.7 19.8 13.1C19.6 13.4 19.3 13.5 19 13.5C18.8 13.5 18.6 13.5 18.4 13.3C17.7 12.7 17 12.3 16.3 11.9ZM10.8 6C14.8 5.7 18.9 7 21.9 9.7C22.1 9.9 22.3 9.9 22.6 9.9C22.9 9.9 23.2 9.8 23.4 9.6C23.8 9.2 23.7 8.6 23.3 8.2C19.9 5.2 15.3 3.6 10.7 4C10.1 4 9.7 4.5 9.8 5.1C9.8 5.7 10.2 6.1 10.8 6ZM11.1 19.6C11.1 19.5 11.2 19.4 11.3 19.3C11.7 18.9 12.3 18.9 12.7 19.3C12.9 19.5 13 19.7 13 20C13 20.3 12.9 20.5 12.7 20.7C12.5 20.9 12.3 21 12 21C11.8828 21 11.8 20.9657 11.7314 20.9373C11.6828 20.9172 11.6414 20.9 11.6 20.9C11.5 20.9 11.4 20.8 11.3 20.7C11.1 20.5 11 20.3 11 20C11 19.8828 11.0343 19.8 11.0627 19.7314C11.0828 19.6828 11.1 19.6414 11.1 19.6Z" fill="black"/>
<mask id="mask0" mask-type="alpha" maskUnits="userSpaceOnUse" x="0" y="0" width="24" height="24">
<path fill-rule="evenodd" clip-rule="evenodd" d="M23 24C23.3 24 23.5 23.9 23.7 23.7C24.1 23.3 24.1 22.7 23.7 22.3L6.8 5.4L1.7 0.3C1.3 -0.1 0.7 -0.1 0.3 0.3C-0.1 0.7 -0.1 1.3 0.3 1.7L4.3 5.9C3 6.5 1.8 7.3 0.7 8.3C0.3 8.7 0.2 9.3 0.6 9.7C0.8 9.9 1.1 10 1.4 10C1.7 10 1.9 9.9 2.1 9.7C3.2 8.7 4.5 7.9 5.9 7.3L8.2 9.7C6.8 10.1 5.4 10.8 4.3 11.8C3.9 12.1 3.8 12.8 4.2 13.2C4.4 13.5 4.7 13.6 5 13.6C5.2 13.6 5.4 13.6 5.6 13.4C6.8 12.3 8.3 11.6 9.8 11.3L12.6 14.1C11 13.9 9.3 14.3 7.9 15.3C7.5 15.6 7.4 16.2 7.7 16.7C8 17.1 8.6 17.2 9.1 16.9C10.8 15.7 13.2 15.7 14.9 16.9C15.1 17 15.3 17.1 15.5 17.1H15.7L22.3 23.7C22.5 23.9 22.7 24 23 24ZM16.3 11.9C15.8 11.7 15.6 11.1 15.8 10.6C16.1 10.1 16.7 9.9 17.2 10.1C18.1 10.5 18.9 11.1 19.7 11.7L19.7 11.7L19.7 11.7C20.1 12 20.2 12.7 19.8 13.1C19.6 13.4 19.3 13.5 19 13.5C18.8 13.5 18.6 13.5 18.4 13.3C17.7 12.7 17 12.3 16.3 11.9ZM10.8 6C14.8 5.7 18.9 7 21.9 9.7C22.1 9.9 22.3 9.9 22.6 9.9C22.9 9.9 23.2 9.8 23.4 9.6C23.8 9.2 23.7 8.6 23.3 8.2C19.9 5.2 15.3 3.6 10.7 4C10.1 4 9.7 4.5 9.8 5.1C9.8 5.7 10.2 6.1 10.8 6ZM11.1 19.6C11.1 19.5 11.2 19.4 11.3 19.3C11.7 18.9 12.3 18.9 12.7 19.3C12.9 19.5 13 19.7 13 20C13 20.3 12.9 20.5 12.7 20.7C12.5 20.9 12.3 21 12 21C11.8828 21 11.8 20.9657 11.7314 20.9373C11.6828 20.9172 11.6414 20.9 11.6 20.9C11.5 20.9 11.4 20.8 11.3 20.7C11.1 20.5 11 20.3 11 20C11 19.8828 11.0343 19.8 11.0627 19.7314C11.0828 19.6828 11.1 19.6414 11.1 19.6Z" fill="white"/>
</mask>
<g mask="url(#mask0)">
<rect width="24" height="24" fill="#347AF0"/>
</g>
</svg>
