<svg width="24" height="24" viewBox="0 0 24 24" fill="none" xmlns="http://www.w3.org/2000/svg">
<path fill-rule="evenodd" clip-rule="evenodd" d="M0.366187 7.44706C6.97458 1.51765 16.9904 1.51765 23.5988 7.44706C24.1151 7.87059 24.1151 8.50588 23.7021 9.03529C23.289 9.45882 22.6695 9.56471 22.2565 9.14118C16.4741 3.84706 7.69737 3.84706 1.81177 9.14118C1.60526 9.24706 1.29549 9.35294 1.08898 9.35294C0.779212 9.35294 0.572699 9.24706 0.262931 8.92941C-0.150093 8.50588 -0.0468372 7.87059 0.366187 7.44706ZM20.0881 12.7412C20.5011 12.3176 20.3979 11.6824 19.9848 11.2588C15.4416 7.34118 8.72993 7.34118 4.08341 11.1529C3.67038 11.4706 3.56713 12.2118 3.98015 12.6353C4.18666 12.9529 4.49643 13.0588 4.8062 13.0588C5.01271 13.0588 5.21922 13.0588 5.42573 12.8471C9.24621 9.56471 14.822 9.56471 18.6425 12.8471C19.0555 13.2706 19.6751 13.1647 20.0881 12.7412ZM7.90388 14.9647C7.3876 15.2824 7.28434 15.9176 7.69737 16.4471C8.00714 16.9765 8.62667 17.0824 9.14295 16.6588C10.8983 15.3882 13.3765 15.3882 15.1318 16.6588L15.1318 16.6588C15.3383 16.7647 15.5448 16.8706 15.7513 16.8706C16.0611 16.8706 16.3709 16.7647 16.5774 16.4471C16.8872 15.9176 16.7839 15.2824 16.3709 14.9647C13.6862 13.1647 10.382 13.1647 7.90388 14.9647ZM11.1048 19.5176C11.1048 19.4118 11.2081 19.3059 11.3113 19.2C11.7244 18.7765 12.3439 18.7765 12.7569 19.2C12.9634 19.4118 13.0667 19.6235 13.0667 19.9412C13.0667 20.2588 12.9634 20.4706 12.7569 20.6824C12.5504 20.8941 12.3439 21 12.0341 21C11.9132 21 11.8276 20.9637 11.7567 20.9336C11.7066 20.9123 11.6639 20.8941 11.6211 20.8941C11.5178 20.8941 11.4146 20.7882 11.3113 20.6824C11.1048 20.4706 11.0016 20.2588 11.0016 19.9412C11.0016 19.8171 11.037 19.7294 11.0663 19.6567C11.0871 19.6054 11.1048 19.5615 11.1048 19.5176Z" fill="black"/>
<mask id="mask0" mask-type="alpha" maskUnits="userSpaceOnUse" x="0" y="3" width="24" height="18">
<path fill-rule="evenodd" clip-rule="evenodd" d="M0.366187 7.44706C6.97458 1.51765 16.9904 1.51765 23.5988 7.44706C24.1151 7.87059 24.1151 8.50588 23.7021 9.03529C23.289 9.45882 22.6695 9.56471 22.2565 9.14118C16.4741 3.84706 7.69737 3.84706 1.81177 9.14118C1.60526 9.24706 1.29549 9.35294 1.08898 9.35294C0.779212 9.35294 0.572699 9.24706 0.262931 8.92941C-0.150093 8.50588 -0.0468372 7.87059 0.366187 7.44706ZM20.0881 12.7412C20.5011 12.3176 20.3979 11.6824 19.9848 11.2588C15.4416 7.34118 8.72993 7.34118 4.08341 11.1529C3.67038 11.4706 3.56713 12.2118 3.98015 12.6353C4.18666 12.9529 4.49643 13.0588 4.8062 13.0588C5.01271 13.0588 5.21922 13.0588 5.42573 12.8471C9.24621 9.56471 14.822 9.56471 18.6425 12.8471C19.0555 13.2706 19.6751 13.1647 20.0881 12.7412ZM7.90388 14.9647C7.3876 15.2824 7.28434 15.9176 7.69737 16.4471C8.00714 16.9765 8.62667 17.0824 9.14295 16.6588C10.8983 15.3882 13.3765 15.3882 15.1318 16.6588L15.1318 16.6588C15.3383 16.7647 15.5448 16.8706 15.7513 16.8706C16.0611 16.8706 16.3709 16.7647 16.5774 16.4471C16.8872 15.9176 16.7839 15.2824 16.3709 14.9647C13.6862 13.1647 10.382 13.1647 7.90388 14.9647ZM11.1048 19.5176C11.1048 19.4118 11.2081 19.3059 11.3113 19.2C11.7244 18.7765 12.3439 18.7765 12.7569 19.2C12.9634 19.4118 13.0667 19.6235 13.0667 19.9412C13.0667 20.2588 12.9634 20.4706 12.7569 20.6824C12.5504 20.8941 12.3439 21 12.0341 21C11.9132 21 11.8276 20.9637 11.7567 20.9336C11.7066 20.9123 11.6639 20.8941 11.6211 20.8941C11.5178 20.8941 11.4146 20.7882 11.3113 20.6824C11.1048 20.4706 11.0016 20.2588 11.0016 19.9412C11.0016 19.8171 11.037 19.7294 11.0663 19.6567C11.0871 19.6054 11.1048 19.5615 11.1048 19.5176Z" fill="white"/>
</mask>
<g mask="url(#mask0)">
<rect width="24" height="24" fill="#347AF0"/>
</g>
</svg>
