<svg width="24" height="24" viewBox="0 0 24 24" fill="none" xmlns="http://www.w3.org/2000/svg">
<path fill-rule="evenodd" clip-rule="evenodd" d="M1 8C1 7.4 1.40045 7 2.00114 7H11.0114C11.2116 7 11.5119 6.9 11.7122 6.7C12.1126 6.3 12.1126 5.7 11.7122 5.3C11.5119 5.1 11.3117 5 11.0114 5C10.8111 5 10.5108 5.1 10.3106 5.3C9.91012 5.7 9.30944 5.7 8.90899 5.3C8.50853 4.9 8.50853 4.3 8.90899 3.9C9.40956 3.3 10.2105 3 11.0114 3C11.8123 3 12.5131 3.3 13.1138 3.9C14.3151 5.1 14.3151 7 13.1138 8.1C12.6132 8.7 11.8123 9 11.0114 9H2.00114C1.40045 9 1 8.6 1 8ZM14.0148 15H2.00114C1.40045 15 1 15.4 1 16C1 16.6 1.40045 17 2.00114 17H14.0148C14.3151 17 14.5154 17.1 14.7156 17.3C14.9158 17.5 15.0159 17.7 15.0159 18C15.0159 18.3 14.9158 18.5 14.7156 18.7C14.5154 18.9 14.3151 19 14.0148 19C13.8146 19 13.5142 18.9 13.314 18.7C12.9135 18.3 12.3129 18.3 11.9124 18.7C11.5119 19.1 11.5119 19.7 11.9124 20.1C12.5131 20.7 13.2139 21 14.0148 21C14.8157 21 15.5165 20.7 16.1172 20.1C16.7179 19.5 17.0182 18.8 17.0182 18C17.0182 17.2 16.7179 16.4 16.1172 15.9C15.6166 15.3 14.8157 15 14.0148 15ZM17.1183 7C18.4198 5.6 20.6223 5.6 22.0239 7C23.3254 8.4 23.3254 10.6 22.0239 11.9C21.3231 12.5 20.4221 12.9 19.521 12.9H2.00114C1.40045 12.9 1 12.5 1 11.9C1 11.3 1.40045 10.9 2.00114 10.9H19.521C19.9215 10.9 20.322 10.8 20.6223 10.5C21.223 9.9 21.223 9 20.6223 8.4C20.0216 7.8 19.1206 7.8 18.5199 8.4C18.1195 8.8 17.5188 8.8 17.1183 8.4C16.7179 8 16.7179 7.4 17.1183 7Z" fill="black"/>
<mask id="mask0" mask-type="alpha" maskUnits="userSpaceOnUse" x="1" y="3" width="22" height="18">
<path fill-rule="evenodd" clip-rule="evenodd" d="M1 8C1 7.4 1.40045 7 2.00114 7H11.0114C11.2116 7 11.5119 6.9 11.7122 6.7C12.1126 6.3 12.1126 5.7 11.7122 5.3C11.5119 5.1 11.3117 5 11.0114 5C10.8111 5 10.5108 5.1 10.3106 5.3C9.91012 5.7 9.30944 5.7 8.90899 5.3C8.50853 4.9 8.50853 4.3 8.90899 3.9C9.40956 3.3 10.2105 3 11.0114 3C11.8123 3 12.5131 3.3 13.1138 3.9C14.3151 5.1 14.3151 7 13.1138 8.1C12.6132 8.7 11.8123 9 11.0114 9H2.00114C1.40045 9 1 8.6 1 8ZM14.0148 15H2.00114C1.40045 15 1 15.4 1 16C1 16.6 1.40045 17 2.00114 17H14.0148C14.3151 17 14.5154 17.1 14.7156 17.3C14.9158 17.5 15.0159 17.7 15.0159 18C15.0159 18.3 14.9158 18.5 14.7156 18.7C14.5154 18.9 14.3151 19 14.0148 19C13.8146 19 13.5142 18.9 13.314 18.7C12.9135 18.3 12.3129 18.3 11.9124 18.7C11.5119 19.1 11.5119 19.7 11.9124 20.1C12.5131 20.7 13.2139 21 14.0148 21C14.8157 21 15.5165 20.7 16.1172 20.1C16.7179 19.5 17.0182 18.8 17.0182 18C17.0182 17.2 16.7179 16.4 16.1172 15.9C15.6166 15.3 14.8157 15 14.0148 15ZM17.1183 7C18.4198 5.6 20.6223 5.6 22.0239 7C23.3254 8.4 23.3254 10.6 22.0239 11.9C21.3231 12.5 20.4221 12.9 19.521 12.9H2.00114C1.40045 12.9 1 12.5 1 11.9C1 11.3 1.40045 10.9 2.00114 10.9H19.521C19.9215 10.9 20.322 10.8 20.6223 10.5C21.223 9.9 21.223 9 20.6223 8.4C20.0216 7.8 19.1206 7.8 18.5199 8.4C18.1195 8.8 17.5188 8.8 17.1183 8.4C16.7179 8 16.7179 7.4 17.1183 7Z" fill="white"/>
</mask>
<g mask="url(#mask0)">
<rect width="24" height="24" fill="#347AF0"/>
</g>
</svg>
