<svg width="24" height="24" viewBox="0 0 24 24" fill="none" xmlns="http://www.w3.org/2000/svg">
<path fill-rule="evenodd" clip-rule="evenodd" d="M12 24C18.6274 24 24 18.6274 24 12C24 5.37258 18.6274 0 12 0C5.37258 0 0 5.37258 0 12C0 18.6274 5.37258 24 12 24Z" fill="#DF5060"/>
<path fill-rule="evenodd" clip-rule="evenodd" d="M10.2761 9.33333L15.8047 14.8619C16.0651 15.1223 16.0651 15.5444 15.8047 15.8047C15.5444 16.0651 15.1223 16.0651 14.8619 15.8047L9.33333 10.2761V15.3333C9.33333 15.7015 9.03486 16 8.66667 16C8.29848 16 8 15.7015 8 15.3333V8.66667C8 8.57627 8.01799 8.49008 8.05059 8.41148C8.08288 8.33343 8.13063 8.26027 8.19385 8.19668C8.19432 8.19621 8.19479 8.19573 8.19526 8.19526C8.19573 8.19479 8.19621 8.19432 8.19668 8.19385C8.31721 8.07404 8.48329 8 8.66667 8H15.3333C15.7015 8 16 8.29848 16 8.66667C16 9.03486 15.7015 9.33333 15.3333 9.33333H10.2761Z" fill="black"/>
<mask id="mask0" mask-type="alpha" maskUnits="userSpaceOnUse" x="8" y="8" width="8" height="8">
<path fill-rule="evenodd" clip-rule="evenodd" d="M10.2761 9.33333L15.8047 14.8619C16.0651 15.1223 16.0651 15.5444 15.8047 15.8047C15.5444 16.0651 15.1223 16.0651 14.8619 15.8047L9.33333 10.2761V15.3333C9.33333 15.7015 9.03486 16 8.66667 16C8.29848 16 8 15.7015 8 15.3333V8.66667C8 8.57627 8.01799 8.49008 8.05059 8.41148C8.08288 8.33343 8.13063 8.26027 8.19385 8.19668C8.19432 8.19621 8.19479 8.19573 8.19526 8.19526C8.19573 8.19479 8.19621 8.19432 8.19668 8.19385C8.31721 8.07404 8.48329 8 8.66667 8H15.3333C15.7015 8 16 8.29848 16 8.66667C16 9.03486 15.7015 9.33333 15.3333 9.33333H10.2761Z" fill="white"/>
</mask>
<g mask="url(#mask0)">
<rect x="4" y="4" width="16" height="16" fill="white"/>
</g>
</svg>
