<svg width="24" height="24" viewBox="0 0 24 24" fill="none" xmlns="http://www.w3.org/2000/svg">
<path fill-rule="evenodd" clip-rule="evenodd" d="M19 2H5C3.3 2 2 3.3 2 5V19C2 20.7 3.3 22 5 22H19C20.7 22 22 20.7 22 19V5C22 3.3 20.7 2 19 2ZM20 19C20 19.6 19.6 20 19 20H5C4.4 20 4 19.6 4 19V5C4 4.4 4.4 4 5 4H19C19.6 4 20 4.4 20 5V19ZM13.4 12L15.7 9.7C16.1 9.3 16.1 8.7 15.7 8.3C15.3 7.9 14.7 7.9 14.3 8.3L12 10.6L9.7 8.3C9.3 7.9 8.7 7.9 8.3 8.3C7.9 8.7 7.9 9.3 8.3 9.7L10.6 12L8.3 14.3C7.9 14.7 7.9 15.3 8.3 15.7C8.5 15.9 8.7 16 9 16C9.3 16 9.5 15.9 9.7 15.7L12 13.4L14.3 15.7C14.5 15.9 14.7 16 15 16C15.3 16 15.5 15.9 15.7 15.7C16.1 15.3 16.1 14.7 15.7 14.3L13.4 12Z" fill="black"/>
<mask id="mask0" mask-type="alpha" maskUnits="userSpaceOnUse" x="2" y="2" width="20" height="20">
<path fill-rule="evenodd" clip-rule="evenodd" d="M19 2H5C3.3 2 2 3.3 2 5V19C2 20.7 3.3 22 5 22H19C20.7 22 22 20.7 22 19V5C22 3.3 20.7 2 19 2ZM20 19C20 19.6 19.6 20 19 20H5C4.4 20 4 19.6 4 19V5C4 4.4 4.4 4 5 4H19C19.6 4 20 4.4 20 5V19ZM13.4 12L15.7 9.7C16.1 9.3 16.1 8.7 15.7 8.3C15.3 7.9 14.7 7.9 14.3 8.3L12 10.6L9.7 8.3C9.3 7.9 8.7 7.9 8.3 8.3C7.9 8.7 7.9 9.3 8.3 9.7L10.6 12L8.3 14.3C7.9 14.7 7.9 15.3 8.3 15.7C8.5 15.9 8.7 16 9 16C9.3 16 9.5 15.9 9.7 15.7L12 13.4L14.3 15.7C14.5 15.9 14.7 16 15 16C15.3 16 15.5 15.9 15.7 15.7C16.1 15.3 16.1 14.7 15.7 14.3L13.4 12Z" fill="white"/>
</mask>
<g mask="url(#mask0)">
<rect width="24" height="24" fill="#347AF0"/>
</g>
</svg>
