<svg width="25" height="24" viewBox="0 0 25 24" fill="none" xmlns="http://www.w3.org/2000/svg">
<path fill-rule="evenodd" clip-rule="evenodd" d="M23.5247 6.24249L23.5107 6.17719C23.1819 4.8637 22.1757 3.82638 20.8728 3.45777C20.0862 3.26502 18.6065 3.15146 16.5285 3.07898C15.537 3.04439 14.4765 3.02219 13.4163 3.00986C13.0454 3.00555 12.701 3.00278 12.3917 3.00124C12.2057 3.00031 12.0724 3 12.0006 3C11.9286 3 11.7952 3.00034 11.609 3.00136C11.2995 3.00305 10.9549 3.00608 10.5838 3.01081C9.52285 3.02432 8.46166 3.04865 7.46934 3.08656C5.3846 3.16621 3.9016 3.29086 3.14222 3.49395C1.82547 3.86638 0.819268 4.9037 0.490504 6.21719C0.150813 8.08827 -0.00847566 9.92009 0.000590618 11.7549C-0.0110095 13.5924 0.148289 15.4382 0.47646 17.2575C0.860979 18.6256 1.8613 19.6156 3.13666 19.9645C3.9016 20.1691 5.3846 20.2938 7.46934 20.3734C8.46166 20.4114 9.52285 20.4357 10.5838 20.4492C10.9549 20.4539 11.2995 20.457 11.609 20.4586C11.7952 20.4597 11.9286 20.46 12.0006 20.46C12.0725 20.46 12.206 20.4597 12.3922 20.4586C12.7016 20.457 13.0463 20.4539 13.4174 20.4492C14.4783 20.4357 15.5395 20.4114 16.5318 20.3734C18.6166 20.2938 20.0996 20.1691 20.8589 19.966C22.1757 19.5936 23.1819 18.5563 23.5107 17.2428C23.8478 15.3853 24.0071 13.5674 24.0006 11.7464C24.0122 9.90761 23.8529 8.06183 23.5247 6.24249ZM16.4588 5.07776C18.3824 5.14486 19.7986 5.25355 20.3634 5.39146C20.9328 5.55323 21.4008 6.02902 21.563 6.63376C21.8649 8.32008 22.0114 10.0306 22.0006 11.7437C22.0067 13.4532 21.858 15.1499 21.5564 16.8226C21.4157 17.3757 20.9419 17.8642 20.3283 18.0378C19.7853 18.1829 18.3724 18.3017 16.4555 18.3749C15.4821 18.4121 14.4371 18.436 13.3919 18.4494C13.0259 18.454 12.686 18.457 12.3812 18.4587C12.1988 18.4597 12.069 18.46 12.0006 18.46C11.9321 18.46 11.8023 18.4597 11.6199 18.4587C11.3151 18.457 10.9753 18.454 10.6092 18.4494C9.56402 18.436 8.51909 18.4121 7.5457 18.3749C5.6288 18.3017 4.21588 18.1829 3.65894 18.034C3.06393 17.8711 2.59288 17.4049 2.42234 16.8061C2.1384 15.2044 1.98972 13.4817 2.00056 11.7563C1.9921 10.0325 2.14077 8.32284 2.4447 6.63747C2.58547 6.08428 3.05929 5.59581 3.67281 5.42223C4.21588 5.2771 5.6288 5.15834 7.5457 5.0851C8.51909 5.04791 9.56402 5.02396 10.6092 5.01065C10.9753 5.00599 11.3151 5.00299 11.6199 5.00133C11.8023 5.00033 11.9321 5 12.0006 5C12.0692 5 12.1992 5.0003 12.3817 5.00121C12.6867 5.00273 13.0268 5.00547 13.393 5.00973C14.4389 5.02189 15.4846 5.04378 16.4588 5.07776ZM10.2449 15.8893C9.57828 16.2684 8.75058 15.7869 8.75058 15.02V8.48C8.75058 7.71309 9.57828 7.23162 10.2449 7.61074L15.9949 10.8807C16.6691 11.2642 16.6691 12.2358 15.9949 12.6193L10.2449 15.8893ZM10.7506 10.1991L13.4777 11.75L10.7506 13.3009V10.1991Z" fill="black"/>
<mask id="mask0" mask-type="alpha" maskUnits="userSpaceOnUse" x="0" y="3" width="25" height="18">
<path fill-rule="evenodd" clip-rule="evenodd" d="M23.5247 6.24249L23.5107 6.17719C23.1819 4.8637 22.1757 3.82638 20.8728 3.45777C20.0862 3.26502 18.6065 3.15146 16.5285 3.07898C15.537 3.04439 14.4765 3.02219 13.4163 3.00986C13.0454 3.00555 12.701 3.00278 12.3917 3.00124C12.2057 3.00031 12.0724 3 12.0006 3C11.9286 3 11.7952 3.00034 11.609 3.00136C11.2995 3.00305 10.9549 3.00608 10.5838 3.01081C9.52285 3.02432 8.46166 3.04865 7.46934 3.08656C5.3846 3.16621 3.9016 3.29086 3.14222 3.49395C1.82547 3.86638 0.819268 4.9037 0.490504 6.21719C0.150813 8.08827 -0.00847566 9.92009 0.000590618 11.7549C-0.0110095 13.5924 0.148289 15.4382 0.47646 17.2575C0.860979 18.6256 1.8613 19.6156 3.13666 19.9645C3.9016 20.1691 5.3846 20.2938 7.46934 20.3734C8.46166 20.4114 9.52285 20.4357 10.5838 20.4492C10.9549 20.4539 11.2995 20.457 11.609 20.4586C11.7952 20.4597 11.9286 20.46 12.0006 20.46C12.0725 20.46 12.206 20.4597 12.3922 20.4586C12.7016 20.457 13.0463 20.4539 13.4174 20.4492C14.4783 20.4357 15.5395 20.4114 16.5318 20.3734C18.6166 20.2938 20.0996 20.1691 20.8589 19.966C22.1757 19.5936 23.1819 18.5563 23.5107 17.2428C23.8478 15.3853 24.0071 13.5674 24.0006 11.7464C24.0122 9.90761 23.8529 8.06183 23.5247 6.24249ZM16.4588 5.07776C18.3824 5.14486 19.7986 5.25355 20.3634 5.39146C20.9328 5.55323 21.4008 6.02902 21.563 6.63376C21.8649 8.32008 22.0114 10.0306 22.0006 11.7437C22.0067 13.4532 21.858 15.1499 21.5564 16.8226C21.4157 17.3757 20.9419 17.8642 20.3283 18.0378C19.7853 18.1829 18.3724 18.3017 16.4555 18.3749C15.4821 18.4121 14.4371 18.436 13.3919 18.4494C13.0259 18.454 12.686 18.457 12.3812 18.4587C12.1988 18.4597 12.069 18.46 12.0006 18.46C11.9321 18.46 11.8023 18.4597 11.6199 18.4587C11.3151 18.457 10.9753 18.454 10.6092 18.4494C9.56402 18.436 8.51909 18.4121 7.5457 18.3749C5.6288 18.3017 4.21588 18.1829 3.65894 18.034C3.06393 17.8711 2.59288 17.4049 2.42234 16.8061C2.1384 15.2044 1.98972 13.4817 2.00056 11.7563C1.9921 10.0325 2.14077 8.32284 2.4447 6.63747C2.58547 6.08428 3.05929 5.59581 3.67281 5.42223C4.21588 5.2771 5.6288 5.15834 7.5457 5.0851C8.51909 5.04791 9.56402 5.02396 10.6092 5.01065C10.9753 5.00599 11.3151 5.00299 11.6199 5.00133C11.8023 5.00033 11.9321 5 12.0006 5C12.0692 5 12.1992 5.0003 12.3817 5.00121C12.6867 5.00273 13.0268 5.00547 13.393 5.00973C14.4389 5.02189 15.4846 5.04378 16.4588 5.07776ZM10.2449 15.8893C9.57828 16.2684 8.75058 15.7869 8.75058 15.02V8.48C8.75058 7.71309 9.57828 7.23162 10.2449 7.61074L15.9949 10.8807C16.6691 11.2642 16.6691 12.2358 15.9949 12.6193L10.2449 15.8893ZM10.7506 10.1991L13.4777 11.75L10.7506 13.3009V10.1991Z" fill="white"/>
</mask>
<g mask="url(#mask0)">
<rect width="24" height="24" fill="#347AF0"/>
</g>
</svg>
