<svg width="24" height="24" viewBox="0 0 24 24" fill="none" xmlns="http://www.w3.org/2000/svg">
<path fill-rule="evenodd" clip-rule="evenodd" d="M23 24C23.3 24 23.5 23.9 23.7 23.7C24.1 23.3 24.1 22.7 23.7 22.3L1.7 0.3C1.3 -0.1 0.7 -0.1 0.3 0.3C-0.1 0.7 -0.1 1.3 0.3 1.7L6.6 8L2.2 13.3C2 13.6 1.9 14 2.1 14.4C2.3 14.8 2.6 15 3 15H10.9L10 21.9C10 22.3 10.2 22.7 10.6 22.9C10.7 23 10.9 23 11 23C11.3 23 11.6 22.9 11.8 22.7L16.1 17.5L22.3 23.7C22.5 23.9 22.7 24 23 24ZM9.9 5.7C9.5 5.3 9.4 4.7 9.8 4.3L12.2 1.4C12.5 1 13 0.9 13.4 1.1C13.8 1.3 14 1.7 14 2.1L13.4 6.9C13.3 7.4 12.9 7.8 12.4 7.8H12.3C11.8 7.7 11.4 7.2 11.4 6.7L11.6 5.3L11.4 5.6C11 6 10.4 6 9.9 5.7ZM15.7 11H18.9L17.8 12.3C17.4 12.7 17.5 13.4 17.9 13.7C18.1 13.9 18.3 13.9 18.5 13.9C18.8 13.9 19.1 13.8 19.3 13.5L21.7 10.6C21.9 10.3 22 9.9 21.8 9.5C21.7 9.2 21.4 9 21 9H15.7C15.1 9 14.7 9.4 14.7 10C14.7 10.6 15.1 11 15.7 11ZM11.6 13L8.1 9.5L5.1 13H11.6ZM13 14.4L14.6 16.1L12.5 18.8L13 14.4Z" fill="black"/>
<mask id="mask0" mask-type="alpha" maskUnits="userSpaceOnUse" x="0" y="0" width="24" height="24">
<path fill-rule="evenodd" clip-rule="evenodd" d="M23 24C23.3 24 23.5 23.9 23.7 23.7C24.1 23.3 24.1 22.7 23.7 22.3L1.7 0.3C1.3 -0.1 0.7 -0.1 0.3 0.3C-0.1 0.7 -0.1 1.3 0.3 1.7L6.6 8L2.2 13.3C2 13.6 1.9 14 2.1 14.4C2.3 14.8 2.6 15 3 15H10.9L10 21.9C10 22.3 10.2 22.7 10.6 22.9C10.7 23 10.9 23 11 23C11.3 23 11.6 22.9 11.8 22.7L16.1 17.5L22.3 23.7C22.5 23.9 22.7 24 23 24ZM9.9 5.7C9.5 5.3 9.4 4.7 9.8 4.3L12.2 1.4C12.5 1 13 0.9 13.4 1.1C13.8 1.3 14 1.7 14 2.1L13.4 6.9C13.3 7.4 12.9 7.8 12.4 7.8H12.3C11.8 7.7 11.4 7.2 11.4 6.7L11.6 5.3L11.4 5.6C11 6 10.4 6 9.9 5.7ZM15.7 11H18.9L17.8 12.3C17.4 12.7 17.5 13.4 17.9 13.7C18.1 13.9 18.3 13.9 18.5 13.9C18.8 13.9 19.1 13.8 19.3 13.5L21.7 10.6C21.9 10.3 22 9.9 21.8 9.5C21.7 9.2 21.4 9 21 9H15.7C15.1 9 14.7 9.4 14.7 10C14.7 10.6 15.1 11 15.7 11ZM11.6 13L8.1 9.5L5.1 13H11.6ZM13 14.4L14.6 16.1L12.5 18.8L13 14.4Z" fill="white"/>
</mask>
<g mask="url(#mask0)">
<rect width="24" height="24" fill="#347AF0"/>
</g>
</svg>
