<svg width="24" height="24" viewBox="0 0 24 24" fill="none" xmlns="http://www.w3.org/2000/svg">
<path fill-rule="evenodd" clip-rule="evenodd" d="M20.9919 9C21.3915 9 21.6913 9.2 21.8911 9.6C22.0909 9.9 21.991 10.3 21.7912 10.6L11.8002 22.6C11.6004 22.9 11.3006 23 11.0009 23C10.901 23 10.7012 23 10.6013 22.9C10.2016 22.8 9.90189 22.3 10.0018 21.9L10.901 15H3.00811C2.60847 15 2.30874 14.8 2.10892 14.5C1.9091 14.1 2.00901 13.7 2.20883 13.4L12.1998 1.4C12.4995 1 12.9991 0.9 13.3987 1.1C13.7984 1.2 14.0981 1.7 13.9982 2.1L13.099 9H20.9919ZM12.9991 14.1L12.3996 18.7L18.7939 11H11.9001C11.7003 11 11.4005 10.9 11.2007 10.7C11.1008 10.5 11.0009 10.2 11.0009 9.9L11.5005 5.3L5.10622 13H12C12.2997 13 12.5995 13.1 12.7993 13.3C12.8992 13.5 12.9991 13.8 12.9991 14.1Z" fill="black"/>
<mask id="mask0" mask-type="alpha" maskUnits="userSpaceOnUse" x="2" y="1" width="20" height="22">
<path fill-rule="evenodd" clip-rule="evenodd" d="M20.9919 9C21.3915 9 21.6913 9.2 21.8911 9.6C22.0909 9.9 21.991 10.3 21.7912 10.6L11.8002 22.6C11.6004 22.9 11.3006 23 11.0009 23C10.901 23 10.7012 23 10.6013 22.9C10.2016 22.8 9.90189 22.3 10.0018 21.9L10.901 15H3.00811C2.60847 15 2.30874 14.8 2.10892 14.5C1.9091 14.1 2.00901 13.7 2.20883 13.4L12.1998 1.4C12.4995 1 12.9991 0.9 13.3987 1.1C13.7984 1.2 14.0981 1.7 13.9982 2.1L13.099 9H20.9919ZM12.9991 14.1L12.3996 18.7L18.7939 11H11.9001C11.7003 11 11.4005 10.9 11.2007 10.7C11.1008 10.5 11.0009 10.2 11.0009 9.9L11.5005 5.3L5.10622 13H12C12.2997 13 12.5995 13.1 12.7993 13.3C12.8992 13.5 12.9991 13.8 12.9991 14.1Z" fill="white"/>
</mask>
<g mask="url(#mask0)">
<rect width="24" height="24" fill="#347AF0"/>
</g>
</svg>
