<svg width="326" height="240" viewBox="0 0 326 240" fill="none" xmlns="http://www.w3.org/2000/svg">
<path fill-rule="evenodd" clip-rule="evenodd" d="M270.762 160.716C269.651 161.256 267.902 161.484 266.818 161.41C265.721 161.336 263.935 160.434 263.807 160.212C263.342 159.401 265.316 159.744 266.28 159.864C267.244 159.984 268.344 160.023 268.27 159.543C268.197 159.063 266.334 158.972 266.067 158.449C265.802 157.928 268.487 158.291 268.487 158.291C268.487 158.291 270.891 158.036 271.406 158.693C271.729 157.777 272.083 156.902 272.449 156.146C273.053 154.895 273.369 153.533 273.39 152.156C269.125 148.506 265.965 145.467 263.683 143.091V192.187H193.194L193.194 192.187H270.211C267.907 188.761 269.093 171.627 269.892 165.81C269.836 164.658 270.191 162.719 270.762 160.716Z" fill="#E0E9F8"/>
<path fill-rule="evenodd" clip-rule="evenodd" d="M287.465 164.936C288.084 165.962 288.555 167.093 288.804 168.256C289.371 170.907 285.854 184.656 282.319 194.565C281.575 196.651 281.354 198.876 281.549 201.083C281.61 201.777 281.637 202.476 281.635 203.146H309.907C316.205 180.54 298.717 171.435 288.087 163.694C287.873 163.537 287.67 163.386 287.459 163.231L287.889 164.69C287.889 164.69 287.74 164.785 287.465 164.936Z" fill="#E0E9F8"/>
<path fill-rule="evenodd" clip-rule="evenodd" d="M148.62 70.9247L149.072 69.6333L149.525 70.9247C149.907 72.0136 150.813 72.9327 152.04 73.4753C150.813 74.0183 149.906 74.9369 149.525 76.0258L149.072 77.3177L148.62 76.0258C148.238 74.9374 147.332 74.0183 146.104 73.4753C147.332 72.9327 148.238 72.0136 148.62 70.9247ZM223.85 56.3131L224.609 54.1473L225.368 56.3131C226.008 58.1384 227.528 59.6794 229.586 60.5903C227.528 61.5008 226.008 63.0418 225.368 64.8675L224.609 67.0333L223.85 64.8675C223.21 63.0418 221.69 61.5008 219.632 60.5903C221.69 59.6798 223.21 58.1388 223.85 56.3131ZM262.007 87.6742C262.933 87.6742 263.684 88.4245 263.684 89.3504V130.395C317.536 59.0305 248.643 21.8257 190.349 30.4648C194.411 34.7381 196.908 40.5121 196.908 46.8723C196.908 60.0319 186.24 70.6996 173.08 70.6996C159.921 70.6996 149.253 60.0319 149.253 46.8723C149.253 46.8463 149.255 46.8218 149.255 46.7963C141.761 52.5193 135.603 59.6822 131.457 68.3429C127.343 76.9334 122.039 83.0733 115.421 87.6742H115.425H262.007Z" fill="#E0E9F8"/>
<path fill-rule="evenodd" clip-rule="evenodd" d="M62.5818 201.511V192.187H143.704L143.704 192.187H73.2135V172.913V166.031H58.066C57.7419 166.031 57.4788 165.768 57.4788 165.444V141.99C57.4788 141.665 57.7419 141.402 58.066 141.402H73.2135V106.168C73.2005 106.168 73.188 106.169 73.175 106.169C69.7698 106.169 66.6238 105.064 64.0718 103.195C55.4323 104.649 45.9833 106.181 35.6758 108.134C35.3872 108.189 35.1093 108.252 34.8245 108.309C35.3113 109.268 35.6051 110.248 35.6508 111.205C35.9019 116.434 41.2887 120.162 41.2887 120.162C53.3695 129.419 47.9793 133.063 45.9242 145.747C43.869 158.431 51.6769 161.253 51.12 172.646C50.6188 182.895 40.6581 185.114 38.3086 185.434C38.1273 191.292 37.5828 197.07 36.5478 202.539C36.4949 202.82 36.2241 203.004 35.9432 202.951L35.912 202.944C35.6494 202.877 35.4801 202.616 35.5315 202.346C36.5545 196.941 37.0942 191.23 37.2755 185.437C28.1002 184.667 23.5484 179.175 23.5479 179.175C18.1563 171.451 25.7021 161.604 19.3683 153.538C13.0345 145.472 15.8006 141.931 16.9929 138.557C18.1856 135.183 24.1654 133.36 17.9601 122.922C16.622 120.671 15.4947 118.607 14.6198 116.71C-9.56586 134.397 -2.92618 172.208 28.4955 203.146H63.7818C63.0878 202.924 62.5818 202.28 62.5818 201.511Z" fill="#E0E9F8"/>
<path fill-rule="evenodd" clip-rule="evenodd" d="M281.63 203.513H309.807C309.824 203.45 309.84 203.389 309.858 203.327H281.635C281.634 203.39 281.632 203.451 281.63 203.513Z" fill="#E0E9F8"/>
<path fill-rule="evenodd" clip-rule="evenodd" d="M28.6768 203.327C28.7398 203.389 28.8004 203.451 28.8639 203.513H274.74C274.748 203.451 274.755 203.388 274.761 203.327H28.6768Z" fill="#E0E9F8"/>
<path fill-rule="evenodd" clip-rule="evenodd" d="M273.115 203.146H274.781C274.822 202.788 274.859 202.465 274.893 202.179C274.694 201.79 274.501 201.41 274.316 201.044V201.511C274.315 202.279 273.809 202.923 273.115 203.146Z" fill="#E0E9F8"/>
<path fill-rule="evenodd" clip-rule="evenodd" d="M108.052 39.7439C105.218 36.9601 101.968 32.0398 91.5747 35.6663C90.7667 35.9481 89.9842 36.3219 89.2064 36.6984C88.2902 37.1419 85.4521 37.1534 82.5451 34.5173C77.9264 30.3281 76.1199 27.1672 69.7915 27.0691C62.4284 26.9546 61.2703 37.4391 55.5473 40.1224C51.9054 41.8303 42.2968 43.5276 40.3094 44.2842L112.193 44.6627C112.193 44.6627 109.625 41.2897 108.052 39.7439Z" fill="#E0E9F8"/>
<path fill-rule="evenodd" clip-rule="evenodd" d="M16.9928 138.557C15.8005 141.932 13.0345 145.472 19.3683 153.538C25.7021 161.604 18.1563 171.452 23.5479 179.174C23.5484 179.175 28.1002 184.667 37.2755 185.437C37.6728 172.778 36.3593 159.732 34.6398 148.628C31.9815 146.46 25.5891 142.503 25.5237 142.463C25.2808 142.312 25.2053 141.994 25.3558 141.751C25.5054 141.508 25.8228 141.429 26.0676 141.583C26.3091 141.732 31.4159 144.894 34.4041 147.134C31.8767 131.39 28.6278 119.903 28.5609 119.67C28.4821 119.396 28.6408 119.109 28.9154 119.031C29.1896 118.951 29.4767 119.11 29.5551 119.386C29.6056 119.561 31.4597 126.117 33.4547 136.072C34.3378 133.917 35.9168 129.798 36.7036 126.118C36.7637 125.839 37.0384 125.661 37.3178 125.72C37.5997 125.779 37.7752 126.055 37.7156 126.334C36.6531 131.305 34.1848 137.036 33.8126 137.885C34.887 143.429 35.9726 149.899 36.8162 156.838L39.7144 151.112C39.8433 150.857 40.1536 150.753 40.4099 150.885C40.6648 151.014 40.7668 151.325 40.6374 151.58L37.035 158.696C38.008 167.248 38.5871 176.436 38.3086 185.435C40.6581 185.114 50.6193 182.896 51.12 172.646C51.6769 161.253 43.869 158.43 45.9241 145.747C47.9793 133.064 53.3694 129.419 41.2886 120.161C41.2886 120.161 35.9019 116.434 35.6508 111.205C35.6051 110.249 35.3112 109.268 34.8245 108.309C32.1282 102.993 23.4377 98.3204 17.2987 101.857C11.6142 105.132 11.4377 109.808 14.6198 116.709C15.4946 118.607 16.622 120.671 17.9601 122.922C24.1654 133.36 18.1856 135.182 16.9928 138.557Z" fill="#C5D6F1"/>
<path fill-rule="evenodd" clip-rule="evenodd" d="M37.035 158.696L40.6374 151.58C40.7668 151.325 40.6648 151.014 40.4104 150.885C40.1535 150.753 39.8433 150.857 39.7144 151.112L36.8161 156.838C35.9725 149.899 34.887 143.429 33.8125 137.885C34.1848 137.036 36.6531 131.305 37.716 126.334C37.7757 126.055 37.5996 125.779 37.3178 125.72C37.0383 125.66 36.7642 125.839 36.7041 126.118C35.9167 129.798 34.3382 133.917 33.4547 136.073C31.4597 126.117 29.6056 119.561 29.5551 119.386C29.4767 119.11 29.1895 118.951 28.9154 119.031C28.6407 119.109 28.482 119.396 28.5609 119.67C28.6278 119.903 31.8767 131.39 34.4041 147.134C31.4159 144.894 26.309 141.732 26.0676 141.583C25.8228 141.43 25.5054 141.508 25.3558 141.751C25.2052 141.993 25.2812 142.313 25.5236 142.463C25.589 142.503 31.9815 146.46 34.6398 148.628C36.3592 159.732 37.6727 172.778 37.2755 185.437C37.0941 191.23 36.5545 196.941 35.532 202.347C35.4805 202.616 35.6493 202.877 35.9124 202.944L35.9432 202.951C36.2241 203.004 36.4949 202.819 36.5478 202.539C37.5828 197.07 38.1272 191.292 38.3086 185.435C38.5875 176.436 38.008 167.249 37.035 158.696Z" fill="#99B9EE"/>
<path fill-rule="evenodd" clip-rule="evenodd" d="M148.62 76.0258L149.072 77.3176L149.525 76.0258C149.906 74.9369 150.813 74.0182 152.04 73.4752C150.813 72.9327 149.907 72.0136 149.525 70.9247L149.072 69.6333L148.62 70.9247C148.238 72.0136 147.332 72.9327 146.104 73.4752C147.332 74.0182 148.238 74.9373 148.62 76.0258Z" fill="white"/>
<path fill-rule="evenodd" clip-rule="evenodd" d="M223.85 64.8673L224.609 67.0331L225.368 64.8673C226.008 63.0416 227.528 61.5006 229.586 60.5901C227.528 59.6792 226.008 58.1382 225.368 56.3129L224.609 54.1472L223.85 56.3129C223.21 58.1387 221.691 59.6797 219.632 60.5901C221.691 61.5006 223.21 63.0416 223.85 64.8673Z" fill="white"/>
<path fill-rule="evenodd" clip-rule="evenodd" d="M88.1186 94.5879H101.799C106.852 92.7198 111.382 90.4853 115.425 87.6741H115.421H88.2956C88.4961 88.6658 88.602 89.6917 88.602 90.7426C88.602 92.0701 88.4341 93.3586 88.1186 94.5879Z" fill="#CCDCF6"/>
<path fill-rule="evenodd" clip-rule="evenodd" d="M263.684 143.092V142.584C263.635 142.563 263.587 142.543 263.539 142.522C263.295 142.414 263.062 142.293 262.822 142.18C263.095 142.473 263.379 142.775 263.684 143.092Z" fill="#CCDCF6"/>
<path fill-rule="evenodd" clip-rule="evenodd" d="M258.472 136.956C258.472 136.956 258.485 136.976 258.505 137.006C259.333 137.42 260.164 137.824 261.003 138.201C261.894 138.596 262.787 138.979 263.684 139.326V130.406C262.058 132.56 260.325 134.74 258.472 136.956Z" fill="#CCDCF6"/>
<path fill-rule="evenodd" clip-rule="evenodd" d="M262.008 87.6741H115.425C111.382 90.4853 106.852 92.7198 101.798 94.5879H256.597V102.273C258.851 105.109 260.2 108.696 260.2 112.6C260.2 116.504 258.851 120.09 256.597 122.927V136.019C257.229 136.357 257.866 136.686 258.505 137.006C258.486 136.976 258.472 136.955 258.472 136.955C260.324 134.74 262.058 132.56 263.683 130.407V130.395V89.3502C263.683 88.4244 262.934 87.6741 262.008 87.6741Z" fill="#BCD1F3"/>
<path fill-rule="evenodd" clip-rule="evenodd" d="M263.684 192.187V143.092C263.379 142.775 263.095 142.474 262.822 142.18C261.781 141.692 260.764 141.174 259.779 140.614C258.696 139.999 257.639 139.353 256.597 138.689V186.203H80.2995V172.913H73.2135V192.187H143.704H193.194H263.684Z" fill="#BCD1F3"/>
<path fill-rule="evenodd" clip-rule="evenodd" d="M80.2995 104.425C78.1784 105.531 75.7702 106.162 73.2134 106.168V141.403H80.2995V104.425Z" fill="#BCD1F3"/>
<path fill-rule="evenodd" clip-rule="evenodd" d="M191.568 194.04C190.667 195.068 189.367 195.657 188 195.657H149.224C147.997 195.657 146.818 195.181 145.933 194.331L143.704 192.187H62.5816V201.511C62.5816 202.28 63.0876 202.924 63.7821 203.147H273.115C273.81 202.924 274.315 202.28 274.316 201.511V201.044C273.079 198.603 272.142 196.713 271.8 195.992C271.243 194.815 270.637 193.455 270.211 192.187H193.194L191.568 194.04Z" fill="#BCD1F3"/>
<path fill-rule="evenodd" clip-rule="evenodd" d="M149.224 195.657H188C189.366 195.657 190.667 195.068 191.569 194.04L193.193 192.187L193.194 192.187H143.704L143.704 192.187L145.933 194.331C146.818 195.182 147.997 195.657 149.224 195.657Z" fill="#F0F4FC"/>
<path fill-rule="evenodd" clip-rule="evenodd" d="M101.799 94.5879H88.1185C87.7073 96.1905 87.0421 97.6896 86.1735 99.0464C91.8551 97.7704 97.0558 96.341 101.799 94.5879Z" fill="#FBFBFB"/>
<path fill-rule="evenodd" clip-rule="evenodd" d="M105.77 104.563C105.77 104.295 105.987 104.077 106.256 104.077H172.535C172.803 104.077 173.021 104.295 173.021 104.563V126.539C173.02 126.807 172.803 127.025 172.535 127.025H167.621V132.94C167.621 133.214 167.399 133.436 167.125 133.436H98.0229C97.7492 133.436 97.527 133.214 97.527 132.94V110.985C97.527 110.712 97.7487 110.49 98.0229 110.49H105.77V104.563ZM174.03 140.577C174.03 140.22 174.32 139.93 174.678 139.93H241.669C242.026 139.93 242.315 140.22 242.315 140.577V179.362C242.315 179.719 242.026 180.009 241.669 180.009H174.678C174.32 180.009 174.03 179.719 174.03 179.362V140.577ZM148.485 141.402C148.809 141.402 149.072 141.665 149.072 141.99V165.444C149.072 165.768 148.809 166.031 148.485 166.031H137.795V172.419C137.795 172.692 137.574 172.913 137.302 172.913H80.2994V186.203H256.597V138.689C255.305 137.866 254.039 137.012 252.795 136.13C250.701 134.643 248.673 133.082 246.74 131.377C246.35 131.567 245.925 131.508 245.329 130.962C244.849 130.522 244.387 129.874 244.008 129.207C243.866 129.211 243.725 129.218 243.582 129.218C234.404 129.218 226.964 121.778 226.964 112.6C226.964 103.422 234.404 95.9823 243.582 95.9823C248.856 95.9823 253.553 98.4419 256.597 102.273V94.588H101.798C97.0557 96.3411 91.855 97.77 86.1734 99.046C84.7224 101.313 82.6966 103.174 80.2994 104.425V141.402H148.485Z" fill="#ECF0F7"/>
<path fill-rule="evenodd" clip-rule="evenodd" d="M247.143 128.831C247.353 129.372 247.556 130.039 247.508 130.499C248.444 131.155 249.404 131.787 250.378 132.396C251.522 133.115 252.676 133.821 253.846 134.495C254.755 135.02 255.673 135.526 256.597 136.02V122.927C254.259 125.87 250.945 128 247.143 128.831Z" fill="#ECF0F7"/>
<path fill-rule="evenodd" clip-rule="evenodd" d="M323.025 203.152H73.3688H31.2856H14.1198C14.0601 203.152 14.012 203.194 14.012 203.246C14.012 203.298 14.0601 203.34 14.1198 203.34H31.5018H325.012C325.012 203.34 325.009 203.176 325.012 203.152H323.025Z" fill="#BCD1F3"/>
<path fill-rule="evenodd" clip-rule="evenodd" d="M173.08 26.7117C184.197 26.7117 193.241 35.7557 193.241 46.8721C193.241 57.9886 184.197 67.0326 173.08 67.0326C161.963 67.0326 152.92 57.9886 152.92 46.8721C152.92 35.7557 161.964 26.7117 173.08 26.7117ZM173.08 70.6995C186.24 70.6995 196.908 60.0317 196.908 46.8721C196.908 40.5119 194.411 34.7379 190.349 30.4651C186.009 25.8974 179.88 23.0448 173.08 23.0448C159.946 23.0448 149.296 33.6717 149.255 46.7961C149.255 46.8216 149.253 46.8466 149.253 46.8721C149.253 60.0317 159.921 70.6995 173.08 70.6995Z" fill="#C5D6F1"/>
<path fill-rule="evenodd" clip-rule="evenodd" d="M175.118 44.7344C175.686 44.4814 176.023 43.9038 176.023 43.0799C176.023 42.2945 175.686 41.7543 175.118 41.5187C174.908 41.4311 174.666 41.3864 174.398 41.3864H171.602V44.8772H174.398C174.666 44.8772 174.908 44.8272 175.118 44.7344Z" fill="#E0E9F8"/>
<path fill-rule="evenodd" clip-rule="evenodd" d="M175.118 51.9776C175.959 51.7492 176.46 51.0936 176.46 50.1154C176.46 49.2174 175.959 48.5796 175.118 48.356C174.9 48.2973 174.66 48.2665 174.398 48.2665H171.602V52.0411L174.398 52.0671C174.659 52.0671 174.9 52.0363 175.118 51.9776Z" fill="#E0E9F8"/>
<path fill-rule="evenodd" clip-rule="evenodd" d="M170.945 35.3936V37.7133H172.258V35.3936H175.119V37.7306C177.968 37.9163 179.751 39.6425 179.751 42.2584C179.751 44.1327 178.819 45.6477 177.352 46.1619C179.116 46.6246 180.207 48.3955 180.207 50.707C180.207 53.7039 178.236 55.6061 175.119 55.7075V58.3504H172.258V55.7124H170.945V58.3504H168.085V55.7124H165.954V52.0412H167.993V41.3864H165.954V37.7133H168.085V35.3936H170.945ZM152.92 46.8723C152.92 57.9887 161.963 67.0328 173.08 67.0328C184.197 67.0328 193.241 57.9887 193.241 46.8723C193.241 35.7558 184.197 26.7118 173.08 26.7118C161.964 26.7118 152.92 35.7558 152.92 46.8723Z" fill="#E0E9F8"/>
<path fill-rule="evenodd" clip-rule="evenodd" d="M171.601 48.2664H174.398C174.659 48.2664 174.9 48.2972 175.118 48.3558C175.959 48.5795 176.46 49.2172 176.46 50.1152C176.46 51.0935 175.959 51.749 175.118 51.9775C174.9 52.0362 174.659 52.0669 174.398 52.0669L171.601 52.041V48.2664ZM171.601 41.3862H174.398C174.666 41.3862 174.908 41.4309 175.118 41.5185C175.686 41.7542 176.023 42.2943 176.023 43.0797C176.023 43.9036 175.686 44.4812 175.118 44.7342C174.908 44.827 174.666 44.877 174.398 44.877H171.601V41.3862ZM168.085 37.7131H165.954V41.3862H167.993V52.041H165.954V55.7122H168.085V58.3502H170.945V55.7122H172.258V58.3502H175.118V55.7073C178.236 55.6059 180.207 53.7037 180.207 50.7068C180.207 48.3953 179.116 46.6244 177.352 46.1617C178.819 45.6475 179.751 44.1325 179.751 42.2582C179.751 39.6423 177.967 37.9161 175.118 37.7304V35.3934H172.258V37.7131H170.945V35.3934H168.085V37.7131Z" fill="white"/>
<path fill-rule="evenodd" clip-rule="evenodd" d="M60.1223 90.7425C60.1223 83.5454 65.978 77.6897 73.1751 77.6897C80.3722 77.6897 86.2279 83.5454 86.2279 90.7425C86.2279 97.9396 80.3727 103.795 73.1751 103.795C65.9775 103.795 60.1223 97.9396 60.1223 90.7425ZM73.2136 106.168C75.7699 106.162 78.1785 105.532 80.2996 104.425C82.6967 103.174 84.7225 101.313 86.1736 99.0463C87.0422 97.6895 87.7073 96.1904 88.1186 94.5878C88.4341 93.3585 88.6019 92.07 88.6019 90.7425C88.6019 89.6916 88.4961 88.6657 88.2956 87.674C86.8729 80.6241 80.6439 75.3157 73.1751 75.3157C64.6548 75.3157 57.7482 82.2228 57.7482 90.7425C57.7482 95.8571 60.2391 100.388 64.0714 103.195C66.6239 105.064 69.7699 106.169 73.1751 106.169C73.1881 106.169 73.2006 106.168 73.2136 106.168Z" fill="#C5D6F1"/>
<path fill-rule="evenodd" clip-rule="evenodd" d="M67.2348 85.1361C68.2458 84.2155 69.8435 84.2482 70.8179 85.2073C71.6385 86.0153 71.8082 87.2287 71.3321 88.2075L72.0415 88.9169C72.7389 89.6138 73.7177 89.9524 74.6964 89.8351L75.693 89.7153C75.9234 88.6519 76.8064 87.802 77.9511 87.6741C79.3098 87.5221 80.5868 88.4836 80.8123 89.8322C81.06 91.3107 80.0226 92.6795 78.5509 92.8565C77.4167 92.9926 76.3678 92.3779 75.8955 91.4049L75.756 91.4218C74.39 91.5858 73.2795 92.6016 72.9953 93.9478C73.9226 94.5042 74.442 95.6037 74.2058 96.7215C73.8995 98.1711 72.4441 99.083 70.9935 98.7055C69.6704 98.3606 68.8263 97.0038 69.098 95.6638C69.327 94.535 70.2514 93.7304 71.3311 93.5957L71.4918 92.8372C71.7164 91.7738 71.3884 90.6691 70.6198 89.901L70.1292 89.4104C69.1567 89.8832 67.9519 89.7187 67.1444 88.9111C66.0963 87.8631 66.1266 86.1456 67.2348 85.1361ZM86.228 90.7426C86.228 83.5455 80.3723 77.6898 73.1751 77.6898C65.978 77.6898 60.1223 83.5455 60.1223 90.7426C60.1223 97.9398 65.9775 103.795 73.1751 103.795C80.3727 103.795 86.228 97.9398 86.228 90.7426Z" fill="#E0E9F8"/>
<path fill-rule="evenodd" clip-rule="evenodd" d="M70.1293 89.4102L70.6198 89.9008C71.3884 90.6689 71.7164 91.7737 71.4918 92.8371L71.3312 93.5956C70.2514 93.7302 69.327 94.5349 69.0976 95.6637C68.8263 97.0037 69.6704 98.3605 70.9936 98.7053C72.4437 99.0829 73.8995 98.171 74.2059 96.7213C74.442 95.6036 73.9226 94.5041 72.9948 93.9476C73.2796 92.6014 74.3901 91.5856 75.756 91.4216L75.8955 91.4048C76.3678 92.3778 77.4168 92.9924 78.5509 92.8563C80.0226 92.6793 81.0601 91.3105 80.8124 89.832C80.5868 88.4834 79.3099 87.522 77.9511 87.674C76.8065 87.8019 75.9234 88.6518 75.693 89.7152L74.6965 89.8349C73.7177 89.9523 72.739 89.6137 72.0416 88.9168L71.3321 88.2073C71.8083 87.2286 71.6385 86.0151 70.818 85.2071C69.8436 84.2481 68.2458 84.2154 67.2348 85.1359C66.1267 86.1455 66.0964 87.863 67.1444 88.911C67.9519 89.7185 69.1568 89.883 70.1293 89.4102Z" fill="white"/>
<path fill-rule="evenodd" clip-rule="evenodd" d="M175.664 215.768C182.861 215.768 188.717 219.807 188.717 224.77C188.717 229.733 182.862 233.771 175.664 233.771C168.467 233.771 162.611 229.733 162.611 224.77C162.611 219.807 168.467 215.768 175.664 215.768ZM175.664 214.132C167.144 214.132 160.237 218.895 160.237 224.77V229.17C160.238 235.045 167.144 239.807 175.664 239.807C184.184 239.807 191.09 235.045 191.091 229.17V224.783C191.091 224.778 191.091 224.774 191.091 224.77C191.091 218.895 184.184 214.132 175.664 214.132Z" fill="#C5D6F1"/>
<path fill-rule="evenodd" clip-rule="evenodd" d="M181.039 226.227C179.906 226.321 178.856 225.897 178.384 225.227L178.245 225.238C176.879 225.351 175.768 226.052 175.484 226.98C176.411 227.363 176.931 228.121 176.694 228.892C176.388 229.892 174.933 230.522 173.482 230.261C172.159 230.024 171.315 229.087 171.587 228.163C171.816 227.385 172.74 226.831 173.82 226.738L173.98 226.214C174.204 225.481 173.877 224.719 173.108 224.19L172.618 223.852C171.645 224.177 170.44 224.064 169.633 223.507C168.585 222.785 168.615 221.6 169.723 220.904C170.734 220.269 172.332 220.291 173.306 220.953C174.127 221.51 174.297 222.347 173.821 223.021L174.531 223.511C175.228 223.992 176.206 224.226 177.185 224.145L178.182 224.062C178.412 223.329 179.295 222.742 180.44 222.654C181.799 222.55 183.076 223.212 183.301 224.142C183.549 225.161 182.512 226.105 181.039 226.227ZM162.612 224.77C162.612 229.733 168.467 233.771 175.664 233.771C182.862 233.771 188.717 229.733 188.717 224.77C188.717 219.806 182.861 215.768 175.664 215.768C168.467 215.768 162.612 219.806 162.612 224.77Z" fill="#E0E9F8"/>
<path fill-rule="evenodd" clip-rule="evenodd" d="M183.301 224.142C183.076 223.212 181.799 222.549 180.44 222.654C179.295 222.742 178.412 223.329 178.182 224.062L177.185 224.145C176.206 224.226 175.228 223.992 174.531 223.511L173.821 223.021C174.297 222.347 174.127 221.51 173.306 220.953C172.332 220.291 170.734 220.269 169.723 220.904C168.615 221.6 168.585 222.785 169.633 223.507C170.44 224.064 171.645 224.177 172.618 223.852L173.108 224.19C173.877 224.719 174.204 225.481 173.98 226.215L173.82 226.737C172.74 226.831 171.815 227.385 171.587 228.163C171.315 229.087 172.159 230.024 173.482 230.261C174.933 230.522 176.388 229.892 176.694 228.893C176.931 228.122 176.411 227.364 175.484 226.98C175.768 226.052 176.879 225.351 178.245 225.238L178.384 225.227C178.856 225.897 179.905 226.321 181.039 226.228C182.512 226.105 183.549 225.161 183.301 224.142Z" fill="white"/>
<path fill-rule="evenodd" clip-rule="evenodd" d="M97.5272 110.985V132.94C97.5272 133.214 97.7494 133.436 98.023 133.436H167.125C167.399 133.436 167.621 133.214 167.621 132.94V127.025H106.256C105.987 127.025 105.77 126.807 105.77 126.539V110.49H98.023C97.7489 110.49 97.5272 110.712 97.5272 110.985Z" fill="#F7F7F7"/>
<path fill-rule="evenodd" clip-rule="evenodd" d="M162.071 112.6H114.607C114.196 112.6 113.862 112.267 113.862 111.855C113.862 111.443 114.195 111.11 114.607 111.11H162.071C162.483 111.11 162.816 111.443 162.816 111.855C162.817 112.267 162.483 112.6 162.071 112.6ZM136.539 119.992H114.607C114.196 119.992 113.862 119.66 113.862 119.247C113.862 118.836 114.195 118.502 114.607 118.502H136.539C136.951 118.502 137.284 118.835 137.284 119.247C137.284 119.66 136.951 119.992 136.539 119.992ZM106.256 127.025H167.621H172.535C172.803 127.025 173.021 126.807 173.021 126.539V104.563C173.021 104.295 172.803 104.077 172.535 104.077H106.256C105.987 104.077 105.77 104.295 105.77 104.563V110.49V126.539C105.77 126.807 105.987 127.025 106.256 127.025Z" fill="#C5D6F1"/>
<path fill-rule="evenodd" clip-rule="evenodd" d="M162.071 111.11H114.607C114.195 111.11 113.862 111.443 113.862 111.855C113.862 112.267 114.195 112.6 114.607 112.6H162.071C162.483 112.6 162.817 112.267 162.816 111.855C162.816 111.443 162.483 111.11 162.071 111.11Z" fill="white"/>
<path fill-rule="evenodd" clip-rule="evenodd" d="M136.538 118.502H114.607C114.195 118.502 113.862 118.836 113.862 119.247C113.862 119.66 114.195 119.992 114.607 119.992H136.538C136.951 119.992 137.283 119.66 137.283 119.247C137.283 118.835 136.951 118.502 136.538 118.502Z" fill="white"/>
<path fill-rule="evenodd" clip-rule="evenodd" d="M137.302 172.913C137.574 172.913 137.795 172.692 137.795 172.419V166.031H73.2135V172.913H80.2995H137.302Z" fill="#F7F7F7"/>
<path fill-rule="evenodd" clip-rule="evenodd" d="M79.5261 160.598H64.788C64.4994 160.598 64.2652 160.364 64.2652 160.075V146.786C64.2652 146.498 64.4994 146.263 64.788 146.263H79.5261C79.8147 146.263 80.0489 146.498 80.0489 146.786V160.075C80.0489 160.365 79.8147 160.598 79.5261 160.598ZM139.009 149.75C139.009 150.192 138.652 150.549 138.21 150.549H87.2672C86.8252 150.549 86.4678 150.192 86.4678 149.75C86.4678 149.308 86.8252 148.95 87.2672 148.95H138.21C138.652 148.95 139.009 149.308 139.009 149.75ZM110.805 158.483H87.2672C86.8252 158.483 86.4678 158.126 86.4678 157.684C86.4678 157.242 86.8252 156.885 87.2672 156.885H110.805C111.247 156.885 111.605 157.242 111.605 157.684C111.605 158.126 111.248 158.483 110.805 158.483ZM137.795 166.031H148.485C148.809 166.031 149.072 165.768 149.072 165.444V141.99C149.072 141.666 148.809 141.403 148.485 141.403H80.2995H73.2135H58.0661C57.7419 141.403 57.4788 141.666 57.4788 141.99V165.444C57.4788 165.768 57.7419 166.031 58.0661 166.031H73.2135H137.795Z" fill="#C5D6F1"/>
<path fill-rule="evenodd" clip-rule="evenodd" d="M87.2673 148.95C86.8253 148.95 86.4679 149.308 86.4679 149.75C86.4679 150.192 86.8253 150.549 87.2673 150.549H138.21C138.652 150.549 139.009 150.192 139.009 149.75C139.009 149.308 138.652 148.95 138.21 148.95H87.2673Z" fill="white"/>
<path fill-rule="evenodd" clip-rule="evenodd" d="M110.806 156.885H87.2673C86.8253 156.885 86.4679 157.242 86.4679 157.684C86.4679 158.126 86.8253 158.484 87.2673 158.484H110.806C111.248 158.484 111.605 158.126 111.605 157.684C111.605 157.242 111.248 156.885 110.806 156.885Z" fill="white"/>
<path fill-rule="evenodd" clip-rule="evenodd" d="M80.0491 146.786C80.0491 146.498 79.8149 146.263 79.5263 146.263H64.7882C64.4996 146.263 64.2654 146.498 64.2654 146.786V160.075C64.2654 160.364 64.4996 160.598 64.7882 160.598H79.5263C79.8149 160.598 80.0491 160.364 80.0491 160.075V146.786Z" fill="white"/>
<path fill-rule="evenodd" clip-rule="evenodd" d="M185.439 169.988C185.662 169.605 185.894 169.168 186.144 168.701C187.634 165.903 189.676 162.071 193.423 162.071C195.298 162.071 196.295 163.849 197.353 165.73C198.416 167.623 199.515 169.579 201.49 170.065C201.655 170.107 201.769 170.089 201.902 170C203.069 169.231 203.746 165.148 204.29 161.868C205.109 156.932 205.76 153.019 208.179 153.019L208.277 153.022C210.712 153.125 211.441 156.297 212.211 159.657C212.854 162.462 213.583 165.641 215.159 165.871C217.021 166.146 217.744 165.512 218.664 164.716C219.517 163.977 220.587 163.062 222.517 163.236C224.241 163.395 225.217 164.531 226.076 165.533C227.254 166.902 228.355 168.195 231.511 167.877C232.01 167.847 232.449 168.19 232.501 168.685C232.55 169.18 232.189 169.624 231.693 169.675C227.605 170.09 226 168.215 224.708 166.712C223.838 165.699 223.301 165.122 222.35 165.034C221.179 164.925 220.622 165.411 219.846 166.082C218.835 166.96 217.578 168.048 214.895 167.659C212.099 167.25 211.261 163.596 210.451 160.062C209.919 157.75 209.259 154.871 208.2 154.826H208.189C207.29 154.826 206.468 159.778 206.073 162.164C205.377 166.351 204.722 170.305 202.896 171.509C202.511 171.762 202.085 171.89 201.64 171.89C201.45 171.89 201.255 171.866 201.059 171.818C198.324 171.146 196.913 168.633 195.778 166.615C194.987 165.208 194.24 163.876 193.423 163.876C190.76 163.876 189.084 167.022 187.736 169.55C187.476 170.039 187.232 170.496 186.999 170.896C186.751 171.327 186.201 171.479 185.765 171.222C185.334 170.972 185.188 170.419 185.439 169.988ZM174.677 180.009H241.669C242.026 180.009 242.316 179.719 242.316 179.362V140.577C242.316 140.22 242.026 139.93 241.669 139.93H174.677C174.32 139.93 174.03 140.22 174.03 140.577V179.362C174.03 179.719 174.32 180.009 174.677 180.009Z" fill="white"/>
<path fill-rule="evenodd" clip-rule="evenodd" d="M185.765 171.222C186.201 171.479 186.75 171.327 186.999 170.896C187.232 170.495 187.477 170.039 187.736 169.55C189.084 167.022 190.76 163.876 193.423 163.876C194.24 163.876 194.987 165.207 195.778 166.616C196.913 168.633 198.324 171.146 201.059 171.818C201.255 171.867 201.45 171.89 201.64 171.89C202.085 171.89 202.511 171.762 202.896 171.509C204.722 170.305 205.377 166.351 206.073 162.164C206.468 159.779 207.29 154.826 208.189 154.826H208.2C209.259 154.871 209.919 157.749 210.451 160.062C211.261 163.596 212.099 167.25 214.895 167.659C217.578 168.047 218.834 166.96 219.846 166.082C220.622 165.411 221.179 164.924 222.35 165.034C223.301 165.122 223.838 165.699 224.707 166.711C226 168.216 227.605 170.09 231.693 169.675C232.189 169.624 232.55 169.18 232.5 168.685C232.449 168.189 232.01 167.847 231.511 167.878C228.355 168.195 227.254 166.903 226.076 165.533C225.217 164.531 224.241 163.395 222.517 163.236C220.587 163.062 219.517 163.977 218.664 164.716C217.744 165.513 217.021 166.146 215.158 165.871C213.583 165.641 212.854 162.461 212.211 159.656C211.441 156.297 210.711 153.125 208.278 153.022L208.18 153.018C205.759 153.018 205.109 156.931 204.291 161.868C203.747 165.148 203.069 169.231 201.902 170.001C201.768 170.089 201.655 170.107 201.489 170.065C199.515 169.58 198.416 167.623 197.353 165.731C196.296 163.849 195.298 162.071 193.423 162.071C189.676 162.071 187.634 165.903 186.143 168.701C185.895 169.168 185.662 169.606 185.439 169.988C185.188 170.418 185.334 170.972 185.765 171.222Z" fill="#C5D6F1"/>
<path fill-rule="evenodd" clip-rule="evenodd" d="M139.624 221.223L93.0826 213.889C92.6867 213.827 92.3159 214.097 92.2534 214.492C92.1908 214.888 92.4612 215.259 92.8565 215.322L139.398 222.656C139.794 222.717 140.165 222.448 140.227 222.052C140.29 221.656 140.02 221.285 139.624 221.223Z" fill="#C5D6F1"/>
<path fill-rule="evenodd" clip-rule="evenodd" d="M123.775 224.507H81.8958C81.5399 224.507 81.2513 224.795 81.2513 225.151C81.2513 225.507 81.5399 225.796 81.8958 225.796H123.775C124.131 225.796 124.42 225.506 124.42 225.151C124.42 224.795 124.131 224.507 123.775 224.507Z" fill="#C5D6F1"/>
<path fill-rule="evenodd" clip-rule="evenodd" d="M215.581 5.73318C212.711 4.55482 212.13 -0.0499057 208.436 0.000595289C205.262 0.0438819 204.356 1.43194 202.039 3.27162C200.581 4.42929 199.157 4.42448 198.697 4.22969C198.307 4.06424 197.915 3.89927 197.509 3.77615C192.295 2.1832 190.666 4.34416 189.244 5.56677C188.455 6.24541 187.167 7.72677 187.167 7.72677L223.225 7.56084C222.228 7.22849 217.408 6.483 215.581 5.73318Z" fill="#E0E9F8"/>
<path fill-rule="evenodd" clip-rule="evenodd" d="M282.815 216.983L284.67 221.03C285.075 221.936 285.24 222.932 285.147 223.92C285.032 225.163 284.344 226.321 283.232 226.887C283.03 226.99 282.842 227.119 282.663 227.258C285.162 227.003 287.168 225.235 288.446 222.901C288.492 222.817 288.569 222.77 288.65 222.748C288.489 222.466 288.306 222.156 288.12 222.011C287.486 221.517 286.818 221.02 286.506 220.28C286.194 219.538 284.888 215.716 284.442 214.407C284.201 215.37 283.562 216.558 282.815 216.983Z" fill="#B97A59"/>
<path fill-rule="evenodd" clip-rule="evenodd" d="M264.878 235.295C264.868 235.272 264.859 235.249 264.852 235.226C264.858 235.249 264.868 235.272 264.878 235.295Z" fill="#B97A59"/>
<path fill-rule="evenodd" clip-rule="evenodd" d="M273.4 220.09C273.361 220.063 273.327 220.03 273.298 219.994C272.828 224.5 271.837 229.779 270.153 230.906C269.045 231.647 267.786 232.363 266.77 233.033C268.027 232.949 269.393 232.889 270.657 232.549C272.272 232.115 273.807 231.449 275.26 230.633L275.405 230.943C275.404 230.941 275.404 230.941 275.403 230.94L275.403 230.939C274.656 229.325 274.511 227.495 274.996 225.786L276.481 220.554C276.413 220.611 276.331 220.651 276.24 220.666C275.264 220.825 274.262 220.682 273.4 220.09Z" fill="#B97A59"/>
<path fill-rule="evenodd" clip-rule="evenodd" d="M265.321 235.603C265.293 235.606 265.27 235.607 265.247 235.608C265.27 235.607 265.293 235.606 265.321 235.603Z" fill="#B97A59"/>
<path fill-rule="evenodd" clip-rule="evenodd" d="M265.129 235.605C265.116 235.603 265.109 235.599 265.101 235.595C265.109 235.599 265.116 235.603 265.129 235.605Z" fill="#B97A59"/>
<path fill-rule="evenodd" clip-rule="evenodd" d="M264.952 235.43C264.933 235.402 264.915 235.374 264.9 235.346C264.914 235.374 264.933 235.402 264.952 235.43Z" fill="#B97A59"/>
<path fill-rule="evenodd" clip-rule="evenodd" d="M265.031 235.528C265.014 235.509 264.995 235.491 264.98 235.472C264.995 235.49 265.014 235.509 265.031 235.528Z" fill="#B97A59"/>
<path fill-rule="evenodd" clip-rule="evenodd" d="M266.089 235.468C266.026 235.481 265.966 235.494 265.908 235.506C265.966 235.494 266.026 235.481 266.089 235.468Z" fill="#B97A59"/>
<path fill-rule="evenodd" clip-rule="evenodd" d="M265.643 235.556C265.599 235.565 265.559 235.571 265.52 235.577C265.559 235.571 265.599 235.565 265.643 235.556Z" fill="#B97A59"/>
<path fill-rule="evenodd" clip-rule="evenodd" d="M265.466 235.586C265.43 235.591 265.398 235.595 265.367 235.598C265.398 235.595 265.43 235.591 265.466 235.586Z" fill="#B97A59"/>
<path fill-rule="evenodd" clip-rule="evenodd" d="M265.85 235.517C265.798 235.528 265.748 235.537 265.701 235.546C265.748 235.537 265.798 235.528 265.85 235.517Z" fill="#B97A59"/>
<path fill-rule="evenodd" clip-rule="evenodd" d="M265.208 235.61C265.187 235.61 265.173 235.609 265.158 235.608C265.173 235.609 265.187 235.61 265.208 235.61Z" fill="#B97A59"/>
<path fill-rule="evenodd" clip-rule="evenodd" d="M266.66 235.338C266.568 235.359 266.479 235.38 266.394 235.4C266.479 235.38 266.568 235.359 266.66 235.338Z" fill="#B97A59"/>
<path fill-rule="evenodd" clip-rule="evenodd" d="M274.393 233.185C274.394 233.185 274.395 233.184 274.396 233.184C272.257 233.817 268.722 234.844 266.675 235.334C268.72 234.844 272.253 233.818 274.393 233.185Z" fill="#B97A59"/>
<path fill-rule="evenodd" clip-rule="evenodd" d="M266.362 235.407C266.285 235.424 266.211 235.441 266.139 235.457C266.211 235.441 266.285 235.424 266.362 235.407Z" fill="#B97A59"/>
<path fill-rule="evenodd" clip-rule="evenodd" d="M270.657 232.549C269.393 232.889 268.027 232.949 266.77 233.033C266.759 233.034 266.747 233.034 266.737 233.035C266.592 233.045 266.451 233.093 266.331 233.176C265.296 233.89 264.667 234.631 264.852 235.226C264.859 235.249 264.869 235.272 264.878 235.295C264.886 235.312 264.891 235.329 264.9 235.346C264.915 235.374 264.934 235.402 264.952 235.43C264.962 235.443 264.969 235.458 264.98 235.471C264.995 235.491 265.014 235.509 265.031 235.528C265.05 235.548 265.065 235.569 265.086 235.589C265.089 235.592 265.097 235.593 265.101 235.594C265.109 235.599 265.116 235.603 265.129 235.605C265.137 235.607 265.148 235.607 265.157 235.607C265.173 235.609 265.188 235.61 265.208 235.61C265.219 235.61 265.234 235.609 265.247 235.608C265.27 235.607 265.293 235.606 265.321 235.604C265.335 235.602 265.352 235.6 265.367 235.598C265.398 235.594 265.43 235.591 265.466 235.585C265.483 235.583 265.502 235.58 265.52 235.577C265.559 235.571 265.599 235.565 265.643 235.556C265.662 235.553 265.682 235.55 265.701 235.546C265.748 235.537 265.797 235.528 265.85 235.518C265.869 235.514 265.888 235.51 265.909 235.506C265.966 235.494 266.026 235.481 266.089 235.468C266.106 235.464 266.123 235.461 266.139 235.457C266.211 235.442 266.285 235.425 266.362 235.407C266.373 235.405 266.383 235.403 266.394 235.4C266.479 235.38 266.568 235.359 266.66 235.338C266.665 235.336 266.67 235.335 266.676 235.334C268.722 234.844 272.257 233.817 274.396 233.184C274.658 233.106 274.902 233.034 275.117 232.97C275.69 232.8 275.971 232.162 275.719 231.62L275.405 230.943L275.26 230.633C273.807 231.45 272.272 232.115 270.657 232.549Z" fill="#0B4870"/>
<path fill-rule="evenodd" clip-rule="evenodd" d="M274.401 135.64L274.538 135.648L275.936 135.725L277.965 135.837L278.065 134.703C278.064 134.703 278.062 134.702 278.061 134.701L278.138 133.842C278.131 133.842 278.124 133.843 278.118 133.842C277.332 133.799 276.215 131.203 275.911 129.256C275.849 128.858 275.815 128.463 275.799 128.077C276.528 127.225 276.946 126.291 277.179 125.565C277.543 126.097 278.327 126.729 280.112 127.703C281.966 128.714 283.174 129.013 284.056 129.342C283.832 129.764 283.542 130.091 283.266 130.159C282.998 130.906 282.446 131.724 281.789 132.237C281.718 132.293 281.653 132.338 281.584 132.391L281.682 132.818L282.434 136.083L283.205 136.126L284.693 136.208C286.205 136.292 287.377 137.548 287.353 139.057C287.692 139.595 287.993 140.114 288.296 140.662C288.704 141.403 289.096 142.154 289.453 142.925C290.163 144.467 290.784 146.066 291.242 147.751C291.684 149.437 291.967 151.22 291.851 153.095C291.825 153.47 291.774 153.849 291.708 154.228C294.388 153.265 296.469 150.961 297.039 148.041C297.221 147.105 297.717 146.242 298.534 145.75C300.448 144.595 301.718 142.458 301.598 139.991C301.466 137.256 299.511 134.879 296.863 134.182C296.407 134.062 295.957 133.997 295.517 133.979C294.456 133.936 293.517 133.236 293.205 132.221C292.314 129.327 289.624 127.186 286.372 127.192C285.747 127.193 285.14 127.285 284.558 127.444C284.533 127.413 284.505 127.383 284.479 127.353L284.6 125.16C284.684 123.64 283.519 122.339 281.999 122.256L279.468 122.118C278.744 122.078 278.053 121.85 277.457 121.467C276.592 120.911 275.454 121.018 274.8 121.81C274.514 122.155 274.291 122.553 274.226 122.983C274.198 123.101 274.187 123.241 274.193 123.405C274.256 125.102 274.59 126.27 274.939 127.046C274.463 128.42 273.747 129.656 273.747 129.656C273.754 129.652 273.76 129.648 273.767 129.645C273.328 130.554 273.049 131.605 272.987 132.734C272.927 133.815 273.076 134.842 273.382 135.763C273.704 135.666 274.047 135.621 274.401 135.64Z" fill="#0B4870"/>
<path fill-rule="evenodd" clip-rule="evenodd" d="M288.312 154.698C288.456 154.149 288.53 153.565 288.537 152.956C288.544 151.598 288.234 150.163 287.786 148.752C287.451 147.679 287.024 146.615 286.535 145.569C286.132 147.96 285.662 150.407 285.321 152.119C285.21 152.678 285.15 153.244 285.14 153.81C285.876 154.188 286.673 154.466 287.518 154.606C287.784 154.65 288.049 154.679 288.312 154.698Z" fill="#0B4870"/>
<path fill-rule="evenodd" clip-rule="evenodd" d="M258.505 137.006C257.866 136.686 257.23 136.357 256.597 136.019C255.673 135.526 254.755 135.02 253.846 134.495C252.676 133.82 251.522 133.115 250.378 132.396C249.404 131.786 248.444 131.155 247.508 130.499C247.556 130.039 247.353 129.372 247.143 128.831C246.13 129.053 245.082 129.18 244.008 129.207C244.388 129.875 244.849 130.522 245.329 130.962C245.926 131.508 246.35 131.567 246.739 131.377C248.673 133.082 250.701 134.643 252.795 136.13C254.039 137.012 255.305 137.866 256.597 138.689C257.639 139.353 258.696 139.999 259.778 140.613C260.764 141.174 261.782 141.692 262.822 142.18C263.062 142.292 263.296 142.414 263.539 142.522C263.587 142.544 263.636 142.563 263.684 142.584C264.94 143.135 266.239 143.637 267.659 143.982C268.396 144.158 269.17 144.29 270.007 144.322C270.628 144.346 271.299 144.314 272.003 144.14C271.733 142.842 271.507 141.593 271.375 140.531C271.356 140.543 271.341 140.554 271.319 140.565C271.028 140.713 270.571 140.814 270.042 140.826C269.517 140.843 268.934 140.791 268.338 140.689C267.143 140.491 265.9 140.13 264.673 139.694C264.343 139.577 264.013 139.454 263.684 139.326C262.787 138.979 261.894 138.596 261.003 138.201C260.164 137.823 259.333 137.42 258.505 137.006Z" fill="#B97A59"/>
<path fill-rule="evenodd" clip-rule="evenodd" d="M272.608 146.831C272.878 148.151 273.102 149.428 273.277 150.511C273.365 151.058 273.398 151.609 273.39 152.156C273.369 153.533 273.053 154.895 272.449 156.146C272.083 156.902 271.729 157.776 271.406 158.693C271.429 158.723 271.453 158.751 271.468 158.784C271.568 159.003 271.645 159.206 271.682 159.398C274.372 159.65 277.061 159.785 279.678 159.576C281.224 159.445 282.741 159.191 284.119 158.721C284.753 158.499 285.348 158.221 285.882 157.891L285.528 156.694C285.25 155.754 285.121 154.782 285.14 153.81C285.15 153.244 285.21 152.678 285.322 152.118C285.663 150.407 286.132 147.961 286.535 145.57C286.379 145.234 286.216 144.9 286.048 144.569C285.704 143.885 285.344 143.206 284.961 142.54C284.582 141.887 284.162 141.198 283.78 140.618L283.755 140.581C283.17 139.693 283.414 138.501 284.301 137.916C285.183 137.334 286.369 137.574 286.958 138.449C287.097 138.656 287.227 138.858 287.353 139.057C287.377 137.548 286.205 136.292 284.694 136.208L283.205 136.125L282.434 136.083L282.484 136.3L277.904 136.526L277.965 135.837L275.936 135.724L274.539 135.647L274.401 135.64C274.047 135.62 273.704 135.666 273.382 135.762C272.295 136.087 271.452 137.015 271.288 138.199C271.213 138.746 271.255 139.561 271.375 140.531C271.507 141.593 271.733 142.842 272.004 144.14C272.19 145.03 272.396 145.941 272.608 146.831Z" fill="#FDB32A"/>
<path fill-rule="evenodd" clip-rule="evenodd" d="M281.635 203.146C281.637 202.476 281.61 201.776 281.549 201.083C281.354 198.876 281.575 196.651 282.319 194.565C285.854 184.656 289.371 170.908 288.804 168.257C288.555 167.093 288.084 165.962 287.465 164.936C285.74 165.88 278.864 169.091 269.901 166.009C269.896 165.948 269.895 165.876 269.892 165.81C269.093 171.627 267.907 188.761 270.211 192.187C270.637 193.456 271.243 194.815 271.8 195.992C272.142 196.713 273.079 198.603 274.316 201.044C274.501 201.41 274.694 201.79 274.892 202.179C274.859 202.465 274.822 202.788 274.781 203.146C274.775 203.206 274.768 203.266 274.761 203.327C274.754 203.388 274.748 203.451 274.74 203.513C274.33 207.22 273.657 214.001 273.185 219.616C273.173 219.753 273.214 219.89 273.298 219.994C273.327 220.03 273.361 220.063 273.4 220.09C274.262 220.682 275.264 220.826 276.24 220.666C276.331 220.652 276.413 220.611 276.481 220.553C276.552 220.494 276.607 220.416 276.64 220.326C277.712 217.369 278.826 214.169 279.718 211.457C280.798 213.482 281.848 215.408 282.764 217.016C282.782 217.007 282.798 216.993 282.815 216.983C283.562 216.558 284.201 215.371 284.442 214.406C284.443 214.403 284.444 214.4 284.445 214.397C283.655 211.256 282.625 207.478 281.616 203.96C281.623 203.814 281.627 203.664 281.63 203.513C281.632 203.451 281.634 203.39 281.635 203.327C281.636 203.267 281.635 203.207 281.635 203.146Z" fill="#0B4870"/>
<path fill-rule="evenodd" clip-rule="evenodd" d="M282.291 161.665C281.438 161.733 280.588 161.772 279.749 161.75C276.757 161.7 273.861 161.225 271.027 160.576C270.959 160.616 270.887 160.656 270.807 160.696C270.793 160.703 270.777 160.709 270.762 160.716C270.192 162.719 269.836 164.658 269.893 165.81C269.895 165.876 269.896 165.948 269.902 166.008C278.864 169.091 285.74 165.88 287.465 164.936C287.741 164.785 287.89 164.69 287.89 164.69L287.459 163.231L286.679 160.59C286.081 160.851 285.474 161.055 284.867 161.216C284.005 161.443 283.145 161.569 282.291 161.665Z" fill="#FDB32A"/>
<path fill-rule="evenodd" clip-rule="evenodd" d="M278.974 135.024C278.636 135.006 278.333 134.894 278.065 134.703L277.965 135.837L277.904 136.526L282.484 136.299L282.434 136.083L281.682 132.818C280.982 133.525 280.046 135.084 278.974 135.024Z" fill="#B97A59"/>
<path fill-rule="evenodd" clip-rule="evenodd" d="M281.682 132.818L281.583 132.39C280.141 133.48 279.087 133.888 278.138 133.842L278.061 134.701C278.063 134.702 278.064 134.702 278.065 134.703C278.333 134.894 278.636 135.006 278.974 135.024C280.046 135.084 280.982 133.525 281.682 132.818Z" fill="#AA6B4F"/>
<path fill-rule="evenodd" clip-rule="evenodd" d="M281.583 132.39C281.653 132.338 281.718 132.293 281.789 132.237C282.446 131.724 282.997 130.907 283.266 130.159C283.541 130.091 283.832 129.764 284.056 129.342C283.174 129.013 281.966 128.714 280.112 127.702C278.327 126.729 277.543 126.096 277.179 125.565C276.945 126.291 276.527 127.224 275.799 128.077C275.815 128.463 275.848 128.858 275.91 129.255C276.215 131.203 277.332 133.799 278.118 133.842C278.125 133.842 278.131 133.842 278.138 133.842C279.088 133.888 280.141 133.48 281.583 132.39Z" fill="#B97A59"/>
<path fill-rule="evenodd" clip-rule="evenodd" d="M291.242 147.75C290.785 146.066 290.164 144.467 289.453 142.925C289.096 142.153 288.705 141.404 288.296 140.662C287.993 140.114 287.692 139.595 287.353 139.057C287.227 138.858 287.097 138.656 286.958 138.449C286.37 137.574 285.183 137.334 284.301 137.916C283.415 138.501 283.17 139.693 283.756 140.581L283.78 140.618C284.162 141.198 284.581 141.887 284.961 142.54C285.344 143.206 285.704 143.885 286.048 144.569C286.217 144.9 286.379 145.234 286.535 145.57C287.024 146.615 287.451 147.68 287.786 148.752C288.234 150.163 288.544 151.598 288.537 152.955C288.53 153.565 288.456 154.149 288.312 154.697C288.136 155.368 287.852 155.986 287.436 156.524C287.035 157.055 286.5 157.509 285.881 157.891C285.348 158.221 284.753 158.499 284.119 158.721C282.742 159.191 281.224 159.445 279.678 159.576C277.061 159.785 274.372 159.65 271.682 159.398C271.645 159.206 271.568 159.003 271.468 158.784C271.453 158.751 271.429 158.722 271.406 158.693C270.891 158.036 268.486 158.291 268.486 158.291C268.486 158.291 265.801 157.928 266.067 158.449C266.334 158.972 268.197 159.063 268.27 159.543C268.345 160.023 267.244 159.984 266.28 159.864C265.316 159.744 263.342 159.401 263.807 160.212C263.935 160.434 265.721 161.336 266.818 161.41C267.902 161.484 269.651 161.256 270.762 160.716C270.776 160.709 270.793 160.704 270.808 160.696C270.887 160.657 270.959 160.616 271.027 160.576C273.861 161.225 276.757 161.7 279.749 161.749C280.588 161.772 281.437 161.733 282.291 161.665C283.145 161.569 284.006 161.443 284.867 161.216C285.474 161.055 286.081 160.851 286.679 160.59C286.928 160.481 287.177 160.365 287.422 160.233C288.251 159.79 289.047 159.202 289.717 158.462C290.39 157.728 290.929 156.847 291.262 155.918C291.469 155.362 291.61 154.795 291.708 154.228C291.774 153.849 291.825 153.47 291.851 153.095C291.967 151.22 291.684 149.437 291.242 147.75Z" fill="#B97A59"/>
<path fill-rule="evenodd" clip-rule="evenodd" d="M288.446 222.901C287.168 225.235 285.162 227.003 282.663 227.258C282.624 227.262 282.585 227.269 282.546 227.272C281.693 227.782 281.1 229.008 281.244 229.506C281.278 229.624 282.402 229.701 283.622 229.09C289.037 226.374 289.85 224.977 289.85 224.977C290.079 224.74 290.104 224.373 289.906 224.109C289.743 223.893 289.312 223.301 288.988 222.857C288.904 222.742 288.77 222.715 288.65 222.748C288.569 222.771 288.492 222.816 288.446 222.901Z" fill="#0B4870"/>
<path fill-rule="evenodd" clip-rule="evenodd" d="M257.643 112.6C257.643 120.353 251.335 126.66 243.582 126.66C235.829 126.66 229.522 120.353 229.522 112.6C229.522 104.847 235.829 98.5391 243.582 98.5391C251.335 98.5391 257.643 104.846 257.643 112.6ZM243.582 95.9823C234.405 95.9823 226.965 103.422 226.965 112.6C226.965 121.778 234.405 129.218 243.582 129.218C243.725 129.218 243.866 129.211 244.008 129.207C245.082 129.18 246.13 129.052 247.143 128.831C250.945 128 254.259 125.87 256.597 122.927C258.851 120.091 260.2 116.504 260.2 112.6C260.2 108.696 258.851 105.11 256.597 102.273C253.553 98.4419 248.856 95.9823 243.582 95.9823Z" fill="#C5D6F1"/>
<path fill-rule="evenodd" clip-rule="evenodd" d="M243.582 114.247L238.47 111.849L243.582 103.627L248.695 111.849L243.582 114.247ZM243.582 121.572L238.47 113.35L243.582 116.696L248.695 113.35L243.582 121.572ZM243.582 98.539C235.829 98.539 229.522 104.847 229.522 112.599C229.522 120.353 235.829 126.66 243.582 126.66C251.335 126.66 257.643 120.353 257.643 112.599C257.643 104.846 251.335 98.539 243.582 98.539Z" fill="#E0E9F8"/>
<path fill-rule="evenodd" clip-rule="evenodd" d="M238.47 111.849L243.582 114.247L248.695 111.849L243.582 103.627L238.47 111.849Z" fill="white"/>
<path fill-rule="evenodd" clip-rule="evenodd" d="M238.47 113.35L243.582 121.572L248.695 113.35L243.582 116.696L238.47 113.35Z" fill="white"/>
</svg>
