<svg width="273" height="220" viewBox="0 0 273 220" fill="none" xmlns="http://www.w3.org/2000/svg">
<mask id="mask0" mask-type="alpha" maskUnits="userSpaceOnUse" x="0" y="0" width="273" height="220">
<path fill-rule="evenodd" clip-rule="evenodd" d="M6.10352e-05 0.202682H272.89V219.969H6.10352e-05V0.202682Z" fill="white"/>
</mask>
<g mask="url(#mask0)">
<path fill-rule="evenodd" clip-rule="evenodd" d="M197.4 147.384C194.541 147.384 192.223 145.065 192.223 142.203C192.223 139.342 194.541 137.023 197.4 137.023C200.26 137.023 202.578 139.342 202.578 142.203C202.578 145.065 200.26 147.384 197.4 147.384ZM82.5446 34.8323C79.4746 34.8323 76.9861 32.342 76.9861 29.2702C76.9861 26.1981 79.4746 23.7081 82.5446 23.7081C85.6146 23.7081 88.1035 26.1981 88.1035 29.2702C88.1035 32.342 85.6146 34.8323 82.5446 34.8323ZM248.169 22.209C217.866 33.5997 176.668 41.8638 147.824 19.395C136.639 10.6826 125.313 5.47536 114.449 2.65488C80.5312 -6.15225 44.9683 9.33412 27.8921 39.952L13.2521 66.2031C-8.95721 106.025 -1.7047 151.091 23.5157 182.089L47.614 134.847C47.4976 134.85 47.3818 134.856 47.2645 134.856C40.4177 134.856 34.8675 129.302 34.8675 122.451C34.8675 115.6 40.4177 110.046 47.2645 110.046C51.5185 110.046 55.2711 112.191 57.5037 115.458L78.7814 73.7454C74.9222 72.9043 71.0247 71.7367 67.5542 70.069C49.1297 61.2154 77.3234 28.5695 131.936 40.1696C147.545 43.485 137.001 54.4529 119.512 58.158C118.073 58.463 116.86 58.7905 115.852 59.1401H134.37C134.867 57.8865 135.156 57.1149 135.156 57.1149L135.297 57.1338C134.762 56.4365 134.386 55.5247 134.386 55.5247L145.449 50.8251C143.78 54.8527 139.912 56.7449 137.895 57.4852L138.485 57.5648L138.154 59.1401H153.613C153.523 58.9498 153.472 58.8264 153.472 58.8264L164.535 54.1267C163.576 56.4412 161.891 58.049 160.247 59.1401H209.889V63.283L205.875 71.1553C210.064 75.2783 212.662 81.0142 212.662 87.3579C212.662 99.9104 202.493 110.086 189.948 110.086C188.665 110.086 187.408 109.978 186.183 109.773L145.323 189.904H78.2699C78.2637 189.933 78.258 189.964 78.2517 189.992C78.0217 191.011 72.1134 191.872 71.7423 189.904H30.5529C49.0723 208.49 74.8642 220.317 104.705 219.962H104.705C165.251 219.242 219.255 181.696 241.05 125.17L271.623 45.8786C277.297 31.1644 262.924 16.6628 248.169 22.209Z" fill="#E0E9F8"/>
</g>
<path fill-rule="evenodd" clip-rule="evenodd" d="M47.2644 110.046C40.4178 110.046 34.8674 115.6 34.8674 122.451C34.8674 129.302 40.4178 134.855 47.2644 134.855C47.3817 134.855 47.4975 134.85 47.6139 134.847L57.5036 115.459C55.271 112.191 51.5184 110.046 47.2644 110.046Z" fill="#C5D6F1"/>
<path fill-rule="evenodd" clip-rule="evenodd" d="M71.7415 189.902C71.4893 188.549 71.5469 187.115 71.7537 185.762H21.6425V189.905H30.5529H71.7421C71.7419 189.904 71.7417 189.903 71.7415 189.902Z" fill="#99B9EE"/>
<path fill-rule="evenodd" clip-rule="evenodd" d="M147.633 181.188L116.916 151.865C116.292 152.096 115.606 152.328 114.882 152.539L146.736 182.948L145.3 185.762H82.5439C82.5465 186.604 80.9785 186.117 79.9794 185.762H79.2595C78.9324 185.89 78.6834 186.191 78.6561 186.582C78.5535 188.053 78.4415 189.106 78.2697 189.904H145.323L186.183 109.774C185.535 109.665 184.896 109.531 184.268 109.37L147.633 181.188Z" fill="#99B9EE"/>
<path fill-rule="evenodd" clip-rule="evenodd" d="M151.484 78.0921L173.507 71.6754C177.644 67.3345 183.48 64.6297 189.948 64.6297C191.832 64.6297 193.662 64.8607 195.412 65.2934L208.669 61.4307L208.688 61.4947L209.889 59.1401H160.247C158.943 60.0062 157.666 60.5466 156.799 60.8522C156.24 62.6595 153.76 70.6787 151.484 78.0921Z" fill="#F7F7F7"/>
<path fill-rule="evenodd" clip-rule="evenodd" d="M127.084 74.6487C129.972 69.8908 132.982 62.6373 134.37 59.1401H115.851C106.368 62.4265 115.091 67.6786 127.084 74.6487Z" fill="#F7F7F7"/>
<path fill-rule="evenodd" clip-rule="evenodd" d="M79.2595 185.762H79.9793C79.9706 185.759 79.9616 185.755 79.9529 185.752C79.7145 185.667 79.471 185.679 79.2595 185.762Z" fill="#F7F7F7"/>
<path fill-rule="evenodd" clip-rule="evenodd" d="M207.549 63.7289L198.597 66.3371C200.722 67.2132 202.685 68.4014 204.428 69.8465L207.549 63.7289Z" fill="#F7F7F7"/>
<path fill-rule="evenodd" clip-rule="evenodd" d="M134.044 78.7294C135.745 79.7482 137.05 80.8539 138.007 82.0184L141.774 80.9209C142.401 77.7926 143.781 73.5116 146.819 69.8196C151.415 64.2314 153.379 61.4926 154.215 60.2024C153.954 59.8192 153.743 59.4116 153.613 59.1401H138.154L134.044 78.7294Z" fill="#F7F7F7"/>
<path fill-rule="evenodd" clip-rule="evenodd" d="M78.4385 180.46C78.5539 180.571 78.6718 180.686 78.7923 180.809C81.6149 183.685 82.542 185.115 82.5441 185.762H145.3L146.736 182.948L114.882 152.539C112.313 153.288 109.27 153.767 106.887 152.93C106.887 152.93 104.272 149.241 109.215 147.129L94.9158 133.479L83.9805 141.282C78.7479 157.473 78.4181 175.395 78.4385 180.46Z" fill="#F7F7F7"/>
<path fill-rule="evenodd" clip-rule="evenodd" d="M71.7537 185.762C72.1624 183.086 73.1569 180.729 73.5169 179.937C72.8377 166.916 73.7082 156.111 75.0979 147.62L21.6426 185.762H71.7537Z" fill="#F7F7F7"/>
<path fill-rule="evenodd" clip-rule="evenodd" d="M112.759 146.159C113.394 146.052 113.732 145.37 113.458 144.787C112.664 143.098 111.235 139.604 118.487 145.464C118.704 145.639 118.898 145.807 119.082 145.971L119.078 145.956C119.078 145.956 143.62 135.497 143.965 132.554C144.31 129.611 131.039 121.317 131.039 121.317L134.351 113.63C134.351 113.63 148.888 121.075 153.949 130.973C159.138 141.122 128.145 147.532 120.138 150.472C120.138 150.472 120.137 150.473 120.137 150.473C120.137 150.473 118.821 151.16 116.916 151.865L147.633 181.188L184.268 109.369C174.472 106.846 167.233 97.9478 167.233 87.3578C167.233 82.4836 168.768 77.9681 171.378 74.2672L150.82 80.2571C149.619 84.175 148.54 87.7178 147.922 89.7972C146.277 95.3359 139.097 99.7793 135.852 101.247C136.533 103.097 137.374 104.579 138.002 105.545C138.488 106.293 138.351 107.284 137.674 107.867L132.676 112.173C133.241 112.64 133.8 113.124 134.351 113.63L131.039 121.317L120.412 117.37C120.412 117.37 115.299 123.327 107.112 124.777L96.4841 132.36L111.26 146.466C111.72 146.353 112.217 146.25 112.759 146.159Z" fill="#F7F7F7"/>
<path fill-rule="evenodd" clip-rule="evenodd" d="M141.435 82.9913L139.113 83.6678C139.46 84.3225 139.71 84.9909 139.871 85.669C140.321 85.5488 140.781 85.4355 141.252 85.3323C141.252 85.3323 141.252 84.4337 141.435 82.9913Z" fill="#F7F7F7"/>
<path fill-rule="evenodd" clip-rule="evenodd" d="M111.26 146.466L96.4842 132.36L94.9158 133.479L109.215 147.129C109.789 146.884 110.466 146.66 111.26 146.466Z" fill="#99B9EE"/>
<path fill-rule="evenodd" clip-rule="evenodd" d="M141.774 80.921L138.007 82.0185C138.449 82.5565 138.817 83.1071 139.113 83.6677L141.435 82.9914C141.512 82.3878 141.62 81.6895 141.774 80.921Z" fill="#99B9EE"/>
<path fill-rule="evenodd" clip-rule="evenodd" d="M208.669 61.4307L195.412 65.2934C196.507 65.5639 197.571 65.9138 198.597 66.3369L207.549 63.7289L204.428 69.8464C204.929 70.2619 205.412 70.6991 205.875 71.1553L209.889 63.283V59.1401L208.688 61.4947L208.669 61.4307Z" fill="#99B9EE"/>
<path fill-rule="evenodd" clip-rule="evenodd" d="M171.378 74.2672C172.024 73.3512 172.736 72.4846 173.507 71.6753L151.484 78.092C151.26 78.8219 151.038 79.5454 150.82 80.2572L171.378 74.2672Z" fill="#99B9EE"/>
<path fill-rule="evenodd" clip-rule="evenodd" d="M75.0978 147.62C77.5542 132.608 81.6313 124.827 81.6313 124.827L89.2219 129.108C87.0786 132.868 85.3594 137.015 83.9804 141.282L94.9158 133.479L96.4842 132.36L107.112 124.777C103.344 125.444 98.9245 125.157 94.0523 122.894L89.2219 129.108L81.6313 124.827C81.6313 124.827 83.9985 117.212 88.1656 111.173C87.5605 109.841 87.2207 108.364 87.2207 106.806C87.2207 106.806 70.2508 86.5568 97.7786 78.0129C105.52 75.6104 92.3888 76.7104 78.7814 73.7453L57.5036 115.459L47.614 134.847L23.5159 182.089L21.6425 185.762L75.0978 147.62Z" fill="white"/>
<path fill-rule="evenodd" clip-rule="evenodd" d="M197.4 137.023C194.541 137.023 192.223 139.342 192.223 142.204C192.223 145.065 194.541 147.384 197.4 147.384C200.26 147.384 202.578 145.065 202.578 142.204C202.578 139.342 200.26 137.023 197.4 137.023Z" fill="#C5D6F1"/>
<path fill-rule="evenodd" clip-rule="evenodd" d="M198.597 66.337C197.571 65.9139 196.507 65.564 195.412 65.2932C193.662 64.8606 191.832 64.6296 189.948 64.6296C183.48 64.6296 177.644 67.3346 173.507 71.6755C172.736 72.4846 172.024 73.3514 171.378 74.2672C168.768 77.9681 167.233 82.4836 167.233 87.3578C167.233 97.9478 174.471 106.846 184.267 109.369C184.896 109.531 185.535 109.665 186.183 109.774C187.408 109.978 188.665 110.086 189.948 110.086C202.493 110.086 212.662 99.9102 212.662 87.3578C212.662 81.0141 210.064 75.2784 205.875 71.1554C205.412 70.6991 204.929 70.2618 204.428 69.8464C202.685 68.4014 200.722 67.2132 198.597 66.337Z" fill="#C5D6F1"/>
<path fill-rule="evenodd" clip-rule="evenodd" d="M82.5446 23.7081C79.4747 23.7081 76.9859 26.1983 76.9859 29.2702C76.9859 32.342 79.4747 34.8323 82.5446 34.8323C85.6146 34.8323 88.1034 32.342 88.1034 29.2702C88.1034 26.1983 85.6146 23.7081 82.5446 23.7081Z" fill="#C5D6F1"/>
<path fill-rule="evenodd" clip-rule="evenodd" d="M127.084 74.6487C129.323 75.9498 131.675 77.3103 134.044 78.7295H134.044L138.154 59.1401L138.484 57.5649L137.895 57.4852C137.121 57.769 136.619 57.8841 136.619 57.8841C136.15 58.0275 135.682 57.6364 135.297 57.1338L135.157 57.1149C135.157 57.1149 134.867 57.8863 134.37 59.1401C132.982 62.6373 129.972 69.8908 127.084 74.6487Z" fill="#0B4870"/>
<path fill-rule="evenodd" clip-rule="evenodd" d="M147.922 89.7973C148.54 87.7179 149.619 84.1751 150.82 80.2572C151.038 79.5455 151.26 78.8219 151.484 78.0921C153.759 70.6789 156.24 62.6595 156.799 60.8522C156.13 61.0883 155.705 61.1857 155.705 61.1857C155.165 61.3509 154.627 60.8084 154.214 60.2024C153.379 61.4927 151.415 64.2314 146.818 69.8197C143.781 73.5116 142.401 77.7926 141.774 80.9209C141.62 81.6895 141.512 82.3878 141.435 82.9913C141.252 84.4338 141.252 85.3323 141.252 85.3323C140.78 85.4354 140.321 85.5488 139.871 85.6688C140.806 89.615 138.708 93.8826 134.896 97.6427C135.109 98.9523 135.452 100.163 135.852 101.247C139.097 99.7792 146.277 95.336 147.922 89.7973Z" fill="#0B4870"/>
<path fill-rule="evenodd" clip-rule="evenodd" d="M120.412 117.37L131.039 121.317L134.351 113.63C133.8 113.124 133.241 112.64 132.676 112.173L137.674 107.867C138.351 107.284 138.488 106.293 138.002 105.545C137.374 104.579 136.533 103.097 135.851 101.247C135.452 100.163 135.109 98.9522 134.896 97.6426C128.658 103.795 117.836 108.588 108.218 108.387C108.095 109.211 107.874 110.003 107.571 110.754C107.93 111.643 108.129 112.613 108.129 113.63C108.129 117.876 104.69 121.318 100.447 121.318C97.1633 121.318 94.3625 119.256 93.2627 116.356C91.0105 115.288 89.1985 113.446 88.1655 111.173C83.9984 117.212 81.6312 124.827 81.6312 124.827L89.2219 129.108L94.0522 122.894C98.9245 125.157 103.344 125.444 107.112 124.777C115.299 123.327 120.412 117.37 120.412 117.37Z" fill="#347AF0"/>
<path fill-rule="evenodd" clip-rule="evenodd" d="M97.7785 117.37C96.1627 117.37 94.632 117.006 93.2627 116.356C94.3624 119.256 97.1633 121.318 100.447 121.318C104.69 121.318 108.129 117.876 108.129 113.63C108.129 112.613 107.93 111.643 107.571 110.754C106.008 114.632 102.214 117.37 97.7785 117.37Z" fill="#FCD2B1"/>
<path fill-rule="evenodd" clip-rule="evenodd" d="M93.2628 116.356C94.6321 117.006 96.1626 117.37 97.7786 117.37C102.214 117.37 106.008 114.632 107.571 110.754C107.874 110.003 108.095 109.211 108.218 108.387C101.777 108.252 95.8766 105.879 92.2565 100.173L87.2208 106.806C87.2208 108.364 87.5605 109.841 88.1656 111.173C89.1985 113.446 91.0106 115.288 93.2628 116.356Z" fill="#FFE3CA"/>
<path fill-rule="evenodd" clip-rule="evenodd" d="M155.705 61.1856C155.705 61.1856 156.13 61.0883 156.799 60.8522C157.666 60.5466 158.943 60.0062 160.247 59.1401C161.891 58.049 163.576 56.4412 164.534 54.1269L153.472 58.8264C153.472 58.8264 153.523 58.9498 153.613 59.1401C153.743 59.4116 153.953 59.8192 154.214 60.2024C154.627 60.8084 155.165 61.3509 155.705 61.1856Z" fill="#0B4870"/>
<path fill-rule="evenodd" clip-rule="evenodd" d="M136.619 57.884C136.619 57.884 137.122 57.7691 137.895 57.4852C139.912 56.7451 143.78 54.8527 145.449 50.8253L134.386 55.5247C134.386 55.5247 134.762 56.4367 135.297 57.1338C135.682 57.6363 136.15 58.0276 136.619 57.884Z" fill="#0B4870"/>
<path fill-rule="evenodd" clip-rule="evenodd" d="M97.7785 78.013C70.2507 86.5569 87.2207 106.806 87.2207 106.806L92.2564 100.173C95.8767 105.879 101.777 108.252 108.218 108.387C117.836 108.588 128.658 103.795 134.896 97.6427C138.708 93.8825 140.806 89.6152 139.871 85.6688C139.71 84.9909 139.46 84.3225 139.114 83.6678C138.817 83.107 138.449 82.5564 138.007 82.0184C137.05 80.8539 135.745 79.7484 134.044 78.7294H134.044C131.675 77.3104 129.323 75.9497 127.084 74.6486C115.091 67.6785 106.368 62.4266 115.851 59.1401C116.86 58.7905 118.074 58.4629 119.512 58.1582C137.001 54.4528 147.546 43.485 131.936 40.1695C77.3235 28.5694 49.1296 61.2154 67.5541 70.069C71.0247 71.7367 74.9223 72.9043 78.7815 73.7454C92.3888 76.7105 105.52 75.6103 97.7785 78.013Z" fill="#FDB32A"/>
<path fill-rule="evenodd" clip-rule="evenodd" d="M120.138 150.472C128.145 147.532 159.139 141.122 153.949 130.973C148.888 121.075 134.351 113.63 134.351 113.63L131.039 121.317C131.039 121.317 144.31 129.611 143.965 132.554C143.62 135.497 119.078 145.956 119.078 145.956L119.082 145.971C118.898 145.807 118.704 145.639 118.487 145.464C111.235 139.604 112.664 143.098 113.458 144.787C113.733 145.37 113.394 146.052 112.759 146.159C112.217 146.25 111.72 146.353 111.26 146.466C110.466 146.66 109.789 146.884 109.215 147.129C104.272 149.241 106.887 152.93 106.887 152.93C109.27 153.767 112.313 153.288 114.882 152.539C115.606 152.328 116.292 152.096 116.916 151.865C118.821 151.16 120.137 150.473 120.137 150.473L120.138 150.472Z" fill="#FCD2B1"/>
<path fill-rule="evenodd" clip-rule="evenodd" d="M79.2595 185.762C79.471 185.679 79.7145 185.667 79.9528 185.752C79.9616 185.755 79.9706 185.759 79.9793 185.762C80.9785 186.117 82.5465 186.604 82.544 185.762C82.542 185.115 81.6149 183.685 78.7924 180.809C78.6717 180.687 78.5541 180.571 78.4384 180.46C78.4181 175.395 78.7479 157.473 83.9805 141.282C85.3595 137.015 87.0785 132.868 89.222 129.108L81.6312 124.827C81.6312 124.827 77.5543 132.608 75.0979 147.62C73.7083 156.111 72.8377 166.916 73.5169 179.937C73.1568 180.729 72.1625 183.086 71.7537 185.762C71.5469 187.115 71.4894 188.549 71.7415 189.902C71.7417 189.903 71.7421 189.904 71.7423 189.905C72.1132 191.872 78.0217 191.011 78.2517 189.992C78.2581 189.964 78.2638 189.933 78.2699 189.905C78.4415 189.106 78.5534 188.053 78.6563 186.582C78.6833 186.191 78.9325 185.89 79.2595 185.762Z" fill="#FCD2B1"/>
</svg>
