<svg width="276" height="232" viewBox="0 0 276 232" fill="none" xmlns="http://www.w3.org/2000/svg">
<path d="M267.283 47.7463C263.562 41.4254 257.57 36.4453 250.647 34.01C247.664 32.9702 244.079 32.4776 241.644 34.4751C239.209 36.4726 240.057 41.5896 243.204 41.5075C233.49 34.7761 221.779 30.9726 209.958 30.6716C207.002 30.5896 203.637 30.9179 201.776 33.2164C199.888 35.5149 201.475 40.0572 204.376 39.5373C195.455 33.8184 183.689 35.5697 173.701 39.1269C170.801 40.1667 167.928 41.3159 165.055 42.4652C161.908 43.7239 162.838 48.403 166.231 48.3756L267.283 47.7463Z" fill="#E0E9F8"/>
<path d="M13.4353 17.1294C9.71394 18.0323 5.93782 14.9403 6.73135 12.3408C7.52488 9.74129 11.1368 7.96269 14.7761 6.89552C23.0124 4.48756 32.7811 4.51493 40.9901 6.97761C39.0746 5.99254 39.2388 3.91294 40.7438 2.68159C42.2761 1.45025 44.7115 0.902986 47.0647 0.601991C58.2836 -0.820894 70.5697 2.46269 77.1642 8.70149C75.0025 7.16916 76.1791 4.43284 78.7786 3.28358C81.3781 2.13433 84.8259 2.13433 87.9179 2.51741C101.216 4.10448 112.49 8.94776 115.035 17.8134L13.4353 17.1294Z" fill="#E0E9F8"/>
<path opacity="0.8" d="M7.38794 218.542C18.0869 197.965 29.8531 177.935 42.6317 158.59C47.776 150.791 53.577 142.692 62.2238 139.107C69.8034 135.96 78.669 136.891 86.1392 140.338C93.582 143.786 99.7661 149.56 104.883 155.99C109.288 161.49 113.995 168.112 121.027 168.687C128.525 169.316 134.463 162.749 139.087 156.784C154.274 137.219 169.46 117.627 184.647 98.0622C189.681 91.5771 195.893 84.49 204.075 84.5174C211.408 84.5448 217.346 90.3458 221.915 96.092C248.731 129.721 259.184 173.147 268.898 215.012L7.38794 218.542Z" fill="#C5D6F1"/>
<path opacity="0.5" d="M255.408 179.55C266.228 179.55 275 170.778 275 159.958C275 149.137 266.228 140.366 255.408 140.366C244.588 140.366 235.816 149.137 235.816 159.958C235.816 170.778 244.588 179.55 255.408 179.55Z" fill="#C3D6F3"/>
<path d="M255.298 214.027C254.997 213.973 254.806 213.699 254.806 213.398V165.978C254.806 165.649 255.052 165.348 255.381 165.348C255.736 165.321 256.01 165.595 256.01 165.95V213.453C256.01 213.808 255.682 214.109 255.298 214.027Z" fill="#99B9EE"/>
<path d="M255.408 169.918C255.244 169.918 255.107 169.863 254.97 169.754C254.724 169.507 254.724 169.124 254.97 168.905L260.333 163.542C260.58 163.296 260.963 163.296 261.182 163.542C261.428 163.789 261.428 164.172 261.182 164.391L255.846 169.754C255.709 169.863 255.572 169.918 255.408 169.918Z" fill="#99B9EE"/>
<path d="M255.408 174.898C255.244 174.898 255.107 174.843 254.97 174.734C254.724 174.488 254.724 174.104 254.97 173.886L260.333 168.522C260.58 168.276 260.963 168.276 261.182 168.522C261.428 168.769 261.428 169.152 261.182 169.371L255.846 174.734C255.709 174.843 255.572 174.898 255.408 174.898Z" fill="#99B9EE"/>
<path opacity="0.5" d="M30.5098 181.903C47.2693 181.903 60.8556 168.317 60.8556 151.557C60.8556 134.798 47.2693 121.211 30.5098 121.211C13.7503 121.211 0.164062 134.798 0.164062 151.557C0.164062 168.317 13.7503 181.903 30.5098 181.903Z" fill="#D1E0F6"/>
<path d="M30.5098 211.51C30.1267 211.51 29.8257 211.209 29.8257 210.826V151.557C29.8257 151.174 30.1267 150.873 30.5098 150.873C30.8928 150.873 31.1938 151.174 31.1938 151.557V210.799C31.2212 211.182 30.8928 211.51 30.5098 211.51Z" fill="#99B9EE"/>
<path d="M30.5099 167.948C30.3458 167.948 30.1542 167.893 30.0174 167.756L21.5348 159.274C21.2612 159 21.2612 158.562 21.5348 158.289C21.8084 158.015 22.2463 158.015 22.5199 158.289L31.0025 166.799C31.2761 167.072 31.2761 167.51 31.0025 167.784C30.8657 167.893 30.7015 167.948 30.5099 167.948Z" fill="#99B9EE"/>
<path d="M30.5099 175.856C30.3458 175.856 30.1542 175.801 30.0174 175.664L21.5348 167.182C21.2612 166.908 21.2612 166.47 21.5348 166.197C21.8084 165.923 22.2463 165.923 22.5199 166.197L31.0025 174.679C31.2761 174.953 31.2761 175.391 31.0025 175.664C30.8657 175.774 30.7015 175.856 30.5099 175.856Z" fill="#99B9EE"/>
<path d="M12.4502 208.281H263.836C267.803 208.281 271.005 211.483 271.005 215.45V224.425C271.005 228.393 267.803 231.595 263.836 231.595H12.4502C8.4825 231.595 5.28101 228.393 5.28101 224.425V215.45C5.28101 211.51 8.4825 208.281 12.4502 208.281Z" fill="#E0E9F8"/>
<path fill-rule="evenodd" clip-rule="evenodd" d="M176.43 111.083C195.128 111.083 210.287 95.9255 210.287 77.2271C210.287 58.5287 195.128 43.3707 176.43 43.3707C157.732 43.3707 142.574 58.5287 142.574 77.2271C142.574 95.9255 157.732 111.083 176.43 111.083Z" stroke="#FFBE55"/>
<path d="M171.15 116.364C178.138 119.781 176.097 126.326 176.097 126.326C176.097 126.326 172.192 131.961 165.181 128.544C158.193 125.127 150.76 113.946 150.76 113.946C150.76 113.946 164.161 112.947 171.15 116.364Z" fill="#99B9EE"/>
<path d="M171.15 116.364C178.138 119.781 176.097 126.326 176.097 126.326L150.76 113.946C150.76 113.946 164.161 112.947 171.15 116.364Z" fill="#E0E9F8"/>
<path d="M182.287 152.994C175.299 156.41 177.34 162.955 177.34 162.955C177.34 162.955 181.245 168.591 188.255 165.174C195.244 161.757 202.677 150.575 202.677 150.575C202.677 150.575 189.298 149.577 182.287 152.994Z" fill="#99B9EE"/>
<path d="M182.287 152.994C175.299 156.41 177.34 162.955 177.34 162.955L202.677 150.575C202.677 150.575 189.298 149.577 182.287 152.994Z" fill="#E4ECF8"/>
<path d="M198.461 211.233C189.564 222.348 176.097 217.29 176.097 217.29C176.097 217.29 168.199 205.265 177.096 194.127C185.992 182.99 210.775 173.915 210.775 173.915C210.775 173.915 207.358 200.095 198.461 211.233Z" fill="#E0E9F8"/>
<path d="M198.461 211.233C189.565 222.348 176.097 217.29 176.097 217.29L210.775 173.915C210.775 173.915 207.358 200.095 198.461 211.233Z" fill="#99B9EE"/>
<path d="M154.554 211.233C163.451 222.348 176.918 217.29 176.918 217.29C176.918 217.29 184.817 205.265 175.92 194.127C167.023 183.012 142.241 173.915 142.241 173.915C142.241 173.915 145.658 200.095 154.554 211.233Z" fill="#E0E9F8"/>
<path d="M154.554 211.233C163.451 222.348 176.918 217.29 176.918 217.29L142.241 173.915C142.241 173.915 145.658 200.095 154.554 211.233Z" fill="#99B9EE"/>
<rect x="175.787" y="95.6196" width="1.28681" height="121.936" fill="#99B9EE"/>
<path d="M152.424 46.4103C149.696 46.4103 147.499 48.6289 147.499 51.3356C147.499 48.6067 145.28 46.4103 142.574 46.4103C145.303 46.4103 147.499 44.1916 147.499 41.4849C147.477 44.1916 149.696 46.4103 152.424 46.4103Z" fill="#FFBE55"/>
<path fill-rule="evenodd" clip-rule="evenodd" d="M154.776 46.4102C150.738 46.4102 147.477 49.6716 147.477 53.7096C147.477 49.6716 144.215 46.4102 140.177 46.4102C144.215 46.4102 147.477 43.1488 147.477 39.1109C147.477 43.1488 150.76 46.4102 154.776 46.4102Z" stroke="#FFBE55"/>
<path d="M217.009 86.4788C215.434 86.4788 214.147 87.7656 214.147 89.3187C214.147 87.7434 212.86 86.4788 211.307 86.4788C212.882 86.4788 214.147 85.192 214.147 83.639C214.147 85.192 215.434 86.4788 217.009 86.4788Z" fill="#FFBE55"/>
<path fill-rule="evenodd" clip-rule="evenodd" d="M218.362 86.4788C216.033 86.4788 214.147 88.3647 214.147 90.6942C214.147 88.3647 212.261 86.4788 209.931 86.4788C212.261 86.4788 214.147 84.593 214.147 82.2634C214.147 84.593 216.033 86.4788 218.362 86.4788Z" stroke="#FFBE55" stroke-width="0.75"/>
<path d="M171.46 99.7463H181.289V104.649C181.289 107.356 179.092 109.553 176.386 109.553C173.679 109.553 171.482 107.356 171.482 104.649V99.7463H171.46Z" fill="#99B9EE"/>
<path d="M176.43 104.783C191.648 104.783 203.985 92.4456 203.985 77.2271C203.985 62.0086 191.648 49.6716 176.43 49.6716C161.212 49.6716 148.875 62.0086 148.875 77.2271C148.875 92.4456 161.212 104.783 176.43 104.783Z" fill="#FFBE55"/>
<path fill-rule="evenodd" clip-rule="evenodd" d="M176.43 97.9048C187.85 97.9048 197.108 88.6471 197.108 77.2271C197.108 65.8071 187.85 56.5494 176.43 56.5494C165.01 56.5494 155.752 65.8071 155.752 77.2271C155.752 88.6471 165.01 97.9048 176.43 97.9048Z" stroke="#F7F7F7"/>
<path d="M177.45 68.4635C179.314 68.8185 180.423 70.2162 180.423 72.4349V72.7898L177.85 73.0339V72.6345C177.85 71.3921 177.406 70.8152 176.43 70.8152C175.631 70.8152 175.077 71.3033 175.077 72.3017V72.6345C175.077 73.6107 175.609 74.4316 177.34 76.0069C179.713 78.2033 180.534 79.6232 180.534 81.5313V81.9528C180.534 84.1714 179.336 85.5248 177.45 85.8576V87.6991H175.343V85.8576C173.479 85.4582 172.303 84.0605 172.303 81.8862V80.8879L174.877 80.6438V81.7088C174.877 82.9512 175.387 83.528 176.43 83.528C177.206 83.528 177.894 83.0399 177.894 82.0415V81.6644C177.894 80.6882 177.362 79.8673 175.631 78.2921C173.257 76.0956 172.436 74.6757 172.436 72.7676V72.3905C172.436 70.194 173.523 68.8407 175.365 68.4857V66.9104H177.473V68.4635H177.45Z" fill="#F7F7F7"/>
<path d="M129.659 146.966L125.062 148.439L124.389 148.119L123.092 146.838L123.22 144.739L125.767 144.675L129.659 146.966Z" fill="#FCD2B1"/>
<path d="M114.346 120.056C114.346 120.056 112.777 138.188 125.751 144.675C125.222 145.3 123.044 146.293 123.044 146.293C123.044 146.293 110.342 138.589 110.79 130.035C111.239 121.482 114.346 120.056 114.346 120.056Z" fill="#EFAE35"/>
<path d="M89.7594 202.723C89.7594 202.723 91.4572 210.571 92.7066 214.111C92.8507 214.528 92.3222 214.864 92.0178 214.56C89.9195 212.493 87.0044 208.313 86.0433 207.352C84.842 206.15 83 203.908 83 203.908L87.4048 200.032L90.304 201.489L89.7594 202.723Z" fill="#0B4870"/>
<path d="M105.521 208.489C105.521 208.489 112.52 212.397 116.012 213.823C116.428 213.999 116.332 214.608 115.884 214.64C112.953 214.848 107.875 214.271 106.53 214.351C104.848 214.463 101.933 214.351 101.933 214.351V208.489L104.944 207.272L105.521 208.489Z" fill="#083751"/>
<path d="M112.616 140.607C112.616 140.607 111.944 175.637 111.559 176.422C111.175 177.191 105.521 208.505 105.521 208.505H101.933C101.933 208.505 102.573 175.781 103.983 174.564C103.983 171.681 103.006 140.895 105.745 138.701C109.749 138.461 112.616 140.607 112.616 140.607Z" fill="#0B4870"/>
<path d="M100.475 137.227C95.3015 141.039 94.2604 158.851 99.5301 172.61C96.0863 178.793 85.7871 203.315 85.7871 203.315L88.8304 205.141C88.8304 205.141 109.829 176.262 109.028 173.283C108.228 170.303 109.749 138.445 109.749 138.445L100.475 137.227Z" fill="#0B4870"/>
<path d="M115.323 116.036C115.435 116.469 115.58 116.901 115.756 117.317C116.877 119.976 118.415 125.47 118.302 126.383C118.174 127.376 114.667 130.756 113.738 133.335C112.809 135.914 112.648 140.607 112.648 140.607L100.507 137.227C100.507 137.227 103.887 128.898 104.015 125.134C104.143 121.37 105.44 113.585 110.23 112.801C113.882 112.192 115.003 114.819 115.323 116.036Z" fill="#FDB32A"/>
<path d="M119.023 100.147C119.248 99.5861 119.167 98.9454 118.815 98.4489C116.989 95.9662 113.706 94.5726 110.662 95.1172C107.283 95.7259 104.447 98.6411 103.935 102.037C103.743 103.35 103.855 104.696 103.582 105.993C103.262 107.515 102.381 108.924 101.148 109.869C99.6102 111.055 97.624 111.503 95.9101 112.432C94.1802 113.377 92.7547 114.787 91.5373 116.34C90.32 117.894 89.2629 119.64 88.9265 121.594C88.5901 123.548 89.0707 125.711 90.5282 127.04C91.4573 127.889 92.6586 128.321 93.8439 128.722C96.2144 129.523 98.6972 130.244 101.18 129.971C103.663 129.699 106.177 128.225 106.946 125.839C108.019 122.475 105.376 118.935 105.857 115.443C106.193 113.073 107.923 111.119 109.845 109.693C111.767 108.268 113.946 107.178 115.772 105.641C117.133 104.503 118.431 101.588 119.023 100.147Z" fill="#0B4870"/>
<path d="M115.74 110.206C115.131 111.455 114.57 114.739 115.099 116.132C115.58 117.51 115.403 117.734 115.403 117.734L110.07 113.361L111.303 107.355L115.74 110.206Z" fill="#FCD2B1"/>
<path d="M120.08 105.16C120.08 108.252 119.28 111.407 116.717 111.407C114.154 111.407 110.79 108.252 110.79 105.16C110.79 102.069 112.873 99.5541 115.435 99.5541C117.998 99.5541 120.08 102.069 120.08 105.16Z" fill="#FFE3CA"/>
<path d="M119.808 98.9935C120.721 98.9134 121.346 99.8904 120.897 100.675C120.016 102.261 118.447 103.847 114.795 103.398C113.129 103.19 110.47 103.398 110.31 104.519L109.028 101.476C109.028 101.476 109.349 99.5541 109.669 99.5541C109.989 99.5541 113.161 99.5541 113.161 99.5541L119.808 98.9935Z" fill="#0B4870"/>
<path d="M112.873 103.078C112.392 104.039 112.136 105.753 111.495 106.073C110.694 105.609 109.701 103.19 109.765 103.206C109.829 103.222 110.63 102.742 110.79 102.742C110.95 102.742 112.873 103.078 112.873 103.078Z" fill="#0B4870"/>
<path d="M111.669 107.609C112.121 107.406 112.223 106.653 111.897 105.926C111.57 105.2 110.939 104.776 110.488 104.979C110.036 105.182 109.934 105.936 110.26 106.662C110.587 107.388 111.218 107.812 111.669 107.609Z" fill="#FFE3CA"/>
<path d="M111.255 108.62C111.715 108.62 112.088 108.247 112.088 107.787C112.088 107.327 111.715 106.954 111.255 106.954C110.795 106.954 110.422 107.327 110.422 107.787C110.422 108.247 110.795 108.62 111.255 108.62Z" fill="#FFBE55"/>
<path d="M124.373 165.354L114.426 156.56C114.074 156.256 114.042 155.711 114.346 155.359L120.513 147.751C120.817 147.398 121.362 147.366 121.714 147.671L132.286 157.009C132.638 157.313 132.67 157.858 132.366 158.21L125.574 165.274C125.254 165.626 124.726 165.658 124.373 165.354Z" fill="#99B9EE"/>
<path d="M134.16 168.189L125.062 163.976L127.417 161.253L134.913 166.235L135.025 166.315L134.16 168.189Z" fill="#99B9EE"/>
<path fill-rule="evenodd" clip-rule="evenodd" d="M125.254 147.094C127.737 146.229 129.755 146.469 131.036 147.574C132.334 148.696 132.862 150.698 132.334 153.341L131.229 158.803L119.856 148.984L125.254 147.094ZM131.533 153.197C131.997 150.922 131.629 149.144 130.508 148.183C129.403 147.222 127.641 147.11 125.526 147.863L121.426 149.288L130.7 157.313L131.533 153.197Z" fill="#99B9EE"/>
<path d="M134.16 168.189C133.583 167.116 134.176 166.539 134.913 166.235L135.025 166.315L134.16 168.189Z" fill="#99B9EE"/>
<path d="M107.491 117.173C107.266 124.445 110.214 143.09 115.74 150.442C116.685 149.945 117.71 149.384 117.71 149.384C117.71 149.384 110.662 133.175 112.921 119.56C113.161 117.878 112.921 116.677 112.408 115.844C111.063 113.585 107.571 114.562 107.491 117.173Z" fill="#EFAE35"/>
<path d="M115.74 150.458C115.74 150.458 117.325 153.741 117.71 154.094C118.078 154.446 120.801 155.904 121.57 156.192C122.339 156.464 120.529 154.814 120.529 154.814C120.529 154.814 121.939 155.711 122.595 156.064C122.691 156.112 122.771 156 122.707 155.92C122.211 155.327 120.993 154.366 120.993 154.366C120.993 154.366 122.9 155.503 123.748 155.952C123.845 156 123.925 155.888 123.861 155.807C123.252 155.231 121.874 154.158 121.634 154.03C122.643 154.462 123.364 154.878 123.813 155.087C123.877 155.119 123.925 155.039 123.877 154.991C122.996 154.19 119.248 151.531 119.055 151.483C118.287 151.307 117.566 149.481 117.566 149.481L115.74 150.458Z" fill="#FCD2B1"/>
<path d="M125.062 148.439L124.389 148.119L124.309 148.007C124.309 148.007 126.119 146.165 126.584 145.957C126.888 145.829 128.169 146.325 128.986 146.661C129.226 146.758 129.21 147.11 128.954 147.19C127.657 147.607 125.062 148.439 125.062 148.439Z" fill="#FFE4D2"/>
<path d="M136.258 167.212L158.506 177.671" stroke="#CCE9FF" stroke-dasharray="12 14"/>
<path d="M135.025 169.262L149.44 196.78" stroke="#CCE9FF" stroke-dasharray="12 14"/>
<path d="M139.542 171.953L158.506 196.78" stroke="#CCE9FF" stroke-dasharray="12 14"/>
<path d="M143.93 173.763L159.019 185.167" stroke="#CCE9FF" stroke-dasharray="12 14"/>
</svg>
