<svg width="318" height="214" viewBox="0 0 318 214" fill="none" xmlns="http://www.w3.org/2000/svg">
<path fill-rule="evenodd" clip-rule="evenodd" d="M311.12 174.688C311.12 174.688 315.113 148.443 289.449 135.556C263.786 122.67 258.652 111.125 276.128 81.1374C293.603 51.1499 292.167 1.03424 195.62 0.800424C99.073 0.566611 115.45 94.5209 72.4719 74.748C29.4936 54.975 -17.065 110.267 6.21429 142.597C10.4728 148.511 13.9842 155.111 17.2325 159.402C25.8223 170.75 32.6485 174.927 32.6485 174.927L311.12 174.688Z" fill="#E3EAF8"/>
<path fill-rule="evenodd" clip-rule="evenodd" d="M78.49 21.868C85.5883 18.558 94.0561 21.6401 97.366 28.7383C100.676 35.8366 97.594 44.3044 90.4957 47.6144C83.3972 50.9245 74.9297 47.8423 71.6197 40.744C68.3097 33.6458 71.3917 25.178 78.49 21.868ZM91.5875 49.9558C99.9901 46.0376 103.626 36.0494 99.7075 27.6465C97.8137 23.5853 94.5002 20.6418 90.6344 19.1228C86.5027 17.4986 81.7398 17.5021 77.3982 19.5266C69.0116 23.4373 65.3754 33.394 69.2569 41.7868C69.2645 41.803 69.2707 41.8196 69.2783 41.8359C73.1966 50.2387 83.185 53.874 91.5875 49.9558Z" fill="#C5D6F1"/>
<path fill-rule="evenodd" clip-rule="evenodd" d="M85.1576 32.7693C85.4447 32.4388 85.488 31.9696 85.2427 31.4435C85.0088 30.942 84.6327 30.6975 84.2001 30.716C84.0399 30.7227 83.8721 30.7661 83.7007 30.846L81.9152 31.6786L82.9546 33.9077L84.7401 33.075C84.9115 32.9951 85.0511 32.8912 85.1576 32.7693Z" fill="#E0E9F8"/>
<path fill-rule="evenodd" clip-rule="evenodd" d="M87.3143 37.3944C87.7831 36.9982 87.9077 36.4306 87.6164 35.8059C87.349 35.2325 86.8394 34.9744 86.236 35.0819C86.0791 35.1094 85.9164 35.1614 85.7493 35.2393L83.9637 36.0719L85.0876 38.4821L86.8809 37.6661C87.0477 37.5883 87.1924 37.4969 87.3143 37.3944Z" fill="#E0E9F8"/>
<path fill-rule="evenodd" clip-rule="evenodd" d="M79.7117 28.0475L80.4024 29.5287L81.2408 29.1378L80.5501 27.6566L82.3765 26.8049L83.0723 28.2972C84.9469 27.5674 86.5997 28.1386 87.3786 29.8089C87.9366 31.0057 87.7923 32.2508 87.0087 33.0159C88.2729 32.7861 89.4967 33.5921 90.1853 35.0679C91.0776 36.9815 90.3852 38.7831 88.425 39.7761L89.2119 41.4636L87.3855 42.3153L86.6 40.6308L85.7616 41.0217L86.5471 42.7063L84.721 43.5578L83.9356 41.8733L82.5744 42.508L81.4813 40.1638L82.7835 39.5566L79.611 32.7532L78.3088 33.3604L77.2152 31.0149L78.5763 30.3802L77.8856 28.8991L79.7117 28.0475ZM71.6196 40.7442C74.9295 47.8425 83.397 50.9246 90.4956 47.6145C97.5942 44.3044 100.676 35.8367 97.3659 28.7385C94.0559 21.6402 85.5884 18.5581 78.4899 21.8682C71.3916 25.1781 68.3096 33.6459 71.6196 40.7442Z" fill="#E0E9F8"/>
<path fill-rule="evenodd" clip-rule="evenodd" d="M83.9636 36.0718L85.7491 35.2392C85.9162 35.1613 86.0789 35.1094 86.2358 35.0818C86.8396 34.9742 87.3492 35.2323 87.6165 35.8057C87.9078 36.4304 87.7833 36.998 87.3142 37.3944C87.1922 37.4969 87.0475 37.5883 86.8808 37.666L85.0875 38.4821L83.9636 36.0718ZM81.915 31.6786L83.7006 30.846C83.8719 30.7661 84.04 30.7225 84.2 30.7159C84.6326 30.6974 85.0087 30.9419 85.2425 31.4434C85.4878 31.9695 85.4445 32.4388 85.1575 32.7693C85.0512 32.891 84.9113 32.9951 84.74 33.075L82.9544 33.9076L81.915 31.6786ZM78.576 30.3802L77.2152 31.0148L78.3089 33.3602L79.6111 32.753L82.7836 39.5564L81.4814 40.1636L82.5745 42.5078L83.9353 41.8732L84.7208 43.5577L86.5472 42.7061L85.7617 41.0216L86.6001 40.6306L87.3856 42.3151L89.2117 41.4636L88.4248 39.776C90.3852 38.7829 91.0777 36.9813 90.1854 35.0677C89.4968 33.5919 88.273 32.7859 87.0087 33.0157C87.7923 32.2506 87.9364 31.0057 87.3783 29.8089C86.5994 28.1385 84.9467 27.5673 83.0721 28.2971L82.3762 26.8049L80.5501 27.6564L81.2408 29.1376L80.4024 29.5286L79.7117 28.0474L77.8853 28.899L78.576 30.3802Z" fill="white"/>
<path fill-rule="evenodd" clip-rule="evenodd" d="M37.2362 128.786C41.9354 128.786 45.7585 132.61 45.7585 137.309C45.7585 142.008 41.9354 145.831 37.2362 145.831C32.5367 145.831 28.7138 142.008 28.7138 137.309C28.7138 132.61 32.5369 128.786 37.2362 128.786ZM37.2362 147.381C42.7989 147.381 47.3086 142.872 47.3086 137.309C47.3086 134.62 46.2532 132.179 44.5362 130.373C42.7013 128.442 40.1104 127.236 37.2362 127.236C31.684 127.236 27.182 131.729 27.1645 137.277C27.1645 137.287 27.1637 137.298 27.1637 137.309C27.1637 142.872 31.6734 147.381 37.2362 147.381Z" fill="#C5D6F1"/>
<path fill-rule="evenodd" clip-rule="evenodd" d="M38.0977 136.405C38.3376 136.298 38.4802 136.054 38.4802 135.706C38.4802 135.374 38.3376 135.145 38.0977 135.046C38.0089 135.009 37.9066 134.99 37.7932 134.99H36.6111V136.466H37.7932C37.9066 136.466 38.0089 136.444 38.0977 136.405Z" fill="#E0E9F8"/>
<path fill-rule="evenodd" clip-rule="evenodd" d="M38.0977 139.467C38.4531 139.37 38.6648 139.093 38.6648 138.68C38.6648 138.3 38.4531 138.031 38.0977 137.936C38.0054 137.911 37.9038 137.898 37.7932 137.898H36.6111V139.494L37.7932 139.505C37.9036 139.505 38.0054 139.492 38.0977 139.467Z" fill="#E0E9F8"/>
<path fill-rule="evenodd" clip-rule="evenodd" d="M36.3336 132.457V133.437H36.8887V132.457H38.0978V133.444C39.3022 133.523 40.0561 134.253 40.0561 135.358C40.0561 136.151 39.6619 136.791 39.0418 137.009C39.7875 137.204 40.2487 137.953 40.2489 138.93C40.2489 140.197 39.4155 141.001 38.0978 141.044V142.161H36.8887V141.046H36.3336V142.161H35.1247V141.046H34.2236V139.494H35.0857V134.99H34.2236V133.437H35.1247V132.457H36.3336ZM28.7137 137.309C28.7137 142.008 32.5367 145.831 37.2361 145.831C41.9356 145.831 45.7585 142.008 45.7585 137.309C45.7585 132.61 41.9356 128.786 37.2361 128.786C32.5369 128.786 28.7137 132.61 28.7137 137.309Z" fill="#E0E9F8"/>
<path fill-rule="evenodd" clip-rule="evenodd" d="M36.611 137.898H37.793C37.9036 137.898 38.0053 137.911 38.0976 137.936C38.4532 138.031 38.6649 138.3 38.6649 138.68C38.6649 139.093 38.4532 139.37 38.0976 139.467C38.0053 139.492 37.9034 139.505 37.793 139.505L36.611 139.494V137.898ZM36.611 134.99H37.793C37.9065 134.99 38.009 135.009 38.0976 135.046C38.3375 135.145 38.48 135.374 38.48 135.706C38.48 136.054 38.3375 136.298 38.0976 136.405C38.009 136.444 37.9065 136.465 37.793 136.465H36.611V134.99ZM35.1245 133.437H34.2236V134.99H35.0857V139.494H34.2236V141.046H35.1245V142.161H36.3336V141.046H36.8887V142.161H38.0976V141.044C39.4155 141.001 40.2489 140.197 40.2489 138.93C40.2487 137.953 39.7876 137.204 39.0418 137.009C39.6619 136.791 40.0559 136.151 40.0559 135.358C40.0559 134.253 39.3021 133.523 38.0976 133.444V132.456H36.8887V133.437H36.3336V132.456H35.1245V133.437Z" fill="white"/>
<rect opacity="0.5" x="119.365" y="142.972" width="12.5023" height="31.3879" fill="#C5D6F1"/>
<rect x="147.537" y="115.418" width="12.5032" height="58.9426" fill="#BCD1F3"/>
<rect opacity="0.5" x="175.712" y="121.513" width="12.5023" height="52.8474" fill="#C5D6F1"/>
<rect x="203.885" y="91.6747" width="12.5028" height="82.6857" fill="#BCD1F3"/>
<path d="M146.717 40.1862C146.653 39.1167 144.803 36.9385 145.085 36.6655C145.288 36.4695 146.009 37.1428 146.397 37.5363C146.443 37.5823 146.511 37.5975 146.571 37.5754C146.632 37.5533 146.674 37.4981 146.679 37.4336C146.764 36.383 147.027 33.4422 147.32 33.4146C147.618 33.3865 147.766 35.2467 147.808 35.8712C147.809 35.8901 147.823 35.9057 147.842 35.908C147.861 35.9103 147.879 35.8993 147.885 35.8813C148.114 35.2205 148.885 33.0873 149.216 33.3612C149.531 33.6217 149.042 35.6646 148.84 36.4506C148.835 36.4699 148.845 36.4902 148.864 36.4976C148.882 36.5049 148.903 36.4976 148.914 36.4801C149.312 35.7759 150.362 33.9907 150.645 34.2186C150.934 34.451 150.121 36.3862 149.819 37.0728C149.811 37.0908 149.818 37.112 149.834 37.1225C149.851 37.1331 149.873 37.1299 149.886 37.1152C150.341 36.6016 151.531 35.2927 151.524 35.6775C151.516 36.1529 149.425 40.1071 148.74 40.7689C148.055 41.432 146.717 40.1862 146.717 40.1862Z" fill="#FA968C"/>
<path d="M127.943 53.4212C129.361 56.5618 131.4 60.1289 133.867 62.5773C138.665 67.3267 144.824 66.086 146.974 54.9786C147.348 53.3048 147.609 51.6383 147.828 49.9751C148.275 46.6523 148.448 43.3397 148.601 40.0371C148.624 39.5373 148.237 39.113 147.738 39.09C147.285 39.0688 146.894 39.3841 146.808 39.8148L146.804 39.8332C146.154 43.0396 145.5 46.2395 144.661 49.3524C144.23 50.9034 143.783 52.4414 143.262 53.9238C142.811 55.3279 140.997 59.6903 139.587 60.1174C139.54 60.1096 139.494 60.1703 139.467 60.1441C139.441 60.1202 139.428 60.1179 139.412 60.1321C139.386 60.0972 139.368 60.082 139.345 60.0866C139.267 60.024 139.176 60.0134 139.009 59.8776C138.702 59.6761 138.281 59.2784 137.882 58.7823C137.063 57.8122 136.301 56.53 135.63 55.199C134.467 52.9417 133.793 51.3185 133.793 51.3185C132.36 47.3914 126.42 49.2719 127.854 53.204C127.881 53.2753 127.912 53.3526 127.943 53.4212Z" fill="#FA968C"/>
<path d="M137.463 57.6479C137.458 57.6401 137.452 57.6327 137.447 57.6249C136.722 56.5645 136.05 55.4568 135.431 54.3205C134.817 53.2118 134.191 51.9798 133.753 50.9314L133.731 50.879C133.696 50.7952 133.657 50.7124 133.614 50.6305C132.799 49.0832 130.885 48.4895 129.338 49.3037C127.791 50.1182 127.197 52.0323 128.011 53.5796C128.775 55.0306 129.515 56.2175 130.359 57.4666C130.931 58.2908 131.539 59.0907 132.166 59.8781C132.632 59.3802 136.349 58.0474 137.463 57.6479Z" fill="#FFBE55"/>
<path d="M134.363 79.6344C131.608 82.7947 115.71 84.1137 115.71 84.1137C114.537 82.7519 116.252 76.5624 116.666 70.2795C117.113 63.4862 117.371 55.9883 117.489 51.937C117.538 50.265 118.906 48.9387 120.579 48.9387H130.668C132.223 48.9387 133.517 50.1251 133.645 51.6752C133.91 54.8829 134.371 60.458 134.825 65.924C135.285 71.4696 136.743 76.9025 134.363 79.6344Z" fill="#FAB9AF"/>
<path d="M125.192 132.449L125.215 138.702L124.671 141.747C124.578 142.274 124.967 142.762 125.503 142.778C128.063 142.857 134.618 143.03 134.793 142.746C135.617 141.412 131.892 140.899 129.166 139.844C126.441 138.79 128.321 128.441 128.321 128.441L125.192 132.449Z" fill="#FA968C"/>
<path d="M129.166 139.844C129.152 139.839 129.139 139.829 129.125 139.823C128.476 140.065 127.745 140.208 126.921 140.208C126.215 140.208 125.574 140.106 124.996 139.925L124.671 141.747C124.578 142.274 124.967 142.762 125.503 142.778C128.063 142.857 134.618 143.03 134.793 142.746C135.617 141.413 131.891 140.899 129.166 139.844Z" fill="#0B4870"/>
<path d="M134.359 81.9134C134.457 86.2597 132.748 113.833 129.371 113.909C125.995 113.986 122.23 86.5368 122.131 82.1905C122.033 77.8441 124.69 74.259 128.066 74.1826C131.443 74.1062 134.26 77.5671 134.359 81.9134Z" fill="#0091C8"/>
<path d="M124.708 108.181C124.373 110.574 124.319 125.902 124.857 133.689H127.931C129.582 126.135 131.346 111.496 131.673 109.157C131.677 109.127 131.679 109.098 131.683 109.068C133.52 100.942 134.431 85.1179 134.359 81.9134C134.26 77.5671 131.443 74.1062 128.067 74.1826C124.69 74.2595 122.033 77.8446 122.132 82.1905C122.193 84.9191 124.867 107.048 124.708 108.181Z" fill="#0B4870"/>
<path d="M117.814 132.449L117.837 138.702L117.294 141.747C117.2 142.274 117.59 142.762 118.126 142.778C120.685 142.857 127.24 143.03 127.416 142.746C128.24 141.412 124.515 140.899 121.789 139.844C119.064 138.79 120.944 128.441 120.944 128.441L117.814 132.449Z" fill="#FA968C"/>
<path d="M121.789 139.844C121.774 139.839 121.762 139.829 121.748 139.823C121.098 140.065 120.367 140.208 119.544 140.208C118.837 140.208 118.197 140.106 117.619 139.925L117.294 141.747C117.2 142.274 117.59 142.762 118.126 142.778C120.685 142.857 127.24 143.03 127.416 142.746C128.24 141.413 124.515 140.899 121.789 139.844Z" fill="#0B4870"/>
<path d="M126.982 81.9134C127.08 86.2597 125.371 113.833 121.994 113.909C118.618 113.986 115.584 86.4355 115.485 82.0892C115.386 77.7429 117.313 74.259 120.689 74.1826C124.066 74.1062 126.883 77.5671 126.982 81.9134Z" fill="#0091C8"/>
<path d="M117.331 108.181C116.995 110.574 116.941 125.902 117.48 133.689H120.553C122.204 126.135 123.968 111.496 124.296 109.157C124.3 109.127 124.302 109.098 124.306 109.068C126.142 100.942 127.784 85.0167 127.712 81.8122C127.613 77.4658 124.066 74.1062 120.689 74.1826C117.313 74.2595 115.386 77.7434 115.485 82.0892C115.547 84.8178 117.489 107.048 117.331 108.181Z" fill="#0B4870"/>
<path d="M130.763 48.9391H129.124C128.553 50.2604 127.345 51.2817 125.471 51.2817C123.594 51.2817 122.387 50.2609 121.817 48.9391H120.321C118.792 48.9391 117.54 50.1486 117.496 51.6775C117.382 55.6611 117.123 63.3385 116.666 70.2795C116.252 76.5624 114.537 82.4008 115.71 84.1137C115.71 84.1137 131.608 82.7943 134.362 79.6344C136.743 76.9025 135.285 71.4696 134.824 65.924C134.365 60.405 133.9 54.7743 133.637 51.5822C133.514 50.0865 132.264 48.9391 130.763 48.9391Z" fill="#FFBE55"/>
<path d="M125.037 45.2675C123.492 45.6108 121.962 44.637 121.618 43.0921L120.803 39.4278L123.6 38.806L125.037 45.2675Z" fill="#0B4870"/>
<path d="M127.535 48.9391H122.26L123.781 43.6797L127.377 44.1248L127.535 48.9391Z" fill="#FAB9AF"/>
<path d="M127.377 44.1248L123.781 43.6797L123.073 46.1309C123.878 47.0384 125.071 48.4472 126.38 48.4472C126.795 48.4472 127.173 48.3303 127.513 48.1144L127.377 44.1248Z" fill="#FA968C"/>
<path d="M127.922 46.9202C125.553 47.4467 123.206 45.9537 122.68 43.5854L121.617 38.8083L128.973 37.1727C128.973 37.1727 129.802 40.9019 129.826 43.538C129.843 45.5156 129.129 46.6514 127.922 46.9202Z" fill="#FAB9AF"/>
<path d="M121.646 40.7312L123.029 40.4237L123.168 41.0505L121.786 41.3579L121.646 40.7312Z" fill="#41378C"/>
<path d="M123.726 42.4045C123.933 43.3365 123.655 44.1916 123.104 44.314C122.554 44.4364 121.675 43.3494 121.468 42.4174C121.261 41.4855 121.804 41.0607 122.354 40.9383C122.904 40.8159 123.518 41.4721 123.726 42.4045Z" fill="#FAB9AF"/>
<path d="M129.919 39.0237C129.959 38.3905 129.856 37.7567 129.618 37.1686C129.026 35.7097 127.392 35.0819 125.906 35.5992C125.754 35.6522 125.593 35.6982 125.423 35.7359L122.94 36.2868C121.448 36.6182 120.507 38.0959 120.839 39.588L120.968 40.1664L122.44 41.0202L123.04 42.0649L123.137 42.0432C123.61 41.9378 123.916 41.4831 123.842 41.01C123.72 40.23 124.107 39.4683 124.878 39.2966L127.081 38.8065C128.422 38.5083 129.28 39.0734 129.503 40.0762L129.623 40.9401L129.919 39.0237Z" fill="#0B4870"/>
<path d="M122.491 37.2818C122.323 38.6445 127.221 40.3713 128.512 40.531C129.804 40.6907 130.988 39.715 131.156 38.3523C131.324 36.9896 130.414 35.7553 129.122 35.596C127.83 35.4363 122.66 35.9191 122.491 37.2818Z" fill="#0B4870"/>
<path d="M116.895 54.0817C118.52 56.2962 121.305 59.2085 124.639 61.7231C134.838 69.1607 145.752 69.9127 154.653 61.4939C155.017 61.1497 155.033 60.5753 154.689 60.2109C154.394 59.8997 153.932 59.8427 153.576 60.0479L153.535 60.0719C147.731 63.4223 142.533 64.7974 135.99 62.0485C127.412 58.352 121.326 49.4588 121.966 50.3069C120.914 48.9139 118.932 48.6377 117.539 49.6898C116.158 50.7326 115.876 52.6909 116.895 54.0817Z" fill="#FAB9AF"/>
<path d="M126.646 55.4135C124.522 53.5073 121.821 49.7514 121.821 49.7514C121.821 49.7514 120.541 48.2382 117.906 49.3419C115.802 50.2232 116.228 52.7093 116.228 52.7093C116.279 53.0554 116.982 57.1564 121.82 60.7834C121.82 60.7829 127.002 55.7334 126.646 55.4135Z" fill="#FFBE55"/>
<path d="M161.547 10.1588C150.547 10.1716 141.617 19.0902 141.617 30.0922C141.617 35.3797 144.307 39.9451 147.032 44.0378C153.053 53.0816 149.632 57.9811 153.107 57.9811H161.536H170.009C173.487 57.9811 170.056 53.0811 176.079 44.0378C178.803 39.946 181.486 35.5228 181.486 30.2372C181.488 19.2329 172.548 10.1716 161.547 10.1588Z" fill="#FFBE55"/>
<path fill-rule="evenodd" clip-rule="evenodd" d="M151.831 37.5777C151.618 37.3099 151.226 37.2657 150.96 37.4774C150.692 37.6919 150.649 38.0817 150.862 38.349C150.971 38.4857 151.096 38.6183 151.231 38.7481L157.841 58.9167C157.928 59.1776 158.169 59.3438 158.431 59.3438C158.494 59.3438 158.559 59.3337 158.624 59.3125C158.949 59.2053 159.125 58.8573 159.018 58.5301L152.912 39.8963C154.394 40.6188 156.249 40.9497 157.761 40.4688C158.088 40.3643 158.385 40.2263 158.654 40.0569C159.393 40.5411 160.298 40.8296 161.257 40.8296C162.392 40.8296 163.465 40.4661 164.278 39.8171C164.732 40.0597 165.258 40.2603 165.845 40.4076C167.578 40.8471 169.111 40.7408 170.388 40.1172L164.35 58.531C164.245 58.8569 164.422 59.2066 164.744 59.3125C164.81 59.3346 164.876 59.3433 164.94 59.3433C165.201 59.3433 165.444 59.1781 165.53 58.9176L172.15 38.7163C172.175 38.6861 172.202 38.6581 172.229 38.6301L172.229 38.6301C172.261 38.5971 172.293 38.564 172.322 38.5267C172.532 38.2575 172.486 37.8672 172.217 37.6569C171.947 37.4452 171.558 37.4926 171.348 37.7623C170.15 39.292 168.4 39.7785 166.149 39.2083C165.895 39.1443 165.526 39.032 165.145 38.8599C165.519 38.2736 165.704 37.6067 165.673 36.9311C165.619 35.5845 165.162 34.5969 164.419 34.219C163.985 33.9991 163.503 34.0267 163.102 34.2936C162.45 34.7285 162.131 35.718 162.23 37.0061C162.291 37.7885 162.632 38.4834 163.216 39.0536C162.202 39.6869 160.678 39.755 159.588 39.1705C160.002 38.5865 160.243 37.8502 160.291 36.9914C160.358 35.7884 159.986 34.8141 159.298 34.3875C158.859 34.1141 158.332 34.1008 157.887 34.3557C157.184 34.7524 156.796 35.7042 156.816 36.9665C156.829 37.7825 157.145 38.5488 157.668 39.1807C157.577 39.2216 157.483 39.2571 157.383 39.2884C155.533 39.877 152.831 38.8346 151.831 37.5777ZM163.792 35.3226L163.796 35.32C163.805 35.3137 163.811 35.3098 163.82 35.3098C163.829 35.3098 163.841 35.3139 163.858 35.3226C164.04 35.4147 164.392 35.88 164.436 36.9817C164.456 37.3992 164.338 37.812 164.106 38.1852C163.762 37.8571 163.508 37.4374 163.468 36.909C163.394 35.9531 163.62 35.4363 163.792 35.3226ZM158.566 35.4119C158.542 35.4119 158.521 35.4193 158.499 35.4331C158.327 35.5297 158.041 35.9582 158.057 36.9477C158.065 37.4686 158.276 37.9671 158.624 38.3872C158.877 38.0016 159.023 37.5124 159.054 36.9228C159.106 35.9849 158.823 35.5495 158.649 35.4405C158.614 35.4207 158.588 35.4119 158.566 35.4119Z" fill="#0B4870"/>
<path d="M168.566 57.9811H154.522C153.707 57.9811 153.047 59.4823 153.047 60.2987C153.047 61.1147 153.708 62.6164 154.522 62.6164H159.229L154.074 63.5773C153.3 63.8277 152.875 64.305 153.126 65.0804C153.327 65.7049 153.907 65.9254 154.531 65.9254C154.681 65.9254 154.834 65.8108 154.986 65.7643L169.025 61.1658C169.714 60.9417 170.14 60.0962 170.027 59.3792C169.911 58.6613 169.293 57.9811 168.566 57.9811Z" fill="#0B4870"/>
<path d="M168.549 68.4106H163.856L169.005 66.0828C169.779 65.8329 170.204 64.6717 169.953 63.8954C169.701 63.1217 168.87 62.5303 168.093 62.7816L154.066 67.2522C153.374 67.4782 152.95 68.4699 153.063 69.187C153.175 69.9049 153.796 70.7282 154.522 70.7282H155.798L158.029 74.2052H164.989L167.256 70.7282H168.549C169.365 70.7282 170.024 70.3844 170.024 69.5694C170.024 68.7539 169.365 68.4106 168.549 68.4106Z" fill="#0B4870"/>
<path d="M120.457 127.171L113.36 118.693L147.934 89.6303L177.999 94.6412L212.109 68.2946L213.485 69.5303L180.961 105.737L151.464 99.329L120.457 127.171Z" fill="#BCD1F3"/>
<path d="M213.972 85.7852L194.191 66.8164L219.728 59.9835L213.972 85.7852Z" fill="#BCD1F3"/>
<path d="M152.93 60.4543C153.628 59.6411 153.811 56.7886 154.203 56.7886C154.485 56.7886 154.536 57.7735 154.542 58.3267C154.542 58.3911 154.581 58.4496 154.64 58.4758C154.698 58.502 154.767 58.4915 154.816 58.4487C155.607 57.7519 157.839 55.8199 158.07 56.004C158.303 56.1904 157.117 57.6313 156.713 58.1095C156.7 58.1237 156.7 58.1449 156.712 58.1601C156.724 58.1748 156.744 58.1794 156.761 58.1711C157.385 57.855 159.422 56.8572 159.47 57.2843C159.515 57.6902 157.744 58.8201 157.052 59.2444C157.035 59.255 157.028 59.2761 157.036 59.2945C157.045 59.3129 157.065 59.3222 157.084 59.3166C157.86 59.087 159.856 58.5329 159.901 58.8941C159.947 59.2619 158.017 60.088 157.324 60.3724C157.305 60.3797 157.295 60.3995 157.3 60.4184C157.304 60.4377 157.322 60.4506 157.341 60.4488C158.025 60.3954 159.791 60.2817 159.519 60.5537C159.182 60.8901 154.931 62.28 153.979 62.28C153.027 62.28 152.93 60.4543 152.93 60.4543Z" fill="#FAB9AF"/>
<path fill-rule="evenodd" clip-rule="evenodd" d="M57.6001 101.309C64.4484 101.309 70.0001 95.7574 70.0001 88.9091C70.0001 82.0608 64.4484 76.5091 57.6001 76.5091C50.7517 76.5091 45.2001 82.0608 45.2001 88.9091C45.2001 95.7574 50.7517 101.309 57.6001 101.309Z" fill="white"/>
<path fill-rule="evenodd" clip-rule="evenodd" d="M46.1446 88.8453C46.1446 82.5642 51.2551 77.4537 57.5362 77.4537C63.8173 77.4537 68.9277 82.5642 68.9277 88.8453C68.9277 95.1264 63.8177 100.237 57.5362 100.237C51.2547 100.237 46.1446 95.1264 46.1446 88.8453ZM57.5698 102.308C59.8007 102.302 61.9028 101.752 63.7539 100.786C65.846 99.6945 67.6139 98.0705 68.8803 96.0922C69.6384 94.9081 70.2189 93.5998 70.5778 92.2012C70.8531 91.1283 70.9996 90.0038 70.9996 88.8453C70.9996 87.9281 70.9073 87.0328 70.7322 86.1673C69.4906 80.0146 64.0545 75.3818 57.5362 75.3818C50.1003 75.3818 44.0728 81.4098 44.0728 88.8453C44.0728 93.3089 46.2466 97.2633 49.5912 99.713C51.8188 101.344 54.5644 102.309 57.5362 102.309C57.5475 102.309 57.5584 102.308 57.5698 102.308Z" fill="#C5D6F1"/>
<path fill-rule="evenodd" clip-rule="evenodd" d="M52.3519 83.9524C53.2342 83.149 54.6286 83.1775 55.479 84.0145C56.1951 84.7197 56.3433 85.7787 55.9277 86.6329L56.5469 87.252C57.1555 87.8602 58.0097 88.1557 58.8639 88.0533L59.7336 87.9488C59.9347 87.0207 60.7053 86.279 61.7043 86.1674C62.8901 86.0347 64.0045 86.8738 64.2014 88.0508C64.4176 89.3411 63.5122 90.5357 62.2277 90.6902C61.238 90.809 60.3225 90.2725 59.9103 89.4234L59.7886 89.4381C58.5965 89.5812 57.6273 90.4677 57.3792 91.6426C58.1885 92.1282 58.6418 93.0878 58.4357 94.0633C58.1684 95.3284 56.8982 96.1242 55.6322 95.7947C54.4775 95.4938 53.7408 94.3097 53.978 93.1403C54.1778 92.1551 54.9846 91.4529 55.9269 91.3353L56.0671 90.6734C56.2631 89.7453 55.9768 88.7812 55.3061 88.1108L54.8779 87.6827C54.0292 88.0953 52.9777 87.9517 52.273 87.247C51.3584 86.3323 51.3848 84.8334 52.3519 83.9524ZM68.9278 88.8454C68.9278 82.5643 63.8173 77.4538 57.5362 77.4538C51.2551 77.4538 46.1447 82.5643 46.1447 88.8454C46.1447 95.1265 51.2547 100.237 57.5362 100.237C63.8177 100.237 68.9278 95.1265 68.9278 88.8454Z" fill="#E0E9F8"/>
<path fill-rule="evenodd" clip-rule="evenodd" d="M229.451 45.4812C235.35 43.3341 238.392 36.8114 236.245 30.9124C234.098 25.0133 227.575 21.9718 221.676 24.1188C215.777 26.2659 212.735 32.7886 214.883 38.6876C217.03 44.5867 223.552 47.6283 229.451 45.4812Z" fill="white"/>
<path fill-rule="evenodd" clip-rule="evenodd" d="M215.676 38.3365C213.707 32.926 216.507 26.9218 221.917 24.9525C227.328 22.9833 233.332 25.7831 235.301 31.1936C237.27 36.604 234.471 42.6082 229.06 44.5775C223.649 46.5469 217.645 43.7469 215.676 38.3365ZM229.738 46.351C231.658 45.6468 233.297 44.5138 234.588 43.1014C236.048 41.5051 237.062 39.5519 237.532 37.4508C237.814 36.1932 237.904 34.8842 237.775 33.567C237.675 32.5565 237.449 31.5419 237.086 30.544C236.798 29.754 236.438 29.0117 236.016 28.321C233.017 23.4105 226.882 21.1242 221.268 23.1678C214.862 25.4991 211.56 32.5813 213.891 38.9861C215.291 42.8309 218.403 45.5557 222.052 46.6172C224.482 47.3235 227.15 47.2939 229.71 46.3622C229.719 46.3587 229.729 46.3545 229.738 46.351Z" fill="#C5D6F1"/>
<path fill-rule="evenodd" clip-rule="evenodd" d="M219.489 32.1757C219.997 31.2071 221.207 30.7945 222.202 31.2488C223.04 31.6317 223.5 32.4975 223.41 33.3636L224.137 33.7028C224.852 34.0359 225.68 34.0226 226.384 33.6666L227.1 33.3039C226.983 32.4414 227.414 31.5609 228.239 31.1515C229.219 30.6655 230.442 31.0389 230.981 31.991C231.572 33.0347 231.166 34.3475 230.108 34.8833C229.293 35.2959 228.336 35.1209 227.715 34.5187L227.615 34.5695C226.633 35.0665 226.076 36.134 226.23 37.2238C227.08 37.3884 227.771 38.0728 227.899 38.9777C228.066 40.1513 227.221 41.235 226.027 41.3481C224.938 41.4509 223.933 40.6619 223.77 39.5802C223.633 38.669 224.108 37.8111 224.883 37.4145L224.796 36.8003C224.674 35.9394 224.125 35.1987 223.337 34.8315L222.834 34.597C222.233 35.2185 221.282 35.4245 220.454 35.0384C219.379 34.5373 218.932 33.2378 219.489 32.1757ZM235.301 31.1936C233.332 25.7832 227.328 22.9833 221.917 24.9526C216.507 26.9218 213.707 32.9261 215.676 38.3366C217.645 43.747 223.649 46.547 229.06 44.5776C234.471 42.6082 237.27 36.6041 235.301 31.1936Z" fill="#E0E9F8"/>
<path fill-rule="evenodd" clip-rule="evenodd" d="M318 174.751H316.019H67.166H25.2181H8.10749C8.04803 174.751 8 174.797 8 174.853C8 174.909 8.04803 174.955 8.10749 174.955H25.4336H317.976C317.985 174.886 317.992 174.818 318 174.751Z" fill="#BCD1F3"/>
<path fill-rule="evenodd" clip-rule="evenodd" d="M91.8686 150.141C98.4482 148.378 102.353 141.615 100.59 135.036C98.8269 128.456 92.0638 124.551 85.4842 126.314C78.9046 128.077 75 134.84 76.763 141.42C78.526 148 85.289 151.904 91.8686 150.141Z" fill="white"/>
<path fill-rule="evenodd" clip-rule="evenodd" d="M99.598 135.398C101.195 141.357 97.6454 147.504 91.6867 149.101C85.7276 150.697 79.5804 147.149 77.9837 141.189C76.387 135.231 79.9362 129.083 85.8953 127.487C91.854 125.89 98.0012 129.439 99.598 135.398ZM85.3687 125.521C78.3146 127.412 74.1284 134.662 76.0186 141.716C77.9087 148.77 85.1594 152.957 92.2135 151.066C92.3233 151.037 92.4301 151.003 92.5384 150.97C93.3583 150.728 94.1376 150.415 94.8705 150.036C97.6217 148.615 99.7299 146.294 100.921 143.551C102.069 140.907 102.367 137.872 101.563 134.872C100.759 131.871 98.9837 129.392 96.6673 127.676C93.5386 125.359 89.4222 124.435 85.3687 125.521Z" fill="#C5D6F1"/>
<path fill-rule="evenodd" clip-rule="evenodd" d="M89.1302 139.56L84.7067 138.77L86.943 131.397L92.5659 136.664L89.1302 139.56ZM90.6388 145.19L85.0158 139.924L89.6346 141.442L92.8751 137.818L90.6388 145.19ZM85.8951 127.487C79.936 129.083 76.3872 135.231 77.9839 141.189C79.5806 147.148 85.7274 150.697 91.6865 149.101C97.6453 147.504 101.195 141.357 99.5978 135.398C98.0011 129.439 91.8538 125.89 85.8951 127.487Z" fill="#E0E9F8"/>
<path fill-rule="evenodd" clip-rule="evenodd" d="M260.509 87.3298C265.992 85.8606 269.246 80.2248 267.776 74.7418C266.307 69.2587 260.671 66.0049 255.188 67.4741C249.705 68.9432 246.451 74.5791 247.921 80.0621C249.39 85.5451 255.026 88.7989 260.509 87.3298Z" fill="white"/>
<path fill-rule="evenodd" clip-rule="evenodd" d="M266.95 75.0437C268.28 80.0096 265.323 85.1321 260.357 86.4626C255.391 87.7932 250.269 84.8359 248.938 79.87C247.607 74.9044 250.565 69.7816 255.531 68.451C260.497 67.1205 265.619 70.0778 266.95 75.0437ZM255.092 66.8134C249.214 68.3885 245.725 74.4307 247.3 80.3091C248.875 86.1875 254.918 89.676 260.796 88.1009C260.888 88.0764 260.977 88.0476 261.067 88.0207C261.75 87.8192 262.399 87.5577 263.01 87.2421C265.303 86.0576 267.06 84.1242 268.052 81.8379C269.009 79.6345 269.258 77.1057 268.588 74.6052C267.918 72.1047 266.438 70.039 264.508 68.6092C261.9 66.6776 258.47 65.9083 255.092 66.8134Z" fill="#C5D6F1"/>
<path fill-rule="evenodd" clip-rule="evenodd" d="M258.227 78.5122L254.54 77.8537L256.404 71.7099L261.09 76.0988L258.227 78.5122ZM259.484 83.2039L254.798 78.8151L258.647 80.0808L261.347 77.0602L259.484 83.2039ZM255.531 68.451C250.565 69.7816 247.608 74.9043 248.938 79.8699C250.269 84.8358 255.391 87.7932 260.357 86.4626C265.323 85.1321 268.28 80.0096 266.95 75.0437C265.619 70.0778 260.496 67.1204 255.531 68.451Z" fill="#E0E9F8"/>
<rect x="229.147" y="142.838" width="29.3091" height="21.9818" rx="4" transform="rotate(-20 229.147 142.838)" fill="#D4DFF4"/>
<path d="M237.886 141.959L237.884 141.952L237.871 141.917L237.858 141.882L237.845 141.847L237.832 141.811L237.826 141.793L237.819 141.775L237.806 141.739L237.793 141.703L237.786 141.685L237.78 141.667L237.767 141.63L237.753 141.594L237.726 141.52L237.699 141.446L237.672 141.372L237.645 141.297L237.618 141.221L237.562 141.069L237.506 140.916L237.45 140.761L237.394 140.606L237.337 140.451L237.28 140.295L237.273 140.275L237.266 140.256L237.259 140.236L237.252 140.217L237.245 140.197L237.238 140.178L237.231 140.158L237.224 140.139L237.217 140.119L237.209 140.1L237.202 140.08L237.195 140.061L237.188 140.042L237.181 140.022L237.174 140.003L237.167 139.983L237.16 139.964L237.153 139.944L237.146 139.925L237.139 139.906L237.132 139.886L237.125 139.867L237.118 139.848L237.111 139.828L237.104 139.809L237.097 139.79L237.09 139.77L237.083 139.751L237.075 139.732L237.068 139.713L237.062 139.693L237.055 139.674L237.048 139.655L237.041 139.636L237.034 139.617L237.027 139.598L237.02 139.579L237.013 139.559L237.006 139.54L236.999 139.521L236.992 139.502L236.985 139.483L236.978 139.464L236.971 139.445L236.964 139.426L236.957 139.408L236.951 139.389L236.944 139.37L236.937 139.351L236.93 139.332L236.923 139.313L236.916 139.295L236.91 139.276L236.903 139.257L236.896 139.239L236.889 139.22L236.882 139.201L236.876 139.183L236.869 139.164L236.862 139.146L236.855 139.127L236.849 139.109L236.842 139.091L236.835 139.072L236.829 139.054L236.822 139.036L236.815 139.017L236.809 138.999L236.802 138.981L236.796 138.963L236.789 138.945L236.782 138.927L236.776 138.908L236.769 138.89L236.763 138.873L236.756 138.855L236.75 138.837L236.743 138.819L236.737 138.801L236.73 138.783L236.724 138.766L236.717 138.748L236.711 138.73L236.705 138.713L236.698 138.695L236.692 138.678L236.685 138.66L236.679 138.643L236.673 138.626L236.667 138.608L236.66 138.591L236.654 138.574L236.648 138.557L236.642 138.54L236.635 138.523L236.629 138.506L236.623 138.489L236.617 138.472L236.611 138.455L236.605 138.438L236.599 138.422L236.592 138.405L236.586 138.388L236.58 138.372L236.574 138.355L236.568 138.339L236.562 138.322L236.557 138.306L236.551 138.29L236.545 138.274L236.539 138.257L236.533 138.241L236.527 138.225L236.521 138.209L236.516 138.193L236.51 138.178L236.504 138.162L236.498 138.146L236.493 138.13L236.487 138.115L236.481 138.099L236.476 138.084L236.47 138.068L236.464 138.053L236.459 138.038L236.453 138.023L236.448 138.007L236.442 137.992L236.437 137.977L236.431 137.963L236.426 137.948L236.421 137.933L236.415 137.918L236.41 137.904L236.405 137.889L236.399 137.874L236.394 137.86L236.389 137.846L236.384 137.831L236.379 137.817L236.373 137.803L236.368 137.789L236.363 137.775L236.358 137.761L236.353 137.747L236.348 137.734L236.343 137.72L236.338 137.706L236.333 137.693L236.328 137.679L236.324 137.666L236.319 137.653L236.314 137.64L236.309 137.627L236.304 137.614L236.3 137.601L236.295 137.588L236.29 137.575L236.286 137.562L236.281 137.55L236.277 137.537L236.272 137.525L236.268 137.512L236.263 137.5L236.259 137.488L236.254 137.476L236.25 137.464L236.246 137.452L236.241 137.44L236.237 137.429L236.233 137.417L236.229 137.406L236.225 137.394L236.22 137.383L236.216 137.371L236.212 137.36L236.208 137.349L236.204 137.338L236.2 137.327L236.196 137.317L236.193 137.306L236.189 137.295L236.185 137.285L236.181 137.275L236.177 137.264L236.174 137.254L236.17 137.244L236.166 137.234L236.163 137.224L236.159 137.214L236.156 137.205L236.152 137.195L236.149 137.186L236.145 137.176L236.142 137.167L236.139 137.158L236.135 137.149L236.132 137.14L236.129 137.131L236.126 137.122L236.123 137.114L236.119 137.105L236.116 137.097L236.113 137.088L236.11 137.08L236.107 137.072L236.105 137.064L236.102 137.056L236.099 137.049L236.096 137.041L236.093 137.033L236.091 137.026L236.088 137.019L236.085 137.011L236.083 137.004L236.08 136.997L236.078 136.991L236.075 136.984L236.073 136.977L236.071 136.971L236.068 136.964L236.066 136.958L236.064 136.952L236.062 136.946L236.059 136.94L236.057 136.934L236.055 136.929L236.053 136.923L236.051 136.918L236.049 136.912L236.047 136.907L236.046 136.902L236.044 136.897L236.042 136.893L236.04 136.888L236.039 136.883L236.037 136.879L236.036 136.875L236.034 136.871L236.033 136.867C234.872 133.679 236.516 130.155 239.703 128.995C242.89 127.835 246.415 129.478 247.575 132.666L247.577 132.671L247.579 132.677L247.581 132.682L247.583 132.688L247.585 132.694L247.587 132.7L247.589 132.706L247.592 132.712L247.594 132.719L247.596 132.725L247.599 132.732L247.601 132.739L247.604 132.745L247.606 132.752L247.609 132.759L247.611 132.766L247.614 132.774L247.617 132.781L247.619 132.789L247.622 132.796L247.625 132.804L247.628 132.812L247.631 132.82L247.634 132.828L247.637 132.836L247.64 132.844L247.643 132.852L247.646 132.861L247.649 132.869L247.652 132.878L247.655 132.887L247.658 132.895L247.662 132.904L247.665 132.913L247.668 132.923L247.672 132.932L247.675 132.941L247.678 132.951L247.682 132.96L247.685 132.97L247.689 132.979L247.692 132.989L247.696 132.999L247.7 133.009L247.703 133.019L247.707 133.03L247.711 133.04L247.715 133.05L247.719 133.061L247.722 133.071L247.726 133.082L247.73 133.093L247.734 133.104L247.738 133.115L247.742 133.126L247.746 133.137L247.75 133.148L247.754 133.159L247.759 133.171L247.763 133.182L247.767 133.194L247.771 133.206L247.775 133.217L247.78 133.229L247.784 133.241L247.789 133.253L247.793 133.265L247.797 133.277L247.802 133.29L247.806 133.302L247.811 133.314L247.815 133.327L247.82 133.34L247.825 133.352L247.829 133.365L247.834 133.378L247.839 133.391L247.843 133.404L247.848 133.417L247.853 133.43L247.858 133.443L247.863 133.456L247.867 133.47L247.872 133.483L247.877 133.497L247.882 133.51L247.887 133.524L247.892 133.538L247.897 133.552L247.902 133.566L247.907 133.58L247.912 133.594L247.918 133.608L247.923 133.622L247.928 133.636L247.933 133.65L247.938 133.665L247.944 133.679L247.949 133.694L247.954 133.708L247.96 133.723L247.965 133.738L247.97 133.753L247.976 133.768L247.981 133.782L247.987 133.797L247.992 133.813L247.998 133.828L248.003 133.843L248.009 133.858L248.014 133.873L248.02 133.889L248.026 133.904L248.031 133.92L248.037 133.935L248.042 133.951L248.048 133.967L248.054 133.982L248.06 133.998L248.065 134.014L248.071 134.03L248.077 134.046L248.083 134.062L248.089 134.078L248.095 134.094L248.101 134.11L248.106 134.127L248.112 134.143L248.118 134.159L248.124 134.176L248.13 134.192L248.136 134.209L248.142 134.225L248.148 134.242L248.154 134.258L248.161 134.275L248.167 134.292L248.173 134.309L248.179 134.326L248.185 134.343L248.191 134.36L248.197 134.377L248.204 134.394L248.21 134.411L248.216 134.428L248.222 134.445L248.229 134.462L248.235 134.48L248.241 134.497L248.248 134.514L248.254 134.532L248.26 134.549L248.267 134.567L248.273 134.584L248.279 134.602L248.286 134.619L248.292 134.637L248.299 134.655L248.305 134.672L248.312 134.69L248.318 134.708L248.325 134.726L248.331 134.744L248.338 134.762L248.344 134.779L248.351 134.797L248.357 134.815L248.364 134.834L248.37 134.852L248.377 134.87L248.384 134.888L248.39 134.906L248.397 134.924L248.403 134.943L248.41 134.961L248.417 134.979L248.423 134.997L248.43 135.016L248.437 135.034L248.443 135.053L248.45 135.071L248.457 135.09L248.464 135.108L248.47 135.127L248.477 135.145L248.484 135.164L248.491 135.182L248.497 135.201L248.504 135.22L248.511 135.238L248.518 135.257L248.525 135.276L248.531 135.294L248.538 135.313L248.545 135.332L248.552 135.351L248.559 135.37L248.566 135.388L248.573 135.407L248.579 135.426L248.586 135.445L248.593 135.464L248.6 135.483L248.607 135.502L248.614 135.521L248.621 135.54L248.628 135.559L248.635 135.578L248.642 135.597L248.648 135.616L248.655 135.635L248.662 135.654L248.669 135.673L248.676 135.692L248.683 135.711L248.69 135.73L248.697 135.749L248.704 135.768L248.711 135.788L248.718 135.807L248.725 135.826L248.732 135.845L248.739 135.864L248.746 135.883L248.753 135.902L248.76 135.922L248.767 135.941L248.774 135.96L248.781 135.979L248.788 135.998L248.795 136.017L248.802 136.037L248.809 136.056L248.816 136.075L248.823 136.094L248.83 136.113L248.837 136.133L248.844 136.152L248.851 136.171L248.858 136.19L248.864 136.209L248.871 136.229L248.878 136.248L248.885 136.267L248.892 136.286L248.899 136.305L248.906 136.324L248.913 136.344L248.92 136.363L248.927 136.382L248.934 136.401L248.941 136.42L248.948 136.439L248.955 136.458L248.962 136.477L248.969 136.496L248.976 136.515L248.983 136.535L248.99 136.554L248.997 136.573L249.004 136.592L249.011 136.611L249.017 136.63L249.024 136.649L249.031 136.668L249.038 136.687L249.045 136.706L249.052 136.724L249.059 136.743L249.066 136.762L249.073 136.781L249.079 136.8L249.086 136.819L249.093 136.838L249.1 136.856L249.107 136.875L249.114 136.894L249.12 136.913L249.127 136.931L249.134 136.95L249.141 136.969L249.148 136.987L249.154 137.006L249.161 137.025L249.168 137.043L249.175 137.062L249.182 137.08L249.188 137.099L249.195 137.117L249.202 137.136L249.208 137.154L249.215 137.173L249.222 137.191L249.228 137.209L249.235 137.228L249.242 137.246L249.248 137.264L249.255 137.282L249.262 137.3L249.268 137.319L249.275 137.337L249.281 137.355L249.288 137.373L249.295 137.391L249.301 137.409L249.308 137.427L249.314 137.445L249.321 137.463L249.327 137.48L249.334 137.498L249.34 137.516L249.347 137.534L249.353 137.551L249.359 137.569L249.366 137.587L249.372 137.604L249.379 137.622L249.385 137.639L249.391 137.657L249.398 137.674L249.404 137.691L249.41 137.709L249.417 137.726L249.423 137.743L249.428 137.758L237.886 141.959Z" stroke="#D4DFF4" stroke-width="4"/>
<path fill-rule="evenodd" clip-rule="evenodd" d="M247.373 150.067C249.485 149.298 250.575 146.962 249.806 144.849C249.037 142.737 246.701 141.648 244.588 142.416C242.476 143.185 241.386 145.521 242.155 147.634C242.924 149.747 245.26 150.836 247.373 150.067Z" fill="#E3EAF8"/>
<rect x="245.286" y="149.094" width="3.25657" height="6.51313" rx="1" transform="rotate(-20 245.286 149.094)" fill="#E3EAF8"/>
<path fill-rule="evenodd" clip-rule="evenodd" d="M253.966 124.539L254.5 126.062L255.034 124.539C255.484 123.255 256.552 122.171 258 121.531C256.552 120.89 255.484 119.807 255.034 118.523L254.5 117L253.966 118.523C253.516 119.807 252.448 120.891 251 121.531C252.448 122.171 253.516 123.255 253.966 124.539Z" fill="white"/>
<path fill-rule="evenodd" clip-rule="evenodd" d="M203.427 188.637C210.624 188.637 216.48 192.675 216.48 197.638C216.48 202.601 210.624 206.64 203.427 206.64C196.229 206.64 190.374 202.601 190.374 197.638C190.374 192.675 196.23 188.637 203.427 188.637ZM203.427 187C194.907 187 188 191.763 188 197.638V202.038C188 207.913 194.907 212.676 203.427 212.676C211.947 212.676 218.853 207.913 218.853 202.038V197.651C218.853 197.647 218.854 197.643 218.854 197.638C218.854 191.763 211.947 187 203.427 187Z" fill="#C5D6F1"/>
<path fill-rule="evenodd" clip-rule="evenodd" d="M190.374 197.638C190.374 202.601 196.229 206.64 203.427 206.64C210.624 206.64 216.48 202.601 216.48 197.638C216.48 192.674 210.624 188.637 203.427 188.637C196.23 188.637 190.374 192.674 190.374 197.638Z" fill="#E0E9F8"/>
<path fill-rule="evenodd" clip-rule="evenodd" d="M201.856 197.55L202.969 198.899C203.074 199.025 203.152 199.152 203.206 199.277C203.413 199.761 203.25 200.225 202.739 200.539C202.183 200.88 201.611 200.868 201.146 200.541C201.026 200.457 200.912 200.351 200.808 200.225L199.71 198.867L201.856 197.55ZM205.769 195.148L206.882 196.497C206.989 196.627 207.06 196.759 207.094 196.891C207.186 197.247 207.013 197.598 206.566 197.872C206.098 198.16 205.635 198.199 205.265 198.013C205.129 197.945 205.004 197.845 204.897 197.716L203.783 196.367L205.769 195.148ZM206.444 192.178L205.609 191.142L203.52 192.424L204.324 193.412L198.28 197.122L197.461 196.143L195.373 197.424L196.234 198.444L194.738 199.363L195.898 200.73L197.39 199.814L197.92 200.443L196.431 201.357L197.591 202.723L199.078 201.811C200.395 203.269 202.255 203.56 203.931 202.531C205.224 201.737 205.78 200.603 205.337 199.592C206.209 200.124 207.427 200.053 208.476 199.41C209.94 198.511 210.206 197.052 209.193 195.603L210.508 194.796L209.39 193.403L208.081 194.206L207.566 193.568L208.878 192.763L207.76 191.37L206.444 192.178Z" fill="white"/>
<path fill-rule="evenodd" clip-rule="evenodd" d="M139.624 192.223L93.0826 184.889C92.6867 184.827 92.3159 185.097 92.2534 185.492C92.1908 185.888 92.4612 186.259 92.8565 186.322L139.398 193.656C139.794 193.717 140.165 193.448 140.227 193.052C140.29 192.656 140.02 192.285 139.624 192.223Z" fill="#C5D6F1"/>
<path fill-rule="evenodd" clip-rule="evenodd" d="M123.775 195.507H81.8958C81.5399 195.507 81.2513 195.795 81.2513 196.151C81.2513 196.507 81.5399 196.796 81.8958 196.796H123.775C124.131 196.796 124.42 196.506 124.42 196.151C124.42 195.795 124.131 195.507 123.775 195.507Z" fill="#C5D6F1"/>
<path fill-rule="evenodd" clip-rule="evenodd" d="M244.953 184.056C249.596 184.056 253.374 186.661 253.374 189.863C253.374 193.065 249.596 195.671 244.953 195.671C240.309 195.671 236.532 193.065 236.532 189.863C236.532 186.661 240.31 184.056 244.953 184.056ZM244.953 183C239.456 183 235 186.073 235 189.863V192.702C235 196.492 239.456 199.565 244.953 199.565C250.449 199.565 254.905 196.492 254.905 192.702V189.872C254.905 189.869 254.906 189.866 254.906 189.863C254.906 186.073 250.45 183 244.953 183Z" fill="#C5D6F1"/>
<path fill-rule="evenodd" clip-rule="evenodd" d="M248.421 190.804C247.689 190.864 247.012 190.591 246.707 190.158L246.617 190.165C245.737 190.238 245.02 190.69 244.836 191.289C245.435 191.537 245.77 192.026 245.617 192.523C245.42 193.168 244.481 193.574 243.545 193.406C242.691 193.253 242.147 192.649 242.322 192.053C242.47 191.551 243.066 191.193 243.763 191.133L243.866 190.795C244.011 190.322 243.8 189.831 243.304 189.489L242.987 189.271C242.36 189.481 241.583 189.408 241.062 189.049C240.385 188.583 240.405 187.818 241.12 187.369C241.772 186.959 242.803 186.974 243.432 187.401C243.961 187.76 244.071 188.3 243.763 188.735L244.221 189.051C244.671 189.362 245.302 189.512 245.934 189.46L246.577 189.406C246.726 188.934 247.295 188.555 248.034 188.498C248.911 188.431 249.734 188.858 249.88 189.458C250.04 190.116 249.371 190.725 248.421 190.804ZM236.532 189.863C236.532 193.065 240.309 195.671 244.953 195.671C249.596 195.671 253.374 193.065 253.374 189.863C253.374 186.661 249.596 184.056 244.953 184.056C240.309 184.056 236.532 186.661 236.532 189.863Z" fill="#E0E9F8"/>
<path fill-rule="evenodd" clip-rule="evenodd" d="M249.88 189.458C249.734 188.858 248.911 188.431 248.034 188.498C247.296 188.555 246.726 188.934 246.577 189.406L245.934 189.46C245.302 189.512 244.671 189.361 244.221 189.051L243.763 188.735C244.071 188.3 243.961 187.76 243.432 187.401C242.803 186.974 241.772 186.959 241.12 187.369C240.405 187.818 240.385 188.583 241.062 189.049C241.583 189.408 242.36 189.481 242.987 189.271L243.304 189.489C243.8 189.831 244.011 190.322 243.866 190.795L243.763 191.133C243.066 191.193 242.47 191.551 242.322 192.053C242.147 192.649 242.691 193.253 243.545 193.406C244.481 193.574 245.42 193.168 245.617 192.523C245.77 192.026 245.435 191.537 244.836 191.289C245.02 190.69 245.736 190.238 246.618 190.165L246.707 190.158C247.012 190.591 247.689 190.864 248.421 190.804C249.37 190.725 250.04 190.116 249.88 189.458Z" fill="white"/>
</svg>
