<svg width="308" height="171" viewBox="0 0 308 171" fill="none" xmlns="http://www.w3.org/2000/svg">
<path d="M292.764 105.53C289.837 105.53 287.118 106.427 284.818 107.951C284.31 100.089 277.768 93.8706 269.761 93.8706C267.222 93.8706 264.832 94.4984 262.741 95.6045C262.741 95.485 262.741 95.3355 262.741 95.2159C262.741 79.1323 249.686 66.0682 233.614 66.0682C225.697 66.0682 218.558 69.2072 213.3 74.3192C212.583 70.8813 209.356 68.3701 205.622 68.7886C202.276 69.1474 199.617 71.9575 199.408 75.3058C199.139 79.4014 202.396 82.7795 206.429 82.7795C206.727 82.7795 206.996 82.7496 207.265 82.7197C205.473 86.4865 204.487 90.7316 204.487 95.186C204.487 95.3056 204.487 95.4252 204.487 95.5448L154 82.8094L153.94 82.8393L153.851 82.8094V82.8393L103.364 95.5746C103.364 95.4551 103.364 95.3355 103.364 95.2159C103.364 90.7615 102.348 86.5463 100.585 82.7496C100.854 82.7795 101.153 82.8094 101.422 82.8094C105.455 82.8094 108.681 79.4313 108.442 75.3357C108.233 71.9575 105.574 69.1773 102.229 68.8185C98.4943 68.4 95.2978 70.9112 94.5509 74.3491C89.2931 69.2371 82.1234 66.0981 74.2367 66.0981C58.1645 66.0981 45.1096 79.1622 45.1096 95.2458C45.1096 95.3654 45.1096 95.5149 45.1096 95.6344C43.0184 94.5283 40.6285 93.9005 38.0892 93.9005C30.083 93.9005 23.5705 100.119 23.0328 107.981C20.7325 106.456 17.9841 105.56 15.0863 105.56C6.7515 105.53 0 112.764 0 121.673V122.331C0 149.206 21.7781 171 48.6347 171H153.851H154H263.518C288.014 171 307.851 151.15 307.851 126.636V121.673C307.851 112.764 301.099 105.53 292.764 105.53Z" fill="#E0E9F8"/>
<path d="M164.086 58.6279C164.324 55.8 165.04 52.0195 164.086 49.6679C163.131 47.3163 161.251 45.6493 159.341 44.9349C157.461 44.2205 154.836 42.8214 152.478 43.0595C150.121 43.2977 146.57 45.6493 145.377 46.84C144.183 48.0307 142.542 52.2577 142.542 53.9247C142.542 55.5619 143.974 57.7051 144.422 59.1042C144.869 60.5033 144.422 64.0456 147.495 65.4744C150.569 66.9033 151.046 68.0642 155.074 67.1116C159.102 66.1591 162.892 64.0456 163.131 63.093C163.369 62.1405 164.086 58.6279 164.086 58.6279Z" fill="#0E538C"/>
<path d="M154 63.8967C166.383 63.8967 176.528 74.0177 176.528 86.3712V123.7C176.528 125.247 175.245 126.527 173.694 126.527H134.306C132.755 126.527 131.472 125.247 131.472 123.7V86.3712C131.472 73.9879 141.617 63.8967 154 63.8967Z" fill="#C5D6F1"/>
<rect x="80" y="108.994" width="148" height="4.16744" fill="#C5D6F1"/>
<rect x="90.6525" y="113.162" width="126.725" height="57.7786" fill="#C5D6F1"/>
<path d="M179.482 95.8967L175.872 76.786C175.126 71.2493 156.506 66.6353 156.506 66.6353C155.074 66.6353 152.687 66.6353 151.255 66.6353C151.255 66.6353 132.546 71.5767 131.8 77.1135L127.145 96.1349C125.981 104.767 133.173 104.142 140.931 106.673L151.285 110.066C152.717 110.066 155.104 110.066 156.536 110.066L166.89 106.673C174.619 104.142 180.676 104.529 179.482 95.8967Z" fill="#FFBE55"/>
<path d="M174.708 81.2809V81.4298L174.022 110.602C173.664 110.9 173.186 111.078 172.679 111.078H134.664C134.545 111.078 134.426 111.078 134.336 111.048L133.56 81.2809H174.708Z" fill="#2A94F4"/>
<path d="M148.599 63.1823L150.181 71.0707L154.09 77.8874L157.342 71.0707L158.625 63.0633L148.599 63.1823Z" fill="#FCD2B1"/>
<path d="M162.952 55.6512C162.952 64.2242 161.46 67.5879 156.089 69.5526C154.716 70.0586 153.254 69.9991 151.852 69.5823C146.57 68.0344 145.048 64.1349 145.048 55.6512C145.048 50.2037 148.241 48.4474 153.194 48.4474C158.148 48.4474 162.952 50.2037 162.952 55.6512Z" fill="#FFE3CA"/>
<path d="M145.582 62.1449C146.566 62.0438 147.217 60.5433 147.036 58.7936C146.855 57.0438 145.911 55.7073 144.928 55.8084C143.944 55.9095 143.294 57.4099 143.474 59.1597C143.655 60.9095 144.599 62.246 145.582 62.1449Z" fill="#FFE3CA"/>
<path d="M164.78 59.182C164.961 57.4323 164.31 55.9318 163.326 55.8307C162.343 55.7296 161.399 57.0661 161.218 58.8159C161.038 60.5657 161.688 62.0661 162.672 62.1672C163.656 62.2683 164.599 60.9318 164.78 59.182Z" fill="#FFE3CA"/>
<path d="M175.872 83.3051L174.798 108.965C174.798 109.62 174.499 110.215 174.022 110.602C173.664 110.9 173.186 111.078 172.679 111.078H134.665C134.545 111.078 134.426 111.078 134.336 111.048C133.322 110.9 132.546 110.007 132.546 108.965L131.472 83.3051C131.472 82.1442 132.427 81.1916 133.59 81.1916H173.753C173.932 81.1916 174.111 81.2214 174.29 81.2512C174.44 81.2809 174.589 81.3405 174.708 81.4C175.394 81.787 175.872 82.5014 175.872 83.3051Z" fill="#99B9EE"/>
<path d="M153.612 100.124C155.82 100.124 157.611 98.3379 157.611 96.1349C157.611 93.9319 155.82 92.146 153.612 92.146C151.404 92.146 149.614 93.9319 149.614 96.1349C149.614 98.3379 151.404 100.124 153.612 100.124Z" fill="#E0E9F8"/>
<path d="M109.779 110.066H106.855C105.363 110.066 104.14 108.846 104.14 107.357V98.6353H112.494V107.357C112.494 108.846 111.271 110.066 109.779 110.066Z" fill="#99B9EE"/>
<path opacity="0.59" d="M108.645 97.6233C108.496 97.6233 108.377 97.5637 108.257 97.5042C108.138 97.4149 108.048 97.2958 107.959 97.1767C107.81 96.9386 107.72 96.6409 107.72 96.3135C107.72 95.986 107.899 95.6288 108.108 95.4205C108.317 95.1823 108.496 95.0335 108.586 94.9144C108.705 94.7953 108.735 94.7358 108.794 94.587C108.824 94.4679 108.854 94.2893 108.854 94.1107C108.854 93.7535 108.705 93.307 108.586 92.8009C108.824 92.8902 109.063 93.0391 109.272 93.2177C109.481 93.3963 109.66 93.6344 109.749 93.9023C109.869 94.1702 109.928 94.4679 109.898 94.7953C109.898 94.9739 109.839 95.1228 109.749 95.3014C109.66 95.4502 109.57 95.5991 109.451 95.7181C109.242 95.9563 109.033 96.0753 108.914 96.1944C108.794 96.3135 108.705 96.373 108.645 96.4921C108.586 96.6112 108.526 96.8195 108.526 96.9981C108.496 97.2065 108.496 97.4149 108.645 97.6233Z" fill="#99B9EE"/>
<path d="M111.51 105.482V104.767C112.584 104.767 113.33 104.44 113.628 103.815C113.867 103.339 113.807 102.773 113.449 102.327C113.031 101.791 112.345 101.553 111.569 101.701L111.45 101.017C112.494 100.838 113.479 101.166 114.046 101.91C114.553 102.565 114.643 103.428 114.285 104.142C114.016 104.648 113.33 105.482 111.51 105.482Z" fill="#99B9EE"/>
<path d="M195.804 97.0577L194.103 97.3851L192.432 88.2465L192.969 86.3712L194.133 87.9488L195.804 97.0577Z" fill="#2A94F4"/>
<path d="M201.414 98.9926L199.743 98.5758L201.951 89.586L203.234 88.0679L203.652 90.0028L201.414 98.9926Z" fill="#DCF2FF"/>
<path d="M200.727 97.9805L198.997 97.7721L200.071 88.5442L201.145 86.907L201.802 88.7526L200.727 97.9805Z" fill="#80D5FF"/>
<path d="M203.353 92.146L203.234 95.1823L202.935 102.267L202.637 110.066H192.88L192.492 102.267L192.104 95.1823L191.955 92.146H203.353Z" fill="#99B9EE"/>
<path d="M203.234 95.1823L202.935 102.267H192.492L192.104 95.1823H203.234Z" fill="#C5D6F1"/>
<path d="M144.183 54.3712C143.616 53.9842 144.243 52.4065 144.094 51.6921C143.915 50.9181 144.332 50.1442 144.81 49.5488C146.302 47.8223 148.51 47.1377 150.658 46.9888C152.806 46.84 154.955 47.1079 157.073 46.8995C159.222 46.6912 161.43 45.8874 162.802 44.0419C162.922 43.893 163.698 43.8633 163.877 44.1014C164.533 44.9944 165.19 45.9172 165.607 46.9888C166.025 48.0605 166.115 49.3107 165.667 50.3823C165.07 51.7516 163.31 52.7637 162.027 53.24C162.027 53.1805 150.27 58.3898 144.183 54.3712Z" fill="#0E538C"/>
<path d="M160.057 52.4958L162.653 57.9135L164.085 51.5433L160.057 52.4958Z" fill="#0E538C"/>
<path d="M147.048 53.6568C146.57 54.133 145.854 59.0744 145.854 59.0744L143.944 53.2698L147.048 53.6568Z" fill="#0E538C"/>
<rect x="90.7122" y="113.251" width="126.606" height="2.02419" fill="#99B9EE"/>
<path fill-rule="evenodd" clip-rule="evenodd" d="M151 19.25C155.556 19.25 159.25 15.5563 159.25 11C159.25 6.44365 155.556 2.75 151 2.75C146.444 2.75 142.75 6.44365 142.75 11C142.75 15.5563 146.444 19.25 151 19.25Z" fill="white"/>
<path fill-rule="evenodd" clip-rule="evenodd" d="M143.378 10.9575C143.378 6.77856 146.779 3.37847 150.958 3.37847C155.136 3.37847 158.537 6.77856 158.537 10.9575C158.537 15.1365 155.137 18.5366 150.958 18.5366C146.778 18.5366 143.378 15.1365 143.378 10.9575ZM150.98 19.9145C152.464 19.9109 153.863 19.5447 155.094 18.9021C156.486 18.1758 157.662 17.0953 158.505 15.7791C159.009 14.9913 159.396 14.1208 159.634 13.1903C159.818 12.4765 159.915 11.7283 159.915 10.9575C159.915 10.3473 159.854 9.75165 159.737 9.1758C158.911 5.08228 155.294 2 150.958 2C146.01 2 142 6.01057 142 10.9575C142 13.9273 143.446 16.5583 145.672 18.1881C147.154 19.273 148.98 19.9151 150.958 19.9151C150.965 19.9151 150.972 19.9145 150.98 19.9145Z" fill="#C5D6F1"/>
<path fill-rule="evenodd" clip-rule="evenodd" d="M147.508 7.70219C148.095 7.16767 149.023 7.18666 149.589 7.74352C150.065 8.21269 150.164 8.91728 149.887 9.48559L150.299 9.89751C150.704 10.3022 151.273 10.4988 151.841 10.4306L152.42 10.3611C152.553 9.74364 153.066 9.25017 153.731 9.17588C154.52 9.08764 155.261 9.64589 155.392 10.429C155.536 11.2874 154.934 12.0822 154.079 12.185C153.42 12.264 152.811 11.9071 152.537 11.3422L152.456 11.3519C151.663 11.4472 151.018 12.037 150.853 12.8187C151.392 13.1418 151.693 13.7802 151.556 14.4292C151.378 15.2709 150.533 15.8004 149.691 15.5812C148.923 15.3809 148.432 14.5931 148.59 13.8151C148.723 13.1596 149.26 12.6924 149.887 12.6142L149.98 12.1738C150.111 11.5564 149.92 10.9149 149.474 10.4689L149.189 10.184C148.624 10.4586 147.925 10.3631 147.456 9.89416C146.847 9.28564 146.865 8.28837 147.508 7.70219ZM158.537 10.9576C158.537 6.77865 155.137 3.37856 150.958 3.37856C146.779 3.37856 143.379 6.77865 143.379 10.9576C143.379 15.1366 146.778 18.5367 150.958 18.5367C155.137 18.5367 158.537 15.1366 158.537 10.9576Z" fill="#E0E9F8"/>
<path d="M157.881 1.02711L157.5 0L157.119 1.02711C156.797 1.89296 156.034 2.62377 155 3.05556C156.034 3.48734 156.797 4.21815 157.119 5.084L157.5 6.11111L157.881 5.084C158.203 4.21815 158.966 3.48734 160 3.05556C158.966 2.62354 158.203 1.89273 157.881 1.02711Z" fill="white"/>
<path fill-rule="evenodd" clip-rule="evenodd" d="M109.016 59.2312C114.221 57.3367 116.904 51.5814 115.01 46.3764C113.115 41.1713 107.36 38.4876 102.155 40.3821C96.95 42.2765 94.2662 48.0318 96.1607 53.2369C98.0552 58.4419 103.811 61.1257 109.016 59.2312Z" fill="white"/>
<path fill-rule="evenodd" clip-rule="evenodd" d="M114.232 46.7402C115.948 51.4544 113.508 56.6854 108.794 58.4011C104.08 60.1169 98.8491 57.6778 97.1333 52.9636C95.4175 48.2498 97.857 43.0184 102.571 41.3026C107.285 39.5869 112.516 42.026 114.232 46.7402ZM102.005 39.748C96.4249 41.7791 93.5476 47.9494 95.5787 53.5298C97.6098 59.1102 103.78 61.9874 109.361 59.9563C109.447 59.9247 109.531 59.8891 109.617 59.8554C110.264 59.6013 110.873 59.2919 111.44 58.9332C113.568 57.5868 115.111 55.5579 115.881 53.251C116.624 51.0277 116.651 48.5484 115.787 46.1746C114.923 43.8009 113.309 41.9187 111.311 40.693C108.612 39.037 105.212 38.5809 102.005 39.748Z" fill="#C5D6F1"/>
<path fill-rule="evenodd" clip-rule="evenodd" d="M106.047 50.8537L102.408 50.5271L103.697 44.3963L108.625 48.2642L106.047 50.8537ZM107.668 55.3076L102.74 51.4398L106.589 52.3429L108.957 49.1769L107.668 55.3076ZM102.571 41.3026C97.8568 43.0184 95.4177 48.2496 97.1334 52.9635C98.8492 57.6777 104.08 60.1169 108.794 58.4011C113.508 56.6854 115.948 51.4543 114.232 46.7402C112.516 42.026 107.285 39.5869 102.571 41.3026Z" fill="#E0E9F8"/>
<path d="M113.671 35.9756L112.819 34.974L112.811 36.2887C112.804 37.3969 112.243 38.5343 111.254 39.4455C112.597 39.5081 113.758 40.0189 114.476 40.8633L115.327 41.8651L115.336 40.5503C115.343 39.442 115.904 38.3046 116.892 37.3934C115.549 37.3306 114.388 36.8198 113.671 35.9756Z" fill="white"/>
<path fill-rule="evenodd" clip-rule="evenodd" d="M206.96 33.3017C213.346 34.4277 217.626 40.5394 216.5 46.9255C215.374 53.3116 209.262 57.591 202.876 56.4649C196.49 55.3388 192.211 49.2273 193.337 42.8412C194.463 36.4551 200.574 32.1757 206.96 33.3017ZM202.505 58.5714C210.064 59.9044 217.273 54.8567 218.606 47.2969C219.251 43.6431 218.401 40.0733 216.501 37.2072C214.47 34.1435 211.238 31.8839 207.332 31.1952C199.787 29.8648 192.592 34.8908 191.239 42.4263C191.236 42.4409 191.233 42.4551 191.23 42.4697C189.897 50.0295 194.945 57.2385 202.505 58.5714Z" fill="#C5D6F1"/>
<path fill-rule="evenodd" clip-rule="evenodd" d="M206.306 43.8617C206.657 43.7738 206.909 43.4761 206.993 43.0028C207.072 42.5516 206.933 42.2072 206.631 42.0143C206.519 41.9427 206.385 41.8925 206.231 41.8654L204.624 41.5821L204.271 43.5875L205.877 43.8707C206.031 43.8979 206.175 43.8937 206.306 43.8617Z" fill="#E0E9F8"/>
<path fill-rule="evenodd" clip-rule="evenodd" d="M205.572 48.0227C206.078 47.9766 206.432 47.6508 206.531 47.0888C206.622 46.5729 206.399 46.1558 205.939 45.9422C205.819 45.8864 205.684 45.8443 205.534 45.8178L203.927 45.5346L203.545 47.703L205.149 48.0011C205.299 48.0276 205.44 48.0343 205.572 48.0227Z" fill="#E0E9F8"/>
<path fill-rule="evenodd" clip-rule="evenodd" d="M204.854 38.073L204.619 39.4056L205.374 39.5386L205.609 38.206L207.252 38.4957L207.015 39.8382C208.633 40.2335 209.483 41.4058 209.218 42.9086C209.028 43.9853 208.339 44.7612 207.444 44.908C208.41 45.3525 208.858 46.4803 208.624 47.8082C208.32 49.5298 206.995 50.4229 205.194 50.1655L204.926 51.6837L203.283 51.394L203.55 49.8785L202.796 49.7455L202.529 51.261L200.886 50.9713L201.153 49.4558L199.929 49.2399L200.301 47.1309L201.472 47.3375L202.551 41.2166L201.38 41.01L201.752 38.9L202.977 39.1159L203.211 37.7833L204.854 38.073ZM193.337 42.8412C192.21 49.2273 196.49 55.3389 202.876 56.465C209.262 57.5911 215.374 53.3116 216.5 46.9255C217.626 40.5394 213.347 34.4279 206.96 33.3018C200.574 32.1757 194.463 36.4551 193.337 42.8412Z" fill="#E0E9F8"/>
<path fill-rule="evenodd" clip-rule="evenodd" d="M203.927 45.5345L205.534 45.8177C205.684 45.8442 205.819 45.8863 205.939 45.9421C206.399 46.1558 206.622 46.5729 206.531 47.0887C206.432 47.6507 206.078 47.9766 205.572 48.0226C205.44 48.0342 205.299 48.0275 205.149 48.001L203.545 47.7028L203.927 45.5345ZM204.624 41.582L206.231 41.8653C206.385 41.8924 206.52 41.9427 206.631 42.0142C206.933 42.2071 207.072 42.5515 206.993 43.0027C206.909 43.476 206.657 43.7737 206.305 43.8615C206.176 43.8936 206.031 43.8978 205.877 43.8706L204.271 43.5874L204.624 41.582ZM202.976 39.1157L201.752 38.8998L201.38 41.0099L202.552 41.2165L201.472 47.3374L200.301 47.1308L199.929 49.2398L201.153 49.4557L200.886 50.9712L202.529 51.2609L202.796 49.7454L203.551 49.8784L203.283 51.3939L204.926 51.6836L205.194 50.1653C206.995 50.4228 208.32 49.5297 208.624 47.8081C208.858 46.4802 208.411 45.3524 207.444 44.9079C208.339 44.7611 209.028 43.9852 209.218 42.9084C209.483 41.4056 208.633 40.2333 207.015 39.8381L207.252 38.4956L205.609 38.2059L205.374 39.5385L204.62 39.4055L204.854 38.0729L203.211 37.7831L202.976 39.1157Z" fill="white"/>
<path d="M217.148 32.3585L216.841 30.6772L215.977 32.1519C215.248 33.395 213.878 34.311 212.172 34.6943C213.644 35.6377 214.619 36.9672 214.878 38.3845L215.185 40.0657L216.049 38.5911C216.778 37.3479 218.149 36.432 219.854 36.0487C218.383 35.105 217.408 33.7754 217.148 32.3585Z" fill="white"/>
<path d="M261.444 170.852C256.516 170.852 254.43 166.966 253.584 162.872C252.647 158.244 253.342 153.29 253.342 153.29H269.547C269.547 153.29 269.577 153.468 269.607 153.824C269.879 156.761 270.877 170.852 261.444 170.852Z" fill="#C5D6F1"/>
<path d="M269.547 153.32C269.547 153.676 265.919 153.943 261.444 153.943C256.97 153.943 253.342 153.676 253.342 153.32C253.342 152.964 256.97 152.697 261.444 152.697C265.919 152.697 269.547 152.964 269.547 153.32Z" fill="#D4DFF3"/>
<path d="M241.279 109.267C241.279 109.267 249.805 122.023 254.944 129.795C260.053 137.567 261.414 139.199 262.019 141.721C262.623 144.242 263.167 153.498 263.167 153.498H263.833C263.833 153.498 264.256 145.666 263.47 143.085C262.684 140.504 262.986 139.496 263.349 136.796C263.712 134.097 264.195 129.795 261.414 126.799C258.633 123.803 259.358 120.866 258.391 118.908C257.423 116.921 249.865 114.547 248.867 112.5C247.93 110.454 243.667 109.208 241.279 109.267Z" fill="#C5D5F0"/>
<path opacity="0.26" d="M241.279 109.267C241.279 109.267 243.97 112.263 245.784 113.272C247.628 114.28 248.474 113.39 249.865 115.853C251.256 118.315 251.316 119.383 252.616 120.629C253.886 121.875 255.428 121.934 255.549 124.693C255.67 127.452 254.944 129.795 254.944 129.795C254.944 129.795 241.823 109.92 241.279 109.267Z" fill="white"/>
<path d="M261.172 153.498H260.567C260.567 153.498 260.386 149.433 258.723 147.446C257.665 146.17 253.16 144.717 248.686 142.996C246.237 142.047 243.788 141.009 241.944 139.852C236.744 136.618 231.816 126.206 231.393 124.337C231.242 123.684 231.181 123.299 231.181 123.032C231.181 122.527 231.453 122.468 231.877 121.964C232.088 121.726 232.723 121.815 233.479 122.023C235.716 122.705 237.591 124.189 238.77 126.176C239.858 128.015 241.581 130.3 243.698 130.863C247.356 131.812 247.053 132.406 248.414 136.084C249.774 139.733 253.16 140.326 257.423 144.628C261.716 148.959 261.172 153.498 261.172 153.498Z" fill="#C5D5F0"/>
<path opacity="0.26" d="M248.686 142.996C246.237 142.047 243.788 141.009 241.944 139.852C236.744 136.618 231.816 126.206 231.393 124.337C231.242 123.684 231.181 123.299 231.181 123.032C231.181 123.15 231.423 124.811 234.144 125.909C236.956 127.036 237.5 127.036 237.863 128.787C238.226 130.507 238.528 132.376 240.009 132.732C241.46 133.088 242.398 131.486 243.547 134.097C244.695 136.737 245.27 137.627 246.328 137.983C247.386 138.339 248.202 137.805 248.444 139.852C248.565 141.098 248.656 142.255 248.686 142.996Z" fill="white"/>
<path d="M261.444 170.852C256.516 170.852 254.43 166.966 253.584 162.872C258.421 161.062 264.528 158.185 269.577 153.824C269.879 156.761 270.877 170.852 261.444 170.852Z" fill="#C5D6F1"/>
<path d="M51.0354 170.85C56.894 170.85 59.375 166.14 60.3315 161.16C61.4375 155.55 60.6305 149.55 60.6305 149.55H41.4402C41.4402 149.55 41.4104 149.79 41.3805 150.18C40.9919 153.75 39.8261 170.85 51.0354 170.85Z" fill="#C5D6F1"/>
<path d="M41.4103 149.58C41.4103 150 45.7146 150.33 51.0054 150.33C56.2961 150.33 60.6005 150 60.6005 149.58C60.6005 149.16 56.2961 148.83 51.0054 148.83C45.7146 148.83 41.4103 149.16 41.4103 149.58Z" fill="#E0E9F8"/>
<path d="M25.0299 96.18C25.0299 96.18 35.1631 111.63 41.231 121.08C47.2989 130.53 48.8832 132.48 49.6305 135.51C50.3478 138.57 51.0055 149.82 51.0055 149.82H51.4538C51.4538 149.82 51.3044 140.28 50.7364 137.07C50.1984 133.95 50.7663 132.84 51.2147 129.57C51.6631 126.3 52.231 121.08 48.943 117.45C45.6549 113.82 46.5218 110.28 45.356 107.88C44.1902 105.48 35.2228 102.57 34.087 100.11C32.9212 97.62 27.8397 96.09 25.0299 96.18Z" fill="#C5D5F0"/>
<path opacity="0.26" d="M25.0299 96.18C25.0299 96.18 28.1984 99.81 30.3805 101.04C32.5625 102.27 33.5489 101.19 35.2228 104.16C36.8968 107.13 36.9565 108.45 38.481 109.98C40.0055 111.51 41.7989 111.57 41.9484 114.9C42.0978 118.23 41.231 121.08 41.231 121.08C41.231 121.08 25.6875 96.96 25.0299 96.18Z" fill="white"/>
<path d="M50.1984 149.79H49.75C49.75 149.79 49.6005 146.7 48.4049 145.2C47.6277 144.24 44.2799 143.13 40.962 141.81C39.1386 141.09 37.3152 140.28 35.9701 139.41C32.1141 136.95 28.4375 129.03 28.1386 127.62C28.019 127.14 27.9891 126.84 27.9891 126.63C27.9891 126.24 28.1984 126.18 28.4973 125.82C28.6467 125.64 29.125 125.7 29.6929 125.88C31.3669 126.39 32.7419 127.53 33.6087 129.03C34.4158 130.44 35.7011 132.18 37.2554 132.6C39.9755 133.32 39.7364 133.77 40.7527 136.56C41.7391 139.32 44.2799 139.8 47.4484 143.07C50.587 146.34 50.1984 149.79 50.1984 149.79Z" fill="#C5D5F0"/>
<path opacity="0.26" d="M40.9321 141.84C39.1087 141.12 37.2853 140.31 35.9402 139.44C32.0842 136.98 28.4076 129.06 28.1087 127.65C27.9891 127.17 27.9592 126.87 27.9592 126.66C27.9592 126.75 28.1386 128.01 30.1413 128.85C32.2337 129.72 32.6223 129.72 32.8913 131.04C33.1603 132.36 33.3994 133.77 34.4755 134.04C35.5516 134.31 36.2391 133.08 37.106 135.09C37.9728 137.1 38.3913 137.76 39.1685 138.03C39.9456 138.3 40.5734 137.88 40.7228 139.44C40.8424 140.37 40.9022 141.27 40.9321 141.84Z" fill="white"/>
<path d="M53.5163 149.79H54.0544C54.0544 149.79 55.1006 130.65 56.5652 128.88C57.4919 127.74 60.5707 125.67 64.5163 124.11C66.6685 123.24 68.8207 122.31 70.4348 121.29C75.0082 118.38 79.3424 109.02 79.7011 107.34C79.8207 106.77 79.8805 106.41 79.8805 106.17C79.8805 105.72 79.6413 105.66 79.2527 105.21C79.0734 105 78.5055 105.06 77.8478 105.27C75.875 105.87 74.231 107.22 73.1848 109.02C72.2283 110.67 70.7038 112.74 68.8506 113.25C65.6223 114.12 65.8913 114.66 64.7256 117.93C63.5299 121.23 60.5408 121.74 56.8044 125.64C53.0381 129.48 53.5163 149.79 53.5163 149.79Z" fill="#C5D5F0"/>
<path opacity="0.26" d="M64.4865 124.14C66.6386 123.27 68.7908 122.34 70.4049 121.32C74.9783 118.41 79.3125 109.05 79.6712 107.37C79.7908 106.8 79.8506 106.44 79.8506 106.2C79.8506 106.32 79.6115 107.79 77.25 108.78C74.799 109.8 74.2908 109.8 73.9919 111.36C73.6631 112.92 73.3941 114.6 72.1087 114.9C70.8234 115.23 70.0163 113.76 69 116.13C67.9837 118.5 67.5055 119.31 66.549 119.64C65.6223 119.97 64.9049 119.49 64.6957 121.32C64.606 122.4 64.5163 123.48 64.4865 124.14Z" fill="white"/>
<path d="M51.0353 170.85C56.894 170.85 59.375 166.14 60.3315 161.16C54.5924 158.97 47.3587 155.46 41.3506 150.18C40.9919 153.75 39.8261 170.85 51.0353 170.85Z" fill="#C5D6F1"/>
</svg>
