<svg width="250" height="255" viewBox="0 0 250 255" fill="none" xmlns="http://www.w3.org/2000/svg">
<path d="M21.7604 207.483C22.3051 208.83 22.9072 210.178 23.5666 211.468C33.3716 230.705 53.2684 242.833 74.484 245.011C91.4565 246.732 107.97 241.198 122.162 232.167C136.325 223.165 147.678 210.493 163.417 203.899C185.608 194.639 210.35 187.328 227.752 167.718C247.534 145.442 255.161 111.669 245.843 83.1709C236.783 55.3612 206.709 46.3589 183.343 34.117C141.342 12.07 83.1709 -2.58028 39.4496 23.3085C-12.93 54.3005 -3.41164 124.656 13.1881 173.48C16.9725 184.604 17.4312 196.588 21.7604 207.483Z" fill="#E8EFF9"/>
<path fill-rule="evenodd" clip-rule="evenodd" d="M48.3945 75.1147L48.4805 75.6594C48.4805 75.6646 48.4826 75.6854 48.4863 75.721C48.6033 76.8595 50.2814 93.1845 33.6009 101.692L33.3142 101.835L33.0275 101.692C15.883 92.9186 18.1192 75.8314 18.1479 75.6594L18.2339 75.1147H18.7787C29.4151 75.1147 32.8268 71.703 32.8555 71.6743L33.3142 71.1583L33.7729 71.6743C33.8016 71.703 37.242 75.1147 47.8498 75.1147H48.3945ZM33.2855 100.401C39.5355 97.133 43.7787 92.3739 45.9002 86.2385C47.4484 81.7374 47.3624 77.8383 47.2477 76.4048C38.4174 76.2901 34.4897 73.9106 33.2855 72.9645C32.0814 73.9392 28.1537 76.2901 19.3234 76.4048C19.2087 77.8096 19.1227 81.7374 20.6709 86.2385C22.7924 92.3739 27.0355 97.133 33.2855 100.401Z" fill="#99B9EE"/>
<path fill-rule="evenodd" clip-rule="evenodd" d="M64.7075 52.1216L65.3096 53.6984L69.6387 52.9816L69.6961 51.2901C70.1834 51.0608 70.6422 50.7741 71.0722 50.43L72.6204 51.1181L75.172 47.5344L74.0252 46.3016C74.1972 45.7855 74.3119 45.2695 74.3979 44.7248L75.9747 44.1227L75.258 39.7936L73.5665 39.7362C73.3371 39.2488 73.0504 38.7901 72.7064 38.3601L73.3945 36.8119L69.8394 34.2603L68.6066 35.4071C68.0906 35.2351 67.5745 35.0917 67.0298 35.0344L66.4277 33.4576L62.0986 34.1743L62.0412 35.8658C61.5539 36.0952 61.0951 36.3819 60.6651 36.7259L59.1169 36.0378L56.5653 39.6216L57.7121 40.8544C57.5401 41.3704 57.3967 41.8865 57.3394 42.4312L55.7626 43.0333L56.4793 47.3624L58.1708 47.4197C58.4002 47.9071 58.6869 48.3658 59.0309 48.7959L58.3428 50.344L61.8979 52.8956L63.1307 51.7488C63.6467 51.9209 64.1628 52.0642 64.7075 52.1216ZM63.188 50.5161L62.844 50.3727L61.7832 51.3475L59.8337 49.9427L60.4357 48.6238L60.2064 48.3372C59.7763 47.7924 59.4036 47.219 59.1169 46.5883L58.9736 46.2443L57.5401 46.1869L57.1387 43.8073L58.4862 43.2913L58.5149 42.9186C58.5722 42.2305 58.7156 41.5424 58.9736 40.9117L59.1169 40.5677L58.1135 39.5069L59.5183 37.5573L60.8371 38.1594L61.1238 37.93C61.6685 37.5 62.2419 37.1273 62.8727 36.8406L63.2167 36.6972L63.274 35.2638L65.6536 34.8624L66.1697 36.2099L66.5424 36.2385C67.2305 36.2959 67.9185 36.4392 68.5493 36.6972L68.8933 36.8406L69.9541 35.8658L71.9036 37.2706L71.3016 38.5894L71.5309 38.8761C71.961 39.4209 72.3337 39.9943 72.6204 40.625L72.7637 40.969L74.1972 41.0264L74.5986 43.406L73.2511 43.922L73.2224 44.2947C73.1651 44.9828 73.0217 45.6709 72.7637 46.3016L72.6204 46.6456L73.6238 47.7064L72.219 49.656L70.9002 49.0539L70.6135 49.2833C70.0688 49.7133 69.4954 50.086 68.8646 50.3727L68.5206 50.5161L68.4633 51.9495L66.0837 52.3509L65.5676 51.0034L65.1949 50.9748C64.5068 50.9174 63.8188 50.7741 63.188 50.5161ZM65.8256 48.3658C64.8509 48.3658 63.8761 48.0505 63.0734 47.4771C60.9231 45.9576 60.4357 42.9759 61.9552 40.8257C63.4747 38.6755 66.4564 38.1881 68.6066 39.7076C69.6387 40.453 70.3268 41.5424 70.5562 42.8039C70.7568 44.0654 70.4701 45.3268 69.7534 46.3589C69.008 47.3911 67.9185 48.0791 66.6571 48.3085L66.5119 48.3219C66.2603 48.3455 66.043 48.3658 65.8256 48.3658ZM62.93 41.5138C63.6181 40.539 64.7075 40.0229 65.8256 40.0229C66.5424 40.0229 67.2591 40.2523 67.8899 40.6823C68.6639 41.2271 69.1513 42.0298 69.3234 42.9759C69.4954 43.922 69.266 44.8681 68.7213 45.6422C68.1766 46.4163 67.3738 46.9037 66.4277 47.0757C65.4816 47.2477 64.5355 47.0183 63.7614 46.4736C62.9873 45.9289 62.5 45.1261 62.3279 44.18C62.1559 43.2339 62.3853 42.2878 62.93 41.5138Z" fill="#99B9EE"/>
<path fill-rule="evenodd" clip-rule="evenodd" d="M201.405 96.9037L202.752 100.43L211.783 98.9106L211.898 95.1548C213.217 94.5241 214.45 93.75 215.568 92.8612L219.008 94.4094L224.312 86.9553L221.732 84.203C222.219 82.8555 222.534 81.422 222.706 79.9885L226.233 78.6411L224.713 69.6101L220.958 69.4954C220.327 68.1766 219.553 66.9438 218.664 65.8257L220.212 62.3853L212.758 57.0814L210.006 59.6617C208.658 59.1743 207.225 58.8589 205.791 58.6869L204.444 55.1606L195.413 56.68L195.298 60.4358C193.979 61.0665 192.747 61.8406 191.629 62.7294L188.188 61.1812L182.884 68.6353L185.465 71.3876C184.977 72.7351 184.662 74.1686 184.49 75.6021L180.963 76.9495L182.483 85.9805L186.239 86.0952C186.869 87.414 187.643 88.6468 188.532 89.7649L186.984 93.2053L194.438 98.5092L197.19 95.9289C198.538 96.4163 199.971 96.7317 201.405 96.9037ZM197.248 94.2661L196.789 94.094L194.323 96.4736L189.02 92.6892L190.424 89.5356L190.109 89.1628C189.048 87.9014 188.159 86.4966 187.5 85.0057L187.299 84.547L183.859 84.4323L182.77 78.0103L185.981 76.7775L186.009 76.2615C186.153 74.6273 186.525 73.0218 187.099 71.5023L187.271 71.0436L184.92 68.5206L188.647 63.2167L191.801 64.6216L192.173 64.3062C193.435 63.2454 194.84 62.3567 196.33 61.6973L196.789 61.4966L196.904 58.0562L203.326 56.9667L204.559 60.1778L205.075 60.2064C206.709 60.3498 208.314 60.7225 209.834 61.2959L210.293 61.4679L212.815 59.117L218.119 62.9014L216.715 66.055L217.03 66.4278C218.091 67.6892 218.979 69.094 219.639 70.5849L219.84 71.0436L223.28 71.1583L224.369 77.5803L221.158 78.8131L221.13 79.3291C220.986 80.9633 220.614 82.5688 220.04 84.0883L219.868 84.547L222.219 87.07L218.435 92.3739L215.281 90.969L214.908 91.2844C213.647 92.3452 212.242 93.2339 210.751 93.8934L210.293 94.094L210.178 97.5344L203.756 98.6239L202.523 95.4128L202.007 95.3555C200.373 95.2122 198.767 94.8395 197.248 94.2661ZM203.555 88.1881C201.462 88.1881 199.369 87.5573 197.534 86.2672C192.861 82.9415 191.772 76.4335 195.098 71.7603C198.423 67.0872 204.931 65.9977 209.604 69.3234C214.278 72.6491 215.367 79.1571 212.041 83.8303C210.006 86.6686 206.795 88.1881 203.555 88.1881ZM196.416 72.7064C198.108 70.2982 200.831 69.008 203.584 69.008C205.333 69.008 207.11 69.5241 208.687 70.6422C210.608 72.0184 211.869 74.0252 212.271 76.3475C212.643 78.6697 212.099 80.992 210.751 82.9128C207.942 86.8693 202.437 87.7867 198.481 84.9771C196.56 83.6009 195.298 81.594 194.897 79.2718C194.524 76.9495 195.04 74.6273 196.416 72.7064Z" fill="#99B9EE"/>
<path d="M63.1594 164.937C61.7832 161.067 60.2064 156.709 61.9553 152.236C64.3062 146.216 59.3177 143.119 54.9312 140.338C51.1468 137.987 47.5917 135.751 48.7959 132.053C50.1147 128.039 50.0287 124.943 48.5378 122.907C47.2764 121.187 45.0401 120.27 42.0585 120.298C39.6789 120.327 37.5573 117.403 35.2924 114.335C32.6261 110.722 29.9025 106.995 26.4622 107.827C25.8601 107.97 25.3727 108.314 25.086 108.859C23.8819 111.124 25.7741 116.514 27.8096 122.248C29.9885 128.44 32.4828 135.436 30.8486 138.417C29.0711 141.686 32.2821 144.667 35.6938 147.85C39.3062 151.204 43.406 155.017 42.3165 159.805C41.2844 164.278 41.055 165.94 41.6858 166.915C42.1732 167.689 43.1766 167.861 44.6961 168.148C45.7282 168.349 47.047 168.578 48.6525 169.094C55.5619 171.244 57.5688 175.717 57.5975 175.774L57.6835 175.975L57.8842 175.946C61.2099 175.43 63.1594 174.484 64.0768 172.964C64.1342 172.878 64.1628 172.792 64.2202 172.706C65.1949 170.671 64.2488 168.005 63.1594 164.937Z" fill="#CEDCF3"/>
<path d="M45.4988 156.393C46.6456 158.171 47.477 159.719 47.391 161.898C47.3337 163.933 47.0183 165.94 46.8463 167.947C46.8176 168.377 46.789 168.779 46.7603 169.18C46.1869 168.693 45.6422 168.205 45.0688 167.718C44.8107 167.689 44.5527 167.689 44.266 167.689C45.0688 168.349 45.9002 169.065 46.7029 169.782C46.6169 171.187 46.5883 172.592 46.5883 173.997C46.5883 174.828 46.5596 175.717 46.6169 176.548C45.8715 176.089 45.0974 175.631 44.3807 175.172C42.1445 173.796 40.0516 172.506 38.4461 171.818C37.2133 171.302 35.8371 170.843 34.5183 170.413C31.078 169.295 27.5516 168.148 26.3761 165.711C25.7741 164.45 25.8314 162.93 26.5481 161.095C28.3543 156.365 26.6628 155.562 23.8245 154.186C21.7603 153.182 18.9507 151.835 16.141 148.423C14.9082 146.932 13.8188 145.642 12.844 144.524C9.94836 141.112 8.34286 139.249 8.54355 138.159C8.60089 137.901 8.74424 137.672 9.03093 137.443C9.17428 137.328 9.3463 137.213 9.57566 137.099C10.6651 136.497 11.7546 136.955 12.9874 137.471C14.6502 138.159 16.6857 139.048 19.5241 137.586C21.7603 136.439 24.2546 135.378 25.7454 136.239C26.7775 136.812 27.3796 138.303 27.5802 140.74C27.6376 141.514 27.8956 142.058 28.3257 142.374C28.9564 142.833 29.9312 142.775 31.0493 142.546C31.8234 143.607 32.8268 144.123 34.0309 144.553C35.7224 145.155 36.9839 145.7 38.2167 147.076C40.8543 150.057 43.4059 153.096 45.4988 156.393Z" fill="#CEDCF3"/>
<path d="M36.3532 161.124C34.633 159.977 33.1422 157.196 31.7087 154.501C29.7592 150.831 27.7236 147.047 24.9427 147.133C20.4702 147.248 16.4851 141.972 16.4278 141.944L16.0551 142.23C16.2271 142.46 20.2408 147.735 24.9427 147.62C27.4369 147.563 29.4151 151.204 31.2787 154.759C32.7408 157.483 34.2603 160.321 36.0665 161.554C37.156 162.271 39.1629 163.733 41.5424 165.596C41.5424 165.396 41.5424 165.195 41.5424 164.994C39.4495 163.245 37.586 161.927 36.3532 161.124Z" fill="white"/>
<path d="M187.443 196.646C187.443 196.646 190.023 190.224 185.321 181.107C180.591 171.99 176.778 173.395 188.159 166.37C199.541 159.346 188.217 137.271 197.907 134.461C207.597 131.651 215.998 95.9002 223.366 100.459C230.734 105.017 220.9 122.534 226.175 127.81C231.422 133.085 232.139 139.765 221.273 145.183C210.407 150.602 228.985 171.302 214.249 177.609C199.513 183.916 203.756 208.658 187.443 196.646Z" fill="#CEDCF3"/>
<path d="M191.944 203.44C191.915 203.354 190.338 195.155 195.355 184.547C200.459 173.739 202.896 161.927 201.892 152.924C201.347 148.05 204.472 146.158 207.483 144.323C210.464 142.517 213.532 140.625 213.36 135.837C213.217 131.508 215.052 121.359 215.109 120.929L215.768 121.044C215.74 121.158 213.876 131.565 214.019 135.808C214.191 140.998 210.952 142.976 207.827 144.868C204.845 146.674 202.064 148.394 202.552 152.838C203.584 161.927 201.118 173.882 195.958 184.805C191.055 195.212 192.574 203.211 192.603 203.297L191.944 203.44Z" fill="white"/>
<path d="M231.078 150.172C235.178 148.222 239.535 149.111 237.271 153.211C235.006 157.311 231.623 157.626 232.253 160.866C232.884 164.105 234.547 167.632 229.214 169.696C223.882 171.732 221.388 171.388 218.148 177.38C214.88 183.372 213.761 187.815 208.171 186.382C202.58 184.92 207.225 177.552 210.12 174.455C210.12 174.455 214.048 171.13 213.991 165.138C213.933 159.146 211.468 155.132 219.209 155.533C226.949 155.877 228.297 151.491 231.078 150.172Z" fill="#CEDCF3"/>
<path d="M207.282 190.568C207.512 189.794 212.901 171.244 217.317 169.237C221.818 167.173 224.255 161.783 225.315 158.773C226.692 154.845 232.569 154.071 232.798 154.042L232.884 154.702C232.827 154.702 227.179 155.447 225.946 158.974C224.627 162.787 222.104 167.775 217.603 169.839C213.475 171.732 207.999 190.568 207.942 190.768L207.282 190.568Z" fill="white"/>
<path d="M65.281 175.631C56.4507 173.423 56.336 168.664 56.2214 164.077C56.1353 160.321 56.0493 156.766 51.2615 154.587C44.9255 151.692 44.7821 146.33 44.6388 141.6C44.5241 138.073 44.4381 134.748 41.8005 132.942C35.4645 128.612 30.1032 118.119 30.0459 118.005L30.5333 117.747C30.5906 117.861 35.8659 128.211 42.1159 132.483C44.9828 134.432 45.0975 137.901 45.1835 141.571C45.3269 146.359 45.4702 151.347 51.4909 154.071C56.5654 156.393 56.6801 160.292 56.7661 164.048C56.8808 168.635 56.9954 172.993 65.4243 175.086L65.281 175.631Z" fill="white"/>
<path d="M53.3831 171.388H198.423V66.6858C198.423 65.195 197.219 63.9622 195.7 63.9622H56.1067C54.6159 63.9622 53.3831 65.1663 53.3831 66.6858V171.388Z" fill="#E0E9F8"/>
<rect x="193.024" y="151.867" width="134.518" height="82.6548" transform="rotate(-180 193.024 151.867)" fill="#0B4870" stroke="white" stroke-width="0.5"/>
<path d="M198.423 155.877H125.917H53.4404L37.5574 215.195H126.405H214.278L198.423 155.877Z" fill="#E0E9F8"/>
<path d="M58.9163 166.284H67.8326C68.2053 166.284 68.492 166.571 68.406 166.886L67.5459 170.757C67.4885 170.986 67.2592 171.158 66.9725 171.158H57.9129C57.5401 171.158 57.2534 170.872 57.3395 170.528L58.3429 166.657C58.4002 166.456 58.6296 166.284 58.9163 166.284Z" fill="#99B9EE" stroke="#7AA7F1" stroke-width="0.5"/>
<path d="M71.9037 166.284H78.6411L77.7523 171.187H70.8716L71.9037 166.284Z" fill="#99B9EE" stroke="#7AA7F1" stroke-width="0.5"/>
<path d="M81.9955 166.284H88.7329L88.0448 171.187H81.1641L81.9955 166.284Z" fill="#99B9EE" stroke="#7AA7F1" stroke-width="0.5"/>
<path d="M92.1159 166.284H98.8533L98.3373 171.187H91.4565L92.1159 166.284Z" fill="#99B9EE" stroke="#7AA7F1" stroke-width="0.5"/>
<path d="M102.207 166.284H108.945L108.63 171.187H101.749L102.207 166.284Z" fill="#99B9EE" stroke="#7AA7F1" stroke-width="0.5"/>
<path d="M112.299 166.284H119.037L118.922 171.187H112.041L112.299 166.284Z" fill="#99B9EE" stroke="#7AA7F1" stroke-width="0.5"/>
<path d="M193.148 166.284H183.028L184.117 171.187H194.409L193.148 166.284Z" fill="#99B9EE" stroke="#7AA7F1" stroke-width="0.5"/>
<path d="M179.673 166.284H172.936L173.825 171.187H180.705L179.673 166.284Z" fill="#99B9EE" stroke="#7AA7F1" stroke-width="0.5"/>
<path d="M169.581 166.284H162.844L163.532 171.187H170.413L169.581 166.284Z" fill="#99B9EE" stroke="#7AA7F1" stroke-width="0.5"/>
<path d="M159.461 166.284H152.724L153.24 171.187H160.12L159.461 166.284Z" fill="#99B9EE" stroke="#7AA7F1" stroke-width="0.5"/>
<path d="M149.369 166.284H142.632L142.947 171.187H149.828L149.369 166.284Z" fill="#99B9EE" stroke="#7AA7F1" stroke-width="0.5"/>
<path d="M139.278 166.284H132.54L132.655 171.187H139.536L139.278 166.284Z" fill="#99B9EE" stroke="#7AA7F1" stroke-width="0.5"/>
<path d="M122.42 166.284H129.157L129.243 171.187H122.42V166.284Z" fill="#99B9EE" stroke="#7AA7F1" stroke-width="0.5"/>
<path d="M55.9634 174.828H70.0115L69.2088 179.874H54.8739L55.9634 174.828Z" fill="#99B9EE" stroke="#7AA7F1" stroke-width="0.5"/>
<path d="M195.327 174.828H177.953L178.928 179.874H196.674L195.327 174.828Z" fill="#99B9EE" stroke="#7AA7F1" stroke-width="0.5"/>
<path d="M174.455 174.828H167.517L168.291 179.874H175.402L174.455 174.828Z" fill="#99B9EE" stroke="#7AA7F1" stroke-width="0.5"/>
<path d="M164.02 174.828H157.082L157.655 179.874H164.765L164.02 174.828Z" fill="#99B9EE" stroke="#7AA7F1" stroke-width="0.5"/>
<path d="M153.584 174.828H146.646L147.047 179.874H154.129L153.584 174.828Z" fill="#99B9EE" stroke="#7AA7F1" stroke-width="0.5"/>
<path d="M143.148 174.828H136.21L136.411 179.874H143.492L143.148 174.828Z" fill="#99B9EE" stroke="#7AA7F1" stroke-width="0.5"/>
<path d="M53.8418 183.802H68.234L67.1732 188.819H52.5229L53.8418 183.802Z" fill="#99B9EE" stroke="#7AA7F1" stroke-width="0.5"/>
<path d="M71.8177 183.802H79.0138L78.1823 188.819H70.8429L71.8177 183.802Z" fill="#99B9EE" stroke="#7AA7F1" stroke-width="0.5"/>
<path d="M82.6262 183.802H89.8223H136.554L136.755 188.819H81.8235L82.6262 183.802Z" fill="#99B9EE" stroke="#7AA7F1" stroke-width="0.5"/>
<path d="M140.166 183.802H147.362L147.764 188.819H140.424L140.166 183.802Z" fill="#99B9EE" stroke="#7AA7F1" stroke-width="0.5"/>
<path d="M150.946 183.802H158.142L158.744 188.819H151.405L150.946 183.802Z" fill="#99B9EE" stroke="#7AA7F1" stroke-width="0.5"/>
<path d="M161.755 183.802H168.951L169.725 188.819H162.414L161.755 183.802Z" fill="#99B9EE" stroke="#7AA7F1" stroke-width="0.5"/>
<path d="M172.534 183.802H179.731L180.705 188.819H173.395L172.534 183.802Z" fill="#99B9EE" stroke="#7AA7F1" stroke-width="0.5"/>
<path d="M183.314 183.802H197.706L199.025 188.819H184.375L183.314 183.802Z" fill="#99B9EE" stroke="#7AA7F1" stroke-width="0.5"/>
<path d="M132.741 174.828H125.832V179.874H132.856L132.741 174.828Z" fill="#99B9EE" stroke="#7AA7F1" stroke-width="0.5"/>
<path d="M122.305 174.828H115.338L115.138 179.874H122.248L122.305 174.828Z" fill="#99B9EE" stroke="#7AA7F1" stroke-width="0.5"/>
<path d="M111.869 174.828H104.903L104.501 179.874H111.611L111.869 174.828Z" fill="#99B9EE" stroke="#7AA7F1" stroke-width="0.5"/>
<path d="M101.434 174.828H94.4668L93.8647 179.874H100.975L101.434 174.828Z" fill="#99B9EE" stroke="#7AA7F1" stroke-width="0.5"/>
<path d="M90.9978 174.828H84.031L83.2283 179.874H90.3384L90.9978 174.828Z" fill="#99B9EE" stroke="#7AA7F1" stroke-width="0.5"/>
<path d="M80.562 174.828H73.5953L72.6205 179.874H79.7019L80.562 174.828Z" fill="#99B9EE" stroke="#7AA7F1" stroke-width="0.5"/>
<path d="M59.2317 163.217L60.3785 158.859H63.6468L62.586 163.217H59.2317Z" fill="#99B9EE" stroke="#7AA7F1" stroke-width="0.5"/>
<path d="M66.9152 158.859H73.4519L72.5631 163.217H65.8831L66.9152 158.859Z" fill="#99B9EE" stroke="#7AA7F1" stroke-width="0.5"/>
<path d="M76.7489 158.859H83.2856L82.5402 163.217H75.8888L76.7489 158.859Z" fill="#99B9EE" stroke="#7AA7F1" stroke-width="0.5"/>
<path d="M86.554 158.859H93.0907L92.5173 163.217H85.866L86.554 158.859Z" fill="#99B9EE" stroke="#7AA7F1" stroke-width="0.5"/>
<path d="M96.3591 158.859H102.896L102.494 163.217H95.843L96.3591 158.859Z" fill="#99B9EE" stroke="#7AA7F1" stroke-width="0.5"/>
<path d="M106.164 158.859H112.701L112.471 163.217H105.82L106.164 158.859Z" fill="#99B9EE" stroke="#7AA7F1" stroke-width="0.5"/>
<path d="M115.969 158.859H122.506L122.448 163.217H115.797L115.969 158.859Z" fill="#99B9EE" stroke="#7AA7F1" stroke-width="0.5"/>
<path d="M125.774 158.859H132.311L132.426 163.217H125.774V158.859Z" fill="#99B9EE" stroke="#7AA7F1" stroke-width="0.5"/>
<path d="M135.579 158.859H142.116L142.402 163.217H135.751L135.579 158.859Z" fill="#99B9EE" stroke="#7AA7F1" stroke-width="0.5"/>
<path d="M145.384 158.859H151.95L152.38 163.217H145.728L145.384 158.859Z" fill="#99B9EE" stroke="#7AA7F1" stroke-width="0.5"/>
<path d="M155.218 158.859H161.755L162.385 163.217H155.734L155.218 158.859Z" fill="#99B9EE" stroke="#7AA7F1" stroke-width="0.5"/>
<path d="M165.023 158.859H171.56L172.362 163.217H165.711L165.023 158.859Z" fill="#99B9EE" stroke="#7AA7F1" stroke-width="0.5"/>
<path d="M174.828 158.859H181.365L182.34 163.217H175.688L174.828 158.859Z" fill="#99B9EE" stroke="#7AA7F1" stroke-width="0.5"/>
<path d="M184.633 158.859H191.17L192.317 163.217H185.665L184.633 158.859Z" fill="#99B9EE" stroke="#7AA7F1" stroke-width="0.5"/>
<path d="M209.662 219.811H42.1732C39.6216 219.811 37.5574 217.747 37.5574 215.195H214.278C214.278 217.747 212.213 219.811 209.662 219.811Z" fill="#CEDCF3"/>
<path d="M146.474 196.015C146.302 194.983 145.384 194.209 144.352 194.209H125.946H107.511C106.451 194.209 105.562 194.983 105.39 196.015L103.096 209.92C102.867 211.239 103.899 212.443 105.218 212.443H125.917H146.617C147.964 212.443 148.968 211.239 148.738 209.92L146.474 196.015Z" fill="#CEDCF3"/>
<rect x="67.5746" y="76.2328" width="14.9943" height="1.54817" fill="#F7F7F7"/>
<rect x="86.7832" y="87.7867" width="10.8085" height="1.54817" fill="#F7F7F7"/>
<rect x="99.2832" y="87.7867" width="7.16743" height="1.54817" fill="#F7F7F7"/>
<rect x="67.7466" y="116.858" width="7.16743" height="1.54817" fill="#F7F7F7"/>
<rect x="107.884" y="87.7867" width="17.3452" height="1.54817" fill="#F7F7F7"/>
<rect x="67.7466" y="111.038" width="11.1525" height="1.54817" fill="#F7F7F7"/>
<rect x="83.2856" y="122.62" width="6.79472" height="1.54817" fill="#F7F7F7"/>
<rect x="67.7466" y="122.62" width="13.4748" height="1.54817" fill="#F7F7F7"/>
<rect x="67.7466" y="128.412" width="7.42546" height="1.54817" fill="#F7F7F7"/>
<rect x="85.4932" y="76.2328" width="10.6365" height="1.54817" fill="#F7F7F7"/>
<rect x="85.4932" y="93.578" width="10.6365" height="1.54817" fill="#F7F7F7"/>
<rect x="80.1606" y="99.3406" width="4.55849" height="1.54817" fill="#F7F7F7"/>
<rect x="75.6307" y="105.218" width="10.2064" height="1.54817" fill="#F7F7F7"/>
<rect x="87.3853" y="105.218" width="14.1055" height="1.54817" fill="#F7F7F7"/>
<rect x="67.7466" y="99.3979" width="10.6365" height="1.54817" fill="#F7F7F7"/>
<rect x="67.7466" y="105.218" width="6.30734" height="1.54817" fill="#F7F7F7"/>
<rect x="86.8694" y="99.3979" width="5.9633" height="1.54817" fill="#F7F7F7"/>
<rect x="67.9473" y="134.174" width="5.9633" height="1.54817" fill="#F7F7F7"/>
<rect x="67.7179" y="87.7867" width="10.6365" height="1.54817" fill="#F7F7F7"/>
<rect x="77.1216" y="116.858" width="10.6365" height="1.54817" fill="#F7F7F7"/>
<rect x="77.2649" y="128.412" width="10.6365" height="1.54817" fill="#F7F7F7"/>
<rect x="96.1582" y="128.412" width="10.6365" height="1.54817" fill="#F7F7F7"/>
<rect x="67.7179" y="93.578" width="15.1663" height="1.54817" fill="#F7F7F7"/>
<rect x="138.79" y="76.2328" width="10.6365" height="1.54817" fill="#F7F7F7"/>
<rect x="100.889" y="134.174" width="10.6365" height="1.54817" fill="#F7F7F7"/>
<rect x="152.724" y="76.2328" width="7.11009" height="1.54817" fill="#F7F7F7"/>
<rect x="176.835" y="82.0241" width="7.11009" height="1.54817" fill="#F7F7F7"/>
<rect x="98.9966" y="76.2328" width="13.5608" height="1.54817" fill="#F7F7F7"/>
<rect x="151.806" y="82.0241" width="13.5608" height="1.54817" fill="#F7F7F7"/>
<rect x="135.178" y="87.7867" width="13.5608" height="1.54817" fill="#F7F7F7"/>
<rect x="117.546" y="93.578" width="13.5608" height="1.54817" fill="#F7F7F7"/>
<rect x="150.43" y="87.7867" width="9.63303" height="1.54817" fill="#F7F7F7"/>
<rect x="122.563" y="76.2328" width="13.5608" height="1.54817" fill="#F7F7F7"/>
<rect x="107.11" y="93.578" width="7.94151" height="1.54817" fill="#F7F7F7"/>
<rect x="100.889" y="116.944" width="7.94151" height="1.54817" fill="#F7F7F7"/>
<rect x="115.052" y="76.2328" width="4.95986" height="1.54817" fill="#F7F7F7"/>
<rect x="98.9966" y="93.578" width="4.95986" height="1.54817" fill="#F7F7F7"/>
<rect x="168.635" y="82.0241" width="4.95986" height="1.54817" fill="#F7F7F7"/>
<rect x="67.5746" y="82.0241" width="7.7695" height="1.54817" fill="#F7F7F7"/>
<rect x="88.3027" y="111.067" width="6.13532" height="1.54817" fill="#F7F7F7"/>
<rect x="77.2649" y="82.0241" width="2.49427" height="1.54817" fill="#F7F7F7"/>
<rect x="128.698" y="82.0241" width="20.7282" height="1.54817" fill="#F7F7F7"/>
<rect x="108.83" y="128.412" width="20.7282" height="1.54817" fill="#F7F7F7"/>
<rect x="81.594" y="82.0241" width="2.55161" height="1.54817" fill="#F7F7F7"/>
<rect x="120.011" y="82.0241" width="6.76606" height="1.54817" fill="#F7F7F7"/>
<rect x="126.806" y="87.7867" width="6.76606" height="1.54817" fill="#F7F7F7"/>
<rect x="91.9438" y="134.174" width="6.76606" height="1.54817" fill="#F7F7F7"/>
<rect x="103.813" y="82.0241" width="14.4209" height="1.54817" fill="#F7F7F7"/>
<rect x="90.3669" y="116.944" width="8.4289" height="1.54817" fill="#F7F7F7"/>
<rect x="89.8511" y="128.412" width="4.21445" height="1.54817" fill="#F7F7F7"/>
<rect x="96.7891" y="82.0241" width="4.95986" height="1.54817" fill="#F7F7F7"/>
<rect x="80.1033" y="87.7867" width="4.95986" height="1.54817" fill="#F7F7F7"/>
<rect x="81.0781" y="111.067" width="4.95986" height="1.54817" fill="#F7F7F7"/>
<rect x="86.2673" y="82.0241" width="8.65826" height="1.54817" fill="#F7F7F7"/>
<path d="M158.859 93.6353C158.859 93.6353 161.382 97.9071 162.443 98.5952C163.876 99.5413 162.987 100.487 162.299 100.516C161.611 100.516 158.114 100.774 157.339 99.8853C156.565 98.9966 156.193 96.3876 155.476 95.6995C154.759 95.0115 154.014 92.2878 155.82 91.6284C157.397 91.0264 158.859 93.6353 158.859 93.6353Z" fill="#FFB750"/>
<path d="M157.741 91.7718C157.741 91.7718 160.637 96.789 161.124 97.5057C161.611 98.2511 160.178 98.2511 159.289 97.9071C158.4 97.5631 156.164 93.9794 155.849 93.3199C155.476 92.5459 155.791 91.6571 155.791 91.6571L157.741 91.7718Z" fill="#FFE3CA"/>
<path d="M154.816 94.4381L155.504 99.57L155.849 99.5986L155.734 95.9002L154.816 94.4381Z" fill="#FFB750"/>
<path d="M133.83 93.6353C133.83 93.6353 136.353 97.9071 137.414 98.5952C138.847 99.5413 137.959 100.487 137.271 100.516C136.583 100.516 133.085 100.774 132.311 99.8853C131.537 98.9966 131.164 96.3876 130.447 95.6995C129.73 95.0115 128.956 92.2018 130.791 91.6284C132.397 91.1124 133.83 93.6353 133.83 93.6353Z" fill="#FFB750"/>
<path d="M132.884 91.7718C132.884 91.7718 135.608 96.7603 136.124 97.5057C136.611 98.2511 135.178 98.2511 134.289 97.9071C133.4 97.5631 131.164 93.9794 130.849 93.3199C130.476 92.5459 130.791 91.6571 130.791 91.6571L132.884 91.7718Z" fill="#FFE3CA"/>
<path d="M129.816 94.4381L130.476 99.57L130.849 99.5986L130.734 95.9002L129.816 94.4381Z" fill="#FFB750"/>
<path d="M122.649 54.7305L145.47 65.1376C145.47 65.1376 148.022 65.969 148.309 68.8073C149.197 77.6376 155.791 91.6284 155.791 91.6284C157.913 92.6606 157.741 91.7718 157.741 91.7718C156.393 87.4713 154.788 69.8108 154.186 62.7294C154.071 61.2385 153.985 60.2064 153.957 59.8624C153.957 59.633 153.698 59.3463 153.268 59.0023C150.143 56.4507 137.242 51.2041 137.242 51.2041C127.638 50.9461 122.649 54.7305 122.649 54.7305Z" fill="#FFE3CA"/>
<path d="M118.349 59.203C119.065 65.367 127.867 64.6789 127.867 64.6789H138.532C138.532 64.6789 135.722 70.9289 134.633 76.1755C133.486 81.766 130.762 91.6284 130.762 91.6284C130.762 91.6284 130.935 91.9725 132.884 91.7718C132.884 91.7718 141.256 75.086 144.467 70.8716C145.155 69.9828 147.133 65.0516 147.477 62.1273C147.592 61.1525 147.534 60.3784 147.162 60.0631C146.789 59.7477 145.929 59.1743 144.811 58.4576C141.456 56.336 135.665 53.0963 132.425 52.3796C128.096 51.4048 121.244 49.5699 121.244 49.5699C121.244 49.5699 117.632 53.039 118.349 59.203Z" fill="#FFE3CA"/>
<path d="M125.602 11.6686C125.602 11.6686 123.997 8.62959 124.771 5.41858C125.545 2.1789 128.555 -1.0321 132.942 0.458721C137.328 1.94955 140.883 5.33257 138.246 9.289C135.608 13.2167 140.625 15.0229 139.335 16.8865C138.045 18.75 138.532 20.7282 139.077 21.1583C139.622 21.5883 141.371 23.1365 141.17 25C140.969 26.8349 132.655 19.6388 132.655 19.6388C132.655 19.6388 128.154 10.4931 125.602 11.6686Z" fill="#0B4870"/>
<path d="M138.991 50.4301C138.991 50.4301 138.331 53.6411 121.273 49.5986C121.273 49.5986 126.978 47.7064 138.991 50.4301Z" fill="#EB4747"/>
<path d="M121.072 50.4874C120.814 51.0034 120.556 51.4908 120.27 52.0069C126.491 52.1789 132.741 52.3796 138.962 52.5516C137.987 49.2546 138.303 44.7821 138.475 41.3991C138.676 37.242 140.969 34.375 140.74 30.1892C141.973 30.3899 142.173 30.4186 143.406 30.6193C141.514 25.2294 140.883 22.5631 135.006 20.4989C133.085 19.8108 131.852 19.6961 129.788 19.8681C122.993 20.4415 120.958 20.4989 117.603 26.6628C122.821 27.4943 121.961 29.3578 123.538 34.5757C124.312 37.0986 125.115 39.9369 124.713 42.6032C124.312 45.2122 121.072 48.1078 121.072 50.4874Z" fill="white"/>
<path d="M131.909 21.789C129.128 21.2729 129.731 19.7248 129.731 19.7248C129.731 19.7248 129.845 18.8647 129.903 17.7466C129.903 17.4599 129.931 17.1732 129.931 16.8578C129.931 16.3991 129.903 15.9404 129.845 15.4817C129.616 13.6181 134.891 14.7362 134.891 14.7362C134.891 14.7362 134.576 18.5206 135.321 19.6388C136.038 20.7856 134.69 22.3337 131.909 21.789Z" fill="#FFE3CA"/>
<path d="M126.605 19.7248C126.605 19.7248 132.225 26.2041 134.289 27.6949C134.289 27.6949 136.669 25.5447 135.206 19.8681C135.206 19.8681 132.511 18.492 126.605 19.7248Z" fill="#FFE3CA"/>
<path d="M126.777 4.12843C126.777 4.12843 123.853 9.74769 126.749 15.0516C129.644 20.3555 135.321 12.7293 135.665 11.8406C136.038 10.9518 137.987 5.87728 134.117 4.35778C130.247 2.80962 127.609 2.60893 126.777 4.12843Z" fill="#FFE3CA"/>
<path d="M132.397 15.625C132.397 15.625 131.881 16.7431 129.903 17.7466C129.903 17.4599 129.931 17.1732 129.931 16.8578C129.931 16.8578 131.279 16.7144 132.397 15.625Z" fill="#FCD2B1"/>
<path d="M102.953 45.4415C102.953 45.4415 101.577 46.0436 100.917 45.7855C100.258 45.4989 99.2546 45.4415 98.9392 45.4415C98.5092 45.4415 97.1617 44.9541 97.1904 45.4989C97.2191 46.0149 99.3693 46.3876 99.7993 46.5596C100.229 46.7316 98.4805 47.6778 98.3085 48.1078C98.1365 48.5378 100.143 51.3475 101.261 50.5447C102.38 49.742 102.982 48.1365 103.211 48.0218C103.44 47.9071 104.042 47.4771 104.042 47.4771L102.953 45.4415Z" fill="#FFE3CA"/>
<path d="M98.5379 47.8498C98.5379 47.8498 95.2982 50.5447 95.2409 50.9174C95.1836 51.2901 95.3556 51.4621 95.671 51.2041C95.9863 50.9748 98.882 48.6812 98.882 48.6812C98.882 48.6812 95.6423 52.5229 95.5276 52.8096C95.4703 52.9816 95.7856 53.3257 95.9576 53.211C96.1297 53.0963 99.5987 49.4839 99.5987 49.4839C99.5987 49.4839 96.5597 53.0677 96.5597 53.3543C96.531 53.5837 96.9037 53.8417 97.1618 53.5837C97.4198 53.3257 100.43 50.172 100.43 50.172C100.43 50.172 98.3946 52.9243 98.5379 53.1823C98.6239 53.3257 98.882 53.641 99.3693 52.9243C99.8567 52.2076 101.233 50.6021 101.233 50.6021L98.5379 47.8498Z" fill="#FFE3CA"/>
<path d="M137.414 64.6502H127.867C127.867 64.6502 119.065 65.367 118.349 59.1743C117.632 53.0103 121.244 49.5699 121.244 49.5699C121.244 49.5699 125.889 50.8027 129.96 51.7775C131.995 51.3475 134.432 51.0608 137.299 51.1468C137.299 51.1468 154.501 56.8234 153.985 59.8337C153.985 59.8624 146.789 56.0206 137.414 64.6502Z" fill="#0B4870"/>
<path d="M131.193 53.9851L149.427 53.6984L140.224 58.3716L131.193 53.9851Z" fill="#F2F2F2"/>
<path d="M136.869 51.6342C136.869 51.6342 132.77 53.211 127.752 51.7775L127.523 49.914L137.873 50.4874L136.869 51.6342Z" fill="white"/>
<path d="M140.224 58.3716L131.193 54.8739V53.9851L140.94 57.4828L140.224 58.3716Z" fill="#D3D3D3"/>
<path d="M136.783 52.5229C136.726 53.1823 137.414 53.6697 138.045 53.4117L139.105 52.953C139.421 52.8096 139.621 52.4943 139.564 52.1502C139.134 49.3979 138.188 38.6755 139.564 36.8119C140.08 36.1239 140.396 35.5218 140.568 35.0057C141.485 37.3567 142.603 40.3956 143.062 42.0298L151.663 53.4977L154.558 54.2431C150.946 45.5562 148.05 40.969 148.05 40.969C147.477 39.4495 145.871 34.8624 144.438 30.7913C143.521 28.211 142.718 25.8314 142.259 24.57C142.03 23.9106 141.6 23.3658 140.998 23.0218C139.65 22.219 137.443 20.9576 135.436 19.9828H135.407C135.35 19.9541 135.292 19.9255 135.206 19.8968C139.048 25.6594 137.557 42.0298 136.783 52.5229C136.783 52.4943 136.783 52.4943 136.783 52.5229Z" fill="#FDB32A"/>
<path d="M122.563 20.3555C121.33 20.5562 118.291 23.5092 116.686 26.4908C114.851 29.9025 112.959 33.7729 111.554 35.0344C108.974 37.3853 101.72 45.6709 101.376 45.4702C101.233 45.3842 103.354 47.9358 103.641 48.0505C103.784 48.1078 115.539 37.9014 116.686 36.3532C117.746 34.8911 120.613 28.6984 121.474 28.8417C121.531 28.9851 122.592 31.25 123.566 34.547C123.595 34.6044 123.595 34.6617 123.624 34.719C124.312 37.0126 124.255 39.5356 123.882 42.3452C123.595 44.4667 122.018 47.9358 121.072 49.6273C120.958 49.828 120.986 50.2294 121.101 50.5161C121.187 50.6881 121.273 50.8314 121.416 50.8888L124.885 52.1789L125.688 52.4656C126.261 52.695 126.892 52.5803 127.351 52.2362C127.724 51.9782 128.01 51.5482 128.068 51.0321C128.842 45.1261 129.816 39.0768 130.591 36.8119C134.002 26.8349 129.272 19.3234 129.272 19.3234C129.272 19.3234 123.652 19.9541 122.563 20.3555Z" fill="#FDB32A"/>
<path d="M140.224 58.3716L145.642 43.578L163.102 43.8647L157.942 57.5115L140.224 58.3716Z" fill="#CEDCF3"/>
<path d="M151.233 50.1147C150.688 51.1755 150.86 52.3509 151.606 52.695C152.351 53.0677 153.354 52.4943 153.899 51.4335C154.444 50.3727 154.272 49.1973 153.526 48.8532C152.781 48.4805 151.749 49.0539 151.233 50.1147Z" fill="#F2F0F0"/>
<path d="M140.625 22.1617C139.335 20.2121 138.417 18.664 138.303 15.883C138.217 14.0482 137.815 11.5539 136.554 10.3211C137.873 6.88073 136.325 5.84862 135.694 4.7305C134.92 3.32568 129.186 -0.0573481 126.921 3.4977C124.656 7.02407 125.459 10.7225 125.459 10.7225C125.688 8.77293 127.695 6.13531 127.695 6.13531C128.01 8.17086 132.225 11.4966 134.06 12.844C134.031 12.8727 134.002 12.93 134.002 12.9587C132.97 14.4495 134.26 15.9404 134.49 17.5172C134.719 19.094 130.161 23.3371 135.235 25.4587C140.31 27.6089 141.915 24.0826 140.625 22.1617Z" fill="#0B4870"/>
<path d="M48.3372 189.163C48.3372 189.163 48.2225 190.367 42.6032 190.367C36.984 190.367 28.8131 188.905 28.8131 188.905L41.8578 187.643C41.8578 187.643 46.875 187.385 48.3372 189.163Z" fill="#0E538C"/>
<path d="M34.031 189.593C30.8487 189.593 29.5012 191.227 28.2398 191.743C26.9783 192.259 25.7168 193.033 25.7168 193.005C26.4336 191.6 27.437 191.571 27.9531 191.112C28.4691 190.654 28.3258 190.883 27.2077 190.797C26.5769 190.74 25.4301 191.915 24.6274 192.575C23.9106 193.119 23.4806 193.177 23.4806 193.177C23.4806 193.177 24.312 192.001 25.3441 191.055C26.6056 189.908 28.1824 188.962 28.5551 188.79C29.2432 188.503 31.3648 188.446 32.8556 188.647C34.5758 188.876 36.3246 189.593 34.031 189.593Z" fill="#0E538C"/>
<path d="M28.7558 188.847C28.7558 188.847 26.3189 189.478 25.8889 189.822C25.6022 190.052 24.3407 191.399 24.3407 191.399C24.3407 191.399 25.2581 191.256 25.7742 190.74C26.3189 190.195 28.7558 188.847 28.7558 188.847Z" fill="#0E538C"/>
<path d="M43.7214 186.697C43.7214 186.697 49.8568 187.099 49.4267 190.883C49.1973 193.033 47.7925 193.779 45.929 193.607C42.4886 193.32 38.5896 192.804 38.5896 192.804L36.8407 186.927L43.7214 186.697Z" fill="#0E538C"/>
<path d="M45.0115 187.213L51.0322 167.804C51.0322 167.804 51.9209 164.966 53.3831 165.482C55.476 166.256 54.4439 168.578 54.2719 169.954C53.8992 172.764 54.1572 173.997 52.2076 180.763C51.0035 184.948 49.9714 189.765 48.9393 192.517C48.2225 194.409 46.9897 191.686 45.1262 190.94C41.6285 189.536 45.0115 187.213 45.0115 187.213Z" fill="#0E538C"/>
<path d="M45.4702 157.253C46.6456 160.636 50.2867 162.385 53.641 161.153C56.9667 159.92 58.7443 156.164 57.5688 152.781C56.3933 149.398 52.7523 147.649 49.3979 148.882C46.0722 150.115 44.2947 153.87 45.4702 157.253Z" fill="#0E538C"/>
<path d="M38.8762 157.569C40.711 160.321 44.3808 161.009 47.0471 159.117L46.6743 155.877C49.3406 153.956 50 150.172 48.1652 147.42L46.9037 145.556C45.0688 142.804 41.3991 142.116 38.7328 144.008L37.5287 144.868C34.8624 146.789 34.203 150.573 36.0379 153.326L38.8762 157.569Z" fill="#0B4870"/>
<path d="M36.4678 148.538C36.7832 148.997 37.1272 149.427 37.5286 149.857C40.1662 152.724 43.6926 153.813 45.9288 152.638C46.9609 154.042 48.1364 155.161 49.1972 156.021C50.43 157.024 53.5837 157.425 53.5837 157.425C55.4185 159.432 48.5378 171.158 48.0504 171.101C47.047 171.015 45.7568 164.536 46.7029 162.185C47.133 161.124 47.821 159.862 47.6204 159.289C46.9036 157.311 45.9002 157.655 45.9002 157.655C45.9002 157.655 44.5814 159.203 43.5492 159.146C42.4885 159.06 40.6536 157.397 40.5676 157.368C40.2522 157.11 39.9655 156.795 39.7075 156.422L36.9552 152.294C36.2385 151.147 36.0665 149.771 36.4678 148.538Z" fill="#FFE3CA"/>
<path d="M57.5115 197.936C57.5115 197.936 55.2752 200.631 54.5872 200.917C53.6697 201.319 50.8601 200.459 50.8601 200.459C50.8601 200.459 50.1147 188.102 49.2546 183.286C48.3945 178.469 47.133 177.208 47.0757 175.688C46.9897 173.251 44.9541 172.276 45.2982 170.384C45.6422 168.492 46.2443 161.726 46.4449 162.615C48.1938 170.298 50.344 163.905 50.8314 162.901C51.0894 162.357 57.5115 197.936 57.5115 197.936Z" fill="#F2F0F0"/>
<path d="M47.3337 160.321C47.3337 160.321 44.6101 163.303 44.8108 164.478C44.9828 165.654 43.6353 169.323 44.9828 174.427C46.5023 180.247 47.305 184.203 47.5917 188.016C47.8784 191.829 46.5883 195.327 47.1043 200C47.5057 203.67 48.3371 203.87 48.3371 203.87C48.3371 203.87 49.9713 204.272 51.1181 202.838C52.2649 201.433 50.5447 188.933 49.9713 185.837C49.3979 182.712 47.5631 175.43 47.0757 173.28C46.4736 170.642 46.5883 167.947 46.617 167.173C46.7603 164.45 47.1043 162.758 47.391 161.726C47.4197 161.583 47.5631 159.977 47.3337 160.321Z" fill="#0E538C"/>
<path d="M52.0929 163.819C53.5837 168.119 58.2282 170.327 62.4714 168.75C66.7145 167.173 68.9507 162.414 67.4599 158.114C65.9691 153.813 61.3246 151.606 57.0815 153.182C52.8383 154.731 50.6021 159.518 52.0929 163.819Z" fill="#0E538C"/>
<path d="M37.5 237.729L39.0195 249.857L32.4255 252.982L28.7844 253.784L35.2638 248.767L33.1422 237.815L37.5 237.729Z" fill="#FCBAA2"/>
<path d="M39.4495 251.692L38.016 252.064L37.0413 251.175L31.766 253.813L27.0929 254.931C27.0929 254.931 27.0355 254.558 27.1789 254.358C27.7523 253.584 31.0493 251.892 31.0493 251.892C31.0493 251.892 31.1066 253.01 31.5653 253.039C32.0241 253.068 36.0665 250.946 37.0126 250.373C38.6181 249.369 38.9335 248.71 39.0481 248.796C39.3922 248.968 39.4495 251.692 39.4495 251.692Z" fill="#0E538C"/>
<path d="M21.5884 220.872L16.3418 231.193L9.11702 230.849L5.50464 229.788L13.5035 228.44L17.8613 219.61L21.5884 220.872Z" fill="#FCBAA2"/>
<path d="M15.9118 233.028L14.4783 232.683L14.0196 231.422L7.51153 231.336L3.64111 230.419C3.64111 230.419 4.09983 229.903 4.38653 229.759C5.24662 229.386 8.31428 229.214 8.31428 229.214C8.31428 229.214 7.99891 230.103 8.40029 230.333C8.80166 230.591 13.2741 230.734 14.3636 230.648C16.2558 230.505 16.8005 230.103 16.8579 230.218C17.0585 230.619 15.9118 233.028 15.9118 233.028Z" fill="#0E538C"/>
<path d="M59.8624 189.994L55.9633 191.743L55.992 197.104L29.1285 192.718C29.1285 192.718 26.5769 191.886 24.9427 196.101C22.6204 202.064 16.7145 220.614 16.7145 220.614L20.4415 224.656L32.1675 203.698C32.1675 203.698 56.1927 215.367 64.1055 212.844C67.1445 211.869 69.4668 206.307 69.0367 200.688C68.6927 196.273 67.8326 192.231 67.8326 192.231L59.8624 189.994Z" fill="#FDB32A"/>
<path d="M56.4507 212.729L37.2133 211.296L38.8762 242.03L33.1996 242.23L29.0138 206.221C29.0138 206.221 30.1319 200.86 33.8016 201.663C37.5 202.494 46.3876 209.547 56.4507 212.729Z" fill="#FDB32A"/>
<path d="M69.4094 220.442C69.4094 220.442 59.3177 209.117 56.7087 202.724C53.5837 195.069 53.8418 185.464 53.2684 182.282C52.2076 176.433 50.9175 165.08 50.6881 163.675C50.4301 162.271 51.3188 160.694 51.3188 160.694C51.3188 160.694 50.6594 156.451 52.5516 156.909C55.2753 157.569 57.9702 159.06 58.9163 159.518C60.6938 160.321 64.3349 181.709 64.5356 182.741C65.281 186.468 68.0046 189.851 69.9542 193.32C74.5413 201.548 75.7168 211.267 75.7168 211.267C75.7168 211.267 75.1434 218.377 69.4094 220.442Z" fill="#0B4870"/>
<path d="M59.0023 190.826C59.0023 190.826 58.9163 192.202 52.4943 191.886C46.0722 191.542 36.6686 189.392 36.6686 189.392L51.5482 188.704C51.5482 188.704 57.2534 188.733 59.0023 190.826Z" fill="#FFE3CA"/>
<path d="M41.7145 190.138C38.6468 190.08 37.328 191.657 36.1239 192.144C34.9198 192.632 33.687 193.349 33.687 193.349C34.375 192.001 35.3498 191.972 35.8659 191.542C36.3533 191.112 36.2386 191.342 35.1491 191.227C34.5184 191.17 33.4289 192.288 32.6549 192.919C31.9668 193.463 31.5367 193.492 31.5367 193.492C31.5367 193.492 32.3395 192.345 33.3429 191.428C34.5757 190.338 36.0666 189.421 36.4393 189.278C37.0987 189.019 39.1342 188.991 40.5964 189.22C42.2306 189.45 43.9221 190.195 41.7145 190.138Z" fill="#FFE3CA"/>
<path d="M36.5826 189.306C36.5826 189.306 34.2317 189.88 33.8303 190.195C33.5436 190.424 32.3395 191.714 32.3395 191.714C32.3395 191.714 33.1996 191.571 33.7156 191.084C34.2317 190.625 36.5826 189.306 36.5826 189.306Z" fill="#FFE3CA"/>
<path d="M53.8704 189.306L63.3887 184.289C63.3887 184.289 63.4174 190.367 63.4747 192.689C63.5321 195.011 64.5068 198.28 62.672 198.767C60.8371 199.255 59.891 198.997 61.7832 200.115C63.6754 201.204 63.2454 202.351 62.5286 203.297C61.8119 204.243 64.9369 213.876 64.1915 214.421C61.2385 210.694 58.0561 206.078 56.68 202.724C54.9311 198.366 54.2431 193.377 53.8704 189.306Z" fill="#0B4870"/>
<path d="M56.9381 186.869L56.5654 167.489C56.5654 167.489 56.594 161.439 56.7087 159.662C56.8234 157.827 59.9484 159.977 59.9484 159.977C59.9484 159.977 64.3349 165.912 64.4209 180.218C64.4782 189.794 63.9621 194.782 59.547 194.381C55.4472 194.008 50.7741 193.377 50.7741 193.377L48.7385 188.073L56.9381 186.869Z" fill="#0B4870"/>
<path d="M55.9632 197.104L23.1937 193.005L23.2797 192.317L56.0492 196.416L55.9632 197.104Z" fill="#CEDCF3"/>
<path d="M41.5997 194.581C41.5424 195.126 41.1123 195.528 40.6536 195.47L23.8532 193.377C23.3944 193.32 22.821 192.89 22.4197 191.456L15.9403 174.685C16.0263 173.997 16.571 173.653 17.0298 173.825L34.2029 176.519C34.6616 176.692 34.977 177.093 35.149 177.838L41.5997 194.581Z" fill="#CEDCF3"/>
<path d="M39.4782 195.04L39.6502 195.069L56.0493 197.133C55.4185 197.391 54.4151 197.477 53.297 197.334L39.5642 195.614L39.3921 195.585L25.6593 193.865C24.5412 193.721 23.5951 193.377 23.0217 193.005L39.4782 195.04Z" fill="#CEDCF3"/>
<path d="M56.9381 186.869L56.5654 167.489C56.5654 167.489 56.8521 165.854 57.4255 164.392C57.5689 166.514 58.5436 181.795 58.6583 183.802C58.8017 185.98 60.5792 186.21 60.9519 186.927C61.3533 187.615 61.0092 187.758 59.6904 187.5C58.4003 187.213 58.859 187.443 59.1457 188.131C59.4324 188.847 58.7157 188.647 56.1927 187.729C54.3579 187.07 50.8315 187.729 49.054 188.131L56.9381 186.869Z" fill="#0B4870"/>
<path d="M170.241 139.306C167.087 140.138 161.267 143.062 160.034 148.079C158.2 155.619 161.869 166.657 156.078 177.494C154.215 180.935 188.102 185.579 188.102 185.579L194.639 147.506C194.639 147.506 186.468 139.249 184.805 138.675C181.336 137.529 176.548 137.643 170.241 139.306Z" fill="#FDB32A"/>
<path d="M194.667 147.534C195.843 150.573 198.824 168.664 195.499 172.936C195.126 173.423 197.219 174.197 196.846 176.433C196.789 176.806 196.158 178.612 196.158 178.612L193.463 179.329L187.586 172.534C187.586 172.534 189.966 168.836 193.091 154.817C194.008 150.688 194.409 146.846 194.667 147.534Z" fill="#EFAE35"/>
<path d="M172.42 169.151C172.42 169.151 175.258 176.634 182.11 178.641C183.286 178.985 184.031 180.304 183.458 180.734C182.712 181.279 181.738 181.393 180.017 181.393C176.434 181.393 171.56 180.247 168.205 176.864C163.217 171.875 161.64 169.581 162.156 167.087C162.615 164.536 172.42 169.151 172.42 169.151Z" fill="#FCD2B1"/>
<path d="M161.009 145.556C159.547 148.022 158.716 151.978 158.744 157.655C158.744 162.041 162.414 169.237 162.959 171.445C163.045 171.818 163.274 173.394 163.274 173.394L167.317 177.523L175.43 171.818L172.965 167.89L172.219 167.976C172.219 167.976 171.76 165.797 171.875 164.966C171.99 164.134 169.639 152.81 168.463 145.556C167.804 141.342 162.443 143.119 161.009 145.556Z" fill="#EFAE35"/>
<path d="M168.291 167.804L170.671 167.058L171.646 166.8C171.703 167.489 172.276 167.947 172.276 167.947L170.413 168.177L168.263 168.865L165.74 170.671L168.291 167.804Z" fill="#0E538C"/>
<path d="M181.594 178.612L185.722 177.437C185.722 177.437 186.898 179.071 186.669 179.472C186.439 179.874 186.669 182.282 186.669 182.282L184.662 184.06L183.027 183.486C183.027 183.486 182.913 182.741 183.458 182.683C184.031 182.597 183.085 182.196 182.798 182.024C182.511 181.823 180.132 180.562 181.594 178.612Z" fill="#FCD2B1"/>
<path d="M175.229 138.933C174.771 140.281 175.459 141.8 176.778 142.259L179.129 143.119C180.447 143.607 181.881 142.861 182.34 141.514L184.432 135.321C184.891 133.974 184.203 132.454 182.884 131.967L180.533 131.107C179.215 130.619 177.781 131.365 177.322 132.712L175.229 138.933Z" fill="#FF957E"/>
<path d="M185.493 144.381C185.264 145.269 184.346 145.814 183.486 145.556L176.405 143.521C175.545 143.263 175.029 142.345 175.258 141.428L178.154 130.562C178.383 129.673 179.301 129.128 180.161 129.386L187.242 131.393C188.102 131.651 188.618 132.569 188.389 133.486L185.493 144.381Z" fill="#FCD2B1"/>
<path d="M189.163 132.397C189.22 132.339 188.503 131.537 188.876 129.96C189.363 127.838 187.787 126.978 186.611 126.95C185.923 126.921 183.601 128.039 182.368 128.412C181.135 128.784 181.25 128.297 179.014 127.896C177.523 127.609 177.179 128.44 176.663 129.587C176.147 130.763 176.089 135.235 176.089 135.235C176.29 135.522 176.605 135.751 176.806 135.522C177.007 135.292 177.81 131.709 178.469 130.648C179.1 129.587 181.68 131.279 183.085 132.11C184.461 132.942 185.694 133.085 187.901 132.626C188.159 132.913 188.389 133.228 188.389 133.372C188.389 133.658 187.758 135.694 187.758 135.694C187.758 135.694 188.991 134.92 189.335 134.318C189.507 134.117 189.564 133.142 189.163 132.397Z" fill="#0B4870"/>
<path d="M177.494 139.163C177.408 139.45 177.122 139.65 176.835 139.564L175.315 139.134C175.029 139.048 174.857 138.733 174.943 138.446L175.717 135.55C175.803 135.264 176.089 135.063 176.376 135.149L177.896 135.579C178.182 135.665 178.354 135.981 178.268 136.267L177.494 139.163Z" fill="#FCD2B1"/>
<path d="M176.548 136.411C176.548 136.411 175.401 140.682 175.029 142.116C174.685 143.406 174.427 146.388 181.451 148.394C185.608 149.57 186.296 146.359 186.583 145.327C186.783 144.524 186.554 141.915 186.239 141.342C186.239 141.313 185.78 143.119 185.78 143.119C185.78 143.119 185.378 141.141 183.4 140.596C180.218 139.679 178.956 141.428 177.58 140.969C176.491 140.596 176.175 138.532 176.548 136.411Z" fill="#0B4870"/>
<path d="M181.336 142.976L183.515 143.607C183.802 143.693 184.117 143.521 184.174 143.205L184.26 142.89L181.021 141.972L180.935 142.288C180.877 142.603 181.049 142.89 181.336 142.976Z" fill="#FCD2B1"/>
<path d="M215.883 186.411C214.88 189.306 197.219 199.943 191.284 199.312L173.423 200.201C158.257 198.28 151.061 173.853 151.061 173.853C151.663 167.718 166.628 176.606 171.961 179.358C180.39 183.716 185.751 183.945 185.751 183.945C191.399 184.547 197.936 180.017 205.075 179.874C212.901 179.673 217.489 181.852 215.883 186.411Z" fill="#0B4870"/>
<path d="M177.064 183.486C177.064 183.458 177.064 183.458 177.064 183.486V182.683L207.769 182.11V182.884V182.913L207.683 183.056C207.311 183.744 206.594 183.859 205.791 183.888L179.071 184.404C178.268 184.432 177.552 184.318 177.15 183.658L177.064 183.486Z" fill="#CEDCF3"/>
<path d="M184.461 183.458C184.461 183.458 184.461 183.486 184.461 183.458L184.375 183.601C184.26 183.773 184.117 183.916 183.945 184.002L179.272 184.088C178.498 184.117 177.81 184.031 177.408 183.486L177.322 183.372C177.322 183.372 177.322 183.372 177.293 183.343V182.97L184.404 182.827L184.461 183.458Z" fill="#CEDCF3"/>
<path d="M188.618 183.171L203.956 182.884V182.339L188.589 182.655L188.618 183.171Z" fill="#CEDCF3"/>
<path d="M184.633 182.511L188.331 166.8C188.417 166.399 188.819 166.055 189.22 166.026L210.78 165.625C211.181 165.625 211.41 165.94 211.324 166.37L207.626 182.081L184.633 182.511Z" fill="#CEDCF3"/>
<path d="M170.728 204.243C172.85 204.616 174.484 202.064 174.484 202.064L179.989 197.592L178.813 194.553L168.091 199.541C168.091 199.541 168.578 203.87 170.728 204.243Z" fill="#FCD2B1"/>
<path d="M174.455 201.892C174.455 201.892 174.455 202.15 174.054 203.326C173.653 204.501 173.137 204.903 172.62 205.075C170.556 205.705 169.094 205.39 164.163 206.365C159.232 207.339 157.741 206.594 156.307 204.243C154.874 201.892 156.365 200.029 158.773 199.857C162.242 199.599 164.192 200 165.998 199.713C167.89 199.427 168.005 198.968 169.123 198.251C170.155 197.592 171.13 201.548 170.155 202.466C169.266 203.268 173.739 203.383 174.455 201.892Z" fill="#FFB750"/>
<path d="M173.423 204.157C171.388 204.788 169.897 204.472 164.966 205.447C160.035 206.422 158.544 205.677 157.11 203.326C156.451 202.236 156.422 201.261 156.795 200.516C155.705 201.29 155.333 202.638 156.307 204.243C157.741 206.594 159.232 207.339 164.163 206.365C169.094 205.39 170.585 205.705 172.621 205.075C173.022 204.96 173.423 204.673 173.767 204.014C173.653 204.071 173.538 204.128 173.423 204.157Z" fill="white"/>
<path d="M174.455 201.978C174.455 201.921 174.455 201.921 174.455 201.921C174.455 201.95 174.427 201.978 174.398 202.007C174.427 201.978 174.455 201.978 174.455 201.978Z" fill="#E9D6B8"/>
<path d="M163.819 203.727C163.675 203.784 163.532 203.469 163.475 203.039C163.389 202.15 163.188 201.29 162.901 200.401C162.758 199.971 162.758 199.599 162.93 199.541C163.102 199.484 163.389 199.799 163.503 200.229C163.79 201.089 163.962 201.978 164.048 202.838C164.105 203.268 163.962 203.67 163.819 203.727Z" fill="white"/>
<path d="M165.338 203.44C165.166 203.469 165.023 203.182 164.966 202.781C164.88 201.95 164.679 201.118 164.392 200.315C164.249 199.914 164.249 199.57 164.45 199.541C164.622 199.513 164.908 199.828 165.052 200.229C165.31 201.032 165.51 201.864 165.596 202.666C165.625 203.068 165.51 203.412 165.338 203.44Z" fill="white"/>
<path d="M166.944 203.383C166.772 203.412 166.6 203.096 166.542 202.666C166.399 201.806 166.198 200.975 165.883 200.115C165.74 199.685 165.74 199.341 165.912 199.341C166.112 199.341 166.399 199.656 166.542 200.086C166.858 200.917 167.058 201.778 167.173 202.609C167.23 203.01 167.116 203.354 166.944 203.383Z" fill="white"/>
<path d="M171.101 196.932C171.101 196.932 208.859 180.849 211.009 180.82C218.291 180.763 216.628 188.389 212.93 192.001C208.572 196.244 175.43 204.014 175.43 204.014L171.101 196.932Z" fill="#0B4870"/>
<path d="M186.066 199.742L175.745 189.593L180.16 185.092L191.399 197.362L186.066 199.742Z" fill="#FCD2B1"/>
<path d="M188.188 191.772C188.188 191.772 161.955 166.858 160.206 166.112C154.214 163.589 150.516 170.442 150.717 172.821C151.003 175.889 177.638 200.831 177.638 200.831L188.188 191.772Z" fill="#0B4870"/>
<path d="M203.727 200.516C204.329 201.089 204.444 202.838 204.444 202.838C204.444 202.838 195.699 206.279 192.632 206.336C191.829 206.365 190.395 206.021 189.019 205.619C188.79 205.562 188.245 204.931 188.016 204.874C187.586 204.759 187.5 205.161 187.156 205.046C186.238 204.731 185.55 204.472 185.522 204.415C183.658 200.344 184.289 198.337 184.289 198.337C184.289 198.337 188.303 199.541 187.615 198.595C186.152 196.588 190.367 194.553 191.284 195.614C195.069 199.885 201.949 198.825 203.727 200.516Z" fill="#FFB750"/>
<path d="M204.214 201.376C201.519 202.494 195.872 204.759 194.753 204.845C190.138 205.189 186.927 203.498 184.776 202.494C184.977 203.068 185.206 203.727 185.522 204.415C185.55 204.472 186.21 204.731 187.156 205.046C187.529 205.161 187.615 204.731 188.016 204.874C188.245 204.931 188.761 205.562 189.019 205.619C190.396 206.021 191.829 206.336 192.632 206.336C195.7 206.279 204.444 202.838 204.444 202.838C204.444 202.838 204.444 202.036 204.214 201.376Z" fill="white"/>
<path d="M198.05 198.739C198.136 198.911 197.792 199.083 197.305 199.197C196.301 199.398 195.327 199.713 194.352 200.115C193.864 200.315 193.434 200.373 193.377 200.201C193.32 200.029 193.635 199.713 194.122 199.513C195.069 199.111 196.072 198.825 197.047 198.624C197.506 198.481 197.964 198.567 198.05 198.739Z" fill="white"/>
<path d="M196.072 198.022C196.158 198.194 195.814 198.423 195.327 198.567C194.352 198.853 193.406 199.255 192.46 199.742C192.001 199.971 191.571 200.057 191.514 199.885C191.456 199.713 191.772 199.341 192.23 199.111C193.148 198.653 194.094 198.251 195.069 197.993C195.556 197.792 196.015 197.85 196.072 198.022Z" fill="white"/>
<path d="M194.18 197.391C194.237 197.563 193.922 197.821 193.463 197.993C192.517 198.366 191.6 198.825 190.711 199.369C190.281 199.656 189.88 199.742 189.822 199.541C189.765 199.369 190.052 198.968 190.51 198.681C191.399 198.136 192.316 197.678 193.234 197.334C193.693 197.19 194.123 197.219 194.18 197.391Z" fill="white"/>
</svg>
