<svg width="275" height="211" viewBox="0 0 275 211" fill="none" xmlns="http://www.w3.org/2000/svg">
<path d="M42.4766 206.135C36.6667 204.404 27.5 200.814 19.274 192.86C5.31192 179.363 2.98798 161.927 1.66001 150.824C-2.98788 111.753 13.999 69.9196 41.5913 42.3377C61.0312 22.9125 82.9058 13.3564 91.2794 10.0605C92.4045 9.61865 104.725 4.79457 117.857 2.3273C123.317 1.2962 199.158 -11.7214 243.258 39.4469C267.088 67.0656 269.485 99.3059 271.477 126.17C273.119 148.32 269.817 160.491 266.313 168.887C259.083 186.231 247.094 196.911 240.122 202.213" fill="#E0E9F8"/>
<g opacity="0.5">
<path d="M32.4799 193.154C17.9092 192.252 5.57012 179.805 5.4779 169.31C5.40413 160.638 13.7224 158.392 13.999 147.455C14.2388 138.009 8.13384 135.91 9.1667 127.864C10.2549 119.412 18.5363 109.727 28.496 109.691C39.9497 109.672 47.7331 122.45 48.3971 132.688C48.8397 139.648 44.5792 140.605 44.7083 147.16C44.9481 160.564 61.7137 164.394 61.4739 174.41C61.271 183.617 46.8293 194.038 32.4799 193.154Z" fill="#99B9EE"/>
</g>
<rect x="31.5023" y="123.905" width="0.848424" height="76.3382" fill="#99B9EE"/>
<path d="M31.8159 150.401C24.7334 149.922 23.7559 139.556 23.719 139.114L24.5674 139.04C24.5674 139.132 25.5265 149.13 31.8712 149.554L31.8159 150.401Z" fill="#99B9EE"/>
<path d="M31.8158 177.08C26.7437 176.749 26.0613 169.384 26.0244 169.071L26.8728 168.997C26.8728 169.071 27.5368 175.957 31.8712 176.252L31.8158 177.08Z" fill="#99B9EE"/>
<path d="M31.5576 166.014L31.5208 165.167C37.4597 164.873 38.3266 158.263 38.3266 158.189L39.175 158.281C39.1566 158.373 38.1975 165.683 31.5576 166.014Z" fill="#99B9EE"/>
<path d="M31.8344 185.587L31.7975 184.74C35.9843 184.537 36.5929 179.989 36.6114 179.787L37.4598 179.897C37.4413 179.953 36.7405 185.366 31.8344 185.587Z" fill="#99B9EE"/>
<g opacity="0.5">
<path d="M61.0681 194.333C53.8012 193.891 47.6409 187.686 47.604 182.438C47.5671 178.111 51.717 176.988 51.8646 171.538C51.9937 166.825 48.932 165.775 49.4484 161.779C49.9833 157.563 54.1147 152.739 59.0946 152.721C64.7938 152.702 68.6855 159.073 69.0175 164.192C69.2388 167.653 67.1178 168.132 67.1731 171.409C67.2838 178.093 75.6573 180.008 75.5282 184.998C75.4176 189.582 68.2244 194.775 61.0681 194.333Z" fill="#99B9EE"/>
</g>
<rect x="60.5886" y="159.791" width="0.424212" height="38.0586" fill="#99B9EE"/>
<path d="M60.7361 173.011C57.2133 172.772 56.7153 167.598 56.6969 167.377L57.1211 167.34C57.1211 167.395 57.6007 172.367 60.773 172.588L60.7361 173.011Z" fill="#99B9EE"/>
<path d="M60.7362 186.323C58.2093 186.158 57.8589 182.475 57.8405 182.328L58.2647 182.291C58.2647 182.328 58.5967 185.753 60.7546 185.9L60.7362 186.323Z" fill="#99B9EE"/>
<path d="M60.6071 180.8L60.5886 180.376C63.5397 180.229 63.9823 176.933 63.9823 176.896L64.4065 176.951C64.4065 176.988 63.927 180.634 60.6071 180.8Z" fill="#99B9EE"/>
<path d="M60.7545 190.558L60.7361 190.135C62.8203 190.043 63.1338 187.76 63.1338 187.667L63.558 187.723C63.5396 187.76 63.1891 190.448 60.7545 190.558Z" fill="#99B9EE"/>
<path d="M137.518 210.002C213.447 210.002 275 207.125 275 203.576C275 200.027 213.447 197.15 137.518 197.15C61.5894 197.15 0.0368652 200.027 0.0368652 203.576C0.0368652 207.125 61.5894 210.002 137.518 210.002Z" fill="#C5D6F1"/>
<rect x="46.4913" y="61.9133" width="65.4762" height="3.0933" fill="#C5D6F1"/>
<rect x="11.0236" y="81.9862" width="65.4762" height="3.0933" fill="#C5D6F1"/>
<rect x="41.9725" y="98.9217" width="65.4762" height="3.0933" fill="#C5D6F1"/>
<path d="M159.36 116.415L158.331 126.213C158.362 125.929 161.577 125.107 161.831 125.012C165.584 123.764 169.353 122.61 173.138 121.504C187.218 117.363 201.233 113.729 214.616 107.597C215.154 107.36 215.693 107.091 216.073 106.649C217.181 105.385 215.709 98.1152 216.548 97.7833C197.892 105.306 178.586 110.521 159.36 116.415Z" fill="#347AF0"/>
<path d="M187.392 86.4999C187.392 86.9898 186.315 89.9134 185.777 91.3357C185.682 91.6043 185.602 91.8098 185.539 91.9362C185.523 91.9994 185.491 92.0468 185.491 92.0626C185.491 92.0784 185.476 92.0784 185.476 92.0942C183.765 96.3769 177.145 113.286 172.885 113.128C168.292 112.954 156.383 95.6499 156.383 95.6499L161.799 91.8888C161.799 91.8888 170.842 105.195 172.331 106.428C173.788 107.613 181.501 91.2408 181.928 90.3085C181.516 89.3445 180.392 86.6105 180.772 86.1364C181.215 85.5517 181.548 86.5157 181.548 86.5157C181.548 86.5157 181.421 85.4885 182.387 85.1567C183.353 84.8248 183.417 85.0144 184.003 84.8248C184.589 84.6351 185.159 84.4297 185.745 84.888C186.363 85.3463 187.392 85.852 187.392 86.4999Z" fill="#B97A59"/>
<path d="M93.6522 155.212V169.119L98.15 160.079C98.15 160.079 98.4825 160.142 99.0843 160.269C98.5776 158.815 98.6092 157.061 98.2766 155.465C95.4576 155.307 93.6522 155.212 93.6522 155.212Z" fill="#0B4870"/>
<path d="M98.2767 155.449C98.6093 157.045 98.5618 158.799 99.0844 160.253C99.9555 160.427 101.381 160.696 103.186 161.027C102.505 159.226 101.856 157.424 101.349 155.591C100.225 155.544 99.1953 155.496 98.2767 155.449Z" fill="white"/>
<path d="M144.236 148.448C141.259 147.105 138.281 146.315 135.383 144.956C133.102 150.36 130.901 154.596 129.412 155.196C126.356 156.46 110.899 156.002 101.333 155.575C101.824 157.408 102.474 159.21 103.17 161.012C112.229 162.655 130.869 165.689 135.953 163.761C138.519 162.782 143.365 156.176 147.799 149.396C146.596 149.286 145.424 148.985 144.236 148.448Z" fill="#B97A59"/>
<path d="M158.648 118.359H144.949C144.949 118.359 140.007 134.036 135.383 144.956C138.281 146.315 141.258 147.105 144.236 148.448C145.408 148.985 146.596 149.286 147.799 149.412C152.867 141.653 157.412 133.656 157.412 133.656L158.648 118.359Z" fill="#0B4870"/>
<path d="M159.059 121.836L142.304 120.903C142.304 120.903 137.394 126.924 139.231 132.029C140.657 135.964 149.161 142.111 155.306 149.965C159.344 149.128 163.605 148.179 167.643 146.773C163.985 136.137 159.059 121.836 159.059 121.836Z" fill="#0E538C"/>
<path d="M176.005 197.88C177.525 197.043 178.982 196.079 180.424 195.052C180.265 194.356 180.059 193.44 179.822 192.349C178.381 193.519 176.718 194.467 175.055 195.431C175.387 196.3 175.704 197.122 176.005 197.88Z" fill="white"/>
<path d="M167.659 146.773C163.62 148.164 159.36 149.128 155.322 149.965C157.127 152.272 158.727 154.722 159.883 157.314C162.496 163.145 170.684 184.132 175.055 195.415C176.718 194.451 178.365 193.503 179.822 192.333C177.779 183.262 172.901 161.897 171.143 156.824C170.462 154.927 169.163 151.166 167.659 146.773Z" fill="#B97A59"/>
<path d="M180.725 196.458C180.725 196.458 180.614 195.952 180.408 195.052C178.982 196.079 177.525 197.043 175.989 197.88C177.145 200.851 177.858 202.7 177.858 202.7L190.939 196.679L180.725 196.458Z" fill="#0B4870"/>
<path d="M161.562 86.2155L162.322 84.5087C161.593 83.4657 161.086 82.2647 160.58 81.1427C160.105 82.7072 160.627 84.6352 161.562 86.2155Z" fill="#B97A59"/>
<path d="M156.605 70.0173L152.519 85.5201L159.677 90.4191L161.564 86.195C161.471 86.0387 161.397 85.9083 161.313 85.7464C160.94 85.0203 160.654 84.2345 160.515 83.4491C160.437 83.0109 160.414 82.5688 160.431 82.1407C160.446 81.7952 160.481 81.4584 160.58 81.1427C161.087 82.2647 161.577 83.4657 162.322 84.5087H162.338C168.672 89.2023 168.878 71.4554 168.878 71.4554L156.605 70.0173Z" fill="#B97A59"/>
<path d="M152.725 85.3147C152.725 85.3147 160.691 89.8028 162.734 92.8686C164.777 95.9344 165.188 101.023 164.982 104.294C164.777 107.565 163.652 108.687 162.639 110.932C161.609 113.176 160.089 124.491 160.089 124.491C160.089 124.491 141.385 122.958 140.562 122.752C139.738 122.547 146.089 103.172 145.265 97.6569C144.442 92.1416 152.725 85.3147 152.725 85.3147Z" fill="#FDB32A"/>
<path d="M76.9916 137.228C89.0753 137.291 98.245 126.213 114.193 120.903C125.849 117.032 134.29 116.226 146.485 117.632C149.177 117.932 151.806 118.391 154.467 118.881C156.589 119.276 158.695 119.702 160.786 120.176C161.625 120.366 162.575 120.872 163.193 120.319C164.745 118.96 164.428 115.894 164.206 114.092C163.89 111.5 162.829 109.699 160.469 108.403C157.333 106.68 153.532 106.112 150.016 105.938C126.419 104.768 111.548 107.234 75.7722 126.213C73.8084 127.24 76.374 137.228 76.9916 137.228Z" fill="#347AF0"/>
<path d="M144.949 117.142C144.949 118.169 144.743 118.169 144.743 118.77C144.743 119.386 144.743 119.987 144.125 120.398C143.507 120.808 142.7 121.614 142.082 121.425C141.623 121.267 139.184 119.307 137.996 118.343C137.727 118.122 137.537 117.964 137.426 117.885C137.378 117.837 137.347 117.822 137.347 117.822C133.831 114.819 119.91 103.156 121.415 99.1898C123.046 94.9072 143.286 89.2023 143.286 89.2023L145.123 95.5235C145.123 95.5235 129.587 99.8061 127.955 100.833C126.356 101.829 139.437 114.361 140.182 115.072C141.243 114.993 144.173 114.803 144.505 115.309C144.917 115.925 143.887 115.925 143.887 115.925C143.887 115.925 144.949 116.115 144.949 117.142Z" fill="#B97A59"/>
<path d="M138.012 118.343C137.885 118.248 137.695 118.09 137.442 117.885C137.553 117.964 137.759 118.122 138.012 118.343Z" fill="#FFE3CA"/>
<path d="M142.098 88.981L143.523 97.7517C143.523 97.7517 153.564 97.009 152.519 90.0082C151.901 85.931 142.098 88.981 142.098 88.981Z" fill="#FDB32A"/>
<path d="M185.808 91.3357C185.745 91.4779 185.666 91.6833 185.555 91.9362C185.602 91.794 185.682 91.5885 185.792 91.3357H185.808Z" fill="#FFE3CA"/>
<path d="M185.507 92.0784C185.491 92.0942 185.491 92.11 185.491 92.11C185.491 92.0942 185.491 92.0942 185.507 92.0784Z" fill="#FFE3CA"/>
<path d="M159.265 76.9548L160.089 76.7494C160.089 76.7494 160.912 75.7222 161.118 74.7108C161.118 74.7108 167.247 75.9118 168.878 73.4782C170.51 71.0445 170.51 67.5836 167.849 66.9673C165.188 66.351 163.351 68.1841 161.308 67.1727C159.265 66.1455 157.428 64.7232 154.15 67.1727C150.872 69.6222 152.107 71.0445 147.403 70.444C142.7 69.8434 138.709 67.6942 135.335 70.2385C133.498 71.6292 132.263 74.5212 128.589 73.6994C124.915 72.8776 120.829 76.5598 119.593 80.2261C118.374 83.8924 111.516 80.5263 111.516 88.0802C111.516 90.3401 119.277 97.6727 128.684 92.9792C138.091 88.2857 138.091 89.9134 140.752 90.1188C143.412 90.3243 149.541 90.7352 151.79 88.902C154.039 87.0688 158.03 79.831 158.03 78.8038C158.03 78.8038 155.987 76.1489 157.206 75.738C158.442 75.3271 159.265 76.9548 159.265 76.9548Z" fill="#0B4870"/>
</svg>
