<svg width="188" height="200" viewBox="0 0 188 200" fill="none" xmlns="http://www.w3.org/2000/svg">
<path d="M94 188.285C145.915 188.285 188 146.136 188 94.1423C188 42.1489 145.915 0 94 0C42.0852 0 0 42.1489 0 94.1423C0 146.136 42.0852 188.285 94 188.285Z" fill="#E8EFF9"/>
<path d="M158.677 57.7468L140.947 69.5518C136.582 72.454 130.62 71.2382 127.737 66.8456C124.853 62.4531 126.061 56.4525 130.425 53.5503L148.156 41.7453C152.52 38.8431 158.482 40.0589 161.366 44.4514C164.249 48.844 163.041 54.8445 158.677 57.7468Z" fill="#C5D6F1"/>
<path d="M130.767 135.527C134.69 174.283 110.1 183.429 87.7241 184.088C54.0048 185.096 33.2992 124.056 42.1564 115.258C44.1376 113.282 47.3619 114.134 55.6363 110.259C62.0461 107.236 66.1251 103.903 67.8343 102.585C74.5549 97.4696 101.282 80.5722 117.015 88.0908C131.155 94.8342 129.135 119.56 130.767 135.527Z" fill="#C5D6F1"/>
<path d="M118.637 131.703C115.513 150.134 101.127 172.631 82.151 173.211C53.5716 174.063 36.0229 121.868 43.5052 114.395C45.1637 112.73 47.9021 113.466 54.9215 110.097C60.3597 107.503 63.7923 104.676 65.2965 103.553C71.0047 99.178 93.6444 84.7352 106.989 91.1628C118.984 96.8934 120.951 118.19 118.637 131.703Z" fill="#B7CDEF"/>
<path d="M51.1778 174.059C44.9662 174.059 34.2578 170.278 34.2578 158.244V94.9839C34.2578 88.7736 39.3262 83.682 45.5378 83.682C51.7494 83.682 56.8178 88.7736 56.8178 94.9839V158.244C56.8178 164.454 51.1778 174.059 51.1778 174.059Z" fill="#C5D6F1"/>
<path d="M57.2356 181.59C66.2342 181.59 73.5289 172.224 73.5289 160.669C73.5289 149.115 66.2342 139.749 57.2356 139.749C48.237 139.749 40.9423 149.115 40.9423 160.669C40.9423 172.224 48.237 181.59 57.2356 181.59Z" fill="#C5D6F1"/>
<rect x="44.2844" y="174.895" width="79.3778" height="25.1046" fill="#99B9EE"/>
<rect x="44.2844" y="195.816" width="79.3778" height="1.67364" fill="#ECECEC"/>
<path d="M47.0435 158.244V94.9839C47.0435 91.0495 49.1222 87.6165 52.2598 85.5721C50.4164 84.3763 48.2201 83.682 45.8669 83.682C39.4741 83.682 34.2578 88.7736 34.2578 94.9839V158.244C34.2578 170.278 45.2786 174.059 51.6715 174.059C51.6715 174.059 52.4559 172.747 53.4756 170.741C49.8674 168.311 47.0435 164.338 47.0435 158.244Z" fill="#B7CDEF"/>
<rect x="44.2844" y="177.406" width="79.3778" height="1.67364" fill="#ECECEC"/>
<path opacity="0.3" d="M35.9669 107.113H34.2578V106.374H35.9669C40.6003 106.374 44.3982 102.487 44.3982 97.7443V91.952H34.2578V91.2134H45.1198V97.7831C45.1578 102.915 41.0181 107.113 35.9669 107.113Z" fill="#99B9EE"/>
<path d="M135.977 169.603L59.4274 169.565C57.1135 169.565 55.2239 167.667 55.2239 165.343L55.301 17.6111C55.301 15.2871 57.1906 13.3891 59.5045 13.3891L136.054 13.4278C138.368 13.4278 140.258 15.3258 140.258 17.6499L140.181 165.381C140.181 167.705 138.291 169.603 135.977 169.603Z" fill="#99B9EE"/>
<path d="M133.895 150.004L61.5098 149.965C61.2398 149.965 61.0084 149.733 61.0084 149.462L61.0856 24.5445C61.0856 24.2734 61.3169 24.041 61.5869 24.041L133.972 24.0797C134.242 24.0797 134.473 24.3121 134.473 24.5832L134.396 149.5C134.434 149.772 134.203 150.004 133.895 150.004Z" fill="white"/>
<path d="M108.982 20.0514H84.4554C83.6842 20.0514 83.0671 19.4316 83.0671 18.6569C83.0671 17.8823 83.6842 17.2625 84.4554 17.2625H108.982C109.753 17.2625 110.371 17.8823 110.371 18.6569C110.409 19.4316 109.753 20.0901 108.982 20.0514Z" fill="#CDEAFB"/>
<path d="M113.031 20.0901C112.26 20.0901 111.643 19.4704 111.643 18.6957C111.643 17.921 112.26 17.3013 113.031 17.3013C113.803 17.3013 114.42 17.921 114.42 18.6957C114.42 19.4316 113.803 20.0901 113.031 20.0901Z" fill="#CDEAFB"/>
<path d="M147.037 113.621L141.58 117.268C137.275 120.138 131.395 118.936 128.551 114.591C125.707 110.247 126.898 104.312 131.203 101.441L136.66 97.795C140.965 94.9245 146.845 96.127 149.689 100.472C152.533 104.855 151.342 110.751 147.037 113.621Z" fill="#C5D6F1"/>
<path opacity="0.3" d="M149.655 100.438C149.577 100.323 149.33 99.9793 149.252 99.8645C151.41 103.384 150.522 108.567 146.99 110.862L138.671 116.218C135.139 118.513 130.283 116.473 127.771 113.183C127.85 113.297 128.397 114.419 128.476 114.496C131.38 118.78 136.944 120.12 141.339 117.289L146.912 113.693C151.346 110.862 152.559 104.761 149.655 100.438Z" fill="#99B9EE"/>
<path opacity="0.3" fill-rule="evenodd" clip-rule="evenodd" d="M137.248 114.607C137.406 114.644 137.524 114.644 137.682 114.644C138.353 114.644 138.984 114.418 139.457 114.078L142.1 112.076C144.862 109.998 145.374 105.956 143.205 103.085C142.14 101.65 140.562 100.705 138.826 100.479C137.169 100.252 135.552 100.668 134.25 101.65L131.449 103.765C130.226 104.71 129.989 106.409 130.897 107.618L135.275 113.473C135.749 114.078 136.459 114.493 137.248 114.607ZM137.366 113.927C136.775 113.813 136.262 113.511 135.907 113.058L131.567 107.203C130.897 106.296 131.094 105.012 132.001 104.332L134.802 102.216C135.907 101.385 137.366 101.008 138.786 101.197C140.325 101.385 141.706 102.216 142.652 103.501C144.546 106.069 144.112 109.658 141.666 111.509L139.023 113.511C138.55 113.851 137.958 114.002 137.366 113.927Z" fill="#99B9EE"/>
<path d="M148.848 131.098L143.533 133.724C139.365 135.771 134.279 134.033 132.253 129.823C130.226 125.613 131.947 120.476 136.115 118.429L141.43 115.803C145.598 113.756 150.683 115.494 152.71 119.704C154.775 123.914 153.054 129.051 148.848 131.098Z" fill="#C5D6F1"/>
<path opacity="0.3" d="M152.748 119.704C152.71 119.588 152.633 119.511 152.595 119.395C154.048 122.832 152.595 126.888 149.23 128.548L141.353 132.411C137.988 134.071 133.935 132.72 132.138 129.437C132.176 129.553 132.215 129.63 132.253 129.746C134.279 133.956 139.365 135.732 143.533 133.647L148.848 131.02C153.054 129.051 154.775 123.914 152.748 119.704Z" fill="#99B9EE"/>
<path opacity="0.3" fill-rule="evenodd" clip-rule="evenodd" d="M139.9 131.406C140.13 131.484 140.359 131.522 140.589 131.522C141.047 131.522 141.506 131.406 141.889 131.098L144.412 129.591C147.089 128.008 148.007 124.339 146.477 121.442C145.712 120.013 144.451 118.97 142.959 118.545C141.545 118.12 140.092 118.313 138.83 119.086L136.153 120.708C134.968 121.442 134.547 122.987 135.197 124.223L138.294 130.093C138.638 130.75 139.212 131.213 139.9 131.406ZM139.212 119.781C139.939 119.356 140.742 119.125 141.545 119.125C141.927 119.125 142.348 119.163 142.806 119.279C144.106 119.665 145.177 120.554 145.865 121.828C147.204 124.377 146.401 127.621 144.068 129.012L141.545 130.518C141.124 130.789 140.589 130.866 140.092 130.711C139.594 130.595 139.174 130.248 138.944 129.784L135.847 123.914C135.35 123.025 135.656 121.905 136.535 121.403L139.212 119.781Z" fill="#99B9EE"/>
<path d="M125.333 149.791H69.3511V126.421C69.3511 115.78 77.9312 107.113 88.5505 107.113H106.134C116.715 107.113 125.333 115.741 125.333 126.421V149.791Z" fill="#FFBE55"/>
<path d="M144.793 93.5217L138.576 97.1662C133.679 100.066 126.996 98.8512 123.77 94.5014C120.506 90.1516 121.866 84.2343 126.762 81.3737L132.98 77.7292C137.876 74.8294 144.56 76.0442 147.785 80.394C151.049 84.7438 149.689 90.6611 144.793 93.5217Z" fill="#C5D6F1"/>
<path opacity="0.3" d="M147.798 80.6439C147.721 80.528 147.644 80.4507 147.528 80.3347C149.922 83.8522 148.764 88.4906 144.825 90.7712L135.634 96.144C131.695 98.4246 126.404 97.5742 123.662 94.25C123.739 94.366 123.817 94.4819 123.894 94.5592C127.138 98.8498 133.741 100.048 138.607 97.1877L144.786 93.5929C149.691 90.7712 151.042 84.9345 147.798 80.6439Z" fill="#99B9EE"/>
<path opacity="0.3" fill-rule="evenodd" clip-rule="evenodd" d="M132.243 95.3597C132.401 95.3975 132.519 95.3975 132.677 95.3975C133.349 95.3975 133.981 95.2086 134.455 94.8309L137.101 92.8288C139.865 90.7512 140.339 86.7093 138.207 83.8384C137.14 82.403 135.56 81.4586 133.823 81.232C132.164 81.0053 130.544 81.4208 129.241 82.403L126.437 84.5184C125.213 85.4627 124.976 87.1626 125.884 88.3714L130.268 94.2265C130.742 94.8309 131.453 95.2464 132.243 95.3597ZM132.361 94.6798C131.769 94.5664 131.255 94.2642 130.9 93.8109L126.516 87.9559C125.844 87.0493 126.042 85.7649 126.95 85.085L129.755 82.9696C130.9 82.1385 132.322 81.7608 133.744 81.9497C135.323 82.1385 136.706 82.9696 137.654 84.2539C139.549 86.8226 139.115 90.4112 136.666 92.2622L134.02 94.2642C133.546 94.6042 132.954 94.7553 132.361 94.6798Z" fill="#99B9EE"/>
<path d="M97.3422 166.527C101.265 166.527 104.444 163.343 104.444 159.414C104.444 155.486 101.265 152.301 97.3422 152.301C93.4198 152.301 90.24 155.486 90.24 159.414C90.24 163.343 93.4198 166.527 97.3422 166.527Z" fill="#CDEAFB"/>
<path d="M106.9 108.688L106.05 87.5787L89.4512 87.1148L88.4476 111.858C88.3318 114.564 90.6865 114.062 93.3887 113.946L102.538 113.482C105.085 113.327 107.015 111.201 106.9 108.688Z" fill="#FACBB6"/>
<path d="M90.0688 91.9861L106.629 101.729L106.05 87.5788L90.0688 91.9861Z" fill="#F6B7A0"/>
<path d="M125.854 72.5396C125.854 75.9804 123.074 78.764 119.638 78.764C116.203 78.764 113.423 75.9804 113.423 72.5396C113.423 69.0988 116.203 66.3152 119.638 66.3152C123.074 66.3152 125.854 69.0988 125.854 72.5396Z" fill="#FACBB6"/>
<path d="M76.7509 78.764C80.1834 78.764 82.9659 75.9773 82.9659 72.5396C82.9659 69.1019 80.1834 66.3152 76.7509 66.3152C73.3185 66.3152 70.5359 69.1019 70.5359 72.5396C70.5359 75.9773 73.3185 78.764 76.7509 78.764Z" fill="#FACBB6"/>
<path d="M117.515 61.4052C117.515 69.3307 116.357 76.1737 115.238 81.045C114.118 85.8003 110.953 89.1252 106.514 91.7928L105.703 92.2567C100.955 95.1177 94.9328 95.195 90.1074 92.45C85.2821 89.7051 81.9237 86.071 80.8814 80.9677C78.9899 71.689 78.7968 61.4052 78.7968 61.4052C78.7968 61.4052 76.9825 41.3787 97.8666 41.7654C118.751 42.1906 117.515 61.4052 117.515 61.4052Z" fill="#FACBB6"/>
<path d="M79.9163 69.5627C79.9163 69.5627 84.317 55.3354 81.113 46.1341C81.1516 46.1341 68.8374 49.6522 79.9163 69.5627Z" fill="#01384F"/>
<path d="M116.743 69.5627C116.743 69.5627 111.185 55.3354 114.389 46.1341C114.35 46.1341 125.854 48.9563 116.743 69.5627Z" fill="#01384F"/>
<path d="M82.0396 52.5131C82.0396 52.5131 85.5524 46.1341 91.8832 49.6522C98.2141 53.1704 104.468 56.5339 115.778 53.7503L114.273 46.0954C114.273 46.0954 98.5615 29.3551 81.0359 46.0954L82.0396 52.5131Z" fill="#01384F"/>
<path d="M81.0359 46.0954C81.0359 46.0954 82.0396 34.4971 98.4071 33.4919C114.775 32.4867 119.6 41.2241 119.6 41.2241L116.628 41.7654C116.628 41.7654 122.341 44.2397 123.846 46.6367L120.642 47.7578L124.889 51.5466C124.889 51.5466 111.532 56.7272 104.159 53.9436L98.0211 44.6649L81.0359 46.0954Z" fill="#01384F"/>
<path d="M91.2656 106.639L84.3557 106.755C84.3557 106.755 83.6223 115.531 97.0946 115.956C110.567 116.381 110.799 107.296 110.799 107.296L103.503 106.639H91.2656V106.639Z" fill="#FACBB6"/>
<path fill-rule="evenodd" clip-rule="evenodd" d="M71.8578 96.2343H121.991V46.0251H71.8578V96.2343ZM121.331 95.612H72.5174V46.6474H121.331V95.612Z" fill="#347AF0"/>
<rect x="72.6934" y="61.9247" width="49.2978" height="21.7573" fill="#347AF0"/>
<path d="M120.32 55.2301H119.697V48.3231H112.8V47.6987H120.32V55.2301Z" fill="#347AF0"/>
<path d="M74.1879 55.2301H73.5289V47.6987H81.0489V48.3231H74.1879V55.2301Z" fill="#347AF0"/>
<path d="M81.0489 94.5607H73.5289V87.0293H74.1879V93.9007H81.0489V94.5607Z" fill="#347AF0"/>
<path d="M120.32 94.5607H112.8V93.9007H119.697V87.0293H120.32V94.5607Z" fill="#347AF0"/>
</svg>
