<svg width="275" height="233" viewBox="0 0 275 233" fill="none" xmlns="http://www.w3.org/2000/svg">
<path d="M268.647 68.5926C264.853 62.1159 258.743 57.0131 251.685 54.5178C248.645 53.4523 244.99 52.9476 242.507 54.9944C240.024 57.0411 240.889 62.2842 244.097 62.2001C234.194 55.3028 222.254 51.4056 210.202 51.0972C207.19 51.013 203.758 51.3495 201.861 53.7047C199.936 56.0598 201.554 60.7141 204.511 60.1813C195.417 54.3215 183.421 56.1159 173.239 59.7608C170.282 60.8262 167.352 62.0038 164.423 63.1814C161.215 64.4711 162.164 69.2655 165.623 69.2375L268.647 68.5926Z" fill="#C5D6F1"/>
<path d="M17.6686 52.304C14.9621 53.2765 12.1997 49.9423 12.7857 47.1083C13.3716 44.2742 15.9945 42.3571 18.6452 41.1901C24.6443 38.5783 31.7595 38.6061 37.7307 41.2735C36.3356 40.2176 36.4472 37.9393 37.5633 36.6056C38.6794 35.272 40.4373 34.6607 42.1672 34.3273C50.3427 32.7713 59.2995 36.3556 64.0988 43.135C62.5083 41.468 63.3733 38.495 65.2707 37.2447C67.1681 35.9944 69.6793 36.0222 71.9116 36.4111C81.5938 38.1338 89.8251 43.3851 91.6667 53.0264L17.6686 52.304Z" fill="#C5D6F1"/>
<path d="M232.797 35.396C242.571 35.396 250.495 27.4724 250.495 17.698C250.495 7.92367 242.571 0 232.797 0C223.023 0 215.099 7.92367 215.099 17.698C215.099 27.4724 223.023 35.396 232.797 35.396Z" fill="#FDB32A"/>
<rect x="66.8909" y="193.762" width="13.962" height="66.3209" transform="rotate(-180 66.8909 193.762)" fill="#F2F2F2"/>
<rect x="69.4028" y="146.265" width="18.6721" height="1.62923" transform="rotate(-180 69.4028 146.265)" fill="#F2F2F2"/>
<path d="M54.6426 125.673L60.1657 110.785L65.6888 125.673C69.8101 128.651 71.1839 131.207 71.1839 131.207C71.1839 131.207 66.614 129.971 60.1657 129.887C53.6893 129.971 49.1475 131.207 49.1475 131.207C49.1475 131.207 50.5212 128.623 54.6426 125.673Z" fill="#F2F2F2"/>
<path d="M59.9133 132.949C61.4273 132.949 62.6328 134.185 62.6328 135.673V140.954H57.1658V135.673C57.1938 134.185 58.4274 132.949 59.9133 132.949Z" fill="#F2F2F2"/>
<rect x="84.6974" y="96.8528" width="20.4104" height="97.0796" fill="#E0E9F8"/>
<rect x="118.593" y="117.724" width="34.3724" height="76.1805" fill="#E0E9F8"/>
<rect x="66.2776" y="161.151" width="24.9242" height="32.7531" fill="#E0E9F8"/>
<path d="M87.0524 155.926V160.168H82.3704V155.926H75.2772V160.168H70.7354V155.926H63.6422L64.1188 171.573H69.7261H70.7354H75.2772H76.8192H81.7536H82.3704H87.0524H88.8187H89.9682L94.1456 155.926H87.0524Z" fill="#E0E9F8"/>
<rect x="41.7739" y="161.151" width="24.9242" height="32.7531" fill="#E0E9F8"/>
<path d="M62.5488 155.926V160.168H57.8667V155.926H50.7736V160.168H46.2037V155.926H39.1385L39.5871 171.573H45.1944H46.2037H50.7736H52.2875H57.2219H57.8667H62.5488H64.3151H65.4365L69.6139 155.926H62.5488Z" fill="#E0E9F8"/>
<rect x="206.29" y="127.443" width="13.962" height="66.3209" fill="#E0E9F8"/>
<rect x="203.795" y="144.662" width="18.6721" height="1.62923" fill="#E0E9F8"/>
<path d="M218.542 125.673L213.019 110.785L207.496 125.673C203.375 128.651 202.001 131.207 202.001 131.207C202.001 131.207 206.571 129.971 213.019 129.887C219.496 129.971 224.037 131.207 224.037 131.207C224.037 131.207 222.664 128.623 218.542 125.673Z" fill="#E0E9F8"/>
<path d="M213.272 132.949C211.758 132.949 210.552 134.185 210.552 135.673V140.954H216.019V135.673C215.991 134.185 214.757 132.949 213.272 132.949Z" fill="#E0E9F8"/>
<rect x="206.909" y="193.925" width="24.9242" height="32.7531" transform="rotate(-180 206.909 193.925)" fill="#E0E9F8"/>
<path d="M186.132 155.926V160.168H190.815V155.926H197.908V160.168H202.45V155.926H209.543L209.066 171.573H203.459H202.45H197.908H196.366H191.431H190.815H186.132H184.366H183.217L179.039 155.926H186.132Z" fill="#E0E9F8"/>
<rect x="231.408" y="193.925" width="24.9242" height="32.7531" transform="rotate(-180 231.408 193.925)" fill="#E0E9F8"/>
<path d="M210.636 155.926V160.168H215.318V155.926H222.411V160.168H226.981V155.926H234.046L233.598 171.573H227.99H226.981H222.411H220.897H215.963H215.318H210.636H208.87H207.748L203.571 155.926H210.636Z" fill="#E0E9F8"/>
<rect x="81.0526" y="122.022" width="27.3353" height="2.38766" fill="#E0E9F8"/>
<path d="M163.087 145.28V151.039H156.891V145.28H147.246V151.039H140.882V145.28H136.536H136.508H132.135V151.039H125.77V145.28H116.154V151.039H109.958V145.28H100.313L105.108 165.028V193.904H136.508H136.536H167.909V165.028L172.703 145.28H163.087Z" fill="#E0E9F8"/>
<path d="M153.414 111.853V115.645H149.377V111.853H143.069V115.645H138.919V111.853H135.779H132.667V115.645H128.49V111.853H122.21V115.645H118.173V111.853H111.865L115.229 125.729H117.275H118.173H122.21H123.556H127.929H128.49H132.667H134.237H135.247L135.779 123.679L136.34 125.729H137.349H138.919H143.069H143.63H148.031H149.377H153.414H154.311H156.33L159.722 111.853H153.414Z" fill="#E0E9F8"/>
<path d="M102.64 94.2404L94.538 72.4424L86.4356 94.2404C80.4078 98.5943 78.3892 102.33 78.3892 102.33C78.3892 102.33 85.0618 100.533 94.538 100.42C104.014 100.533 110.687 102.33 110.687 102.33C110.687 102.33 108.668 98.5943 102.64 94.2404Z" fill="#E0E9F8"/>
<rect x="188.201" y="193.902" width="20.4104" height="97.0796" transform="rotate(-180 188.201 193.902)" fill="#E0E9F8"/>
<rect x="191.875" y="124.419" width="27.3353" height="2.38766" transform="rotate(-180 191.875 124.419)" fill="#E0E9F8"/>
<path d="M170.264 94.2404L178.366 72.4424L186.469 94.2404C192.497 98.5943 194.515 102.33 194.515 102.33C194.515 102.33 187.843 100.533 178.366 100.42C168.89 100.533 162.218 102.33 162.218 102.33C162.218 102.33 164.236 98.5943 170.264 94.2404Z" fill="#E0E9F8"/>
<path d="M94.9025 104.915C92.6876 104.915 90.8933 106.712 90.8933 108.932V116.656H98.8836V108.932C98.9117 106.684 97.1173 104.915 94.9025 104.915Z" fill="#F7F7F7"/>
<path d="M135.863 123.229C132.92 123.229 130.509 125.617 130.509 128.595V138.904H141.19V128.595C141.218 125.617 138.807 123.229 135.863 123.229Z" fill="#F7F7F7"/>
<path d="M178.002 104.915C180.217 104.915 182.011 106.712 182.011 108.932V116.656H174.021V108.932C173.993 106.684 175.787 104.915 178.002 104.915Z" fill="#F7F7F7"/>
<path d="M135.779 163.511C128.995 163.511 123.471 168.174 123.471 173.904V193.932H148.087V173.904C148.087 168.146 142.592 163.511 135.779 163.511Z" fill="#F7F7F7"/>
<path d="M16.3367 165.871C25.3436 165.871 32.6451 158.575 32.6451 149.575C32.6451 140.575 25.3436 133.279 16.3367 133.279C7.32975 133.279 0.0281982 140.575 0.0281982 149.575C0.0281982 158.575 7.32975 165.871 16.3367 165.871Z" fill="#C5D6F1"/>
<path d="M16.3366 197.534C16.1395 197.534 15.9705 197.365 15.9705 197.168V149.575C15.9705 149.378 16.1395 149.209 16.3366 149.209C16.5338 149.209 16.7028 149.378 16.7028 149.575V197.168C16.7028 197.365 16.5338 197.534 16.3366 197.534Z" fill="#99B9EE"/>
<path d="M16.3365 158.384C16.252 158.384 16.1394 158.356 16.083 158.272L11.5201 153.712C11.3792 153.572 11.3792 153.318 11.5201 153.178C11.6609 153.037 11.9144 153.037 12.0552 153.178L16.6182 157.737C16.759 157.878 16.759 158.131 16.6182 158.272C16.5337 158.356 16.4492 158.384 16.3365 158.384Z" fill="#99B9EE"/>
<path d="M16.3365 162.606C16.252 162.606 16.1394 162.578 16.083 162.494L11.5201 157.934C11.3792 157.793 11.3792 157.54 11.5201 157.399C11.6609 157.259 11.9144 157.259 12.0552 157.399L16.6182 161.959C16.759 162.1 16.759 162.353 16.6182 162.494C16.5337 162.578 16.4492 162.606 16.3365 162.606Z" fill="#99B9EE"/>
<path d="M231.532 147.033C227.236 149.357 224.287 153.921 224.287 159.129C224.287 166.717 230.465 172.905 238.103 172.905C243.971 172.905 248.998 169.237 250.991 164.057L231.532 147.033Z" fill="#C5D6F1"/>
<path d="M252.901 164.141C264.966 164.141 274.747 154.388 274.747 142.356C274.747 130.325 264.966 120.572 252.901 120.572C240.835 120.572 231.054 130.325 231.054 142.356C231.054 154.388 240.835 164.141 252.901 164.141Z" fill="#C5D6F1"/>
<path d="M252.901 202.977C253.182 202.977 253.406 202.753 253.406 202.473V142.356C253.406 142.076 253.182 141.852 252.901 141.852C252.62 141.852 252.395 142.076 252.395 142.356V202.473C252.395 202.753 252.62 202.977 252.901 202.977Z" fill="#99B9EE"/>
<path d="M252.901 154.145C253.041 154.145 253.153 154.089 253.266 154.005L259.387 147.901C259.584 147.705 259.584 147.397 259.387 147.201C259.191 147.005 258.882 147.005 258.685 147.201L252.536 153.277C252.339 153.473 252.339 153.781 252.536 153.977C252.62 154.089 252.76 154.145 252.901 154.145Z" fill="#99B9EE"/>
<path d="M252.901 159.801C253.041 159.801 253.153 159.745 253.266 159.661L259.387 153.557C259.584 153.361 259.584 153.053 259.387 152.857C259.191 152.661 258.882 152.661 258.685 152.857L252.536 158.961C252.339 159.157 252.339 159.465 252.536 159.661C252.62 159.745 252.76 159.801 252.901 159.801Z" fill="#99B9EE"/>
<path d="M238.215 202.977C238.468 202.921 238.636 202.697 238.636 202.445V162.573C238.636 162.293 238.44 162.069 238.159 162.041C237.878 162.013 237.625 162.265 237.625 162.545V202.473C237.625 202.781 237.878 203.033 238.215 202.977Z" fill="#99B9EE"/>
<path d="M238.102 165.821C238.243 165.821 238.355 165.765 238.467 165.681C238.664 165.485 238.664 165.177 238.467 164.981L234.059 160.585C233.862 160.389 233.553 160.389 233.357 160.585C233.16 160.781 233.16 161.089 233.357 161.285L237.765 165.681C237.85 165.765 237.99 165.821 238.102 165.821Z" fill="#99B9EE"/>
<path d="M238.102 169.909C238.243 169.909 238.355 169.853 238.467 169.769C238.664 169.573 238.664 169.265 238.467 169.069L234.059 164.673C233.862 164.477 233.553 164.477 233.357 164.673C233.16 164.869 233.16 165.177 233.357 165.373L237.765 169.769C237.85 169.853 237.99 169.909 238.102 169.909Z" fill="#99B9EE"/>
<path d="M4.58952 190.317H266.78C269.299 190.317 271.37 192.33 271.37 194.839V227.544C271.37 230.025 269.327 232.066 266.78 232.066H4.58952C2.07088 232.066 0 230.053 0 227.544V194.839C0.0279849 192.357 2.07088 190.317 4.58952 190.317Z" fill="#E0E9F8" fill-opacity="0.3"/>
<path d="M138.251 100.37C138.008 99.0188 137.765 97.63 138.101 96.2976C138.456 94.9839 139.576 93.7641 140.883 93.8579C142.469 93.9705 143.459 95.7909 144.989 96.2413C146.539 96.6917 148.107 95.6407 149.227 94.4397C150.347 93.2386 151.373 91.8123 152.885 91.2306C154.789 90.4987 156.955 91.3995 158.467 92.807C159.979 94.2332 160.987 96.1099 162.144 97.8365C163.301 99.563 164.739 101.252 166.643 101.928C168.547 102.603 171.029 101.928 171.851 99.9946C171.179 101.74 170.413 103.504 169.144 104.836C167.875 106.169 166.008 107.032 164.272 106.582C162.443 106.113 161.211 104.405 159.997 102.903C158.784 101.402 157.197 99.882 155.312 100.051C152.232 100.332 151.093 104.668 148.331 106.113C146.501 107.07 144.224 106.563 142.507 105.381C140.808 104.198 139.557 102.416 138.344 100.689" fill="#FDB32A"/>
<path d="M119.323 202.217C117.456 204.263 115.739 205.67 114.469 206.214C113.2 206.759 110.587 209.105 111.856 210.137C113.125 211.15 115.888 211.469 117.381 210.681C118.875 209.893 119.995 209.273 120.965 209.123C121.936 208.973 122.795 208.26 123.523 208.035C124.251 207.81 122.683 203.174 122.683 203.174L119.323 202.217Z" fill="#0E538C"/>
<path d="M151.187 211.582C152.624 214.678 157.944 221.678 157.347 222.748C156.749 223.818 154.808 227.627 148.891 221.96C147.117 219.745 147.901 218.976 146.968 218.3C146.539 217.625 146.464 213.646 147.397 212.933C148.331 212.22 151.187 211.582 151.187 211.582Z" fill="#0E538C"/>
<path d="M154.547 187.56C154.584 191.032 151.56 210.718 151.485 213.627C148.368 213.627 147.845 213.627 147.845 213.627C147.845 213.627 148.237 206.965 147.547 205.52C146.856 204.075 144.261 187.129 144.728 183.657C144.224 180.41 141.387 172.791 139.539 167.292C138.587 164.458 137.877 162.188 137.877 161.362C137.411 163.689 136.851 165.584 136.272 167.142C134.685 171.458 132.987 173.129 132.595 174.161C131.792 177.727 130.28 181.217 129.72 182.662C128.469 188.461 124.064 197.713 123.504 200.622C123.373 203.944 123.373 203.944 123.373 203.944C123.373 203.944 120.611 205.389 118.128 202.198C119.509 198.877 118.931 187.279 119.715 185.121C120.48 182.944 121.451 179.322 122.011 177.595C122.571 175.85 123.952 161.531 126.155 157.477C127.013 155.357 127.853 150.552 128.507 145.879C129.328 140.024 129.888 134.357 129.888 134.357L148.443 134.694C148.629 139.424 148.909 141.938 149.245 143.609C149.507 144.847 149.787 145.617 150.085 146.461C150.496 147.625 151.747 155.094 152.624 162.281C153.277 167.555 153.707 172.66 153.483 174.987C152.941 180.466 154.509 184.07 154.547 187.56Z" fill="#105582"/>
<path d="M121.936 134C119.099 138.542 118.296 142.445 114.432 145.279C115.085 146.424 115.664 149.783 115.664 149.783C115.664 149.783 121.787 144.509 124.997 143.984C124.997 139.086 121.936 134 121.936 134Z" fill="#0B4870"/>
<path d="M145.195 108.308C145.195 112.831 144.933 115.402 140.341 116.603C139.968 116.697 139.595 116.716 139.221 116.603C134.013 115.271 133.752 112.85 133.752 108.308C133.752 103.598 136.533 99.7131 139.539 99.7131C142.544 99.7131 145.195 103.617 145.195 108.308Z" fill="#0B4870"/>
<path d="M152.624 162.244L139.539 167.273C138.587 164.44 137.877 162.169 137.877 161.343C137.411 163.67 136.851 165.566 136.272 167.123L126.155 157.44C127.013 155.319 127.853 150.515 128.507 145.842C133.584 149.389 143.776 145.917 149.264 143.571C149.525 144.81 149.805 145.579 150.104 146.424C150.496 147.568 151.747 155.056 152.624 162.244Z" fill="#105582"/>
<path d="M144.317 114.051C152.083 115.853 156.731 112.944 156.731 126.568C156.731 140.193 138.475 141.657 132.763 136.627C133.08 134.357 132.763 133.231 132.763 133.231C132.763 133.231 151.784 133.062 147.155 122.684C141.107 118.912 144.317 114.051 144.317 114.051Z" fill="#105582"/>
<path d="M156.712 126.043C156.096 126.231 152.381 124.11 151.616 122.665C150.851 121.201 148.219 120.075 147.435 120.394C146.352 118.611 147.117 114.558 148.517 114.389C149.917 114.22 158.728 114.032 156.712 126.043Z" fill="#0B4870"/>
<path d="M154.547 134.657C153.464 132.705 151.765 128.82 148.051 128.651C147.117 129.139 141.704 133.024 132.128 132.874C132.445 134 132.595 135.145 132.277 136.759C132.744 137.735 143.72 144.547 154.547 134.657Z" fill="#0B4870"/>
<path d="M137.243 156.52C134.592 155.732 132.296 154.399 130.299 152.673C130.261 152.635 130.224 152.598 130.168 152.56C129.645 152.091 129.141 151.622 128.656 151.097C128.619 151.059 128.581 151.021 128.544 150.984C127.592 149.952 126.715 148.826 125.912 147.625C124.829 146.011 123.877 144.265 123.056 142.445C118.763 133.062 117.549 121.764 116.896 116.622C116.859 116.303 116.821 116.021 116.784 115.759C126.379 115.721 132.352 115.214 136.44 114.539C139.109 114.088 140.957 113.582 142.488 113.075C144.168 112.512 145.437 111.949 146.931 111.517C146.987 111.799 147.024 112.099 147.061 112.381C147.08 112.475 147.08 112.568 147.099 112.662C147.099 112.718 147.117 112.775 147.117 112.831C147.304 113.976 147.453 115.102 147.603 116.19C147.621 116.284 147.621 116.378 147.64 116.472C151.448 146.78 140.397 154.193 137.243 156.52Z" fill="#FDB32A"/>
<path d="M116.131 146.142L115.664 149.783C115.664 149.783 113.536 150.796 112.864 151.378C112.789 151.528 112.677 151.697 112.509 151.828C111.8 152.448 110.363 152.804 109.485 152.241C108.421 151.547 108.16 147.794 108.627 146.836C109.093 145.879 112.248 144.641 114.432 145.279L116.131 146.142Z" fill="#105582"/>
<path d="M152.176 155.713C149.133 158.416 142.936 162.45 137.728 162.807C138.904 170.426 143.645 182.137 144 182.681C145.139 182.362 148.611 178.196 149.693 177.877C150.757 177.539 154.92 180.786 155.144 182.681C156.507 178.102 152.176 155.713 152.176 155.713Z" fill="#0B4870"/>
<path d="M155.443 187.279C153.203 188.517 152.456 191.088 144.224 187.279C144.859 199.027 146.949 212.989 147.173 213.965C149.208 213.965 152.437 213.627 152.437 213.627C152.437 213.627 156.563 193.472 155.443 187.279Z" fill="#0B4870"/>
<path d="M126.173 155.713C129.645 160.686 133.472 162.375 137.728 162.807C136.72 168.212 132.725 178.646 130.56 180.542C129.403 179.922 125.072 173.016 121.563 176.507C122.141 171.984 123.728 160.105 126.173 155.713Z" fill="#0B4870"/>
<path d="M129.309 185.233C125.893 186.359 122.645 187.504 121.563 186.81C120.48 184.971 120.648 182.531 120.237 181.743C119.397 183.92 119.061 190.845 119.117 194.335C118.893 198.126 118.483 201.673 117.736 202.067C118.632 202.724 120.555 205.727 123.392 203.887C123.467 202.105 123.448 200.097 123.971 199.421C124.493 198.745 129.309 185.233 129.309 185.233Z" fill="#0B4870"/>
<path d="M143.832 105.812C143.832 105.812 138.661 107.22 134.835 105.812C134.779 107.22 134.835 107.595 134.835 107.595L138.363 110.035L143.832 107.914V105.812Z" fill="#99B9EE"/>
<path d="M111.763 144.509L109.056 144.903L102.037 87.4022L102.429 85.0751L103.4 87.2145L111.763 144.509Z" fill="#99B9EE"/>
<path d="M111.763 144.509L110.419 144.697L102.429 85.0751L103.4 87.2145L111.763 144.509Z" fill="#99B9EE"/>
<path d="M112.192 152.147L111.557 144.528L109.261 144.866L110.661 152.373C110.232 152.729 109.971 153.292 110.064 153.912C110.176 154.812 110.979 155.432 111.837 155.319C112.696 155.188 113.293 154.362 113.181 153.461C113.088 152.842 112.696 152.373 112.192 152.147Z" fill="#0E538C"/>
<path d="M117.325 142.426C117.027 142.464 116.784 142.651 116.653 142.895C115.701 142.933 114.749 143.008 113.816 143.102C112.621 143.214 111.445 143.365 110.269 143.534C109.093 143.702 107.917 143.909 106.741 144.134C105.939 144.284 105.136 144.472 104.333 144.66C104.128 144.491 103.867 144.397 103.587 144.434C103.083 144.509 102.728 144.997 102.784 145.542C102.859 146.067 103.325 146.442 103.829 146.367C104.128 146.33 104.371 146.123 104.52 145.879C105.323 145.842 106.125 145.767 106.928 145.692C108.123 145.579 109.299 145.429 110.475 145.26C111.651 145.091 112.827 144.885 114.003 144.66C114.917 144.472 115.832 144.284 116.747 144.04C116.952 144.265 117.251 144.397 117.568 144.359C118.072 144.284 118.427 143.796 118.371 143.252C118.315 142.727 117.829 142.351 117.325 142.426Z" fill="#105582"/>
<path d="M112.864 151.397L112.509 151.847C111.8 152.466 110.363 152.823 109.485 152.26C108.421 151.566 108.16 147.812 108.627 146.855C108.627 146.855 110.661 146.78 111.632 146.442C112.603 146.067 112.864 151.397 112.864 151.397Z" fill="#0B4870"/>
<path d="M142.488 113.056L125.912 147.606C124.829 145.992 123.877 144.247 123.056 142.426L136.44 114.52C139.109 114.07 140.957 113.563 142.488 113.056Z" fill="white"/>
<path fill-rule="evenodd" clip-rule="evenodd" d="M128.544 150.965L147.061 112.362C147.08 112.456 147.099 112.55 147.099 112.625L128.656 151.078L128.544 150.965ZM130.168 152.56L147.621 116.172C147.621 116.252 147.635 116.332 147.65 116.424C147.653 116.439 147.656 116.455 147.659 116.472L130.299 152.673C130.243 152.635 130.205 152.598 130.168 152.56Z" fill="white"/>
</svg>
