<svg width="275" height="228" viewBox="0 0 275 228" fill="none" xmlns="http://www.w3.org/2000/svg">
<path d="M159.319 30.2823C141.739 29.6707 124.997 23.9922 109.009 17.7782C93.0221 11.5641 77.1868 4.67871 60.0287 1.38686C48.9928 -0.730686 36.3707 -1.0297 27.4807 4.89074C18.922 10.5992 16.1569 20.4258 14.6712 29.5538C13.5521 36.4202 12.8948 43.6481 15.9587 50.0742C18.0881 54.5376 21.8636 58.2888 24.4766 62.5647C33.5676 77.4392 27.1412 95.7822 17.2923 110.306C12.6748 117.121 7.31035 123.626 3.74401 130.873C0.177668 138.12 -1.47105 146.435 1.64984 153.834C4.74085 161.173 12.1098 166.675 20.0927 170.549C36.3056 178.418 55.403 180.669 74.0387 181.944C115.278 184.768 156.735 183.545 198.084 182.322C213.387 181.868 228.755 181.408 243.808 179.041C252.168 177.725 260.798 175.64 266.868 170.6C274.571 164.204 276.481 153.375 271.317 145.353C262.658 131.9 238.723 128.559 232.663 114.123C229.333 106.174 232.753 97.3235 237.596 89.9515C247.983 74.1419 265.391 60.2705 266.306 42.1993C266.936 29.7876 258.568 17.3568 245.628 11.4826C232.066 5.32838 213.256 6.10038 203.255 16.2913C192.948 26.7839 174.842 30.8205 159.319 30.2823Z" fill="#E0E9F8"/>
<path d="M131.568 223.25C177.146 223.25 214.095 218.288 214.095 212.167C214.095 206.045 177.146 201.083 131.568 201.083C85.99 201.083 49.0415 206.045 49.0415 212.167C49.0415 218.288 85.99 223.25 131.568 223.25Z" fill="#E0E9F8"/>
<rect x="174.545" y="79.1667" width="2.63664" height="19.5278" rx="1.31832" fill="#99B9EE"/>
<rect x="94.9189" y="63.3333" width="1.05465" height="6.33333" rx="0.527327" fill="#3A3768"/>
<rect x="94.9189" y="74.9444" width="1.05465" height="11.0833" rx="0.527327" fill="#3A3768"/>
<rect x="94.9189" y="90.25" width="1.05465" height="11.6111" rx="0.527327" fill="#3A3768"/>
<rect x="94.9189" y="41.6944" width="80.681" height="163.083" rx="12" fill="#99B9EE"/>
<path d="M164.452 45.9167H155.205V47.028C155.205 48.4251 154.649 49.7649 153.66 50.7526C152.671 51.7402 151.33 52.2947 149.932 52.294H120.524C119.126 52.2947 117.785 51.7402 116.796 50.7526C115.806 49.7649 115.251 48.4251 115.251 47.028V45.9167H106.594C103.058 45.9167 100.192 48.7804 100.192 52.313V194.687C100.192 196.383 100.867 198.01 102.067 199.21C103.268 200.409 104.896 201.083 106.594 201.083H164.452C167.988 201.083 170.854 198.22 170.854 194.687V52.3239C170.857 50.6256 170.184 48.9959 168.983 47.794C167.782 46.5921 166.152 45.9167 164.452 45.9167Z" fill="#F7F7F7"/>
<rect x="127.613" y="46.4444" width="11.0739" height="2.63889" rx="1.31944" fill="#E6E8EC"/>
<path d="M141.587 49.0833C142.315 49.0833 142.906 48.4926 142.906 47.7639C142.906 47.0352 142.315 46.4444 141.587 46.4444C140.859 46.4444 140.269 47.0352 140.269 47.7639C140.269 48.4926 140.859 49.0833 141.587 49.0833Z" fill="#E6E8EC"/>
<path d="M203.65 34.3357C203.65 34.3357 181.067 32.9407 183.728 49.1425C183.728 49.1425 183.191 52.0067 185.734 53.3056C185.734 53.3056 185.774 52.1055 188.051 52.5147C188.862 52.6523 189.685 52.6928 190.505 52.6355C191.611 52.5611 192.663 52.1206 193.504 51.3806C193.504 51.3806 199.852 48.6949 202.319 38.0731C202.319 38.0731 204.146 35.7554 204.073 35.1595L200.262 36.8264C200.262 36.8264 201.566 39.6411 200.53 41.9807C200.53 41.9807 200.407 36.928 199.675 37.0378C199.527 37.0598 197.696 38.0127 197.696 38.0127C197.696 38.0127 199.935 42.9144 198.245 46.4788C198.245 46.4788 198.886 40.4374 196.996 38.3669L194.314 39.9706C194.314 39.9706 196.931 45.0344 195.156 49.1672C195.156 49.1672 195.612 42.8293 193.748 40.3606L191.318 42.302C191.318 42.302 193.777 47.2917 192.278 50.7188C192.278 50.7188 192.082 43.3428 190.792 42.7853C190.792 42.7853 188.665 44.7076 188.341 45.493C188.341 45.493 190.025 49.1178 188.979 51.0291C188.979 51.0291 188.338 46.1136 187.812 46.0861C187.812 46.0861 185.694 49.343 185.474 51.5783C185.474 51.5783 185.565 48.2583 187.3 45.7786C187.3 45.7786 185.251 46.1383 184.055 47.4976C184.055 47.4976 184.385 45.1964 187.823 44.9932C187.823 44.9932 189.574 42.5217 190.041 42.3734C190.041 42.3734 186.624 42.0796 184.551 43.0215C184.551 43.0215 186.375 40.8494 190.669 41.8379L193.069 39.8306C193.069 39.8306 188.569 39.2017 186.659 39.8965C186.659 39.8965 188.856 37.9742 193.715 39.3747L196.328 37.7765C196.328 37.7765 192.49 36.9307 190.205 37.2273C190.205 37.2273 192.619 35.8954 197.095 37.3399L198.972 36.4803C198.972 36.4803 196.161 35.9147 195.338 35.824C194.515 35.7334 194.472 35.5027 194.472 35.5027C196.253 35.1987 198.081 35.4069 199.753 36.1041C199.753 36.1041 203.717 34.591 203.65 34.3357Z" fill="#99B9EE"/>
<path d="M180.148 26.93C180.148 26.93 169.736 26.3115 170.953 33.5112C170.953 33.5112 170.709 34.7832 171.879 35.3611C171.879 35.3611 171.898 34.821 172.95 35.0073C173.324 35.0693 173.704 35.0875 174.082 35.0613C174.593 35.028 175.079 34.8308 175.465 34.4996C175.465 34.4996 178.397 33.306 179.537 28.5854C179.537 28.5854 180.378 27.5565 180.345 27.2918L178.586 28.0318C178.586 28.0318 179.186 29.2821 178.715 30.3219C178.715 30.3219 178.657 28.0777 178.32 28.129C178.252 28.129 177.405 28.5638 177.405 28.5638C177.405 28.5638 178.441 30.7431 177.66 32.3257C177.66 32.3257 177.956 29.6413 177.082 28.7204L175.843 29.4442C175.843 29.4442 177.052 31.6937 176.232 33.5301C176.232 33.5301 176.443 30.7134 175.583 29.617L174.463 30.4812C174.463 30.4812 175.597 32.6984 174.906 34.2215C174.906 34.2215 174.813 30.943 174.219 30.6945C174.219 30.6945 173.238 31.5479 173.087 31.899C173.087 31.899 173.865 33.5193 173.383 34.3592C173.383 34.3592 173.087 32.1744 172.835 32.1636C172.835 32.1636 171.857 33.6111 171.756 34.5941C171.805 33.6776 172.095 32.7895 172.599 32.0178C172.035 32.1232 171.514 32.3888 171.101 32.7821C171.101 32.7821 171.254 31.7586 172.841 31.6694C172.841 31.6694 173.663 30.5703 173.865 30.5028C173.865 30.5028 172.287 30.3732 171.331 30.7918C171.331 30.7918 172.172 29.8277 174.153 30.2651L175.249 29.374C175.249 29.374 173.169 29.1039 172.29 29.4037C172.29 29.4037 173.304 28.5503 175.548 29.1714L176.753 28.4612C176.753 28.4612 174.98 28.0858 173.926 28.2208C173.926 28.2208 175.041 27.6294 177.106 28.2694L177.97 27.8887C177.97 27.8887 176.671 27.6375 176.29 27.597C175.909 27.5565 175.89 27.4539 175.89 27.4539C176.712 27.319 177.557 27.4125 178.328 27.7239C178.328 27.7239 180.181 27.0434 180.148 26.93Z" fill="#99B9EE"/>
<path d="M234.66 211.111C238.738 211.111 242.043 210.52 242.043 209.792C242.043 209.063 238.738 208.472 234.66 208.472C230.583 208.472 227.278 209.063 227.278 209.792C227.278 210.52 230.583 211.111 234.66 211.111Z" fill="#E0E9F8"/>
<path d="M24.2571 221.139C28.3344 221.139 31.6397 220.548 31.6397 219.819C31.6397 219.091 28.3344 218.5 24.2571 218.5C20.1798 218.5 16.8745 219.091 16.8745 219.819C16.8745 220.548 20.1798 221.139 24.2571 221.139Z" fill="#E0E9F8"/>
<path d="M52.7327 228C56.81 228 60.1153 227.409 60.1153 226.681C60.1153 225.952 56.81 225.361 52.7327 225.361C48.6554 225.361 45.3501 225.952 45.3501 226.681C45.3501 227.409 48.6554 228 52.7327 228Z" fill="#E0E9F8"/>
<path d="M218.05 224.833C224.02 224.833 228.86 224.006 228.86 222.986C228.86 221.966 224.02 221.139 218.05 221.139C212.079 221.139 207.24 221.966 207.24 222.986C207.24 224.006 212.079 224.833 218.05 224.833Z" fill="#99B9EE"/>
<path d="M223.049 220.462C223.542 220.047 223.901 219.489 224.079 218.86C224.214 218.226 223.95 217.476 223.358 217.23C222.696 216.97 221.988 217.443 221.453 217.919C220.917 218.395 220.301 218.94 219.599 218.838C220.334 218.154 220.666 217.123 220.473 216.123C220.442 215.919 220.357 215.728 220.228 215.569C219.862 215.165 219.195 215.337 218.756 215.658C217.357 216.668 216.967 218.625 216.959 220.382C216.816 219.748 216.937 219.087 216.932 218.445C216.926 217.803 216.757 217.061 216.221 216.721C215.891 216.538 215.52 216.449 215.145 216.46C214.515 216.436 213.815 216.502 213.385 216.975C212.847 217.562 212.992 218.547 213.455 219.189C213.918 219.831 214.625 220.243 215.277 220.689C215.798 221.008 216.242 221.444 216.576 221.965C216.617 222.037 216.649 222.114 216.673 222.194H220.605C221.492 221.733 222.314 221.15 223.049 220.462Z" fill="#99B9EE"/>
<path d="M53.1068 196.333C53.1068 196.333 54.5852 198.368 52.4267 201.426C50.2682 204.484 48.4887 207.085 49.201 209C49.201 209 52.459 203.299 55.1148 203.22C57.7706 203.141 56.0233 199.762 53.1068 196.333Z" fill="#99B9EE"/>
<path opacity="0.1" d="M53.0651 196.333C53.1955 196.53 53.298 196.745 53.3696 196.972C55.9849 200.167 57.3796 203.15 54.8648 203.224C52.5241 203.294 49.7157 207.648 49.0415 208.748C49.0633 208.833 49.0904 208.915 49.1203 209C49.1203 209 52.4153 203.303 55.1014 203.224C57.7874 203.144 56.0148 199.76 53.0651 196.333Z" fill="black"/>
<path d="M56.4241 198.858C56.4241 199.504 56.3069 200.028 56.1604 200.028C56.0139 200.028 55.8967 199.504 55.8967 198.858C55.8967 198.212 56.0432 198.516 56.1897 198.516C56.3362 198.516 56.4241 198.212 56.4241 198.858Z" fill="#FFD037"/>
<path d="M57.1038 199.506C56.485 199.877 55.9443 200.101 55.8997 200.006C55.8551 199.911 56.315 199.533 56.9338 199.162C57.5525 198.791 57.3101 199.061 57.3547 199.162C57.3993 199.263 57.7226 199.135 57.1038 199.506Z" fill="#FFD037"/>
<path d="M45.5049 196.333C45.5049 196.333 44.027 198.368 46.1848 201.426C48.3426 204.484 50.1215 207.085 49.4094 209C49.4094 209 46.1552 203.299 43.4976 203.22C40.84 203.141 42.584 199.762 45.5049 196.333Z" fill="#99B9EE"/>
<path opacity="0.1" d="M45.5477 196.333C45.417 196.53 45.3136 196.745 45.2407 196.972C42.6269 200.167 41.2358 203.15 43.7463 203.224C46.0884 203.294 48.895 207.648 49.5689 208.748C49.5466 208.834 49.5194 208.918 49.4873 209C49.4873 209 46.1971 203.303 43.5099 203.224C40.8228 203.144 42.5943 199.76 45.5477 196.333Z" fill="#99B9EE"/>
<path d="M42.7134 198.858C42.7134 199.504 42.8338 200.028 42.9791 200.028C43.1244 200.028 43.2407 199.504 43.2407 198.858C43.2407 198.212 43.0954 198.516 42.9501 198.516C42.8047 198.516 42.7134 198.212 42.7134 198.858Z" fill="#FFD037"/>
<path d="M42.0355 199.506C42.6532 199.877 43.1903 200.101 43.2376 200.006C43.2849 199.911 42.8202 199.533 42.2025 199.162C41.5847 198.791 41.8296 199.061 41.7823 199.162C41.735 199.263 41.4178 199.135 42.0355 199.506Z" fill="#FFD037"/>
<path d="M43.2407 208.099C43.2407 208.099 47.3498 207.968 48.5911 207.07C49.8324 206.173 54.9126 205.095 55.2176 206.538C55.5225 207.981 61.3946 213.71 56.7558 213.749C52.117 213.787 45.9748 213.012 44.7388 212.245C43.5029 211.479 43.2407 208.099 43.2407 208.099Z" fill="#99B9EE"/>
<path opacity="0.2" d="M56.8386 213.239C52.1989 213.278 46.0556 212.482 44.8194 211.694C43.8802 211.092 43.5029 208.937 43.3772 207.944H43.2407C43.2407 207.944 43.5083 211.414 44.7364 212.204C45.9646 212.995 52.116 213.788 56.7557 213.749C58.0935 213.749 58.5564 213.239 58.5323 212.499C58.345 212.953 57.834 213.23 56.8386 213.239Z" fill="black"/>
<path d="M76.4624 120.529C76.6039 120.678 76.8183 120.708 76.9897 120.603C76.8116 120.606 76.634 120.581 76.4624 120.529Z" fill="url(#paint0_linear)"/>
<path fill-rule="evenodd" clip-rule="evenodd" d="M108.918 66.8582C108.344 66.69 107.528 66.4158 106.54 66.0711C107.565 64.7356 108.314 63.2105 108.744 61.584L108.66 61.6166C108.673 61.5664 108.688 61.5169 108.702 61.4673C108.716 61.4178 108.73 61.3682 108.744 61.318C106.856 62.0944 104.764 60.7751 103.433 59.0895C102.856 58.3574 102.358 57.5476 101.86 56.7382L101.86 56.7381C101.212 55.6837 100.565 54.63 99.7414 53.7501C99.1336 53.134 98.4796 52.5651 97.7852 52.0481C97.3554 51.7115 96.8901 51.3614 96.365 51.3451C95.8652 51.3307 95.4285 51.6156 94.9868 51.9039C94.6783 52.1052 94.3674 52.3081 94.0307 52.4119C93.4907 52.535 92.9278 52.5144 92.3983 52.3522C91.5897 52.1642 90.7922 51.9159 89.9956 51.6679C88.7095 51.2674 87.4255 50.8676 86.1 50.7235C84.9462 50.5786 83.7744 50.7117 82.6828 51.1117C81.98 51.3816 81.5269 51.8225 81.0596 52.2771C80.8032 52.5265 80.5426 52.78 80.2342 53.0118C79.4737 53.5847 78.106 53.6855 77.0211 53.7655L77.0211 53.7655C76.7592 53.7848 76.5138 53.8029 76.2974 53.8261C74.9484 53.9807 73.59 54.0379 72.2327 53.9971C71.4523 53.9267 70.666 53.9559 69.8929 54.084C68.2769 54.4423 66.9791 55.7398 65.7684 56.9885C65.4365 57.2736 65.1985 57.652 65.0855 58.0742C65.0706 58.1932 65.0706 58.3136 65.0855 58.4326C65.073 58.7571 65.1286 59.0807 65.2488 59.3826C65.6146 60.5049 66.1366 61.5703 66.7995 62.5477C66.9048 62.7 67.0135 62.8503 67.1224 63.0007L67.1225 63.0009C67.526 63.5584 67.9306 64.1175 68.1599 64.7844C68.2935 65.2014 68.3641 65.636 68.3694 66.0738C68.3541 66.5389 68.3059 67.0025 68.2252 67.4609C68.0114 68.7248 67.6601 69.9618 67.1777 71.1498C67.1469 71.2258 67.1156 71.3017 67.0842 71.3777L67.0842 71.3778C66.8556 71.9318 66.6254 72.4898 66.5656 73.0961C66.5575 73.2335 66.5575 73.3713 66.5656 73.5087C66.5204 74.6838 67.1498 75.6781 67.7901 76.6896C68.308 77.5076 68.8329 78.3369 69.0142 79.2823C69.0463 79.4572 69.0663 79.6341 69.074 79.8117C69.0278 81.1309 68.285 82.4203 67.1913 82.9306C67.2581 82.9572 67.3263 82.9812 67.3948 83.0054C67.424 83.0156 67.4532 83.0259 67.4824 83.0364C67.3884 83.096 67.2913 83.1503 67.1913 83.1993C67.3899 83.2753 67.594 83.3405 67.8008 83.4002C66.5498 84.4936 65.4993 85.7961 64.6965 87.2493C61.0345 94.1793 36.0751 107.773 36.0751 107.773C36.0751 107.773 36.2165 107.852 36.4451 107.988C36.3526 108.045 36.2546 108.11 36.1458 108.183C33.9856 109.638 28.9143 113.884 33.4986 119.237C33.4986 119.237 37.0763 113.523 39.582 111.093C39.6963 110.985 39.8051 110.884 39.9112 110.789C40.0244 110.962 40.0599 111.175 40.0091 111.375L56.4229 102.046C56.4229 102.046 62.256 97.9144 63.883 96.9806C63.9333 96.9519 63.9905 96.9186 64.0543 96.8815L64.0544 96.8815C64.702 96.5046 66.0251 95.7347 67.5804 95.3764L67.3899 95.4605C68.0031 95.2895 68.636 95.1982 69.2726 95.1891C72.1783 95.2352 75.3234 97.3878 76.3627 105.914C77.7529 117.331 77.1082 119.389 76.662 119.671C76.6066 119.667 76.5519 119.657 76.4987 119.641C76.512 119.653 76.5266 119.664 76.5423 119.674C76.4813 119.67 76.4211 119.659 76.3627 119.641C76.4264 119.701 76.5173 119.724 76.6021 119.701C76.6633 119.719 76.7291 119.711 76.7844 119.679H77.0048C77.0048 119.748 76.9975 119.819 76.9903 119.89C76.9866 119.926 76.983 119.961 76.9803 119.997C76.9585 119.997 76.8497 120.059 76.9803 120.067C76.9476 120.71 76.9504 121.424 76.9803 122.144C75.5356 122.225 74.0937 122.312 72.8285 122.391L72.9428 121.785L72.9945 121.514C74.1018 121.424 75.1547 121.096 75.2771 120.184C75.5492 118.186 72.8285 117.119 70.5296 116.986C68.2306 116.853 54.3879 117.787 54.3879 117.787C54.3879 117.787 52.312 120.501 58.8933 121.346C59.0892 121.449 59.2932 121.563 59.5 121.682C62.0765 123.17 65.5752 125.906 67.2485 127.255L67.4824 127.442L66.7315 128.048C70.253 128.853 73.6571 140.675 75.9174 148.524C76.2766 149.772 76.6068 150.919 76.9041 151.905C79.0725 159.101 83.8228 158.835 87.7568 157.771C91.4433 156.769 91.914 145.941 91.9575 144.581V144.443L98.5116 152.616L99.0095 153.238C99.2027 153.338 99.3904 153.433 99.5754 153.523C104.541 155.914 110.025 151.332 108.464 146.121C106.889 140.854 104.44 133.072 102.808 129.782C101.447 127.027 99.6761 122.453 98.6041 119.581C98.743 119.524 98.8784 119.459 99.0095 119.386C99.0095 119.386 98.985 119.258 98.9415 119.022L99.0095 118.987C99.0095 118.987 97.4315 110.694 97.3445 104.806V104.497V104.304C98.5307 104.033 99.2816 103.924 99.2816 103.924L99.3033 103.669L99.1646 103.699L99.823 96.0604C99.823 96.0604 102.244 90.8514 100.392 88.6798C99.8275 88.0423 99.4508 87.2617 99.3033 86.4241C98.9932 84.4263 99.3034 81.101 103.621 78.335C110.268 74.0706 112.847 70.6042 112.847 70.6042C112.847 70.6042 112.988 68.058 108.918 66.8582ZM95.7175 72.1569V68.6281C96.2985 68.5999 96.8856 68.617 97.4735 68.6341C98.1328 68.6533 98.7932 68.6726 99.4475 68.6281C100.056 68.5853 100.66 68.4835 101.249 68.3241L101.548 68.5331C99.7367 69.941 97.7826 71.1556 95.7175 72.1569ZM78.3325 128.534C77.8509 128.178 77.3612 127.822 76.8742 127.48C77.6815 128.783 78.3647 130.158 78.9147 131.587C78.8956 131.503 78.6317 130.274 78.3325 128.534Z" fill="url(#paint1_linear)"/>
<path d="M87.5364 125.083L87.2471 126.695L87.0248 127.927L86.6203 130.181L82.6987 133C82.6987 133 82.3451 132.689 81.7612 132.2C80.154 130.841 76.7762 128.075 74.2958 126.59C73.6578 126.173 72.9675 125.846 72.2439 125.62L87.5364 125.083Z" fill="#FFBDC6"/>
<path opacity="0.1" d="M87.5364 125.083L87.2471 126.649C86.3822 126.696 85.5149 126.651 84.6595 126.515L75.5092 126.646C75.0779 126.619 74.6734 126.587 74.2958 126.547C73.6578 126.142 72.9675 125.824 72.2439 125.604L87.5364 125.083Z" fill="black"/>
<path d="M84.7583 125.992C84.7583 125.992 89.3571 126.732 89.6265 124.89C89.8959 123.048 87.2584 122.053 85.025 121.929C82.7916 121.805 69.3803 122.669 69.3803 122.669C69.3803 122.669 67.0149 125.628 75.5579 126.123L84.7583 125.992Z" fill="#474463"/>
<path opacity="0.1" d="M87.5364 125.083L87.2471 126.695L87.0248 127.927L86.6203 130.181L82.6987 133C82.6987 133 82.3451 132.689 81.7612 132.2C80.154 130.841 76.7762 128.075 74.2958 126.59C73.6578 126.173 72.9675 125.846 72.2439 125.62L87.5364 125.083Z" fill="black"/>
<path opacity="0.1" d="M87.5364 125.083L87.2471 126.649C86.3822 126.696 85.5149 126.651 84.6595 126.515L75.5092 126.646C75.0779 126.619 74.6734 126.587 74.2958 126.547C73.6578 126.142 72.9675 125.824 72.2439 125.604L87.5364 125.083Z" fill="black"/>
<path opacity="0.1" d="M84.7615 125.994C84.7615 125.994 89.3632 126.731 89.6272 124.884C89.8912 123.036 87.259 122.052 85.0255 121.929C82.792 121.805 69.3803 122.668 69.3803 122.668C69.3803 122.668 67.0148 125.623 75.5581 126.115L84.7615 125.994Z" fill="black"/>
<rect x="70.6619" y="61.2222" width="24.257" height="28.5" fill="#474463"/>
<rect opacity="0.1" x="70.6619" y="61.2222" width="24.257" height="28.5" fill="black"/>
<path d="M42.1862 110.073C41.7988 110.174 41.3032 110.562 40.7524 111.125C38.3801 113.561 34.9826 119.278 34.9826 119.278C30.6387 113.911 35.4465 109.671 37.4945 108.213C37.9927 107.861 38.3274 107.667 38.3274 107.667L42.1862 110.073Z" fill="#FFBDC6"/>
<path d="M87.5937 69.6667C87.5937 69.6667 88.7729 77.9077 92.837 79.8701C96.901 81.8325 87.5937 85.5 87.5937 85.5L74.8804 80.787C74.8804 80.787 82.0899 78.4305 80.6474 71.4977L87.5937 69.6667Z" fill="#B97A59"/>
<path d="M73.8257 120.333L73.5393 121.94L73.3064 123.178L72.9022 125.433L68.9834 128.25C68.9834 128.25 68.63 127.942 68.0465 127.452C66.4404 126.093 63.065 123.326 60.5836 121.841C59.9464 121.423 59.2565 121.096 58.5332 120.87L73.8257 120.333Z" fill="#B97A59"/>
<path opacity="0.1" d="M73.8257 120.333L73.5391 121.899C72.6742 121.946 71.8069 121.901 70.9515 121.765L61.8012 121.896C61.3699 121.869 60.9628 121.837 60.5851 121.797C59.9474 121.389 59.257 121.071 58.5332 120.851L73.8257 120.333Z" fill="black"/>
<path d="M71.0535 121.771C71.0535 121.771 75.6557 122.508 75.9171 120.664C76.1785 118.819 73.5513 117.83 71.3149 117.707C69.0784 117.583 55.6706 118.446 55.6706 118.446C55.6706 118.446 53.3021 121.4 61.8491 121.895L71.0535 121.771Z" fill="#0B4870"/>
<path opacity="0.1" d="M73.2984 123.068L72.8527 125.372L68.531 128.25C68.531 128.25 68.1413 127.935 67.4978 127.435L73.2128 122.972L73.2984 123.068Z" fill="black"/>
<path d="M99.6597 153.533C99.4773 153.443 99.2949 153.351 99.1152 153.261L98.6251 152.644L92.1971 144.502C92.1971 144.502 92.1971 144.551 92.1971 144.643C92.1535 146.003 91.6907 156.777 88.0805 157.772C84.2281 158.833 79.5806 159.099 77.4625 151.934C75.3443 144.768 71.4728 129.11 67.4978 128.18L73.4113 123.337C73.4113 123.337 77.3263 127.911 78.9218 132.289C78.8619 132.017 76.1583 119.399 78.3772 117.167H97.7757C97.7757 117.167 100.77 125.686 102.823 129.907C104.421 133.184 106.82 140.931 108.364 146.174C109.894 151.352 104.522 155.923 99.6597 153.533Z" fill="#0B4870"/>
<path opacity="0.1" d="M98.6102 119.192C95.6174 120.945 82.4794 120.231 78.2053 119.946L77.0408 119.863C76.9157 119.863 77.0599 119.793 77.0599 119.793L77.1796 118.6L80.3655 110.591L97.424 100.806C97.0784 101.836 96.9642 103.413 96.9914 105.219C97.0703 111.022 98.6102 119.192 98.6102 119.192Z" fill="black"/>
<path d="M98.6102 119.192C95.637 120.945 82.5847 120.231 78.3385 119.946L77.1817 119.865L76.9897 119.849L77.2006 119.795L78.2439 119.526L80.4846 110.592L97.4317 100.806C97.0884 101.837 96.9749 103.415 97.0019 105.221C97.0803 111.021 98.6102 119.192 98.6102 119.192Z" fill="#B97A59"/>
<path opacity="0.1" d="M97.6464 105.305C94.1465 106.113 86.4439 108.483 83.4848 114.205C81.5111 118.015 79.8504 119.649 78.692 120.333L77.5171 120.251C77.5248 120.227 77.5312 120.204 77.5363 120.18L78.5959 119.905L80.8715 110.791L98.0828 100.806C97.737 101.852 97.6189 103.462 97.6464 105.305Z" fill="black"/>
<path opacity="0.1" d="M38.2827 107.667L42.1861 109.868C41.7942 109.961 41.2929 110.317 40.7357 110.833C40.4104 109.941 38.368 108.695 37.4402 108.163C37.9441 107.845 38.2827 107.667 38.2827 107.667Z" fill="black"/>
<path opacity="0.1" d="M76.9897 119.553C76.8162 119.643 76.6045 119.613 76.4624 119.479C76.6336 119.529 76.8113 119.554 76.9897 119.553Z" fill="black"/>
<path d="M85.6139 79.8876C85.6139 79.8876 82.04 80.2837 79.5264 77.6356C79.5264 77.6356 68.9513 80.6825 65.3693 87.5659C61.7873 94.4494 37.4402 107.956 37.4402 107.956C37.4402 107.956 41.6757 110.338 41.2771 111.529L57.2889 102.261C57.2889 102.261 62.9831 98.1583 64.564 97.2304C66.1448 96.3025 74.8869 90.6102 76.7389 106.1C78.5909 121.59 76.7389 119.736 76.7389 119.736C76.7389 119.736 79.3854 120.664 83.2223 113.249C87.0591 105.834 98.9656 104.114 98.9656 104.114L99.6273 96.3052C99.6273 96.3052 101.989 91.1284 100.17 88.9795C99.6184 88.3433 99.2517 87.5683 99.1093 86.7384C98.8084 84.7551 99.1093 81.4504 103.323 78.7046C109.806 74.4666 112.32 71.0262 112.32 71.0262C112.32 71.0262 112.453 68.5084 108.483 67.3173C104.514 66.1262 88.3715 59.6389 88.3715 59.6389L87.8292 61.8908L100.565 70.8851C100.565 70.8851 94.215 76.0402 89.1769 75.9154C89.1769 75.9154 90.1124 79.7546 85.6139 79.8876Z" fill="#FDB32A"/>
<path opacity="0.1" d="M88.0637 73.2441C87.7505 72.2434 87.5058 71.2247 87.3311 70.1944L80.3139 71.9418C80.6233 73.2049 80.568 74.523 80.1538 75.759C83.087 76.4971 86.2036 75.5062 88.0637 73.2441Z" fill="black"/>
<path d="M82.2629 76C86.3402 76 89.6455 72.6919 89.6455 68.6111C89.6455 64.5303 86.3402 61.2222 82.2629 61.2222C78.1857 61.2222 74.8804 64.5303 74.8804 68.6111C74.8804 72.6919 78.1857 76 82.2629 76Z" fill="#B97A59"/>
<path opacity="0.1" d="M85.9694 51.2568C88.0684 51.4945 90.0615 52.4018 92.1279 52.8964C92.6442 53.0587 93.194 53.0803 93.7213 52.9592C94.5234 52.7078 95.176 51.8662 96.008 51.8908C96.5191 51.8908 96.9732 52.2569 97.3947 52.593C98.0712 53.1121 98.7075 53.6822 99.298 54.2982C100.723 55.8531 101.606 57.9463 102.906 59.6378C104.206 61.3293 106.256 62.6437 108.102 61.8677C106.846 66.7864 102.732 70.5329 98.2811 70.839C96.5056 70.9592 94.6865 70.5876 92.9681 71.1122C92.5398 71.2873 92.0881 71.3978 91.6276 71.4402C90.6379 71.4402 89.8412 70.5274 89.224 69.6393C87.7775 67.5516 86.6328 65.1796 85.0041 63.275C84.4603 62.6465 83.8322 62.048 83.0709 61.9333C82.3096 61.8185 81.6108 62.1819 80.9337 62.5344C79.8162 63.1165 78.6742 63.7204 77.8069 64.7206C76.9395 65.7207 76.393 67.2073 76.7519 68.5463C76.9449 69.2732 77.3854 69.929 77.3936 70.6887C77.4099 71.8992 76.344 72.7873 76.1347 73.9679C76.0875 74.4637 76.0702 74.9619 76.083 75.4599C75.9906 77.0776 74.9383 78.403 73.8398 79.4195C73.4102 79.8157 72.9371 80.2393 72.812 80.8514C72.7277 81.2668 72.812 81.7095 72.7577 82.1303C72.5972 83.1796 71.5559 83.7125 70.6341 83.8519C69.5571 84.0094 68.4578 83.8784 67.4474 83.472C68.7362 82.8572 69.5302 81.1165 69.2311 79.5534C68.8205 77.3891 66.6562 75.837 66.8411 73.6317C66.9432 72.9561 67.1448 72.2994 67.4393 71.6834C67.9112 70.4942 68.254 69.2574 68.4616 67.9943C68.6248 67.016 68.7036 65.9803 68.3991 65.0512C68.1272 64.2014 67.5589 63.5291 67.0776 62.8132C66.4246 61.8383 65.9094 60.777 65.5468 59.6597C65.4143 59.3298 65.3639 58.9724 65.4 58.6185C65.5059 58.1944 65.7383 57.813 66.0662 57.5255C67.2489 56.2767 68.5133 54.9759 70.0985 54.6207C70.8546 54.4922 71.624 54.4619 72.3879 54.5305C73.7162 54.5738 75.0459 54.5172 76.3658 54.3611C77.4534 54.2326 79.2915 54.2518 80.2132 53.5413C81.0724 52.8772 81.5564 52.0492 82.6141 51.6284C83.6858 51.2321 84.8375 51.1046 85.9694 51.2568Z" fill="black"/>
<path opacity="0.1" d="M90.1729 129.306C90.1729 129.306 95.0678 137.783 93.5841 140.389L90.1729 129.306Z" fill="black"/>
<path opacity="0.1" d="M98.7076 152.528L92.3345 144.308C92.3345 144.308 92.3345 144.358 92.3345 144.451C92.3345 144.451 91.967 141.79 93.1805 142.683C95.84 144.641 100.094 147.849 100.186 148.401C100.278 148.954 99.3238 151.161 98.7076 152.528Z" fill="black"/>
<g opacity="0.1">
<path d="M89.3536 75.9648C89.3536 75.9648 89.8964 78.188 88.1487 79.2996C90.8354 78.8437 90.9548 76.7635 90.8625 75.8596C90.3637 75.9391 89.8587 75.9743 89.3536 75.9648Z" fill="black"/>
<path d="M39.0333 107.297C39.0333 107.297 63.3983 93.8691 66.986 87.0242C69.5506 82.111 75.7328 79.1647 79.0166 77.8912C76.6229 78.7007 68.5573 81.7522 65.5287 87.5503C61.9545 94.3952 37.5759 107.826 37.5759 107.826L39.0333 107.297Z" fill="black"/>
<path d="M94.0975 74.918C98.2443 73.6364 102.207 70.4365 102.207 70.4365L89.484 61.479L89.7743 60.254L88.5558 59.7684L88.0266 62.0078L100.741 70.9599C98.7034 72.5526 96.4711 73.8826 94.0975 74.918Z" fill="black"/>
<path d="M94.1707 105.258C95.7946 104.707 97.461 104.288 99.1533 104.006L99.175 103.752C97.4703 104.125 95.7972 104.628 94.1707 105.258H94.1707Z" fill="black"/>
<path d="M78.7614 119.05H78.6447C78.5553 119.095 78.4468 119.08 78.3733 119.012C78.4615 119.038 78.5529 119.051 78.6447 119.05C79.0789 118.799 79.7303 116.832 78.3733 105.452C76.9133 93.3106 71.168 94.2576 68.0254 95.6552C71.2386 94.7757 75.6595 95.5365 76.916 105.978C78.2865 117.358 77.6325 119.325 77.1874 119.576C77.7521 119.555 78.2987 119.373 78.7614 119.05Z" fill="black"/>
<path d="M77.1874 119.579C77.0956 119.579 77.0042 119.567 76.916 119.541C76.9895 119.609 77.0979 119.624 77.1874 119.579Z" fill="black"/>
</g>
<path d="M92.1278 52.3642C92.6443 52.5256 93.1941 52.5463 93.7212 52.4243C94.5233 52.1756 95.1758 51.331 96.0079 51.3556C96.519 51.372 96.9731 51.7219 97.3946 52.0581C98.0705 52.578 98.7067 53.1481 99.2979 53.7635C100.723 55.3187 101.606 57.4123 102.906 59.1041C104.206 60.7959 106.256 62.1106 108.102 61.3344C106.846 66.254 102.732 70.0012 98.281 70.3073C96.5055 70.4303 94.6864 70.0586 92.968 70.5806C92.5401 70.757 92.0882 70.8675 91.6275 70.9086C90.6378 70.9086 89.8411 69.9957 89.2239 69.1074C87.7773 67.0193 86.6326 64.6497 85.0039 62.7447C84.4601 62.1133 83.832 61.5147 83.0707 61.3999C82.3093 61.2852 81.6105 61.6514 80.9335 62.004C79.816 62.5861 78.674 63.1874 77.8066 64.1905C76.9392 65.1936 76.3927 66.6749 76.7516 68.0169C76.9447 68.7439 77.3852 69.3999 77.3933 70.1597C77.4096 71.3732 76.3438 72.2587 76.1344 73.4395C76.0871 73.9354 76.0699 74.4337 76.0827 74.9318C75.9903 76.5498 74.938 77.8726 73.8395 78.8921C73.4099 79.2857 72.9368 79.712 72.8117 80.3215C72.7274 80.7397 72.8117 81.1797 72.7574 81.6034C72.5969 82.6529 71.5555 83.1859 70.6338 83.3225C69.5568 83.4828 68.4568 83.3516 67.4471 82.9426C68.7359 82.3304 69.5299 80.5866 69.2308 79.026C68.8202 76.8614 66.6558 75.3062 66.8407 73.1033C66.9425 72.4274 67.1441 71.7706 67.4389 71.1545C67.9105 69.9642 68.2533 68.7262 68.4613 67.4621C68.6244 66.4863 68.7033 65.4505 68.3987 64.5185C68.1268 63.6712 67.5585 62.9961 67.0773 62.28C66.4248 61.3056 65.9096 60.2451 65.5465 59.1287C65.4147 58.7976 65.3643 58.4395 65.3996 58.0846C65.5086 57.6656 65.7408 57.2894 66.0658 57.005C67.2486 55.756 68.5129 54.4578 70.0981 54.0997C70.8545 53.9735 71.6238 53.9441 72.3876 54.0123C73.7159 54.0542 75.0455 53.9975 76.3655 53.8428C77.4531 53.7143 79.2912 53.7307 80.213 53.0229C81.0722 52.3614 81.5562 51.5306 82.6139 51.1097C83.6849 50.7106 84.8362 50.5784 85.9692 50.7243C88.0683 50.9648 90.0613 51.8695 92.1278 52.3642Z" fill="#0B4870"/>
<path d="M136.05 140.917C144.496 140.917 151.343 134.064 151.343 125.611C151.343 117.158 144.496 110.306 136.05 110.306C127.604 110.306 120.758 117.158 120.758 125.611C120.758 134.064 127.604 140.917 136.05 140.917Z" fill="white"/>
<path fill-rule="evenodd" clip-rule="evenodd" d="M143.556 142.008C151.142 138.863 156.089 131.454 156.089 123.236C156.089 112.014 146.999 102.917 135.787 102.917C127.576 102.917 120.173 107.867 117.031 115.46C113.888 123.053 115.625 131.792 121.431 137.604C127.238 143.415 135.97 145.153 143.556 142.008ZM148.501 118.919L133.441 133.992V134.003C133.195 134.249 132.862 134.388 132.514 134.388C132.167 134.388 131.833 134.249 131.588 134.003L123.073 125.484C122.564 124.971 122.564 124.142 123.073 123.629L124.926 121.764C125.439 121.253 126.267 121.253 126.779 121.764L132.514 127.517L144.797 115.224C145.042 114.977 145.375 114.839 145.723 114.839C146.07 114.839 146.403 114.977 146.648 115.224L148.501 117.065C148.747 117.31 148.885 117.644 148.885 117.992C148.885 118.34 148.747 118.674 148.501 118.919Z" fill="#3ACC6C"/>
<defs>
<linearGradient id="paint0_linear" x1="76.797" y1="120.666" x2="76.797" y2="120.529" gradientUnits="userSpaceOnUse">
<stop stop-color="#808080" stop-opacity="0.25"/>
<stop offset="0.54" stop-color="#808080" stop-opacity="0.12"/>
<stop offset="1" stop-color="#808080" stop-opacity="0.1"/>
</linearGradient>
<linearGradient id="paint1_linear" x1="112.846" y1="158.319" x2="112.846" y2="50.6665" gradientUnits="userSpaceOnUse">
<stop stop-color="#808080" stop-opacity="0.25"/>
<stop offset="0.54" stop-color="#808080" stop-opacity="0.12"/>
<stop offset="1" stop-color="#808080" stop-opacity="0.1"/>
</linearGradient>
</defs>
</svg>
