<svg width="300" height="162" viewBox="0 0 300 162" fill="none" xmlns="http://www.w3.org/2000/svg">
<path opacity="0.5" d="M31.8438 149.859C31.8438 83.5209 85.6219 29.7428 151.96 29.7428C218.299 29.7428 272.077 83.5209 272.077 149.859" fill="#E0E9F8"/>
<g opacity="0.7">
<path d="M34.5208 150.456C34.5208 150.456 62.3619 84.0617 72.3404 90.2022C82.3189 96.3428 105.89 150.456 105.89 150.456H34.5208Z" fill="#C5D6F1"/>
</g>
<g opacity="0.7">
<path d="M274.388 150.456C274.388 150.456 248.936 86.8952 239.814 92.7739C230.692 98.6523 209.145 150.456 209.145 150.456H274.388Z" fill="#C0D3F2"/>
</g>
<path d="M157.334 151.607H139.679C139.043 151.607 138.528 151.091 138.528 150.456C138.528 149.82 139.043 149.305 139.679 149.305H157.334C157.969 149.305 158.485 149.82 158.485 150.456C158.485 151.092 157.969 151.607 157.334 151.607Z" fill="#5E349D"/>
<path d="M273.369 28.4499H193.689C190.945 28.4499 188.7 26.2048 188.7 23.4606C188.7 20.7165 190.945 18.4714 193.689 18.4714H273.369C276.113 18.4714 278.359 20.7165 278.359 23.4606C278.358 26.2048 276.113 28.4499 273.369 28.4499Z" fill="#E0E9F8"/>
<path d="M96.7794 15.1269H48.5663C45.8221 15.1269 43.577 12.8818 43.577 10.1376C43.577 7.39345 45.8221 5.14836 48.5663 5.14836H96.779C99.5232 5.14836 101.768 7.39345 101.768 10.1376C101.768 12.8818 99.5232 15.1269 96.7794 15.1269Z" fill="#E0E9F8"/>
<path d="M252.029 10.138H203.816C201.072 10.138 198.827 7.89287 198.827 5.14871C198.827 2.40456 201.072 0.159462 203.816 0.159462H252.029C254.773 0.159462 257.018 2.40456 257.018 5.14871C257.018 7.89252 254.773 10.138 252.029 10.138Z" fill="#E0E9F8"/>
<path d="M53.4343 33.4391H5.22155C2.47739 33.4391 0.2323 31.194 0.2323 28.4499C0.2323 25.7057 2.47739 23.4606 5.22155 23.4606H53.4343C56.1784 23.4606 58.4235 25.7057 58.4235 28.4499C58.4235 31.194 56.1784 33.4391 53.4343 33.4391Z" fill="#E0E9F8"/>
<path d="M260.428 69.743H212.215C209.471 69.743 207.225 67.4979 207.225 64.7537C207.225 62.0096 209.471 59.7645 212.215 59.7645H260.427C263.172 59.7645 265.417 62.0096 265.417 64.7537C265.417 67.4979 263.172 69.743 260.428 69.743Z" fill="#E0E9F8"/>
<path d="M91.5346 74.7323H30.1871C27.7594 74.7323 25.7733 72.7462 25.7733 70.3185V69.1679C25.7733 66.7402 27.7594 64.7538 30.1871 64.7538H91.5346C93.9623 64.7538 95.9488 66.7402 95.9488 69.1679V70.3185C95.9488 72.7458 93.9623 74.7323 91.5346 74.7323Z" fill="#E0E9F8"/>
<path d="M299.673 155.115C299.673 158.886 296.616 161.943 292.845 161.943H18.9574C15.1864 161.943 12.1293 158.886 12.1293 155.115C12.1293 151.344 15.1864 148.287 18.9574 148.287H292.846C296.617 148.287 299.673 151.344 299.673 155.115Z" fill="#E0E9F8"/>
<path opacity="0.5" d="M48.1886 120.196C48.1886 120.196 42.7483 139.438 56.0916 140.093C69.435 140.749 67.3588 127.37 65.0404 122.125C62.7221 116.88 80.3107 98.4032 61.1734 88.4303C42.0365 78.4581 35.3702 115.592 48.1886 120.196Z" fill="#BCD1F3"/>
<path opacity="0.5" d="M25.2446 127.712C25.2446 127.712 21.3379 138.861 29.1828 139.732C37.0276 140.604 36.2892 132.638 35.1123 129.461C33.9354 126.284 44.9787 116.026 34.0549 109.45C23.1312 102.874 17.8525 124.531 25.2446 127.712Z" fill="#BCD1F3"/>
<path d="M29.8153 117.478L29.9439 149.305" stroke="#99B9EE"/>
<path d="M33.3161 125.04L29.863 129.302L26.2037 125.495" stroke="#99B9EE"/>
<path d="M55.0594 100.062L55.5578 148.287" stroke="#99B9EE"/>
<path d="M61.1022 106.26L55.18 111.722L49.8158 106.709" stroke="#99B9EE"/>
<path d="M61.0697 116.399L55.1475 121.86L49.7832 116.848" stroke="#99B9EE"/>
<path opacity="0.5" d="M268.144 120.196C268.144 120.196 262.704 139.438 276.047 140.093C289.391 140.749 287.314 127.37 284.996 122.125C282.678 116.88 300.266 98.4032 281.129 88.4303C261.992 78.4581 255.326 115.592 268.144 120.196Z" fill="#BCD1F3"/>
<path opacity="0.5" d="M245.2 127.712C245.2 127.712 241.294 138.861 249.138 139.732C256.983 140.604 256.245 132.638 255.068 129.461C253.891 126.284 264.934 116.026 254.011 109.45C243.087 102.874 237.808 124.531 245.2 127.712Z" fill="#BCD1F3"/>
<path d="M249.771 117.478L249.9 149.305" stroke="#99B9EE"/>
<path d="M253.271 125.04L249.819 129.302L246.159 125.495" stroke="#99B9EE"/>
<path d="M275.015 100.062L275.514 148.287" stroke="#99B9EE"/>
<path d="M281.058 106.26L275.135 111.722L269.771 106.709" stroke="#99B9EE"/>
<path d="M281.025 116.399L275.103 121.86L269.739 116.848" stroke="#99B9EE"/>
<path d="M167.977 91.3603L162.923 55.8455L149.287 53.9741L142.194 91.1036L167.977 91.3603Z" fill="#FAB9AF"/>
<path d="M157.437 146.39L157.452 150.393C157.455 151.208 157.344 152.018 157.123 152.802L156.775 154.035C156.49 155.047 157.251 156.052 158.302 156.048C161.029 156.038 165.689 156.046 166.89 156.048C167.086 156.048 167.279 155.916 167.296 155.72C167.397 154.551 164.022 153.768 161.479 152.784C159.542 152.035 159.646 148.553 159.884 146.521C159.974 145.753 159.334 145.099 158.564 145.163C157.925 145.216 157.435 145.751 157.437 146.39Z" fill="#0B4870"/>
<path d="M138.698 145.268L137.319 149.847C137.258 150.049 137.167 150.241 137.049 150.417L136.071 151.869C135.45 152.791 135.897 154.05 136.96 154.374C136.96 154.374 138.932 155.068 140.964 155.736C143.045 156.419 145.661 155.848 145.661 155.299C145.661 154.079 144.524 155.047 142.62 153.774C141.981 153.347 141.322 152.9 140.735 152.439C139.096 151.152 140.527 147.894 141.531 146.059C141.892 145.399 141.509 144.58 140.773 144.423L140.298 144.322C139.6 144.173 138.904 144.585 138.698 145.268Z" fill="#0B4870"/>
<path d="M152.787 91.7038L167.897 90.4354C167.897 90.4354 169.419 101.433 165.6 121.341C163.809 130.676 160.077 148.516 160.077 148.516C159.152 148.921 158.211 149.023 157.254 148.784C157.254 148.784 156.97 140.914 156.797 132.44C156.631 124.313 156.586 115.628 156.068 112.787C155.01 106.983 152.787 91.7038 152.787 91.7038Z" fill="#0E538C"/>
<path opacity="0.07" d="M152.787 91.7038L167.897 90.4354C167.897 90.4354 169.419 101.433 165.6 121.341C163.809 130.676 160.077 148.516 160.077 148.516C159.152 148.921 158.211 149.023 157.254 148.784C157.254 148.784 156.97 140.914 156.797 132.44C156.631 124.313 156.586 115.628 156.068 112.787C155.01 106.983 152.787 91.7038 152.787 91.7038Z" fill="black"/>
<path d="M155.906 91.8953C157.466 100.268 160.951 112.787 154.238 124.549C147.525 136.31 140.475 148.537 140.475 148.537C139.567 148.574 138.743 148.245 137.977 147.664C137.977 147.664 139.154 142.332 140.856 136.106C142.802 128.984 145.268 120.606 144.565 116.238C143.249 108.052 141.736 97.1495 142.195 91.8546C142.653 86.5608 155.086 87.4931 155.906 91.8953Z" fill="#0E538C"/>
<path opacity="0.07" d="M155.906 91.8953C157.466 100.268 160.951 112.787 154.238 124.549C147.525 136.31 140.475 148.537 140.475 148.537C139.567 148.574 138.743 148.245 137.977 147.664C137.977 147.664 139.154 142.332 140.856 136.106C142.802 128.984 145.268 120.606 144.565 116.238C143.249 108.052 141.736 97.1495 142.195 91.8546C142.653 86.5608 155.086 87.4931 155.906 91.8953Z" fill="black"/>
<path d="M168.499 90.456L162.923 55.846L149.287 53.9746L141.959 90.5207C141.821 91.2075 142.266 91.8742 142.954 92.0051C145.493 92.4861 151.617 93.4914 158.47 93.4914C163.586 93.4914 166.461 92.4964 167.769 91.8669C168.299 91.6107 168.593 91.0365 168.499 90.456Z" fill="white"/>
<path d="M153.547 56.1296C153.547 58.6227 153.094 61.0923 152.242 63.4355C150.576 68.02 148.077 76.6883 149.562 84.3259C151.7 95.3236 154.45 99.7695 150.886 102.332C147.322 104.895 140.486 100.618 140.289 99.1929C140.092 97.7673 141.619 80.2543 143.351 72.6672C145.082 65.0801 149.93 54.1725 149.93 54.1725L151.985 54.392C152.873 54.487 153.547 55.2365 153.547 56.1296Z" fill="#FFBE55"/>
<path d="M159.223 55.338C159.223 55.338 161.588 60.4491 160.764 67.7922C159.939 75.1353 158.028 97.4963 164.71 100.873C166.826 101.942 171.658 97.2068 171.658 95.4505C171.658 93.6937 170.045 87.8135 168.517 82.4672C166.989 77.1209 163.306 55.8979 163.306 55.8979L159.223 55.338Z" fill="#FFBE55"/>
<path d="M157.32 39.4975C154.276 39.4975 153.141 41.6639 153.083 45.6712C153.061 47.1718 153.737 48.6591 154.28 49.6086C154.684 50.314 154.794 51.1493 154.564 51.9287L153.896 54.1906C153.442 56.2889 154.438 57.4396 155.909 57.8575C156.637 58.0643 157.511 57.9041 158.147 57.493C158.903 57.0041 158.965 55.9528 158.825 55.0626L158.652 54.4179C158.42 53.5493 158.923 52.6126 159.802 52.4206C162.145 51.9082 162.481 49.4655 163.109 45.6717C163.763 41.7173 160.363 39.4975 157.32 39.4975Z" fill="#FAB9AF"/>
<path d="M157.207 37.2699C155.097 37.2699 151.611 38.4619 152.051 41.5076L152.44 43.6617C152.596 44.5219 153.313 45.1662 154.184 45.2406C154.265 45.5385 154.535 45.7452 154.844 45.7452C155.221 45.7452 155.527 45.4395 155.527 45.0623C155.527 44.0908 156.209 43.2619 157.156 43.0488C158.319 42.7877 159.561 42.7255 160.861 43.0748C163.244 43.7151 166.074 39.7679 166.078 39.7283C166.078 39.7283 164.871 40.6522 162.483 39.7753C160.096 38.8984 161.091 37.1519 157.207 37.2699Z" fill="#0E538C"/>
<path d="M154.76 45.7452C154.76 46.6746 154.415 47.4275 153.52 47.4275C152.625 47.4275 152.051 46.1499 152.051 45.2205C152.051 44.2912 152.625 44.0629 153.52 44.0629C154.415 44.0629 154.76 44.8159 154.76 45.7452Z" fill="#FAB9AF"/>
<path d="M150.15 44.326C150.15 44.326 149.827 45.0883 149.057 46.1607C148.673 46.6991 148.175 47.3119 147.564 47.9684C146.961 48.6342 146.279 49.3793 145.525 50.1764C144.776 50.9788 143.95 51.8298 143.12 52.7626C142.281 53.686 141.456 54.7099 140.686 55.8053C139.935 56.9101 139.205 58.0745 138.658 59.2645C138.391 59.8578 138.16 60.4574 138.026 61.0144C137.888 61.5675 137.849 62.0883 137.919 62.4038C137.954 62.5596 138.006 62.6615 138.053 62.7198C138.108 62.7732 138.161 62.7947 138.226 62.8388C138.36 62.9172 138.651 63.0774 139.129 63.171L139.396 63.2376C139.437 63.2464 139.494 63.2645 139.521 63.266L139.598 63.2694L139.907 63.293L140.267 63.3086L140.611 63.2856C141.059 63.2234 141.45 63.0901 141.786 62.901C142.456 62.5189 142.944 62.0408 143.544 61.5587C144.129 61.0624 144.776 60.4937 145.367 59.849C146.549 58.5576 147.561 57.1006 148.319 56.0037C148.711 55.4271 149.019 54.9745 149.229 54.6658C149.452 54.342 149.589 54.1617 149.589 54.1617L150.274 54.1838C150.274 54.1838 150.391 54.3748 150.578 54.7476C150.75 55.1195 150.994 55.6775 151.184 56.4162C151.56 57.881 151.8 60.1331 150.888 62.8031C150.424 64.1209 149.67 65.5646 148.377 66.8114C147.728 67.4267 146.945 67.9823 146.047 68.3997C145.152 68.8215 144.142 69.0885 143.115 69.1958C141.052 69.402 138.974 68.9396 137.321 68.1636C136.885 67.9681 136.377 67.7231 135.903 67.414C135.421 67.0838 134.934 66.7071 134.507 66.1839C134.08 65.6749 133.735 65.0576 133.521 64.4163C133.315 63.774 133.243 63.1347 133.251 62.5478C133.28 61.3706 133.59 60.4182 133.938 59.5756C134.292 58.7315 134.719 58.002 135.161 57.3152C136.047 55.9479 137.005 54.7633 137.973 53.6723C138.93 52.5754 139.879 51.5643 140.77 50.6036C141.67 49.6522 142.533 48.7718 143.369 48.0017C144.201 47.2277 145 46.5614 145.726 45.9921C146.442 45.4131 147.118 44.9673 147.709 44.6415C148.888 43.986 149.711 43.7988 149.711 43.7988L150.15 44.326Z" fill="#FFBE55"/>
<path d="M173.831 93.5188C173.831 93.5188 173.373 92.9153 172.997 91.8204C172.797 91.2741 172.664 90.5995 172.502 89.8274C172.351 89.0539 172.197 88.1804 172.067 87.2231C171.928 86.2673 171.793 85.2297 171.594 84.1417C171.394 83.0541 171.123 81.917 170.847 80.7471C170.563 79.5787 170.237 78.3799 169.884 77.1875C169.716 76.5854 169.51 76.0039 169.333 75.4106C169.135 74.8311 168.952 74.28 168.718 73.6553C168.501 73.065 168.267 72.4727 168.035 71.8917C167.783 71.317 167.533 70.7488 167.262 70.2015C166.728 69.1027 166.165 68.07 165.698 67.0691C165.222 66.0702 164.819 65.1066 164.435 64.1846C164.038 63.2719 163.659 62.4057 163.276 61.6038C162.892 60.8043 162.527 60.0518 162.172 59.3816C161.817 58.7124 161.499 58.0995 161.217 57.5959C160.933 57.0722 160.71 56.6612 160.558 56.3805C160.402 56.0924 160.323 55.9253 160.323 55.9253L160.662 55.4447C160.662 55.4447 160.844 55.4683 161.178 55.5378C161.35 55.5667 161.55 55.6196 161.785 55.6882C162.021 55.7544 162.298 55.8293 162.59 55.9425C163.185 56.1551 163.89 56.4652 164.652 56.9105C165.411 57.3563 166.242 57.9271 167.051 58.6605C167.86 59.3904 168.677 60.261 169.406 61.2682C170.142 62.2686 170.809 63.3973 171.297 64.6265C171.805 65.8493 172.119 67.1695 172.395 68.4869C172.652 69.7871 172.912 71.1078 173.173 72.4291C173.294 73.0498 173.417 73.7572 173.532 74.4284C173.626 75.0956 173.718 75.7644 173.781 76.4159C173.926 77.7235 174.021 78.9977 174.117 80.2269C174.225 81.4536 174.29 82.6391 174.395 83.7556C174.5 84.8721 174.637 85.9205 174.737 86.892C174.846 87.862 174.901 88.756 174.929 89.5502C174.947 90.3457 174.964 91.0385 174.884 91.619C174.749 92.7766 174.415 93.462 174.415 93.462L173.831 93.5188Z" fill="#FFBE55"/>
<path d="M153.881 43.9723C153.063 44.3882 152.289 44.8952 151.948 45.0265C151.806 45.0814 151.381 45.1123 151.259 45.1299C150.899 45.1813 150.334 45.2044 150.056 45.4385L148.872 46.4031C148.307 46.8788 147.649 46.9665 147.173 46.4022C146.658 45.7908 146.946 45.0731 147.613 44.6322L148.43 43.9434C148.964 43.5901 149.288 43.0307 149.635 42.4928C150.34 41.3983 151.67 40.6934 152.79 40.2275C153.492 39.935 154.427 40.3558 155.64 40.9839C156.236 41.2925 157.069 41.949 156.241 42.1248C155.548 42.2723 153.649 41.4424 152.502 43.136C152.446 43.2193 152.316 43.4432 152.393 43.5397C152.621 43.8277 153.288 43.3535 153.706 43.232C154.293 43.061 154.718 43.2149 154.827 43.4363C154.943 43.6705 154.465 43.6749 153.881 43.9723Z" fill="#FAB9AF"/>
<path d="M172.771 97.5253C172.789 96.6077 172.706 95.6862 172.751 95.3236C172.77 95.1723 172.942 94.7833 172.985 94.6672C173.109 94.3257 173.355 93.8167 173.279 93.461L172.986 91.9619C172.832 91.2398 173.065 90.6177 173.787 90.4643C174.569 90.2978 175.066 90.8895 175.141 91.6856L175.364 92.7316C175.424 93.3689 175.765 93.9176 176.076 94.4771C176.709 95.6151 176.705 97.1201 176.588 98.3272C176.515 99.0846 175.704 99.7112 174.578 100.486C174.025 100.866 173.054 101.291 173.288 100.479C173.485 99.7979 175.111 98.5139 174.157 96.7037C174.11 96.6145 173.973 96.3951 173.852 96.4171C173.49 96.4827 173.595 97.295 173.505 97.7207C173.38 98.3184 173.044 98.6212 172.797 98.6133C172.536 98.604 172.758 98.1802 172.771 97.5253Z" fill="#FAB9AF"/>
<path d="M154.391 49.8236C154.391 49.8236 156.664 52.9482 159.492 52.525C159.492 52.525 158.904 52.8057 158.762 53.2623C158.761 53.2623 156.075 53.0638 154.391 49.8236Z" fill="#E8948B"/>
<path fill-rule="evenodd" clip-rule="evenodd" d="M169.884 22.8329C170.298 21.1458 169.603 20.0229 167.933 19.6128L165.923 19.1187C164.235 18.7041 163.117 19.3812 162.703 21.0687L162.235 22.9717C162.191 23.1515 162.254 23.2812 162.452 23.3295L164.319 23.7883C164.499 23.8324 164.633 23.7511 164.677 23.5717L165.021 22.1712C165.135 21.7044 165.43 21.5102 165.915 21.6294L166.777 21.8411C167.226 21.9515 167.433 22.2687 167.319 22.7355L166.71 25.2133L163.673 27.0375C163.517 27.1324 163.432 27.2446 163.388 27.4244L163 29.0039C162.943 29.2373 163.038 29.3937 163.271 29.4511L164.958 29.8657C165.192 29.9232 165.348 29.8286 165.406 29.5948L165.6 28.8052C165.648 28.6076 165.733 28.4954 165.889 28.4004L168.707 26.7701C168.882 26.6796 168.967 26.5671 169.015 26.3698L169.884 22.8329ZM162.869 31.085C162.636 31.0279 162.479 31.1225 162.422 31.3559L162.017 33.0077C161.959 33.2411 162.054 33.3974 162.287 33.4549L163.974 33.8695C164.208 33.9269 164.364 33.832 164.422 33.5986L164.827 31.9468C164.885 31.7134 164.79 31.5571 164.556 31.4996L162.869 31.085Z" fill="#FFBE55"/>
</svg>
